G04 #@! TF.GenerationSoftware,KiCad,Pcbnew,(5.1.2-1)-1*
G04 #@! TF.CreationDate,2021-04-25T16:26:51+08:00*
G04 #@! TF.ProjectId,ESP32-Clock,45535033-322d-4436-9c6f-636b2e6b6963,rev?*
G04 #@! TF.SameCoordinates,Original*
G04 #@! TF.FileFunction,Copper,L2,Bot*
G04 #@! TF.FilePolarity,Positive*
%FSLAX46Y46*%
G04 Gerber Fmt 4.6, Leading zero omitted, Abs format (unit mm)*
G04 Created by KiCad (PCBNEW (5.1.2-1)-1) date 2021-04-25 16:26:51*
%MOMM*%
%LPD*%
G04 APERTURE LIST*
%ADD10O,1.350000X1.350000*%
%ADD11R,1.350000X1.350000*%
%ADD12C,1.600000*%
%ADD13R,3.500000X3.500000*%
%ADD14C,0.100000*%
%ADD15C,3.000000*%
%ADD16C,3.500000*%
%ADD17R,1.700000X1.700000*%
%ADD18O,1.700000X1.700000*%
%ADD19C,2.600000*%
%ADD20O,1.050000X1.500000*%
%ADD21R,1.050000X1.500000*%
%ADD22C,1.440000*%
%ADD23C,0.800000*%
%ADD24C,0.600000*%
%ADD25C,0.800000*%
%ADD26C,0.200000*%
%ADD27C,0.400000*%
G04 APERTURE END LIST*
D10*
X53000000Y-122000000D03*
X55000000Y-122000000D03*
X53000000Y-124000000D03*
X55000000Y-124000000D03*
X53000000Y-126000000D03*
X55000000Y-126000000D03*
X53000000Y-128000000D03*
X55000000Y-128000000D03*
X53000000Y-130000000D03*
X55000000Y-130000000D03*
X53000000Y-132000000D03*
X55000000Y-132000000D03*
X53000000Y-134000000D03*
D11*
X55000000Y-134000000D03*
D10*
X83000000Y-122000000D03*
X85000000Y-122000000D03*
X83000000Y-124000000D03*
X85000000Y-124000000D03*
X83000000Y-126000000D03*
X85000000Y-126000000D03*
X83000000Y-128000000D03*
X85000000Y-128000000D03*
X83000000Y-130000000D03*
X85000000Y-130000000D03*
X83000000Y-132000000D03*
X85000000Y-132000000D03*
X83000000Y-134000000D03*
D11*
X85000000Y-134000000D03*
D10*
X118000000Y-122000000D03*
X120000000Y-122000000D03*
X118000000Y-124000000D03*
X120000000Y-124000000D03*
X118000000Y-126000000D03*
X120000000Y-126000000D03*
X118000000Y-128000000D03*
X120000000Y-128000000D03*
X118000000Y-130000000D03*
X120000000Y-130000000D03*
X118000000Y-132000000D03*
X120000000Y-132000000D03*
X118000000Y-134000000D03*
D11*
X120000000Y-134000000D03*
D10*
X183000000Y-122000000D03*
X185000000Y-122000000D03*
X183000000Y-124000000D03*
X185000000Y-124000000D03*
X183000000Y-126000000D03*
X185000000Y-126000000D03*
X183000000Y-128000000D03*
X185000000Y-128000000D03*
X183000000Y-130000000D03*
X185000000Y-130000000D03*
X183000000Y-132000000D03*
X185000000Y-132000000D03*
X183000000Y-134000000D03*
D11*
X185000000Y-134000000D03*
D10*
X148000000Y-122000000D03*
X150000000Y-122000000D03*
X148000000Y-124000000D03*
X150000000Y-124000000D03*
X148000000Y-126000000D03*
X150000000Y-126000000D03*
X148000000Y-128000000D03*
X150000000Y-128000000D03*
X148000000Y-130000000D03*
X150000000Y-130000000D03*
X148000000Y-132000000D03*
X150000000Y-132000000D03*
X148000000Y-134000000D03*
D11*
X150000000Y-134000000D03*
D10*
X213000000Y-122000000D03*
X215000000Y-122000000D03*
X213000000Y-124000000D03*
X215000000Y-124000000D03*
X213000000Y-126000000D03*
X215000000Y-126000000D03*
X213000000Y-128000000D03*
X215000000Y-128000000D03*
X213000000Y-130000000D03*
X215000000Y-130000000D03*
X213000000Y-132000000D03*
X215000000Y-132000000D03*
X213000000Y-134000000D03*
D11*
X215000000Y-134000000D03*
D12*
X158800000Y-93000000D03*
X158800000Y-96500000D03*
D13*
X221000000Y-100000000D03*
D14*
G36*
X222073513Y-92503611D02*
G01*
X222146318Y-92514411D01*
X222217714Y-92532295D01*
X222287013Y-92557090D01*
X222353548Y-92588559D01*
X222416678Y-92626398D01*
X222475795Y-92670242D01*
X222530330Y-92719670D01*
X222579758Y-92774205D01*
X222623602Y-92833322D01*
X222661441Y-92896452D01*
X222692910Y-92962987D01*
X222717705Y-93032286D01*
X222735589Y-93103682D01*
X222746389Y-93176487D01*
X222750000Y-93250000D01*
X222750000Y-94750000D01*
X222746389Y-94823513D01*
X222735589Y-94896318D01*
X222717705Y-94967714D01*
X222692910Y-95037013D01*
X222661441Y-95103548D01*
X222623602Y-95166678D01*
X222579758Y-95225795D01*
X222530330Y-95280330D01*
X222475795Y-95329758D01*
X222416678Y-95373602D01*
X222353548Y-95411441D01*
X222287013Y-95442910D01*
X222217714Y-95467705D01*
X222146318Y-95485589D01*
X222073513Y-95496389D01*
X222000000Y-95500000D01*
X220000000Y-95500000D01*
X219926487Y-95496389D01*
X219853682Y-95485589D01*
X219782286Y-95467705D01*
X219712987Y-95442910D01*
X219646452Y-95411441D01*
X219583322Y-95373602D01*
X219524205Y-95329758D01*
X219469670Y-95280330D01*
X219420242Y-95225795D01*
X219376398Y-95166678D01*
X219338559Y-95103548D01*
X219307090Y-95037013D01*
X219282295Y-94967714D01*
X219264411Y-94896318D01*
X219253611Y-94823513D01*
X219250000Y-94750000D01*
X219250000Y-93250000D01*
X219253611Y-93176487D01*
X219264411Y-93103682D01*
X219282295Y-93032286D01*
X219307090Y-92962987D01*
X219338559Y-92896452D01*
X219376398Y-92833322D01*
X219420242Y-92774205D01*
X219469670Y-92719670D01*
X219524205Y-92670242D01*
X219583322Y-92626398D01*
X219646452Y-92588559D01*
X219712987Y-92557090D01*
X219782286Y-92532295D01*
X219853682Y-92514411D01*
X219926487Y-92503611D01*
X220000000Y-92500000D01*
X222000000Y-92500000D01*
X222073513Y-92503611D01*
X222073513Y-92503611D01*
G37*
D15*
X221000000Y-94000000D03*
D14*
G36*
X217260765Y-95254213D02*
G01*
X217345704Y-95266813D01*
X217428999Y-95287677D01*
X217509848Y-95316605D01*
X217587472Y-95353319D01*
X217661124Y-95397464D01*
X217730094Y-95448616D01*
X217793718Y-95506282D01*
X217851384Y-95569906D01*
X217902536Y-95638876D01*
X217946681Y-95712528D01*
X217983395Y-95790152D01*
X218012323Y-95871001D01*
X218033187Y-95954296D01*
X218045787Y-96039235D01*
X218050000Y-96125000D01*
X218050000Y-97875000D01*
X218045787Y-97960765D01*
X218033187Y-98045704D01*
X218012323Y-98128999D01*
X217983395Y-98209848D01*
X217946681Y-98287472D01*
X217902536Y-98361124D01*
X217851384Y-98430094D01*
X217793718Y-98493718D01*
X217730094Y-98551384D01*
X217661124Y-98602536D01*
X217587472Y-98646681D01*
X217509848Y-98683395D01*
X217428999Y-98712323D01*
X217345704Y-98733187D01*
X217260765Y-98745787D01*
X217175000Y-98750000D01*
X215425000Y-98750000D01*
X215339235Y-98745787D01*
X215254296Y-98733187D01*
X215171001Y-98712323D01*
X215090152Y-98683395D01*
X215012528Y-98646681D01*
X214938876Y-98602536D01*
X214869906Y-98551384D01*
X214806282Y-98493718D01*
X214748616Y-98430094D01*
X214697464Y-98361124D01*
X214653319Y-98287472D01*
X214616605Y-98209848D01*
X214587677Y-98128999D01*
X214566813Y-98045704D01*
X214554213Y-97960765D01*
X214550000Y-97875000D01*
X214550000Y-96125000D01*
X214554213Y-96039235D01*
X214566813Y-95954296D01*
X214587677Y-95871001D01*
X214616605Y-95790152D01*
X214653319Y-95712528D01*
X214697464Y-95638876D01*
X214748616Y-95569906D01*
X214806282Y-95506282D01*
X214869906Y-95448616D01*
X214938876Y-95397464D01*
X215012528Y-95353319D01*
X215090152Y-95316605D01*
X215171001Y-95287677D01*
X215254296Y-95266813D01*
X215339235Y-95254213D01*
X215425000Y-95250000D01*
X217175000Y-95250000D01*
X217260765Y-95254213D01*
X217260765Y-95254213D01*
G37*
D16*
X216300000Y-97000000D03*
D17*
X145800000Y-98800000D03*
D18*
X145800000Y-101340000D03*
X145800000Y-103880000D03*
X145800000Y-106420000D03*
D10*
X142250000Y-132750000D03*
D11*
X142250000Y-130750000D03*
X207750000Y-131000000D03*
D10*
X207750000Y-133000000D03*
D19*
X206600000Y-101500000D03*
X206600000Y-107100000D03*
X184300000Y-94300000D03*
X189900000Y-94300000D03*
D20*
X187980000Y-104750000D03*
X186710000Y-104750000D03*
D21*
X189250000Y-104750000D03*
D22*
X164500000Y-111280000D03*
X161960000Y-108740000D03*
X164500000Y-106200000D03*
D23*
X195635000Y-96025000D03*
X194500000Y-100750000D03*
X197350000Y-113350000D03*
X197350000Y-114850000D03*
X197350000Y-115550000D03*
X195500000Y-130900000D03*
X194350000Y-130905000D03*
X193195000Y-130905000D03*
X192305000Y-130905000D03*
X197350000Y-114150000D03*
X141100000Y-115300000D03*
X141100000Y-114000000D03*
X141100000Y-110300000D03*
X139400000Y-97200000D03*
X97200000Y-98000000D03*
X97000000Y-100500000D03*
X116200000Y-100000000D03*
X181500000Y-104200000D03*
X139525000Y-115300000D03*
X140400000Y-104800000D03*
X54000000Y-111900000D03*
X51200000Y-110300000D03*
X57200000Y-113700000D03*
X93900000Y-115700004D03*
X91900000Y-116500000D03*
X91200000Y-114100000D03*
X132100000Y-111400000D03*
X134500000Y-112600000D03*
X134500000Y-110100000D03*
X135000000Y-108800000D03*
X134900000Y-107200000D03*
X135000000Y-105200000D03*
X135415000Y-101285000D03*
X82800000Y-109900000D03*
X123415000Y-123285000D03*
X123200000Y-124700000D03*
X123900000Y-126100000D03*
X124900000Y-127200000D03*
X125700000Y-128400000D03*
X127100000Y-129400000D03*
X180100000Y-124200000D03*
X186800000Y-125400000D03*
X180200000Y-128400000D03*
X187600000Y-127900000D03*
X178900000Y-129600000D03*
X186800000Y-130900000D03*
X153700000Y-129600000D03*
X146000000Y-130500000D03*
X153700000Y-127600000D03*
X144961550Y-128251500D03*
X153200000Y-123200000D03*
X145300000Y-126100000D03*
X152500000Y-120500000D03*
X145200000Y-122400000D03*
X151400000Y-118600000D03*
X150000000Y-124000000D03*
X146200000Y-121700000D03*
X140700000Y-99900000D03*
X217900000Y-130000000D03*
X210400000Y-130800000D03*
X217700000Y-127400000D03*
X210599754Y-127960147D03*
X217324999Y-125024999D03*
X211200000Y-125900000D03*
X216500000Y-120750000D03*
X214000000Y-120950000D03*
X215800000Y-119100000D03*
X161960000Y-108740000D03*
X134500000Y-138300000D03*
X134800000Y-143800000D03*
X126400000Y-113500000D03*
X127100000Y-135700000D03*
X133800000Y-134600000D03*
X129350000Y-135985000D03*
X144600000Y-116000000D03*
X197300000Y-132900000D03*
X198900000Y-117700000D03*
X130841866Y-134602408D03*
X136100000Y-117300000D03*
D24*
X83000000Y-139200000D02*
X83000000Y-134000000D01*
X81900000Y-140300000D02*
X83000000Y-139200000D01*
X56267999Y-140300001D02*
X81900000Y-140300000D01*
X53000000Y-137032002D02*
X56267999Y-140300001D01*
X53000000Y-134000000D02*
X53000000Y-137032002D01*
D25*
X158800000Y-96500000D02*
X158800000Y-100600000D01*
X152980000Y-106420000D02*
X145800000Y-106420000D01*
X158800000Y-100600000D02*
X152980000Y-106420000D01*
D26*
X196550010Y-96940010D02*
X196550010Y-99377824D01*
X196550010Y-99377824D02*
X195177834Y-100750000D01*
X195635000Y-96025000D02*
X196550010Y-96940010D01*
X195177834Y-100750000D02*
X194500000Y-100750000D01*
D24*
X197350000Y-113350000D02*
X197350000Y-130050000D01*
X197350000Y-130050000D02*
X196500000Y-130900000D01*
X196500000Y-130900000D02*
X195500000Y-130900000D01*
X193195000Y-130905000D02*
X192305000Y-130905000D01*
X192310000Y-130900000D02*
X192305000Y-130905000D01*
X195500000Y-130900000D02*
X192310000Y-130900000D01*
X141100000Y-115300000D02*
X141100000Y-114000000D01*
X141100000Y-114000000D02*
X141100000Y-110300000D01*
X141300001Y-109534314D02*
X141300001Y-102000001D01*
X141100000Y-109734315D02*
X141300001Y-109534314D01*
X141100000Y-110300000D02*
X141100000Y-109734315D01*
X141300001Y-102000001D02*
X139600000Y-100300000D01*
X139600000Y-100300000D02*
X139600000Y-97400000D01*
X139600000Y-97400000D02*
X139400000Y-97200000D01*
X96800001Y-98399999D02*
X96800001Y-99999999D01*
X97200000Y-98000000D02*
X96800001Y-98399999D01*
X96800001Y-99999999D02*
X97000000Y-100199998D01*
X97000000Y-100199998D02*
X97000000Y-100500000D01*
X97200000Y-98000000D02*
X114200000Y-98000000D01*
X114200000Y-98000000D02*
X116200000Y-100000000D01*
D27*
X215000000Y-135075000D02*
X215000000Y-134000000D01*
X214575000Y-135500000D02*
X215000000Y-135075000D01*
X185425000Y-135500000D02*
X214575000Y-135500000D01*
X185000000Y-135075000D02*
X185425000Y-135500000D01*
X185000000Y-134000000D02*
X185000000Y-135075000D01*
X121925000Y-137000000D02*
X148075000Y-137000000D01*
X148075000Y-137000000D02*
X150000000Y-135075000D01*
X120000000Y-135075000D02*
X121925000Y-137000000D01*
X150000000Y-135075000D02*
X150000000Y-134000000D01*
X120000000Y-134000000D02*
X120000000Y-135075000D01*
D24*
X160300001Y-94500001D02*
X160300001Y-131299999D01*
X158800000Y-93000000D02*
X160300001Y-94500001D01*
X157600000Y-134000000D02*
X150000000Y-134000000D01*
X160300001Y-131299999D02*
X157600000Y-134000000D01*
X184300000Y-96138477D02*
X181500000Y-98938477D01*
X184300000Y-94300000D02*
X184300000Y-96138477D01*
X181500000Y-98938477D02*
X181500000Y-104200000D01*
D26*
X139525000Y-115300000D02*
X139525000Y-105675000D01*
X139525000Y-105675000D02*
X140400000Y-104800000D01*
X54000000Y-129000000D02*
X55000000Y-130000000D01*
X54000000Y-111900000D02*
X54000000Y-129000000D01*
X51200000Y-130200000D02*
X53000000Y-132000000D01*
X51200000Y-110300000D02*
X51200000Y-130200000D01*
X57200000Y-114265685D02*
X56900000Y-114565685D01*
X57200000Y-113700000D02*
X57200000Y-114265685D01*
X56900000Y-130100000D02*
X55000000Y-132000000D01*
X56900000Y-114565685D02*
X56900000Y-130100000D01*
X93900000Y-128400000D02*
X93900000Y-116265689D01*
X90300000Y-132000000D02*
X93900000Y-128400000D01*
X85000000Y-132000000D02*
X90300000Y-132000000D01*
X93900000Y-116265689D02*
X93900000Y-115700004D01*
X83975001Y-131024999D02*
X89475001Y-131024999D01*
X83000000Y-132000000D02*
X83975001Y-131024999D01*
X89475001Y-131024999D02*
X91000000Y-129500000D01*
X91000000Y-127065698D02*
X91700000Y-126365698D01*
X91000000Y-129500000D02*
X91000000Y-127065698D01*
X91700000Y-126365698D02*
X91700000Y-116500000D01*
X91700000Y-116500000D02*
X91900000Y-116500000D01*
X85000000Y-130000000D02*
X87500000Y-130000000D01*
X87500000Y-130000000D02*
X91200000Y-126300000D01*
X91200000Y-126300000D02*
X91200000Y-114100000D01*
X84024999Y-128975001D02*
X86924999Y-128975001D01*
X83000000Y-130000000D02*
X84024999Y-128975001D01*
X86924999Y-128975001D02*
X90000000Y-125900000D01*
X90000000Y-125900000D02*
X90000000Y-113600000D01*
X90000000Y-113600000D02*
X92200000Y-111400000D01*
X92200000Y-111400000D02*
X132100000Y-111400000D01*
X132500010Y-110600010D02*
X90499990Y-110600010D01*
X134500000Y-112600000D02*
X132500010Y-110600010D01*
X90499990Y-110600010D02*
X88900000Y-112200000D01*
X88900000Y-112200000D02*
X88900000Y-126000000D01*
X86900000Y-128000000D02*
X85000000Y-128000000D01*
X88900000Y-126000000D02*
X86900000Y-128000000D01*
X84024999Y-126975001D02*
X84531999Y-126975001D01*
X83000000Y-128000000D02*
X84024999Y-126975001D01*
X84531999Y-126975001D02*
X85824999Y-126975001D01*
X85824999Y-126975001D02*
X88000000Y-124800000D01*
X88000000Y-124800000D02*
X88000000Y-111100000D01*
X88000000Y-111100000D02*
X88900000Y-110200000D01*
X134400000Y-110200000D02*
X134500000Y-110100000D01*
X88900000Y-110200000D02*
X134400000Y-110200000D01*
X135000000Y-108800000D02*
X87600000Y-108800000D01*
X87600000Y-108800000D02*
X86800000Y-109600000D01*
X86800000Y-125154594D02*
X85954594Y-126000000D01*
X85954594Y-126000000D02*
X85000000Y-126000000D01*
X86800000Y-109600000D02*
X86800000Y-125154594D01*
X84024999Y-124975001D02*
X85724999Y-124975001D01*
X83000000Y-126000000D02*
X84024999Y-124975001D01*
X85975001Y-124724999D02*
X85975001Y-107624999D01*
X85724999Y-124975001D02*
X85975001Y-124724999D01*
X85975001Y-107624999D02*
X86600000Y-107000000D01*
X134700000Y-107000000D02*
X134900000Y-107200000D01*
X86600000Y-107000000D02*
X134700000Y-107000000D01*
X135000000Y-105200000D02*
X134500000Y-105700000D01*
X134500000Y-105700000D02*
X85400000Y-105700000D01*
X84325001Y-123325001D02*
X85000000Y-124000000D01*
X83975001Y-122975001D02*
X84325001Y-123325001D01*
X83975001Y-107124999D02*
X83975001Y-122975001D01*
X85400000Y-105700000D02*
X83975001Y-107124999D01*
X135415000Y-101285000D02*
X96048988Y-101285000D01*
X96048988Y-101285000D02*
X95863988Y-101100000D01*
X82325001Y-123325001D02*
X83000000Y-124000000D01*
X79100000Y-120100000D02*
X82325001Y-123325001D01*
X79100000Y-102000000D02*
X79100000Y-120100000D01*
X80000000Y-101100000D02*
X79100000Y-102000000D01*
X95863988Y-101100000D02*
X80000000Y-101100000D01*
X82800000Y-121800000D02*
X83000000Y-122000000D01*
X82800000Y-109900000D02*
X82800000Y-121800000D01*
X122158002Y-123285000D02*
X120418003Y-125024999D01*
X120418003Y-125024999D02*
X119075001Y-125024999D01*
X123415000Y-123285000D02*
X122158002Y-123285000D01*
X118674999Y-127325001D02*
X118000000Y-128000000D01*
X118975001Y-127024999D02*
X118674999Y-127325001D01*
X118975001Y-125124999D02*
X118975001Y-127024999D01*
X119075001Y-125024999D02*
X118975001Y-125124999D01*
X123200000Y-124700000D02*
X123200000Y-127300000D01*
X120700000Y-127300000D02*
X120000000Y-128000000D01*
X123200000Y-127300000D02*
X120700000Y-127300000D01*
X123900000Y-127165699D02*
X122040700Y-129024999D01*
X122040700Y-129024999D02*
X118875001Y-129024999D01*
X123900000Y-126100000D02*
X123900000Y-127165699D01*
X118875001Y-129124999D02*
X118000000Y-130000000D01*
X118875001Y-129024999D02*
X118875001Y-129124999D01*
X122100000Y-130000000D02*
X120000000Y-130000000D01*
X124900000Y-127200000D02*
X122100000Y-130000000D01*
X118674999Y-131325001D02*
X118000000Y-132000000D01*
X118975001Y-131024999D02*
X118674999Y-131325001D01*
X123075001Y-131024999D02*
X118975001Y-131024999D01*
X125700000Y-128400000D02*
X123075001Y-131024999D01*
X120954594Y-132000000D02*
X120000000Y-132000000D01*
X122665698Y-132000000D02*
X120954594Y-132000000D01*
X125265698Y-129400000D02*
X122665698Y-132000000D01*
X127100000Y-129400000D02*
X125265698Y-129400000D01*
X180100000Y-124200000D02*
X180100000Y-127000000D01*
X180100000Y-127000000D02*
X181100000Y-128000000D01*
X181100000Y-128000000D02*
X183000000Y-128000000D01*
X186800000Y-125400000D02*
X186800000Y-127900000D01*
X186700000Y-128000000D02*
X185000000Y-128000000D01*
X186800000Y-127900000D02*
X186700000Y-128000000D01*
X180200000Y-128400000D02*
X180200000Y-129700000D01*
X180500000Y-130000000D02*
X183000000Y-130000000D01*
X180200000Y-129700000D02*
X180500000Y-130000000D01*
X187000000Y-130000000D02*
X185000000Y-130000000D01*
X187600000Y-129400000D02*
X187000000Y-130000000D01*
X187600000Y-127900000D02*
X187600000Y-129400000D01*
X179700000Y-132000000D02*
X183000000Y-132000000D01*
X178900000Y-131200000D02*
X179700000Y-132000000D01*
X178900000Y-129600000D02*
X178900000Y-131200000D01*
X186265685Y-132000000D02*
X185954594Y-132000000D01*
X186800000Y-131465685D02*
X186265685Y-132000000D01*
X185954594Y-132000000D02*
X185000000Y-132000000D01*
X186800000Y-130900000D02*
X186800000Y-131465685D01*
X151300000Y-132000000D02*
X150000000Y-132000000D01*
X153700000Y-129600000D02*
X151300000Y-132000000D01*
X147500000Y-132000000D02*
X148000000Y-132000000D01*
X146000000Y-130500000D02*
X147500000Y-132000000D01*
X150954594Y-130000000D02*
X150000000Y-130000000D01*
X153700000Y-128165685D02*
X151865685Y-130000000D01*
X151865685Y-130000000D02*
X150954594Y-130000000D01*
X153700000Y-127600000D02*
X153700000Y-128165685D01*
X144961550Y-128817185D02*
X145400000Y-129255635D01*
X144961550Y-128251500D02*
X144961550Y-128817185D01*
X147255635Y-129255635D02*
X148000000Y-130000000D01*
X145400000Y-129255635D02*
X147255635Y-129255635D01*
X153200000Y-123200000D02*
X153200000Y-127000000D01*
X153200000Y-127000000D02*
X152200000Y-128000000D01*
X152200000Y-128000000D02*
X150000000Y-128000000D01*
X145300000Y-126100000D02*
X145300000Y-127600000D01*
X145700000Y-128000000D02*
X148000000Y-128000000D01*
X145300000Y-127600000D02*
X145700000Y-128000000D01*
X151500000Y-126000000D02*
X150000000Y-126000000D01*
X152500000Y-125000000D02*
X151500000Y-126000000D01*
X152500000Y-120500000D02*
X152500000Y-125000000D01*
X145200000Y-124100000D02*
X146100000Y-124100000D01*
X145200000Y-122400000D02*
X145200000Y-124100000D01*
X146100000Y-124100000D02*
X148000000Y-126000000D01*
X151400000Y-122600000D02*
X150000000Y-124000000D01*
X151400000Y-118600000D02*
X151400000Y-122600000D01*
X146200000Y-121700000D02*
X146200000Y-123500000D01*
X146700000Y-124000000D02*
X148000000Y-124000000D01*
X146200000Y-123500000D02*
X146700000Y-124000000D01*
X142000000Y-101200000D02*
X142000000Y-109700000D01*
X140700000Y-99900000D02*
X142000000Y-101200000D01*
X148000000Y-115700000D02*
X148000000Y-122000000D01*
X142000000Y-109700000D02*
X148000000Y-115700000D01*
X217500001Y-130399999D02*
X217500000Y-131600000D01*
X217100000Y-132000000D02*
X215000000Y-132000000D01*
X217500000Y-131600000D02*
X217100000Y-132000000D01*
X217900000Y-130000000D02*
X217500001Y-130399999D01*
X211600000Y-132000000D02*
X213000000Y-132000000D01*
X210400000Y-130800000D02*
X211600000Y-132000000D01*
X217700000Y-127400000D02*
X217700000Y-129100000D01*
X217700000Y-129100000D02*
X216500000Y-130300000D01*
X215954594Y-130000000D02*
X216254594Y-130300000D01*
X215000000Y-130000000D02*
X215954594Y-130000000D01*
X216254594Y-130300000D02*
X216500000Y-130300000D01*
X210599754Y-127960147D02*
X210599754Y-129799754D01*
X210800000Y-130000000D02*
X213000000Y-130000000D01*
X210599754Y-129799754D02*
X210800000Y-130000000D01*
X216925000Y-125424998D02*
X216925000Y-127775000D01*
X217324999Y-125024999D02*
X216925000Y-125424998D01*
X216700000Y-128000000D02*
X215000000Y-128000000D01*
X216925000Y-127775000D02*
X216700000Y-128000000D01*
X211200000Y-125900000D02*
X211200000Y-127600000D01*
X211600000Y-128000000D02*
X213000000Y-128000000D01*
X211200000Y-127600000D02*
X211600000Y-128000000D01*
X216500000Y-120750000D02*
X216500000Y-125500000D01*
X216000000Y-126000000D02*
X215000000Y-126000000D01*
X216500000Y-125500000D02*
X216000000Y-126000000D01*
X214000000Y-125000000D02*
X213000000Y-126000000D01*
X214000000Y-120950000D02*
X214000000Y-125000000D01*
X215975001Y-123024999D02*
X215674999Y-123325001D01*
X215975001Y-121531999D02*
X215975001Y-123024999D01*
X215800000Y-121356998D02*
X215975001Y-121531999D01*
X215674999Y-123325001D02*
X215000000Y-124000000D01*
X215800000Y-119100000D02*
X215800000Y-121356998D01*
X187980000Y-104975000D02*
X187980000Y-104750000D01*
X184215000Y-108740000D02*
X187980000Y-104975000D01*
X161960000Y-108740000D02*
X184215000Y-108740000D01*
X134500000Y-138300000D02*
X134500000Y-143500000D01*
X134500000Y-143500000D02*
X134800000Y-143800000D01*
X127800001Y-114900001D02*
X127800001Y-133999999D01*
X126400000Y-113500000D02*
X127800001Y-114900001D01*
X127800001Y-133999999D02*
X126800000Y-135000000D01*
X126800000Y-135400000D02*
X127100000Y-135700000D01*
X126800000Y-135000000D02*
X126800000Y-135400000D01*
X130215000Y-135985000D02*
X129350000Y-135985000D01*
X130900010Y-135299990D02*
X130215000Y-135985000D01*
X133100010Y-135299990D02*
X130900010Y-135299990D01*
X133800000Y-134600000D02*
X133100010Y-135299990D01*
X144600000Y-116000000D02*
X142600000Y-118000000D01*
X142600000Y-118000000D02*
X137200000Y-118000000D01*
X133800000Y-121400000D02*
X133800000Y-134600000D01*
X137200000Y-118000000D02*
X133800000Y-121400000D01*
X197300000Y-132900000D02*
X198900000Y-131300000D01*
X198900000Y-131300000D02*
X198900000Y-118265685D01*
X198900000Y-118265685D02*
X198900000Y-117700000D01*
X130841866Y-134602408D02*
X130841866Y-122058134D01*
X130841866Y-122058134D02*
X135600000Y-117300000D01*
X135600000Y-117300000D02*
X136100000Y-117300000D01*
M02*
