M48
; DRILL file {KiCad (5.1.2-1)-1} date Sunday, 25 April 2021 at 16:26:40
; FORMAT={-:-/ absolute / inch / decimal}
; #@! TF.CreationDate,2021-04-25T16:26:40+08:00
; #@! TF.GenerationSoftware,Kicad,Pcbnew,(5.1.2-1)-1
; #@! TF.FileFunction,Plated,1,2,PTH
FMAT,2
INCH
T1C0.0157
T2C0.0295
T3C0.0315
T4C0.0394
T5C0.0512
%
G90
G05
T1
X2.0157Y-4.3425
X2.126Y-4.4055
X2.252Y-4.4764
X3.2598Y-4.3268
X3.5906Y-4.4921
X3.6181Y-4.5866
X3.6969Y-4.5551
X3.8189Y-3.9567
X3.8268Y-3.8583
X4.5748Y-3.937
X4.8504Y-4.9094
X4.8589Y-4.8537
X4.878Y-4.9646
X4.9173Y-5.0079
X4.9488Y-5.0551
X4.9764Y-4.4685
X5.0039Y-5.0945
X5.0039Y-5.3425
X5.0925Y-5.3537
X5.1513Y-5.2993
X5.2008Y-4.3858
X5.2677Y-5.2992
X5.2953Y-4.3346
X5.2953Y-4.4331
X5.2953Y-5.4449
X5.3071Y-5.6614
X5.311Y-4.2205
X5.315Y-4.1417
X5.315Y-4.2835
X5.3313Y-3.9876
X5.3583Y-4.6181
X5.4882Y-3.8268
X5.4931Y-4.5394
X5.5276Y-4.126
X5.5394Y-3.9331
X5.5551Y-4.3425
X5.5551Y-4.4882
X5.5551Y-4.5394
X5.6929Y-4.5669
X5.7071Y-5.0493
X5.7165Y-4.8189
X5.7205Y-4.9646
X5.748Y-5.1378
X5.7559Y-4.7913
X5.9055Y-4.8819
X5.9606Y-4.6693
X6.0039Y-4.7441
X6.0315Y-4.8504
X6.0512Y-5.0236
X6.0512Y-5.1024
X6.3764Y-4.2811
X7.0433Y-5.1024
X7.0906Y-4.8898
X7.0945Y-5.0551
X7.1457Y-4.1024
X7.3543Y-4.937
X7.3543Y-5.1535
X7.3858Y-5.0354
X7.5711Y-5.1537
X7.6061Y-5.1537
X7.6516Y-5.1537
X7.6575Y-3.9665
X7.6969Y-5.1535
X7.7022Y-3.7805
X7.7677Y-5.2323
X7.7697Y-4.4626
X7.7697Y-4.4941
X7.7697Y-4.5217
X7.7697Y-4.5492
X7.8307Y-4.6339
X8.2835Y-5.1496
X8.2913Y-5.0378
X8.315Y-4.9567
X8.4252Y-4.7618
X8.4961Y-4.689
X8.5236Y-4.7539
X8.5561Y-4.9222
X8.5709Y-5.0157
X8.5787Y-5.1181
T2
X7.3508Y-4.124
X7.4008Y-4.124
X7.4508Y-4.124
T3
X2.0866Y-4.8031
X2.0866Y-4.8819
X2.0866Y-4.9606
X2.0866Y-5.0394
X2.0866Y-5.1181
X2.0866Y-5.1969
X2.0866Y-5.2756
X2.1654Y-4.8031
X2.1654Y-4.8819
X2.1654Y-4.9606
X2.1654Y-5.0394
X2.1654Y-5.1181
X2.1654Y-5.1969
X2.1654Y-5.2756
X7.2047Y-4.8031
X7.2047Y-4.8819
X7.2047Y-4.9606
X7.2047Y-5.0394
X7.2047Y-5.1181
X7.2047Y-5.1969
X7.2047Y-5.2756
X7.2835Y-4.8031
X7.2835Y-4.8819
X7.2835Y-4.9606
X7.2835Y-5.0394
X7.2835Y-5.1181
X7.2835Y-5.1969
X7.2835Y-5.2756
X8.1791Y-5.1575
X8.1791Y-5.2362
X6.252Y-3.6614
X6.252Y-3.7992
X5.8268Y-4.8031
X5.8268Y-4.8819
X5.8268Y-4.9606
X5.8268Y-5.0394
X5.8268Y-5.1181
X5.8268Y-5.1969
X5.8268Y-5.2756
X5.9055Y-4.8031
X5.9055Y-4.8819
X5.9055Y-4.9606
X5.9055Y-5.0394
X5.9055Y-5.1181
X5.9055Y-5.1969
X5.9055Y-5.2756
X6.3764Y-4.2811
X6.4764Y-4.1811
X6.4764Y-4.3811
X5.6004Y-5.1476
X5.6004Y-5.2264
X3.2677Y-4.8031
X3.2677Y-4.8819
X3.2677Y-4.9606
X3.2677Y-5.0394
X3.2677Y-5.1181
X3.2677Y-5.1969
X3.2677Y-5.2756
X3.3465Y-4.8031
X3.3465Y-4.8819
X3.3465Y-4.9606
X3.3465Y-5.0394
X3.3465Y-5.1181
X3.3465Y-5.1969
X3.3465Y-5.2756
X4.6457Y-4.8031
X4.6457Y-4.8819
X4.6457Y-4.9606
X4.6457Y-5.0394
X4.6457Y-5.1181
X4.6457Y-5.1969
X4.6457Y-5.2756
X4.7244Y-4.8031
X4.7244Y-4.8819
X4.7244Y-4.9606
X4.7244Y-5.0394
X4.7244Y-5.1181
X4.7244Y-5.1969
X4.7244Y-5.2756
X8.3858Y-4.8031
X8.3858Y-4.8819
X8.3858Y-4.9606
X8.3858Y-5.0394
X8.3858Y-5.1181
X8.3858Y-5.1969
X8.3858Y-5.2756
X8.4646Y-4.8031
X8.4646Y-4.8819
X8.4646Y-4.9606
X8.4646Y-5.0394
X8.4646Y-5.1181
X8.4646Y-5.1969
X8.4646Y-5.2756
T4
X5.7402Y-3.8898
X5.7402Y-3.9898
X5.7402Y-4.0898
X5.7402Y-4.1898
T5
X7.2559Y-3.7126
X7.4764Y-3.7126
X8.1339Y-3.9961
X8.1339Y-4.2165
T4
G00X8.5157Y-3.7795
M15
G01X8.5157Y-3.8583
M16
G05
G00X8.7402Y-3.7008
M15
G01X8.6614Y-3.7008
M16
G05
G00X8.7402Y-3.937
M15
G01X8.6614Y-3.937
M16
G05
T0
M30
