  0
SECTION
  2
HEADER
  9
$ANGBASE
  50
0.0
  9
$ANGDIR
  70
  1
  9
$MEASUREMENT
  70
0
  0
ENDSEC
  0
SECTION
  2
TABLES
  0
TABLE
  2
LTYPE
  70
4
  0
LTYPE
  5
40F
  2
CONTINUOUS
  70
0
  3
Solid line
  72
65
  73
0
  40
0.0
  0
LTYPE
  5
410
  2
DASHDOT
 70
0
  3
Dash Dot ____ _ ____ _
 72
65
 73
4
 40
2.0
 49
1.25
 49
-0.25
 49
0.25
 49
-0.25
  0
LTYPE
  5
411
  2
DASHED
 70
0
  3
Dashed __ __ __ __ __
 72
65
 73
2
 40
0.75
 49
0.5
 49
-0.25
  0
LTYPE
  5
43B
  2
DOTTED
 70
0
  3
Dotted .  .  .  .
 72
65
 73
2
 40
0.2
 49
0.0
 49
-0.2
  0
ENDTAB
  0
TABLE
  2
STYLE
  70
4
  0
STYLE
  2
KICAD
  70
0
  40
0
  41
1
  42
1
  50
0
  71
0
  3
isocp.shx
  0
STYLE
  2
KICADB
  70
0
  40
0
  41
1
  42
1
  50
0
  71
0
  3
isocp.shx
  0
STYLE
  2
KICADI
  70
0
  40
0
  41
1
  42
1
  50
15
  71
0
  3
isocp.shx
  0
STYLE
  2
KICADBI
  70
0
  40
0
  41
1
  42
1
  50
15
  71
0
  3
isocp.shx
  0
ENDTAB
  0
TABLE
  2
LAYER
  70
30
  0
LAYER
  2
BLACK
  70
0
  62
7
  6
CONTINUOUS
  0
LAYER
  2
GRAY1
  70
0
  62
251
  6
CONTINUOUS
  0
LAYER
  2
GRAY2
  70
0
  62
8
  6
CONTINUOUS
  0
LAYER
  2
GRAY3
  70
0
  62
9
  6
CONTINUOUS
  0
LAYER
  2
WHITE
  70
0
  62
7
  6
CONTINUOUS
  0
LAYER
  2
LYELLOW
  70
0
  62
51
  6
CONTINUOUS
  0
LAYER
  2
BLUE1
  70
0
  62
178
  6
CONTINUOUS
  0
LAYER
  2
GREEN1
  70
0
  62
98
  6
CONTINUOUS
  0
LAYER
  2
CYAN1
  70
0
  62
138
  6
CONTINUOUS
  0
LAYER
  2
RED1
  70
0
  62
18
  6
CONTINUOUS
  0
LAYER
  2
MAGENTA1
  70
0
  62
228
  6
CONTINUOUS
  0
LAYER
  2
BROWN1
  70
0
  62
58
  6
CONTINUOUS
  0
LAYER
  2
BLUE2
  70
0
  62
5
  6
CONTINUOUS
  0
LAYER
  2
GREEN2
  70
0
  62
3
  6
CONTINUOUS
  0
LAYER
  2
CYAN2
  70
0
  62
4
  6
CONTINUOUS
  0
LAYER
  2
RED2
  70
0
  62
1
  6
CONTINUOUS
  0
LAYER
  2
MAGENTA2
  70
0
  62
6
  6
CONTINUOUS
  0
LAYER
  2
BROWN2
  70
0
  62
54
  6
CONTINUOUS
  0
LAYER
  2
BLUE3
  70
0
  62
171
  6
CONTINUOUS
  0
LAYER
  2
GREEN3
  70
0
  62
91
  6
CONTINUOUS
  0
LAYER
  2
CYAN3
  70
0
  62
131
  6
CONTINUOUS
  0
LAYER
  2
RED3
  70
0
  62
11
  6
CONTINUOUS
  0
LAYER
  2
MAGENTA3
  70
0
  62
221
  6
CONTINUOUS
  0
LAYER
  2
YELLOW3
  70
0
  62
2
  6
CONTINUOUS
  0
LAYER
  2
BLUE4
  70
0
  62
5
  6
CONTINUOUS
  0
LAYER
  2
GREEN4
  70
0
  62
3
  6
CONTINUOUS
  0
LAYER
  2
CYAN4
  70
0
  62
4
  6
CONTINUOUS
  0
LAYER
  2
RED4
  70
0
  62
1
  6
CONTINUOUS
  0
LAYER
  2
MAGENTA4
  70
0
  62
6
  6
CONTINUOUS
  0
LAYER
  2
YELLOW4
  70
0
  62
2
  6
CONTINUOUS
  0
ENDTAB
  0
ENDSEC
  0
SECTION
  2
ENTITIES
0
LINE
8
BLACK
6
CONTINUOUS
10
177.132
20
-101.535
11
177.26
21
-101.573
0
LINE
8
BLACK
6
CONTINUOUS
10
177.26
20
-101.573
11
177.377
21
-101.636
0
LINE
8
BLACK
6
CONTINUOUS
10
177.377
20
-101.636
11
177.48
21
-101.72
0
LINE
8
BLACK
6
CONTINUOUS
10
177.48
20
-101.72
11
177.564
21
-101.823
0
LINE
8
BLACK
6
CONTINUOUS
10
177.564
20
-101.823
11
177.627
21
-101.94
0
LINE
8
BLACK
6
CONTINUOUS
10
177.627
20
-101.94
11
177.665
21
-102.068
0
LINE
8
BLACK
6
CONTINUOUS
10
177.665
20
-102.068
11
177.678
21
-102.2
0
LINE
8
BLACK
6
CONTINUOUS
10
177.678
20
-102.2
11
177.665
21
-102.332
0
LINE
8
BLACK
6
CONTINUOUS
10
177.665
20
-102.332
11
177.627
21
-102.46
0
LINE
8
BLACK
6
CONTINUOUS
10
177.627
20
-102.46
11
177.564
21
-102.577
0
LINE
8
BLACK
6
CONTINUOUS
10
177.564
20
-102.577
11
177.48
21
-102.68
0
LINE
8
BLACK
6
CONTINUOUS
10
177.48
20
-102.68
11
177.377
21
-102.764
0
LINE
8
BLACK
6
CONTINUOUS
10
177.377
20
-102.764
11
177.26
21
-102.827
0
LINE
8
BLACK
6
CONTINUOUS
10
177.26
20
-102.827
11
177.132
21
-102.865
0
LINE
8
BLACK
6
CONTINUOUS
10
177.132
20
-102.865
11
177.033
21
-102.875
0
LINE
8
BLACK
6
CONTINUOUS
10
177.033
20
-102.875
11
176.967
21
-102.875
0
LINE
8
BLACK
6
CONTINUOUS
10
176.967
20
-102.875
11
176.868
21
-102.865
0
LINE
8
BLACK
6
CONTINUOUS
10
176.868
20
-102.865
11
176.74
21
-102.827
0
LINE
8
BLACK
6
CONTINUOUS
10
176.74
20
-102.827
11
176.623
21
-102.764
0
LINE
8
BLACK
6
CONTINUOUS
10
176.623
20
-102.764
11
176.598
21
-102.743
0
LINE
8
BLACK
6
CONTINUOUS
10
176.598
20
-102.743
11
173.374
21
-105.967
0
LINE
8
BLACK
6
CONTINUOUS
10
173.374
20
-105.967
11
173.371
21
-105.971
0
LINE
8
BLACK
6
CONTINUOUS
10
173.371
20
-105.971
11
173.356
21
-105.984
0
LINE
8
BLACK
6
CONTINUOUS
10
173.356
20
-105.984
11
173.338
21
-105.993
0
LINE
8
BLACK
6
CONTINUOUS
10
173.338
20
-105.993
11
173.32
21
-105.999
0
LINE
8
BLACK
6
CONTINUOUS
10
173.32
20
-105.999
11
173.305
21
-106
0
LINE
8
BLACK
6
CONTINUOUS
10
173.305
20
-106
11
173.305
21
-106
0
LINE
8
BLACK
6
CONTINUOUS
10
173.305
20
-106
11
173.3
21
-106
0
LINE
8
BLACK
6
CONTINUOUS
10
173.3
20
-106
11
173.295
21
-106
0
LINE
8
BLACK
6
CONTINUOUS
10
173.295
20
-106
11
163.088
21
-106
0
LINE
8
BLACK
6
CONTINUOUS
10
163.088
20
-106
11
163.085
21
-106.017
0
LINE
8
BLACK
6
CONTINUOUS
10
163.085
20
-106.017
11
163.054
21
-106.089
0
LINE
8
BLACK
6
CONTINUOUS
10
163.054
20
-106.089
11
163.011
21
-106.155
0
LINE
8
BLACK
6
CONTINUOUS
10
163.011
20
-106.155
11
162.955
21
-106.211
0
LINE
8
BLACK
6
CONTINUOUS
10
162.955
20
-106.211
11
162.889
21
-106.254
0
LINE
8
BLACK
6
CONTINUOUS
10
162.889
20
-106.254
11
162.817
21
-106.285
0
LINE
8
BLACK
6
CONTINUOUS
10
162.817
20
-106.285
11
162.739
21
-106.3
0
LINE
8
BLACK
6
CONTINUOUS
10
162.739
20
-106.3
11
162.661
21
-106.3
0
LINE
8
BLACK
6
CONTINUOUS
10
162.661
20
-106.3
11
162.583
21
-106.285
0
LINE
8
BLACK
6
CONTINUOUS
10
162.583
20
-106.285
11
162.511
21
-106.254
0
LINE
8
BLACK
6
CONTINUOUS
10
162.511
20
-106.254
11
162.445
21
-106.211
0
LINE
8
BLACK
6
CONTINUOUS
10
162.445
20
-106.211
11
162.389
21
-106.155
0
LINE
8
BLACK
6
CONTINUOUS
10
162.389
20
-106.155
11
162.346
21
-106.089
0
LINE
8
BLACK
6
CONTINUOUS
10
162.346
20
-106.089
11
162.315
21
-106.017
0
LINE
8
BLACK
6
CONTINUOUS
10
162.315
20
-106.017
11
162.3
21
-105.939
0
LINE
8
BLACK
6
CONTINUOUS
10
162.3
20
-105.939
11
162.3
21
-105.861
0
LINE
8
BLACK
6
CONTINUOUS
10
162.3
20
-105.861
11
162.315
21
-105.783
0
LINE
8
BLACK
6
CONTINUOUS
10
162.315
20
-105.783
11
162.346
21
-105.711
0
LINE
8
BLACK
6
CONTINUOUS
10
162.346
20
-105.711
11
162.389
21
-105.645
0
LINE
8
BLACK
6
CONTINUOUS
10
162.389
20
-105.645
11
162.445
21
-105.589
0
LINE
8
BLACK
6
CONTINUOUS
10
162.445
20
-105.589
11
162.511
21
-105.546
0
LINE
8
BLACK
6
CONTINUOUS
10
162.511
20
-105.546
11
162.583
21
-105.515
0
LINE
8
BLACK
6
CONTINUOUS
10
162.583
20
-105.515
11
162.661
21
-105.5
0
LINE
8
BLACK
6
CONTINUOUS
10
162.661
20
-105.5
11
162.739
21
-105.5
0
LINE
8
BLACK
6
CONTINUOUS
10
162.739
20
-105.5
11
162.817
21
-105.515
0
LINE
8
BLACK
6
CONTINUOUS
10
162.817
20
-105.515
11
162.889
21
-105.546
0
LINE
8
BLACK
6
CONTINUOUS
10
162.889
20
-105.546
11
162.955
21
-105.589
0
LINE
8
BLACK
6
CONTINUOUS
10
162.955
20
-105.589
11
163.011
21
-105.645
0
LINE
8
BLACK
6
CONTINUOUS
10
163.011
20
-105.645
11
163.054
21
-105.711
0
LINE
8
BLACK
6
CONTINUOUS
10
163.054
20
-105.711
11
163.085
21
-105.783
0
LINE
8
BLACK
6
CONTINUOUS
10
163.085
20
-105.783
11
163.088
21
-105.8
0
LINE
8
BLACK
6
CONTINUOUS
10
163.088
20
-105.8
11
173.259
21
-105.8
0
LINE
8
BLACK
6
CONTINUOUS
10
173.259
20
-105.8
11
176.457
21
-102.602
0
LINE
8
BLACK
6
CONTINUOUS
10
176.457
20
-102.602
11
176.436
21
-102.577
0
LINE
8
BLACK
6
CONTINUOUS
10
176.436
20
-102.577
11
176.373
21
-102.46
0
LINE
8
BLACK
6
CONTINUOUS
10
176.373
20
-102.46
11
176.335
21
-102.332
0
LINE
8
BLACK
6
CONTINUOUS
10
176.335
20
-102.332
11
176.322
21
-102.2
0
LINE
8
BLACK
6
CONTINUOUS
10
176.322
20
-102.2
11
176.335
21
-102.068
0
LINE
8
BLACK
6
CONTINUOUS
10
176.335
20
-102.068
11
176.373
21
-101.94
0
LINE
8
BLACK
6
CONTINUOUS
10
176.373
20
-101.94
11
176.436
21
-101.823
0
LINE
8
BLACK
6
CONTINUOUS
10
176.436
20
-101.823
11
176.52
21
-101.72
0
LINE
8
BLACK
6
CONTINUOUS
10
176.52
20
-101.72
11
176.623
21
-101.636
0
LINE
8
BLACK
6
CONTINUOUS
10
176.623
20
-101.636
11
176.74
21
-101.573
0
LINE
8
BLACK
6
CONTINUOUS
10
176.74
20
-101.573
11
176.868
21
-101.535
0
LINE
8
BLACK
6
CONTINUOUS
10
176.868
20
-101.535
11
176.967
21
-101.525
0
LINE
8
BLACK
6
CONTINUOUS
10
176.967
20
-101.525
11
177.033
21
-101.525
0
LINE
8
BLACK
6
CONTINUOUS
10
177.033
20
-101.525
11
177.132
21
-101.535
0
LINE
8
BLACK
6
CONTINUOUS
10
177.132
20
-97.5348
11
177.26
21
-97.5734
0
LINE
8
BLACK
6
CONTINUOUS
10
177.26
20
-97.5734
11
177.377
21
-97.636
0
LINE
8
BLACK
6
CONTINUOUS
10
177.377
20
-97.636
11
177.48
21
-97.7204
0
LINE
8
BLACK
6
CONTINUOUS
10
177.48
20
-97.7204
11
177.564
21
-97.8232
0
LINE
8
BLACK
6
CONTINUOUS
10
177.564
20
-97.8232
11
177.627
21
-97.9404
0
LINE
8
BLACK
6
CONTINUOUS
10
177.627
20
-97.9404
11
177.665
21
-98.0677
0
LINE
8
BLACK
6
CONTINUOUS
10
177.665
20
-98.0677
11
177.678
21
-98.2
0
LINE
8
BLACK
6
CONTINUOUS
10
177.678
20
-98.2
11
177.665
21
-98.3323
0
LINE
8
BLACK
6
CONTINUOUS
10
177.665
20
-98.3323
11
177.627
21
-98.4596
0
LINE
8
BLACK
6
CONTINUOUS
10
177.627
20
-98.4596
11
177.564
21
-98.5768
0
LINE
8
BLACK
6
CONTINUOUS
10
177.564
20
-98.5768
11
177.48
21
-98.6796
0
LINE
8
BLACK
6
CONTINUOUS
10
177.48
20
-98.6796
11
177.377
21
-98.764
0
LINE
8
BLACK
6
CONTINUOUS
10
177.377
20
-98.764
11
177.26
21
-98.8266
0
LINE
8
BLACK
6
CONTINUOUS
10
177.26
20
-98.8266
11
177.132
21
-98.8652
0
LINE
8
BLACK
6
CONTINUOUS
10
177.132
20
-98.8652
11
177.033
21
-98.875
0
LINE
8
BLACK
6
CONTINUOUS
10
177.033
20
-98.875
11
176.967
21
-98.875
0
LINE
8
BLACK
6
CONTINUOUS
10
176.967
20
-98.875
11
176.868
21
-98.8652
0
LINE
8
BLACK
6
CONTINUOUS
10
176.868
20
-98.8652
11
176.74
21
-98.8266
0
LINE
8
BLACK
6
CONTINUOUS
10
176.74
20
-98.8266
11
176.623
21
-98.764
0
LINE
8
BLACK
6
CONTINUOUS
10
176.623
20
-98.764
11
176.598
21
-98.7434
0
LINE
8
BLACK
6
CONTINUOUS
10
176.598
20
-98.7434
11
176.049
21
-99.2922
0
LINE
8
BLACK
6
CONTINUOUS
10
176.049
20
-99.2922
11
176.046
21
-99.2961
0
LINE
8
BLACK
6
CONTINUOUS
10
176.046
20
-99.2961
11
176.031
21
-99.3085
0
LINE
8
BLACK
6
CONTINUOUS
10
176.031
20
-99.3085
11
176.013
21
-99.3178
0
LINE
8
BLACK
6
CONTINUOUS
10
176.013
20
-99.3178
11
175.995
21
-99.3236
0
LINE
8
BLACK
6
CONTINUOUS
10
175.995
20
-99.3236
11
175.98
21
-99.325
0
LINE
8
BLACK
6
CONTINUOUS
10
175.98
20
-99.325
11
175.98
21
-99.325
0
LINE
8
BLACK
6
CONTINUOUS
10
175.98
20
-99.325
11
175.975
21
-99.3255
0
LINE
8
BLACK
6
CONTINUOUS
10
175.975
20
-99.3255
11
175.97
21
-99.325
0
LINE
8
BLACK
6
CONTINUOUS
10
175.97
20
-99.325
11
166.816
21
-99.325
0
LINE
8
BLACK
6
CONTINUOUS
10
166.816
20
-99.325
11
163.8
21
-102.341
0
LINE
8
BLACK
6
CONTINUOUS
10
163.8
20
-102.341
11
163.8
21
-104.612
0
LINE
8
BLACK
6
CONTINUOUS
10
163.8
20
-104.612
11
163.817
21
-104.615
0
LINE
8
BLACK
6
CONTINUOUS
10
163.817
20
-104.615
11
163.889
21
-104.646
0
LINE
8
BLACK
6
CONTINUOUS
10
163.889
20
-104.646
11
163.955
21
-104.689
0
LINE
8
BLACK
6
CONTINUOUS
10
163.955
20
-104.689
11
164.011
21
-104.745
0
LINE
8
BLACK
6
CONTINUOUS
10
164.011
20
-104.745
11
164.054
21
-104.811
0
LINE
8
BLACK
6
CONTINUOUS
10
164.054
20
-104.811
11
164.085
21
-104.883
0
LINE
8
BLACK
6
CONTINUOUS
10
164.085
20
-104.883
11
164.1
21
-104.961
0
LINE
8
BLACK
6
CONTINUOUS
10
164.1
20
-104.961
11
164.1
21
-105.039
0
LINE
8
BLACK
6
CONTINUOUS
10
164.1
20
-105.039
11
164.085
21
-105.117
0
LINE
8
BLACK
6
CONTINUOUS
10
164.085
20
-105.117
11
164.054
21
-105.189
0
LINE
8
BLACK
6
CONTINUOUS
10
164.054
20
-105.189
11
164.011
21
-105.255
0
LINE
8
BLACK
6
CONTINUOUS
10
164.011
20
-105.255
11
163.955
21
-105.311
0
LINE
8
BLACK
6
CONTINUOUS
10
163.955
20
-105.311
11
163.889
21
-105.354
0
LINE
8
BLACK
6
CONTINUOUS
10
163.889
20
-105.354
11
163.817
21
-105.385
0
LINE
8
BLACK
6
CONTINUOUS
10
163.817
20
-105.385
11
163.739
21
-105.4
0
LINE
8
BLACK
6
CONTINUOUS
10
163.739
20
-105.4
11
163.661
21
-105.4
0
LINE
8
BLACK
6
CONTINUOUS
10
163.661
20
-105.4
11
163.583
21
-105.385
0
LINE
8
BLACK
6
CONTINUOUS
10
163.583
20
-105.385
11
163.511
21
-105.354
0
LINE
8
BLACK
6
CONTINUOUS
10
163.511
20
-105.354
11
163.445
21
-105.311
0
LINE
8
BLACK
6
CONTINUOUS
10
163.445
20
-105.311
11
163.389
21
-105.255
0
LINE
8
BLACK
6
CONTINUOUS
10
163.389
20
-105.255
11
163.346
21
-105.189
0
LINE
8
BLACK
6
CONTINUOUS
10
163.346
20
-105.189
11
163.315
21
-105.117
0
LINE
8
BLACK
6
CONTINUOUS
10
163.315
20
-105.117
11
163.3
21
-105.039
0
LINE
8
BLACK
6
CONTINUOUS
10
163.3
20
-105.039
11
163.3
21
-104.961
0
LINE
8
BLACK
6
CONTINUOUS
10
163.3
20
-104.961
11
163.315
21
-104.883
0
LINE
8
BLACK
6
CONTINUOUS
10
163.315
20
-104.883
11
163.346
21
-104.811
0
LINE
8
BLACK
6
CONTINUOUS
10
163.346
20
-104.811
11
163.389
21
-104.745
0
LINE
8
BLACK
6
CONTINUOUS
10
163.389
20
-104.745
11
163.445
21
-104.689
0
LINE
8
BLACK
6
CONTINUOUS
10
163.445
20
-104.689
11
163.511
21
-104.646
0
LINE
8
BLACK
6
CONTINUOUS
10
163.511
20
-104.646
11
163.583
21
-104.615
0
LINE
8
BLACK
6
CONTINUOUS
10
163.583
20
-104.615
11
163.6
21
-104.612
0
LINE
8
BLACK
6
CONTINUOUS
10
163.6
20
-104.612
11
163.6
21
-102.305
0
LINE
8
BLACK
6
CONTINUOUS
10
163.6
20
-102.305
11
163.6
21
-102.3
0
LINE
8
BLACK
6
CONTINUOUS
10
163.6
20
-102.3
11
163.601
21
-102.28
0
LINE
8
BLACK
6
CONTINUOUS
10
163.601
20
-102.28
11
163.607
21
-102.262
0
LINE
8
BLACK
6
CONTINUOUS
10
163.607
20
-102.262
11
163.616
21
-102.244
0
LINE
8
BLACK
6
CONTINUOUS
10
163.616
20
-102.244
11
163.626
21
-102.233
0
LINE
8
BLACK
6
CONTINUOUS
10
163.626
20
-102.233
11
163.629
21
-102.229
0
LINE
8
BLACK
6
CONTINUOUS
10
163.629
20
-102.229
11
163.633
21
-102.226
0
LINE
8
BLACK
6
CONTINUOUS
10
163.633
20
-102.226
11
166.701
21
-99.1578
0
LINE
8
BLACK
6
CONTINUOUS
10
166.701
20
-99.1578
11
166.704
21
-99.1539
0
LINE
8
BLACK
6
CONTINUOUS
10
166.704
20
-99.1539
11
166.719
21
-99.1414
0
LINE
8
BLACK
6
CONTINUOUS
10
166.719
20
-99.1414
11
166.737
21
-99.1322
0
LINE
8
BLACK
6
CONTINUOUS
10
166.737
20
-99.1322
11
166.75
21
-99.1282
0
LINE
8
BLACK
6
CONTINUOUS
10
166.75
20
-99.1282
11
166.755
21
-99.1264
0
LINE
8
BLACK
6
CONTINUOUS
10
166.755
20
-99.1264
11
166.757
21
-99.1262
0
LINE
8
BLACK
6
CONTINUOUS
10
166.757
20
-99.1262
11
166.77
21
-99.125
0
LINE
8
BLACK
6
CONTINUOUS
10
166.77
20
-99.125
11
166.77
21
-99.125
0
LINE
8
BLACK
6
CONTINUOUS
10
166.77
20
-99.125
11
166.775
21
-99.1245
0
LINE
8
BLACK
6
CONTINUOUS
10
166.775
20
-99.1245
11
166.78
21
-99.125
0
LINE
8
BLACK
6
CONTINUOUS
10
166.78
20
-99.125
11
175.934
21
-99.125
0
LINE
8
BLACK
6
CONTINUOUS
10
175.934
20
-99.125
11
176.457
21
-98.6019
0
LINE
8
BLACK
6
CONTINUOUS
10
176.457
20
-98.6019
11
176.436
21
-98.5768
0
LINE
8
BLACK
6
CONTINUOUS
10
176.436
20
-98.5768
11
176.373
21
-98.4596
0
LINE
8
BLACK
6
CONTINUOUS
10
176.373
20
-98.4596
11
176.335
21
-98.3323
0
LINE
8
BLACK
6
CONTINUOUS
10
176.335
20
-98.3323
11
176.322
21
-98.2
0
LINE
8
BLACK
6
CONTINUOUS
10
176.322
20
-98.2
11
176.335
21
-98.0677
0
LINE
8
BLACK
6
CONTINUOUS
10
176.335
20
-98.0677
11
176.373
21
-97.9404
0
LINE
8
BLACK
6
CONTINUOUS
10
176.373
20
-97.9404
11
176.436
21
-97.8232
0
LINE
8
BLACK
6
CONTINUOUS
10
176.436
20
-97.8232
11
176.52
21
-97.7204
0
LINE
8
BLACK
6
CONTINUOUS
10
176.52
20
-97.7204
11
176.623
21
-97.636
0
LINE
8
BLACK
6
CONTINUOUS
10
176.623
20
-97.636
11
176.74
21
-97.5734
0
LINE
8
BLACK
6
CONTINUOUS
10
176.74
20
-97.5734
11
176.868
21
-97.5348
0
LINE
8
BLACK
6
CONTINUOUS
10
176.868
20
-97.5348
11
176.967
21
-97.525
0
LINE
8
BLACK
6
CONTINUOUS
10
176.967
20
-97.525
11
177.033
21
-97.525
0
LINE
8
BLACK
6
CONTINUOUS
10
177.033
20
-97.525
11
177.132
21
-97.5348
0
LINE
8
BLACK
6
CONTINUOUS
10
166.63
20
-104.739
11
166.564
21
-104.783
0
LINE
8
BLACK
6
CONTINUOUS
10
166.564
20
-104.783
11
166.492
21
-104.813
0
LINE
8
BLACK
6
CONTINUOUS
10
166.492
20
-104.813
11
166.414
21
-104.829
0
LINE
8
BLACK
6
CONTINUOUS
10
166.414
20
-104.829
11
166.336
21
-104.829
0
LINE
8
BLACK
6
CONTINUOUS
10
166.336
20
-104.829
11
166.258
21
-104.813
0
LINE
8
BLACK
6
CONTINUOUS
10
166.258
20
-104.813
11
166.186
21
-104.783
0
LINE
8
BLACK
6
CONTINUOUS
10
166.186
20
-104.783
11
166.12
21
-104.739
0
LINE
8
BLACK
6
CONTINUOUS
10
166.12
20
-104.739
11
166.064
21
-104.684
0
LINE
8
BLACK
6
CONTINUOUS
10
166.064
20
-104.684
11
166.021
21
-104.618
0
LINE
8
BLACK
6
CONTINUOUS
10
166.021
20
-104.618
11
165.99
21
-104.545
0
LINE
8
BLACK
6
CONTINUOUS
10
165.99
20
-104.545
11
165.975
21
-104.468
0
LINE
8
BLACK
6
CONTINUOUS
10
165.975
20
-104.468
11
165.975
21
-104.389
0
LINE
8
BLACK
6
CONTINUOUS
10
165.975
20
-104.389
11
165.99
21
-104.312
0
LINE
8
BLACK
6
CONTINUOUS
10
165.99
20
-104.312
11
166.021
21
-104.239
0
LINE
8
BLACK
6
CONTINUOUS
10
166.021
20
-104.239
11
166.064
21
-104.174
0
LINE
8
BLACK
6
CONTINUOUS
10
166.064
20
-104.174
11
166.12
21
-104.118
0
LINE
8
BLACK
6
CONTINUOUS
10
166.12
20
-104.118
11
166.186
21
-104.074
0
LINE
8
BLACK
6
CONTINUOUS
10
166.186
20
-104.074
11
166.258
21
-104.044
0
LINE
8
BLACK
6
CONTINUOUS
10
166.258
20
-104.044
11
166.336
21
-104.029
0
LINE
8
BLACK
6
CONTINUOUS
10
166.336
20
-104.029
11
166.414
21
-104.029
0
LINE
8
BLACK
6
CONTINUOUS
10
166.414
20
-104.029
11
166.492
21
-104.044
0
LINE
8
BLACK
6
CONTINUOUS
10
166.492
20
-104.044
11
166.564
21
-104.074
0
LINE
8
BLACK
6
CONTINUOUS
10
166.564
20
-104.074
11
166.63
21
-104.118
0
LINE
8
BLACK
6
CONTINUOUS
10
166.63
20
-104.118
11
166.686
21
-104.174
0
LINE
8
BLACK
6
CONTINUOUS
10
166.686
20
-104.174
11
166.729
21
-104.239
0
LINE
8
BLACK
6
CONTINUOUS
10
166.729
20
-104.239
11
166.76
21
-104.312
0
LINE
8
BLACK
6
CONTINUOUS
10
166.76
20
-104.312
11
166.775
21
-104.389
0
LINE
8
BLACK
6
CONTINUOUS
10
166.775
20
-104.389
11
166.775
21
-104.468
0
LINE
8
BLACK
6
CONTINUOUS
10
166.775
20
-104.468
11
166.769
21
-104.5
0
LINE
8
BLACK
6
CONTINUOUS
10
166.769
20
-104.5
11
172.559
21
-104.5
0
LINE
8
BLACK
6
CONTINUOUS
10
172.559
20
-104.5
11
174.457
21
-102.602
0
LINE
8
BLACK
6
CONTINUOUS
10
174.457
20
-102.602
11
174.436
21
-102.577
0
LINE
8
BLACK
6
CONTINUOUS
10
174.436
20
-102.577
11
174.373
21
-102.46
0
LINE
8
BLACK
6
CONTINUOUS
10
174.373
20
-102.46
11
174.335
21
-102.332
0
LINE
8
BLACK
6
CONTINUOUS
10
174.335
20
-102.332
11
174.322
21
-102.2
0
LINE
8
BLACK
6
CONTINUOUS
10
174.322
20
-102.2
11
174.335
21
-102.068
0
LINE
8
BLACK
6
CONTINUOUS
10
174.335
20
-102.068
11
174.373
21
-101.94
0
LINE
8
BLACK
6
CONTINUOUS
10
174.373
20
-101.94
11
174.436
21
-101.823
0
LINE
8
BLACK
6
CONTINUOUS
10
174.436
20
-101.823
11
174.52
21
-101.72
0
LINE
8
BLACK
6
CONTINUOUS
10
174.52
20
-101.72
11
174.623
21
-101.636
0
LINE
8
BLACK
6
CONTINUOUS
10
174.623
20
-101.636
11
174.74
21
-101.573
0
LINE
8
BLACK
6
CONTINUOUS
10
174.74
20
-101.573
11
174.868
21
-101.535
0
LINE
8
BLACK
6
CONTINUOUS
10
174.868
20
-101.535
11
174.967
21
-101.525
0
LINE
8
BLACK
6
CONTINUOUS
10
174.967
20
-101.525
11
175.033
21
-101.525
0
LINE
8
BLACK
6
CONTINUOUS
10
175.033
20
-101.525
11
175.132
21
-101.535
0
LINE
8
BLACK
6
CONTINUOUS
10
175.132
20
-101.535
11
175.26
21
-101.573
0
LINE
8
BLACK
6
CONTINUOUS
10
175.26
20
-101.573
11
175.377
21
-101.636
0
LINE
8
BLACK
6
CONTINUOUS
10
175.377
20
-101.636
11
175.48
21
-101.72
0
LINE
8
BLACK
6
CONTINUOUS
10
175.48
20
-101.72
11
175.564
21
-101.823
0
LINE
8
BLACK
6
CONTINUOUS
10
175.564
20
-101.823
11
175.627
21
-101.94
0
LINE
8
BLACK
6
CONTINUOUS
10
175.627
20
-101.94
11
175.665
21
-102.068
0
LINE
8
BLACK
6
CONTINUOUS
10
175.665
20
-102.068
11
175.678
21
-102.2
0
LINE
8
BLACK
6
CONTINUOUS
10
175.678
20
-102.2
11
175.665
21
-102.332
0
LINE
8
BLACK
6
CONTINUOUS
10
175.665
20
-102.332
11
175.627
21
-102.46
0
LINE
8
BLACK
6
CONTINUOUS
10
175.627
20
-102.46
11
175.564
21
-102.577
0
LINE
8
BLACK
6
CONTINUOUS
10
175.564
20
-102.577
11
175.48
21
-102.68
0
LINE
8
BLACK
6
CONTINUOUS
10
175.48
20
-102.68
11
175.377
21
-102.764
0
LINE
8
BLACK
6
CONTINUOUS
10
175.377
20
-102.764
11
175.26
21
-102.827
0
LINE
8
BLACK
6
CONTINUOUS
10
175.26
20
-102.827
11
175.132
21
-102.865
0
LINE
8
BLACK
6
CONTINUOUS
10
175.132
20
-102.865
11
175.033
21
-102.875
0
LINE
8
BLACK
6
CONTINUOUS
10
175.033
20
-102.875
11
174.967
21
-102.875
0
LINE
8
BLACK
6
CONTINUOUS
10
174.967
20
-102.875
11
174.868
21
-102.865
0
LINE
8
BLACK
6
CONTINUOUS
10
174.868
20
-102.865
11
174.74
21
-102.827
0
LINE
8
BLACK
6
CONTINUOUS
10
174.74
20
-102.827
11
174.623
21
-102.764
0
LINE
8
BLACK
6
CONTINUOUS
10
174.623
20
-102.764
11
174.598
21
-102.743
0
LINE
8
BLACK
6
CONTINUOUS
10
174.598
20
-102.743
11
172.674
21
-104.667
0
LINE
8
BLACK
6
CONTINUOUS
10
172.674
20
-104.667
11
172.671
21
-104.671
0
LINE
8
BLACK
6
CONTINUOUS
10
172.671
20
-104.671
11
172.656
21
-104.684
0
LINE
8
BLACK
6
CONTINUOUS
10
172.656
20
-104.684
11
172.638
21
-104.693
0
LINE
8
BLACK
6
CONTINUOUS
10
172.638
20
-104.693
11
172.62
21
-104.699
0
LINE
8
BLACK
6
CONTINUOUS
10
172.62
20
-104.699
11
172.605
21
-104.7
0
LINE
8
BLACK
6
CONTINUOUS
10
172.605
20
-104.7
11
172.605
21
-104.7
0
LINE
8
BLACK
6
CONTINUOUS
10
172.605
20
-104.7
11
172.6
21
-104.7
0
LINE
8
BLACK
6
CONTINUOUS
10
172.6
20
-104.7
11
172.595
21
-104.7
0
LINE
8
BLACK
6
CONTINUOUS
10
172.595
20
-104.7
11
166.669
21
-104.7
0
LINE
8
BLACK
6
CONTINUOUS
10
166.669
20
-104.7
11
166.63
21
-104.739
0
LINE
8
BLACK
6
CONTINUOUS
10
177.132
20
-99.5348
11
177.26
21
-99.5734
0
LINE
8
BLACK
6
CONTINUOUS
10
177.26
20
-99.5734
11
177.377
21
-99.636
0
LINE
8
BLACK
6
CONTINUOUS
10
177.377
20
-99.636
11
177.48
21
-99.7204
0
LINE
8
BLACK
6
CONTINUOUS
10
177.48
20
-99.7204
11
177.564
21
-99.8232
0
LINE
8
BLACK
6
CONTINUOUS
10
177.564
20
-99.8232
11
177.627
21
-99.9404
0
LINE
8
BLACK
6
CONTINUOUS
10
177.627
20
-99.9404
11
177.665
21
-100.068
0
LINE
8
BLACK
6
CONTINUOUS
10
177.665
20
-100.068
11
177.678
21
-100.2
0
LINE
8
BLACK
6
CONTINUOUS
10
177.678
20
-100.2
11
177.665
21
-100.332
0
LINE
8
BLACK
6
CONTINUOUS
10
177.665
20
-100.332
11
177.627
21
-100.46
0
LINE
8
BLACK
6
CONTINUOUS
10
177.627
20
-100.46
11
177.564
21
-100.577
0
LINE
8
BLACK
6
CONTINUOUS
10
177.564
20
-100.577
11
177.48
21
-100.68
0
LINE
8
BLACK
6
CONTINUOUS
10
177.48
20
-100.68
11
177.377
21
-100.764
0
LINE
8
BLACK
6
CONTINUOUS
10
177.377
20
-100.764
11
177.26
21
-100.827
0
LINE
8
BLACK
6
CONTINUOUS
10
177.26
20
-100.827
11
177.132
21
-100.865
0
LINE
8
BLACK
6
CONTINUOUS
10
177.132
20
-100.865
11
177.033
21
-100.875
0
LINE
8
BLACK
6
CONTINUOUS
10
177.033
20
-100.875
11
176.967
21
-100.875
0
LINE
8
BLACK
6
CONTINUOUS
10
176.967
20
-100.875
11
176.868
21
-100.865
0
LINE
8
BLACK
6
CONTINUOUS
10
176.868
20
-100.865
11
176.74
21
-100.827
0
LINE
8
BLACK
6
CONTINUOUS
10
176.74
20
-100.827
11
176.623
21
-100.764
0
LINE
8
BLACK
6
CONTINUOUS
10
176.623
20
-100.764
11
176.598
21
-100.743
0
LINE
8
BLACK
6
CONTINUOUS
10
176.598
20
-100.743
11
176.049
21
-101.292
0
LINE
8
BLACK
6
CONTINUOUS
10
176.049
20
-101.292
11
176.046
21
-101.296
0
LINE
8
BLACK
6
CONTINUOUS
10
176.046
20
-101.296
11
176.031
21
-101.309
0
LINE
8
BLACK
6
CONTINUOUS
10
176.031
20
-101.309
11
176.013
21
-101.318
0
LINE
8
BLACK
6
CONTINUOUS
10
176.013
20
-101.318
11
175.995
21
-101.324
0
LINE
8
BLACK
6
CONTINUOUS
10
175.995
20
-101.324
11
175.98
21
-101.325
0
LINE
8
BLACK
6
CONTINUOUS
10
175.98
20
-101.325
11
175.98
21
-101.325
0
LINE
8
BLACK
6
CONTINUOUS
10
175.98
20
-101.325
11
175.975
21
-101.325
0
LINE
8
BLACK
6
CONTINUOUS
10
175.975
20
-101.325
11
175.97
21
-101.325
0
LINE
8
BLACK
6
CONTINUOUS
10
175.97
20
-101.325
11
172.116
21
-101.325
0
LINE
8
BLACK
6
CONTINUOUS
10
172.116
20
-101.325
11
171.345
21
-102.096
0
LINE
8
BLACK
6
CONTINUOUS
10
171.345
20
-102.096
11
171.354
21
-102.111
0
LINE
8
BLACK
6
CONTINUOUS
10
171.354
20
-102.111
11
171.385
21
-102.183
0
LINE
8
BLACK
6
CONTINUOUS
10
171.385
20
-102.183
11
171.4
21
-102.261
0
LINE
8
BLACK
6
CONTINUOUS
10
171.4
20
-102.261
11
171.4
21
-102.339
0
LINE
8
BLACK
6
CONTINUOUS
10
171.4
20
-102.339
11
171.385
21
-102.417
0
LINE
8
BLACK
6
CONTINUOUS
10
171.385
20
-102.417
11
171.354
21
-102.489
0
LINE
8
BLACK
6
CONTINUOUS
10
171.354
20
-102.489
11
171.311
21
-102.555
0
LINE
8
BLACK
6
CONTINUOUS
10
171.311
20
-102.555
11
171.255
21
-102.611
0
LINE
8
BLACK
6
CONTINUOUS
10
171.255
20
-102.611
11
171.189
21
-102.654
0
LINE
8
BLACK
6
CONTINUOUS
10
171.189
20
-102.654
11
171.117
21
-102.685
0
LINE
8
BLACK
6
CONTINUOUS
10
171.117
20
-102.685
11
171.039
21
-102.7
0
LINE
8
BLACK
6
CONTINUOUS
10
171.039
20
-102.7
11
170.961
21
-102.7
0
LINE
8
BLACK
6
CONTINUOUS
10
170.961
20
-102.7
11
170.883
21
-102.685
0
LINE
8
BLACK
6
CONTINUOUS
10
170.883
20
-102.685
11
170.811
21
-102.654
0
LINE
8
BLACK
6
CONTINUOUS
10
170.811
20
-102.654
11
170.745
21
-102.611
0
LINE
8
BLACK
6
CONTINUOUS
10
170.745
20
-102.611
11
170.689
21
-102.555
0
LINE
8
BLACK
6
CONTINUOUS
10
170.689
20
-102.555
11
170.646
21
-102.489
0
LINE
8
BLACK
6
CONTINUOUS
10
170.646
20
-102.489
11
170.615
21
-102.417
0
LINE
8
BLACK
6
CONTINUOUS
10
170.615
20
-102.417
11
170.6
21
-102.339
0
LINE
8
BLACK
6
CONTINUOUS
10
170.6
20
-102.339
11
170.6
21
-102.261
0
LINE
8
BLACK
6
CONTINUOUS
10
170.6
20
-102.261
11
170.615
21
-102.183
0
LINE
8
BLACK
6
CONTINUOUS
10
170.615
20
-102.183
11
170.646
21
-102.111
0
LINE
8
BLACK
6
CONTINUOUS
10
170.646
20
-102.111
11
170.689
21
-102.045
0
LINE
8
BLACK
6
CONTINUOUS
10
170.689
20
-102.045
11
170.745
21
-101.989
0
LINE
8
BLACK
6
CONTINUOUS
10
170.745
20
-101.989
11
170.811
21
-101.946
0
LINE
8
BLACK
6
CONTINUOUS
10
170.811
20
-101.946
11
170.883
21
-101.915
0
LINE
8
BLACK
6
CONTINUOUS
10
170.883
20
-101.915
11
170.961
21
-101.9
0
LINE
8
BLACK
6
CONTINUOUS
10
170.961
20
-101.9
11
171.039
21
-101.9
0
LINE
8
BLACK
6
CONTINUOUS
10
171.039
20
-101.9
11
171.117
21
-101.915
0
LINE
8
BLACK
6
CONTINUOUS
10
171.117
20
-101.915
11
171.189
21
-101.946
0
LINE
8
BLACK
6
CONTINUOUS
10
171.189
20
-101.946
11
171.204
21
-101.955
0
LINE
8
BLACK
6
CONTINUOUS
10
171.204
20
-101.955
11
172.001
21
-101.158
0
LINE
8
BLACK
6
CONTINUOUS
10
172.001
20
-101.158
11
172.004
21
-101.154
0
LINE
8
BLACK
6
CONTINUOUS
10
172.004
20
-101.154
11
172.019
21
-101.141
0
LINE
8
BLACK
6
CONTINUOUS
10
172.019
20
-101.141
11
172.037
21
-101.132
0
LINE
8
BLACK
6
CONTINUOUS
10
172.037
20
-101.132
11
172.05
21
-101.128
0
LINE
8
BLACK
6
CONTINUOUS
10
172.05
20
-101.128
11
172.055
21
-101.126
0
LINE
8
BLACK
6
CONTINUOUS
10
172.055
20
-101.126
11
172.057
21
-101.126
0
LINE
8
BLACK
6
CONTINUOUS
10
172.057
20
-101.126
11
172.07
21
-101.125
0
LINE
8
BLACK
6
CONTINUOUS
10
172.07
20
-101.125
11
172.07
21
-101.125
0
LINE
8
BLACK
6
CONTINUOUS
10
172.07
20
-101.125
11
172.075
21
-101.125
0
LINE
8
BLACK
6
CONTINUOUS
10
172.075
20
-101.125
11
172.08
21
-101.125
0
LINE
8
BLACK
6
CONTINUOUS
10
172.08
20
-101.125
11
175.934
21
-101.125
0
LINE
8
BLACK
6
CONTINUOUS
10
175.934
20
-101.125
11
176.457
21
-100.602
0
LINE
8
BLACK
6
CONTINUOUS
10
176.457
20
-100.602
11
176.436
21
-100.577
0
LINE
8
BLACK
6
CONTINUOUS
10
176.436
20
-100.577
11
176.373
21
-100.46
0
LINE
8
BLACK
6
CONTINUOUS
10
176.373
20
-100.46
11
176.335
21
-100.332
0
LINE
8
BLACK
6
CONTINUOUS
10
176.335
20
-100.332
11
176.322
21
-100.2
0
LINE
8
BLACK
6
CONTINUOUS
10
176.322
20
-100.2
11
176.335
21
-100.068
0
LINE
8
BLACK
6
CONTINUOUS
10
176.335
20
-100.068
11
176.373
21
-99.9404
0
LINE
8
BLACK
6
CONTINUOUS
10
176.373
20
-99.9404
11
176.436
21
-99.8232
0
LINE
8
BLACK
6
CONTINUOUS
10
176.436
20
-99.8232
11
176.52
21
-99.7204
0
LINE
8
BLACK
6
CONTINUOUS
10
176.52
20
-99.7204
11
176.623
21
-99.636
0
LINE
8
BLACK
6
CONTINUOUS
10
176.623
20
-99.636
11
176.74
21
-99.5734
0
LINE
8
BLACK
6
CONTINUOUS
10
176.74
20
-99.5734
11
176.868
21
-99.5348
0
LINE
8
BLACK
6
CONTINUOUS
10
176.868
20
-99.5348
11
176.967
21
-99.525
0
LINE
8
BLACK
6
CONTINUOUS
10
176.967
20
-99.525
11
177.033
21
-99.525
0
LINE
8
BLACK
6
CONTINUOUS
10
177.033
20
-99.525
11
177.132
21
-99.5348
0
LINE
8
BLACK
6
CONTINUOUS
10
152.467
20
-99.4615
11
152.758
21
-99.5821
0
LINE
8
BLACK
6
CONTINUOUS
10
152.758
20
-99.5821
11
153.02
21
-99.7572
0
LINE
8
BLACK
6
CONTINUOUS
10
153.02
20
-99.7572
11
153.243
21
-99.9801
0
LINE
8
BLACK
6
CONTINUOUS
10
153.243
20
-99.9801
11
153.418
21
-100.242
0
LINE
8
BLACK
6
CONTINUOUS
10
153.418
20
-100.242
11
153.539
21
-100.533
0
LINE
8
BLACK
6
CONTINUOUS
10
153.539
20
-100.533
11
153.6
21
-100.842
0
LINE
8
BLACK
6
CONTINUOUS
10
153.6
20
-100.842
11
153.6
21
-101.158
0
LINE
8
BLACK
6
CONTINUOUS
10
153.6
20
-101.158
11
153.539
21
-101.467
0
LINE
8
BLACK
6
CONTINUOUS
10
153.539
20
-101.467
11
153.418
21
-101.758
0
LINE
8
BLACK
6
CONTINUOUS
10
153.418
20
-101.758
11
153.243
21
-102.02
0
LINE
8
BLACK
6
CONTINUOUS
10
153.243
20
-102.02
11
153.02
21
-102.243
0
LINE
8
BLACK
6
CONTINUOUS
10
153.02
20
-102.243
11
152.758
21
-102.418
0
LINE
8
BLACK
6
CONTINUOUS
10
152.758
20
-102.418
11
152.467
21
-102.539
0
LINE
8
BLACK
6
CONTINUOUS
10
152.467
20
-102.539
11
152.158
21
-102.6
0
LINE
8
BLACK
6
CONTINUOUS
10
152.158
20
-102.6
11
151.842
21
-102.6
0
LINE
8
BLACK
6
CONTINUOUS
10
151.842
20
-102.6
11
151.533
21
-102.539
0
LINE
8
BLACK
6
CONTINUOUS
10
151.533
20
-102.539
11
151.242
21
-102.418
0
LINE
8
BLACK
6
CONTINUOUS
10
151.242
20
-102.418
11
150.98
21
-102.243
0
LINE
8
BLACK
6
CONTINUOUS
10
150.98
20
-102.243
11
150.757
21
-102.02
0
LINE
8
BLACK
6
CONTINUOUS
10
150.757
20
-102.02
11
150.582
21
-101.758
0
LINE
8
BLACK
6
CONTINUOUS
10
150.582
20
-101.758
11
150.461
21
-101.467
0
LINE
8
BLACK
6
CONTINUOUS
10
150.461
20
-101.467
11
150.4
21
-101.158
0
LINE
8
BLACK
6
CONTINUOUS
10
150.4
20
-101.158
11
150.4
21
-100.842
0
LINE
8
BLACK
6
CONTINUOUS
10
150.4
20
-100.842
11
150.461
21
-100.533
0
LINE
8
BLACK
6
CONTINUOUS
10
150.461
20
-100.533
11
150.582
21
-100.242
0
LINE
8
BLACK
6
CONTINUOUS
10
150.582
20
-100.242
11
150.757
21
-99.9801
0
LINE
8
BLACK
6
CONTINUOUS
10
150.757
20
-99.9801
11
150.98
21
-99.7572
0
LINE
8
BLACK
6
CONTINUOUS
10
150.98
20
-99.7572
11
151.242
21
-99.5821
0
LINE
8
BLACK
6
CONTINUOUS
10
151.242
20
-99.5821
11
151.533
21
-99.4615
0
LINE
8
BLACK
6
CONTINUOUS
10
151.533
20
-99.4615
11
151.842
21
-99.4
0
LINE
8
BLACK
6
CONTINUOUS
10
151.842
20
-99.4
11
152.158
21
-99.4
0
LINE
8
BLACK
6
CONTINUOUS
10
152.158
20
-99.4
11
152.467
21
-99.4615
0
LINE
8
BLACK
6
CONTINUOUS
10
175.132
20
-99.5348
11
175.26
21
-99.5734
0
LINE
8
BLACK
6
CONTINUOUS
10
175.26
20
-99.5734
11
175.377
21
-99.636
0
LINE
8
BLACK
6
CONTINUOUS
10
175.377
20
-99.636
11
175.48
21
-99.7204
0
LINE
8
BLACK
6
CONTINUOUS
10
175.48
20
-99.7204
11
175.564
21
-99.8232
0
LINE
8
BLACK
6
CONTINUOUS
10
175.564
20
-99.8232
11
175.627
21
-99.9404
0
LINE
8
BLACK
6
CONTINUOUS
10
175.627
20
-99.9404
11
175.665
21
-100.068
0
LINE
8
BLACK
6
CONTINUOUS
10
175.665
20
-100.068
11
175.678
21
-100.2
0
LINE
8
BLACK
6
CONTINUOUS
10
175.678
20
-100.2
11
175.665
21
-100.332
0
LINE
8
BLACK
6
CONTINUOUS
10
175.665
20
-100.332
11
175.627
21
-100.46
0
LINE
8
BLACK
6
CONTINUOUS
10
175.627
20
-100.46
11
175.564
21
-100.577
0
LINE
8
BLACK
6
CONTINUOUS
10
175.564
20
-100.577
11
175.48
21
-100.68
0
LINE
8
BLACK
6
CONTINUOUS
10
175.48
20
-100.68
11
175.377
21
-100.764
0
LINE
8
BLACK
6
CONTINUOUS
10
175.377
20
-100.764
11
175.26
21
-100.827
0
LINE
8
BLACK
6
CONTINUOUS
10
175.26
20
-100.827
11
175.132
21
-100.865
0
LINE
8
BLACK
6
CONTINUOUS
10
175.132
20
-100.865
11
175.033
21
-100.875
0
LINE
8
BLACK
6
CONTINUOUS
10
175.033
20
-100.875
11
174.967
21
-100.875
0
LINE
8
BLACK
6
CONTINUOUS
10
174.967
20
-100.875
11
174.868
21
-100.865
0
LINE
8
BLACK
6
CONTINUOUS
10
174.868
20
-100.865
11
174.74
21
-100.827
0
LINE
8
BLACK
6
CONTINUOUS
10
174.74
20
-100.827
11
174.623
21
-100.764
0
LINE
8
BLACK
6
CONTINUOUS
10
174.623
20
-100.764
11
174.52
21
-100.68
0
LINE
8
BLACK
6
CONTINUOUS
10
174.52
20
-100.68
11
174.436
21
-100.577
0
LINE
8
BLACK
6
CONTINUOUS
10
174.436
20
-100.577
11
174.373
21
-100.46
0
LINE
8
BLACK
6
CONTINUOUS
10
174.373
20
-100.46
11
174.335
21
-100.332
0
LINE
8
BLACK
6
CONTINUOUS
10
174.335
20
-100.332
11
174.332
21
-100.3
0
LINE
8
BLACK
6
CONTINUOUS
10
174.332
20
-100.3
11
171.341
21
-100.3
0
LINE
8
BLACK
6
CONTINUOUS
10
171.341
20
-100.3
11
170.545
21
-101.096
0
LINE
8
BLACK
6
CONTINUOUS
10
170.545
20
-101.096
11
170.554
21
-101.111
0
LINE
8
BLACK
6
CONTINUOUS
10
170.554
20
-101.111
11
170.585
21
-101.183
0
LINE
8
BLACK
6
CONTINUOUS
10
170.585
20
-101.183
11
170.6
21
-101.261
0
LINE
8
BLACK
6
CONTINUOUS
10
170.6
20
-101.261
11
170.6
21
-101.339
0
LINE
8
BLACK
6
CONTINUOUS
10
170.6
20
-101.339
11
170.585
21
-101.417
0
LINE
8
BLACK
6
CONTINUOUS
10
170.585
20
-101.417
11
170.554
21
-101.489
0
LINE
8
BLACK
6
CONTINUOUS
10
170.554
20
-101.489
11
170.511
21
-101.555
0
LINE
8
BLACK
6
CONTINUOUS
10
170.511
20
-101.555
11
170.455
21
-101.611
0
LINE
8
BLACK
6
CONTINUOUS
10
170.455
20
-101.611
11
170.389
21
-101.654
0
LINE
8
BLACK
6
CONTINUOUS
10
170.389
20
-101.654
11
170.317
21
-101.685
0
LINE
8
BLACK
6
CONTINUOUS
10
170.317
20
-101.685
11
170.239
21
-101.7
0
LINE
8
BLACK
6
CONTINUOUS
10
170.239
20
-101.7
11
170.161
21
-101.7
0
LINE
8
BLACK
6
CONTINUOUS
10
170.161
20
-101.7
11
170.083
21
-101.685
0
LINE
8
BLACK
6
CONTINUOUS
10
170.083
20
-101.685
11
170.011
21
-101.654
0
LINE
8
BLACK
6
CONTINUOUS
10
170.011
20
-101.654
11
169.945
21
-101.611
0
LINE
8
BLACK
6
CONTINUOUS
10
169.945
20
-101.611
11
169.889
21
-101.555
0
LINE
8
BLACK
6
CONTINUOUS
10
169.889
20
-101.555
11
169.846
21
-101.489
0
LINE
8
BLACK
6
CONTINUOUS
10
169.846
20
-101.489
11
169.815
21
-101.417
0
LINE
8
BLACK
6
CONTINUOUS
10
169.815
20
-101.417
11
169.8
21
-101.339
0
LINE
8
BLACK
6
CONTINUOUS
10
169.8
20
-101.339
11
169.8
21
-101.261
0
LINE
8
BLACK
6
CONTINUOUS
10
169.8
20
-101.261
11
169.815
21
-101.183
0
LINE
8
BLACK
6
CONTINUOUS
10
169.815
20
-101.183
11
169.846
21
-101.111
0
LINE
8
BLACK
6
CONTINUOUS
10
169.846
20
-101.111
11
169.889
21
-101.045
0
LINE
8
BLACK
6
CONTINUOUS
10
169.889
20
-101.045
11
169.945
21
-100.989
0
LINE
8
BLACK
6
CONTINUOUS
10
169.945
20
-100.989
11
170.011
21
-100.946
0
LINE
8
BLACK
6
CONTINUOUS
10
170.011
20
-100.946
11
170.083
21
-100.915
0
LINE
8
BLACK
6
CONTINUOUS
10
170.083
20
-100.915
11
170.161
21
-100.9
0
LINE
8
BLACK
6
CONTINUOUS
10
170.161
20
-100.9
11
170.239
21
-100.9
0
LINE
8
BLACK
6
CONTINUOUS
10
170.239
20
-100.9
11
170.317
21
-100.915
0
LINE
8
BLACK
6
CONTINUOUS
10
170.317
20
-100.915
11
170.389
21
-100.946
0
LINE
8
BLACK
6
CONTINUOUS
10
170.389
20
-100.946
11
170.404
21
-100.955
0
LINE
8
BLACK
6
CONTINUOUS
10
170.404
20
-100.955
11
171.226
21
-100.133
0
LINE
8
BLACK
6
CONTINUOUS
10
171.226
20
-100.133
11
171.229
21
-100.129
0
LINE
8
BLACK
6
CONTINUOUS
10
171.229
20
-100.129
11
171.244
21
-100.116
0
LINE
8
BLACK
6
CONTINUOUS
10
171.244
20
-100.116
11
171.262
21
-100.107
0
LINE
8
BLACK
6
CONTINUOUS
10
171.262
20
-100.107
11
171.275
21
-100.103
0
LINE
8
BLACK
6
CONTINUOUS
10
171.275
20
-100.103
11
171.28
21
-100.101
0
LINE
8
BLACK
6
CONTINUOUS
10
171.28
20
-100.101
11
171.282
21
-100.101
0
LINE
8
BLACK
6
CONTINUOUS
10
171.282
20
-100.101
11
171.295
21
-100.1
0
LINE
8
BLACK
6
CONTINUOUS
10
171.295
20
-100.1
11
171.295
21
-100.1
0
LINE
8
BLACK
6
CONTINUOUS
10
171.295
20
-100.1
11
171.3
21
-100.1
0
LINE
8
BLACK
6
CONTINUOUS
10
171.3
20
-100.1
11
171.305
21
-100.1
0
LINE
8
BLACK
6
CONTINUOUS
10
171.305
20
-100.1
11
174.332
21
-100.1
0
LINE
8
BLACK
6
CONTINUOUS
10
174.332
20
-100.1
11
174.335
21
-100.068
0
LINE
8
BLACK
6
CONTINUOUS
10
174.335
20
-100.068
11
174.373
21
-99.9404
0
LINE
8
BLACK
6
CONTINUOUS
10
174.373
20
-99.9404
11
174.436
21
-99.8232
0
LINE
8
BLACK
6
CONTINUOUS
10
174.436
20
-99.8232
11
174.52
21
-99.7204
0
LINE
8
BLACK
6
CONTINUOUS
10
174.52
20
-99.7204
11
174.623
21
-99.636
0
LINE
8
BLACK
6
CONTINUOUS
10
174.623
20
-99.636
11
174.74
21
-99.5734
0
LINE
8
BLACK
6
CONTINUOUS
10
174.74
20
-99.5734
11
174.868
21
-99.5348
0
LINE
8
BLACK
6
CONTINUOUS
10
174.868
20
-99.5348
11
174.967
21
-99.525
0
LINE
8
BLACK
6
CONTINUOUS
10
174.967
20
-99.525
11
175.033
21
-99.525
0
LINE
8
BLACK
6
CONTINUOUS
10
175.033
20
-99.525
11
175.132
21
-99.5348
0
LINE
8
BLACK
6
CONTINUOUS
10
175.132
20
-97.5348
11
175.26
21
-97.5734
0
LINE
8
BLACK
6
CONTINUOUS
10
175.26
20
-97.5734
11
175.377
21
-97.636
0
LINE
8
BLACK
6
CONTINUOUS
10
175.377
20
-97.636
11
175.48
21
-97.7204
0
LINE
8
BLACK
6
CONTINUOUS
10
175.48
20
-97.7204
11
175.564
21
-97.8232
0
LINE
8
BLACK
6
CONTINUOUS
10
175.564
20
-97.8232
11
175.627
21
-97.9404
0
LINE
8
BLACK
6
CONTINUOUS
10
175.627
20
-97.9404
11
175.665
21
-98.0677
0
LINE
8
BLACK
6
CONTINUOUS
10
175.665
20
-98.0677
11
175.678
21
-98.2
0
LINE
8
BLACK
6
CONTINUOUS
10
175.678
20
-98.2
11
175.665
21
-98.3323
0
LINE
8
BLACK
6
CONTINUOUS
10
175.665
20
-98.3323
11
175.627
21
-98.4596
0
LINE
8
BLACK
6
CONTINUOUS
10
175.627
20
-98.4596
11
175.564
21
-98.5768
0
LINE
8
BLACK
6
CONTINUOUS
10
175.564
20
-98.5768
11
175.48
21
-98.6796
0
LINE
8
BLACK
6
CONTINUOUS
10
175.48
20
-98.6796
11
175.377
21
-98.764
0
LINE
8
BLACK
6
CONTINUOUS
10
175.377
20
-98.764
11
175.26
21
-98.8266
0
LINE
8
BLACK
6
CONTINUOUS
10
175.26
20
-98.8266
11
175.132
21
-98.8652
0
LINE
8
BLACK
6
CONTINUOUS
10
175.132
20
-98.8652
11
175.033
21
-98.875
0
LINE
8
BLACK
6
CONTINUOUS
10
175.033
20
-98.875
11
174.967
21
-98.875
0
LINE
8
BLACK
6
CONTINUOUS
10
174.967
20
-98.875
11
174.868
21
-98.8652
0
LINE
8
BLACK
6
CONTINUOUS
10
174.868
20
-98.8652
11
174.74
21
-98.8266
0
LINE
8
BLACK
6
CONTINUOUS
10
174.74
20
-98.8266
11
174.623
21
-98.764
0
LINE
8
BLACK
6
CONTINUOUS
10
174.623
20
-98.764
11
174.52
21
-98.6796
0
LINE
8
BLACK
6
CONTINUOUS
10
174.52
20
-98.6796
11
174.436
21
-98.5768
0
LINE
8
BLACK
6
CONTINUOUS
10
174.436
20
-98.5768
11
174.373
21
-98.4596
0
LINE
8
BLACK
6
CONTINUOUS
10
174.373
20
-98.4596
11
174.335
21
-98.3323
0
LINE
8
BLACK
6
CONTINUOUS
10
174.335
20
-98.3323
11
174.332
21
-98.3
0
LINE
8
BLACK
6
CONTINUOUS
10
174.332
20
-98.3
11
165.441
21
-98.3
0
LINE
8
BLACK
6
CONTINUOUS
10
165.441
20
-98.3
11
164.945
21
-98.7964
0
LINE
8
BLACK
6
CONTINUOUS
10
164.945
20
-98.7964
11
164.954
21
-98.8105
0
LINE
8
BLACK
6
CONTINUOUS
10
164.954
20
-98.8105
11
164.985
21
-98.8833
0
LINE
8
BLACK
6
CONTINUOUS
10
164.985
20
-98.8833
11
165
21
-98.9606
0
LINE
8
BLACK
6
CONTINUOUS
10
165
20
-98.9606
11
165
21
-99.0394
0
LINE
8
BLACK
6
CONTINUOUS
10
165
20
-99.0394
11
164.985
21
-99.1167
0
LINE
8
BLACK
6
CONTINUOUS
10
164.985
20
-99.1167
11
164.954
21
-99.1895
0
LINE
8
BLACK
6
CONTINUOUS
10
164.954
20
-99.1895
11
164.911
21
-99.255
0
LINE
8
BLACK
6
CONTINUOUS
10
164.911
20
-99.255
11
164.855
21
-99.3107
0
LINE
8
BLACK
6
CONTINUOUS
10
164.855
20
-99.3107
11
164.789
21
-99.3545
0
LINE
8
BLACK
6
CONTINUOUS
10
164.789
20
-99.3545
11
164.717
21
-99.3846
0
LINE
8
BLACK
6
CONTINUOUS
10
164.717
20
-99.3846
11
164.639
21
-99.4
0
LINE
8
BLACK
6
CONTINUOUS
10
164.639
20
-99.4
11
164.561
21
-99.4
0
LINE
8
BLACK
6
CONTINUOUS
10
164.561
20
-99.4
11
164.483
21
-99.3846
0
LINE
8
BLACK
6
CONTINUOUS
10
164.483
20
-99.3846
11
164.411
21
-99.3545
0
LINE
8
BLACK
6
CONTINUOUS
10
164.411
20
-99.3545
11
164.345
21
-99.3107
0
LINE
8
BLACK
6
CONTINUOUS
10
164.345
20
-99.3107
11
164.289
21
-99.255
0
LINE
8
BLACK
6
CONTINUOUS
10
164.289
20
-99.255
11
164.246
21
-99.1895
0
LINE
8
BLACK
6
CONTINUOUS
10
164.246
20
-99.1895
11
164.215
21
-99.1167
0
LINE
8
BLACK
6
CONTINUOUS
10
164.215
20
-99.1167
11
164.2
21
-99.0394
0
LINE
8
BLACK
6
CONTINUOUS
10
164.2
20
-99.0394
11
164.2
21
-98.9606
0
LINE
8
BLACK
6
CONTINUOUS
10
164.2
20
-98.9606
11
164.215
21
-98.8833
0
LINE
8
BLACK
6
CONTINUOUS
10
164.215
20
-98.8833
11
164.246
21
-98.8105
0
LINE
8
BLACK
6
CONTINUOUS
10
164.246
20
-98.8105
11
164.289
21
-98.745
0
LINE
8
BLACK
6
CONTINUOUS
10
164.289
20
-98.745
11
164.345
21
-98.6893
0
LINE
8
BLACK
6
CONTINUOUS
10
164.345
20
-98.6893
11
164.411
21
-98.6455
0
LINE
8
BLACK
6
CONTINUOUS
10
164.411
20
-98.6455
11
164.483
21
-98.6154
0
LINE
8
BLACK
6
CONTINUOUS
10
164.483
20
-98.6154
11
164.561
21
-98.6
0
LINE
8
BLACK
6
CONTINUOUS
10
164.561
20
-98.6
11
164.639
21
-98.6
0
LINE
8
BLACK
6
CONTINUOUS
10
164.639
20
-98.6
11
164.717
21
-98.6154
0
LINE
8
BLACK
6
CONTINUOUS
10
164.717
20
-98.6154
11
164.789
21
-98.6455
0
LINE
8
BLACK
6
CONTINUOUS
10
164.789
20
-98.6455
11
164.804
21
-98.655
0
LINE
8
BLACK
6
CONTINUOUS
10
164.804
20
-98.655
11
165.326
21
-98.1328
0
LINE
8
BLACK
6
CONTINUOUS
10
165.326
20
-98.1328
11
165.329
21
-98.1289
0
LINE
8
BLACK
6
CONTINUOUS
10
165.329
20
-98.1289
11
165.344
21
-98.1165
0
LINE
8
BLACK
6
CONTINUOUS
10
165.344
20
-98.1165
11
165.352
21
-98.1121
0
LINE
8
BLACK
6
CONTINUOUS
10
165.352
20
-98.1121
11
165.362
21
-98.1072
0
LINE
8
BLACK
6
CONTINUOUS
10
165.362
20
-98.1072
11
165.38
21
-98.1014
0
LINE
8
BLACK
6
CONTINUOUS
10
165.38
20
-98.1014
11
165.382
21
-98.1013
0
LINE
8
BLACK
6
CONTINUOUS
10
165.382
20
-98.1013
11
165.395
21
-98.1
0
LINE
8
BLACK
6
CONTINUOUS
10
165.395
20
-98.1
11
165.395
21
-98.1
0
LINE
8
BLACK
6
CONTINUOUS
10
165.395
20
-98.1
11
165.4
21
-98.0995
0
LINE
8
BLACK
6
CONTINUOUS
10
165.4
20
-98.0995
11
165.405
21
-98.1
0
LINE
8
BLACK
6
CONTINUOUS
10
165.405
20
-98.1
11
174.332
21
-98.1
0
LINE
8
BLACK
6
CONTINUOUS
10
174.332
20
-98.1
11
174.335
21
-98.0677
0
LINE
8
BLACK
6
CONTINUOUS
10
174.335
20
-98.0677
11
174.373
21
-97.9404
0
LINE
8
BLACK
6
CONTINUOUS
10
174.373
20
-97.9404
11
174.436
21
-97.8232
0
LINE
8
BLACK
6
CONTINUOUS
10
174.436
20
-97.8232
11
174.52
21
-97.7204
0
LINE
8
BLACK
6
CONTINUOUS
10
174.52
20
-97.7204
11
174.623
21
-97.636
0
LINE
8
BLACK
6
CONTINUOUS
10
174.623
20
-97.636
11
174.74
21
-97.5734
0
LINE
8
BLACK
6
CONTINUOUS
10
174.74
20
-97.5734
11
174.868
21
-97.5348
0
LINE
8
BLACK
6
CONTINUOUS
10
174.868
20
-97.5348
11
174.967
21
-97.525
0
LINE
8
BLACK
6
CONTINUOUS
10
174.967
20
-97.525
11
175.033
21
-97.525
0
LINE
8
BLACK
6
CONTINUOUS
10
175.033
20
-97.525
11
175.132
21
-97.5348
0
LINE
8
BLACK
6
CONTINUOUS
10
163.645
20
-97.4964
11
163.654
21
-97.5105
0
LINE
8
BLACK
6
CONTINUOUS
10
163.654
20
-97.5105
11
163.685
21
-97.5833
0
LINE
8
BLACK
6
CONTINUOUS
10
163.685
20
-97.5833
11
163.7
21
-97.6606
0
LINE
8
BLACK
6
CONTINUOUS
10
163.7
20
-97.6606
11
163.7
21
-97.7394
0
LINE
8
BLACK
6
CONTINUOUS
10
163.7
20
-97.7394
11
163.685
21
-97.8167
0
LINE
8
BLACK
6
CONTINUOUS
10
163.685
20
-97.8167
11
163.654
21
-97.8895
0
LINE
8
BLACK
6
CONTINUOUS
10
163.654
20
-97.8895
11
163.611
21
-97.955
0
LINE
8
BLACK
6
CONTINUOUS
10
163.611
20
-97.955
11
163.555
21
-98.0107
0
LINE
8
BLACK
6
CONTINUOUS
10
163.555
20
-98.0107
11
163.489
21
-98.0545
0
LINE
8
BLACK
6
CONTINUOUS
10
163.489
20
-98.0545
11
163.417
21
-98.0846
0
LINE
8
BLACK
6
CONTINUOUS
10
163.417
20
-98.0846
11
163.339
21
-98.1
0
LINE
8
BLACK
6
CONTINUOUS
10
163.339
20
-98.1
11
163.261
21
-98.1
0
LINE
8
BLACK
6
CONTINUOUS
10
163.261
20
-98.1
11
163.183
21
-98.0846
0
LINE
8
BLACK
6
CONTINUOUS
10
163.183
20
-98.0846
11
163.111
21
-98.0545
0
LINE
8
BLACK
6
CONTINUOUS
10
163.111
20
-98.0545
11
163.045
21
-98.0107
0
LINE
8
BLACK
6
CONTINUOUS
10
163.045
20
-98.0107
11
162.989
21
-97.955
0
LINE
8
BLACK
6
CONTINUOUS
10
162.989
20
-97.955
11
162.946
21
-97.8895
0
LINE
8
BLACK
6
CONTINUOUS
10
162.946
20
-97.8895
11
162.915
21
-97.8167
0
LINE
8
BLACK
6
CONTINUOUS
10
162.915
20
-97.8167
11
162.9
21
-97.7394
0
LINE
8
BLACK
6
CONTINUOUS
10
162.9
20
-97.7394
11
162.9
21
-97.6606
0
LINE
8
BLACK
6
CONTINUOUS
10
162.9
20
-97.6606
11
162.915
21
-97.5833
0
LINE
8
BLACK
6
CONTINUOUS
10
162.915
20
-97.5833
11
162.946
21
-97.5105
0
LINE
8
BLACK
6
CONTINUOUS
10
162.946
20
-97.5105
11
162.989
21
-97.445
0
LINE
8
BLACK
6
CONTINUOUS
10
162.989
20
-97.445
11
163.045
21
-97.3893
0
LINE
8
BLACK
6
CONTINUOUS
10
163.045
20
-97.3893
11
163.111
21
-97.3455
0
LINE
8
BLACK
6
CONTINUOUS
10
163.111
20
-97.3455
11
163.183
21
-97.3154
0
LINE
8
BLACK
6
CONTINUOUS
10
163.183
20
-97.3154
11
163.261
21
-97.3
0
LINE
8
BLACK
6
CONTINUOUS
10
163.261
20
-97.3
11
163.339
21
-97.3
0
LINE
8
BLACK
6
CONTINUOUS
10
163.339
20
-97.3
11
163.417
21
-97.3154
0
LINE
8
BLACK
6
CONTINUOUS
10
163.417
20
-97.3154
11
163.489
21
-97.3455
0
LINE
8
BLACK
6
CONTINUOUS
10
163.489
20
-97.3455
11
163.504
21
-97.355
0
LINE
8
BLACK
6
CONTINUOUS
10
163.504
20
-97.355
11
163.626
21
-97.2328
0
LINE
8
BLACK
6
CONTINUOUS
10
163.626
20
-97.2328
11
163.629
21
-97.2289
0
LINE
8
BLACK
6
CONTINUOUS
10
163.629
20
-97.2289
11
163.633
21
-97.2258
0
LINE
8
BLACK
6
CONTINUOUS
10
163.633
20
-97.2258
11
163.633
21
-97.2258
0
LINE
8
BLACK
6
CONTINUOUS
10
163.633
20
-97.2258
11
163.636
21
-97.2229
0
LINE
8
BLACK
6
CONTINUOUS
10
163.636
20
-97.2229
11
163.644
21
-97.2165
0
LINE
8
BLACK
6
CONTINUOUS
10
163.644
20
-97.2165
11
163.662
21
-97.2072
0
LINE
8
BLACK
6
CONTINUOUS
10
163.662
20
-97.2072
11
163.672
21
-97.2041
0
LINE
8
BLACK
6
CONTINUOUS
10
163.672
20
-97.2041
11
163.68
21
-97.2014
0
LINE
8
BLACK
6
CONTINUOUS
10
163.68
20
-97.2014
11
163.684
21
-97.2011
0
LINE
8
BLACK
6
CONTINUOUS
10
163.684
20
-97.2011
11
163.695
21
-97.2
0
LINE
8
BLACK
6
CONTINUOUS
10
163.695
20
-97.2
11
163.695
21
-97.2
0
LINE
8
BLACK
6
CONTINUOUS
10
163.695
20
-97.2
11
163.7
21
-97.1995
0
LINE
8
BLACK
6
CONTINUOUS
10
163.7
20
-97.1995
11
163.705
21
-97.2
0
LINE
8
BLACK
6
CONTINUOUS
10
163.705
20
-97.2
11
174.424
21
-97.2
0
LINE
8
BLACK
6
CONTINUOUS
10
174.424
20
-97.2
11
174.492
21
-97.1328
0
LINE
8
BLACK
6
CONTINUOUS
10
174.492
20
-97.1328
11
174.495
21
-97.1289
0
LINE
8
BLACK
6
CONTINUOUS
10
174.495
20
-97.1289
11
174.51
21
-97.1165
0
LINE
8
BLACK
6
CONTINUOUS
10
174.51
20
-97.1165
11
174.527
21
-97.1072
0
LINE
8
BLACK
6
CONTINUOUS
10
174.527
20
-97.1072
11
174.537
21
-97.1041
0
LINE
8
BLACK
6
CONTINUOUS
10
174.537
20
-97.1041
11
174.546
21
-97.1014
0
LINE
8
BLACK
6
CONTINUOUS
10
174.546
20
-97.1014
11
174.55
21
-97.1011
0
LINE
8
BLACK
6
CONTINUOUS
10
174.55
20
-97.1011
11
174.561
21
-97.1
0
LINE
8
BLACK
6
CONTINUOUS
10
174.561
20
-97.1
11
174.561
21
-97.1
0
LINE
8
BLACK
6
CONTINUOUS
10
174.561
20
-97.1
11
174.566
21
-97.0995
0
LINE
8
BLACK
6
CONTINUOUS
10
174.566
20
-97.0995
11
174.571
21
-97.1
0
LINE
8
BLACK
6
CONTINUOUS
10
174.571
20
-97.1
11
175.959
21
-97.1
0
LINE
8
BLACK
6
CONTINUOUS
10
175.959
20
-97.1
11
176.457
21
-96.6019
0
LINE
8
BLACK
6
CONTINUOUS
10
176.457
20
-96.6019
11
176.436
21
-96.5768
0
LINE
8
BLACK
6
CONTINUOUS
10
176.436
20
-96.5768
11
176.373
21
-96.4596
0
LINE
8
BLACK
6
CONTINUOUS
10
176.373
20
-96.4596
11
176.335
21
-96.3323
0
LINE
8
BLACK
6
CONTINUOUS
10
176.335
20
-96.3323
11
176.322
21
-96.2
0
LINE
8
BLACK
6
CONTINUOUS
10
176.322
20
-96.2
11
176.335
21
-96.0677
0
LINE
8
BLACK
6
CONTINUOUS
10
176.335
20
-96.0677
11
176.373
21
-95.9404
0
LINE
8
BLACK
6
CONTINUOUS
10
176.373
20
-95.9404
11
176.436
21
-95.8232
0
LINE
8
BLACK
6
CONTINUOUS
10
176.436
20
-95.8232
11
176.52
21
-95.7204
0
LINE
8
BLACK
6
CONTINUOUS
10
176.52
20
-95.7204
11
176.623
21
-95.636
0
LINE
8
BLACK
6
CONTINUOUS
10
176.623
20
-95.636
11
176.74
21
-95.5734
0
LINE
8
BLACK
6
CONTINUOUS
10
176.74
20
-95.5734
11
176.868
21
-95.5348
0
LINE
8
BLACK
6
CONTINUOUS
10
176.868
20
-95.5348
11
176.967
21
-95.525
0
LINE
8
BLACK
6
CONTINUOUS
10
176.967
20
-95.525
11
177.033
21
-95.525
0
LINE
8
BLACK
6
CONTINUOUS
10
177.033
20
-95.525
11
177.132
21
-95.5348
0
LINE
8
BLACK
6
CONTINUOUS
10
177.132
20
-95.5348
11
177.26
21
-95.5734
0
LINE
8
BLACK
6
CONTINUOUS
10
177.26
20
-95.5734
11
177.377
21
-95.636
0
LINE
8
BLACK
6
CONTINUOUS
10
177.377
20
-95.636
11
177.48
21
-95.7204
0
LINE
8
BLACK
6
CONTINUOUS
10
177.48
20
-95.7204
11
177.564
21
-95.8232
0
LINE
8
BLACK
6
CONTINUOUS
10
177.564
20
-95.8232
11
177.627
21
-95.9404
0
LINE
8
BLACK
6
CONTINUOUS
10
177.627
20
-95.9404
11
177.665
21
-96.0677
0
LINE
8
BLACK
6
CONTINUOUS
10
177.665
20
-96.0677
11
177.678
21
-96.2
0
LINE
8
BLACK
6
CONTINUOUS
10
177.678
20
-96.2
11
177.665
21
-96.3323
0
LINE
8
BLACK
6
CONTINUOUS
10
177.665
20
-96.3323
11
177.627
21
-96.4596
0
LINE
8
BLACK
6
CONTINUOUS
10
177.627
20
-96.4596
11
177.564
21
-96.5768
0
LINE
8
BLACK
6
CONTINUOUS
10
177.564
20
-96.5768
11
177.48
21
-96.6796
0
LINE
8
BLACK
6
CONTINUOUS
10
177.48
20
-96.6796
11
177.377
21
-96.764
0
LINE
8
BLACK
6
CONTINUOUS
10
177.377
20
-96.764
11
177.26
21
-96.8266
0
LINE
8
BLACK
6
CONTINUOUS
10
177.26
20
-96.8266
11
177.132
21
-96.8652
0
LINE
8
BLACK
6
CONTINUOUS
10
177.132
20
-96.8652
11
177.033
21
-96.875
0
LINE
8
BLACK
6
CONTINUOUS
10
177.033
20
-96.875
11
176.967
21
-96.875
0
LINE
8
BLACK
6
CONTINUOUS
10
176.967
20
-96.875
11
176.868
21
-96.8652
0
LINE
8
BLACK
6
CONTINUOUS
10
176.868
20
-96.8652
11
176.74
21
-96.8266
0
LINE
8
BLACK
6
CONTINUOUS
10
176.74
20
-96.8266
11
176.623
21
-96.764
0
LINE
8
BLACK
6
CONTINUOUS
10
176.623
20
-96.764
11
176.598
21
-96.7434
0
LINE
8
BLACK
6
CONTINUOUS
10
176.598
20
-96.7434
11
176.074
21
-97.2672
0
LINE
8
BLACK
6
CONTINUOUS
10
176.074
20
-97.2672
11
176.071
21
-97.2711
0
LINE
8
BLACK
6
CONTINUOUS
10
176.071
20
-97.2711
11
176.056
21
-97.2835
0
LINE
8
BLACK
6
CONTINUOUS
10
176.056
20
-97.2835
11
176.038
21
-97.2928
0
LINE
8
BLACK
6
CONTINUOUS
10
176.038
20
-97.2928
11
176.02
21
-97.2986
0
LINE
8
BLACK
6
CONTINUOUS
10
176.02
20
-97.2986
11
176.005
21
-97.3
0
LINE
8
BLACK
6
CONTINUOUS
10
176.005
20
-97.3
11
176.005
21
-97.3
0
LINE
8
BLACK
6
CONTINUOUS
10
176.005
20
-97.3
11
176
21
-97.3005
0
LINE
8
BLACK
6
CONTINUOUS
10
176
20
-97.3005
11
175.995
21
-97.3
0
LINE
8
BLACK
6
CONTINUOUS
10
175.995
20
-97.3
11
174.607
21
-97.3
0
LINE
8
BLACK
6
CONTINUOUS
10
174.607
20
-97.3
11
174.54
21
-97.3672
0
LINE
8
BLACK
6
CONTINUOUS
10
174.54
20
-97.3672
11
174.537
21
-97.3711
0
LINE
8
BLACK
6
CONTINUOUS
10
174.537
20
-97.3711
11
174.522
21
-97.3835
0
LINE
8
BLACK
6
CONTINUOUS
10
174.522
20
-97.3835
11
174.504
21
-97.3928
0
LINE
8
BLACK
6
CONTINUOUS
10
174.504
20
-97.3928
11
174.485
21
-97.3986
0
LINE
8
BLACK
6
CONTINUOUS
10
174.485
20
-97.3986
11
174.471
21
-97.4
0
LINE
8
BLACK
6
CONTINUOUS
10
174.471
20
-97.4
11
174.471
21
-97.4
0
LINE
8
BLACK
6
CONTINUOUS
10
174.471
20
-97.4
11
174.466
21
-97.4005
0
LINE
8
BLACK
6
CONTINUOUS
10
174.466
20
-97.4005
11
174.461
21
-97.4
0
LINE
8
BLACK
6
CONTINUOUS
10
174.461
20
-97.4
11
163.741
21
-97.4
0
LINE
8
BLACK
6
CONTINUOUS
10
163.741
20
-97.4
11
163.645
21
-97.4964
0
LINE
8
BLACK
6
CONTINUOUS
10
175.132
20
-95.5348
11
175.26
21
-95.5734
0
LINE
8
BLACK
6
CONTINUOUS
10
175.26
20
-95.5734
11
175.377
21
-95.636
0
LINE
8
BLACK
6
CONTINUOUS
10
175.377
20
-95.636
11
175.48
21
-95.7204
0
LINE
8
BLACK
6
CONTINUOUS
10
175.48
20
-95.7204
11
175.564
21
-95.8232
0
LINE
8
BLACK
6
CONTINUOUS
10
175.564
20
-95.8232
11
175.627
21
-95.9404
0
LINE
8
BLACK
6
CONTINUOUS
10
175.627
20
-95.9404
11
175.665
21
-96.0677
0
LINE
8
BLACK
6
CONTINUOUS
10
175.665
20
-96.0677
11
175.678
21
-96.2
0
LINE
8
BLACK
6
CONTINUOUS
10
175.678
20
-96.2
11
175.665
21
-96.3323
0
LINE
8
BLACK
6
CONTINUOUS
10
175.665
20
-96.3323
11
175.627
21
-96.4596
0
LINE
8
BLACK
6
CONTINUOUS
10
175.627
20
-96.4596
11
175.564
21
-96.5768
0
LINE
8
BLACK
6
CONTINUOUS
10
175.564
20
-96.5768
11
175.48
21
-96.6796
0
LINE
8
BLACK
6
CONTINUOUS
10
175.48
20
-96.6796
11
175.377
21
-96.764
0
LINE
8
BLACK
6
CONTINUOUS
10
175.377
20
-96.764
11
175.26
21
-96.8266
0
LINE
8
BLACK
6
CONTINUOUS
10
175.26
20
-96.8266
11
175.132
21
-96.8652
0
LINE
8
BLACK
6
CONTINUOUS
10
175.132
20
-96.8652
11
175.033
21
-96.875
0
LINE
8
BLACK
6
CONTINUOUS
10
175.033
20
-96.875
11
174.967
21
-96.875
0
LINE
8
BLACK
6
CONTINUOUS
10
174.967
20
-96.875
11
174.868
21
-96.8652
0
LINE
8
BLACK
6
CONTINUOUS
10
174.868
20
-96.8652
11
174.74
21
-96.8266
0
LINE
8
BLACK
6
CONTINUOUS
10
174.74
20
-96.8266
11
174.623
21
-96.764
0
LINE
8
BLACK
6
CONTINUOUS
10
174.623
20
-96.764
11
174.598
21
-96.7434
0
LINE
8
BLACK
6
CONTINUOUS
10
174.598
20
-96.7434
11
174.399
21
-96.9422
0
LINE
8
BLACK
6
CONTINUOUS
10
174.399
20
-96.9422
11
174.396
21
-96.9461
0
LINE
8
BLACK
6
CONTINUOUS
10
174.396
20
-96.9461
11
174.381
21
-96.9585
0
LINE
8
BLACK
6
CONTINUOUS
10
174.381
20
-96.9585
11
174.363
21
-96.9678
0
LINE
8
BLACK
6
CONTINUOUS
10
174.363
20
-96.9678
11
174.345
21
-96.9736
0
LINE
8
BLACK
6
CONTINUOUS
10
174.345
20
-96.9736
11
174.33
21
-96.975
0
LINE
8
BLACK
6
CONTINUOUS
10
174.33
20
-96.975
11
174.33
21
-96.975
0
LINE
8
BLACK
6
CONTINUOUS
10
174.33
20
-96.975
11
174.325
21
-96.9755
0
LINE
8
BLACK
6
CONTINUOUS
10
174.325
20
-96.9755
11
174.32
21
-96.975
0
LINE
8
BLACK
6
CONTINUOUS
10
174.32
20
-96.975
11
160.866
21
-96.975
0
LINE
8
BLACK
6
CONTINUOUS
10
160.866
20
-96.975
11
160.445
21
-97.3964
0
LINE
8
BLACK
6
CONTINUOUS
10
160.445
20
-97.3964
11
160.454
21
-97.4105
0
LINE
8
BLACK
6
CONTINUOUS
10
160.454
20
-97.4105
11
160.485
21
-97.4833
0
LINE
8
BLACK
6
CONTINUOUS
10
160.485
20
-97.4833
11
160.5
21
-97.5606
0
LINE
8
BLACK
6
CONTINUOUS
10
160.5
20
-97.5606
11
160.5
21
-97.6394
0
LINE
8
BLACK
6
CONTINUOUS
10
160.5
20
-97.6394
11
160.485
21
-97.7167
0
LINE
8
BLACK
6
CONTINUOUS
10
160.485
20
-97.7167
11
160.454
21
-97.7895
0
LINE
8
BLACK
6
CONTINUOUS
10
160.454
20
-97.7895
11
160.411
21
-97.855
0
LINE
8
BLACK
6
CONTINUOUS
10
160.411
20
-97.855
11
160.355
21
-97.9107
0
LINE
8
BLACK
6
CONTINUOUS
10
160.355
20
-97.9107
11
160.289
21
-97.9545
0
LINE
8
BLACK
6
CONTINUOUS
10
160.289
20
-97.9545
11
160.217
21
-97.9846
0
LINE
8
BLACK
6
CONTINUOUS
10
160.217
20
-97.9846
11
160.139
21
-98
0
LINE
8
BLACK
6
CONTINUOUS
10
160.139
20
-98
11
160.061
21
-98
0
LINE
8
BLACK
6
CONTINUOUS
10
160.061
20
-98
11
159.983
21
-97.9846
0
LINE
8
BLACK
6
CONTINUOUS
10
159.983
20
-97.9846
11
159.911
21
-97.9545
0
LINE
8
BLACK
6
CONTINUOUS
10
159.911
20
-97.9545
11
159.845
21
-97.9107
0
LINE
8
BLACK
6
CONTINUOUS
10
159.845
20
-97.9107
11
159.789
21
-97.855
0
LINE
8
BLACK
6
CONTINUOUS
10
159.789
20
-97.855
11
159.746
21
-97.7895
0
LINE
8
BLACK
6
CONTINUOUS
10
159.746
20
-97.7895
11
159.715
21
-97.7167
0
LINE
8
BLACK
6
CONTINUOUS
10
159.715
20
-97.7167
11
159.7
21
-97.6394
0
LINE
8
BLACK
6
CONTINUOUS
10
159.7
20
-97.6394
11
159.7
21
-97.5606
0
LINE
8
BLACK
6
CONTINUOUS
10
159.7
20
-97.5606
11
159.715
21
-97.4833
0
LINE
8
BLACK
6
CONTINUOUS
10
159.715
20
-97.4833
11
159.746
21
-97.4105
0
LINE
8
BLACK
6
CONTINUOUS
10
159.746
20
-97.4105
11
159.789
21
-97.345
0
LINE
8
BLACK
6
CONTINUOUS
10
159.789
20
-97.345
11
159.845
21
-97.2893
0
LINE
8
BLACK
6
CONTINUOUS
10
159.845
20
-97.2893
11
159.911
21
-97.2455
0
LINE
8
BLACK
6
CONTINUOUS
10
159.911
20
-97.2455
11
159.983
21
-97.2154
0
LINE
8
BLACK
6
CONTINUOUS
10
159.983
20
-97.2154
11
160.061
21
-97.2
0
LINE
8
BLACK
6
CONTINUOUS
10
160.061
20
-97.2
11
160.139
21
-97.2
0
LINE
8
BLACK
6
CONTINUOUS
10
160.139
20
-97.2
11
160.217
21
-97.2154
0
LINE
8
BLACK
6
CONTINUOUS
10
160.217
20
-97.2154
11
160.289
21
-97.2455
0
LINE
8
BLACK
6
CONTINUOUS
10
160.289
20
-97.2455
11
160.304
21
-97.255
0
LINE
8
BLACK
6
CONTINUOUS
10
160.304
20
-97.255
11
160.751
21
-96.8078
0
LINE
8
BLACK
6
CONTINUOUS
10
160.751
20
-96.8078
11
160.754
21
-96.8039
0
LINE
8
BLACK
6
CONTINUOUS
10
160.754
20
-96.8039
11
160.769
21
-96.7914
0
LINE
8
BLACK
6
CONTINUOUS
10
160.769
20
-96.7914
11
160.787
21
-96.7822
0
LINE
8
BLACK
6
CONTINUOUS
10
160.787
20
-96.7822
11
160.797
21
-96.7791
0
LINE
8
BLACK
6
CONTINUOUS
10
160.797
20
-96.7791
11
160.805
21
-96.7764
0
LINE
8
BLACK
6
CONTINUOUS
10
160.805
20
-96.7764
11
160.809
21
-96.7761
0
LINE
8
BLACK
6
CONTINUOUS
10
160.809
20
-96.7761
11
160.82
21
-96.775
0
LINE
8
BLACK
6
CONTINUOUS
10
160.82
20
-96.775
11
160.82
21
-96.775
0
LINE
8
BLACK
6
CONTINUOUS
10
160.82
20
-96.775
11
160.825
21
-96.7745
0
LINE
8
BLACK
6
CONTINUOUS
10
160.825
20
-96.7745
11
160.83
21
-96.775
0
LINE
8
BLACK
6
CONTINUOUS
10
160.83
20
-96.775
11
174.284
21
-96.775
0
LINE
8
BLACK
6
CONTINUOUS
10
174.284
20
-96.775
11
174.457
21
-96.6019
0
LINE
8
BLACK
6
CONTINUOUS
10
174.457
20
-96.6019
11
174.436
21
-96.5768
0
LINE
8
BLACK
6
CONTINUOUS
10
174.436
20
-96.5768
11
174.373
21
-96.4596
0
LINE
8
BLACK
6
CONTINUOUS
10
174.373
20
-96.4596
11
174.335
21
-96.3323
0
LINE
8
BLACK
6
CONTINUOUS
10
174.335
20
-96.3323
11
174.322
21
-96.2
0
LINE
8
BLACK
6
CONTINUOUS
10
174.322
20
-96.2
11
174.335
21
-96.0677
0
LINE
8
BLACK
6
CONTINUOUS
10
174.335
20
-96.0677
11
174.373
21
-95.9404
0
LINE
8
BLACK
6
CONTINUOUS
10
174.373
20
-95.9404
11
174.436
21
-95.8232
0
LINE
8
BLACK
6
CONTINUOUS
10
174.436
20
-95.8232
11
174.52
21
-95.7204
0
LINE
8
BLACK
6
CONTINUOUS
10
174.52
20
-95.7204
11
174.623
21
-95.636
0
LINE
8
BLACK
6
CONTINUOUS
10
174.623
20
-95.636
11
174.74
21
-95.5734
0
LINE
8
BLACK
6
CONTINUOUS
10
174.74
20
-95.5734
11
174.868
21
-95.5348
0
LINE
8
BLACK
6
CONTINUOUS
10
174.868
20
-95.5348
11
174.967
21
-95.525
0
LINE
8
BLACK
6
CONTINUOUS
10
174.967
20
-95.525
11
175.033
21
-95.525
0
LINE
8
BLACK
6
CONTINUOUS
10
175.033
20
-95.525
11
175.132
21
-95.5348
0
LINE
8
BLACK
6
CONTINUOUS
10
177.132
20
-93.5348
11
177.26
21
-93.5734
0
LINE
8
BLACK
6
CONTINUOUS
10
177.26
20
-93.5734
11
177.377
21
-93.636
0
LINE
8
BLACK
6
CONTINUOUS
10
177.377
20
-93.636
11
177.48
21
-93.7204
0
LINE
8
BLACK
6
CONTINUOUS
10
177.48
20
-93.7204
11
177.564
21
-93.8232
0
LINE
8
BLACK
6
CONTINUOUS
10
177.564
20
-93.8232
11
177.627
21
-93.9404
0
LINE
8
BLACK
6
CONTINUOUS
10
177.627
20
-93.9404
11
177.665
21
-94.0677
0
LINE
8
BLACK
6
CONTINUOUS
10
177.665
20
-94.0677
11
177.678
21
-94.2
0
LINE
8
BLACK
6
CONTINUOUS
10
177.678
20
-94.2
11
177.665
21
-94.3323
0
LINE
8
BLACK
6
CONTINUOUS
10
177.665
20
-94.3323
11
177.627
21
-94.4596
0
LINE
8
BLACK
6
CONTINUOUS
10
177.627
20
-94.4596
11
177.564
21
-94.5768
0
LINE
8
BLACK
6
CONTINUOUS
10
177.564
20
-94.5768
11
177.48
21
-94.6796
0
LINE
8
BLACK
6
CONTINUOUS
10
177.48
20
-94.6796
11
177.377
21
-94.764
0
LINE
8
BLACK
6
CONTINUOUS
10
177.377
20
-94.764
11
177.26
21
-94.8266
0
LINE
8
BLACK
6
CONTINUOUS
10
177.26
20
-94.8266
11
177.132
21
-94.8652
0
LINE
8
BLACK
6
CONTINUOUS
10
177.132
20
-94.8652
11
177.033
21
-94.875
0
LINE
8
BLACK
6
CONTINUOUS
10
177.033
20
-94.875
11
176.967
21
-94.875
0
LINE
8
BLACK
6
CONTINUOUS
10
176.967
20
-94.875
11
176.868
21
-94.8652
0
LINE
8
BLACK
6
CONTINUOUS
10
176.868
20
-94.8652
11
176.74
21
-94.8266
0
LINE
8
BLACK
6
CONTINUOUS
10
176.74
20
-94.8266
11
176.623
21
-94.764
0
LINE
8
BLACK
6
CONTINUOUS
10
176.623
20
-94.764
11
176.52
21
-94.6796
0
LINE
8
BLACK
6
CONTINUOUS
10
176.52
20
-94.6796
11
176.436
21
-94.5768
0
LINE
8
BLACK
6
CONTINUOUS
10
176.436
20
-94.5768
11
176.373
21
-94.4596
0
LINE
8
BLACK
6
CONTINUOUS
10
176.373
20
-94.4596
11
176.362
21
-94.4223
0
LINE
8
BLACK
6
CONTINUOUS
10
176.362
20
-94.4223
11
175.542
21
-95.2422
0
LINE
8
BLACK
6
CONTINUOUS
10
175.542
20
-95.2422
11
175.539
21
-95.2461
0
LINE
8
BLACK
6
CONTINUOUS
10
175.539
20
-95.2461
11
175.524
21
-95.2585
0
LINE
8
BLACK
6
CONTINUOUS
10
175.524
20
-95.2585
11
175.506
21
-95.2678
0
LINE
8
BLACK
6
CONTINUOUS
10
175.506
20
-95.2678
11
175.488
21
-95.2736
0
LINE
8
BLACK
6
CONTINUOUS
10
175.488
20
-95.2736
11
175.473
21
-95.275
0
LINE
8
BLACK
6
CONTINUOUS
10
175.473
20
-95.275
11
175.473
21
-95.275
0
LINE
8
BLACK
6
CONTINUOUS
10
175.473
20
-95.275
11
175.468
21
-95.2755
0
LINE
8
BLACK
6
CONTINUOUS
10
175.468
20
-95.2755
11
175.463
21
-95.275
0
LINE
8
BLACK
6
CONTINUOUS
10
175.463
20
-95.275
11
171.732
21
-95.275
0
LINE
8
BLACK
6
CONTINUOUS
10
171.732
20
-95.275
11
171.24
21
-95.7672
0
LINE
8
BLACK
6
CONTINUOUS
10
171.24
20
-95.7672
11
171.237
21
-95.7711
0
LINE
8
BLACK
6
CONTINUOUS
10
171.237
20
-95.7711
11
171.222
21
-95.7836
0
LINE
8
BLACK
6
CONTINUOUS
10
171.222
20
-95.7836
11
171.204
21
-95.7928
0
LINE
8
BLACK
6
CONTINUOUS
10
171.204
20
-95.7928
11
171.185
21
-95.7986
0
LINE
8
BLACK
6
CONTINUOUS
10
171.185
20
-95.7986
11
171.171
21
-95.8
0
LINE
8
BLACK
6
CONTINUOUS
10
171.171
20
-95.8
11
171.171
21
-95.8
0
LINE
8
BLACK
6
CONTINUOUS
10
171.171
20
-95.8
11
171.166
21
-95.8005
0
LINE
8
BLACK
6
CONTINUOUS
10
171.166
20
-95.8005
11
171.161
21
-95.8
0
LINE
8
BLACK
6
CONTINUOUS
10
171.161
20
-95.8
11
158.141
21
-95.8
0
LINE
8
BLACK
6
CONTINUOUS
10
158.141
20
-95.8
11
157.677
21
-96.2646
0
LINE
8
BLACK
6
CONTINUOUS
10
157.677
20
-96.2646
11
157.685
21
-96.2833
0
LINE
8
BLACK
6
CONTINUOUS
10
157.685
20
-96.2833
11
157.7
21
-96.3606
0
LINE
8
BLACK
6
CONTINUOUS
10
157.7
20
-96.3606
11
157.7
21
-96.4394
0
LINE
8
BLACK
6
CONTINUOUS
10
157.7
20
-96.4394
11
157.685
21
-96.5167
0
LINE
8
BLACK
6
CONTINUOUS
10
157.685
20
-96.5167
11
157.654
21
-96.5895
0
LINE
8
BLACK
6
CONTINUOUS
10
157.654
20
-96.5895
11
157.611
21
-96.655
0
LINE
8
BLACK
6
CONTINUOUS
10
157.611
20
-96.655
11
157.555
21
-96.7107
0
LINE
8
BLACK
6
CONTINUOUS
10
157.555
20
-96.7107
11
157.489
21
-96.7545
0
LINE
8
BLACK
6
CONTINUOUS
10
157.489
20
-96.7545
11
157.417
21
-96.7846
0
LINE
8
BLACK
6
CONTINUOUS
10
157.417
20
-96.7846
11
157.339
21
-96.8
0
LINE
8
BLACK
6
CONTINUOUS
10
157.339
20
-96.8
11
157.261
21
-96.8
0
LINE
8
BLACK
6
CONTINUOUS
10
157.261
20
-96.8
11
157.183
21
-96.7846
0
LINE
8
BLACK
6
CONTINUOUS
10
157.183
20
-96.7846
11
157.111
21
-96.7545
0
LINE
8
BLACK
6
CONTINUOUS
10
157.111
20
-96.7545
11
157.045
21
-96.7107
0
LINE
8
BLACK
6
CONTINUOUS
10
157.045
20
-96.7107
11
156.989
21
-96.655
0
LINE
8
BLACK
6
CONTINUOUS
10
156.989
20
-96.655
11
156.946
21
-96.5895
0
LINE
8
BLACK
6
CONTINUOUS
10
156.946
20
-96.5895
11
156.915
21
-96.5167
0
LINE
8
BLACK
6
CONTINUOUS
10
156.915
20
-96.5167
11
156.9
21
-96.4394
0
LINE
8
BLACK
6
CONTINUOUS
10
156.9
20
-96.4394
11
156.9
21
-96.3606
0
LINE
8
BLACK
6
CONTINUOUS
10
156.9
20
-96.3606
11
156.915
21
-96.2833
0
LINE
8
BLACK
6
CONTINUOUS
10
156.915
20
-96.2833
11
156.946
21
-96.2105
0
LINE
8
BLACK
6
CONTINUOUS
10
156.946
20
-96.2105
11
156.989
21
-96.145
0
LINE
8
BLACK
6
CONTINUOUS
10
156.989
20
-96.145
11
157.045
21
-96.0893
0
LINE
8
BLACK
6
CONTINUOUS
10
157.045
20
-96.0893
11
157.111
21
-96.0455
0
LINE
8
BLACK
6
CONTINUOUS
10
157.111
20
-96.0455
11
157.183
21
-96.0154
0
LINE
8
BLACK
6
CONTINUOUS
10
157.183
20
-96.0154
11
157.261
21
-96
0
LINE
8
BLACK
6
CONTINUOUS
10
157.261
20
-96
11
157.339
21
-96
0
LINE
8
BLACK
6
CONTINUOUS
10
157.339
20
-96
11
157.417
21
-96.0154
0
LINE
8
BLACK
6
CONTINUOUS
10
157.417
20
-96.0154
11
157.489
21
-96.0455
0
LINE
8
BLACK
6
CONTINUOUS
10
157.489
20
-96.0455
11
157.555
21
-96.0893
0
LINE
8
BLACK
6
CONTINUOUS
10
157.555
20
-96.0893
11
157.562
21
-96.0964
0
LINE
8
BLACK
6
CONTINUOUS
10
157.562
20
-96.0964
11
158.026
21
-95.6328
0
LINE
8
BLACK
6
CONTINUOUS
10
158.026
20
-95.6328
11
158.029
21
-95.629
0
LINE
8
BLACK
6
CONTINUOUS
10
158.029
20
-95.629
11
158.033
21
-95.6258
0
LINE
8
BLACK
6
CONTINUOUS
10
158.033
20
-95.6258
11
158.033
21
-95.6258
0
LINE
8
BLACK
6
CONTINUOUS
10
158.033
20
-95.6258
11
158.036
21
-95.6229
0
LINE
8
BLACK
6
CONTINUOUS
10
158.036
20
-95.6229
11
158.044
21
-95.6165
0
LINE
8
BLACK
6
CONTINUOUS
10
158.044
20
-95.6165
11
158.062
21
-95.6072
0
LINE
8
BLACK
6
CONTINUOUS
10
158.062
20
-95.6072
11
158.08
21
-95.6015
0
LINE
8
BLACK
6
CONTINUOUS
10
158.08
20
-95.6015
11
158.095
21
-95.6
0
LINE
8
BLACK
6
CONTINUOUS
10
158.095
20
-95.6
11
158.095
21
-95.6
0
LINE
8
BLACK
6
CONTINUOUS
10
158.095
20
-95.6
11
158.1
21
-95.5995
0
LINE
8
BLACK
6
CONTINUOUS
10
158.1
20
-95.5995
11
158.105
21
-95.6
0
LINE
8
BLACK
6
CONTINUOUS
10
158.105
20
-95.6
11
171.124
21
-95.6
0
LINE
8
BLACK
6
CONTINUOUS
10
171.124
20
-95.6
11
171.617
21
-95.1078
0
LINE
8
BLACK
6
CONTINUOUS
10
171.617
20
-95.1078
11
171.62
21
-95.1039
0
LINE
8
BLACK
6
CONTINUOUS
10
171.62
20
-95.1039
11
171.635
21
-95.0915
0
LINE
8
BLACK
6
CONTINUOUS
10
171.635
20
-95.0915
11
171.652
21
-95.0822
0
LINE
8
BLACK
6
CONTINUOUS
10
171.652
20
-95.0822
11
171.665
21
-95.0782
0
LINE
8
BLACK
6
CONTINUOUS
10
171.665
20
-95.0782
11
171.671
21
-95.0764
0
LINE
8
BLACK
6
CONTINUOUS
10
171.671
20
-95.0764
11
171.673
21
-95.0763
0
LINE
8
BLACK
6
CONTINUOUS
10
171.673
20
-95.0763
11
171.686
21
-95.075
0
LINE
8
BLACK
6
CONTINUOUS
10
171.686
20
-95.075
11
171.686
21
-95.075
0
LINE
8
BLACK
6
CONTINUOUS
10
171.686
20
-95.075
11
171.691
21
-95.0745
0
LINE
8
BLACK
6
CONTINUOUS
10
171.691
20
-95.0745
11
171.696
21
-95.075
0
LINE
8
BLACK
6
CONTINUOUS
10
171.696
20
-95.075
11
175.427
21
-95.075
0
LINE
8
BLACK
6
CONTINUOUS
10
175.427
20
-95.075
11
176.324
21
-94.1776
0
LINE
8
BLACK
6
CONTINUOUS
10
176.324
20
-94.1776
11
176.335
21
-94.0677
0
LINE
8
BLACK
6
CONTINUOUS
10
176.335
20
-94.0677
11
176.373
21
-93.9404
0
LINE
8
BLACK
6
CONTINUOUS
10
176.373
20
-93.9404
11
176.436
21
-93.8232
0
LINE
8
BLACK
6
CONTINUOUS
10
176.436
20
-93.8232
11
176.52
21
-93.7204
0
LINE
8
BLACK
6
CONTINUOUS
10
176.52
20
-93.7204
11
176.623
21
-93.636
0
LINE
8
BLACK
6
CONTINUOUS
10
176.623
20
-93.636
11
176.74
21
-93.5734
0
LINE
8
BLACK
6
CONTINUOUS
10
176.74
20
-93.5734
11
176.868
21
-93.5348
0
LINE
8
BLACK
6
CONTINUOUS
10
176.868
20
-93.5348
11
176.967
21
-93.525
0
LINE
8
BLACK
6
CONTINUOUS
10
176.967
20
-93.525
11
177.033
21
-93.525
0
LINE
8
BLACK
6
CONTINUOUS
10
177.033
20
-93.525
11
177.132
21
-93.5348
0
LINE
8
BLACK
6
CONTINUOUS
10
175.132
20
-93.5348
11
175.26
21
-93.5734
0
LINE
8
BLACK
6
CONTINUOUS
10
175.26
20
-93.5734
11
175.377
21
-93.636
0
LINE
8
BLACK
6
CONTINUOUS
10
175.377
20
-93.636
11
175.48
21
-93.7204
0
LINE
8
BLACK
6
CONTINUOUS
10
175.48
20
-93.7204
11
175.564
21
-93.8232
0
LINE
8
BLACK
6
CONTINUOUS
10
175.564
20
-93.8232
11
175.627
21
-93.9404
0
LINE
8
BLACK
6
CONTINUOUS
10
175.627
20
-93.9404
11
175.665
21
-94.0677
0
LINE
8
BLACK
6
CONTINUOUS
10
175.665
20
-94.0677
11
175.678
21
-94.2
0
LINE
8
BLACK
6
CONTINUOUS
10
175.678
20
-94.2
11
175.665
21
-94.3323
0
LINE
8
BLACK
6
CONTINUOUS
10
175.665
20
-94.3323
11
175.627
21
-94.4596
0
LINE
8
BLACK
6
CONTINUOUS
10
175.627
20
-94.4596
11
175.564
21
-94.5768
0
LINE
8
BLACK
6
CONTINUOUS
10
175.564
20
-94.5768
11
175.48
21
-94.6796
0
LINE
8
BLACK
6
CONTINUOUS
10
175.48
20
-94.6796
11
175.377
21
-94.764
0
LINE
8
BLACK
6
CONTINUOUS
10
175.377
20
-94.764
11
175.26
21
-94.8266
0
LINE
8
BLACK
6
CONTINUOUS
10
175.26
20
-94.8266
11
175.132
21
-94.8652
0
LINE
8
BLACK
6
CONTINUOUS
10
175.132
20
-94.8652
11
175.033
21
-94.875
0
LINE
8
BLACK
6
CONTINUOUS
10
175.033
20
-94.875
11
174.967
21
-94.875
0
LINE
8
BLACK
6
CONTINUOUS
10
174.967
20
-94.875
11
174.868
21
-94.8652
0
LINE
8
BLACK
6
CONTINUOUS
10
174.868
20
-94.8652
11
174.74
21
-94.8266
0
LINE
8
BLACK
6
CONTINUOUS
10
174.74
20
-94.8266
11
174.623
21
-94.764
0
LINE
8
BLACK
6
CONTINUOUS
10
174.623
20
-94.764
11
174.52
21
-94.6796
0
LINE
8
BLACK
6
CONTINUOUS
10
174.52
20
-94.6796
11
174.436
21
-94.5768
0
LINE
8
BLACK
6
CONTINUOUS
10
174.436
20
-94.5768
11
174.373
21
-94.4596
0
LINE
8
BLACK
6
CONTINUOUS
10
174.373
20
-94.4596
11
174.335
21
-94.3323
0
LINE
8
BLACK
6
CONTINUOUS
10
174.335
20
-94.3323
11
174.332
21
-94.3
0
LINE
8
BLACK
6
CONTINUOUS
10
174.332
20
-94.3
11
172.141
21
-94.3
0
LINE
8
BLACK
6
CONTINUOUS
10
172.141
20
-94.3
11
171.074
21
-95.3672
0
LINE
8
BLACK
6
CONTINUOUS
10
171.074
20
-95.3672
11
171.071
21
-95.3711
0
LINE
8
BLACK
6
CONTINUOUS
10
171.071
20
-95.3711
11
171.056
21
-95.3835
0
LINE
8
BLACK
6
CONTINUOUS
10
171.056
20
-95.3835
11
171.038
21
-95.3928
0
LINE
8
BLACK
6
CONTINUOUS
10
171.038
20
-95.3928
11
171.02
21
-95.3986
0
LINE
8
BLACK
6
CONTINUOUS
10
171.02
20
-95.3986
11
171.005
21
-95.4
0
LINE
8
BLACK
6
CONTINUOUS
10
171.005
20
-95.4
11
171.005
21
-95.4
0
LINE
8
BLACK
6
CONTINUOUS
10
171.005
20
-95.4
11
171
21
-95.4005
0
LINE
8
BLACK
6
CONTINUOUS
10
171
20
-95.4005
11
170.995
21
-95.4
0
LINE
8
BLACK
6
CONTINUOUS
10
170.995
20
-95.4
11
157.388
21
-95.4
0
LINE
8
BLACK
6
CONTINUOUS
10
157.388
20
-95.4
11
157.385
21
-95.4167
0
LINE
8
BLACK
6
CONTINUOUS
10
157.385
20
-95.4167
11
157.354
21
-95.4895
0
LINE
8
BLACK
6
CONTINUOUS
10
157.354
20
-95.4895
11
157.311
21
-95.555
0
LINE
8
BLACK
6
CONTINUOUS
10
157.311
20
-95.555
11
157.255
21
-95.6107
0
LINE
8
BLACK
6
CONTINUOUS
10
157.255
20
-95.6107
11
157.189
21
-95.6545
0
LINE
8
BLACK
6
CONTINUOUS
10
157.189
20
-95.6545
11
157.117
21
-95.6846
0
LINE
8
BLACK
6
CONTINUOUS
10
157.117
20
-95.6846
11
157.039
21
-95.7
0
LINE
8
BLACK
6
CONTINUOUS
10
157.039
20
-95.7
11
156.961
21
-95.7
0
LINE
8
BLACK
6
CONTINUOUS
10
156.961
20
-95.7
11
156.883
21
-95.6846
0
LINE
8
BLACK
6
CONTINUOUS
10
156.883
20
-95.6846
11
156.811
21
-95.6545
0
LINE
8
BLACK
6
CONTINUOUS
10
156.811
20
-95.6545
11
156.745
21
-95.6107
0
LINE
8
BLACK
6
CONTINUOUS
10
156.745
20
-95.6107
11
156.689
21
-95.555
0
LINE
8
BLACK
6
CONTINUOUS
10
156.689
20
-95.555
11
156.646
21
-95.4895
0
LINE
8
BLACK
6
CONTINUOUS
10
156.646
20
-95.4895
11
156.615
21
-95.4167
0
LINE
8
BLACK
6
CONTINUOUS
10
156.615
20
-95.4167
11
156.6
21
-95.3394
0
LINE
8
BLACK
6
CONTINUOUS
10
156.6
20
-95.3394
11
156.6
21
-95.2606
0
LINE
8
BLACK
6
CONTINUOUS
10
156.6
20
-95.2606
11
156.615
21
-95.1833
0
LINE
8
BLACK
6
CONTINUOUS
10
156.615
20
-95.1833
11
156.646
21
-95.1105
0
LINE
8
BLACK
6
CONTINUOUS
10
156.646
20
-95.1105
11
156.689
21
-95.045
0
LINE
8
BLACK
6
CONTINUOUS
10
156.689
20
-95.045
11
156.745
21
-94.9893
0
LINE
8
BLACK
6
CONTINUOUS
10
156.745
20
-94.9893
11
156.811
21
-94.9455
0
LINE
8
BLACK
6
CONTINUOUS
10
156.811
20
-94.9455
11
156.883
21
-94.9154
0
LINE
8
BLACK
6
CONTINUOUS
10
156.883
20
-94.9154
11
156.961
21
-94.9
0
LINE
8
BLACK
6
CONTINUOUS
10
156.961
20
-94.9
11
157.039
21
-94.9
0
LINE
8
BLACK
6
CONTINUOUS
10
157.039
20
-94.9
11
157.117
21
-94.9154
0
LINE
8
BLACK
6
CONTINUOUS
10
157.117
20
-94.9154
11
157.189
21
-94.9455
0
LINE
8
BLACK
6
CONTINUOUS
10
157.189
20
-94.9455
11
157.255
21
-94.9893
0
LINE
8
BLACK
6
CONTINUOUS
10
157.255
20
-94.9893
11
157.311
21
-95.045
0
LINE
8
BLACK
6
CONTINUOUS
10
157.311
20
-95.045
11
157.354
21
-95.1105
0
LINE
8
BLACK
6
CONTINUOUS
10
157.354
20
-95.1105
11
157.385
21
-95.1833
0
LINE
8
BLACK
6
CONTINUOUS
10
157.385
20
-95.1833
11
157.388
21
-95.2
0
LINE
8
BLACK
6
CONTINUOUS
10
157.388
20
-95.2
11
170.959
21
-95.2
0
LINE
8
BLACK
6
CONTINUOUS
10
170.959
20
-95.2
11
172.026
21
-94.1328
0
LINE
8
BLACK
6
CONTINUOUS
10
172.026
20
-94.1328
11
172.029
21
-94.1289
0
LINE
8
BLACK
6
CONTINUOUS
10
172.029
20
-94.1289
11
172.044
21
-94.1165
0
LINE
8
BLACK
6
CONTINUOUS
10
172.044
20
-94.1165
11
172.062
21
-94.1072
0
LINE
8
BLACK
6
CONTINUOUS
10
172.062
20
-94.1072
11
172.075
21
-94.1032
0
LINE
8
BLACK
6
CONTINUOUS
10
172.075
20
-94.1032
11
172.08
21
-94.1014
0
LINE
8
BLACK
6
CONTINUOUS
10
172.08
20
-94.1014
11
172.082
21
-94.1013
0
LINE
8
BLACK
6
CONTINUOUS
10
172.082
20
-94.1013
11
172.095
21
-94.1
0
LINE
8
BLACK
6
CONTINUOUS
10
172.095
20
-94.1
11
172.095
21
-94.1
0
LINE
8
BLACK
6
CONTINUOUS
10
172.095
20
-94.1
11
172.1
21
-94.0995
0
LINE
8
BLACK
6
CONTINUOUS
10
172.1
20
-94.0995
11
172.105
21
-94.1
0
LINE
8
BLACK
6
CONTINUOUS
10
172.105
20
-94.1
11
174.332
21
-94.1
0
LINE
8
BLACK
6
CONTINUOUS
10
174.332
20
-94.1
11
174.335
21
-94.0677
0
LINE
8
BLACK
6
CONTINUOUS
10
174.335
20
-94.0677
11
174.373
21
-93.9404
0
LINE
8
BLACK
6
CONTINUOUS
10
174.373
20
-93.9404
11
174.436
21
-93.8232
0
LINE
8
BLACK
6
CONTINUOUS
10
174.436
20
-93.8232
11
174.52
21
-93.7204
0
LINE
8
BLACK
6
CONTINUOUS
10
174.52
20
-93.7204
11
174.623
21
-93.636
0
LINE
8
BLACK
6
CONTINUOUS
10
174.623
20
-93.636
11
174.74
21
-93.5734
0
LINE
8
BLACK
6
CONTINUOUS
10
174.74
20
-93.5734
11
174.868
21
-93.5348
0
LINE
8
BLACK
6
CONTINUOUS
10
174.868
20
-93.5348
11
174.967
21
-93.525
0
LINE
8
BLACK
6
CONTINUOUS
10
174.967
20
-93.525
11
175.033
21
-93.525
0
LINE
8
BLACK
6
CONTINUOUS
10
175.033
20
-93.525
11
175.132
21
-93.5348
0
LINE
8
BLACK
6
CONTINUOUS
10
175.98
20
-91.075
11
175.98
21
-91.075
0
LINE
8
BLACK
6
CONTINUOUS
10
175.98
20
-91.075
11
175.995
21
-91.0764
0
LINE
8
BLACK
6
CONTINUOUS
10
175.995
20
-91.0764
11
176.013
21
-91.0822
0
LINE
8
BLACK
6
CONTINUOUS
10
176.013
20
-91.0822
11
176.031
21
-91.0915
0
LINE
8
BLACK
6
CONTINUOUS
10
176.031
20
-91.0915
11
176.046
21
-91.1039
0
LINE
8
BLACK
6
CONTINUOUS
10
176.046
20
-91.1039
11
176.049
21
-91.1078
0
LINE
8
BLACK
6
CONTINUOUS
10
176.049
20
-91.1078
11
176.598
21
-91.6566
0
LINE
8
BLACK
6
CONTINUOUS
10
176.598
20
-91.6566
11
176.623
21
-91.636
0
LINE
8
BLACK
6
CONTINUOUS
10
176.623
20
-91.636
11
176.74
21
-91.5734
0
LINE
8
BLACK
6
CONTINUOUS
10
176.74
20
-91.5734
11
176.868
21
-91.5348
0
LINE
8
BLACK
6
CONTINUOUS
10
176.868
20
-91.5348
11
176.967
21
-91.525
0
LINE
8
BLACK
6
CONTINUOUS
10
176.967
20
-91.525
11
177.033
21
-91.525
0
LINE
8
BLACK
6
CONTINUOUS
10
177.033
20
-91.525
11
177.132
21
-91.5348
0
LINE
8
BLACK
6
CONTINUOUS
10
177.132
20
-91.5348
11
177.26
21
-91.5734
0
LINE
8
BLACK
6
CONTINUOUS
10
177.26
20
-91.5734
11
177.377
21
-91.636
0
LINE
8
BLACK
6
CONTINUOUS
10
177.377
20
-91.636
11
177.48
21
-91.7204
0
LINE
8
BLACK
6
CONTINUOUS
10
177.48
20
-91.7204
11
177.564
21
-91.8232
0
LINE
8
BLACK
6
CONTINUOUS
10
177.564
20
-91.8232
11
177.627
21
-91.9404
0
LINE
8
BLACK
6
CONTINUOUS
10
177.627
20
-91.9404
11
177.665
21
-92.0677
0
LINE
8
BLACK
6
CONTINUOUS
10
177.665
20
-92.0677
11
177.678
21
-92.2
0
LINE
8
BLACK
6
CONTINUOUS
10
177.678
20
-92.2
11
177.665
21
-92.3323
0
LINE
8
BLACK
6
CONTINUOUS
10
177.665
20
-92.3323
11
177.627
21
-92.4596
0
LINE
8
BLACK
6
CONTINUOUS
10
177.627
20
-92.4596
11
177.564
21
-92.5768
0
LINE
8
BLACK
6
CONTINUOUS
10
177.564
20
-92.5768
11
177.48
21
-92.6796
0
LINE
8
BLACK
6
CONTINUOUS
10
177.48
20
-92.6796
11
177.377
21
-92.764
0
LINE
8
BLACK
6
CONTINUOUS
10
177.377
20
-92.764
11
177.26
21
-92.8266
0
LINE
8
BLACK
6
CONTINUOUS
10
177.26
20
-92.8266
11
177.132
21
-92.8652
0
LINE
8
BLACK
6
CONTINUOUS
10
177.132
20
-92.8652
11
177.033
21
-92.875
0
LINE
8
BLACK
6
CONTINUOUS
10
177.033
20
-92.875
11
176.967
21
-92.875
0
LINE
8
BLACK
6
CONTINUOUS
10
176.967
20
-92.875
11
176.868
21
-92.8652
0
LINE
8
BLACK
6
CONTINUOUS
10
176.868
20
-92.8652
11
176.74
21
-92.8266
0
LINE
8
BLACK
6
CONTINUOUS
10
176.74
20
-92.8266
11
176.623
21
-92.764
0
LINE
8
BLACK
6
CONTINUOUS
10
176.623
20
-92.764
11
176.52
21
-92.6796
0
LINE
8
BLACK
6
CONTINUOUS
10
176.52
20
-92.6796
11
176.436
21
-92.5768
0
LINE
8
BLACK
6
CONTINUOUS
10
176.436
20
-92.5768
11
176.373
21
-92.4596
0
LINE
8
BLACK
6
CONTINUOUS
10
176.373
20
-92.4596
11
176.335
21
-92.3323
0
LINE
8
BLACK
6
CONTINUOUS
10
176.335
20
-92.3323
11
176.322
21
-92.2
0
LINE
8
BLACK
6
CONTINUOUS
10
176.322
20
-92.2
11
176.335
21
-92.0677
0
LINE
8
BLACK
6
CONTINUOUS
10
176.335
20
-92.0677
11
176.373
21
-91.9404
0
LINE
8
BLACK
6
CONTINUOUS
10
176.373
20
-91.9404
11
176.436
21
-91.8232
0
LINE
8
BLACK
6
CONTINUOUS
10
176.436
20
-91.8232
11
176.457
21
-91.7981
0
LINE
8
BLACK
6
CONTINUOUS
10
176.457
20
-91.7981
11
175.934
21
-91.275
0
LINE
8
BLACK
6
CONTINUOUS
10
175.934
20
-91.275
11
174.016
21
-91.275
0
LINE
8
BLACK
6
CONTINUOUS
10
174.016
20
-91.275
11
172.674
21
-92.6172
0
LINE
8
BLACK
6
CONTINUOUS
10
172.674
20
-92.6172
11
172.671
21
-92.6211
0
LINE
8
BLACK
6
CONTINUOUS
10
172.671
20
-92.6211
11
172.656
21
-92.6336
0
LINE
8
BLACK
6
CONTINUOUS
10
172.656
20
-92.6336
11
172.638
21
-92.6428
0
LINE
8
BLACK
6
CONTINUOUS
10
172.638
20
-92.6428
11
172.62
21
-92.6486
0
LINE
8
BLACK
6
CONTINUOUS
10
172.62
20
-92.6486
11
172.605
21
-92.65
0
LINE
8
BLACK
6
CONTINUOUS
10
172.605
20
-92.65
11
172.605
21
-92.65
0
LINE
8
BLACK
6
CONTINUOUS
10
172.605
20
-92.65
11
172.6
21
-92.6505
0
LINE
8
BLACK
6
CONTINUOUS
10
172.6
20
-92.6505
11
172.595
21
-92.65
0
LINE
8
BLACK
6
CONTINUOUS
10
172.595
20
-92.65
11
169.491
21
-92.65
0
LINE
8
BLACK
6
CONTINUOUS
10
169.491
20
-92.65
11
167.581
21
-94.5607
0
LINE
8
BLACK
6
CONTINUOUS
10
167.581
20
-94.5607
11
167.578
21
-94.5646
0
LINE
8
BLACK
6
CONTINUOUS
10
167.578
20
-94.5646
11
167.562
21
-94.577
0
LINE
8
BLACK
6
CONTINUOUS
10
167.562
20
-94.577
11
167.545
21
-94.5863
0
LINE
8
BLACK
6
CONTINUOUS
10
167.545
20
-94.5863
11
167.526
21
-94.5921
0
LINE
8
BLACK
6
CONTINUOUS
10
167.526
20
-94.5921
11
167.511
21
-94.5935
0
LINE
8
BLACK
6
CONTINUOUS
10
167.511
20
-94.5935
11
167.511
21
-94.5935
0
LINE
8
BLACK
6
CONTINUOUS
10
167.511
20
-94.5935
11
167.506
21
-94.594
0
LINE
8
BLACK
6
CONTINUOUS
10
167.506
20
-94.594
11
167.502
21
-94.5935
0
LINE
8
BLACK
6
CONTINUOUS
10
167.502
20
-94.5935
11
155.294
21
-94.5935
0
LINE
8
BLACK
6
CONTINUOUS
10
155.294
20
-94.5935
11
155.291
21
-94.6102
0
LINE
8
BLACK
6
CONTINUOUS
10
155.291
20
-94.6102
11
155.261
21
-94.683
0
LINE
8
BLACK
6
CONTINUOUS
10
155.261
20
-94.683
11
155.217
21
-94.7485
0
LINE
8
BLACK
6
CONTINUOUS
10
155.217
20
-94.7485
11
155.161
21
-94.8042
0
LINE
8
BLACK
6
CONTINUOUS
10
155.161
20
-94.8042
11
155.096
21
-94.848
0
LINE
8
BLACK
6
CONTINUOUS
10
155.096
20
-94.848
11
155.023
21
-94.8781
0
LINE
8
BLACK
6
CONTINUOUS
10
155.023
20
-94.8781
11
154.946
21
-94.8935
0
LINE
8
BLACK
6
CONTINUOUS
10
154.946
20
-94.8935
11
154.867
21
-94.8935
0
LINE
8
BLACK
6
CONTINUOUS
10
154.867
20
-94.8935
11
154.79
21
-94.8781
0
LINE
8
BLACK
6
CONTINUOUS
10
154.79
20
-94.8781
11
154.717
21
-94.848
0
LINE
8
BLACK
6
CONTINUOUS
10
154.717
20
-94.848
11
154.652
21
-94.8042
0
LINE
8
BLACK
6
CONTINUOUS
10
154.652
20
-94.8042
11
154.596
21
-94.7485
0
LINE
8
BLACK
6
CONTINUOUS
10
154.596
20
-94.7485
11
154.552
21
-94.683
0
LINE
8
BLACK
6
CONTINUOUS
10
154.552
20
-94.683
11
154.522
21
-94.6102
0
LINE
8
BLACK
6
CONTINUOUS
10
154.522
20
-94.6102
11
154.506
21
-94.5329
0
LINE
8
BLACK
6
CONTINUOUS
10
154.506
20
-94.5329
11
154.506
21
-94.4541
0
LINE
8
BLACK
6
CONTINUOUS
10
154.506
20
-94.4541
11
154.522
21
-94.3768
0
LINE
8
BLACK
6
CONTINUOUS
10
154.522
20
-94.3768
11
154.552
21
-94.304
0
LINE
8
BLACK
6
CONTINUOUS
10
154.552
20
-94.304
11
154.596
21
-94.2385
0
LINE
8
BLACK
6
CONTINUOUS
10
154.596
20
-94.2385
11
154.652
21
-94.1828
0
LINE
8
BLACK
6
CONTINUOUS
10
154.652
20
-94.1828
11
154.717
21
-94.139
0
LINE
8
BLACK
6
CONTINUOUS
10
154.717
20
-94.139
11
154.79
21
-94.1089
0
LINE
8
BLACK
6
CONTINUOUS
10
154.79
20
-94.1089
11
154.867
21
-94.0935
0
LINE
8
BLACK
6
CONTINUOUS
10
154.867
20
-94.0935
11
154.946
21
-94.0935
0
LINE
8
BLACK
6
CONTINUOUS
10
154.946
20
-94.0935
11
155.023
21
-94.1089
0
LINE
8
BLACK
6
CONTINUOUS
10
155.023
20
-94.1089
11
155.096
21
-94.139
0
LINE
8
BLACK
6
CONTINUOUS
10
155.096
20
-94.139
11
155.161
21
-94.1828
0
LINE
8
BLACK
6
CONTINUOUS
10
155.161
20
-94.1828
11
155.217
21
-94.2385
0
LINE
8
BLACK
6
CONTINUOUS
10
155.217
20
-94.2385
11
155.261
21
-94.304
0
LINE
8
BLACK
6
CONTINUOUS
10
155.261
20
-94.304
11
155.291
21
-94.3768
0
LINE
8
BLACK
6
CONTINUOUS
10
155.291
20
-94.3768
11
155.294
21
-94.3935
0
LINE
8
BLACK
6
CONTINUOUS
10
155.294
20
-94.3935
11
167.465
21
-94.3935
0
LINE
8
BLACK
6
CONTINUOUS
10
167.465
20
-94.3935
11
169.376
21
-92.4828
0
LINE
8
BLACK
6
CONTINUOUS
10
169.376
20
-92.4828
11
169.379
21
-92.479
0
LINE
8
BLACK
6
CONTINUOUS
10
169.379
20
-92.479
11
169.394
21
-92.4665
0
LINE
8
BLACK
6
CONTINUOUS
10
169.394
20
-92.4665
11
169.412
21
-92.4572
0
LINE
8
BLACK
6
CONTINUOUS
10
169.412
20
-92.4572
11
169.422
21
-92.4541
0
LINE
8
BLACK
6
CONTINUOUS
10
169.422
20
-92.4541
11
169.43
21
-92.4515
0
LINE
8
BLACK
6
CONTINUOUS
10
169.43
20
-92.4515
11
169.434
21
-92.4511
0
LINE
8
BLACK
6
CONTINUOUS
10
169.434
20
-92.4511
11
169.445
21
-92.45
0
LINE
8
BLACK
6
CONTINUOUS
10
169.445
20
-92.45
11
169.445
21
-92.45
0
LINE
8
BLACK
6
CONTINUOUS
10
169.445
20
-92.45
11
169.45
21
-92.4495
0
LINE
8
BLACK
6
CONTINUOUS
10
169.45
20
-92.4495
11
169.455
21
-92.45
0
LINE
8
BLACK
6
CONTINUOUS
10
169.455
20
-92.45
11
172.559
21
-92.45
0
LINE
8
BLACK
6
CONTINUOUS
10
172.559
20
-92.45
11
173.901
21
-91.1078
0
LINE
8
BLACK
6
CONTINUOUS
10
173.901
20
-91.1078
11
173.904
21
-91.1039
0
LINE
8
BLACK
6
CONTINUOUS
10
173.904
20
-91.1039
11
173.919
21
-91.0915
0
LINE
8
BLACK
6
CONTINUOUS
10
173.919
20
-91.0915
11
173.937
21
-91.0822
0
LINE
8
BLACK
6
CONTINUOUS
10
173.937
20
-91.0822
11
173.947
21
-91.0791
0
LINE
8
BLACK
6
CONTINUOUS
10
173.947
20
-91.0791
11
173.955
21
-91.0764
0
LINE
8
BLACK
6
CONTINUOUS
10
173.955
20
-91.0764
11
173.959
21
-91.0761
0
LINE
8
BLACK
6
CONTINUOUS
10
173.959
20
-91.0761
11
173.97
21
-91.075
0
LINE
8
BLACK
6
CONTINUOUS
10
173.97
20
-91.075
11
173.97
21
-91.075
0
LINE
8
BLACK
6
CONTINUOUS
10
173.97
20
-91.075
11
173.975
21
-91.0745
0
LINE
8
BLACK
6
CONTINUOUS
10
173.975
20
-91.0745
11
173.98
21
-91.075
0
LINE
8
BLACK
6
CONTINUOUS
10
173.98
20
-91.075
11
175.97
21
-91.075
0
LINE
8
BLACK
6
CONTINUOUS
10
175.97
20
-91.075
11
175.975
21
-91.0745
0
LINE
8
BLACK
6
CONTINUOUS
10
175.975
20
-91.0745
11
175.98
21
-91.075
0
LINE
8
BLACK
6
CONTINUOUS
10
175.675
20
-90.875
11
174.325
21
-90.875
0
LINE
8
BLACK
6
CONTINUOUS
10
174.325
20
-90.875
11
174.325
21
-90.45
0
LINE
8
BLACK
6
CONTINUOUS
10
174.325
20
-90.45
11
173.204
21
-90.45
0
LINE
8
BLACK
6
CONTINUOUS
10
173.204
20
-90.45
11
171.485
21
-92.1681
0
LINE
8
BLACK
6
CONTINUOUS
10
171.485
20
-92.1681
11
171.478
21
-92.1776
0
LINE
8
BLACK
6
CONTINUOUS
10
171.478
20
-92.1776
11
171.44
21
-92.2089
0
LINE
8
BLACK
6
CONTINUOUS
10
171.44
20
-92.2089
11
171.396
21
-92.2321
0
LINE
8
BLACK
6
CONTINUOUS
10
171.396
20
-92.2321
11
171.349
21
-92.2464
0
LINE
8
BLACK
6
CONTINUOUS
10
171.349
20
-92.2464
11
171.3
21
-92.2512
0
LINE
8
BLACK
6
CONTINUOUS
10
171.3
20
-92.2512
11
171.288
21
-92.25
0
LINE
8
BLACK
6
CONTINUOUS
10
171.288
20
-92.25
11
168.69
21
-92.25
0
LINE
8
BLACK
6
CONTINUOUS
10
168.69
20
-92.25
11
168.678
21
-92.2512
0
LINE
8
BLACK
6
CONTINUOUS
10
168.678
20
-92.2512
11
168.629
21
-92.2464
0
LINE
8
BLACK
6
CONTINUOUS
10
168.629
20
-92.2464
11
168.581
21
-92.2321
0
LINE
8
BLACK
6
CONTINUOUS
10
168.581
20
-92.2321
11
168.538
21
-92.2089
0
LINE
8
BLACK
6
CONTINUOUS
10
168.538
20
-92.2089
11
168.5
21
-92.1776
0
LINE
8
BLACK
6
CONTINUOUS
10
168.5
20
-92.1776
11
168.492
21
-92.1681
0
LINE
8
BLACK
6
CONTINUOUS
10
168.492
20
-92.1681
11
168.263
21
-91.9386
0
LINE
8
BLACK
6
CONTINUOUS
10
168.263
20
-91.9386
11
166.535
21
-91.9386
0
LINE
8
BLACK
6
CONTINUOUS
10
166.535
20
-91.9386
11
165.742
21
-92.7319
0
LINE
8
BLACK
6
CONTINUOUS
10
165.742
20
-92.7319
11
165.734
21
-92.7415
0
LINE
8
BLACK
6
CONTINUOUS
10
165.734
20
-92.7415
11
165.696
21
-92.7727
0
LINE
8
BLACK
6
CONTINUOUS
10
165.696
20
-92.7727
11
165.652
21
-92.7959
0
LINE
8
BLACK
6
CONTINUOUS
10
165.652
20
-92.7959
11
165.637
21
-92.8006
0
LINE
8
BLACK
6
CONTINUOUS
10
165.637
20
-92.8006
11
165.605
21
-92.8102
0
LINE
8
BLACK
6
CONTINUOUS
10
165.605
20
-92.8102
11
165.556
21
-92.8151
0
LINE
8
BLACK
6
CONTINUOUS
10
165.556
20
-92.8151
11
165.544
21
-92.8139
0
LINE
8
BLACK
6
CONTINUOUS
10
165.544
20
-92.8139
11
164.345
21
-92.8139
0
LINE
8
BLACK
6
CONTINUOUS
10
164.345
20
-92.8139
11
164.345
21
-92.8954
0
LINE
8
BLACK
6
CONTINUOUS
10
164.345
20
-92.8954
11
164.414
21
-92.9239
0
LINE
8
BLACK
6
CONTINUOUS
10
164.414
20
-92.9239
11
164.524
21
-92.9976
0
LINE
8
BLACK
6
CONTINUOUS
10
164.524
20
-92.9976
11
164.618
21
-93.0913
0
LINE
8
BLACK
6
CONTINUOUS
10
164.618
20
-93.0913
11
164.692
21
-93.2016
0
LINE
8
BLACK
6
CONTINUOUS
10
164.692
20
-93.2016
11
164.743
21
-93.3241
0
LINE
8
BLACK
6
CONTINUOUS
10
164.743
20
-93.3241
11
164.768
21
-93.4541
0
LINE
8
BLACK
6
CONTINUOUS
10
164.768
20
-93.4541
11
164.768
21
-93.5867
0
LINE
8
BLACK
6
CONTINUOUS
10
164.768
20
-93.5867
11
164.743
21
-93.7167
0
LINE
8
BLACK
6
CONTINUOUS
10
164.743
20
-93.7167
11
164.692
21
-93.8392
0
LINE
8
BLACK
6
CONTINUOUS
10
164.692
20
-93.8392
11
164.618
21
-93.9495
0
LINE
8
BLACK
6
CONTINUOUS
10
164.618
20
-93.9495
11
164.524
21
-94.0432
0
LINE
8
BLACK
6
CONTINUOUS
10
164.524
20
-94.0432
11
164.414
21
-94.1169
0
LINE
8
BLACK
6
CONTINUOUS
10
164.414
20
-94.1169
11
164.292
21
-94.1676
0
LINE
8
BLACK
6
CONTINUOUS
10
164.292
20
-94.1676
11
164.162
21
-94.1935
0
LINE
8
BLACK
6
CONTINUOUS
10
164.162
20
-94.1935
11
164.029
21
-94.1935
0
LINE
8
BLACK
6
CONTINUOUS
10
164.029
20
-94.1935
11
163.899
21
-94.1676
0
LINE
8
BLACK
6
CONTINUOUS
10
163.899
20
-94.1676
11
163.777
21
-94.1169
0
LINE
8
BLACK
6
CONTINUOUS
10
163.777
20
-94.1169
11
163.666
21
-94.0432
0
LINE
8
BLACK
6
CONTINUOUS
10
163.666
20
-94.0432
11
163.573
21
-93.9495
0
LINE
8
BLACK
6
CONTINUOUS
10
163.573
20
-93.9495
11
163.499
21
-93.8392
0
LINE
8
BLACK
6
CONTINUOUS
10
163.499
20
-93.8392
11
163.448
21
-93.7167
0
LINE
8
BLACK
6
CONTINUOUS
10
163.448
20
-93.7167
11
163.422
21
-93.5867
0
LINE
8
BLACK
6
CONTINUOUS
10
163.422
20
-93.5867
11
163.422
21
-93.4541
0
LINE
8
BLACK
6
CONTINUOUS
10
163.422
20
-93.4541
11
163.448
21
-93.3241
0
LINE
8
BLACK
6
CONTINUOUS
10
163.448
20
-93.3241
11
163.499
21
-93.2016
0
LINE
8
BLACK
6
CONTINUOUS
10
163.499
20
-93.2016
11
163.573
21
-93.0913
0
LINE
8
BLACK
6
CONTINUOUS
10
163.573
20
-93.0913
11
163.666
21
-92.9976
0
LINE
8
BLACK
6
CONTINUOUS
10
163.666
20
-92.9976
11
163.777
21
-92.9239
0
LINE
8
BLACK
6
CONTINUOUS
10
163.777
20
-92.9239
11
163.845
21
-92.8954
0
LINE
8
BLACK
6
CONTINUOUS
10
163.845
20
-92.8954
11
163.845
21
-92.5808
0
LINE
8
BLACK
6
CONTINUOUS
10
163.845
20
-92.5808
11
163.844
21
-92.5685
0
LINE
8
BLACK
6
CONTINUOUS
10
163.844
20
-92.5685
11
163.849
21
-92.5195
0
LINE
8
BLACK
6
CONTINUOUS
10
163.849
20
-92.5195
11
163.863
21
-92.4724
0
LINE
8
BLACK
6
CONTINUOUS
10
163.863
20
-92.4724
11
163.886
21
-92.4289
0
LINE
8
BLACK
6
CONTINUOUS
10
163.886
20
-92.4289
11
163.89
21
-92.4243
0
LINE
8
BLACK
6
CONTINUOUS
10
163.89
20
-92.4243
11
163.918
21
-92.3909
0
LINE
8
BLACK
6
CONTINUOUS
10
163.918
20
-92.3909
11
163.92
21
-92.3888
0
LINE
8
BLACK
6
CONTINUOUS
10
163.92
20
-92.3888
11
163.922
21
-92.3862
0
LINE
8
BLACK
6
CONTINUOUS
10
163.922
20
-92.3862
11
163.96
21
-92.355
0
LINE
8
BLACK
6
CONTINUOUS
10
163.96
20
-92.355
11
164.004
21
-92.3318
0
LINE
8
BLACK
6
CONTINUOUS
10
164.004
20
-92.3318
11
164.051
21
-92.3175
0
LINE
8
BLACK
6
CONTINUOUS
10
164.051
20
-92.3175
11
164.088
21
-92.3139
0
LINE
8
BLACK
6
CONTINUOUS
10
164.088
20
-92.3139
11
164.1
21
-92.3126
0
LINE
8
BLACK
6
CONTINUOUS
10
164.1
20
-92.3126
11
164.112
21
-92.3139
0
LINE
8
BLACK
6
CONTINUOUS
10
164.112
20
-92.3139
11
165.453
21
-92.3139
0
LINE
8
BLACK
6
CONTINUOUS
10
165.453
20
-92.3139
11
166.246
21
-91.5205
0
LINE
8
BLACK
6
CONTINUOUS
10
166.246
20
-91.5205
11
166.254
21
-91.511
0
LINE
8
BLACK
6
CONTINUOUS
10
166.254
20
-91.511
11
166.292
21
-91.4798
0
LINE
8
BLACK
6
CONTINUOUS
10
166.292
20
-91.4798
11
166.335
21
-91.4566
0
LINE
8
BLACK
6
CONTINUOUS
10
166.335
20
-91.4566
11
166.374
21
-91.4448
0
LINE
8
BLACK
6
CONTINUOUS
10
166.374
20
-91.4448
11
166.383
21
-91.4423
0
LINE
8
BLACK
6
CONTINUOUS
10
166.383
20
-91.4423
11
166.432
21
-91.4374
0
LINE
8
BLACK
6
CONTINUOUS
10
166.432
20
-91.4374
11
166.444
21
-91.4386
0
LINE
8
BLACK
6
CONTINUOUS
10
166.444
20
-91.4386
11
168.354
21
-91.4386
0
LINE
8
BLACK
6
CONTINUOUS
10
168.354
20
-91.4386
11
168.366
21
-91.4374
0
LINE
8
BLACK
6
CONTINUOUS
10
168.366
20
-91.4374
11
168.378
21
-91.4386
0
LINE
8
BLACK
6
CONTINUOUS
10
168.378
20
-91.4386
11
168.415
21
-91.4423
0
LINE
8
BLACK
6
CONTINUOUS
10
168.415
20
-91.4423
11
168.462
21
-91.4566
0
LINE
8
BLACK
6
CONTINUOUS
10
168.462
20
-91.4566
11
168.506
21
-91.4798
0
LINE
8
BLACK
6
CONTINUOUS
10
168.506
20
-91.4798
11
168.544
21
-91.511
0
LINE
8
BLACK
6
CONTINUOUS
10
168.544
20
-91.511
11
168.552
21
-91.5206
0
LINE
8
BLACK
6
CONTINUOUS
10
168.552
20
-91.5206
11
168.781
21
-91.75
0
LINE
8
BLACK
6
CONTINUOUS
10
168.781
20
-91.75
11
171.196
21
-91.75
0
LINE
8
BLACK
6
CONTINUOUS
10
171.196
20
-91.75
11
172.915
21
-90.0319
0
LINE
8
BLACK
6
CONTINUOUS
10
172.915
20
-90.0319
11
172.922
21
-90.0224
0
LINE
8
BLACK
6
CONTINUOUS
10
172.922
20
-90.0224
11
172.96
21
-89.9911
0
LINE
8
BLACK
6
CONTINUOUS
10
172.96
20
-89.9911
11
173.004
21
-89.9679
0
LINE
8
BLACK
6
CONTINUOUS
10
173.004
20
-89.9679
11
173.051
21
-89.9536
0
LINE
8
BLACK
6
CONTINUOUS
10
173.051
20
-89.9536
11
173.088
21
-89.95
0
LINE
8
BLACK
6
CONTINUOUS
10
173.088
20
-89.95
11
173.088
21
-89.95
0
LINE
8
BLACK
6
CONTINUOUS
10
173.088
20
-89.95
11
173.1
21
-89.9488
0
LINE
8
BLACK
6
CONTINUOUS
10
173.1
20
-89.9488
11
173.112
21
-89.95
0
LINE
8
BLACK
6
CONTINUOUS
10
173.112
20
-89.95
11
174.325
21
-89.95
0
LINE
8
BLACK
6
CONTINUOUS
10
174.325
20
-89.95
11
174.325
21
-89.525
0
LINE
8
BLACK
6
CONTINUOUS
10
174.325
20
-89.525
11
175.675
21
-89.525
0
LINE
8
BLACK
6
CONTINUOUS
10
175.675
20
-89.525
11
175.675
21
-90.875
0
LINE
8
BLACK
6
CONTINUOUS
10
161.416
20
-92.1645
11
161.539
21
-92.2152
0
LINE
8
BLACK
6
CONTINUOUS
10
161.539
20
-92.2152
11
161.649
21
-92.2889
0
LINE
8
BLACK
6
CONTINUOUS
10
161.649
20
-92.2889
11
161.743
21
-92.3827
0
LINE
8
BLACK
6
CONTINUOUS
10
161.743
20
-92.3827
11
161.817
21
-92.4929
0
LINE
8
BLACK
6
CONTINUOUS
10
161.817
20
-92.4929
11
161.867
21
-92.6154
0
LINE
8
BLACK
6
CONTINUOUS
10
161.867
20
-92.6154
11
161.893
21
-92.7454
0
LINE
8
BLACK
6
CONTINUOUS
10
161.893
20
-92.7454
11
161.893
21
-92.878
0
LINE
8
BLACK
6
CONTINUOUS
10
161.893
20
-92.878
11
161.867
21
-93.0081
0
LINE
8
BLACK
6
CONTINUOUS
10
161.867
20
-93.0081
11
161.817
21
-93.1306
0
LINE
8
BLACK
6
CONTINUOUS
10
161.817
20
-93.1306
11
161.743
21
-93.2408
0
LINE
8
BLACK
6
CONTINUOUS
10
161.743
20
-93.2408
11
161.649
21
-93.3346
0
LINE
8
BLACK
6
CONTINUOUS
10
161.649
20
-93.3346
11
161.539
21
-93.4082
0
LINE
8
BLACK
6
CONTINUOUS
10
161.539
20
-93.4082
11
161.416
21
-93.459
0
LINE
8
BLACK
6
CONTINUOUS
10
161.416
20
-93.459
11
161.286
21
-93.4848
0
LINE
8
BLACK
6
CONTINUOUS
10
161.286
20
-93.4848
11
161.154
21
-93.4848
0
LINE
8
BLACK
6
CONTINUOUS
10
161.154
20
-93.4848
11
161.024
21
-93.459
0
LINE
8
BLACK
6
CONTINUOUS
10
161.024
20
-93.459
11
160.901
21
-93.4082
0
LINE
8
BLACK
6
CONTINUOUS
10
160.901
20
-93.4082
11
160.791
21
-93.3346
0
LINE
8
BLACK
6
CONTINUOUS
10
160.791
20
-93.3346
11
160.697
21
-93.2408
0
LINE
8
BLACK
6
CONTINUOUS
10
160.697
20
-93.2408
11
160.624
21
-93.1306
0
LINE
8
BLACK
6
CONTINUOUS
10
160.624
20
-93.1306
11
160.573
21
-93.0081
0
LINE
8
BLACK
6
CONTINUOUS
10
160.573
20
-93.0081
11
160.547
21
-92.878
0
LINE
8
BLACK
6
CONTINUOUS
10
160.547
20
-92.878
11
160.547
21
-92.7454
0
LINE
8
BLACK
6
CONTINUOUS
10
160.547
20
-92.7454
11
160.573
21
-92.6154
0
LINE
8
BLACK
6
CONTINUOUS
10
160.573
20
-92.6154
11
160.624
21
-92.4929
0
LINE
8
BLACK
6
CONTINUOUS
10
160.624
20
-92.4929
11
160.697
21
-92.3827
0
LINE
8
BLACK
6
CONTINUOUS
10
160.697
20
-92.3827
11
160.791
21
-92.2889
0
LINE
8
BLACK
6
CONTINUOUS
10
160.791
20
-92.2889
11
160.901
21
-92.2152
0
LINE
8
BLACK
6
CONTINUOUS
10
160.901
20
-92.2152
11
161.024
21
-92.1645
0
LINE
8
BLACK
6
CONTINUOUS
10
161.024
20
-92.1645
11
161.154
21
-92.1386
0
LINE
8
BLACK
6
CONTINUOUS
10
161.154
20
-92.1386
11
161.286
21
-92.1386
0
LINE
8
BLACK
6
CONTINUOUS
10
161.286
20
-92.1386
11
161.416
21
-92.1645
0
LINE
8
BLACK
6
CONTINUOUS
10
167.167
20
-92.1645
11
167.289
21
-92.2152
0
LINE
8
BLACK
6
CONTINUOUS
10
167.289
20
-92.2152
11
167.4
21
-92.2889
0
LINE
8
BLACK
6
CONTINUOUS
10
167.4
20
-92.2889
11
167.493
21
-92.3827
0
LINE
8
BLACK
6
CONTINUOUS
10
167.493
20
-92.3827
11
167.567
21
-92.4929
0
LINE
8
BLACK
6
CONTINUOUS
10
167.567
20
-92.4929
11
167.618
21
-92.6154
0
LINE
8
BLACK
6
CONTINUOUS
10
167.618
20
-92.6154
11
167.644
21
-92.7454
0
LINE
8
BLACK
6
CONTINUOUS
10
167.644
20
-92.7454
11
167.644
21
-92.878
0
LINE
8
BLACK
6
CONTINUOUS
10
167.644
20
-92.878
11
167.618
21
-93.0081
0
LINE
8
BLACK
6
CONTINUOUS
10
167.618
20
-93.0081
11
167.567
21
-93.1306
0
LINE
8
BLACK
6
CONTINUOUS
10
167.567
20
-93.1306
11
167.493
21
-93.2408
0
LINE
8
BLACK
6
CONTINUOUS
10
167.493
20
-93.2408
11
167.4
21
-93.3346
0
LINE
8
BLACK
6
CONTINUOUS
10
167.4
20
-93.3346
11
167.289
21
-93.4082
0
LINE
8
BLACK
6
CONTINUOUS
10
167.289
20
-93.4082
11
167.167
21
-93.459
0
LINE
8
BLACK
6
CONTINUOUS
10
167.167
20
-93.459
11
167.037
21
-93.4848
0
LINE
8
BLACK
6
CONTINUOUS
10
167.037
20
-93.4848
11
166.904
21
-93.4848
0
LINE
8
BLACK
6
CONTINUOUS
10
166.904
20
-93.4848
11
166.774
21
-93.459
0
LINE
8
BLACK
6
CONTINUOUS
10
166.774
20
-93.459
11
166.652
21
-93.4082
0
LINE
8
BLACK
6
CONTINUOUS
10
166.652
20
-93.4082
11
166.542
21
-93.3346
0
LINE
8
BLACK
6
CONTINUOUS
10
166.542
20
-93.3346
11
166.448
21
-93.2408
0
LINE
8
BLACK
6
CONTINUOUS
10
166.448
20
-93.2408
11
166.374
21
-93.1306
0
LINE
8
BLACK
6
CONTINUOUS
10
166.374
20
-93.1306
11
166.323
21
-93.0081
0
LINE
8
BLACK
6
CONTINUOUS
10
166.323
20
-93.0081
11
166.298
21
-92.878
0
LINE
8
BLACK
6
CONTINUOUS
10
166.298
20
-92.878
11
166.298
21
-92.7454
0
LINE
8
BLACK
6
CONTINUOUS
10
166.298
20
-92.7454
11
166.323
21
-92.6154
0
LINE
8
BLACK
6
CONTINUOUS
10
166.323
20
-92.6154
11
166.374
21
-92.4929
0
LINE
8
BLACK
6
CONTINUOUS
10
166.374
20
-92.4929
11
166.448
21
-92.3827
0
LINE
8
BLACK
6
CONTINUOUS
10
166.448
20
-92.3827
11
166.542
21
-92.2889
0
LINE
8
BLACK
6
CONTINUOUS
10
166.542
20
-92.2889
11
166.652
21
-92.2152
0
LINE
8
BLACK
6
CONTINUOUS
10
166.652
20
-92.2152
11
166.774
21
-92.1645
0
LINE
8
BLACK
6
CONTINUOUS
10
166.774
20
-92.1645
11
166.904
21
-92.1386
0
LINE
8
BLACK
6
CONTINUOUS
10
166.904
20
-92.1386
11
167.037
21
-92.1386
0
LINE
8
BLACK
6
CONTINUOUS
10
167.037
20
-92.1386
11
167.167
21
-92.1645
0
LINE
8
BLACK
6
CONTINUOUS
10
175.132
20
-91.5348
11
175.26
21
-91.5734
0
LINE
8
BLACK
6
CONTINUOUS
10
175.26
20
-91.5734
11
175.377
21
-91.636
0
LINE
8
BLACK
6
CONTINUOUS
10
175.377
20
-91.636
11
175.48
21
-91.7204
0
LINE
8
BLACK
6
CONTINUOUS
10
175.48
20
-91.7204
11
175.564
21
-91.8232
0
LINE
8
BLACK
6
CONTINUOUS
10
175.564
20
-91.8232
11
175.627
21
-91.9404
0
LINE
8
BLACK
6
CONTINUOUS
10
175.627
20
-91.9404
11
175.665
21
-92.0677
0
LINE
8
BLACK
6
CONTINUOUS
10
175.665
20
-92.0677
11
175.678
21
-92.2
0
LINE
8
BLACK
6
CONTINUOUS
10
175.678
20
-92.2
11
175.665
21
-92.3323
0
LINE
8
BLACK
6
CONTINUOUS
10
175.665
20
-92.3323
11
175.627
21
-92.4596
0
LINE
8
BLACK
6
CONTINUOUS
10
175.627
20
-92.4596
11
175.564
21
-92.5768
0
LINE
8
BLACK
6
CONTINUOUS
10
175.564
20
-92.5768
11
175.48
21
-92.6796
0
LINE
8
BLACK
6
CONTINUOUS
10
175.48
20
-92.6796
11
175.377
21
-92.764
0
LINE
8
BLACK
6
CONTINUOUS
10
175.377
20
-92.764
11
175.26
21
-92.8266
0
LINE
8
BLACK
6
CONTINUOUS
10
175.26
20
-92.8266
11
175.132
21
-92.8652
0
LINE
8
BLACK
6
CONTINUOUS
10
175.132
20
-92.8652
11
175.033
21
-92.875
0
LINE
8
BLACK
6
CONTINUOUS
10
175.033
20
-92.875
11
174.967
21
-92.875
0
LINE
8
BLACK
6
CONTINUOUS
10
174.967
20
-92.875
11
174.868
21
-92.8652
0
LINE
8
BLACK
6
CONTINUOUS
10
174.868
20
-92.8652
11
174.74
21
-92.8266
0
LINE
8
BLACK
6
CONTINUOUS
10
174.74
20
-92.8266
11
174.623
21
-92.764
0
LINE
8
BLACK
6
CONTINUOUS
10
174.623
20
-92.764
11
174.52
21
-92.6796
0
LINE
8
BLACK
6
CONTINUOUS
10
174.52
20
-92.6796
11
174.436
21
-92.5768
0
LINE
8
BLACK
6
CONTINUOUS
10
174.436
20
-92.5768
11
174.373
21
-92.4596
0
LINE
8
BLACK
6
CONTINUOUS
10
174.373
20
-92.4596
11
174.335
21
-92.3323
0
LINE
8
BLACK
6
CONTINUOUS
10
174.335
20
-92.3323
11
174.322
21
-92.2
0
LINE
8
BLACK
6
CONTINUOUS
10
174.322
20
-92.2
11
174.335
21
-92.0677
0
LINE
8
BLACK
6
CONTINUOUS
10
174.335
20
-92.0677
11
174.373
21
-91.9404
0
LINE
8
BLACK
6
CONTINUOUS
10
174.373
20
-91.9404
11
174.436
21
-91.8232
0
LINE
8
BLACK
6
CONTINUOUS
10
174.436
20
-91.8232
11
174.52
21
-91.7204
0
LINE
8
BLACK
6
CONTINUOUS
10
174.52
20
-91.7204
11
174.623
21
-91.636
0
LINE
8
BLACK
6
CONTINUOUS
10
174.623
20
-91.636
11
174.74
21
-91.5734
0
LINE
8
BLACK
6
CONTINUOUS
10
174.74
20
-91.5734
11
174.868
21
-91.5348
0
LINE
8
BLACK
6
CONTINUOUS
10
174.868
20
-91.5348
11
174.967
21
-91.525
0
LINE
8
BLACK
6
CONTINUOUS
10
174.967
20
-91.525
11
175.033
21
-91.525
0
LINE
8
BLACK
6
CONTINUOUS
10
175.033
20
-91.525
11
175.132
21
-91.5348
0
LINE
8
BLACK
6
CONTINUOUS
10
169.384
20
-90.2011
11
169.507
21
-90.2518
0
LINE
8
BLACK
6
CONTINUOUS
10
169.507
20
-90.2518
11
169.617
21
-90.3255
0
LINE
8
BLACK
6
CONTINUOUS
10
169.617
20
-90.3255
11
169.711
21
-90.4192
0
LINE
8
BLACK
6
CONTINUOUS
10
169.711
20
-90.4192
11
169.785
21
-90.5295
0
LINE
8
BLACK
6
CONTINUOUS
10
169.785
20
-90.5295
11
169.835
21
-90.652
0
LINE
8
BLACK
6
CONTINUOUS
10
169.835
20
-90.652
11
169.861
21
-90.782
0
LINE
8
BLACK
6
CONTINUOUS
10
169.861
20
-90.782
11
169.861
21
-90.9146
0
LINE
8
BLACK
6
CONTINUOUS
10
169.861
20
-90.9146
11
169.835
21
-91.0447
0
LINE
8
BLACK
6
CONTINUOUS
10
169.835
20
-91.0447
11
169.785
21
-91.1672
0
LINE
8
BLACK
6
CONTINUOUS
10
169.785
20
-91.1672
11
169.711
21
-91.2774
0
LINE
8
BLACK
6
CONTINUOUS
10
169.711
20
-91.2774
11
169.617
21
-91.3712
0
LINE
8
BLACK
6
CONTINUOUS
10
169.617
20
-91.3712
11
169.507
21
-91.4448
0
LINE
8
BLACK
6
CONTINUOUS
10
169.507
20
-91.4448
11
169.384
21
-91.4956
0
LINE
8
BLACK
6
CONTINUOUS
10
169.384
20
-91.4956
11
169.254
21
-91.5214
0
LINE
8
BLACK
6
CONTINUOUS
10
169.254
20
-91.5214
11
169.122
21
-91.5214
0
LINE
8
BLACK
6
CONTINUOUS
10
169.122
20
-91.5214
11
168.992
21
-91.4956
0
LINE
8
BLACK
6
CONTINUOUS
10
168.992
20
-91.4956
11
168.869
21
-91.4448
0
LINE
8
BLACK
6
CONTINUOUS
10
168.869
20
-91.4448
11
168.759
21
-91.3712
0
LINE
8
BLACK
6
CONTINUOUS
10
168.759
20
-91.3712
11
168.665
21
-91.2774
0
LINE
8
BLACK
6
CONTINUOUS
10
168.665
20
-91.2774
11
168.592
21
-91.1672
0
LINE
8
BLACK
6
CONTINUOUS
10
168.592
20
-91.1672
11
168.541
21
-91.0447
0
LINE
8
BLACK
6
CONTINUOUS
10
168.541
20
-91.0447
11
168.515
21
-90.9146
0
LINE
8
BLACK
6
CONTINUOUS
10
168.515
20
-90.9146
11
168.515
21
-90.782
0
LINE
8
BLACK
6
CONTINUOUS
10
168.515
20
-90.782
11
168.541
21
-90.652
0
LINE
8
BLACK
6
CONTINUOUS
10
168.541
20
-90.652
11
168.592
21
-90.5295
0
LINE
8
BLACK
6
CONTINUOUS
10
168.592
20
-90.5295
11
168.665
21
-90.4192
0
LINE
8
BLACK
6
CONTINUOUS
10
168.665
20
-90.4192
11
168.759
21
-90.3255
0
LINE
8
BLACK
6
CONTINUOUS
10
168.759
20
-90.3255
11
168.869
21
-90.2518
0
LINE
8
BLACK
6
CONTINUOUS
10
168.869
20
-90.2518
11
168.992
21
-90.2011
0
LINE
8
BLACK
6
CONTINUOUS
10
168.992
20
-90.2011
11
169.122
21
-90.1752
0
LINE
8
BLACK
6
CONTINUOUS
10
169.122
20
-90.1752
11
169.254
21
-90.1752
0
LINE
8
BLACK
6
CONTINUOUS
10
169.254
20
-90.1752
11
169.384
21
-90.2011
0
LINE
8
BLACK
6
CONTINUOUS
10
159.199
20
-90.2011
11
159.321
21
-90.2518
0
LINE
8
BLACK
6
CONTINUOUS
10
159.321
20
-90.2518
11
159.432
21
-90.3255
0
LINE
8
BLACK
6
CONTINUOUS
10
159.432
20
-90.3255
11
159.525
21
-90.4192
0
LINE
8
BLACK
6
CONTINUOUS
10
159.525
20
-90.4192
11
159.599
21
-90.5295
0
LINE
8
BLACK
6
CONTINUOUS
10
159.599
20
-90.5295
11
159.65
21
-90.652
0
LINE
8
BLACK
6
CONTINUOUS
10
159.65
20
-90.652
11
159.676
21
-90.782
0
LINE
8
BLACK
6
CONTINUOUS
10
159.676
20
-90.782
11
159.676
21
-90.9146
0
LINE
8
BLACK
6
CONTINUOUS
10
159.676
20
-90.9146
11
159.65
21
-91.0447
0
LINE
8
BLACK
6
CONTINUOUS
10
159.65
20
-91.0447
11
159.599
21
-91.1672
0
LINE
8
BLACK
6
CONTINUOUS
10
159.599
20
-91.1672
11
159.525
21
-91.2774
0
LINE
8
BLACK
6
CONTINUOUS
10
159.525
20
-91.2774
11
159.432
21
-91.3712
0
LINE
8
BLACK
6
CONTINUOUS
10
159.432
20
-91.3712
11
159.321
21
-91.4448
0
LINE
8
BLACK
6
CONTINUOUS
10
159.321
20
-91.4448
11
159.199
21
-91.4956
0
LINE
8
BLACK
6
CONTINUOUS
10
159.199
20
-91.4956
11
159.069
21
-91.5214
0
LINE
8
BLACK
6
CONTINUOUS
10
159.069
20
-91.5214
11
158.936
21
-91.5214
0
LINE
8
BLACK
6
CONTINUOUS
10
158.936
20
-91.5214
11
158.806
21
-91.4956
0
LINE
8
BLACK
6
CONTINUOUS
10
158.806
20
-91.4956
11
158.684
21
-91.4448
0
LINE
8
BLACK
6
CONTINUOUS
10
158.684
20
-91.4448
11
158.574
21
-91.3712
0
LINE
8
BLACK
6
CONTINUOUS
10
158.574
20
-91.3712
11
158.48
21
-91.2774
0
LINE
8
BLACK
6
CONTINUOUS
10
158.48
20
-91.2774
11
158.406
21
-91.1672
0
LINE
8
BLACK
6
CONTINUOUS
10
158.406
20
-91.1672
11
158.355
21
-91.0447
0
LINE
8
BLACK
6
CONTINUOUS
10
158.355
20
-91.0447
11
158.33
21
-90.9146
0
LINE
8
BLACK
6
CONTINUOUS
10
158.33
20
-90.9146
11
158.33
21
-90.782
0
LINE
8
BLACK
6
CONTINUOUS
10
158.33
20
-90.782
11
158.355
21
-90.652
0
LINE
8
BLACK
6
CONTINUOUS
10
158.355
20
-90.652
11
158.406
21
-90.5295
0
LINE
8
BLACK
6
CONTINUOUS
10
158.406
20
-90.5295
11
158.48
21
-90.4192
0
LINE
8
BLACK
6
CONTINUOUS
10
158.48
20
-90.4192
11
158.574
21
-90.3255
0
LINE
8
BLACK
6
CONTINUOUS
10
158.574
20
-90.3255
11
158.684
21
-90.2518
0
LINE
8
BLACK
6
CONTINUOUS
10
158.684
20
-90.2518
11
158.806
21
-90.2011
0
LINE
8
BLACK
6
CONTINUOUS
10
158.806
20
-90.2011
11
158.936
21
-90.1752
0
LINE
8
BLACK
6
CONTINUOUS
10
158.936
20
-90.1752
11
159.069
21
-90.1752
0
LINE
8
BLACK
6
CONTINUOUS
10
159.069
20
-90.1752
11
159.199
21
-90.2011
0
LINE
8
BLACK
6
CONTINUOUS
10
177.132
20
-89.5348
11
177.26
21
-89.5734
0
LINE
8
BLACK
6
CONTINUOUS
10
177.26
20
-89.5734
11
177.377
21
-89.636
0
LINE
8
BLACK
6
CONTINUOUS
10
177.377
20
-89.636
11
177.48
21
-89.7204
0
LINE
8
BLACK
6
CONTINUOUS
10
177.48
20
-89.7204
11
177.564
21
-89.8232
0
LINE
8
BLACK
6
CONTINUOUS
10
177.564
20
-89.8232
11
177.627
21
-89.9404
0
LINE
8
BLACK
6
CONTINUOUS
10
177.627
20
-89.9404
11
177.665
21
-90.0677
0
LINE
8
BLACK
6
CONTINUOUS
10
177.665
20
-90.0677
11
177.678
21
-90.2
0
LINE
8
BLACK
6
CONTINUOUS
10
177.678
20
-90.2
11
177.665
21
-90.3323
0
LINE
8
BLACK
6
CONTINUOUS
10
177.665
20
-90.3323
11
177.627
21
-90.4596
0
LINE
8
BLACK
6
CONTINUOUS
10
177.627
20
-90.4596
11
177.564
21
-90.5768
0
LINE
8
BLACK
6
CONTINUOUS
10
177.564
20
-90.5768
11
177.48
21
-90.6796
0
LINE
8
BLACK
6
CONTINUOUS
10
177.48
20
-90.6796
11
177.377
21
-90.764
0
LINE
8
BLACK
6
CONTINUOUS
10
177.377
20
-90.764
11
177.26
21
-90.8266
0
LINE
8
BLACK
6
CONTINUOUS
10
177.26
20
-90.8266
11
177.132
21
-90.8652
0
LINE
8
BLACK
6
CONTINUOUS
10
177.132
20
-90.8652
11
177.033
21
-90.875
0
LINE
8
BLACK
6
CONTINUOUS
10
177.033
20
-90.875
11
176.967
21
-90.875
0
LINE
8
BLACK
6
CONTINUOUS
10
176.967
20
-90.875
11
176.868
21
-90.8652
0
LINE
8
BLACK
6
CONTINUOUS
10
176.868
20
-90.8652
11
176.74
21
-90.8266
0
LINE
8
BLACK
6
CONTINUOUS
10
176.74
20
-90.8266
11
176.623
21
-90.764
0
LINE
8
BLACK
6
CONTINUOUS
10
176.623
20
-90.764
11
176.52
21
-90.6796
0
LINE
8
BLACK
6
CONTINUOUS
10
176.52
20
-90.6796
11
176.436
21
-90.5768
0
LINE
8
BLACK
6
CONTINUOUS
10
176.436
20
-90.5768
11
176.373
21
-90.4596
0
LINE
8
BLACK
6
CONTINUOUS
10
176.373
20
-90.4596
11
176.335
21
-90.3323
0
LINE
8
BLACK
6
CONTINUOUS
10
176.335
20
-90.3323
11
176.322
21
-90.2
0
LINE
8
BLACK
6
CONTINUOUS
10
176.322
20
-90.2
11
176.335
21
-90.0677
0
LINE
8
BLACK
6
CONTINUOUS
10
176.335
20
-90.0677
11
176.373
21
-89.9404
0
LINE
8
BLACK
6
CONTINUOUS
10
176.373
20
-89.9404
11
176.436
21
-89.8232
0
LINE
8
BLACK
6
CONTINUOUS
10
176.436
20
-89.8232
11
176.52
21
-89.7204
0
LINE
8
BLACK
6
CONTINUOUS
10
176.52
20
-89.7204
11
176.623
21
-89.636
0
LINE
8
BLACK
6
CONTINUOUS
10
176.623
20
-89.636
11
176.74
21
-89.5734
0
LINE
8
BLACK
6
CONTINUOUS
10
176.74
20
-89.5734
11
176.868
21
-89.5348
0
LINE
8
BLACK
6
CONTINUOUS
10
176.868
20
-89.5348
11
176.967
21
-89.525
0
LINE
8
BLACK
6
CONTINUOUS
10
176.967
20
-89.525
11
177.033
21
-89.525
0
LINE
8
BLACK
6
CONTINUOUS
10
177.033
20
-89.525
11
177.132
21
-89.5348
0
LINE
8
BLACK
6
CONTINUOUS
10
158.147
20
-87.4299
11
158.27
21
-87.4807
0
LINE
8
BLACK
6
CONTINUOUS
10
158.27
20
-87.4807
11
158.38
21
-87.5543
0
LINE
8
BLACK
6
CONTINUOUS
10
158.38
20
-87.5543
11
158.474
21
-87.6481
0
LINE
8
BLACK
6
CONTINUOUS
10
158.474
20
-87.6481
11
158.548
21
-87.7583
0
LINE
8
BLACK
6
CONTINUOUS
10
158.548
20
-87.7583
11
158.598
21
-87.8808
0
LINE
8
BLACK
6
CONTINUOUS
10
158.598
20
-87.8808
11
158.624
21
-88.0109
0
LINE
8
BLACK
6
CONTINUOUS
10
158.624
20
-88.0109
11
158.624
21
-88.1435
0
LINE
8
BLACK
6
CONTINUOUS
10
158.624
20
-88.1435
11
158.598
21
-88.2735
0
LINE
8
BLACK
6
CONTINUOUS
10
158.598
20
-88.2735
11
158.548
21
-88.396
0
LINE
8
BLACK
6
CONTINUOUS
10
158.548
20
-88.396
11
158.474
21
-88.5063
0
LINE
8
BLACK
6
CONTINUOUS
10
158.474
20
-88.5063
11
158.38
21
-88.6
0
LINE
8
BLACK
6
CONTINUOUS
10
158.38
20
-88.6
11
158.27
21
-88.6737
0
LINE
8
BLACK
6
CONTINUOUS
10
158.27
20
-88.6737
11
158.147
21
-88.7244
0
LINE
8
BLACK
6
CONTINUOUS
10
158.147
20
-88.7244
11
158.017
21
-88.7503
0
LINE
8
BLACK
6
CONTINUOUS
10
158.017
20
-88.7503
11
157.885
21
-88.7503
0
LINE
8
BLACK
6
CONTINUOUS
10
157.885
20
-88.7503
11
157.755
21
-88.7244
0
LINE
8
BLACK
6
CONTINUOUS
10
157.755
20
-88.7244
11
157.632
21
-88.6737
0
LINE
8
BLACK
6
CONTINUOUS
10
157.632
20
-88.6737
11
157.522
21
-88.6
0
LINE
8
BLACK
6
CONTINUOUS
10
157.522
20
-88.6
11
157.428
21
-88.5063
0
LINE
8
BLACK
6
CONTINUOUS
10
157.428
20
-88.5063
11
157.355
21
-88.396
0
LINE
8
BLACK
6
CONTINUOUS
10
157.355
20
-88.396
11
157.304
21
-88.2735
0
LINE
8
BLACK
6
CONTINUOUS
10
157.304
20
-88.2735
11
157.278
21
-88.1435
0
LINE
8
BLACK
6
CONTINUOUS
10
157.278
20
-88.1435
11
157.278
21
-88.0109
0
LINE
8
BLACK
6
CONTINUOUS
10
157.278
20
-88.0109
11
157.304
21
-87.8808
0
LINE
8
BLACK
6
CONTINUOUS
10
157.304
20
-87.8808
11
157.355
21
-87.7583
0
LINE
8
BLACK
6
CONTINUOUS
10
157.355
20
-87.7583
11
157.428
21
-87.6481
0
LINE
8
BLACK
6
CONTINUOUS
10
157.428
20
-87.6481
11
157.522
21
-87.5543
0
LINE
8
BLACK
6
CONTINUOUS
10
157.522
20
-87.5543
11
157.632
21
-87.4807
0
LINE
8
BLACK
6
CONTINUOUS
10
157.632
20
-87.4807
11
157.755
21
-87.4299
0
LINE
8
BLACK
6
CONTINUOUS
10
157.755
20
-87.4299
11
157.885
21
-87.4041
0
LINE
8
BLACK
6
CONTINUOUS
10
157.885
20
-87.4041
11
158.017
21
-87.4041
0
LINE
8
BLACK
6
CONTINUOUS
10
158.017
20
-87.4041
11
158.147
21
-87.4299
0
LINE
8
BLACK
6
CONTINUOUS
10
170.436
20
-87.4299
11
170.558
21
-87.4807
0
LINE
8
BLACK
6
CONTINUOUS
10
170.558
20
-87.4807
11
170.669
21
-87.5543
0
LINE
8
BLACK
6
CONTINUOUS
10
170.669
20
-87.5543
11
170.762
21
-87.6481
0
LINE
8
BLACK
6
CONTINUOUS
10
170.762
20
-87.6481
11
170.836
21
-87.7583
0
LINE
8
BLACK
6
CONTINUOUS
10
170.836
20
-87.7583
11
170.887
21
-87.8808
0
LINE
8
BLACK
6
CONTINUOUS
10
170.887
20
-87.8808
11
170.913
21
-88.0109
0
LINE
8
BLACK
6
CONTINUOUS
10
170.913
20
-88.0109
11
170.913
21
-88.1435
0
LINE
8
BLACK
6
CONTINUOUS
10
170.913
20
-88.1435
11
170.887
21
-88.2735
0
LINE
8
BLACK
6
CONTINUOUS
10
170.887
20
-88.2735
11
170.836
21
-88.396
0
LINE
8
BLACK
6
CONTINUOUS
10
170.836
20
-88.396
11
170.762
21
-88.5063
0
LINE
8
BLACK
6
CONTINUOUS
10
170.762
20
-88.5063
11
170.669
21
-88.6
0
LINE
8
BLACK
6
CONTINUOUS
10
170.669
20
-88.6
11
170.558
21
-88.6737
0
LINE
8
BLACK
6
CONTINUOUS
10
170.558
20
-88.6737
11
170.436
21
-88.7244
0
LINE
8
BLACK
6
CONTINUOUS
10
170.436
20
-88.7244
11
170.306
21
-88.7503
0
LINE
8
BLACK
6
CONTINUOUS
10
170.306
20
-88.7503
11
170.173
21
-88.7503
0
LINE
8
BLACK
6
CONTINUOUS
10
170.173
20
-88.7503
11
170.043
21
-88.7244
0
LINE
8
BLACK
6
CONTINUOUS
10
170.043
20
-88.7244
11
169.921
21
-88.6737
0
LINE
8
BLACK
6
CONTINUOUS
10
169.921
20
-88.6737
11
169.811
21
-88.6
0
LINE
8
BLACK
6
CONTINUOUS
10
169.811
20
-88.6
11
169.717
21
-88.5063
0
LINE
8
BLACK
6
CONTINUOUS
10
169.717
20
-88.5063
11
169.643
21
-88.396
0
LINE
8
BLACK
6
CONTINUOUS
10
169.643
20
-88.396
11
169.592
21
-88.2735
0
LINE
8
BLACK
6
CONTINUOUS
10
169.592
20
-88.2735
11
169.567
21
-88.1435
0
LINE
8
BLACK
6
CONTINUOUS
10
169.567
20
-88.1435
11
169.567
21
-88.0109
0
LINE
8
BLACK
6
CONTINUOUS
10
169.567
20
-88.0109
11
169.592
21
-87.8808
0
LINE
8
BLACK
6
CONTINUOUS
10
169.592
20
-87.8808
11
169.643
21
-87.7583
0
LINE
8
BLACK
6
CONTINUOUS
10
169.643
20
-87.7583
11
169.717
21
-87.6481
0
LINE
8
BLACK
6
CONTINUOUS
10
169.717
20
-87.6481
11
169.811
21
-87.5543
0
LINE
8
BLACK
6
CONTINUOUS
10
169.811
20
-87.5543
11
169.921
21
-87.4807
0
LINE
8
BLACK
6
CONTINUOUS
10
169.921
20
-87.4807
11
170.043
21
-87.4299
0
LINE
8
BLACK
6
CONTINUOUS
10
170.043
20
-87.4299
11
170.173
21
-87.4041
0
LINE
8
BLACK
6
CONTINUOUS
10
170.173
20
-87.4041
11
170.306
21
-87.4041
0
LINE
8
BLACK
6
CONTINUOUS
10
170.306
20
-87.4041
11
170.436
21
-87.4299
0
LINE
8
BLACK
6
CONTINUOUS
10
158.506
20
-84.4912
11
158.628
21
-84.5419
0
LINE
8
BLACK
6
CONTINUOUS
10
158.628
20
-84.5419
11
158.738
21
-84.6156
0
LINE
8
BLACK
6
CONTINUOUS
10
158.738
20
-84.6156
11
158.832
21
-84.7093
0
LINE
8
BLACK
6
CONTINUOUS
10
158.832
20
-84.7093
11
158.906
21
-84.8196
0
LINE
8
BLACK
6
CONTINUOUS
10
158.906
20
-84.8196
11
158.956
21
-84.9421
0
LINE
8
BLACK
6
CONTINUOUS
10
158.956
20
-84.9421
11
158.982
21
-85.0721
0
LINE
8
BLACK
6
CONTINUOUS
10
158.982
20
-85.0721
11
158.982
21
-85.2047
0
LINE
8
BLACK
6
CONTINUOUS
10
158.982
20
-85.2047
11
158.956
21
-85.3347
0
LINE
8
BLACK
6
CONTINUOUS
10
158.956
20
-85.3347
11
158.906
21
-85.4572
0
LINE
8
BLACK
6
CONTINUOUS
10
158.906
20
-85.4572
11
158.832
21
-85.5675
0
LINE
8
BLACK
6
CONTINUOUS
10
158.832
20
-85.5675
11
158.738
21
-85.6612
0
LINE
8
BLACK
6
CONTINUOUS
10
158.738
20
-85.6612
11
158.628
21
-85.7349
0
LINE
8
BLACK
6
CONTINUOUS
10
158.628
20
-85.7349
11
158.506
21
-85.7856
0
LINE
8
BLACK
6
CONTINUOUS
10
158.506
20
-85.7856
11
158.376
21
-85.8115
0
LINE
8
BLACK
6
CONTINUOUS
10
158.376
20
-85.8115
11
158.243
21
-85.8115
0
LINE
8
BLACK
6
CONTINUOUS
10
158.243
20
-85.8115
11
158.113
21
-85.7856
0
LINE
8
BLACK
6
CONTINUOUS
10
158.113
20
-85.7856
11
157.99
21
-85.7349
0
LINE
8
BLACK
6
CONTINUOUS
10
157.99
20
-85.7349
11
157.88
21
-85.6612
0
LINE
8
BLACK
6
CONTINUOUS
10
157.88
20
-85.6612
11
157.786
21
-85.5675
0
LINE
8
BLACK
6
CONTINUOUS
10
157.786
20
-85.5675
11
157.713
21
-85.4572
0
LINE
8
BLACK
6
CONTINUOUS
10
157.713
20
-85.4572
11
157.662
21
-85.3347
0
LINE
8
BLACK
6
CONTINUOUS
10
157.662
20
-85.3347
11
157.636
21
-85.2047
0
LINE
8
BLACK
6
CONTINUOUS
10
157.636
20
-85.2047
11
157.636
21
-85.0721
0
LINE
8
BLACK
6
CONTINUOUS
10
157.636
20
-85.0721
11
157.662
21
-84.9421
0
LINE
8
BLACK
6
CONTINUOUS
10
157.662
20
-84.9421
11
157.713
21
-84.8196
0
LINE
8
BLACK
6
CONTINUOUS
10
157.713
20
-84.8196
11
157.786
21
-84.7093
0
LINE
8
BLACK
6
CONTINUOUS
10
157.786
20
-84.7093
11
157.88
21
-84.6156
0
LINE
8
BLACK
6
CONTINUOUS
10
157.88
20
-84.6156
11
157.99
21
-84.5419
0
LINE
8
BLACK
6
CONTINUOUS
10
157.99
20
-84.5419
11
158.113
21
-84.4912
0
LINE
8
BLACK
6
CONTINUOUS
10
158.113
20
-84.4912
11
158.243
21
-84.4653
0
LINE
8
BLACK
6
CONTINUOUS
10
158.243
20
-84.4653
11
158.376
21
-84.4653
0
LINE
8
BLACK
6
CONTINUOUS
10
158.376
20
-84.4653
11
158.506
21
-84.4912
0
LINE
8
BLACK
6
CONTINUOUS
10
170.078
20
-84.4912
11
170.2
21
-84.5419
0
LINE
8
BLACK
6
CONTINUOUS
10
170.2
20
-84.5419
11
170.311
21
-84.6156
0
LINE
8
BLACK
6
CONTINUOUS
10
170.311
20
-84.6156
11
170.404
21
-84.7093
0
LINE
8
BLACK
6
CONTINUOUS
10
170.404
20
-84.7093
11
170.478
21
-84.8196
0
LINE
8
BLACK
6
CONTINUOUS
10
170.478
20
-84.8196
11
170.529
21
-84.9421
0
LINE
8
BLACK
6
CONTINUOUS
10
170.529
20
-84.9421
11
170.555
21
-85.0721
0
LINE
8
BLACK
6
CONTINUOUS
10
170.555
20
-85.0721
11
170.555
21
-85.2047
0
LINE
8
BLACK
6
CONTINUOUS
10
170.555
20
-85.2047
11
170.529
21
-85.3347
0
LINE
8
BLACK
6
CONTINUOUS
10
170.529
20
-85.3347
11
170.478
21
-85.4572
0
LINE
8
BLACK
6
CONTINUOUS
10
170.478
20
-85.4572
11
170.404
21
-85.5675
0
LINE
8
BLACK
6
CONTINUOUS
10
170.404
20
-85.5675
11
170.311
21
-85.6612
0
LINE
8
BLACK
6
CONTINUOUS
10
170.311
20
-85.6612
11
170.2
21
-85.7349
0
LINE
8
BLACK
6
CONTINUOUS
10
170.2
20
-85.7349
11
170.078
21
-85.7856
0
LINE
8
BLACK
6
CONTINUOUS
10
170.078
20
-85.7856
11
169.948
21
-85.8115
0
LINE
8
BLACK
6
CONTINUOUS
10
169.948
20
-85.8115
11
169.815
21
-85.8115
0
LINE
8
BLACK
6
CONTINUOUS
10
169.815
20
-85.8115
11
169.685
21
-85.7856
0
LINE
8
BLACK
6
CONTINUOUS
10
169.685
20
-85.7856
11
169.563
21
-85.7349
0
LINE
8
BLACK
6
CONTINUOUS
10
169.563
20
-85.7349
11
169.452
21
-85.6612
0
LINE
8
BLACK
6
CONTINUOUS
10
169.452
20
-85.6612
11
169.359
21
-85.5675
0
LINE
8
BLACK
6
CONTINUOUS
10
169.359
20
-85.5675
11
169.285
21
-85.4572
0
LINE
8
BLACK
6
CONTINUOUS
10
169.285
20
-85.4572
11
169.234
21
-85.3347
0
LINE
8
BLACK
6
CONTINUOUS
10
169.234
20
-85.3347
11
169.208
21
-85.2047
0
LINE
8
BLACK
6
CONTINUOUS
10
169.208
20
-85.2047
11
169.208
21
-85.0721
0
LINE
8
BLACK
6
CONTINUOUS
10
169.208
20
-85.0721
11
169.234
21
-84.9421
0
LINE
8
BLACK
6
CONTINUOUS
10
169.234
20
-84.9421
11
169.285
21
-84.8196
0
LINE
8
BLACK
6
CONTINUOUS
10
169.285
20
-84.8196
11
169.359
21
-84.7093
0
LINE
8
BLACK
6
CONTINUOUS
10
169.359
20
-84.7093
11
169.452
21
-84.6156
0
LINE
8
BLACK
6
CONTINUOUS
10
169.452
20
-84.6156
11
169.563
21
-84.5419
0
LINE
8
BLACK
6
CONTINUOUS
10
169.563
20
-84.5419
11
169.685
21
-84.4912
0
LINE
8
BLACK
6
CONTINUOUS
10
169.685
20
-84.4912
11
169.815
21
-84.4653
0
LINE
8
BLACK
6
CONTINUOUS
10
169.815
20
-84.4653
11
169.948
21
-84.4653
0
LINE
8
BLACK
6
CONTINUOUS
10
169.948
20
-84.4653
11
170.078
21
-84.4912
0
LINE
8
BLACK
6
CONTINUOUS
10
152.467
20
-81.4615
11
152.758
21
-81.5821
0
LINE
8
BLACK
6
CONTINUOUS
10
152.758
20
-81.5821
11
153.02
21
-81.7572
0
LINE
8
BLACK
6
CONTINUOUS
10
153.02
20
-81.7572
11
153.243
21
-81.9801
0
LINE
8
BLACK
6
CONTINUOUS
10
153.243
20
-81.9801
11
153.418
21
-82.2421
0
LINE
8
BLACK
6
CONTINUOUS
10
153.418
20
-82.2421
11
153.539
21
-82.5333
0
LINE
8
BLACK
6
CONTINUOUS
10
153.539
20
-82.5333
11
153.6
21
-82.8424
0
LINE
8
BLACK
6
CONTINUOUS
10
153.6
20
-82.8424
11
153.6
21
-83.1576
0
LINE
8
BLACK
6
CONTINUOUS
10
153.6
20
-83.1576
11
153.539
21
-83.4667
0
LINE
8
BLACK
6
CONTINUOUS
10
153.539
20
-83.4667
11
153.418
21
-83.7579
0
LINE
8
BLACK
6
CONTINUOUS
10
153.418
20
-83.7579
11
153.243
21
-84.0199
0
LINE
8
BLACK
6
CONTINUOUS
10
153.243
20
-84.0199
11
153.02
21
-84.2428
0
LINE
8
BLACK
6
CONTINUOUS
10
153.02
20
-84.2428
11
152.758
21
-84.4179
0
LINE
8
BLACK
6
CONTINUOUS
10
152.758
20
-84.4179
11
152.467
21
-84.5385
0
LINE
8
BLACK
6
CONTINUOUS
10
152.467
20
-84.5385
11
152.158
21
-84.6
0
LINE
8
BLACK
6
CONTINUOUS
10
152.158
20
-84.6
11
151.842
21
-84.6
0
LINE
8
BLACK
6
CONTINUOUS
10
151.842
20
-84.6
11
151.533
21
-84.5385
0
LINE
8
BLACK
6
CONTINUOUS
10
151.533
20
-84.5385
11
151.242
21
-84.4179
0
LINE
8
BLACK
6
CONTINUOUS
10
151.242
20
-84.4179
11
150.98
21
-84.2428
0
LINE
8
BLACK
6
CONTINUOUS
10
150.98
20
-84.2428
11
150.757
21
-84.0199
0
LINE
8
BLACK
6
CONTINUOUS
10
150.757
20
-84.0199
11
150.582
21
-83.7579
0
LINE
8
BLACK
6
CONTINUOUS
10
150.582
20
-83.7579
11
150.461
21
-83.4667
0
LINE
8
BLACK
6
CONTINUOUS
10
150.461
20
-83.4667
11
150.4
21
-83.1576
0
LINE
8
BLACK
6
CONTINUOUS
10
150.4
20
-83.1576
11
150.4
21
-82.8424
0
LINE
8
BLACK
6
CONTINUOUS
10
150.4
20
-82.8424
11
150.461
21
-82.5333
0
LINE
8
BLACK
6
CONTINUOUS
10
150.461
20
-82.5333
11
150.582
21
-82.2421
0
LINE
8
BLACK
6
CONTINUOUS
10
150.582
20
-82.2421
11
150.757
21
-81.9801
0
LINE
8
BLACK
6
CONTINUOUS
10
150.757
20
-81.9801
11
150.98
21
-81.7572
0
LINE
8
BLACK
6
CONTINUOUS
10
150.98
20
-81.7572
11
151.242
21
-81.5821
0
LINE
8
BLACK
6
CONTINUOUS
10
151.242
20
-81.5821
11
151.533
21
-81.4615
0
LINE
8
BLACK
6
CONTINUOUS
10
151.533
20
-81.4615
11
151.842
21
-81.4
0
LINE
8
BLACK
6
CONTINUOUS
10
151.842
20
-81.4
11
152.158
21
-81.4
0
LINE
8
BLACK
6
CONTINUOUS
10
152.158
20
-81.4
11
152.467
21
-81.4615
0
LINE
8
BLACK
6
CONTINUOUS
10
176.667
20
-81.4615
11
176.958
21
-81.5821
0
LINE
8
BLACK
6
CONTINUOUS
10
176.958
20
-81.5821
11
177.22
21
-81.7572
0
LINE
8
BLACK
6
CONTINUOUS
10
177.22
20
-81.7572
11
177.443
21
-81.9801
0
LINE
8
BLACK
6
CONTINUOUS
10
177.443
20
-81.9801
11
177.618
21
-82.2421
0
LINE
8
BLACK
6
CONTINUOUS
10
177.618
20
-82.2421
11
177.739
21
-82.5333
0
LINE
8
BLACK
6
CONTINUOUS
10
177.739
20
-82.5333
11
177.8
21
-82.8424
0
LINE
8
BLACK
6
CONTINUOUS
10
177.8
20
-82.8424
11
177.8
21
-83.1576
0
LINE
8
BLACK
6
CONTINUOUS
10
177.8
20
-83.1576
11
177.739
21
-83.4667
0
LINE
8
BLACK
6
CONTINUOUS
10
177.739
20
-83.4667
11
177.618
21
-83.7579
0
LINE
8
BLACK
6
CONTINUOUS
10
177.618
20
-83.7579
11
177.443
21
-84.0199
0
LINE
8
BLACK
6
CONTINUOUS
10
177.443
20
-84.0199
11
177.22
21
-84.2428
0
LINE
8
BLACK
6
CONTINUOUS
10
177.22
20
-84.2428
11
176.958
21
-84.4179
0
LINE
8
BLACK
6
CONTINUOUS
10
176.958
20
-84.4179
11
176.667
21
-84.5385
0
LINE
8
BLACK
6
CONTINUOUS
10
176.667
20
-84.5385
11
176.358
21
-84.6
0
LINE
8
BLACK
6
CONTINUOUS
10
176.358
20
-84.6
11
176.042
21
-84.6
0
LINE
8
BLACK
6
CONTINUOUS
10
176.042
20
-84.6
11
175.733
21
-84.5385
0
LINE
8
BLACK
6
CONTINUOUS
10
175.733
20
-84.5385
11
175.442
21
-84.4179
0
LINE
8
BLACK
6
CONTINUOUS
10
175.442
20
-84.4179
11
175.18
21
-84.2428
0
LINE
8
BLACK
6
CONTINUOUS
10
175.18
20
-84.2428
11
174.957
21
-84.0199
0
LINE
8
BLACK
6
CONTINUOUS
10
174.957
20
-84.0199
11
174.782
21
-83.7579
0
LINE
8
BLACK
6
CONTINUOUS
10
174.782
20
-83.7579
11
174.661
21
-83.4667
0
LINE
8
BLACK
6
CONTINUOUS
10
174.661
20
-83.4667
11
174.6
21
-83.1576
0
LINE
8
BLACK
6
CONTINUOUS
10
174.6
20
-83.1576
11
174.6
21
-82.8424
0
LINE
8
BLACK
6
CONTINUOUS
10
174.6
20
-82.8424
11
174.661
21
-82.5333
0
LINE
8
BLACK
6
CONTINUOUS
10
174.661
20
-82.5333
11
174.782
21
-82.2421
0
LINE
8
BLACK
6
CONTINUOUS
10
174.782
20
-82.2421
11
174.957
21
-81.9801
0
LINE
8
BLACK
6
CONTINUOUS
10
174.957
20
-81.9801
11
175.18
21
-81.7572
0
LINE
8
BLACK
6
CONTINUOUS
10
175.18
20
-81.7572
11
175.442
21
-81.5821
0
LINE
8
BLACK
6
CONTINUOUS
10
175.442
20
-81.5821
11
175.733
21
-81.4615
0
LINE
8
BLACK
6
CONTINUOUS
10
175.733
20
-81.4615
11
176.042
21
-81.4
0
LINE
8
BLACK
6
CONTINUOUS
10
176.042
20
-81.4
11
176.358
21
-81.4
0
LINE
8
BLACK
6
CONTINUOUS
10
176.358
20
-81.4
11
176.667
21
-81.4615
0
LINE
8
BLACK
6
CONTINUOUS
10
160.187
20
-82.0528
11
160.31
21
-82.1035
0
LINE
8
BLACK
6
CONTINUOUS
10
160.31
20
-82.1035
11
160.42
21
-82.1772
0
LINE
8
BLACK
6
CONTINUOUS
10
160.42
20
-82.1772
11
160.514
21
-82.2709
0
LINE
8
BLACK
6
CONTINUOUS
10
160.514
20
-82.2709
11
160.587
21
-82.3812
0
LINE
8
BLACK
6
CONTINUOUS
10
160.587
20
-82.3812
11
160.638
21
-82.5037
0
LINE
8
BLACK
6
CONTINUOUS
10
160.638
20
-82.5037
11
160.664
21
-82.6337
0
LINE
8
BLACK
6
CONTINUOUS
10
160.664
20
-82.6337
11
160.664
21
-82.7663
0
LINE
8
BLACK
6
CONTINUOUS
10
160.664
20
-82.7663
11
160.638
21
-82.8963
0
LINE
8
BLACK
6
CONTINUOUS
10
160.638
20
-82.8963
11
160.587
21
-83.0188
0
LINE
8
BLACK
6
CONTINUOUS
10
160.587
20
-83.0188
11
160.514
21
-83.1291
0
LINE
8
BLACK
6
CONTINUOUS
10
160.514
20
-83.1291
11
160.42
21
-83.2228
0
LINE
8
BLACK
6
CONTINUOUS
10
160.42
20
-83.2228
11
160.31
21
-83.2965
0
LINE
8
BLACK
6
CONTINUOUS
10
160.31
20
-83.2965
11
160.187
21
-83.3472
0
LINE
8
BLACK
6
CONTINUOUS
10
160.187
20
-83.3472
11
160.057
21
-83.3731
0
LINE
8
BLACK
6
CONTINUOUS
10
160.057
20
-83.3731
11
159.924
21
-83.3731
0
LINE
8
BLACK
6
CONTINUOUS
10
159.924
20
-83.3731
11
159.794
21
-83.3472
0
LINE
8
BLACK
6
CONTINUOUS
10
159.794
20
-83.3472
11
159.672
21
-83.2965
0
LINE
8
BLACK
6
CONTINUOUS
10
159.672
20
-83.2965
11
159.562
21
-83.2228
0
LINE
8
BLACK
6
CONTINUOUS
10
159.562
20
-83.2228
11
159.468
21
-83.1291
0
LINE
8
BLACK
6
CONTINUOUS
10
159.468
20
-83.1291
11
159.394
21
-83.0188
0
LINE
8
BLACK
6
CONTINUOUS
10
159.394
20
-83.0188
11
159.343
21
-82.8963
0
LINE
8
BLACK
6
CONTINUOUS
10
159.343
20
-82.8963
11
159.318
21
-82.7663
0
LINE
8
BLACK
6
CONTINUOUS
10
159.318
20
-82.7663
11
159.318
21
-82.6337
0
LINE
8
BLACK
6
CONTINUOUS
10
159.318
20
-82.6337
11
159.343
21
-82.5037
0
LINE
8
BLACK
6
CONTINUOUS
10
159.343
20
-82.5037
11
159.394
21
-82.3812
0
LINE
8
BLACK
6
CONTINUOUS
10
159.394
20
-82.3812
11
159.468
21
-82.2709
0
LINE
8
BLACK
6
CONTINUOUS
10
159.468
20
-82.2709
11
159.562
21
-82.1772
0
LINE
8
BLACK
6
CONTINUOUS
10
159.562
20
-82.1772
11
159.672
21
-82.1035
0
LINE
8
BLACK
6
CONTINUOUS
10
159.672
20
-82.1035
11
159.794
21
-82.0528
0
LINE
8
BLACK
6
CONTINUOUS
10
159.794
20
-82.0528
11
159.924
21
-82.0269
0
LINE
8
BLACK
6
CONTINUOUS
10
159.924
20
-82.0269
11
160.057
21
-82.0269
0
LINE
8
BLACK
6
CONTINUOUS
10
160.057
20
-82.0269
11
160.187
21
-82.0528
0
LINE
8
BLACK
6
CONTINUOUS
10
168.396
20
-82.0528
11
168.519
21
-82.1035
0
LINE
8
BLACK
6
CONTINUOUS
10
168.519
20
-82.1035
11
168.629
21
-82.1772
0
LINE
8
BLACK
6
CONTINUOUS
10
168.629
20
-82.1772
11
168.723
21
-82.2709
0
LINE
8
BLACK
6
CONTINUOUS
10
168.723
20
-82.2709
11
168.796
21
-82.3812
0
LINE
8
BLACK
6
CONTINUOUS
10
168.796
20
-82.3812
11
168.847
21
-82.5037
0
LINE
8
BLACK
6
CONTINUOUS
10
168.847
20
-82.5037
11
168.873
21
-82.6337
0
LINE
8
BLACK
6
CONTINUOUS
10
168.873
20
-82.6337
11
168.873
21
-82.7663
0
LINE
8
BLACK
6
CONTINUOUS
10
168.873
20
-82.7663
11
168.847
21
-82.8963
0
LINE
8
BLACK
6
CONTINUOUS
10
168.847
20
-82.8963
11
168.796
21
-83.0188
0
LINE
8
BLACK
6
CONTINUOUS
10
168.796
20
-83.0188
11
168.723
21
-83.1291
0
LINE
8
BLACK
6
CONTINUOUS
10
168.723
20
-83.1291
11
168.629
21
-83.2228
0
LINE
8
BLACK
6
CONTINUOUS
10
168.629
20
-83.2228
11
168.519
21
-83.2965
0
LINE
8
BLACK
6
CONTINUOUS
10
168.519
20
-83.2965
11
168.396
21
-83.3472
0
LINE
8
BLACK
6
CONTINUOUS
10
168.396
20
-83.3472
11
168.266
21
-83.3731
0
LINE
8
BLACK
6
CONTINUOUS
10
168.266
20
-83.3731
11
168.134
21
-83.3731
0
LINE
8
BLACK
6
CONTINUOUS
10
168.134
20
-83.3731
11
168.004
21
-83.3472
0
LINE
8
BLACK
6
CONTINUOUS
10
168.004
20
-83.3472
11
167.881
21
-83.2965
0
LINE
8
BLACK
6
CONTINUOUS
10
167.881
20
-83.2965
11
167.771
21
-83.2228
0
LINE
8
BLACK
6
CONTINUOUS
10
167.771
20
-83.2228
11
167.677
21
-83.1291
0
LINE
8
BLACK
6
CONTINUOUS
10
167.677
20
-83.1291
11
167.604
21
-83.0188
0
LINE
8
BLACK
6
CONTINUOUS
10
167.604
20
-83.0188
11
167.553
21
-82.8963
0
LINE
8
BLACK
6
CONTINUOUS
10
167.553
20
-82.8963
11
167.527
21
-82.7663
0
LINE
8
BLACK
6
CONTINUOUS
10
167.527
20
-82.7663
11
167.527
21
-82.6337
0
LINE
8
BLACK
6
CONTINUOUS
10
167.527
20
-82.6337
11
167.553
21
-82.5037
0
LINE
8
BLACK
6
CONTINUOUS
10
167.553
20
-82.5037
11
167.604
21
-82.3812
0
LINE
8
BLACK
6
CONTINUOUS
10
167.604
20
-82.3812
11
167.677
21
-82.2709
0
LINE
8
BLACK
6
CONTINUOUS
10
167.677
20
-82.2709
11
167.771
21
-82.1772
0
LINE
8
BLACK
6
CONTINUOUS
10
167.771
20
-82.1772
11
167.881
21
-82.1035
0
LINE
8
BLACK
6
CONTINUOUS
10
167.881
20
-82.1035
11
168.004
21
-82.0528
0
LINE
8
BLACK
6
CONTINUOUS
10
168.004
20
-82.0528
11
168.134
21
-82.0269
0
LINE
8
BLACK
6
CONTINUOUS
10
168.134
20
-82.0269
11
168.266
21
-82.0269
0
LINE
8
BLACK
6
CONTINUOUS
10
168.266
20
-82.0269
11
168.396
21
-82.0528
0
LINE
8
BLACK
6
CONTINUOUS
10
162.811
20
-80.6761
11
162.933
21
-80.7268
0
LINE
8
BLACK
6
CONTINUOUS
10
162.933
20
-80.7268
11
163.044
21
-80.8005
0
LINE
8
BLACK
6
CONTINUOUS
10
163.044
20
-80.8005
11
163.137
21
-80.8942
0
LINE
8
BLACK
6
CONTINUOUS
10
163.137
20
-80.8942
11
163.211
21
-81.0045
0
LINE
8
BLACK
6
CONTINUOUS
10
163.211
20
-81.0045
11
163.262
21
-81.127
0
LINE
8
BLACK
6
CONTINUOUS
10
163.262
20
-81.127
11
163.288
21
-81.257
0
LINE
8
BLACK
6
CONTINUOUS
10
163.288
20
-81.257
11
163.288
21
-81.3896
0
LINE
8
BLACK
6
CONTINUOUS
10
163.288
20
-81.3896
11
163.262
21
-81.5197
0
LINE
8
BLACK
6
CONTINUOUS
10
163.262
20
-81.5197
11
163.211
21
-81.6422
0
LINE
8
BLACK
6
CONTINUOUS
10
163.211
20
-81.6422
11
163.137
21
-81.7524
0
LINE
8
BLACK
6
CONTINUOUS
10
163.137
20
-81.7524
11
163.044
21
-81.8462
0
LINE
8
BLACK
6
CONTINUOUS
10
163.044
20
-81.8462
11
162.933
21
-81.9198
0
LINE
8
BLACK
6
CONTINUOUS
10
162.933
20
-81.9198
11
162.811
21
-81.9706
0
LINE
8
BLACK
6
CONTINUOUS
10
162.811
20
-81.9706
11
162.681
21
-81.9964
0
LINE
8
BLACK
6
CONTINUOUS
10
162.681
20
-81.9964
11
162.548
21
-81.9964
0
LINE
8
BLACK
6
CONTINUOUS
10
162.548
20
-81.9964
11
162.418
21
-81.9706
0
LINE
8
BLACK
6
CONTINUOUS
10
162.418
20
-81.9706
11
162.296
21
-81.9198
0
LINE
8
BLACK
6
CONTINUOUS
10
162.296
20
-81.9198
11
162.185
21
-81.8462
0
LINE
8
BLACK
6
CONTINUOUS
10
162.185
20
-81.8462
11
162.092
21
-81.7524
0
LINE
8
BLACK
6
CONTINUOUS
10
162.092
20
-81.7524
11
162.018
21
-81.6422
0
LINE
8
BLACK
6
CONTINUOUS
10
162.018
20
-81.6422
11
161.967
21
-81.5197
0
LINE
8
BLACK
6
CONTINUOUS
10
161.967
20
-81.5197
11
161.941
21
-81.3896
0
LINE
8
BLACK
6
CONTINUOUS
10
161.941
20
-81.3896
11
161.941
21
-81.257
0
LINE
8
BLACK
6
CONTINUOUS
10
161.941
20
-81.257
11
161.967
21
-81.127
0
LINE
8
BLACK
6
CONTINUOUS
10
161.967
20
-81.127
11
162.018
21
-81.0045
0
LINE
8
BLACK
6
CONTINUOUS
10
162.018
20
-81.0045
11
162.092
21
-80.8942
0
LINE
8
BLACK
6
CONTINUOUS
10
162.092
20
-80.8942
11
162.185
21
-80.8005
0
LINE
8
BLACK
6
CONTINUOUS
10
162.185
20
-80.8005
11
162.296
21
-80.7268
0
LINE
8
BLACK
6
CONTINUOUS
10
162.296
20
-80.7268
11
162.418
21
-80.6761
0
LINE
8
BLACK
6
CONTINUOUS
10
162.418
20
-80.6761
11
162.548
21
-80.6502
0
LINE
8
BLACK
6
CONTINUOUS
10
162.548
20
-80.6502
11
162.681
21
-80.6502
0
LINE
8
BLACK
6
CONTINUOUS
10
162.681
20
-80.6502
11
162.811
21
-80.6761
0
LINE
8
BLACK
6
CONTINUOUS
10
165.773
20
-80.6761
11
165.895
21
-80.7268
0
LINE
8
BLACK
6
CONTINUOUS
10
165.895
20
-80.7268
11
166.005
21
-80.8005
0
LINE
8
BLACK
6
CONTINUOUS
10
166.005
20
-80.8005
11
166.099
21
-80.8942
0
LINE
8
BLACK
6
CONTINUOUS
10
166.099
20
-80.8942
11
166.173
21
-81.0045
0
LINE
8
BLACK
6
CONTINUOUS
10
166.173
20
-81.0045
11
166.223
21
-81.127
0
LINE
8
BLACK
6
CONTINUOUS
10
166.223
20
-81.127
11
166.249
21
-81.257
0
LINE
8
BLACK
6
CONTINUOUS
10
166.249
20
-81.257
11
166.249
21
-81.3896
0
LINE
8
BLACK
6
CONTINUOUS
10
166.249
20
-81.3896
11
166.223
21
-81.5197
0
LINE
8
BLACK
6
CONTINUOUS
10
166.223
20
-81.5197
11
166.173
21
-81.6422
0
LINE
8
BLACK
6
CONTINUOUS
10
166.173
20
-81.6422
11
166.099
21
-81.7524
0
LINE
8
BLACK
6
CONTINUOUS
10
166.099
20
-81.7524
11
166.005
21
-81.8462
0
LINE
8
BLACK
6
CONTINUOUS
10
166.005
20
-81.8462
11
165.895
21
-81.9198
0
LINE
8
BLACK
6
CONTINUOUS
10
165.895
20
-81.9198
11
165.773
21
-81.9706
0
LINE
8
BLACK
6
CONTINUOUS
10
165.773
20
-81.9706
11
165.642
21
-81.9964
0
LINE
8
BLACK
6
CONTINUOUS
10
165.642
20
-81.9964
11
165.51
21
-81.9964
0
LINE
8
BLACK
6
CONTINUOUS
10
165.51
20
-81.9964
11
165.38
21
-81.9706
0
LINE
8
BLACK
6
CONTINUOUS
10
165.38
20
-81.9706
11
165.257
21
-81.9198
0
LINE
8
BLACK
6
CONTINUOUS
10
165.257
20
-81.9198
11
165.147
21
-81.8462
0
LINE
8
BLACK
6
CONTINUOUS
10
165.147
20
-81.8462
11
165.053
21
-81.7524
0
LINE
8
BLACK
6
CONTINUOUS
10
165.053
20
-81.7524
11
164.98
21
-81.6422
0
LINE
8
BLACK
6
CONTINUOUS
10
164.98
20
-81.6422
11
164.929
21
-81.5197
0
LINE
8
BLACK
6
CONTINUOUS
10
164.929
20
-81.5197
11
164.903
21
-81.3896
0
LINE
8
BLACK
6
CONTINUOUS
10
164.903
20
-81.3896
11
164.903
21
-81.257
0
LINE
8
BLACK
6
CONTINUOUS
10
164.903
20
-81.257
11
164.929
21
-81.127
0
LINE
8
BLACK
6
CONTINUOUS
10
164.929
20
-81.127
11
164.98
21
-81.0045
0
LINE
8
BLACK
6
CONTINUOUS
10
164.98
20
-81.0045
11
165.053
21
-80.8942
0
LINE
8
BLACK
6
CONTINUOUS
10
165.053
20
-80.8942
11
165.147
21
-80.8005
0
LINE
8
BLACK
6
CONTINUOUS
10
165.147
20
-80.8005
11
165.257
21
-80.7268
0
LINE
8
BLACK
6
CONTINUOUS
10
165.257
20
-80.7268
11
165.38
21
-80.6761
0
LINE
8
BLACK
6
CONTINUOUS
10
165.38
20
-80.6761
11
165.51
21
-80.6502
0
LINE
8
BLACK
6
CONTINUOUS
10
165.51
20
-80.6502
11
165.642
21
-80.6502
0
LINE
8
BLACK
6
CONTINUOUS
10
165.642
20
-80.6502
11
165.773
21
-80.6761
0
CIRCLE
8
BLACK
10
162.7
20
-105.9
40
0.2
0
CIRCLE
8
BLACK
10
166.375
20
-104.429
40
0.2
0
CIRCLE
8
BLACK
10
171
20
-102.3
40
0.2
0
CIRCLE
8
BLACK
10
170.2
20
-101.3
40
0.2
0
CIRCLE
8
BLACK
10
163.7
20
-105
40
0.2
0
CIRCLE
8
BLACK
10
164.6
20
-99
40
0.2
0
CIRCLE
8
BLACK
10
163.3
20
-97.7
40
0.2
0
CIRCLE
8
BLACK
10
160.1
20
-97.6
40
0.2
0
CIRCLE
8
BLACK
10
157.3
20
-96.4
40
0.2
0
CIRCLE
8
BLACK
10
157
20
-95.3
40
0.2
0
CIRCLE
8
BLACK
10
154.906
20
-94.4935
40
0.2
  0
ENDSEC
  0
EOF
