  0
SECTION
  2
HEADER
  9
$ANGBASE
  50
0.0
  9
$ANGDIR
  70
  1
  9
$MEASUREMENT
  70
0
  0
ENDSEC
  0
SECTION
  2
TABLES
  0
TABLE
  2
LTYPE
  70
4
  0
LTYPE
  5
40F
  2
CONTINUOUS
  70
0
  3
Solid line
  72
65
  73
0
  40
0.0
  0
LTYPE
  5
410
  2
DASHDOT
 70
0
  3
Dash Dot ____ _ ____ _
 72
65
 73
4
 40
2.0
 49
1.25
 49
-0.25
 49
0.25
 49
-0.25
  0
LTYPE
  5
411
  2
DASHED
 70
0
  3
Dashed __ __ __ __ __
 72
65
 73
2
 40
0.75
 49
0.5
 49
-0.25
  0
LTYPE
  5
43B
  2
DOTTED
 70
0
  3
Dotted .  .  .  .
 72
65
 73
2
 40
0.2
 49
0.0
 49
-0.2
  0
ENDTAB
  0
TABLE
  2
STYLE
  70
4
  0
STYLE
  2
KICAD
  70
0
  40
0
  41
1
  42
1
  50
0
  71
0
  3
isocp.shx
  0
STYLE
  2
KICADB
  70
0
  40
0
  41
1
  42
1
  50
0
  71
0
  3
isocp.shx
  0
STYLE
  2
KICADI
  70
0
  40
0
  41
1
  42
1
  50
15
  71
0
  3
isocp.shx
  0
STYLE
  2
KICADBI
  70
0
  40
0
  41
1
  42
1
  50
15
  71
0
  3
isocp.shx
  0
ENDTAB
  0
TABLE
  2
LAYER
  70
30
  0
LAYER
  2
BLACK
  70
0
  62
7
  6
CONTINUOUS
  0
LAYER
  2
GRAY1
  70
0
  62
251
  6
CONTINUOUS
  0
LAYER
  2
GRAY2
  70
0
  62
8
  6
CONTINUOUS
  0
LAYER
  2
GRAY3
  70
0
  62
9
  6
CONTINUOUS
  0
LAYER
  2
WHITE
  70
0
  62
7
  6
CONTINUOUS
  0
LAYER
  2
LYELLOW
  70
0
  62
51
  6
CONTINUOUS
  0
LAYER
  2
BLUE1
  70
0
  62
178
  6
CONTINUOUS
  0
LAYER
  2
GREEN1
  70
0
  62
98
  6
CONTINUOUS
  0
LAYER
  2
CYAN1
  70
0
  62
138
  6
CONTINUOUS
  0
LAYER
  2
RED1
  70
0
  62
18
  6
CONTINUOUS
  0
LAYER
  2
MAGENTA1
  70
0
  62
228
  6
CONTINUOUS
  0
LAYER
  2
BROWN1
  70
0
  62
58
  6
CONTINUOUS
  0
LAYER
  2
BLUE2
  70
0
  62
5
  6
CONTINUOUS
  0
LAYER
  2
GREEN2
  70
0
  62
3
  6
CONTINUOUS
  0
LAYER
  2
CYAN2
  70
0
  62
4
  6
CONTINUOUS
  0
LAYER
  2
RED2
  70
0
  62
1
  6
CONTINUOUS
  0
LAYER
  2
MAGENTA2
  70
0
  62
6
  6
CONTINUOUS
  0
LAYER
  2
BROWN2
  70
0
  62
54
  6
CONTINUOUS
  0
LAYER
  2
BLUE3
  70
0
  62
171
  6
CONTINUOUS
  0
LAYER
  2
GREEN3
  70
0
  62
91
  6
CONTINUOUS
  0
LAYER
  2
CYAN3
  70
0
  62
131
  6
CONTINUOUS
  0
LAYER
  2
RED3
  70
0
  62
11
  6
CONTINUOUS
  0
LAYER
  2
MAGENTA3
  70
0
  62
221
  6
CONTINUOUS
  0
LAYER
  2
YELLOW3
  70
0
  62
2
  6
CONTINUOUS
  0
LAYER
  2
BLUE4
  70
0
  62
5
  6
CONTINUOUS
  0
LAYER
  2
GREEN4
  70
0
  62
3
  6
CONTINUOUS
  0
LAYER
  2
CYAN4
  70
0
  62
4
  6
CONTINUOUS
  0
LAYER
  2
RED4
  70
0
  62
1
  6
CONTINUOUS
  0
LAYER
  2
MAGENTA4
  70
0
  62
6
  6
CONTINUOUS
  0
LAYER
  2
YELLOW4
  70
0
  62
2
  6
CONTINUOUS
  0
ENDTAB
  0
ENDSEC
  0
SECTION
  2
ENTITIES
0
LINE
8
BLACK
6
CONTINUOUS
10
177.071
20
-101.478
11
177.142
21
-101.485
0
LINE
8
BLACK
6
CONTINUOUS
10
177.142
20
-101.485
11
177.279
21
-101.526
0
LINE
8
BLACK
6
CONTINUOUS
10
177.279
20
-101.526
11
177.279
21
-101.526
0
LINE
8
BLACK
6
CONTINUOUS
10
177.279
20
-101.526
11
177.405
21
-101.593
0
LINE
8
BLACK
6
CONTINUOUS
10
177.405
20
-101.593
11
177.516
21
-101.684
0
LINE
8
BLACK
6
CONTINUOUS
10
177.516
20
-101.684
11
177.607
21
-101.795
0
LINE
8
BLACK
6
CONTINUOUS
10
177.607
20
-101.795
11
177.674
21
-101.921
0
LINE
8
BLACK
6
CONTINUOUS
10
177.674
20
-101.921
11
177.674
21
-101.921
0
LINE
8
BLACK
6
CONTINUOUS
10
177.674
20
-101.921
11
177.715
21
-102.058
0
LINE
8
BLACK
6
CONTINUOUS
10
177.715
20
-102.058
11
177.73
21
-102.2
0
LINE
8
BLACK
6
CONTINUOUS
10
177.73
20
-102.2
11
177.715
21
-102.342
0
LINE
8
BLACK
6
CONTINUOUS
10
177.715
20
-102.342
11
177.679
21
-102.463
0
LINE
8
BLACK
6
CONTINUOUS
10
177.679
20
-102.463
11
177.674
21
-102.479
0
LINE
8
BLACK
6
CONTINUOUS
10
177.674
20
-102.479
11
177.607
21
-102.605
0
LINE
8
BLACK
6
CONTINUOUS
10
177.607
20
-102.605
11
177.516
21
-102.716
0
LINE
8
BLACK
6
CONTINUOUS
10
177.516
20
-102.716
11
177.405
21
-102.807
0
LINE
8
BLACK
6
CONTINUOUS
10
177.405
20
-102.807
11
177.279
21
-102.874
0
LINE
8
BLACK
6
CONTINUOUS
10
177.279
20
-102.874
11
177.279
21
-102.874
0
LINE
8
BLACK
6
CONTINUOUS
10
177.279
20
-102.874
11
177.142
21
-102.915
0
LINE
8
BLACK
6
CONTINUOUS
10
177.142
20
-102.915
11
177.071
21
-102.922
0
LINE
8
BLACK
6
CONTINUOUS
10
177.071
20
-102.922
11
177.036
21
-102.926
0
LINE
8
BLACK
6
CONTINUOUS
10
177.036
20
-102.926
11
176.964
21
-102.926
0
LINE
8
BLACK
6
CONTINUOUS
10
176.964
20
-102.926
11
176.929
21
-102.922
0
LINE
8
BLACK
6
CONTINUOUS
10
176.929
20
-102.922
11
176.858
21
-102.915
0
LINE
8
BLACK
6
CONTINUOUS
10
176.858
20
-102.915
11
176.721
21
-102.874
0
LINE
8
BLACK
6
CONTINUOUS
10
176.721
20
-102.874
11
176.721
21
-102.874
0
LINE
8
BLACK
6
CONTINUOUS
10
176.721
20
-102.874
11
176.595
21
-102.807
0
LINE
8
BLACK
6
CONTINUOUS
10
176.595
20
-102.807
11
176.484
21
-102.716
0
LINE
8
BLACK
6
CONTINUOUS
10
176.484
20
-102.716
11
176.393
21
-102.605
0
LINE
8
BLACK
6
CONTINUOUS
10
176.393
20
-102.605
11
176.326
21
-102.479
0
LINE
8
BLACK
6
CONTINUOUS
10
176.326
20
-102.479
11
176.321
21
-102.463
0
LINE
8
BLACK
6
CONTINUOUS
10
176.321
20
-102.463
11
176.285
21
-102.342
0
LINE
8
BLACK
6
CONTINUOUS
10
176.285
20
-102.342
11
176.27
21
-102.2
0
LINE
8
BLACK
6
CONTINUOUS
10
176.27
20
-102.2
11
176.285
21
-102.058
0
LINE
8
BLACK
6
CONTINUOUS
10
176.285
20
-102.058
11
176.326
21
-101.921
0
LINE
8
BLACK
6
CONTINUOUS
10
176.326
20
-101.921
11
176.326
21
-101.921
0
LINE
8
BLACK
6
CONTINUOUS
10
176.326
20
-101.921
11
176.393
21
-101.795
0
LINE
8
BLACK
6
CONTINUOUS
10
176.393
20
-101.795
11
176.484
21
-101.684
0
LINE
8
BLACK
6
CONTINUOUS
10
176.484
20
-101.684
11
176.595
21
-101.593
0
LINE
8
BLACK
6
CONTINUOUS
10
176.595
20
-101.593
11
176.721
21
-101.526
0
LINE
8
BLACK
6
CONTINUOUS
10
176.721
20
-101.526
11
176.721
21
-101.526
0
LINE
8
BLACK
6
CONTINUOUS
10
176.721
20
-101.526
11
176.858
21
-101.485
0
LINE
8
BLACK
6
CONTINUOUS
10
176.858
20
-101.485
11
176.929
21
-101.478
0
LINE
8
BLACK
6
CONTINUOUS
10
176.929
20
-101.478
11
176.964
21
-101.474
0
LINE
8
BLACK
6
CONTINUOUS
10
176.964
20
-101.474
11
177.036
21
-101.474
0
LINE
8
BLACK
6
CONTINUOUS
10
177.036
20
-101.474
11
177.071
21
-101.478
0
LINE
8
BLACK
6
CONTINUOUS
10
175.071
20
-101.478
11
175.142
21
-101.485
0
LINE
8
BLACK
6
CONTINUOUS
10
175.142
20
-101.485
11
175.279
21
-101.526
0
LINE
8
BLACK
6
CONTINUOUS
10
175.279
20
-101.526
11
175.279
21
-101.526
0
LINE
8
BLACK
6
CONTINUOUS
10
175.279
20
-101.526
11
175.405
21
-101.593
0
LINE
8
BLACK
6
CONTINUOUS
10
175.405
20
-101.593
11
175.516
21
-101.684
0
LINE
8
BLACK
6
CONTINUOUS
10
175.516
20
-101.684
11
175.607
21
-101.795
0
LINE
8
BLACK
6
CONTINUOUS
10
175.607
20
-101.795
11
175.674
21
-101.921
0
LINE
8
BLACK
6
CONTINUOUS
10
175.674
20
-101.921
11
175.674
21
-101.921
0
LINE
8
BLACK
6
CONTINUOUS
10
175.674
20
-101.921
11
175.715
21
-102.058
0
LINE
8
BLACK
6
CONTINUOUS
10
175.715
20
-102.058
11
175.73
21
-102.2
0
LINE
8
BLACK
6
CONTINUOUS
10
175.73
20
-102.2
11
175.715
21
-102.342
0
LINE
8
BLACK
6
CONTINUOUS
10
175.715
20
-102.342
11
175.679
21
-102.463
0
LINE
8
BLACK
6
CONTINUOUS
10
175.679
20
-102.463
11
175.674
21
-102.479
0
LINE
8
BLACK
6
CONTINUOUS
10
175.674
20
-102.479
11
175.607
21
-102.605
0
LINE
8
BLACK
6
CONTINUOUS
10
175.607
20
-102.605
11
175.516
21
-102.716
0
LINE
8
BLACK
6
CONTINUOUS
10
175.516
20
-102.716
11
175.405
21
-102.807
0
LINE
8
BLACK
6
CONTINUOUS
10
175.405
20
-102.807
11
175.279
21
-102.874
0
LINE
8
BLACK
6
CONTINUOUS
10
175.279
20
-102.874
11
175.279
21
-102.874
0
LINE
8
BLACK
6
CONTINUOUS
10
175.279
20
-102.874
11
175.142
21
-102.915
0
LINE
8
BLACK
6
CONTINUOUS
10
175.142
20
-102.915
11
175.071
21
-102.922
0
LINE
8
BLACK
6
CONTINUOUS
10
175.071
20
-102.922
11
175.036
21
-102.926
0
LINE
8
BLACK
6
CONTINUOUS
10
175.036
20
-102.926
11
174.964
21
-102.926
0
LINE
8
BLACK
6
CONTINUOUS
10
174.964
20
-102.926
11
174.929
21
-102.922
0
LINE
8
BLACK
6
CONTINUOUS
10
174.929
20
-102.922
11
174.858
21
-102.915
0
LINE
8
BLACK
6
CONTINUOUS
10
174.858
20
-102.915
11
174.721
21
-102.874
0
LINE
8
BLACK
6
CONTINUOUS
10
174.721
20
-102.874
11
174.721
21
-102.874
0
LINE
8
BLACK
6
CONTINUOUS
10
174.721
20
-102.874
11
174.595
21
-102.807
0
LINE
8
BLACK
6
CONTINUOUS
10
174.595
20
-102.807
11
174.484
21
-102.716
0
LINE
8
BLACK
6
CONTINUOUS
10
174.484
20
-102.716
11
174.393
21
-102.605
0
LINE
8
BLACK
6
CONTINUOUS
10
174.393
20
-102.605
11
174.326
21
-102.479
0
LINE
8
BLACK
6
CONTINUOUS
10
174.326
20
-102.479
11
174.321
21
-102.463
0
LINE
8
BLACK
6
CONTINUOUS
10
174.321
20
-102.463
11
174.285
21
-102.342
0
LINE
8
BLACK
6
CONTINUOUS
10
174.285
20
-102.342
11
174.27
21
-102.2
0
LINE
8
BLACK
6
CONTINUOUS
10
174.27
20
-102.2
11
174.285
21
-102.058
0
LINE
8
BLACK
6
CONTINUOUS
10
174.285
20
-102.058
11
174.326
21
-101.921
0
LINE
8
BLACK
6
CONTINUOUS
10
174.326
20
-101.921
11
174.326
21
-101.921
0
LINE
8
BLACK
6
CONTINUOUS
10
174.326
20
-101.921
11
174.393
21
-101.795
0
LINE
8
BLACK
6
CONTINUOUS
10
174.393
20
-101.795
11
174.484
21
-101.684
0
LINE
8
BLACK
6
CONTINUOUS
10
174.484
20
-101.684
11
174.595
21
-101.593
0
LINE
8
BLACK
6
CONTINUOUS
10
174.595
20
-101.593
11
174.721
21
-101.526
0
LINE
8
BLACK
6
CONTINUOUS
10
174.721
20
-101.526
11
174.721
21
-101.526
0
LINE
8
BLACK
6
CONTINUOUS
10
174.721
20
-101.526
11
174.858
21
-101.485
0
LINE
8
BLACK
6
CONTINUOUS
10
174.858
20
-101.485
11
174.929
21
-101.478
0
LINE
8
BLACK
6
CONTINUOUS
10
174.929
20
-101.478
11
174.964
21
-101.474
0
LINE
8
BLACK
6
CONTINUOUS
10
174.964
20
-101.474
11
175.036
21
-101.474
0
LINE
8
BLACK
6
CONTINUOUS
10
175.036
20
-101.474
11
175.071
21
-101.478
0
LINE
8
BLACK
6
CONTINUOUS
10
152.375
20
-99.3913
11
152.482
21
-99.4124
0
LINE
8
BLACK
6
CONTINUOUS
10
152.482
20
-99.4124
11
152.782
21
-99.5369
0
LINE
8
BLACK
6
CONTINUOUS
10
152.782
20
-99.5369
11
153.052
21
-99.7176
0
LINE
8
BLACK
6
CONTINUOUS
10
153.052
20
-99.7176
11
153.282
21
-99.9475
0
LINE
8
BLACK
6
CONTINUOUS
10
153.282
20
-99.9475
11
153.463
21
-100.218
0
LINE
8
BLACK
6
CONTINUOUS
10
153.463
20
-100.218
11
153.588
21
-100.518
0
LINE
8
BLACK
6
CONTINUOUS
10
153.588
20
-100.518
11
153.651
21
-100.837
0
LINE
8
BLACK
6
CONTINUOUS
10
153.651
20
-100.837
11
153.651
21
-101.163
0
LINE
8
BLACK
6
CONTINUOUS
10
153.651
20
-101.163
11
153.588
21
-101.482
0
LINE
8
BLACK
6
CONTINUOUS
10
153.588
20
-101.482
11
153.463
21
-101.782
0
LINE
8
BLACK
6
CONTINUOUS
10
153.463
20
-101.782
11
153.282
21
-102.052
0
LINE
8
BLACK
6
CONTINUOUS
10
153.282
20
-102.052
11
153.052
21
-102.282
0
LINE
8
BLACK
6
CONTINUOUS
10
153.052
20
-102.282
11
152.782
21
-102.463
0
LINE
8
BLACK
6
CONTINUOUS
10
152.782
20
-102.463
11
152.782
21
-102.463
0
LINE
8
BLACK
6
CONTINUOUS
10
152.782
20
-102.463
11
152.782
21
-102.463
0
LINE
8
BLACK
6
CONTINUOUS
10
152.782
20
-102.463
11
152.694
21
-102.5
0
LINE
8
BLACK
6
CONTINUOUS
10
152.694
20
-102.5
11
152.482
21
-102.588
0
LINE
8
BLACK
6
CONTINUOUS
10
152.482
20
-102.588
11
152.392
21
-102.605
0
LINE
8
BLACK
6
CONTINUOUS
10
152.392
20
-102.605
11
152.163
21
-102.651
0
LINE
8
BLACK
6
CONTINUOUS
10
152.163
20
-102.651
11
151.837
21
-102.651
0
LINE
8
BLACK
6
CONTINUOUS
10
151.837
20
-102.651
11
151.608
21
-102.605
0
LINE
8
BLACK
6
CONTINUOUS
10
151.608
20
-102.605
11
151.518
21
-102.588
0
LINE
8
BLACK
6
CONTINUOUS
10
151.518
20
-102.588
11
151.306
21
-102.5
0
LINE
8
BLACK
6
CONTINUOUS
10
151.306
20
-102.5
11
151.218
21
-102.463
0
LINE
8
BLACK
6
CONTINUOUS
10
151.218
20
-102.463
11
151.218
21
-102.463
0
LINE
8
BLACK
6
CONTINUOUS
10
151.218
20
-102.463
11
151.218
21
-102.463
0
LINE
8
BLACK
6
CONTINUOUS
10
151.218
20
-102.463
11
150.948
21
-102.282
0
LINE
8
BLACK
6
CONTINUOUS
10
150.948
20
-102.282
11
150.718
21
-102.052
0
LINE
8
BLACK
6
CONTINUOUS
10
150.718
20
-102.052
11
150.537
21
-101.782
0
LINE
8
BLACK
6
CONTINUOUS
10
150.537
20
-101.782
11
150.412
21
-101.482
0
LINE
8
BLACK
6
CONTINUOUS
10
150.412
20
-101.482
11
150.349
21
-101.163
0
LINE
8
BLACK
6
CONTINUOUS
10
150.349
20
-101.163
11
150.349
21
-100.837
0
LINE
8
BLACK
6
CONTINUOUS
10
150.349
20
-100.837
11
150.412
21
-100.518
0
LINE
8
BLACK
6
CONTINUOUS
10
150.412
20
-100.518
11
150.537
21
-100.218
0
LINE
8
BLACK
6
CONTINUOUS
10
150.537
20
-100.218
11
150.718
21
-99.9475
0
LINE
8
BLACK
6
CONTINUOUS
10
150.718
20
-99.9475
11
150.948
21
-99.7176
0
LINE
8
BLACK
6
CONTINUOUS
10
150.948
20
-99.7176
11
151.218
21
-99.5369
0
LINE
8
BLACK
6
CONTINUOUS
10
151.218
20
-99.5369
11
151.518
21
-99.4124
0
LINE
8
BLACK
6
CONTINUOUS
10
151.518
20
-99.4124
11
151.625
21
-99.3913
0
LINE
8
BLACK
6
CONTINUOUS
10
151.625
20
-99.3913
11
151.837
21
-99.349
0
LINE
8
BLACK
6
CONTINUOUS
10
151.837
20
-99.349
11
152.163
21
-99.349
0
LINE
8
BLACK
6
CONTINUOUS
10
152.163
20
-99.349
11
152.375
21
-99.3913
0
LINE
8
BLACK
6
CONTINUOUS
10
175.071
20
-99.4775
11
175.142
21
-99.4845
0
LINE
8
BLACK
6
CONTINUOUS
10
175.142
20
-99.4845
11
175.279
21
-99.526
0
LINE
8
BLACK
6
CONTINUOUS
10
175.279
20
-99.526
11
175.279
21
-99.526
0
LINE
8
BLACK
6
CONTINUOUS
10
175.279
20
-99.526
11
175.405
21
-99.5934
0
LINE
8
BLACK
6
CONTINUOUS
10
175.405
20
-99.5934
11
175.516
21
-99.6842
0
LINE
8
BLACK
6
CONTINUOUS
10
175.516
20
-99.6842
11
175.607
21
-99.7947
0
LINE
8
BLACK
6
CONTINUOUS
10
175.607
20
-99.7947
11
175.674
21
-99.9208
0
LINE
8
BLACK
6
CONTINUOUS
10
175.674
20
-99.9208
11
175.674
21
-99.9208
0
LINE
8
BLACK
6
CONTINUOUS
10
175.674
20
-99.9208
11
175.715
21
-100.058
0
LINE
8
BLACK
6
CONTINUOUS
10
175.715
20
-100.058
11
175.73
21
-100.2
0
LINE
8
BLACK
6
CONTINUOUS
10
175.73
20
-100.2
11
175.715
21
-100.342
0
LINE
8
BLACK
6
CONTINUOUS
10
175.715
20
-100.342
11
175.674
21
-100.479
0
LINE
8
BLACK
6
CONTINUOUS
10
175.674
20
-100.479
11
175.674
21
-100.479
0
LINE
8
BLACK
6
CONTINUOUS
10
175.674
20
-100.479
11
175.607
21
-100.605
0
LINE
8
BLACK
6
CONTINUOUS
10
175.607
20
-100.605
11
175.516
21
-100.716
0
LINE
8
BLACK
6
CONTINUOUS
10
175.516
20
-100.716
11
175.405
21
-100.807
0
LINE
8
BLACK
6
CONTINUOUS
10
175.405
20
-100.807
11
175.279
21
-100.874
0
LINE
8
BLACK
6
CONTINUOUS
10
175.279
20
-100.874
11
175.279
21
-100.874
0
LINE
8
BLACK
6
CONTINUOUS
10
175.279
20
-100.874
11
175.142
21
-100.915
0
LINE
8
BLACK
6
CONTINUOUS
10
175.142
20
-100.915
11
175.071
21
-100.922
0
LINE
8
BLACK
6
CONTINUOUS
10
175.071
20
-100.922
11
175.036
21
-100.926
0
LINE
8
BLACK
6
CONTINUOUS
10
175.036
20
-100.926
11
174.964
21
-100.926
0
LINE
8
BLACK
6
CONTINUOUS
10
174.964
20
-100.926
11
174.929
21
-100.922
0
LINE
8
BLACK
6
CONTINUOUS
10
174.929
20
-100.922
11
174.858
21
-100.915
0
LINE
8
BLACK
6
CONTINUOUS
10
174.858
20
-100.915
11
174.721
21
-100.874
0
LINE
8
BLACK
6
CONTINUOUS
10
174.721
20
-100.874
11
174.721
21
-100.874
0
LINE
8
BLACK
6
CONTINUOUS
10
174.721
20
-100.874
11
174.595
21
-100.807
0
LINE
8
BLACK
6
CONTINUOUS
10
174.595
20
-100.807
11
174.484
21
-100.716
0
LINE
8
BLACK
6
CONTINUOUS
10
174.484
20
-100.716
11
174.393
21
-100.605
0
LINE
8
BLACK
6
CONTINUOUS
10
174.393
20
-100.605
11
174.326
21
-100.479
0
LINE
8
BLACK
6
CONTINUOUS
10
174.326
20
-100.479
11
174.326
21
-100.479
0
LINE
8
BLACK
6
CONTINUOUS
10
174.326
20
-100.479
11
174.285
21
-100.342
0
LINE
8
BLACK
6
CONTINUOUS
10
174.285
20
-100.342
11
174.27
21
-100.2
0
LINE
8
BLACK
6
CONTINUOUS
10
174.27
20
-100.2
11
174.285
21
-100.058
0
LINE
8
BLACK
6
CONTINUOUS
10
174.285
20
-100.058
11
174.326
21
-99.9208
0
LINE
8
BLACK
6
CONTINUOUS
10
174.326
20
-99.9208
11
174.326
21
-99.9208
0
LINE
8
BLACK
6
CONTINUOUS
10
174.326
20
-99.9208
11
174.393
21
-99.7947
0
LINE
8
BLACK
6
CONTINUOUS
10
174.393
20
-99.7947
11
174.484
21
-99.6842
0
LINE
8
BLACK
6
CONTINUOUS
10
174.484
20
-99.6842
11
174.595
21
-99.5934
0
LINE
8
BLACK
6
CONTINUOUS
10
174.595
20
-99.5934
11
174.721
21
-99.526
0
LINE
8
BLACK
6
CONTINUOUS
10
174.721
20
-99.526
11
174.721
21
-99.526
0
LINE
8
BLACK
6
CONTINUOUS
10
174.721
20
-99.526
11
174.858
21
-99.4845
0
LINE
8
BLACK
6
CONTINUOUS
10
174.858
20
-99.4845
11
174.929
21
-99.4775
0
LINE
8
BLACK
6
CONTINUOUS
10
174.929
20
-99.4775
11
174.964
21
-99.474
0
LINE
8
BLACK
6
CONTINUOUS
10
174.964
20
-99.474
11
175.036
21
-99.474
0
LINE
8
BLACK
6
CONTINUOUS
10
175.036
20
-99.474
11
175.071
21
-99.4775
0
LINE
8
BLACK
6
CONTINUOUS
10
177.071
20
-99.4775
11
177.142
21
-99.4845
0
LINE
8
BLACK
6
CONTINUOUS
10
177.142
20
-99.4845
11
177.279
21
-99.526
0
LINE
8
BLACK
6
CONTINUOUS
10
177.279
20
-99.526
11
177.279
21
-99.526
0
LINE
8
BLACK
6
CONTINUOUS
10
177.279
20
-99.526
11
177.405
21
-99.5934
0
LINE
8
BLACK
6
CONTINUOUS
10
177.405
20
-99.5934
11
177.516
21
-99.6842
0
LINE
8
BLACK
6
CONTINUOUS
10
177.516
20
-99.6842
11
177.607
21
-99.7947
0
LINE
8
BLACK
6
CONTINUOUS
10
177.607
20
-99.7947
11
177.674
21
-99.9208
0
LINE
8
BLACK
6
CONTINUOUS
10
177.674
20
-99.9208
11
177.674
21
-99.9208
0
LINE
8
BLACK
6
CONTINUOUS
10
177.674
20
-99.9208
11
177.715
21
-100.058
0
LINE
8
BLACK
6
CONTINUOUS
10
177.715
20
-100.058
11
177.73
21
-100.2
0
LINE
8
BLACK
6
CONTINUOUS
10
177.73
20
-100.2
11
177.715
21
-100.342
0
LINE
8
BLACK
6
CONTINUOUS
10
177.715
20
-100.342
11
177.674
21
-100.479
0
LINE
8
BLACK
6
CONTINUOUS
10
177.674
20
-100.479
11
177.674
21
-100.479
0
LINE
8
BLACK
6
CONTINUOUS
10
177.674
20
-100.479
11
177.607
21
-100.605
0
LINE
8
BLACK
6
CONTINUOUS
10
177.607
20
-100.605
11
177.516
21
-100.716
0
LINE
8
BLACK
6
CONTINUOUS
10
177.516
20
-100.716
11
177.405
21
-100.807
0
LINE
8
BLACK
6
CONTINUOUS
10
177.405
20
-100.807
11
177.279
21
-100.874
0
LINE
8
BLACK
6
CONTINUOUS
10
177.279
20
-100.874
11
177.279
21
-100.874
0
LINE
8
BLACK
6
CONTINUOUS
10
177.279
20
-100.874
11
177.142
21
-100.915
0
LINE
8
BLACK
6
CONTINUOUS
10
177.142
20
-100.915
11
177.071
21
-100.922
0
LINE
8
BLACK
6
CONTINUOUS
10
177.071
20
-100.922
11
177.036
21
-100.926
0
LINE
8
BLACK
6
CONTINUOUS
10
177.036
20
-100.926
11
176.964
21
-100.926
0
LINE
8
BLACK
6
CONTINUOUS
10
176.964
20
-100.926
11
176.929
21
-100.922
0
LINE
8
BLACK
6
CONTINUOUS
10
176.929
20
-100.922
11
176.858
21
-100.915
0
LINE
8
BLACK
6
CONTINUOUS
10
176.858
20
-100.915
11
176.721
21
-100.874
0
LINE
8
BLACK
6
CONTINUOUS
10
176.721
20
-100.874
11
176.721
21
-100.874
0
LINE
8
BLACK
6
CONTINUOUS
10
176.721
20
-100.874
11
176.595
21
-100.807
0
LINE
8
BLACK
6
CONTINUOUS
10
176.595
20
-100.807
11
176.484
21
-100.716
0
LINE
8
BLACK
6
CONTINUOUS
10
176.484
20
-100.716
11
176.393
21
-100.605
0
LINE
8
BLACK
6
CONTINUOUS
10
176.393
20
-100.605
11
176.326
21
-100.479
0
LINE
8
BLACK
6
CONTINUOUS
10
176.326
20
-100.479
11
176.326
21
-100.479
0
LINE
8
BLACK
6
CONTINUOUS
10
176.326
20
-100.479
11
176.285
21
-100.342
0
LINE
8
BLACK
6
CONTINUOUS
10
176.285
20
-100.342
11
176.27
21
-100.2
0
LINE
8
BLACK
6
CONTINUOUS
10
176.27
20
-100.2
11
176.285
21
-100.058
0
LINE
8
BLACK
6
CONTINUOUS
10
176.285
20
-100.058
11
176.326
21
-99.9208
0
LINE
8
BLACK
6
CONTINUOUS
10
176.326
20
-99.9208
11
176.326
21
-99.9208
0
LINE
8
BLACK
6
CONTINUOUS
10
176.326
20
-99.9208
11
176.393
21
-99.7947
0
LINE
8
BLACK
6
CONTINUOUS
10
176.393
20
-99.7947
11
176.484
21
-99.6842
0
LINE
8
BLACK
6
CONTINUOUS
10
176.484
20
-99.6842
11
176.595
21
-99.5934
0
LINE
8
BLACK
6
CONTINUOUS
10
176.595
20
-99.5934
11
176.721
21
-99.526
0
LINE
8
BLACK
6
CONTINUOUS
10
176.721
20
-99.526
11
176.721
21
-99.526
0
LINE
8
BLACK
6
CONTINUOUS
10
176.721
20
-99.526
11
176.858
21
-99.4845
0
LINE
8
BLACK
6
CONTINUOUS
10
176.858
20
-99.4845
11
176.929
21
-99.4775
0
LINE
8
BLACK
6
CONTINUOUS
10
176.929
20
-99.4775
11
176.964
21
-99.474
0
LINE
8
BLACK
6
CONTINUOUS
10
176.964
20
-99.474
11
177.036
21
-99.474
0
LINE
8
BLACK
6
CONTINUOUS
10
177.036
20
-99.474
11
177.071
21
-99.4775
0
LINE
8
BLACK
6
CONTINUOUS
10
177.071
20
-97.4775
11
177.142
21
-97.4845
0
LINE
8
BLACK
6
CONTINUOUS
10
177.142
20
-97.4845
11
177.279
21
-97.526
0
LINE
8
BLACK
6
CONTINUOUS
10
177.279
20
-97.526
11
177.279
21
-97.526
0
LINE
8
BLACK
6
CONTINUOUS
10
177.279
20
-97.526
11
177.405
21
-97.5934
0
LINE
8
BLACK
6
CONTINUOUS
10
177.405
20
-97.5934
11
177.516
21
-97.6842
0
LINE
8
BLACK
6
CONTINUOUS
10
177.516
20
-97.6842
11
177.607
21
-97.7947
0
LINE
8
BLACK
6
CONTINUOUS
10
177.607
20
-97.7947
11
177.674
21
-97.9208
0
LINE
8
BLACK
6
CONTINUOUS
10
177.674
20
-97.9208
11
177.674
21
-97.9208
0
LINE
8
BLACK
6
CONTINUOUS
10
177.674
20
-97.9208
11
177.715
21
-98.0577
0
LINE
8
BLACK
6
CONTINUOUS
10
177.715
20
-98.0577
11
177.73
21
-98.2
0
LINE
8
BLACK
6
CONTINUOUS
10
177.73
20
-98.2
11
177.715
21
-98.3423
0
LINE
8
BLACK
6
CONTINUOUS
10
177.715
20
-98.3423
11
177.674
21
-98.4792
0
LINE
8
BLACK
6
CONTINUOUS
10
177.674
20
-98.4792
11
177.674
21
-98.4792
0
LINE
8
BLACK
6
CONTINUOUS
10
177.674
20
-98.4792
11
177.607
21
-98.6053
0
LINE
8
BLACK
6
CONTINUOUS
10
177.607
20
-98.6053
11
177.516
21
-98.7158
0
LINE
8
BLACK
6
CONTINUOUS
10
177.516
20
-98.7158
11
177.405
21
-98.8066
0
LINE
8
BLACK
6
CONTINUOUS
10
177.405
20
-98.8066
11
177.279
21
-98.874
0
LINE
8
BLACK
6
CONTINUOUS
10
177.279
20
-98.874
11
177.279
21
-98.874
0
LINE
8
BLACK
6
CONTINUOUS
10
177.279
20
-98.874
11
177.142
21
-98.9155
0
LINE
8
BLACK
6
CONTINUOUS
10
177.142
20
-98.9155
11
177.071
21
-98.9225
0
LINE
8
BLACK
6
CONTINUOUS
10
177.071
20
-98.9225
11
177.036
21
-98.926
0
LINE
8
BLACK
6
CONTINUOUS
10
177.036
20
-98.926
11
176.964
21
-98.926
0
LINE
8
BLACK
6
CONTINUOUS
10
176.964
20
-98.926
11
176.929
21
-98.9225
0
LINE
8
BLACK
6
CONTINUOUS
10
176.929
20
-98.9225
11
176.858
21
-98.9155
0
LINE
8
BLACK
6
CONTINUOUS
10
176.858
20
-98.9155
11
176.721
21
-98.874
0
LINE
8
BLACK
6
CONTINUOUS
10
176.721
20
-98.874
11
176.721
21
-98.874
0
LINE
8
BLACK
6
CONTINUOUS
10
176.721
20
-98.874
11
176.595
21
-98.8066
0
LINE
8
BLACK
6
CONTINUOUS
10
176.595
20
-98.8066
11
176.484
21
-98.7158
0
LINE
8
BLACK
6
CONTINUOUS
10
176.484
20
-98.7158
11
176.393
21
-98.6053
0
LINE
8
BLACK
6
CONTINUOUS
10
176.393
20
-98.6053
11
176.326
21
-98.4792
0
LINE
8
BLACK
6
CONTINUOUS
10
176.326
20
-98.4792
11
176.326
21
-98.4792
0
LINE
8
BLACK
6
CONTINUOUS
10
176.326
20
-98.4792
11
176.285
21
-98.3423
0
LINE
8
BLACK
6
CONTINUOUS
10
176.285
20
-98.3423
11
176.27
21
-98.2
0
LINE
8
BLACK
6
CONTINUOUS
10
176.27
20
-98.2
11
176.285
21
-98.0577
0
LINE
8
BLACK
6
CONTINUOUS
10
176.285
20
-98.0577
11
176.326
21
-97.9208
0
LINE
8
BLACK
6
CONTINUOUS
10
176.326
20
-97.9208
11
176.326
21
-97.9208
0
LINE
8
BLACK
6
CONTINUOUS
10
176.326
20
-97.9208
11
176.393
21
-97.7947
0
LINE
8
BLACK
6
CONTINUOUS
10
176.393
20
-97.7947
11
176.484
21
-97.6842
0
LINE
8
BLACK
6
CONTINUOUS
10
176.484
20
-97.6842
11
176.595
21
-97.5934
0
LINE
8
BLACK
6
CONTINUOUS
10
176.595
20
-97.5934
11
176.721
21
-97.526
0
LINE
8
BLACK
6
CONTINUOUS
10
176.721
20
-97.526
11
176.721
21
-97.526
0
LINE
8
BLACK
6
CONTINUOUS
10
176.721
20
-97.526
11
176.858
21
-97.4845
0
LINE
8
BLACK
6
CONTINUOUS
10
176.858
20
-97.4845
11
176.929
21
-97.4775
0
LINE
8
BLACK
6
CONTINUOUS
10
176.929
20
-97.4775
11
176.964
21
-97.474
0
LINE
8
BLACK
6
CONTINUOUS
10
176.964
20
-97.474
11
177.036
21
-97.474
0
LINE
8
BLACK
6
CONTINUOUS
10
177.036
20
-97.474
11
177.071
21
-97.4775
0
LINE
8
BLACK
6
CONTINUOUS
10
175.071
20
-97.4775
11
175.142
21
-97.4845
0
LINE
8
BLACK
6
CONTINUOUS
10
175.142
20
-97.4845
11
175.279
21
-97.526
0
LINE
8
BLACK
6
CONTINUOUS
10
175.279
20
-97.526
11
175.279
21
-97.526
0
LINE
8
BLACK
6
CONTINUOUS
10
175.279
20
-97.526
11
175.405
21
-97.5934
0
LINE
8
BLACK
6
CONTINUOUS
10
175.405
20
-97.5934
11
175.516
21
-97.6842
0
LINE
8
BLACK
6
CONTINUOUS
10
175.516
20
-97.6842
11
175.607
21
-97.7947
0
LINE
8
BLACK
6
CONTINUOUS
10
175.607
20
-97.7947
11
175.674
21
-97.9208
0
LINE
8
BLACK
6
CONTINUOUS
10
175.674
20
-97.9208
11
175.674
21
-97.9208
0
LINE
8
BLACK
6
CONTINUOUS
10
175.674
20
-97.9208
11
175.715
21
-98.0577
0
LINE
8
BLACK
6
CONTINUOUS
10
175.715
20
-98.0577
11
175.73
21
-98.2
0
LINE
8
BLACK
6
CONTINUOUS
10
175.73
20
-98.2
11
175.715
21
-98.3423
0
LINE
8
BLACK
6
CONTINUOUS
10
175.715
20
-98.3423
11
175.674
21
-98.4792
0
LINE
8
BLACK
6
CONTINUOUS
10
175.674
20
-98.4792
11
175.674
21
-98.4792
0
LINE
8
BLACK
6
CONTINUOUS
10
175.674
20
-98.4792
11
175.607
21
-98.6053
0
LINE
8
BLACK
6
CONTINUOUS
10
175.607
20
-98.6053
11
175.516
21
-98.7158
0
LINE
8
BLACK
6
CONTINUOUS
10
175.516
20
-98.7158
11
175.405
21
-98.8066
0
LINE
8
BLACK
6
CONTINUOUS
10
175.405
20
-98.8066
11
175.279
21
-98.874
0
LINE
8
BLACK
6
CONTINUOUS
10
175.279
20
-98.874
11
175.279
21
-98.874
0
LINE
8
BLACK
6
CONTINUOUS
10
175.279
20
-98.874
11
175.142
21
-98.9155
0
LINE
8
BLACK
6
CONTINUOUS
10
175.142
20
-98.9155
11
175.071
21
-98.9225
0
LINE
8
BLACK
6
CONTINUOUS
10
175.071
20
-98.9225
11
175.036
21
-98.926
0
LINE
8
BLACK
6
CONTINUOUS
10
175.036
20
-98.926
11
174.964
21
-98.926
0
LINE
8
BLACK
6
CONTINUOUS
10
174.964
20
-98.926
11
174.929
21
-98.9225
0
LINE
8
BLACK
6
CONTINUOUS
10
174.929
20
-98.9225
11
174.858
21
-98.9155
0
LINE
8
BLACK
6
CONTINUOUS
10
174.858
20
-98.9155
11
174.721
21
-98.874
0
LINE
8
BLACK
6
CONTINUOUS
10
174.721
20
-98.874
11
174.721
21
-98.874
0
LINE
8
BLACK
6
CONTINUOUS
10
174.721
20
-98.874
11
174.595
21
-98.8066
0
LINE
8
BLACK
6
CONTINUOUS
10
174.595
20
-98.8066
11
174.484
21
-98.7158
0
LINE
8
BLACK
6
CONTINUOUS
10
174.484
20
-98.7158
11
174.393
21
-98.6053
0
LINE
8
BLACK
6
CONTINUOUS
10
174.393
20
-98.6053
11
174.326
21
-98.4792
0
LINE
8
BLACK
6
CONTINUOUS
10
174.326
20
-98.4792
11
174.326
21
-98.4792
0
LINE
8
BLACK
6
CONTINUOUS
10
174.326
20
-98.4792
11
174.285
21
-98.3423
0
LINE
8
BLACK
6
CONTINUOUS
10
174.285
20
-98.3423
11
174.27
21
-98.2
0
LINE
8
BLACK
6
CONTINUOUS
10
174.27
20
-98.2
11
174.285
21
-98.0577
0
LINE
8
BLACK
6
CONTINUOUS
10
174.285
20
-98.0577
11
174.326
21
-97.9208
0
LINE
8
BLACK
6
CONTINUOUS
10
174.326
20
-97.9208
11
174.326
21
-97.9208
0
LINE
8
BLACK
6
CONTINUOUS
10
174.326
20
-97.9208
11
174.393
21
-97.7947
0
LINE
8
BLACK
6
CONTINUOUS
10
174.393
20
-97.7947
11
174.484
21
-97.6842
0
LINE
8
BLACK
6
CONTINUOUS
10
174.484
20
-97.6842
11
174.595
21
-97.5934
0
LINE
8
BLACK
6
CONTINUOUS
10
174.595
20
-97.5934
11
174.721
21
-97.526
0
LINE
8
BLACK
6
CONTINUOUS
10
174.721
20
-97.526
11
174.721
21
-97.526
0
LINE
8
BLACK
6
CONTINUOUS
10
174.721
20
-97.526
11
174.858
21
-97.4845
0
LINE
8
BLACK
6
CONTINUOUS
10
174.858
20
-97.4845
11
174.929
21
-97.4775
0
LINE
8
BLACK
6
CONTINUOUS
10
174.929
20
-97.4775
11
174.964
21
-97.474
0
LINE
8
BLACK
6
CONTINUOUS
10
174.964
20
-97.474
11
175.036
21
-97.474
0
LINE
8
BLACK
6
CONTINUOUS
10
175.036
20
-97.474
11
175.071
21
-97.4775
0
LINE
8
BLACK
6
CONTINUOUS
10
177.071
20
-95.4775
11
177.142
21
-95.4845
0
LINE
8
BLACK
6
CONTINUOUS
10
177.142
20
-95.4845
11
177.279
21
-95.526
0
LINE
8
BLACK
6
CONTINUOUS
10
177.279
20
-95.526
11
177.279
21
-95.526
0
LINE
8
BLACK
6
CONTINUOUS
10
177.279
20
-95.526
11
177.405
21
-95.5934
0
LINE
8
BLACK
6
CONTINUOUS
10
177.405
20
-95.5934
11
177.516
21
-95.6842
0
LINE
8
BLACK
6
CONTINUOUS
10
177.516
20
-95.6842
11
177.607
21
-95.7947
0
LINE
8
BLACK
6
CONTINUOUS
10
177.607
20
-95.7947
11
177.674
21
-95.9208
0
LINE
8
BLACK
6
CONTINUOUS
10
177.674
20
-95.9208
11
177.674
21
-95.9208
0
LINE
8
BLACK
6
CONTINUOUS
10
177.674
20
-95.9208
11
177.715
21
-96.0577
0
LINE
8
BLACK
6
CONTINUOUS
10
177.715
20
-96.0577
11
177.73
21
-96.2
0
LINE
8
BLACK
6
CONTINUOUS
10
177.73
20
-96.2
11
177.715
21
-96.3423
0
LINE
8
BLACK
6
CONTINUOUS
10
177.715
20
-96.3423
11
177.674
21
-96.4792
0
LINE
8
BLACK
6
CONTINUOUS
10
177.674
20
-96.4792
11
177.674
21
-96.4792
0
LINE
8
BLACK
6
CONTINUOUS
10
177.674
20
-96.4792
11
177.607
21
-96.6053
0
LINE
8
BLACK
6
CONTINUOUS
10
177.607
20
-96.6053
11
177.516
21
-96.7158
0
LINE
8
BLACK
6
CONTINUOUS
10
177.516
20
-96.7158
11
177.405
21
-96.8066
0
LINE
8
BLACK
6
CONTINUOUS
10
177.405
20
-96.8066
11
177.279
21
-96.874
0
LINE
8
BLACK
6
CONTINUOUS
10
177.279
20
-96.874
11
177.279
21
-96.874
0
LINE
8
BLACK
6
CONTINUOUS
10
177.279
20
-96.874
11
177.142
21
-96.9155
0
LINE
8
BLACK
6
CONTINUOUS
10
177.142
20
-96.9155
11
177.071
21
-96.9225
0
LINE
8
BLACK
6
CONTINUOUS
10
177.071
20
-96.9225
11
177.036
21
-96.926
0
LINE
8
BLACK
6
CONTINUOUS
10
177.036
20
-96.926
11
176.964
21
-96.926
0
LINE
8
BLACK
6
CONTINUOUS
10
176.964
20
-96.926
11
176.929
21
-96.9225
0
LINE
8
BLACK
6
CONTINUOUS
10
176.929
20
-96.9225
11
176.858
21
-96.9155
0
LINE
8
BLACK
6
CONTINUOUS
10
176.858
20
-96.9155
11
176.721
21
-96.874
0
LINE
8
BLACK
6
CONTINUOUS
10
176.721
20
-96.874
11
176.721
21
-96.874
0
LINE
8
BLACK
6
CONTINUOUS
10
176.721
20
-96.874
11
176.595
21
-96.8066
0
LINE
8
BLACK
6
CONTINUOUS
10
176.595
20
-96.8066
11
176.484
21
-96.7158
0
LINE
8
BLACK
6
CONTINUOUS
10
176.484
20
-96.7158
11
176.393
21
-96.6053
0
LINE
8
BLACK
6
CONTINUOUS
10
176.393
20
-96.6053
11
176.326
21
-96.4792
0
LINE
8
BLACK
6
CONTINUOUS
10
176.326
20
-96.4792
11
176.326
21
-96.4792
0
LINE
8
BLACK
6
CONTINUOUS
10
176.326
20
-96.4792
11
176.285
21
-96.3423
0
LINE
8
BLACK
6
CONTINUOUS
10
176.285
20
-96.3423
11
176.27
21
-96.2
0
LINE
8
BLACK
6
CONTINUOUS
10
176.27
20
-96.2
11
176.285
21
-96.0577
0
LINE
8
BLACK
6
CONTINUOUS
10
176.285
20
-96.0577
11
176.326
21
-95.9208
0
LINE
8
BLACK
6
CONTINUOUS
10
176.326
20
-95.9208
11
176.326
21
-95.9208
0
LINE
8
BLACK
6
CONTINUOUS
10
176.326
20
-95.9208
11
176.393
21
-95.7947
0
LINE
8
BLACK
6
CONTINUOUS
10
176.393
20
-95.7947
11
176.484
21
-95.6842
0
LINE
8
BLACK
6
CONTINUOUS
10
176.484
20
-95.6842
11
176.595
21
-95.5934
0
LINE
8
BLACK
6
CONTINUOUS
10
176.595
20
-95.5934
11
176.721
21
-95.526
0
LINE
8
BLACK
6
CONTINUOUS
10
176.721
20
-95.526
11
176.721
21
-95.526
0
LINE
8
BLACK
6
CONTINUOUS
10
176.721
20
-95.526
11
176.858
21
-95.4845
0
LINE
8
BLACK
6
CONTINUOUS
10
176.858
20
-95.4845
11
176.929
21
-95.4775
0
LINE
8
BLACK
6
CONTINUOUS
10
176.929
20
-95.4775
11
176.964
21
-95.474
0
LINE
8
BLACK
6
CONTINUOUS
10
176.964
20
-95.474
11
177.036
21
-95.474
0
LINE
8
BLACK
6
CONTINUOUS
10
177.036
20
-95.474
11
177.071
21
-95.4775
0
LINE
8
BLACK
6
CONTINUOUS
10
175.071
20
-95.4775
11
175.142
21
-95.4845
0
LINE
8
BLACK
6
CONTINUOUS
10
175.142
20
-95.4845
11
175.279
21
-95.526
0
LINE
8
BLACK
6
CONTINUOUS
10
175.279
20
-95.526
11
175.279
21
-95.526
0
LINE
8
BLACK
6
CONTINUOUS
10
175.279
20
-95.526
11
175.405
21
-95.5934
0
LINE
8
BLACK
6
CONTINUOUS
10
175.405
20
-95.5934
11
175.516
21
-95.6842
0
LINE
8
BLACK
6
CONTINUOUS
10
175.516
20
-95.6842
11
175.607
21
-95.7947
0
LINE
8
BLACK
6
CONTINUOUS
10
175.607
20
-95.7947
11
175.674
21
-95.9208
0
LINE
8
BLACK
6
CONTINUOUS
10
175.674
20
-95.9208
11
175.674
21
-95.9208
0
LINE
8
BLACK
6
CONTINUOUS
10
175.674
20
-95.9208
11
175.715
21
-96.0577
0
LINE
8
BLACK
6
CONTINUOUS
10
175.715
20
-96.0577
11
175.73
21
-96.2
0
LINE
8
BLACK
6
CONTINUOUS
10
175.73
20
-96.2
11
175.715
21
-96.3423
0
LINE
8
BLACK
6
CONTINUOUS
10
175.715
20
-96.3423
11
175.674
21
-96.4792
0
LINE
8
BLACK
6
CONTINUOUS
10
175.674
20
-96.4792
11
175.674
21
-96.4792
0
LINE
8
BLACK
6
CONTINUOUS
10
175.674
20
-96.4792
11
175.607
21
-96.6053
0
LINE
8
BLACK
6
CONTINUOUS
10
175.607
20
-96.6053
11
175.516
21
-96.7158
0
LINE
8
BLACK
6
CONTINUOUS
10
175.516
20
-96.7158
11
175.405
21
-96.8066
0
LINE
8
BLACK
6
CONTINUOUS
10
175.405
20
-96.8066
11
175.279
21
-96.874
0
LINE
8
BLACK
6
CONTINUOUS
10
175.279
20
-96.874
11
175.279
21
-96.874
0
LINE
8
BLACK
6
CONTINUOUS
10
175.279
20
-96.874
11
175.142
21
-96.9155
0
LINE
8
BLACK
6
CONTINUOUS
10
175.142
20
-96.9155
11
175.071
21
-96.9225
0
LINE
8
BLACK
6
CONTINUOUS
10
175.071
20
-96.9225
11
175.036
21
-96.926
0
LINE
8
BLACK
6
CONTINUOUS
10
175.036
20
-96.926
11
174.964
21
-96.926
0
LINE
8
BLACK
6
CONTINUOUS
10
174.964
20
-96.926
11
174.929
21
-96.9225
0
LINE
8
BLACK
6
CONTINUOUS
10
174.929
20
-96.9225
11
174.858
21
-96.9155
0
LINE
8
BLACK
6
CONTINUOUS
10
174.858
20
-96.9155
11
174.721
21
-96.874
0
LINE
8
BLACK
6
CONTINUOUS
10
174.721
20
-96.874
11
174.721
21
-96.874
0
LINE
8
BLACK
6
CONTINUOUS
10
174.721
20
-96.874
11
174.595
21
-96.8066
0
LINE
8
BLACK
6
CONTINUOUS
10
174.595
20
-96.8066
11
174.484
21
-96.7158
0
LINE
8
BLACK
6
CONTINUOUS
10
174.484
20
-96.7158
11
174.393
21
-96.6053
0
LINE
8
BLACK
6
CONTINUOUS
10
174.393
20
-96.6053
11
174.326
21
-96.4792
0
LINE
8
BLACK
6
CONTINUOUS
10
174.326
20
-96.4792
11
174.326
21
-96.4792
0
LINE
8
BLACK
6
CONTINUOUS
10
174.326
20
-96.4792
11
174.285
21
-96.3423
0
LINE
8
BLACK
6
CONTINUOUS
10
174.285
20
-96.3423
11
174.27
21
-96.2
0
LINE
8
BLACK
6
CONTINUOUS
10
174.27
20
-96.2
11
174.285
21
-96.0577
0
LINE
8
BLACK
6
CONTINUOUS
10
174.285
20
-96.0577
11
174.326
21
-95.9208
0
LINE
8
BLACK
6
CONTINUOUS
10
174.326
20
-95.9208
11
174.326
21
-95.9208
0
LINE
8
BLACK
6
CONTINUOUS
10
174.326
20
-95.9208
11
174.393
21
-95.7947
0
LINE
8
BLACK
6
CONTINUOUS
10
174.393
20
-95.7947
11
174.484
21
-95.6842
0
LINE
8
BLACK
6
CONTINUOUS
10
174.484
20
-95.6842
11
174.595
21
-95.5934
0
LINE
8
BLACK
6
CONTINUOUS
10
174.595
20
-95.5934
11
174.721
21
-95.526
0
LINE
8
BLACK
6
CONTINUOUS
10
174.721
20
-95.526
11
174.721
21
-95.526
0
LINE
8
BLACK
6
CONTINUOUS
10
174.721
20
-95.526
11
174.858
21
-95.4845
0
LINE
8
BLACK
6
CONTINUOUS
10
174.858
20
-95.4845
11
174.929
21
-95.4775
0
LINE
8
BLACK
6
CONTINUOUS
10
174.929
20
-95.4775
11
174.964
21
-95.474
0
LINE
8
BLACK
6
CONTINUOUS
10
174.964
20
-95.474
11
175.036
21
-95.474
0
LINE
8
BLACK
6
CONTINUOUS
10
175.036
20
-95.474
11
175.071
21
-95.4775
0
LINE
8
BLACK
6
CONTINUOUS
10
177.071
20
-93.4775
11
177.142
21
-93.4845
0
LINE
8
BLACK
6
CONTINUOUS
10
177.142
20
-93.4845
11
177.279
21
-93.526
0
LINE
8
BLACK
6
CONTINUOUS
10
177.279
20
-93.526
11
177.279
21
-93.526
0
LINE
8
BLACK
6
CONTINUOUS
10
177.279
20
-93.526
11
177.405
21
-93.5934
0
LINE
8
BLACK
6
CONTINUOUS
10
177.405
20
-93.5934
11
177.516
21
-93.6842
0
LINE
8
BLACK
6
CONTINUOUS
10
177.516
20
-93.6842
11
177.607
21
-93.7947
0
LINE
8
BLACK
6
CONTINUOUS
10
177.607
20
-93.7947
11
177.674
21
-93.9208
0
LINE
8
BLACK
6
CONTINUOUS
10
177.674
20
-93.9208
11
177.674
21
-93.9208
0
LINE
8
BLACK
6
CONTINUOUS
10
177.674
20
-93.9208
11
177.715
21
-94.0577
0
LINE
8
BLACK
6
CONTINUOUS
10
177.715
20
-94.0577
11
177.73
21
-94.2
0
LINE
8
BLACK
6
CONTINUOUS
10
177.73
20
-94.2
11
177.715
21
-94.3423
0
LINE
8
BLACK
6
CONTINUOUS
10
177.715
20
-94.3423
11
177.674
21
-94.4792
0
LINE
8
BLACK
6
CONTINUOUS
10
177.674
20
-94.4792
11
177.674
21
-94.4792
0
LINE
8
BLACK
6
CONTINUOUS
10
177.674
20
-94.4792
11
177.607
21
-94.6053
0
LINE
8
BLACK
6
CONTINUOUS
10
177.607
20
-94.6053
11
177.516
21
-94.7158
0
LINE
8
BLACK
6
CONTINUOUS
10
177.516
20
-94.7158
11
177.405
21
-94.8066
0
LINE
8
BLACK
6
CONTINUOUS
10
177.405
20
-94.8066
11
177.279
21
-94.874
0
LINE
8
BLACK
6
CONTINUOUS
10
177.279
20
-94.874
11
177.279
21
-94.874
0
LINE
8
BLACK
6
CONTINUOUS
10
177.279
20
-94.874
11
177.142
21
-94.9155
0
LINE
8
BLACK
6
CONTINUOUS
10
177.142
20
-94.9155
11
177.071
21
-94.9225
0
LINE
8
BLACK
6
CONTINUOUS
10
177.071
20
-94.9225
11
177.036
21
-94.926
0
LINE
8
BLACK
6
CONTINUOUS
10
177.036
20
-94.926
11
176.964
21
-94.926
0
LINE
8
BLACK
6
CONTINUOUS
10
176.964
20
-94.926
11
176.929
21
-94.9225
0
LINE
8
BLACK
6
CONTINUOUS
10
176.929
20
-94.9225
11
176.858
21
-94.9155
0
LINE
8
BLACK
6
CONTINUOUS
10
176.858
20
-94.9155
11
176.721
21
-94.874
0
LINE
8
BLACK
6
CONTINUOUS
10
176.721
20
-94.874
11
176.721
21
-94.874
0
LINE
8
BLACK
6
CONTINUOUS
10
176.721
20
-94.874
11
176.595
21
-94.8066
0
LINE
8
BLACK
6
CONTINUOUS
10
176.595
20
-94.8066
11
176.484
21
-94.7158
0
LINE
8
BLACK
6
CONTINUOUS
10
176.484
20
-94.7158
11
176.393
21
-94.6053
0
LINE
8
BLACK
6
CONTINUOUS
10
176.393
20
-94.6053
11
176.326
21
-94.4792
0
LINE
8
BLACK
6
CONTINUOUS
10
176.326
20
-94.4792
11
176.326
21
-94.4792
0
LINE
8
BLACK
6
CONTINUOUS
10
176.326
20
-94.4792
11
176.285
21
-94.3423
0
LINE
8
BLACK
6
CONTINUOUS
10
176.285
20
-94.3423
11
176.27
21
-94.2
0
LINE
8
BLACK
6
CONTINUOUS
10
176.27
20
-94.2
11
176.285
21
-94.0577
0
LINE
8
BLACK
6
CONTINUOUS
10
176.285
20
-94.0577
11
176.326
21
-93.9208
0
LINE
8
BLACK
6
CONTINUOUS
10
176.326
20
-93.9208
11
176.326
21
-93.9208
0
LINE
8
BLACK
6
CONTINUOUS
10
176.326
20
-93.9208
11
176.393
21
-93.7947
0
LINE
8
BLACK
6
CONTINUOUS
10
176.393
20
-93.7947
11
176.484
21
-93.6842
0
LINE
8
BLACK
6
CONTINUOUS
10
176.484
20
-93.6842
11
176.595
21
-93.5934
0
LINE
8
BLACK
6
CONTINUOUS
10
176.595
20
-93.5934
11
176.721
21
-93.526
0
LINE
8
BLACK
6
CONTINUOUS
10
176.721
20
-93.526
11
176.721
21
-93.526
0
LINE
8
BLACK
6
CONTINUOUS
10
176.721
20
-93.526
11
176.858
21
-93.4845
0
LINE
8
BLACK
6
CONTINUOUS
10
176.858
20
-93.4845
11
176.929
21
-93.4775
0
LINE
8
BLACK
6
CONTINUOUS
10
176.929
20
-93.4775
11
176.964
21
-93.474
0
LINE
8
BLACK
6
CONTINUOUS
10
176.964
20
-93.474
11
177.036
21
-93.474
0
LINE
8
BLACK
6
CONTINUOUS
10
177.036
20
-93.474
11
177.071
21
-93.4775
0
LINE
8
BLACK
6
CONTINUOUS
10
175.071
20
-93.4775
11
175.142
21
-93.4845
0
LINE
8
BLACK
6
CONTINUOUS
10
175.142
20
-93.4845
11
175.279
21
-93.526
0
LINE
8
BLACK
6
CONTINUOUS
10
175.279
20
-93.526
11
175.279
21
-93.526
0
LINE
8
BLACK
6
CONTINUOUS
10
175.279
20
-93.526
11
175.405
21
-93.5934
0
LINE
8
BLACK
6
CONTINUOUS
10
175.405
20
-93.5934
11
175.516
21
-93.6842
0
LINE
8
BLACK
6
CONTINUOUS
10
175.516
20
-93.6842
11
175.607
21
-93.7947
0
LINE
8
BLACK
6
CONTINUOUS
10
175.607
20
-93.7947
11
175.674
21
-93.9208
0
LINE
8
BLACK
6
CONTINUOUS
10
175.674
20
-93.9208
11
175.674
21
-93.9208
0
LINE
8
BLACK
6
CONTINUOUS
10
175.674
20
-93.9208
11
175.715
21
-94.0577
0
LINE
8
BLACK
6
CONTINUOUS
10
175.715
20
-94.0577
11
175.73
21
-94.2
0
LINE
8
BLACK
6
CONTINUOUS
10
175.73
20
-94.2
11
175.715
21
-94.3423
0
LINE
8
BLACK
6
CONTINUOUS
10
175.715
20
-94.3423
11
175.674
21
-94.4792
0
LINE
8
BLACK
6
CONTINUOUS
10
175.674
20
-94.4792
11
175.674
21
-94.4792
0
LINE
8
BLACK
6
CONTINUOUS
10
175.674
20
-94.4792
11
175.607
21
-94.6053
0
LINE
8
BLACK
6
CONTINUOUS
10
175.607
20
-94.6053
11
175.516
21
-94.7158
0
LINE
8
BLACK
6
CONTINUOUS
10
175.516
20
-94.7158
11
175.405
21
-94.8066
0
LINE
8
BLACK
6
CONTINUOUS
10
175.405
20
-94.8066
11
175.279
21
-94.874
0
LINE
8
BLACK
6
CONTINUOUS
10
175.279
20
-94.874
11
175.279
21
-94.874
0
LINE
8
BLACK
6
CONTINUOUS
10
175.279
20
-94.874
11
175.142
21
-94.9155
0
LINE
8
BLACK
6
CONTINUOUS
10
175.142
20
-94.9155
11
175.071
21
-94.9225
0
LINE
8
BLACK
6
CONTINUOUS
10
175.071
20
-94.9225
11
175.036
21
-94.926
0
LINE
8
BLACK
6
CONTINUOUS
10
175.036
20
-94.926
11
174.964
21
-94.926
0
LINE
8
BLACK
6
CONTINUOUS
10
174.964
20
-94.926
11
174.929
21
-94.9225
0
LINE
8
BLACK
6
CONTINUOUS
10
174.929
20
-94.9225
11
174.858
21
-94.9155
0
LINE
8
BLACK
6
CONTINUOUS
10
174.858
20
-94.9155
11
174.721
21
-94.874
0
LINE
8
BLACK
6
CONTINUOUS
10
174.721
20
-94.874
11
174.721
21
-94.874
0
LINE
8
BLACK
6
CONTINUOUS
10
174.721
20
-94.874
11
174.595
21
-94.8066
0
LINE
8
BLACK
6
CONTINUOUS
10
174.595
20
-94.8066
11
174.484
21
-94.7158
0
LINE
8
BLACK
6
CONTINUOUS
10
174.484
20
-94.7158
11
174.393
21
-94.6053
0
LINE
8
BLACK
6
CONTINUOUS
10
174.393
20
-94.6053
11
174.326
21
-94.4792
0
LINE
8
BLACK
6
CONTINUOUS
10
174.326
20
-94.4792
11
174.326
21
-94.4792
0
LINE
8
BLACK
6
CONTINUOUS
10
174.326
20
-94.4792
11
174.285
21
-94.3423
0
LINE
8
BLACK
6
CONTINUOUS
10
174.285
20
-94.3423
11
174.27
21
-94.2
0
LINE
8
BLACK
6
CONTINUOUS
10
174.27
20
-94.2
11
174.285
21
-94.0577
0
LINE
8
BLACK
6
CONTINUOUS
10
174.285
20
-94.0577
11
174.326
21
-93.9208
0
LINE
8
BLACK
6
CONTINUOUS
10
174.326
20
-93.9208
11
174.326
21
-93.9208
0
LINE
8
BLACK
6
CONTINUOUS
10
174.326
20
-93.9208
11
174.393
21
-93.7947
0
LINE
8
BLACK
6
CONTINUOUS
10
174.393
20
-93.7947
11
174.484
21
-93.6842
0
LINE
8
BLACK
6
CONTINUOUS
10
174.484
20
-93.6842
11
174.595
21
-93.5934
0
LINE
8
BLACK
6
CONTINUOUS
10
174.595
20
-93.5934
11
174.721
21
-93.526
0
LINE
8
BLACK
6
CONTINUOUS
10
174.721
20
-93.526
11
174.721
21
-93.526
0
LINE
8
BLACK
6
CONTINUOUS
10
174.721
20
-93.526
11
174.858
21
-93.4845
0
LINE
8
BLACK
6
CONTINUOUS
10
174.858
20
-93.4845
11
174.929
21
-93.4775
0
LINE
8
BLACK
6
CONTINUOUS
10
174.929
20
-93.4775
11
174.964
21
-93.474
0
LINE
8
BLACK
6
CONTINUOUS
10
174.964
20
-93.474
11
175.036
21
-93.474
0
LINE
8
BLACK
6
CONTINUOUS
10
175.036
20
-93.474
11
175.071
21
-93.4775
0
LINE
8
BLACK
6
CONTINUOUS
10
164.307
20
-92.8241
11
164.438
21
-92.8787
0
LINE
8
BLACK
6
CONTINUOUS
10
164.438
20
-92.8787
11
164.557
21
-92.958
0
LINE
8
BLACK
6
CONTINUOUS
10
164.557
20
-92.958
11
164.658
21
-93.0588
0
LINE
8
BLACK
6
CONTINUOUS
10
164.658
20
-93.0588
11
164.737
21
-93.1774
0
LINE
8
BLACK
6
CONTINUOUS
10
164.737
20
-93.1774
11
164.792
21
-93.3092
0
LINE
8
BLACK
6
CONTINUOUS
10
164.792
20
-93.3092
11
164.819
21
-93.4491
0
LINE
8
BLACK
6
CONTINUOUS
10
164.819
20
-93.4491
11
164.819
21
-93.5917
0
LINE
8
BLACK
6
CONTINUOUS
10
164.819
20
-93.5917
11
164.792
21
-93.7316
0
LINE
8
BLACK
6
CONTINUOUS
10
164.792
20
-93.7316
11
164.737
21
-93.8634
0
LINE
8
BLACK
6
CONTINUOUS
10
164.737
20
-93.8634
11
164.658
21
-93.982
0
LINE
8
BLACK
6
CONTINUOUS
10
164.658
20
-93.982
11
164.557
21
-94.0828
0
LINE
8
BLACK
6
CONTINUOUS
10
164.557
20
-94.0828
11
164.438
21
-94.1621
0
LINE
8
BLACK
6
CONTINUOUS
10
164.438
20
-94.1621
11
164.307
21
-94.2167
0
LINE
8
BLACK
6
CONTINUOUS
10
164.307
20
-94.2167
11
164.167
21
-94.2445
0
LINE
8
BLACK
6
CONTINUOUS
10
164.167
20
-94.2445
11
164.024
21
-94.2445
0
LINE
8
BLACK
6
CONTINUOUS
10
164.024
20
-94.2445
11
163.884
21
-94.2167
0
LINE
8
BLACK
6
CONTINUOUS
10
163.884
20
-94.2167
11
163.752
21
-94.1621
0
LINE
8
BLACK
6
CONTINUOUS
10
163.752
20
-94.1621
11
163.634
21
-94.0828
0
LINE
8
BLACK
6
CONTINUOUS
10
163.634
20
-94.0828
11
163.533
21
-93.982
0
LINE
8
BLACK
6
CONTINUOUS
10
163.533
20
-93.982
11
163.454
21
-93.8634
0
LINE
8
BLACK
6
CONTINUOUS
10
163.454
20
-93.8634
11
163.399
21
-93.7316
0
LINE
8
BLACK
6
CONTINUOUS
10
163.399
20
-93.7316
11
163.371
21
-93.5917
0
LINE
8
BLACK
6
CONTINUOUS
10
163.371
20
-93.5917
11
163.371
21
-93.4491
0
LINE
8
BLACK
6
CONTINUOUS
10
163.371
20
-93.4491
11
163.399
21
-93.3092
0
LINE
8
BLACK
6
CONTINUOUS
10
163.399
20
-93.3092
11
163.454
21
-93.1774
0
LINE
8
BLACK
6
CONTINUOUS
10
163.454
20
-93.1774
11
163.533
21
-93.0588
0
LINE
8
BLACK
6
CONTINUOUS
10
163.533
20
-93.0588
11
163.634
21
-92.958
0
LINE
8
BLACK
6
CONTINUOUS
10
163.634
20
-92.958
11
163.752
21
-92.8787
0
LINE
8
BLACK
6
CONTINUOUS
10
163.752
20
-92.8787
11
163.884
21
-92.8241
0
LINE
8
BLACK
6
CONTINUOUS
10
163.884
20
-92.8241
11
164.024
21
-92.7963
0
LINE
8
BLACK
6
CONTINUOUS
10
164.024
20
-92.7963
11
164.167
21
-92.7963
0
LINE
8
BLACK
6
CONTINUOUS
10
164.167
20
-92.7963
11
164.307
21
-92.8241
0
LINE
8
BLACK
6
CONTINUOUS
10
161.431
20
-92.1155
11
161.563
21
-92.1701
0
LINE
8
BLACK
6
CONTINUOUS
10
161.563
20
-92.1701
11
161.682
21
-92.2493
0
LINE
8
BLACK
6
CONTINUOUS
10
161.682
20
-92.2493
11
161.783
21
-92.3502
0
LINE
8
BLACK
6
CONTINUOUS
10
161.783
20
-92.3502
11
161.862
21
-92.4688
0
LINE
8
BLACK
6
CONTINUOUS
10
161.862
20
-92.4688
11
161.916
21
-92.6005
0
LINE
8
BLACK
6
CONTINUOUS
10
161.916
20
-92.6005
11
161.944
21
-92.7404
0
LINE
8
BLACK
6
CONTINUOUS
10
161.944
20
-92.7404
11
161.944
21
-92.8831
0
LINE
8
BLACK
6
CONTINUOUS
10
161.944
20
-92.8831
11
161.916
21
-93.023
0
LINE
8
BLACK
6
CONTINUOUS
10
161.916
20
-93.023
11
161.862
21
-93.1547
0
LINE
8
BLACK
6
CONTINUOUS
10
161.862
20
-93.1547
11
161.783
21
-93.2733
0
LINE
8
BLACK
6
CONTINUOUS
10
161.783
20
-93.2733
11
161.682
21
-93.3742
0
LINE
8
BLACK
6
CONTINUOUS
10
161.682
20
-93.3742
11
161.563
21
-93.4534
0
LINE
8
BLACK
6
CONTINUOUS
10
161.563
20
-93.4534
11
161.431
21
-93.508
0
LINE
8
BLACK
6
CONTINUOUS
10
161.431
20
-93.508
11
161.291
21
-93.5358
0
LINE
8
BLACK
6
CONTINUOUS
10
161.291
20
-93.5358
11
161.149
21
-93.5358
0
LINE
8
BLACK
6
CONTINUOUS
10
161.149
20
-93.5358
11
161.009
21
-93.508
0
LINE
8
BLACK
6
CONTINUOUS
10
161.009
20
-93.508
11
160.877
21
-93.4534
0
LINE
8
BLACK
6
CONTINUOUS
10
160.877
20
-93.4534
11
160.758
21
-93.3742
0
LINE
8
BLACK
6
CONTINUOUS
10
160.758
20
-93.3742
11
160.658
21
-93.2733
0
LINE
8
BLACK
6
CONTINUOUS
10
160.658
20
-93.2733
11
160.578
21
-93.1547
0
LINE
8
BLACK
6
CONTINUOUS
10
160.578
20
-93.1547
11
160.524
21
-93.023
0
LINE
8
BLACK
6
CONTINUOUS
10
160.524
20
-93.023
11
160.496
21
-92.8831
0
LINE
8
BLACK
6
CONTINUOUS
10
160.496
20
-92.8831
11
160.496
21
-92.7404
0
LINE
8
BLACK
6
CONTINUOUS
10
160.496
20
-92.7404
11
160.524
21
-92.6005
0
LINE
8
BLACK
6
CONTINUOUS
10
160.524
20
-92.6005
11
160.578
21
-92.4688
0
LINE
8
BLACK
6
CONTINUOUS
10
160.578
20
-92.4688
11
160.658
21
-92.3502
0
LINE
8
BLACK
6
CONTINUOUS
10
160.658
20
-92.3502
11
160.758
21
-92.2493
0
LINE
8
BLACK
6
CONTINUOUS
10
160.758
20
-92.2493
11
160.877
21
-92.1701
0
LINE
8
BLACK
6
CONTINUOUS
10
160.877
20
-92.1701
11
161.009
21
-92.1155
0
LINE
8
BLACK
6
CONTINUOUS
10
161.009
20
-92.1155
11
161.149
21
-92.0876
0
LINE
8
BLACK
6
CONTINUOUS
10
161.149
20
-92.0876
11
161.291
21
-92.0876
0
LINE
8
BLACK
6
CONTINUOUS
10
161.291
20
-92.0876
11
161.431
21
-92.1155
0
LINE
8
BLACK
6
CONTINUOUS
10
167.182
20
-92.1155
11
167.314
21
-92.1701
0
LINE
8
BLACK
6
CONTINUOUS
10
167.314
20
-92.1701
11
167.432
21
-92.2493
0
LINE
8
BLACK
6
CONTINUOUS
10
167.432
20
-92.2493
11
167.533
21
-92.3502
0
LINE
8
BLACK
6
CONTINUOUS
10
167.533
20
-92.3502
11
167.612
21
-92.4688
0
LINE
8
BLACK
6
CONTINUOUS
10
167.612
20
-92.4688
11
167.667
21
-92.6005
0
LINE
8
BLACK
6
CONTINUOUS
10
167.667
20
-92.6005
11
167.695
21
-92.7404
0
LINE
8
BLACK
6
CONTINUOUS
10
167.695
20
-92.7404
11
167.695
21
-92.8831
0
LINE
8
BLACK
6
CONTINUOUS
10
167.695
20
-92.8831
11
167.667
21
-93.023
0
LINE
8
BLACK
6
CONTINUOUS
10
167.667
20
-93.023
11
167.612
21
-93.1547
0
LINE
8
BLACK
6
CONTINUOUS
10
167.612
20
-93.1547
11
167.533
21
-93.2733
0
LINE
8
BLACK
6
CONTINUOUS
10
167.533
20
-93.2733
11
167.432
21
-93.3742
0
LINE
8
BLACK
6
CONTINUOUS
10
167.432
20
-93.3742
11
167.314
21
-93.4534
0
LINE
8
BLACK
6
CONTINUOUS
10
167.314
20
-93.4534
11
167.182
21
-93.508
0
LINE
8
BLACK
6
CONTINUOUS
10
167.182
20
-93.508
11
167.042
21
-93.5358
0
LINE
8
BLACK
6
CONTINUOUS
10
167.042
20
-93.5358
11
166.899
21
-93.5358
0
LINE
8
BLACK
6
CONTINUOUS
10
166.899
20
-93.5358
11
166.759
21
-93.508
0
LINE
8
BLACK
6
CONTINUOUS
10
166.759
20
-93.508
11
166.628
21
-93.4534
0
LINE
8
BLACK
6
CONTINUOUS
10
166.628
20
-93.4534
11
166.509
21
-93.3742
0
LINE
8
BLACK
6
CONTINUOUS
10
166.509
20
-93.3742
11
166.408
21
-93.2733
0
LINE
8
BLACK
6
CONTINUOUS
10
166.408
20
-93.2733
11
166.329
21
-93.1547
0
LINE
8
BLACK
6
CONTINUOUS
10
166.329
20
-93.1547
11
166.274
21
-93.023
0
LINE
8
BLACK
6
CONTINUOUS
10
166.274
20
-93.023
11
166.247
21
-92.8831
0
LINE
8
BLACK
6
CONTINUOUS
10
166.247
20
-92.8831
11
166.247
21
-92.7404
0
LINE
8
BLACK
6
CONTINUOUS
10
166.247
20
-92.7404
11
166.274
21
-92.6005
0
LINE
8
BLACK
6
CONTINUOUS
10
166.274
20
-92.6005
11
166.329
21
-92.4688
0
LINE
8
BLACK
6
CONTINUOUS
10
166.329
20
-92.4688
11
166.408
21
-92.3502
0
LINE
8
BLACK
6
CONTINUOUS
10
166.408
20
-92.3502
11
166.509
21
-92.2493
0
LINE
8
BLACK
6
CONTINUOUS
10
166.509
20
-92.2493
11
166.628
21
-92.1701
0
LINE
8
BLACK
6
CONTINUOUS
10
166.628
20
-92.1701
11
166.759
21
-92.1155
0
LINE
8
BLACK
6
CONTINUOUS
10
166.759
20
-92.1155
11
166.899
21
-92.0876
0
LINE
8
BLACK
6
CONTINUOUS
10
166.899
20
-92.0876
11
167.042
21
-92.0876
0
LINE
8
BLACK
6
CONTINUOUS
10
167.042
20
-92.0876
11
167.182
21
-92.1155
0
LINE
8
BLACK
6
CONTINUOUS
10
175.071
20
-91.4775
11
175.142
21
-91.4845
0
LINE
8
BLACK
6
CONTINUOUS
10
175.142
20
-91.4845
11
175.279
21
-91.526
0
LINE
8
BLACK
6
CONTINUOUS
10
175.279
20
-91.526
11
175.279
21
-91.526
0
LINE
8
BLACK
6
CONTINUOUS
10
175.279
20
-91.526
11
175.405
21
-91.5934
0
LINE
8
BLACK
6
CONTINUOUS
10
175.405
20
-91.5934
11
175.516
21
-91.6842
0
LINE
8
BLACK
6
CONTINUOUS
10
175.516
20
-91.6842
11
175.607
21
-91.7947
0
LINE
8
BLACK
6
CONTINUOUS
10
175.607
20
-91.7947
11
175.674
21
-91.9208
0
LINE
8
BLACK
6
CONTINUOUS
10
175.674
20
-91.9208
11
175.674
21
-91.9208
0
LINE
8
BLACK
6
CONTINUOUS
10
175.674
20
-91.9208
11
175.715
21
-92.0577
0
LINE
8
BLACK
6
CONTINUOUS
10
175.715
20
-92.0577
11
175.73
21
-92.2
0
LINE
8
BLACK
6
CONTINUOUS
10
175.73
20
-92.2
11
175.715
21
-92.3423
0
LINE
8
BLACK
6
CONTINUOUS
10
175.715
20
-92.3423
11
175.674
21
-92.4792
0
LINE
8
BLACK
6
CONTINUOUS
10
175.674
20
-92.4792
11
175.674
21
-92.4792
0
LINE
8
BLACK
6
CONTINUOUS
10
175.674
20
-92.4792
11
175.607
21
-92.6053
0
LINE
8
BLACK
6
CONTINUOUS
10
175.607
20
-92.6053
11
175.516
21
-92.7158
0
LINE
8
BLACK
6
CONTINUOUS
10
175.516
20
-92.7158
11
175.405
21
-92.8066
0
LINE
8
BLACK
6
CONTINUOUS
10
175.405
20
-92.8066
11
175.279
21
-92.874
0
LINE
8
BLACK
6
CONTINUOUS
10
175.279
20
-92.874
11
175.279
21
-92.874
0
LINE
8
BLACK
6
CONTINUOUS
10
175.279
20
-92.874
11
175.142
21
-92.9155
0
LINE
8
BLACK
6
CONTINUOUS
10
175.142
20
-92.9155
11
175.071
21
-92.9225
0
LINE
8
BLACK
6
CONTINUOUS
10
175.071
20
-92.9225
11
175.036
21
-92.926
0
LINE
8
BLACK
6
CONTINUOUS
10
175.036
20
-92.926
11
174.964
21
-92.926
0
LINE
8
BLACK
6
CONTINUOUS
10
174.964
20
-92.926
11
174.929
21
-92.9225
0
LINE
8
BLACK
6
CONTINUOUS
10
174.929
20
-92.9225
11
174.858
21
-92.9155
0
LINE
8
BLACK
6
CONTINUOUS
10
174.858
20
-92.9155
11
174.721
21
-92.874
0
LINE
8
BLACK
6
CONTINUOUS
10
174.721
20
-92.874
11
174.721
21
-92.874
0
LINE
8
BLACK
6
CONTINUOUS
10
174.721
20
-92.874
11
174.595
21
-92.8066
0
LINE
8
BLACK
6
CONTINUOUS
10
174.595
20
-92.8066
11
174.484
21
-92.7158
0
LINE
8
BLACK
6
CONTINUOUS
10
174.484
20
-92.7158
11
174.393
21
-92.6053
0
LINE
8
BLACK
6
CONTINUOUS
10
174.393
20
-92.6053
11
174.326
21
-92.4792
0
LINE
8
BLACK
6
CONTINUOUS
10
174.326
20
-92.4792
11
174.326
21
-92.4792
0
LINE
8
BLACK
6
CONTINUOUS
10
174.326
20
-92.4792
11
174.285
21
-92.3423
0
LINE
8
BLACK
6
CONTINUOUS
10
174.285
20
-92.3423
11
174.27
21
-92.2
0
LINE
8
BLACK
6
CONTINUOUS
10
174.27
20
-92.2
11
174.285
21
-92.0577
0
LINE
8
BLACK
6
CONTINUOUS
10
174.285
20
-92.0577
11
174.326
21
-91.9208
0
LINE
8
BLACK
6
CONTINUOUS
10
174.326
20
-91.9208
11
174.326
21
-91.9208
0
LINE
8
BLACK
6
CONTINUOUS
10
174.326
20
-91.9208
11
174.393
21
-91.7947
0
LINE
8
BLACK
6
CONTINUOUS
10
174.393
20
-91.7947
11
174.484
21
-91.6842
0
LINE
8
BLACK
6
CONTINUOUS
10
174.484
20
-91.6842
11
174.595
21
-91.5934
0
LINE
8
BLACK
6
CONTINUOUS
10
174.595
20
-91.5934
11
174.721
21
-91.526
0
LINE
8
BLACK
6
CONTINUOUS
10
174.721
20
-91.526
11
174.721
21
-91.526
0
LINE
8
BLACK
6
CONTINUOUS
10
174.721
20
-91.526
11
174.858
21
-91.4845
0
LINE
8
BLACK
6
CONTINUOUS
10
174.858
20
-91.4845
11
174.929
21
-91.4775
0
LINE
8
BLACK
6
CONTINUOUS
10
174.929
20
-91.4775
11
174.964
21
-91.474
0
LINE
8
BLACK
6
CONTINUOUS
10
174.964
20
-91.474
11
175.036
21
-91.474
0
LINE
8
BLACK
6
CONTINUOUS
10
175.036
20
-91.474
11
175.071
21
-91.4775
0
LINE
8
BLACK
6
CONTINUOUS
10
177.071
20
-91.4775
11
177.142
21
-91.4845
0
LINE
8
BLACK
6
CONTINUOUS
10
177.142
20
-91.4845
11
177.279
21
-91.526
0
LINE
8
BLACK
6
CONTINUOUS
10
177.279
20
-91.526
11
177.279
21
-91.526
0
LINE
8
BLACK
6
CONTINUOUS
10
177.279
20
-91.526
11
177.405
21
-91.5934
0
LINE
8
BLACK
6
CONTINUOUS
10
177.405
20
-91.5934
11
177.516
21
-91.6842
0
LINE
8
BLACK
6
CONTINUOUS
10
177.516
20
-91.6842
11
177.607
21
-91.7947
0
LINE
8
BLACK
6
CONTINUOUS
10
177.607
20
-91.7947
11
177.674
21
-91.9208
0
LINE
8
BLACK
6
CONTINUOUS
10
177.674
20
-91.9208
11
177.674
21
-91.9208
0
LINE
8
BLACK
6
CONTINUOUS
10
177.674
20
-91.9208
11
177.715
21
-92.0577
0
LINE
8
BLACK
6
CONTINUOUS
10
177.715
20
-92.0577
11
177.73
21
-92.2
0
LINE
8
BLACK
6
CONTINUOUS
10
177.73
20
-92.2
11
177.715
21
-92.3423
0
LINE
8
BLACK
6
CONTINUOUS
10
177.715
20
-92.3423
11
177.674
21
-92.4792
0
LINE
8
BLACK
6
CONTINUOUS
10
177.674
20
-92.4792
11
177.674
21
-92.4792
0
LINE
8
BLACK
6
CONTINUOUS
10
177.674
20
-92.4792
11
177.607
21
-92.6053
0
LINE
8
BLACK
6
CONTINUOUS
10
177.607
20
-92.6053
11
177.516
21
-92.7158
0
LINE
8
BLACK
6
CONTINUOUS
10
177.516
20
-92.7158
11
177.405
21
-92.8066
0
LINE
8
BLACK
6
CONTINUOUS
10
177.405
20
-92.8066
11
177.279
21
-92.874
0
LINE
8
BLACK
6
CONTINUOUS
10
177.279
20
-92.874
11
177.279
21
-92.874
0
LINE
8
BLACK
6
CONTINUOUS
10
177.279
20
-92.874
11
177.142
21
-92.9155
0
LINE
8
BLACK
6
CONTINUOUS
10
177.142
20
-92.9155
11
177.071
21
-92.9225
0
LINE
8
BLACK
6
CONTINUOUS
10
177.071
20
-92.9225
11
177.036
21
-92.926
0
LINE
8
BLACK
6
CONTINUOUS
10
177.036
20
-92.926
11
176.964
21
-92.926
0
LINE
8
BLACK
6
CONTINUOUS
10
176.964
20
-92.926
11
176.929
21
-92.9225
0
LINE
8
BLACK
6
CONTINUOUS
10
176.929
20
-92.9225
11
176.858
21
-92.9155
0
LINE
8
BLACK
6
CONTINUOUS
10
176.858
20
-92.9155
11
176.721
21
-92.874
0
LINE
8
BLACK
6
CONTINUOUS
10
176.721
20
-92.874
11
176.721
21
-92.874
0
LINE
8
BLACK
6
CONTINUOUS
10
176.721
20
-92.874
11
176.595
21
-92.8066
0
LINE
8
BLACK
6
CONTINUOUS
10
176.595
20
-92.8066
11
176.484
21
-92.7158
0
LINE
8
BLACK
6
CONTINUOUS
10
176.484
20
-92.7158
11
176.393
21
-92.6053
0
LINE
8
BLACK
6
CONTINUOUS
10
176.393
20
-92.6053
11
176.326
21
-92.4792
0
LINE
8
BLACK
6
CONTINUOUS
10
176.326
20
-92.4792
11
176.326
21
-92.4792
0
LINE
8
BLACK
6
CONTINUOUS
10
176.326
20
-92.4792
11
176.285
21
-92.3423
0
LINE
8
BLACK
6
CONTINUOUS
10
176.285
20
-92.3423
11
176.27
21
-92.2
0
LINE
8
BLACK
6
CONTINUOUS
10
176.27
20
-92.2
11
176.285
21
-92.0577
0
LINE
8
BLACK
6
CONTINUOUS
10
176.285
20
-92.0577
11
176.326
21
-91.9208
0
LINE
8
BLACK
6
CONTINUOUS
10
176.326
20
-91.9208
11
176.326
21
-91.9208
0
LINE
8
BLACK
6
CONTINUOUS
10
176.326
20
-91.9208
11
176.393
21
-91.7947
0
LINE
8
BLACK
6
CONTINUOUS
10
176.393
20
-91.7947
11
176.484
21
-91.6842
0
LINE
8
BLACK
6
CONTINUOUS
10
176.484
20
-91.6842
11
176.595
21
-91.5934
0
LINE
8
BLACK
6
CONTINUOUS
10
176.595
20
-91.5934
11
176.721
21
-91.526
0
LINE
8
BLACK
6
CONTINUOUS
10
176.721
20
-91.526
11
176.721
21
-91.526
0
LINE
8
BLACK
6
CONTINUOUS
10
176.721
20
-91.526
11
176.858
21
-91.4845
0
LINE
8
BLACK
6
CONTINUOUS
10
176.858
20
-91.4845
11
176.929
21
-91.4775
0
LINE
8
BLACK
6
CONTINUOUS
10
176.929
20
-91.4775
11
176.964
21
-91.474
0
LINE
8
BLACK
6
CONTINUOUS
10
176.964
20
-91.474
11
177.036
21
-91.474
0
LINE
8
BLACK
6
CONTINUOUS
10
177.036
20
-91.474
11
177.071
21
-91.4775
0
LINE
8
BLACK
6
CONTINUOUS
10
159.214
20
-90.152
11
159.346
21
-90.2066
0
LINE
8
BLACK
6
CONTINUOUS
10
159.346
20
-90.2066
11
159.464
21
-90.2859
0
LINE
8
BLACK
6
CONTINUOUS
10
159.464
20
-90.2859
11
159.565
21
-90.3867
0
LINE
8
BLACK
6
CONTINUOUS
10
159.565
20
-90.3867
11
159.644
21
-90.5053
0
LINE
8
BLACK
6
CONTINUOUS
10
159.644
20
-90.5053
11
159.699
21
-90.6371
0
LINE
8
BLACK
6
CONTINUOUS
10
159.699
20
-90.6371
11
159.727
21
-90.777
0
LINE
8
BLACK
6
CONTINUOUS
10
159.727
20
-90.777
11
159.727
21
-90.9196
0
LINE
8
BLACK
6
CONTINUOUS
10
159.727
20
-90.9196
11
159.699
21
-91.0595
0
LINE
8
BLACK
6
CONTINUOUS
10
159.699
20
-91.0595
11
159.644
21
-91.1913
0
LINE
8
BLACK
6
CONTINUOUS
10
159.644
20
-91.1913
11
159.565
21
-91.3099
0
LINE
8
BLACK
6
CONTINUOUS
10
159.565
20
-91.3099
11
159.464
21
-91.4108
0
LINE
8
BLACK
6
CONTINUOUS
10
159.464
20
-91.4108
11
159.346
21
-91.49
0
LINE
8
BLACK
6
CONTINUOUS
10
159.346
20
-91.49
11
159.214
21
-91.5446
0
LINE
8
BLACK
6
CONTINUOUS
10
159.214
20
-91.5446
11
159.074
21
-91.5724
0
LINE
8
BLACK
6
CONTINUOUS
10
159.074
20
-91.5724
11
158.931
21
-91.5724
0
LINE
8
BLACK
6
CONTINUOUS
10
158.931
20
-91.5724
11
158.791
21
-91.5446
0
LINE
8
BLACK
6
CONTINUOUS
10
158.791
20
-91.5446
11
158.66
21
-91.49
0
LINE
8
BLACK
6
CONTINUOUS
10
158.66
20
-91.49
11
158.541
21
-91.4108
0
LINE
8
BLACK
6
CONTINUOUS
10
158.541
20
-91.4108
11
158.44
21
-91.3099
0
LINE
8
BLACK
6
CONTINUOUS
10
158.44
20
-91.3099
11
158.361
21
-91.1913
0
LINE
8
BLACK
6
CONTINUOUS
10
158.361
20
-91.1913
11
158.306
21
-91.0595
0
LINE
8
BLACK
6
CONTINUOUS
10
158.306
20
-91.0595
11
158.279
21
-90.9196
0
LINE
8
BLACK
6
CONTINUOUS
10
158.279
20
-90.9196
11
158.279
21
-90.777
0
LINE
8
BLACK
6
CONTINUOUS
10
158.279
20
-90.777
11
158.306
21
-90.6371
0
LINE
8
BLACK
6
CONTINUOUS
10
158.306
20
-90.6371
11
158.361
21
-90.5053
0
LINE
8
BLACK
6
CONTINUOUS
10
158.361
20
-90.5053
11
158.44
21
-90.3867
0
LINE
8
BLACK
6
CONTINUOUS
10
158.44
20
-90.3867
11
158.541
21
-90.2859
0
LINE
8
BLACK
6
CONTINUOUS
10
158.541
20
-90.2859
11
158.66
21
-90.2066
0
LINE
8
BLACK
6
CONTINUOUS
10
158.66
20
-90.2066
11
158.791
21
-90.152
0
LINE
8
BLACK
6
CONTINUOUS
10
158.791
20
-90.152
11
158.931
21
-90.1242
0
LINE
8
BLACK
6
CONTINUOUS
10
158.931
20
-90.1242
11
159.074
21
-90.1242
0
LINE
8
BLACK
6
CONTINUOUS
10
159.074
20
-90.1242
11
159.214
21
-90.152
0
LINE
8
BLACK
6
CONTINUOUS
10
169.399
20
-90.152
11
169.531
21
-90.2066
0
LINE
8
BLACK
6
CONTINUOUS
10
169.531
20
-90.2066
11
169.65
21
-90.2859
0
LINE
8
BLACK
6
CONTINUOUS
10
169.65
20
-90.2859
11
169.751
21
-90.3867
0
LINE
8
BLACK
6
CONTINUOUS
10
169.751
20
-90.3867
11
169.83
21
-90.5053
0
LINE
8
BLACK
6
CONTINUOUS
10
169.83
20
-90.5053
11
169.884
21
-90.6371
0
LINE
8
BLACK
6
CONTINUOUS
10
169.884
20
-90.6371
11
169.912
21
-90.777
0
LINE
8
BLACK
6
CONTINUOUS
10
169.912
20
-90.777
11
169.912
21
-90.9196
0
LINE
8
BLACK
6
CONTINUOUS
10
169.912
20
-90.9196
11
169.884
21
-91.0595
0
LINE
8
BLACK
6
CONTINUOUS
10
169.884
20
-91.0595
11
169.83
21
-91.1913
0
LINE
8
BLACK
6
CONTINUOUS
10
169.83
20
-91.1913
11
169.751
21
-91.3099
0
LINE
8
BLACK
6
CONTINUOUS
10
169.751
20
-91.3099
11
169.65
21
-91.4108
0
LINE
8
BLACK
6
CONTINUOUS
10
169.65
20
-91.4108
11
169.531
21
-91.49
0
LINE
8
BLACK
6
CONTINUOUS
10
169.531
20
-91.49
11
169.399
21
-91.5446
0
LINE
8
BLACK
6
CONTINUOUS
10
169.399
20
-91.5446
11
169.259
21
-91.5724
0
LINE
8
BLACK
6
CONTINUOUS
10
169.259
20
-91.5724
11
169.117
21
-91.5724
0
LINE
8
BLACK
6
CONTINUOUS
10
169.117
20
-91.5724
11
168.977
21
-91.5446
0
LINE
8
BLACK
6
CONTINUOUS
10
168.977
20
-91.5446
11
168.845
21
-91.49
0
LINE
8
BLACK
6
CONTINUOUS
10
168.845
20
-91.49
11
168.726
21
-91.4108
0
LINE
8
BLACK
6
CONTINUOUS
10
168.726
20
-91.4108
11
168.626
21
-91.3099
0
LINE
8
BLACK
6
CONTINUOUS
10
168.626
20
-91.3099
11
168.546
21
-91.1913
0
LINE
8
BLACK
6
CONTINUOUS
10
168.546
20
-91.1913
11
168.492
21
-91.0595
0
LINE
8
BLACK
6
CONTINUOUS
10
168.492
20
-91.0595
11
168.464
21
-90.9196
0
LINE
8
BLACK
6
CONTINUOUS
10
168.464
20
-90.9196
11
168.464
21
-90.777
0
LINE
8
BLACK
6
CONTINUOUS
10
168.464
20
-90.777
11
168.492
21
-90.6371
0
LINE
8
BLACK
6
CONTINUOUS
10
168.492
20
-90.6371
11
168.546
21
-90.5053
0
LINE
8
BLACK
6
CONTINUOUS
10
168.546
20
-90.5053
11
168.626
21
-90.3867
0
LINE
8
BLACK
6
CONTINUOUS
10
168.626
20
-90.3867
11
168.726
21
-90.2859
0
LINE
8
BLACK
6
CONTINUOUS
10
168.726
20
-90.2859
11
168.845
21
-90.2066
0
LINE
8
BLACK
6
CONTINUOUS
10
168.845
20
-90.2066
11
168.977
21
-90.152
0
LINE
8
BLACK
6
CONTINUOUS
10
168.977
20
-90.152
11
169.117
21
-90.1242
0
LINE
8
BLACK
6
CONTINUOUS
10
169.117
20
-90.1242
11
169.259
21
-90.1242
0
LINE
8
BLACK
6
CONTINUOUS
10
169.259
20
-90.1242
11
169.399
21
-90.152
0
LINE
8
BLACK
6
CONTINUOUS
10
175.726
20
-90.926
11
174.274
21
-90.926
0
LINE
8
BLACK
6
CONTINUOUS
10
174.274
20
-90.926
11
174.274
21
-89.474
0
LINE
8
BLACK
6
CONTINUOUS
10
174.274
20
-89.474
11
175.726
21
-89.474
0
LINE
8
BLACK
6
CONTINUOUS
10
175.726
20
-89.474
11
175.726
21
-90.926
0
LINE
8
BLACK
6
CONTINUOUS
10
177.071
20
-89.4775
11
177.142
21
-89.4845
0
LINE
8
BLACK
6
CONTINUOUS
10
177.142
20
-89.4845
11
177.279
21
-89.526
0
LINE
8
BLACK
6
CONTINUOUS
10
177.279
20
-89.526
11
177.279
21
-89.526
0
LINE
8
BLACK
6
CONTINUOUS
10
177.279
20
-89.526
11
177.405
21
-89.5934
0
LINE
8
BLACK
6
CONTINUOUS
10
177.405
20
-89.5934
11
177.516
21
-89.6842
0
LINE
8
BLACK
6
CONTINUOUS
10
177.516
20
-89.6842
11
177.607
21
-89.7947
0
LINE
8
BLACK
6
CONTINUOUS
10
177.607
20
-89.7947
11
177.674
21
-89.9208
0
LINE
8
BLACK
6
CONTINUOUS
10
177.674
20
-89.9208
11
177.674
21
-89.9208
0
LINE
8
BLACK
6
CONTINUOUS
10
177.674
20
-89.9208
11
177.715
21
-90.0577
0
LINE
8
BLACK
6
CONTINUOUS
10
177.715
20
-90.0577
11
177.73
21
-90.2
0
LINE
8
BLACK
6
CONTINUOUS
10
177.73
20
-90.2
11
177.715
21
-90.3423
0
LINE
8
BLACK
6
CONTINUOUS
10
177.715
20
-90.3423
11
177.674
21
-90.4792
0
LINE
8
BLACK
6
CONTINUOUS
10
177.674
20
-90.4792
11
177.674
21
-90.4792
0
LINE
8
BLACK
6
CONTINUOUS
10
177.674
20
-90.4792
11
177.607
21
-90.6053
0
LINE
8
BLACK
6
CONTINUOUS
10
177.607
20
-90.6053
11
177.516
21
-90.7158
0
LINE
8
BLACK
6
CONTINUOUS
10
177.516
20
-90.7158
11
177.405
21
-90.8066
0
LINE
8
BLACK
6
CONTINUOUS
10
177.405
20
-90.8066
11
177.279
21
-90.874
0
LINE
8
BLACK
6
CONTINUOUS
10
177.279
20
-90.874
11
177.279
21
-90.874
0
LINE
8
BLACK
6
CONTINUOUS
10
177.279
20
-90.874
11
177.142
21
-90.9155
0
LINE
8
BLACK
6
CONTINUOUS
10
177.142
20
-90.9155
11
177.071
21
-90.9225
0
LINE
8
BLACK
6
CONTINUOUS
10
177.071
20
-90.9225
11
177.036
21
-90.926
0
LINE
8
BLACK
6
CONTINUOUS
10
177.036
20
-90.926
11
176.964
21
-90.926
0
LINE
8
BLACK
6
CONTINUOUS
10
176.964
20
-90.926
11
176.929
21
-90.9225
0
LINE
8
BLACK
6
CONTINUOUS
10
176.929
20
-90.9225
11
176.858
21
-90.9155
0
LINE
8
BLACK
6
CONTINUOUS
10
176.858
20
-90.9155
11
176.721
21
-90.874
0
LINE
8
BLACK
6
CONTINUOUS
10
176.721
20
-90.874
11
176.721
21
-90.874
0
LINE
8
BLACK
6
CONTINUOUS
10
176.721
20
-90.874
11
176.595
21
-90.8066
0
LINE
8
BLACK
6
CONTINUOUS
10
176.595
20
-90.8066
11
176.484
21
-90.7158
0
LINE
8
BLACK
6
CONTINUOUS
10
176.484
20
-90.7158
11
176.393
21
-90.6053
0
LINE
8
BLACK
6
CONTINUOUS
10
176.393
20
-90.6053
11
176.326
21
-90.4792
0
LINE
8
BLACK
6
CONTINUOUS
10
176.326
20
-90.4792
11
176.326
21
-90.4792
0
LINE
8
BLACK
6
CONTINUOUS
10
176.326
20
-90.4792
11
176.285
21
-90.3423
0
LINE
8
BLACK
6
CONTINUOUS
10
176.285
20
-90.3423
11
176.27
21
-90.2
0
LINE
8
BLACK
6
CONTINUOUS
10
176.27
20
-90.2
11
176.285
21
-90.0577
0
LINE
8
BLACK
6
CONTINUOUS
10
176.285
20
-90.0577
11
176.326
21
-89.9208
0
LINE
8
BLACK
6
CONTINUOUS
10
176.326
20
-89.9208
11
176.326
21
-89.9208
0
LINE
8
BLACK
6
CONTINUOUS
10
176.326
20
-89.9208
11
176.393
21
-89.7947
0
LINE
8
BLACK
6
CONTINUOUS
10
176.393
20
-89.7947
11
176.484
21
-89.6842
0
LINE
8
BLACK
6
CONTINUOUS
10
176.484
20
-89.6842
11
176.595
21
-89.5934
0
LINE
8
BLACK
6
CONTINUOUS
10
176.595
20
-89.5934
11
176.721
21
-89.526
0
LINE
8
BLACK
6
CONTINUOUS
10
176.721
20
-89.526
11
176.721
21
-89.526
0
LINE
8
BLACK
6
CONTINUOUS
10
176.721
20
-89.526
11
176.858
21
-89.4845
0
LINE
8
BLACK
6
CONTINUOUS
10
176.858
20
-89.4845
11
176.929
21
-89.4775
0
LINE
8
BLACK
6
CONTINUOUS
10
176.929
20
-89.4775
11
176.964
21
-89.474
0
LINE
8
BLACK
6
CONTINUOUS
10
176.964
20
-89.474
11
177.036
21
-89.474
0
LINE
8
BLACK
6
CONTINUOUS
10
177.036
20
-89.474
11
177.071
21
-89.4775
0
LINE
8
BLACK
6
CONTINUOUS
10
170.451
20
-87.3809
11
170.583
21
-87.4355
0
LINE
8
BLACK
6
CONTINUOUS
10
170.583
20
-87.4355
11
170.701
21
-87.5147
0
LINE
8
BLACK
6
CONTINUOUS
10
170.701
20
-87.5147
11
170.802
21
-87.6156
0
LINE
8
BLACK
6
CONTINUOUS
10
170.802
20
-87.6156
11
170.881
21
-87.7342
0
LINE
8
BLACK
6
CONTINUOUS
10
170.881
20
-87.7342
11
170.936
21
-87.866
0
LINE
8
BLACK
6
CONTINUOUS
10
170.936
20
-87.866
11
170.964
21
-88.0059
0
LINE
8
BLACK
6
CONTINUOUS
10
170.964
20
-88.0059
11
170.964
21
-88.1485
0
LINE
8
BLACK
6
CONTINUOUS
10
170.964
20
-88.1485
11
170.936
21
-88.2884
0
LINE
8
BLACK
6
CONTINUOUS
10
170.936
20
-88.2884
11
170.881
21
-88.4202
0
LINE
8
BLACK
6
CONTINUOUS
10
170.881
20
-88.4202
11
170.802
21
-88.5388
0
LINE
8
BLACK
6
CONTINUOUS
10
170.802
20
-88.5388
11
170.701
21
-88.6396
0
LINE
8
BLACK
6
CONTINUOUS
10
170.701
20
-88.6396
11
170.583
21
-88.7189
0
LINE
8
BLACK
6
CONTINUOUS
10
170.583
20
-88.7189
11
170.451
21
-88.7735
0
LINE
8
BLACK
6
CONTINUOUS
10
170.451
20
-88.7735
11
170.311
21
-88.8013
0
LINE
8
BLACK
6
CONTINUOUS
10
170.311
20
-88.8013
11
170.168
21
-88.8013
0
LINE
8
BLACK
6
CONTINUOUS
10
170.168
20
-88.8013
11
170.028
21
-88.7735
0
LINE
8
BLACK
6
CONTINUOUS
10
170.028
20
-88.7735
11
169.897
21
-88.7189
0
LINE
8
BLACK
6
CONTINUOUS
10
169.897
20
-88.7189
11
169.778
21
-88.6396
0
LINE
8
BLACK
6
CONTINUOUS
10
169.778
20
-88.6396
11
169.677
21
-88.5388
0
LINE
8
BLACK
6
CONTINUOUS
10
169.677
20
-88.5388
11
169.598
21
-88.4202
0
LINE
8
BLACK
6
CONTINUOUS
10
169.598
20
-88.4202
11
169.543
21
-88.2884
0
LINE
8
BLACK
6
CONTINUOUS
10
169.543
20
-88.2884
11
169.516
21
-88.1485
0
LINE
8
BLACK
6
CONTINUOUS
10
169.516
20
-88.1485
11
169.516
21
-88.0059
0
LINE
8
BLACK
6
CONTINUOUS
10
169.516
20
-88.0059
11
169.543
21
-87.866
0
LINE
8
BLACK
6
CONTINUOUS
10
169.543
20
-87.866
11
169.598
21
-87.7342
0
LINE
8
BLACK
6
CONTINUOUS
10
169.598
20
-87.7342
11
169.677
21
-87.6156
0
LINE
8
BLACK
6
CONTINUOUS
10
169.677
20
-87.6156
11
169.778
21
-87.5147
0
LINE
8
BLACK
6
CONTINUOUS
10
169.778
20
-87.5147
11
169.897
21
-87.4355
0
LINE
8
BLACK
6
CONTINUOUS
10
169.897
20
-87.4355
11
170.028
21
-87.3809
0
LINE
8
BLACK
6
CONTINUOUS
10
170.028
20
-87.3809
11
170.168
21
-87.3531
0
LINE
8
BLACK
6
CONTINUOUS
10
170.168
20
-87.3531
11
170.311
21
-87.3531
0
LINE
8
BLACK
6
CONTINUOUS
10
170.311
20
-87.3531
11
170.451
21
-87.3809
0
LINE
8
BLACK
6
CONTINUOUS
10
158.162
20
-87.3809
11
158.294
21
-87.4355
0
LINE
8
BLACK
6
CONTINUOUS
10
158.294
20
-87.4355
11
158.413
21
-87.5147
0
LINE
8
BLACK
6
CONTINUOUS
10
158.413
20
-87.5147
11
158.514
21
-87.6156
0
LINE
8
BLACK
6
CONTINUOUS
10
158.514
20
-87.6156
11
158.593
21
-87.7342
0
LINE
8
BLACK
6
CONTINUOUS
10
158.593
20
-87.7342
11
158.647
21
-87.866
0
LINE
8
BLACK
6
CONTINUOUS
10
158.647
20
-87.866
11
158.675
21
-88.0059
0
LINE
8
BLACK
6
CONTINUOUS
10
158.675
20
-88.0059
11
158.675
21
-88.1485
0
LINE
8
BLACK
6
CONTINUOUS
10
158.675
20
-88.1485
11
158.647
21
-88.2884
0
LINE
8
BLACK
6
CONTINUOUS
10
158.647
20
-88.2884
11
158.593
21
-88.4202
0
LINE
8
BLACK
6
CONTINUOUS
10
158.593
20
-88.4202
11
158.514
21
-88.5388
0
LINE
8
BLACK
6
CONTINUOUS
10
158.514
20
-88.5388
11
158.413
21
-88.6396
0
LINE
8
BLACK
6
CONTINUOUS
10
158.413
20
-88.6396
11
158.294
21
-88.7189
0
LINE
8
BLACK
6
CONTINUOUS
10
158.294
20
-88.7189
11
158.162
21
-88.7735
0
LINE
8
BLACK
6
CONTINUOUS
10
158.162
20
-88.7735
11
158.022
21
-88.8013
0
LINE
8
BLACK
6
CONTINUOUS
10
158.022
20
-88.8013
11
157.88
21
-88.8013
0
LINE
8
BLACK
6
CONTINUOUS
10
157.88
20
-88.8013
11
157.74
21
-88.7735
0
LINE
8
BLACK
6
CONTINUOUS
10
157.74
20
-88.7735
11
157.608
21
-88.7189
0
LINE
8
BLACK
6
CONTINUOUS
10
157.608
20
-88.7189
11
157.49
21
-88.6396
0
LINE
8
BLACK
6
CONTINUOUS
10
157.49
20
-88.6396
11
157.389
21
-88.5388
0
LINE
8
BLACK
6
CONTINUOUS
10
157.389
20
-88.5388
11
157.309
21
-88.4202
0
LINE
8
BLACK
6
CONTINUOUS
10
157.309
20
-88.4202
11
157.255
21
-88.2884
0
LINE
8
BLACK
6
CONTINUOUS
10
157.255
20
-88.2884
11
157.227
21
-88.1485
0
LINE
8
BLACK
6
CONTINUOUS
10
157.227
20
-88.1485
11
157.227
21
-88.0059
0
LINE
8
BLACK
6
CONTINUOUS
10
157.227
20
-88.0059
11
157.255
21
-87.866
0
LINE
8
BLACK
6
CONTINUOUS
10
157.255
20
-87.866
11
157.309
21
-87.7342
0
LINE
8
BLACK
6
CONTINUOUS
10
157.309
20
-87.7342
11
157.389
21
-87.6156
0
LINE
8
BLACK
6
CONTINUOUS
10
157.389
20
-87.6156
11
157.49
21
-87.5147
0
LINE
8
BLACK
6
CONTINUOUS
10
157.49
20
-87.5147
11
157.608
21
-87.4355
0
LINE
8
BLACK
6
CONTINUOUS
10
157.608
20
-87.4355
11
157.74
21
-87.3809
0
LINE
8
BLACK
6
CONTINUOUS
10
157.74
20
-87.3809
11
157.88
21
-87.3531
0
LINE
8
BLACK
6
CONTINUOUS
10
157.88
20
-87.3531
11
158.022
21
-87.3531
0
LINE
8
BLACK
6
CONTINUOUS
10
158.022
20
-87.3531
11
158.162
21
-87.3809
0
LINE
8
BLACK
6
CONTINUOUS
10
170.093
20
-84.4421
11
170.224
21
-84.4967
0
LINE
8
BLACK
6
CONTINUOUS
10
170.224
20
-84.4967
11
170.343
21
-84.576
0
LINE
8
BLACK
6
CONTINUOUS
10
170.343
20
-84.576
11
170.444
21
-84.6768
0
LINE
8
BLACK
6
CONTINUOUS
10
170.444
20
-84.6768
11
170.523
21
-84.7954
0
LINE
8
BLACK
6
CONTINUOUS
10
170.523
20
-84.7954
11
170.578
21
-84.9272
0
LINE
8
BLACK
6
CONTINUOUS
10
170.578
20
-84.9272
11
170.606
21
-85.0671
0
LINE
8
BLACK
6
CONTINUOUS
10
170.606
20
-85.0671
11
170.606
21
-85.2097
0
LINE
8
BLACK
6
CONTINUOUS
10
170.606
20
-85.2097
11
170.578
21
-85.3496
0
LINE
8
BLACK
6
CONTINUOUS
10
170.578
20
-85.3496
11
170.523
21
-85.4814
0
LINE
8
BLACK
6
CONTINUOUS
10
170.523
20
-85.4814
11
170.444
21
-85.6
0
LINE
8
BLACK
6
CONTINUOUS
10
170.444
20
-85.6
11
170.343
21
-85.7008
0
LINE
8
BLACK
6
CONTINUOUS
10
170.343
20
-85.7008
11
170.224
21
-85.7801
0
LINE
8
BLACK
6
CONTINUOUS
10
170.224
20
-85.7801
11
170.093
21
-85.8347
0
LINE
8
BLACK
6
CONTINUOUS
10
170.093
20
-85.8347
11
169.953
21
-85.8625
0
LINE
8
BLACK
6
CONTINUOUS
10
169.953
20
-85.8625
11
169.81
21
-85.8625
0
LINE
8
BLACK
6
CONTINUOUS
10
169.81
20
-85.8625
11
169.67
21
-85.8347
0
LINE
8
BLACK
6
CONTINUOUS
10
169.67
20
-85.8347
11
169.538
21
-85.7801
0
LINE
8
BLACK
6
CONTINUOUS
10
169.538
20
-85.7801
11
169.42
21
-85.7008
0
LINE
8
BLACK
6
CONTINUOUS
10
169.42
20
-85.7008
11
169.319
21
-85.6
0
LINE
8
BLACK
6
CONTINUOUS
10
169.319
20
-85.6
11
169.24
21
-85.4814
0
LINE
8
BLACK
6
CONTINUOUS
10
169.24
20
-85.4814
11
169.185
21
-85.3496
0
LINE
8
BLACK
6
CONTINUOUS
10
169.185
20
-85.3496
11
169.157
21
-85.2097
0
LINE
8
BLACK
6
CONTINUOUS
10
169.157
20
-85.2097
11
169.157
21
-85.0671
0
LINE
8
BLACK
6
CONTINUOUS
10
169.157
20
-85.0671
11
169.185
21
-84.9272
0
LINE
8
BLACK
6
CONTINUOUS
10
169.185
20
-84.9272
11
169.24
21
-84.7954
0
LINE
8
BLACK
6
CONTINUOUS
10
169.24
20
-84.7954
11
169.319
21
-84.6768
0
LINE
8
BLACK
6
CONTINUOUS
10
169.319
20
-84.6768
11
169.42
21
-84.576
0
LINE
8
BLACK
6
CONTINUOUS
10
169.42
20
-84.576
11
169.538
21
-84.4967
0
LINE
8
BLACK
6
CONTINUOUS
10
169.538
20
-84.4967
11
169.67
21
-84.4421
0
LINE
8
BLACK
6
CONTINUOUS
10
169.67
20
-84.4421
11
169.81
21
-84.4143
0
LINE
8
BLACK
6
CONTINUOUS
10
169.81
20
-84.4143
11
169.953
21
-84.4143
0
LINE
8
BLACK
6
CONTINUOUS
10
169.953
20
-84.4143
11
170.093
21
-84.4421
0
LINE
8
BLACK
6
CONTINUOUS
10
158.52
20
-84.4421
11
158.652
21
-84.4967
0
LINE
8
BLACK
6
CONTINUOUS
10
158.652
20
-84.4967
11
158.771
21
-84.576
0
LINE
8
BLACK
6
CONTINUOUS
10
158.771
20
-84.576
11
158.872
21
-84.6768
0
LINE
8
BLACK
6
CONTINUOUS
10
158.872
20
-84.6768
11
158.951
21
-84.7954
0
LINE
8
BLACK
6
CONTINUOUS
10
158.951
20
-84.7954
11
159.006
21
-84.9272
0
LINE
8
BLACK
6
CONTINUOUS
10
159.006
20
-84.9272
11
159.033
21
-85.0671
0
LINE
8
BLACK
6
CONTINUOUS
10
159.033
20
-85.0671
11
159.033
21
-85.2097
0
LINE
8
BLACK
6
CONTINUOUS
10
159.033
20
-85.2097
11
159.006
21
-85.3496
0
LINE
8
BLACK
6
CONTINUOUS
10
159.006
20
-85.3496
11
158.951
21
-85.4814
0
LINE
8
BLACK
6
CONTINUOUS
10
158.951
20
-85.4814
11
158.872
21
-85.6
0
LINE
8
BLACK
6
CONTINUOUS
10
158.872
20
-85.6
11
158.771
21
-85.7008
0
LINE
8
BLACK
6
CONTINUOUS
10
158.771
20
-85.7008
11
158.652
21
-85.7801
0
LINE
8
BLACK
6
CONTINUOUS
10
158.652
20
-85.7801
11
158.52
21
-85.8347
0
LINE
8
BLACK
6
CONTINUOUS
10
158.52
20
-85.8347
11
158.381
21
-85.8625
0
LINE
8
BLACK
6
CONTINUOUS
10
158.381
20
-85.8625
11
158.238
21
-85.8625
0
LINE
8
BLACK
6
CONTINUOUS
10
158.238
20
-85.8625
11
158.098
21
-85.8347
0
LINE
8
BLACK
6
CONTINUOUS
10
158.098
20
-85.8347
11
157.966
21
-85.7801
0
LINE
8
BLACK
6
CONTINUOUS
10
157.966
20
-85.7801
11
157.848
21
-85.7008
0
LINE
8
BLACK
6
CONTINUOUS
10
157.848
20
-85.7008
11
157.747
21
-85.6
0
LINE
8
BLACK
6
CONTINUOUS
10
157.747
20
-85.6
11
157.668
21
-85.4814
0
LINE
8
BLACK
6
CONTINUOUS
10
157.668
20
-85.4814
11
157.613
21
-85.3496
0
LINE
8
BLACK
6
CONTINUOUS
10
157.613
20
-85.3496
11
157.585
21
-85.2097
0
LINE
8
BLACK
6
CONTINUOUS
10
157.585
20
-85.2097
11
157.585
21
-85.0671
0
LINE
8
BLACK
6
CONTINUOUS
10
157.585
20
-85.0671
11
157.613
21
-84.9272
0
LINE
8
BLACK
6
CONTINUOUS
10
157.613
20
-84.9272
11
157.668
21
-84.7954
0
LINE
8
BLACK
6
CONTINUOUS
10
157.668
20
-84.7954
11
157.747
21
-84.6768
0
LINE
8
BLACK
6
CONTINUOUS
10
157.747
20
-84.6768
11
157.848
21
-84.576
0
LINE
8
BLACK
6
CONTINUOUS
10
157.848
20
-84.576
11
157.966
21
-84.4967
0
LINE
8
BLACK
6
CONTINUOUS
10
157.966
20
-84.4967
11
158.098
21
-84.4421
0
LINE
8
BLACK
6
CONTINUOUS
10
158.098
20
-84.4421
11
158.238
21
-84.4143
0
LINE
8
BLACK
6
CONTINUOUS
10
158.238
20
-84.4143
11
158.381
21
-84.4143
0
LINE
8
BLACK
6
CONTINUOUS
10
158.381
20
-84.4143
11
158.52
21
-84.4421
0
LINE
8
BLACK
6
CONTINUOUS
10
152.375
20
-81.3913
11
152.482
21
-81.4124
0
LINE
8
BLACK
6
CONTINUOUS
10
152.482
20
-81.4124
11
152.782
21
-81.5369
0
LINE
8
BLACK
6
CONTINUOUS
10
152.782
20
-81.5369
11
153.052
21
-81.7176
0
LINE
8
BLACK
6
CONTINUOUS
10
153.052
20
-81.7176
11
153.282
21
-81.9475
0
LINE
8
BLACK
6
CONTINUOUS
10
153.282
20
-81.9475
11
153.463
21
-82.218
0
LINE
8
BLACK
6
CONTINUOUS
10
153.463
20
-82.218
11
153.575
21
-82.4888
0
LINE
8
BLACK
6
CONTINUOUS
10
153.575
20
-82.4888
11
153.588
21
-82.5184
0
LINE
8
BLACK
6
CONTINUOUS
10
153.588
20
-82.5184
11
153.651
21
-82.8374
0
LINE
8
BLACK
6
CONTINUOUS
10
153.651
20
-82.8374
11
153.651
21
-83.1626
0
LINE
8
BLACK
6
CONTINUOUS
10
153.651
20
-83.1626
11
153.631
21
-83.2624
0
LINE
8
BLACK
6
CONTINUOUS
10
153.631
20
-83.2624
11
153.588
21
-83.4816
0
LINE
8
BLACK
6
CONTINUOUS
10
153.588
20
-83.4816
11
153.463
21
-83.782
0
LINE
8
BLACK
6
CONTINUOUS
10
153.463
20
-83.782
11
153.282
21
-84.0525
0
LINE
8
BLACK
6
CONTINUOUS
10
153.282
20
-84.0525
11
153.052
21
-84.2824
0
LINE
8
BLACK
6
CONTINUOUS
10
153.052
20
-84.2824
11
152.782
21
-84.4631
0
LINE
8
BLACK
6
CONTINUOUS
10
152.782
20
-84.4631
11
152.482
21
-84.5876
0
LINE
8
BLACK
6
CONTINUOUS
10
152.482
20
-84.5876
11
152.375
21
-84.6087
0
LINE
8
BLACK
6
CONTINUOUS
10
152.375
20
-84.6087
11
152.163
21
-84.651
0
LINE
8
BLACK
6
CONTINUOUS
10
152.163
20
-84.651
11
151.837
21
-84.651
0
LINE
8
BLACK
6
CONTINUOUS
10
151.837
20
-84.651
11
151.625
21
-84.6087
0
LINE
8
BLACK
6
CONTINUOUS
10
151.625
20
-84.6087
11
151.518
21
-84.5876
0
LINE
8
BLACK
6
CONTINUOUS
10
151.518
20
-84.5876
11
151.218
21
-84.4631
0
LINE
8
BLACK
6
CONTINUOUS
10
151.218
20
-84.4631
11
150.948
21
-84.2824
0
LINE
8
BLACK
6
CONTINUOUS
10
150.948
20
-84.2824
11
150.718
21
-84.0525
0
LINE
8
BLACK
6
CONTINUOUS
10
150.718
20
-84.0525
11
150.537
21
-83.782
0
LINE
8
BLACK
6
CONTINUOUS
10
150.537
20
-83.782
11
150.412
21
-83.4816
0
LINE
8
BLACK
6
CONTINUOUS
10
150.412
20
-83.4816
11
150.369
21
-83.2624
0
LINE
8
BLACK
6
CONTINUOUS
10
150.369
20
-83.2624
11
150.349
21
-83.1626
0
LINE
8
BLACK
6
CONTINUOUS
10
150.349
20
-83.1626
11
150.349
21
-82.8374
0
LINE
8
BLACK
6
CONTINUOUS
10
150.349
20
-82.8374
11
150.412
21
-82.5184
0
LINE
8
BLACK
6
CONTINUOUS
10
150.412
20
-82.5184
11
150.425
21
-82.4888
0
LINE
8
BLACK
6
CONTINUOUS
10
150.425
20
-82.4888
11
150.537
21
-82.218
0
LINE
8
BLACK
6
CONTINUOUS
10
150.537
20
-82.218
11
150.718
21
-81.9475
0
LINE
8
BLACK
6
CONTINUOUS
10
150.718
20
-81.9475
11
150.948
21
-81.7176
0
LINE
8
BLACK
6
CONTINUOUS
10
150.948
20
-81.7176
11
151.218
21
-81.5369
0
LINE
8
BLACK
6
CONTINUOUS
10
151.218
20
-81.5369
11
151.518
21
-81.4124
0
LINE
8
BLACK
6
CONTINUOUS
10
151.518
20
-81.4124
11
151.625
21
-81.3913
0
LINE
8
BLACK
6
CONTINUOUS
10
151.625
20
-81.3913
11
151.837
21
-81.349
0
LINE
8
BLACK
6
CONTINUOUS
10
151.837
20
-81.349
11
152.163
21
-81.349
0
LINE
8
BLACK
6
CONTINUOUS
10
152.163
20
-81.349
11
152.375
21
-81.3913
0
LINE
8
BLACK
6
CONTINUOUS
10
176.575
20
-81.3913
11
176.682
21
-81.4124
0
LINE
8
BLACK
6
CONTINUOUS
10
176.682
20
-81.4124
11
176.982
21
-81.5369
0
LINE
8
BLACK
6
CONTINUOUS
10
176.982
20
-81.5369
11
177.252
21
-81.7176
0
LINE
8
BLACK
6
CONTINUOUS
10
177.252
20
-81.7176
11
177.482
21
-81.9475
0
LINE
8
BLACK
6
CONTINUOUS
10
177.482
20
-81.9475
11
177.663
21
-82.218
0
LINE
8
BLACK
6
CONTINUOUS
10
177.663
20
-82.218
11
177.775
21
-82.4888
0
LINE
8
BLACK
6
CONTINUOUS
10
177.775
20
-82.4888
11
177.788
21
-82.5184
0
LINE
8
BLACK
6
CONTINUOUS
10
177.788
20
-82.5184
11
177.851
21
-82.8374
0
LINE
8
BLACK
6
CONTINUOUS
10
177.851
20
-82.8374
11
177.851
21
-83.1626
0
LINE
8
BLACK
6
CONTINUOUS
10
177.851
20
-83.1626
11
177.831
21
-83.2624
0
LINE
8
BLACK
6
CONTINUOUS
10
177.831
20
-83.2624
11
177.788
21
-83.4816
0
LINE
8
BLACK
6
CONTINUOUS
10
177.788
20
-83.4816
11
177.663
21
-83.782
0
LINE
8
BLACK
6
CONTINUOUS
10
177.663
20
-83.782
11
177.482
21
-84.0525
0
LINE
8
BLACK
6
CONTINUOUS
10
177.482
20
-84.0525
11
177.252
21
-84.2824
0
LINE
8
BLACK
6
CONTINUOUS
10
177.252
20
-84.2824
11
176.982
21
-84.4631
0
LINE
8
BLACK
6
CONTINUOUS
10
176.982
20
-84.4631
11
176.682
21
-84.5876
0
LINE
8
BLACK
6
CONTINUOUS
10
176.682
20
-84.5876
11
176.575
21
-84.6087
0
LINE
8
BLACK
6
CONTINUOUS
10
176.575
20
-84.6087
11
176.363
21
-84.651
0
LINE
8
BLACK
6
CONTINUOUS
10
176.363
20
-84.651
11
176.037
21
-84.651
0
LINE
8
BLACK
6
CONTINUOUS
10
176.037
20
-84.651
11
175.825
21
-84.6087
0
LINE
8
BLACK
6
CONTINUOUS
10
175.825
20
-84.6087
11
175.718
21
-84.5876
0
LINE
8
BLACK
6
CONTINUOUS
10
175.718
20
-84.5876
11
175.418
21
-84.4631
0
LINE
8
BLACK
6
CONTINUOUS
10
175.418
20
-84.4631
11
175.148
21
-84.2824
0
LINE
8
BLACK
6
CONTINUOUS
10
175.148
20
-84.2824
11
174.918
21
-84.0525
0
LINE
8
BLACK
6
CONTINUOUS
10
174.918
20
-84.0525
11
174.737
21
-83.782
0
LINE
8
BLACK
6
CONTINUOUS
10
174.737
20
-83.782
11
174.612
21
-83.4816
0
LINE
8
BLACK
6
CONTINUOUS
10
174.612
20
-83.4816
11
174.569
21
-83.2624
0
LINE
8
BLACK
6
CONTINUOUS
10
174.569
20
-83.2624
11
174.549
21
-83.1626
0
LINE
8
BLACK
6
CONTINUOUS
10
174.549
20
-83.1626
11
174.549
21
-82.8374
0
LINE
8
BLACK
6
CONTINUOUS
10
174.549
20
-82.8374
11
174.612
21
-82.5184
0
LINE
8
BLACK
6
CONTINUOUS
10
174.612
20
-82.5184
11
174.625
21
-82.4888
0
LINE
8
BLACK
6
CONTINUOUS
10
174.625
20
-82.4888
11
174.737
21
-82.218
0
LINE
8
BLACK
6
CONTINUOUS
10
174.737
20
-82.218
11
174.918
21
-81.9475
0
LINE
8
BLACK
6
CONTINUOUS
10
174.918
20
-81.9475
11
175.148
21
-81.7176
0
LINE
8
BLACK
6
CONTINUOUS
10
175.148
20
-81.7176
11
175.418
21
-81.5369
0
LINE
8
BLACK
6
CONTINUOUS
10
175.418
20
-81.5369
11
175.718
21
-81.4124
0
LINE
8
BLACK
6
CONTINUOUS
10
175.718
20
-81.4124
11
175.825
21
-81.3913
0
LINE
8
BLACK
6
CONTINUOUS
10
175.825
20
-81.3913
11
176.037
21
-81.349
0
LINE
8
BLACK
6
CONTINUOUS
10
176.037
20
-81.349
11
176.363
21
-81.349
0
LINE
8
BLACK
6
CONTINUOUS
10
176.363
20
-81.349
11
176.575
21
-81.3913
0
LINE
8
BLACK
6
CONTINUOUS
10
160.202
20
-82.0037
11
160.334
21
-82.0583
0
LINE
8
BLACK
6
CONTINUOUS
10
160.334
20
-82.0583
11
160.452
21
-82.1376
0
LINE
8
BLACK
6
CONTINUOUS
10
160.452
20
-82.1376
11
160.553
21
-82.2384
0
LINE
8
BLACK
6
CONTINUOUS
10
160.553
20
-82.2384
11
160.632
21
-82.357
0
LINE
8
BLACK
6
CONTINUOUS
10
160.632
20
-82.357
11
160.687
21
-82.4888
0
LINE
8
BLACK
6
CONTINUOUS
10
160.687
20
-82.4888
11
160.715
21
-82.6287
0
LINE
8
BLACK
6
CONTINUOUS
10
160.715
20
-82.6287
11
160.715
21
-82.7713
0
LINE
8
BLACK
6
CONTINUOUS
10
160.715
20
-82.7713
11
160.687
21
-82.9112
0
LINE
8
BLACK
6
CONTINUOUS
10
160.687
20
-82.9112
11
160.632
21
-83.043
0
LINE
8
BLACK
6
CONTINUOUS
10
160.632
20
-83.043
11
160.553
21
-83.1616
0
LINE
8
BLACK
6
CONTINUOUS
10
160.553
20
-83.1616
11
160.452
21
-83.2624
0
LINE
8
BLACK
6
CONTINUOUS
10
160.452
20
-83.2624
11
160.334
21
-83.3417
0
LINE
8
BLACK
6
CONTINUOUS
10
160.334
20
-83.3417
11
160.202
21
-83.3963
0
LINE
8
BLACK
6
CONTINUOUS
10
160.202
20
-83.3963
11
160.062
21
-83.4241
0
LINE
8
BLACK
6
CONTINUOUS
10
160.062
20
-83.4241
11
159.919
21
-83.4241
0
LINE
8
BLACK
6
CONTINUOUS
10
159.919
20
-83.4241
11
159.78
21
-83.3963
0
LINE
8
BLACK
6
CONTINUOUS
10
159.78
20
-83.3963
11
159.648
21
-83.3417
0
LINE
8
BLACK
6
CONTINUOUS
10
159.648
20
-83.3417
11
159.529
21
-83.2624
0
LINE
8
BLACK
6
CONTINUOUS
10
159.529
20
-83.2624
11
159.428
21
-83.1616
0
LINE
8
BLACK
6
CONTINUOUS
10
159.428
20
-83.1616
11
159.349
21
-83.043
0
LINE
8
BLACK
6
CONTINUOUS
10
159.349
20
-83.043
11
159.294
21
-82.9112
0
LINE
8
BLACK
6
CONTINUOUS
10
159.294
20
-82.9112
11
159.267
21
-82.7713
0
LINE
8
BLACK
6
CONTINUOUS
10
159.267
20
-82.7713
11
159.267
21
-82.6287
0
LINE
8
BLACK
6
CONTINUOUS
10
159.267
20
-82.6287
11
159.294
21
-82.4888
0
LINE
8
BLACK
6
CONTINUOUS
10
159.294
20
-82.4888
11
159.349
21
-82.357
0
LINE
8
BLACK
6
CONTINUOUS
10
159.349
20
-82.357
11
159.428
21
-82.2384
0
LINE
8
BLACK
6
CONTINUOUS
10
159.428
20
-82.2384
11
159.529
21
-82.1376
0
LINE
8
BLACK
6
CONTINUOUS
10
159.529
20
-82.1376
11
159.648
21
-82.0583
0
LINE
8
BLACK
6
CONTINUOUS
10
159.648
20
-82.0583
11
159.78
21
-82.0037
0
LINE
8
BLACK
6
CONTINUOUS
10
159.78
20
-82.0037
11
159.919
21
-81.9759
0
LINE
8
BLACK
6
CONTINUOUS
10
159.919
20
-81.9759
11
160.062
21
-81.9759
0
LINE
8
BLACK
6
CONTINUOUS
10
160.062
20
-81.9759
11
160.202
21
-82.0037
0
LINE
8
BLACK
6
CONTINUOUS
10
168.411
20
-82.0037
11
168.543
21
-82.0583
0
LINE
8
BLACK
6
CONTINUOUS
10
168.543
20
-82.0583
11
168.662
21
-82.1376
0
LINE
8
BLACK
6
CONTINUOUS
10
168.662
20
-82.1376
11
168.762
21
-82.2384
0
LINE
8
BLACK
6
CONTINUOUS
10
168.762
20
-82.2384
11
168.842
21
-82.357
0
LINE
8
BLACK
6
CONTINUOUS
10
168.842
20
-82.357
11
168.896
21
-82.4888
0
LINE
8
BLACK
6
CONTINUOUS
10
168.896
20
-82.4888
11
168.924
21
-82.6287
0
LINE
8
BLACK
6
CONTINUOUS
10
168.924
20
-82.6287
11
168.924
21
-82.7713
0
LINE
8
BLACK
6
CONTINUOUS
10
168.924
20
-82.7713
11
168.896
21
-82.9112
0
LINE
8
BLACK
6
CONTINUOUS
10
168.896
20
-82.9112
11
168.842
21
-83.043
0
LINE
8
BLACK
6
CONTINUOUS
10
168.842
20
-83.043
11
168.762
21
-83.1616
0
LINE
8
BLACK
6
CONTINUOUS
10
168.762
20
-83.1616
11
168.662
21
-83.2624
0
LINE
8
BLACK
6
CONTINUOUS
10
168.662
20
-83.2624
11
168.543
21
-83.3417
0
LINE
8
BLACK
6
CONTINUOUS
10
168.543
20
-83.3417
11
168.411
21
-83.3963
0
LINE
8
BLACK
6
CONTINUOUS
10
168.411
20
-83.3963
11
168.271
21
-83.4241
0
LINE
8
BLACK
6
CONTINUOUS
10
168.271
20
-83.4241
11
168.129
21
-83.4241
0
LINE
8
BLACK
6
CONTINUOUS
10
168.129
20
-83.4241
11
167.989
21
-83.3963
0
LINE
8
BLACK
6
CONTINUOUS
10
167.989
20
-83.3963
11
167.857
21
-83.3417
0
LINE
8
BLACK
6
CONTINUOUS
10
167.857
20
-83.3417
11
167.738
21
-83.2624
0
LINE
8
BLACK
6
CONTINUOUS
10
167.738
20
-83.2624
11
167.638
21
-83.1616
0
LINE
8
BLACK
6
CONTINUOUS
10
167.638
20
-83.1616
11
167.558
21
-83.043
0
LINE
8
BLACK
6
CONTINUOUS
10
167.558
20
-83.043
11
167.504
21
-82.9112
0
LINE
8
BLACK
6
CONTINUOUS
10
167.504
20
-82.9112
11
167.476
21
-82.7713
0
LINE
8
BLACK
6
CONTINUOUS
10
167.476
20
-82.7713
11
167.476
21
-82.6287
0
LINE
8
BLACK
6
CONTINUOUS
10
167.476
20
-82.6287
11
167.504
21
-82.4888
0
LINE
8
BLACK
6
CONTINUOUS
10
167.504
20
-82.4888
11
167.558
21
-82.357
0
LINE
8
BLACK
6
CONTINUOUS
10
167.558
20
-82.357
11
167.638
21
-82.2384
0
LINE
8
BLACK
6
CONTINUOUS
10
167.638
20
-82.2384
11
167.738
21
-82.1376
0
LINE
8
BLACK
6
CONTINUOUS
10
167.738
20
-82.1376
11
167.857
21
-82.0583
0
LINE
8
BLACK
6
CONTINUOUS
10
167.857
20
-82.0583
11
167.989
21
-82.0037
0
LINE
8
BLACK
6
CONTINUOUS
10
167.989
20
-82.0037
11
168.129
21
-81.9759
0
LINE
8
BLACK
6
CONTINUOUS
10
168.129
20
-81.9759
11
168.271
21
-81.9759
0
LINE
8
BLACK
6
CONTINUOUS
10
168.271
20
-81.9759
11
168.411
21
-82.0037
0
LINE
8
BLACK
6
CONTINUOUS
10
162.826
20
-80.627
11
162.958
21
-80.6816
0
LINE
8
BLACK
6
CONTINUOUS
10
162.958
20
-80.6816
11
163.076
21
-80.7609
0
LINE
8
BLACK
6
CONTINUOUS
10
163.076
20
-80.7609
11
163.177
21
-80.8617
0
LINE
8
BLACK
6
CONTINUOUS
10
163.177
20
-80.8617
11
163.256
21
-80.9803
0
LINE
8
BLACK
6
CONTINUOUS
10
163.256
20
-80.9803
11
163.311
21
-81.1121
0
LINE
8
BLACK
6
CONTINUOUS
10
163.311
20
-81.1121
11
163.339
21
-81.252
0
LINE
8
BLACK
6
CONTINUOUS
10
163.339
20
-81.252
11
163.339
21
-81.3946
0
LINE
8
BLACK
6
CONTINUOUS
10
163.339
20
-81.3946
11
163.311
21
-81.5345
0
LINE
8
BLACK
6
CONTINUOUS
10
163.311
20
-81.5345
11
163.256
21
-81.6663
0
LINE
8
BLACK
6
CONTINUOUS
10
163.256
20
-81.6663
11
163.177
21
-81.7849
0
LINE
8
BLACK
6
CONTINUOUS
10
163.177
20
-81.7849
11
163.076
21
-81.8858
0
LINE
8
BLACK
6
CONTINUOUS
10
163.076
20
-81.8858
11
162.958
21
-81.965
0
LINE
8
BLACK
6
CONTINUOUS
10
162.958
20
-81.965
11
162.826
21
-82.0196
0
LINE
8
BLACK
6
CONTINUOUS
10
162.826
20
-82.0196
11
162.686
21
-82.0474
0
LINE
8
BLACK
6
CONTINUOUS
10
162.686
20
-82.0474
11
162.543
21
-82.0474
0
LINE
8
BLACK
6
CONTINUOUS
10
162.543
20
-82.0474
11
162.403
21
-82.0196
0
LINE
8
BLACK
6
CONTINUOUS
10
162.403
20
-82.0196
11
162.272
21
-81.965
0
LINE
8
BLACK
6
CONTINUOUS
10
162.272
20
-81.965
11
162.153
21
-81.8858
0
LINE
8
BLACK
6
CONTINUOUS
10
162.153
20
-81.8858
11
162.052
21
-81.7849
0
LINE
8
BLACK
6
CONTINUOUS
10
162.052
20
-81.7849
11
161.973
21
-81.6663
0
LINE
8
BLACK
6
CONTINUOUS
10
161.973
20
-81.6663
11
161.918
21
-81.5345
0
LINE
8
BLACK
6
CONTINUOUS
10
161.918
20
-81.5345
11
161.89
21
-81.3946
0
LINE
8
BLACK
6
CONTINUOUS
10
161.89
20
-81.3946
11
161.89
21
-81.252
0
LINE
8
BLACK
6
CONTINUOUS
10
161.89
20
-81.252
11
161.918
21
-81.1121
0
LINE
8
BLACK
6
CONTINUOUS
10
161.918
20
-81.1121
11
161.973
21
-80.9803
0
LINE
8
BLACK
6
CONTINUOUS
10
161.973
20
-80.9803
11
162.052
21
-80.8617
0
LINE
8
BLACK
6
CONTINUOUS
10
162.052
20
-80.8617
11
162.153
21
-80.7609
0
LINE
8
BLACK
6
CONTINUOUS
10
162.153
20
-80.7609
11
162.272
21
-80.6816
0
LINE
8
BLACK
6
CONTINUOUS
10
162.272
20
-80.6816
11
162.403
21
-80.627
0
LINE
8
BLACK
6
CONTINUOUS
10
162.403
20
-80.627
11
162.543
21
-80.5992
0
LINE
8
BLACK
6
CONTINUOUS
10
162.543
20
-80.5992
11
162.686
21
-80.5992
0
LINE
8
BLACK
6
CONTINUOUS
10
162.686
20
-80.5992
11
162.826
21
-80.627
0
LINE
8
BLACK
6
CONTINUOUS
10
165.787
20
-80.627
11
165.919
21
-80.6816
0
LINE
8
BLACK
6
CONTINUOUS
10
165.919
20
-80.6816
11
166.038
21
-80.7609
0
LINE
8
BLACK
6
CONTINUOUS
10
166.038
20
-80.7609
11
166.139
21
-80.8617
0
LINE
8
BLACK
6
CONTINUOUS
10
166.139
20
-80.8617
11
166.218
21
-80.9803
0
LINE
8
BLACK
6
CONTINUOUS
10
166.218
20
-80.9803
11
166.272
21
-81.1121
0
LINE
8
BLACK
6
CONTINUOUS
10
166.272
20
-81.1121
11
166.3
21
-81.252
0
LINE
8
BLACK
6
CONTINUOUS
10
166.3
20
-81.252
11
166.3
21
-81.3946
0
LINE
8
BLACK
6
CONTINUOUS
10
166.3
20
-81.3946
11
166.272
21
-81.5345
0
LINE
8
BLACK
6
CONTINUOUS
10
166.272
20
-81.5345
11
166.218
21
-81.6663
0
LINE
8
BLACK
6
CONTINUOUS
10
166.218
20
-81.6663
11
166.139
21
-81.7849
0
LINE
8
BLACK
6
CONTINUOUS
10
166.139
20
-81.7849
11
166.038
21
-81.8858
0
LINE
8
BLACK
6
CONTINUOUS
10
166.038
20
-81.8858
11
165.919
21
-81.965
0
LINE
8
BLACK
6
CONTINUOUS
10
165.919
20
-81.965
11
165.787
21
-82.0196
0
LINE
8
BLACK
6
CONTINUOUS
10
165.787
20
-82.0196
11
165.647
21
-82.0474
0
LINE
8
BLACK
6
CONTINUOUS
10
165.647
20
-82.0474
11
165.505
21
-82.0474
0
LINE
8
BLACK
6
CONTINUOUS
10
165.505
20
-82.0474
11
165.365
21
-82.0196
0
LINE
8
BLACK
6
CONTINUOUS
10
165.365
20
-82.0196
11
165.233
21
-81.965
0
LINE
8
BLACK
6
CONTINUOUS
10
165.233
20
-81.965
11
165.115
21
-81.8858
0
LINE
8
BLACK
6
CONTINUOUS
10
165.115
20
-81.8858
11
165.014
21
-81.7849
0
LINE
8
BLACK
6
CONTINUOUS
10
165.014
20
-81.7849
11
164.934
21
-81.6663
0
LINE
8
BLACK
6
CONTINUOUS
10
164.934
20
-81.6663
11
164.88
21
-81.5345
0
LINE
8
BLACK
6
CONTINUOUS
10
164.88
20
-81.5345
11
164.852
21
-81.3946
0
LINE
8
BLACK
6
CONTINUOUS
10
164.852
20
-81.3946
11
164.852
21
-81.252
0
LINE
8
BLACK
6
CONTINUOUS
10
164.852
20
-81.252
11
164.88
21
-81.1121
0
LINE
8
BLACK
6
CONTINUOUS
10
164.88
20
-81.1121
11
164.934
21
-80.9803
0
LINE
8
BLACK
6
CONTINUOUS
10
164.934
20
-80.9803
11
165.014
21
-80.8617
0
LINE
8
BLACK
6
CONTINUOUS
10
165.014
20
-80.8617
11
165.115
21
-80.7609
0
LINE
8
BLACK
6
CONTINUOUS
10
165.115
20
-80.7609
11
165.233
21
-80.6816
0
LINE
8
BLACK
6
CONTINUOUS
10
165.233
20
-80.6816
11
165.365
21
-80.627
0
LINE
8
BLACK
6
CONTINUOUS
10
165.365
20
-80.627
11
165.505
21
-80.5992
0
LINE
8
BLACK
6
CONTINUOUS
10
165.505
20
-80.5992
11
165.647
21
-80.5992
0
LINE
8
BLACK
6
CONTINUOUS
10
165.647
20
-80.5992
11
165.787
21
-80.627
  0
ENDSEC
  0
EOF
