G04 #@! TF.GenerationSoftware,KiCad,Pcbnew,(5.1.2-1)-1*
G04 #@! TF.CreationDate,2021-04-17T11:50:00+08:00*
G04 #@! TF.ProjectId,Nixie,4e697869-652e-46b6-9963-61645f706362,rev?*
G04 #@! TF.SameCoordinates,Original*
G04 #@! TF.FileFunction,Copper,L2,Bot*
G04 #@! TF.FilePolarity,Positive*
%FSLAX46Y46*%
G04 Gerber Fmt 4.6, Leading zero omitted, Abs format (unit mm)*
G04 Created by KiCad (PCBNEW (5.1.2-1)-1) date 2021-04-17 11:50:00*
%MOMM*%
%LPD*%
G04 APERTURE LIST*
%ADD10O,1.350000X1.350000*%
%ADD11R,1.350000X1.350000*%
%ADD12C,1.346200*%
%ADD13C,0.800000*%
%ADD14C,0.200000*%
%ADD15C,0.500000*%
G04 APERTURE END LIST*
D10*
X177000000Y-102200000D03*
X175000000Y-102200000D03*
X177000000Y-100200000D03*
X175000000Y-100200000D03*
X177000000Y-98200000D03*
X175000000Y-98200000D03*
X177000000Y-96200000D03*
X175000000Y-96200000D03*
X177000000Y-94200000D03*
X175000000Y-94200000D03*
X177000000Y-92200000D03*
X175000000Y-92200000D03*
X177000000Y-90200000D03*
D11*
X175000000Y-90200000D03*
D12*
X159002660Y-90848320D03*
X169188060Y-90848320D03*
X170239620Y-88077180D03*
X169881480Y-85138400D03*
X168200000Y-82700000D03*
X165576180Y-81323320D03*
X162614540Y-81323320D03*
X159990720Y-82700000D03*
X158309240Y-85138400D03*
X157951100Y-88077180D03*
X164095360Y-93520400D03*
X161220080Y-92811740D03*
X166970640Y-92811740D03*
D13*
X176500000Y-112700000D03*
X168687500Y-112700000D03*
X163000000Y-104400000D03*
X156100000Y-104100000D03*
X156400000Y-102600000D03*
X158800000Y-101660582D03*
X160300000Y-98900000D03*
X165200000Y-98200000D03*
X164400000Y-96400000D03*
X169400000Y-95800000D03*
X172100000Y-95000000D03*
X173600000Y-93400000D03*
X154100000Y-94600000D03*
X167975000Y-88412500D03*
X160300000Y-88337500D03*
D14*
X175934315Y-112700000D02*
X175834315Y-112800000D01*
X176500000Y-112700000D02*
X175934315Y-112700000D01*
X168787500Y-112800000D02*
X168687500Y-112700000D01*
X175834315Y-112800000D02*
X168787500Y-112800000D01*
X175000000Y-102200000D02*
X172800000Y-104400000D01*
X172800000Y-104400000D02*
X163000000Y-104400000D01*
X177000000Y-100200000D02*
X175975001Y-101224999D01*
X175975001Y-101224999D02*
X173275001Y-101224999D01*
X173275001Y-101224999D02*
X171000000Y-103500000D01*
X171000000Y-103500000D02*
X156700000Y-103500000D01*
X156700000Y-103500000D02*
X156100000Y-104100000D01*
X171000000Y-102600000D02*
X156400000Y-102600000D01*
X172900000Y-100700000D02*
X171000000Y-102600000D01*
X174500000Y-100700000D02*
X172900000Y-100700000D01*
X175000000Y-100200000D02*
X174500000Y-100700000D01*
X173586106Y-99224999D02*
X171211105Y-101600000D01*
X175975001Y-99224999D02*
X173586106Y-99224999D01*
X177000000Y-98200000D02*
X175975001Y-99224999D01*
X158860582Y-101600000D02*
X158800000Y-101660582D01*
X171211105Y-101600000D02*
X158860582Y-101600000D01*
X174045406Y-98200000D02*
X173345406Y-98900000D01*
X175000000Y-98200000D02*
X174045406Y-98200000D01*
X173345406Y-98900000D02*
X160900000Y-98900000D01*
X160900000Y-98900000D02*
X160500000Y-98900000D01*
X160500000Y-98900000D02*
X160300000Y-98900000D01*
X175975001Y-97224999D02*
X166175001Y-97224999D01*
X177000000Y-96200000D02*
X175975001Y-97224999D01*
X166175001Y-97224999D02*
X165200000Y-98200000D01*
X174045406Y-96200000D02*
X173745405Y-96500001D01*
X173745405Y-96500001D02*
X165000001Y-96500001D01*
X175000000Y-96200000D02*
X174045406Y-96200000D01*
X164900000Y-96400000D02*
X164400000Y-96400000D01*
X165000001Y-96500001D02*
X164900000Y-96400000D01*
X169100000Y-95800000D02*
X169400000Y-95800000D01*
X173965699Y-95800000D02*
X169100000Y-95800000D01*
X175975001Y-95224999D02*
X174540700Y-95224999D01*
X177000000Y-94200000D02*
X175975001Y-95224999D01*
X174540700Y-95224999D02*
X173965699Y-95800000D01*
X174325001Y-94874999D02*
X172325001Y-94874999D01*
X175000000Y-94200000D02*
X174325001Y-94874999D01*
X172200000Y-95000000D02*
X172100000Y-95000000D01*
X172325001Y-94874999D02*
X172200000Y-95000000D01*
X177000000Y-92200000D02*
X175975001Y-93224999D01*
X175324999Y-93224999D02*
X175300000Y-93200000D01*
X175975001Y-93224999D02*
X175324999Y-93224999D01*
X175324999Y-93224999D02*
X173775001Y-93224999D01*
X173775001Y-93224999D02*
X173600000Y-93400000D01*
X154206499Y-94493501D02*
X154100000Y-94600000D01*
X170406499Y-94493501D02*
X154206499Y-94493501D01*
X172200000Y-92700000D02*
X170406499Y-94493501D01*
X174500000Y-92700000D02*
X172200000Y-92700000D01*
X175000000Y-92200000D02*
X174500000Y-92700000D01*
D15*
X167792511Y-91971421D02*
X172528579Y-91971421D01*
X167509729Y-91688639D02*
X167792511Y-91971421D01*
X164975214Y-91688639D02*
X167509729Y-91688639D01*
X164095360Y-92568493D02*
X164975214Y-91688639D01*
X164095360Y-93520400D02*
X164095360Y-92568493D01*
X172528579Y-91971421D02*
X173000000Y-91500000D01*
X173825000Y-90200000D02*
X175000000Y-90200000D01*
X173000000Y-91025000D02*
X173825000Y-90200000D01*
X173000000Y-91500000D02*
X173000000Y-91025000D01*
D14*
X169904300Y-88412500D02*
X170239620Y-88077180D01*
X167975000Y-88412500D02*
X169904300Y-88412500D01*
X158211420Y-88337500D02*
X157951100Y-88077180D01*
X160300000Y-88337500D02*
X158211420Y-88337500D01*
M02*
