M48
; DRILL file {KiCad (5.1.2-1)-1} date Saturday, 17 April 2021 at 11:49:57
; FORMAT={-:-/ absolute / inch / decimal}
; #@! TF.CreationDate,2021-04-17T11:49:57+08:00
; #@! TF.GenerationSoftware,Kicad,Pcbnew,(5.1.2-1)-1
; #@! TF.FileFunction,Plated,1,2,PTH
FMAT,2
INCH
T1C0.0157
T2C0.0315
T3C0.0330
%
G90
G05
T1
X6.0669Y-3.7244
X6.1457Y-4.0984
X6.1575Y-4.0394
X6.252Y-4.0024
X6.311Y-3.4779
X6.311Y-3.8937
X6.4173Y-4.1102
X6.4724Y-3.7953
X6.5039Y-3.8661
X6.6132Y-3.4808
X6.6412Y-4.437
X6.6693Y-3.7717
X6.7756Y-3.7402
X6.8346Y-3.6772
X6.9488Y-4.437
T2
X6.8898Y-3.5512
X6.8898Y-3.6299
X6.8898Y-3.7087
X6.8898Y-3.7874
X6.8898Y-3.8661
X6.8898Y-3.9449
X6.8898Y-4.0236
X6.9685Y-3.5512
X6.9685Y-3.6299
X6.9685Y-3.7087
X6.9685Y-3.7874
X6.9685Y-3.8661
X6.9685Y-3.9449
X6.9685Y-4.0236
T3
X6.2185Y-3.4676
X6.2326Y-3.3519
X6.2599Y-3.5767
X6.2988Y-3.2559
X6.3472Y-3.654
X6.4021Y-3.2017
X6.4604Y-3.6819
X6.5187Y-3.2017
X6.5736Y-3.654
X6.622Y-3.2559
X6.6609Y-3.5767
X6.6882Y-3.3519
X6.7023Y-3.4676
T0
M30
