<?xml version="1.0" encoding="UTF-8" standalone="no"?>
<svg
   xmlns:dc="http://purl.org/dc/elements/1.1/"
   xmlns:cc="http://creativecommons.org/ns#"
   xmlns:rdf="http://www.w3.org/1999/02/22-rdf-syntax-ns#"
   xmlns:svg="http://www.w3.org/2000/svg"
   xmlns="http://www.w3.org/2000/svg"
   xmlns:sodipodi="http://sodipodi.sourceforge.net/DTD/sodipodi-0.dtd"
   xmlns:inkscape="http://www.inkscape.org/namespaces/inkscape"
   version="1.1"
   width="32.051434mm"
   height="37.050148mm"
   viewBox="0 0 12618.684 14586.686"
   id="svg258"
   sodipodi:docname="Nixie-Edge_Cuts.svg"
   inkscape:version="1.0.2 (e86c8708, 2021-01-15)">
  <metadata
     id="metadata264">
    <rdf:RDF>
      <cc:Work
         rdf:about="">
        <dc:format>image/svg+xml</dc:format>
        <dc:type
           rdf:resource="http://purl.org/dc/dcmitype/StillImage" />
        <dc:title>SVG Picture created as Nixie-Edge_Cuts.svg date 2021/03/25 13:34:28 </dc:title>
      </cc:Work>
    </rdf:RDF>
  </metadata>
  <defs
     id="defs262" />
  <sodipodi:namedview
     pagecolor="#ffffff"
     bordercolor="#666666"
     borderopacity="1"
     objecttolerance="10"
     gridtolerance="10"
     guidetolerance="10"
     inkscape:pageopacity="0"
     inkscape:pageshadow="2"
     inkscape:window-width="781"
     inkscape:window-height="480"
     id="namedview260"
     showgrid="false"
     units="mm"
     fit-margin-top="0"
     fit-margin-left="0"
     fit-margin-right="0"
     fit-margin-bottom="0"
     inkscape:showpageshadow="false"
     showborder="true"
     inkscape:document-units="mm"
     inkscape:zoom="0.97191408"
     inkscape:cx="1.9953573"
     inkscape:cy="102.16155"
     inkscape:window-x="939"
     inkscape:window-y="380"
     inkscape:window-maximized="0"
     inkscape:current-layer="svg258" />
  <title
     id="title156">SVG Picture created as Nixie-Edge_Cuts.svg date 2021/03/25 13:34:28 </title>
  <desc
     id="desc158">Picture generated by PCBNEW </desc>
  <g
     style="fill:#000000;fill-opacity:1;stroke:#000000;stroke-linecap:round;stroke-linejoin:round;stroke-opacity:1"
     id="g160"
     transform="translate(-58257.158,-30698.158)" />
  <g
     style="fill:#000000;fill-opacity:0;stroke:#000000;stroke-width:-0.000393701;stroke-linecap:round;stroke-linejoin:round;stroke-opacity:1"
     id="g162"
     transform="translate(-58257.158,-30698.158)" />
  <g
     style="fill:#000000;fill-opacity:0;stroke:#000000;stroke-width:19.685;stroke-linecap:round;stroke-linejoin:round;stroke-opacity:1"
     id="g256"
     transform="translate(-58257.158,-30698.158)">
    <path
       d="M 58267,30708 V 45275"
       id="path164" />
    <path
       d="M 70866,30708 H 58267"
       id="path166" />
    <path
       d="M 70866,45275 V 30708"
       id="path168" />
    <path
       d="M 58267,45275 H 70866"
       id="path170" />
    <g
       id="g172" />
    <g
       id="g174" />
    <g
       id="g176" />
    <g
       id="g178" />
    <g
       id="g180" />
    <g
       id="g182" />
    <g
       id="g184" />
    <g
       id="g186" />
    <g
       id="g188" />
    <g
       id="g190" />
    <g
       id="g192" />
    <g
       id="g194" />
    <g
       id="g196" />
    <g
       id="g198" />
    <g
       id="g200" />
    <g
       id="g202" />
    <g
       id="g204" />
    <g
       id="g206" />
    <g
       id="g208" />
    <g
       id="g210" />
    <g
       id="g212" />
    <g
       id="g214" />
    <g
       id="g216" />
    <g
       id="g218" />
    <g
       id="g220" />
    <g
       id="g222" />
    <g
       id="g224" />
    <g
       id="g226" />
    <g
       id="g228" />
    <g
       id="g230" />
    <g
       id="g232" />
    <g
       id="g234" />
    <g
       id="g236" />
    <g
       id="g238" />
    <g
       id="g240" />
    <g
       id="g242" />
    <g
       id="g244" />
    <g
       id="g246" />
    <g
       id="g248" />
    <g
       id="g250" />
    <g
       id="g252" />
    <g
       id="g254" />
  </g>
  <g
     id="g1706"
     transform="translate(-58358.109,-30538.784)">
    <g
       style="fill:#000000;fill-opacity:1;stroke:#000000;stroke-linecap:round;stroke-linejoin:round;stroke-opacity:1"
       id="g870" />
    <g
       style="fill:#000000;fill-opacity:0;stroke:#000000;stroke-width:-0.000393701;stroke-linecap:round;stroke-linejoin:round;stroke-opacity:1"
       id="g872" />
    <g
       style="fill:#000000;fill-opacity:0;stroke:#000000;stroke-width:47.2441;stroke-linecap:round;stroke-linejoin:round;stroke-opacity:1"
       id="g890">
      <path
         d="m 68480,35094 h 417"
         id="path874" />
      <path
         d="m 68480,35511 v -417"
         id="path876" />
      <path
         d="m 69291,35094 h 811"
         id="path878" />
      <path
         d="m 69291,35905 v -811"
         id="path880" />
      <path
         d="m 68480,35905 h 811"
         id="path882" />
      <path
         d="m 70102,35094 v 5559"
         id="path884" />
      <path
         d="m 68480,35905 v 4748"
         id="path886" />
      <path
         d="m 68480,40653 h 1622"
         id="path888" />
    </g>
    <g
       style="fill:#000000;fill-opacity:0;stroke:#000000;stroke-width:100;stroke-linecap:round;stroke-linejoin:round;stroke-opacity:1"
       id="g896">
      <circle
         cx="64604.5"
         cy="34383.102"
         r="3493"
         id="circle892" />
      <path
         d="m 67604.5,34383.1 a 3000.1602,3000.1602 0 1 0 -6000,62"
         id="path894" />
    </g>
    <g
       style="fill:#000000;fill-opacity:0;stroke:#000000;stroke-width:47.2441;stroke-linecap:round;stroke-linejoin:round;stroke-opacity:1"
       id="g1090">
      <path
         d="m 69440,41590 h -366"
         id="path898" />
      <path
         d="m 68196,41590 h 366"
         id="path900" />
      <path
         d="m 68196,41590 v 850"
         id="path902" />
      <path
         d="m 69440,41590 v 575"
         id="path904" />
      <path
         d="m 62629,41590 h -366"
         id="path906" />
      <path
         d="m 61385,41590 h 366"
         id="path908" />
      <path
         d="m 61385,41590 v 850"
         id="path910" />
      <path
         d="m 62629,41590 v 575"
         id="path912" />
      <path
         d="m 64125,41590 h -366"
         id="path914" />
      <path
         d="m 62881,41590 h 367"
         id="path916" />
      <path
         d="m 62881,41590 v 850"
         id="path918" />
      <path
         d="m 64125,41590 v 575"
         id="path920" />
      <path
         d="m 65937,38755 h -367"
         id="path922" />
      <path
         d="m 64692,38755 h 367"
         id="path924" />
      <path
         d="m 64692,38755 v 851"
         id="path926" />
      <path
         d="m 65937,38755 v 575"
         id="path928" />
      <path
         d="m 67433,38755 v 575"
         id="path930" />
      <path
         d="m 66188,38755 v 851"
         id="path932" />
      <path
         d="m 66188,38755 h 367"
         id="path934" />
      <path
         d="m 67433,38755 h -367"
         id="path936" />
      <path
         d="m 66803,43165 v 575"
         id="path938" />
      <path
         d="m 65559,43165 v 850"
         id="path940" />
      <path
         d="m 65559,43165 h 366"
         id="path942" />
      <path
         d="m 66803,43165 h -366"
         id="path944" />
      <path
         d="m 61094,41590 v 575"
         id="path946" />
      <path
         d="m 59850,41590 v 850"
         id="path948" />
      <path
         d="m 59850,41590 h 366"
         id="path950" />
      <path
         d="m 61094,41590 h -366"
         id="path952" />
      <path
         d="m 62944,38755 v 575"
         id="path954" />
      <path
         d="m 61700,38755 v 851"
         id="path956" />
      <path
         d="m 61700,38755 h 366"
         id="path958" />
      <path
         d="m 62944,38755 h -366"
         id="path960" />
      <path
         d="m 64440,38755 v 575"
         id="path962" />
      <path
         d="m 63196,38755 v 851"
         id="path964" />
      <path
         d="m 63196,38755 h 366"
         id="path966" />
      <path
         d="m 64440,38755 h -366"
         id="path968" />
      <path
         d="m 66409,41590 v 575"
         id="path970" />
      <path
         d="m 65165,41590 v 850"
         id="path972" />
      <path
         d="m 65165,41590 h 366"
         id="path974" />
      <path
         d="m 66409,41590 h -366"
         id="path976" />
      <path
         d="m 67905,41590 h -366"
         id="path978" />
      <path
         d="m 66661,41590 h 366"
         id="path980" />
      <path
         d="m 66661,41590 v 850"
         id="path982" />
      <path
         d="m 67905,41590 v 575"
         id="path984" />
      <path
         d="m 64598,43165 h -366"
         id="path986" />
      <path
         d="m 63354,43165 h 366"
         id="path988" />
      <path
         d="m 63354,43165 v 850"
         id="path990" />
      <path
         d="m 64598,43165 v 575"
         id="path992" />
      <path
         d="m 68224,43371 v -128"
         id="path994" />
      <path
         d="m 68625,43371 v -128"
         id="path996" />
      <path
         d="m 61413,43449 v -128"
         id="path998" />
      <path
         d="m 61814,43449 v -128"
         id="path1000" />
      <path
         d="m 62673,43449 v -128"
         id="path1002" />
      <path
         d="m 63074,43449 v -128"
         id="path1004" />
      <path
         d="m 64720,40457 v -128"
         id="path1006" />
      <path
         d="m 65122,40457 v -128"
         id="path1008" />
      <path
         d="m 66216,40457 v -128"
         id="path1010" />
      <path
         d="m 66618,40457 v -128"
         id="path1012" />
      <path
         d="m 66171,44767 h -128"
         id="path1014" />
      <path
         d="m 66171,44366 h -128"
         id="path1016" />
      <path
         d="m 60279,43449 v -128"
         id="path1018" />
      <path
         d="m 59877,43449 v -128"
         id="path1020" />
      <path
         d="m 61728,40462 v -128"
         id="path1022" />
      <path
         d="m 62129,40462 v -128"
         id="path1024" />
      <path
         d="m 63848,40318 h -128"
         id="path1026" />
      <path
         d="m 63848,39917 h -128"
         id="path1028" />
      <path
         d="m 64917,43454 v -128"
         id="path1030" />
      <path
         d="m 65318,43454 v -128"
         id="path1032" />
      <path
         d="m 67082,43449 v -128"
         id="path1034" />
      <path
         d="m 67484,43449 v -128"
         id="path1036" />
      <path
         d="m 63961,44366 h -128"
         id="path1038" />
      <path
         d="m 63961,44767 h -128"
         id="path1040" />
      <path
         d="m 62759,36835 v -128"
         id="path1042" />
      <path
         d="m 62358,36835 v -128"
         id="path1044" />
      <path
         d="m 63066,35103 v -128"
         id="path1046" />
      <path
         d="m 63468,35103 v -128"
         id="path1048" />
      <path
         d="m 63232,33838 v -128"
         id="path1050" />
      <path
         d="m 62830,33838 v -128"
         id="path1052" />
      <path
         d="m 63862,33287 v -128"
         id="path1054" />
      <path
         d="m 63460,33287 v -128"
         id="path1056" />
      <path
         d="m 64492,33051 v -128"
         id="path1058" />
      <path
         d="m 64090,33051 v -128"
         id="path1060" />
      <path
         d="m 65122,33051 v -128"
         id="path1062" />
      <path
         d="m 64720,33051 v -128"
         id="path1064" />
      <path
         d="m 65751,33287 v -128"
         id="path1066" />
      <path
         d="m 65350,33287 v -128"
         id="path1068" />
      <path
         d="m 66381,33917 v -128"
         id="path1070" />
      <path
         d="m 65980,33917 v -128"
         id="path1072" />
      <path
         d="m 66145,35187 v -129"
         id="path1074" />
      <path
         d="m 65744,35187 v -129"
         id="path1076" />
      <path
         d="m 66854,36840 v -128"
         id="path1078" />
      <path
         d="m 66452,36840 v -128"
         id="path1080" />
      <path
         d="m 65507,37494 v 129"
         id="path1082" />
      <path
         d="m 65909,37494 v 129"
         id="path1084" />
      <path
         d="m 63625,37494 v 129"
         id="path1086" />
      <path
         d="m 63224,37494 v 129"
         id="path1088" />
    </g>
    <g
       style="fill:#000000;fill-opacity:0;stroke:#000000;stroke-width:59.0551;stroke-linecap:round;stroke-linejoin:round;stroke-opacity:1"
       id="g1098">
      <path
         d="m 69266,34378 v 282 l -19,56 -37,37 -57,19 h -37"
         id="path1092" />
      <path
         d="m 69660,34772 h -225"
         id="path1094" />
      <path
         d="m 69547,34772 v -394 l -37,57 -38,37 -37,19"
         id="path1096" />
    </g>
    <g
       style="fill:#000000;fill-opacity:0;stroke:#000000;stroke-width:40;stroke-linecap:round;stroke-linejoin:round;stroke-opacity:1"
       id="g1106">
      <path
         d="m 60170,35265 v -500 l 285,500 v -500"
         id="path1100" />
      <path
         d="m 60955,35265 h -285"
         id="path1102" />
      <path
         d="m 60813,35265 v -500 l -48,71 -48,48 -47,24"
         id="path1104" />
    </g>
    <g
       style="fill:#000000;fill-opacity:0;stroke:#000000;stroke-width:59.0551;stroke-linecap:round;stroke-linejoin:round;stroke-opacity:1"
       id="g1420">
      <path
         d="m 59267,36210 v -500"
         id="path1108" />
      <path
         d="m 59505,36210 v -500 l 286,500 v -500"
         id="path1110" />
      <path
         d="m 60029,36019 h 381"
         id="path1112" />
      <path
         d="m 60910,36210 h -286"
         id="path1114" />
      <path
         d="m 60767,36210 v -500 l -48,71 -47,48 -48,24"
         id="path1116" />
      <path
         d="m 61338,35877 v 333"
         id="path1118" />
      <path
         d="m 61219,35686 -119,357 h 310"
         id="path1120" />
      <path
         d="m 69490,41436 -38,-19 -37,-38 -57,-56 -37,-19 h -38"
         id="path1122" />
      <path
         d="m 69302,41398 -37,-19 -38,-37 -19,-75 v -131 l 19,-75 38,-38 37,-19 h 75 l 38,19 37,38 19,75 v 131 l -19,75 -37,37 -38,19 h -75"
         id="path1124" />
      <path
         d="m 69846,41398 h -225"
         id="path1126" />
      <path
         d="m 69733,41398 v -394 l -37,57 -38,37 -37,19"
         id="path1128" />
      <path
         d="m 62600,41593 -38,-19 -37,-37 -56,-56 -38,-19 h -37"
         id="path1130" />
      <path
         d="m 62412,41556 -37,-19 -38,-38 -18,-75 v -131 l 18,-75 38,-37 37,-19 h 75 l 38,19 37,37 19,75 v 131 l -19,75 -37,38 -38,19 h -75"
         id="path1132" />
      <path
         d="m 62731,41199 19,-18 37,-19 h 94 l 38,19 18,18 19,38 v 37 l -19,57 -225,225 h 244"
         id="path1134" />
      <path
         d="m 64096,41554 -38,-19 -37,-38 -56,-56 -38,-19 h -37"
         id="path1136" />
      <path
         d="m 63908,41516 -37,-19 -38,-37 -18,-75 v -131 l 18,-75 38,-38 37,-19 h 75 l 38,19 37,38 19,75 v 131 l -19,75 -37,37 -38,19 h -75"
         id="path1138" />
      <path
         d="m 64208,41122 h 244 l -131,150 h 56 l 38,19 18,19 19,37 v 94 l -19,38 -18,18 -38,19 h -112 l -38,-19 -19,-18"
         id="path1140" />
      <path
         d="m 65868,38680 -38,-19 -37,-38 -57,-56 -37,-19 h -38"
         id="path1142" />
      <path
         d="m 65680,38642 -37,-19 -38,-37 -19,-75 v -131 l 19,-75 38,-38 37,-19 h 75 l 38,19 37,38 19,75 v 131 l -19,75 -37,37 -38,19 h -75"
         id="path1144" />
      <path
         d="m 66186,38380 v 262"
         id="path1146" />
      <path
         d="m 66092,38230 -93,281 h 243"
         id="path1148" />
      <path
         d="m 67442,38640 -37,-18 -38,-38 -56,-56 -37,-19 h -38"
         id="path1150" />
      <path
         d="m 67255,38603 -38,-19 -37,-37 -19,-75 v -132 l 19,-75 37,-37 38,-19 h 75 l 37,19 38,37 19,75 v 132 l -19,75 -38,37 -37,19 h -75"
         id="path1152" />
      <path
         d="m 67780,38209 h -188 l -18,188 18,-19 38,-19 h 94 l 37,19 19,19 19,37 v 94 l -19,37 -19,19 -37,19 h -94 l -38,-19 -18,-19"
         id="path1154" />
      <path
         d="m 66616,43050 -38,-19 -37,-37 -57,-57 -37,-18 h -38"
         id="path1156" />
      <path
         d="m 66428,43012 -37,-18 -38,-38 -19,-75 v -131 l 19,-75 38,-38 37,-18 h 75 l 38,18 37,38 19,75 v 131 l -19,75 -37,38 -38,18 h -75"
         id="path1158" />
      <path
         d="m 66934,42619 h -75 l -37,18 -19,19 -37,56 -19,75 v 150 l 19,38 18,19 38,18 h 75 l 37,-18 19,-19 19,-38 v -93 l -19,-38 -19,-19 -37,-18 h -75 l -38,18 -18,19 -19,38"
         id="path1160" />
      <path
         d="m 61025,41632 -37,-18 -38,-38 -56,-56 -38,-19 h -37"
         id="path1162" />
      <path
         d="m 60838,41595 -38,-19 -37,-37 -19,-75 v -132 l 19,-75 37,-37 38,-19 h 75 l 37,19 38,37 18,75 v 132 l -18,75 -38,37 -37,19 h -75"
         id="path1164" />
      <path
         d="m 61137,41201 h 263 l -169,394"
         id="path1166" />
      <path
         d="m 62875,38640 -37,-18 -38,-38 -56,-56 -37,-19 h -38"
         id="path1168" />
      <path
         d="m 62688,38603 -38,-19 -37,-37 -19,-75 v -132 l 19,-75 37,-37 38,-19 h 75 l 37,19 38,37 19,75 v 132 l -19,75 -38,37 -37,19 h -75"
         id="path1170" />
      <path
         d="m 63082,38378 -38,-19 -19,-19 -18,-37 v -19 l 18,-37 19,-19 38,-19 h 75 l 37,19 19,19 19,37 v 19 l -19,37 -19,19 -37,19 h -75 l -38,19 -19,18 -18,38 v 75 l 18,37 19,19 38,19 h 75 l 37,-19 19,-19 19,-37 v -75 l -19,-38 -19,-18 -37,-19"
         id="path1172" />
      <path
         d="m 64529,38680 -38,-19 -37,-38 -56,-56 -38,-19 h -37"
         id="path1174" />
      <path
         d="m 64341,38642 -37,-19 -38,-37 -18,-75 v -131 l 18,-75 38,-38 37,-19 h 75 l 38,19 37,38 19,75 v 131 l -19,75 -37,37 -38,19 h -75"
         id="path1176" />
      <path
         d="m 64698,38642 h 75 l 37,-19 19,-18 37,-57 19,-75 v -150 l -19,-37 -18,-19 -38,-19 h -75 l -37,19 -19,19 -19,37 v 94 l 19,38 19,18 37,19 h 75 l 38,-19 18,-18 19,-38"
         id="path1178" />
      <path
         d="m 66389,41554 -38,-19 -37,-38 -57,-56 -37,-19 h -38"
         id="path1180" />
      <path
         d="m 66201,41516 -37,-19 -38,-37 -19,-75 v -131 l 19,-75 38,-38 37,-19 h 75 l 38,19 37,38 19,75 v 131 l -19,75 -37,37 -38,19 h -75"
         id="path1182" />
      <path
         d="m 66745,41516 h -225"
         id="path1184" />
      <path
         d="m 66632,41516 v -394 l -37,57 -38,37 -37,19"
         id="path1186" />
      <path
         d="m 66989,41122 h 37 l 38,19 18,19 19,37 19,75 v 94 l -19,75 -19,38 -18,18 -38,19 h -37 l -38,-19 -19,-18 -18,-38 -19,-75 v -94 l 19,-75 18,-37 19,-19 38,-19"
         id="path1188" />
      <path
         d="m 67806,41554 -37,-19 -38,-38 -56,-56 -38,-19 h -37"
         id="path1190" />
      <path
         d="m 67619,41516 -38,-19 -37,-37 -19,-75 v -131 l 19,-75 37,-38 38,-19 h 75 l 37,19 38,38 18,75 v 131 l -18,75 -38,37 -37,19 h -75"
         id="path1192" />
      <path
         d="m 68162,41516 h -225"
         id="path1194" />
      <path
         d="m 68050,41516 v -394 l -38,57 -37,37 -38,19"
         id="path1196" />
      <path
         d="m 68537,41516 h -225"
         id="path1198" />
      <path
         d="m 68425,41516 v -394 l -38,57 -37,37 -38,19"
         id="path1200" />
      <path
         d="m 64341,43050 -37,-19 -38,-37 -56,-57 -37,-18 h -38"
         id="path1202" />
      <path
         d="m 64154,43012 -38,-18 -37,-38 -19,-75 v -131 l 19,-75 37,-38 38,-18 h 75 l 37,18 38,38 19,75 v 131 l -19,75 -38,38 -37,18 h -75"
         id="path1204" />
      <path
         d="m 64698,43012 h -225"
         id="path1206" />
      <path
         d="m 64585,43012 v -393 l -37,56 -38,37 -37,19"
         id="path1208" />
      <path
         d="m 64848,42656 18,-19 38,-18 h 94 l 37,18 19,19 19,38 v 37 l -19,56 -225,225 h 244"
         id="path1210" />
      <path
         d="m 69028,43800 -131,-188"
         id="path1212" />
      <path
         d="m 68803,43800 v -394 h 150 l 38,19 19,18 18,38 v 56 l -18,38 -19,18 -38,19 h -150"
         id="path1214" />
      <path
         d="m 69403,43800 h -225"
         id="path1216" />
      <path
         d="m 69291,43800 v -394 l -38,56 -37,38 -38,18"
         id="path1218" />
      <path
         d="m 61548,44430 -131,-188"
         id="path1220" />
      <path
         d="m 61323,44430 v -394 h 150 l 38,19 18,18 19,38 v 56 l -19,38 -18,18 -38,19 h -150"
         id="path1222" />
      <path
         d="m 61698,44073 19,-18 37,-19 h 94 l 38,19 18,18 19,38 v 37 l -19,57 -225,225 h 244"
         id="path1224" />
      <path
         d="m 62847,44351 -131,-188"
         id="path1226" />
      <path
         d="m 62622,44351 v -394 h 150 l 38,19 19,19 18,37 v 56 l -18,38 -19,19 -38,18 h -150"
         id="path1228" />
      <path
         d="m 62979,43957 h 243 l -131,150 h 56 l 38,19 18,19 19,37 v 94 l -19,37 -18,19 -38,19 h -112 l -38,-19 -18,-19"
         id="path1230" />
      <path
         d="m 64304,40886 -131,-187"
         id="path1232" />
      <path
         d="m 64079,40886 v -393 h 150 l 37,18 19,19 19,38 v 56 l -19,37 -19,19 -37,19 h -150"
         id="path1234" />
      <path
         d="m 64641,40624 v 262"
         id="path1236" />
      <path
         d="m 64548,40474 -94,281 h 244"
         id="path1238" />
      <path
         d="m 65721,40571 -131,-187"
         id="path1240" />
      <path
         d="m 65496,40571 v -393 h 150 l 38,18 19,19 18,38 v 56 l -18,37 -19,19 -38,19 h -150"
         id="path1242" />
      <path
         d="m 66077,40178 h -187 l -19,187 19,-19 38,-18 h 93 l 38,18 18,19 19,38 v 93 l -19,38 -18,19 -38,18 h -93 l -38,-18 -19,-19"
         id="path1244" />
      <path
         d="m 67099,44784 -131,-188"
         id="path1246" />
      <path
         d="m 66874,44784 v -394 h 150 l 38,19 18,19 19,37 v 56 l -19,38 -18,19 -38,18 h -150"
         id="path1248" />
      <path
         d="m 67437,44390 h -75 l -38,19 -19,19 -37,56 -19,75 v 150 l 19,37 19,19 37,19 h 75 l 38,-19 18,-19 19,-37 v -94 l -19,-37 -18,-19 -38,-19 h -75 l -37,19 -19,19 -19,37"
         id="path1250" />
      <path
         d="m 60052,44508 -131,-187"
         id="path1252" />
      <path
         d="m 59827,44508 v -393 h 150 l 37,18 19,19 19,38 v 56 l -19,37 -19,19 -37,19 h -150"
         id="path1254" />
      <path
         d="m 60183,44115 h 263 l -169,393"
         id="path1256" />
      <path
         d="m 61233,40576 -131,-187"
         id="path1258" />
      <path
         d="m 61008,40576 v -393 h 150 l 38,18 18,19 19,38 v 56 l -19,37 -18,19 -38,19 h -150"
         id="path1260" />
      <path
         d="m 61458,40351 -37,-18 -19,-19 -19,-38 v -18 l 19,-38 19,-19 37,-18 h 75 l 38,18 18,19 19,38 v 18 l -19,38 -18,19 -38,18 h -75 l -37,19 -19,19 -19,37 v 75 l 19,38 19,18 37,19 h 75 l 38,-19 18,-18 19,-38 v -75 l -19,-37 -18,-19 -38,-19"
         id="path1262" />
      <path
         d="m 63438,40847 -131,-188"
         id="path1264" />
      <path
         d="m 63213,40847 v -394 h 150 l 37,19 19,19 19,37 v 56 l -19,38 -19,19 -37,18 h -150"
         id="path1266" />
      <path
         d="m 63625,40847 h 75 l 38,-19 19,-19 37,-56 19,-75 v -150 l -19,-37 -19,-19 -37,-19 h -75 l -38,19 -18,19 -19,37 v 94 l 19,37 18,19 38,19 h 75 l 37,-19 19,-19 19,-37"
         id="path1268" />
      <path
         d="m 64825,44548 -131,-188"
         id="path1270" />
      <path
         d="m 64600,44548 v -394 h 150 l 38,19 18,18 19,38 v 56 l -19,38 -18,18 -38,19 h -150"
         id="path1272" />
      <path
         d="m 65200,44548 h -225"
         id="path1274" />
      <path
         d="m 65088,44548 v -394 l -38,56 -37,38 -38,18"
         id="path1276" />
      <path
         d="m 65444,44154 h 37 l 38,19 19,18 18,38 19,75 v 94 l -19,75 -18,37 -19,19 -38,19 h -37 l -38,-19 -18,-19 -19,-37 -19,-75 v -94 l 19,-75 19,-38 18,-18 38,-19"
         id="path1278" />
      <path
         d="m 67227,44311 -132,-187"
         id="path1280" />
      <path
         d="m 67002,44311 v -393 h 150 l 37,19 19,18 19,38 v 56 l -19,37 -19,19 -37,19 h -150"
         id="path1282" />
      <path
         d="m 67602,44311 h -225"
         id="path1284" />
      <path
         d="m 67489,44311 v -393 l -37,56 -38,37 -37,19"
         id="path1286" />
      <path
         d="m 67977,44311 h -225"
         id="path1288" />
      <path
         d="m 67864,44311 v -393 l -37,56 -38,37 -37,19"
         id="path1290" />
      <path
         d="m 62384,44745 -131,-188"
         id="path1292" />
      <path
         d="m 62159,44745 v -394 h 150 l 38,19 18,18 19,38 v 56 l -19,38 -18,18 -38,19 h -150"
         id="path1294" />
      <path
         d="m 62759,44745 h -225"
         id="path1296" />
      <path
         d="m 62647,44745 v -394 l -38,56 -37,38 -38,18"
         id="path1298" />
      <path
         d="m 62909,44388 19,-18 37,-19 h 94 l 38,19 18,18 19,38 v 37 l -19,57 -225,225 h 244"
         id="path1300" />
      <path
         d="m 61361,36871 -132,-188"
         id="path1302" />
      <path
         d="m 61136,36871 v -394 h 150 l 37,19 19,18 19,38 v 56 l -19,38 -19,18 -37,19 h -150"
         id="path1304" />
      <path
         d="m 61736,36871 h -225"
         id="path1306" />
      <path
         d="m 61623,36871 v -394 l -37,56 -38,38 -37,18"
         id="path1308" />
      <path
         d="m 61867,36477 h 243 l -131,150 h 56 l 38,19 19,18 18,38 v 94 l -18,37 -19,19 -38,19 h -112 l -37,-19 -19,-19"
         id="path1310" />
      <path
         d="m 63880,35296 -131,-188"
         id="path1312" />
      <path
         d="m 63655,35296 v -394 h 150 l 38,19 19,19 18,37 v 56 l -18,38 -19,18 -38,19 h -150"
         id="path1314" />
      <path
         d="m 64255,35296 h -225"
         id="path1316" />
      <path
         d="m 64143,35296 v -394 l -38,56 -37,38 -38,18"
         id="path1318" />
      <path
         d="m 64593,35033 v 263"
         id="path1320" />
      <path
         d="m 64499,34883 -94,281 h 244"
         id="path1322" />
      <path
         d="m 61951,34272 -131,-187"
         id="path1324" />
      <path
         d="m 61726,34272 v -394 h 150 l 38,19 18,19 19,37 v 57 l -19,37 -18,19 -38,19 h -150"
         id="path1326" />
      <path
         d="m 62326,34272 h -225"
         id="path1328" />
      <path
         d="m 62214,34272 v -394 l -38,57 -37,37 -38,19"
         id="path1330" />
      <path
         d="m 62682,33878 h -187 l -19,188 19,-19 37,-19 h 94 l 38,19 18,19 19,37 v 94 l -19,38 -18,18 -38,19 h -94 l -37,-19 -19,-18"
         id="path1332" />
      <path
         d="m 62896,32146 -131,-187"
         id="path1334" />
      <path
         d="m 62671,32146 v -394 h 150 l 38,19 18,19 19,37 v 57 l -19,37 -18,19 -38,19 h -150"
         id="path1336" />
      <path
         d="m 63271,32146 h -225"
         id="path1338" />
      <path
         d="m 63158,32146 v -394 l -37,57 -38,37 -37,19"
         id="path1340" />
      <path
         d="m 63608,31752 h -75 l -37,19 -19,19 -37,56 -19,75 v 150 l 19,38 18,18 38,19 h 75 l 37,-19 19,-18 19,-38 v -94 l -19,-37 -19,-19 -37,-19 h -75 l -38,19 -18,19 -19,37"
         id="path1342" />
      <path
         d="m 63959,31634 -131,-187"
         id="path1344" />
      <path
         d="m 63734,31634 v -393 h 150 l 38,18 18,19 19,38 v 56 l -19,37 -18,19 -38,19 h -150"
         id="path1346" />
      <path
         d="m 64334,31634 h -225"
         id="path1348" />
      <path
         d="m 64221,31634 v -393 l -37,56 -38,37 -37,19"
         id="path1350" />
      <path
         d="m 64465,31241 h 263 l -169,393"
         id="path1352" />
      <path
         d="m 64536,33240 -188,131"
         id="path1354" />
      <path
         d="m 64536,33465 h -394 v -150 l 19,-38 19,-18 37,-19 h 56 l 38,19 19,18 18,38 v 150"
         id="path1356" />
      <path
         d="m 64536,32865 v 225"
         id="path1358" />
      <path
         d="m 64536,32977 h -394 l 56,38 38,37 19,38"
         id="path1360" />
      <path
         d="m 64311,32640 -19,37 -19,19 -37,19 h -19 l -37,-19 -19,-19 -19,-37 v -75 l 19,-38 19,-18 37,-19 h 19 l 37,19 19,18 19,38 v 75 l 19,37 18,19 38,19 h 75 l 37,-19 19,-19 19,-37 v -75 l -19,-38 -19,-18 -37,-19 h -75 l -38,19 -18,18 -19,38"
         id="path1362" />
      <path
         d="m 65140,31634 -131,-187"
         id="path1364" />
      <path
         d="m 64915,31634 v -393 h 150 l 38,18 18,19 19,38 v 56 l -19,37 -18,19 -38,19 h -150"
         id="path1366" />
      <path
         d="m 65515,31634 h -225"
         id="path1368" />
      <path
         d="m 65403,31634 v -393 l -38,56 -37,37 -38,19"
         id="path1370" />
      <path
         d="m 65703,31634 h 75 l 37,-18 19,-19 37,-56 19,-75 v -150 l -19,-38 -18,-19 -38,-18 h -75 l -37,18 -19,19 -19,38 v 93 l 19,38 19,19 37,18 h 75 l 38,-18 18,-19 19,-38"
         id="path1372" />
      <path
         d="m 66794,34272 -132,-187"
         id="path1374" />
      <path
         d="m 66569,34272 v -394 h 150 l 37,19 19,19 19,37 v 57 l -19,37 -19,19 -37,19 h -150"
         id="path1376" />
      <path
         d="m 66944,33916 18,-19 38,-19 h 94 l 37,19 19,19 19,37 v 38 l -19,56 -225,225 h 244"
         id="path1378" />
      <path
         d="m 67412,33878 h 38 l 37,19 19,19 19,37 19,75 v 94 l -19,75 -19,38 -19,18 -37,19 h -38 l -37,-19 -19,-18 -19,-38 -18,-75 v -94 l 18,-75 19,-37 19,-19 37,-19"
         id="path1380" />
      <path
         d="m 64943,35301 -131,-188"
         id="path1382" />
      <path
         d="m 64718,35301 v -394 h 150 l 38,19 19,18 18,38 v 56 l -18,38 -19,18 -38,19 h -150"
         id="path1384" />
      <path
         d="m 65093,34944 19,-18 37,-19 h 94 l 38,19 18,18 19,38 v 37 l -19,57 -225,225 h 244"
         id="path1386" />
      <path
         d="m 65693,35301 h -225"
         id="path1388" />
      <path
         d="m 65581,35301 v -394 l -38,56 -37,38 -38,18"
         id="path1390" />
      <path
         d="m 67266,36910 -131,-188"
         id="path1392" />
      <path
         d="m 67041,36910 v -394 h 150 l 38,19 18,19 19,37 v 56 l -19,38 -18,19 -38,18 h -150"
         id="path1394" />
      <path
         d="m 67416,36554 19,-19 37,-19 h 94 l 38,19 18,19 19,37 v 38 l -19,56 -225,225 h 244"
         id="path1396" />
      <path
         d="m 67791,36554 19,-19 37,-19 h 94 l 38,19 18,19 19,37 v 38 l -19,56 -225,225 h 244"
         id="path1398" />
      <path
         d="m 66321,37855 -131,-188"
         id="path1400" />
      <path
         d="m 66096,37855 v -394 h 150 l 38,19 18,19 19,37 v 56 l -19,38 -18,19 -38,18 h -150"
         id="path1402" />
      <path
         d="m 66471,37499 19,-19 37,-19 h 94 l 38,19 18,19 19,37 v 38 l -19,56 -225,225 h 244"
         id="path1404" />
      <path
         d="m 66827,37461 h 244 l -131,150 h 56 l 38,19 18,19 19,37 v 94 l -19,37 -18,19 -38,19 h -112 l -38,-19 -19,-19"
         id="path1406" />
      <path
         d="m 62384,37855 -131,-188"
         id="path1408" />
      <path
         d="m 62159,37855 v -394 h 150 l 38,19 18,19 19,37 v 56 l -19,38 -18,19 -38,18 h -150"
         id="path1410" />
      <path
         d="m 62534,37499 19,-19 37,-19 h 94 l 38,19 18,19 19,37 v 38 l -19,56 -225,225 h 244"
         id="path1412" />
      <path
         d="m 63097,37592 v 263"
         id="path1414" />
      <path
         d="m 63003,37442 -94,282 h 244"
         id="path1416" />
      <g
         id="g1418" />
    </g>
  </g>
</svg>
