G04 #@! TF.GenerationSoftware,KiCad,Pcbnew,(5.1.2-1)-1*
G04 #@! TF.CreationDate,2021-04-17T11:50:00+08:00*
G04 #@! TF.ProjectId,Nixie,4e697869-652e-46b6-9963-61645f706362,rev?*
G04 #@! TF.SameCoordinates,Original*
G04 #@! TF.FileFunction,Paste,Top*
G04 #@! TF.FilePolarity,Positive*
%FSLAX46Y46*%
G04 Gerber Fmt 4.6, Leading zero omitted, Abs format (unit mm)*
G04 Created by KiCad (PCBNEW (5.1.2-1)-1) date 2021-04-17 11:50:00*
%MOMM*%
%LPD*%
G04 APERTURE LIST*
%ADD10R,0.800000X0.900000*%
%ADD11C,0.100000*%
%ADD12C,0.875000*%
G04 APERTURE END LIST*
D10*
X152850000Y-107400000D03*
X154750000Y-107400000D03*
X153800000Y-105400000D03*
X169950000Y-107400000D03*
X171850000Y-107400000D03*
X170900000Y-105400000D03*
X166250000Y-107400000D03*
X168150000Y-107400000D03*
X167200000Y-105400000D03*
X161050000Y-100200000D03*
X162950000Y-100200000D03*
X162000000Y-98200000D03*
X157600000Y-98200000D03*
X158550000Y-100200000D03*
X156650000Y-100200000D03*
X162500000Y-109100000D03*
X163450000Y-111100000D03*
X161550000Y-111100000D03*
X174600000Y-105400000D03*
X175550000Y-107400000D03*
X173650000Y-107400000D03*
X170700000Y-98200000D03*
X171650000Y-100200000D03*
X169750000Y-100200000D03*
X166400000Y-98200000D03*
X167350000Y-100200000D03*
X165450000Y-100200000D03*
X161300000Y-105400000D03*
X162250000Y-107400000D03*
X160350000Y-107400000D03*
X156650000Y-107400000D03*
X158550000Y-107400000D03*
X157600000Y-105400000D03*
X167150000Y-111100000D03*
X169050000Y-111100000D03*
X168100000Y-109100000D03*
D11*
G36*
X153077691Y-110151053D02*
G01*
X153098926Y-110154203D01*
X153119750Y-110159419D01*
X153139962Y-110166651D01*
X153159368Y-110175830D01*
X153177781Y-110186866D01*
X153195024Y-110199654D01*
X153210930Y-110214070D01*
X153225346Y-110229976D01*
X153238134Y-110247219D01*
X153249170Y-110265632D01*
X153258349Y-110285038D01*
X153265581Y-110305250D01*
X153270797Y-110326074D01*
X153273947Y-110347309D01*
X153275000Y-110368750D01*
X153275000Y-110806250D01*
X153273947Y-110827691D01*
X153270797Y-110848926D01*
X153265581Y-110869750D01*
X153258349Y-110889962D01*
X153249170Y-110909368D01*
X153238134Y-110927781D01*
X153225346Y-110945024D01*
X153210930Y-110960930D01*
X153195024Y-110975346D01*
X153177781Y-110988134D01*
X153159368Y-110999170D01*
X153139962Y-111008349D01*
X153119750Y-111015581D01*
X153098926Y-111020797D01*
X153077691Y-111023947D01*
X153056250Y-111025000D01*
X152543750Y-111025000D01*
X152522309Y-111023947D01*
X152501074Y-111020797D01*
X152480250Y-111015581D01*
X152460038Y-111008349D01*
X152440632Y-110999170D01*
X152422219Y-110988134D01*
X152404976Y-110975346D01*
X152389070Y-110960930D01*
X152374654Y-110945024D01*
X152361866Y-110927781D01*
X152350830Y-110909368D01*
X152341651Y-110889962D01*
X152334419Y-110869750D01*
X152329203Y-110848926D01*
X152326053Y-110827691D01*
X152325000Y-110806250D01*
X152325000Y-110368750D01*
X152326053Y-110347309D01*
X152329203Y-110326074D01*
X152334419Y-110305250D01*
X152341651Y-110285038D01*
X152350830Y-110265632D01*
X152361866Y-110247219D01*
X152374654Y-110229976D01*
X152389070Y-110214070D01*
X152404976Y-110199654D01*
X152422219Y-110186866D01*
X152440632Y-110175830D01*
X152460038Y-110166651D01*
X152480250Y-110159419D01*
X152501074Y-110154203D01*
X152522309Y-110151053D01*
X152543750Y-110150000D01*
X153056250Y-110150000D01*
X153077691Y-110151053D01*
X153077691Y-110151053D01*
G37*
D12*
X152800000Y-110587500D03*
D11*
G36*
X153077691Y-108576053D02*
G01*
X153098926Y-108579203D01*
X153119750Y-108584419D01*
X153139962Y-108591651D01*
X153159368Y-108600830D01*
X153177781Y-108611866D01*
X153195024Y-108624654D01*
X153210930Y-108639070D01*
X153225346Y-108654976D01*
X153238134Y-108672219D01*
X153249170Y-108690632D01*
X153258349Y-108710038D01*
X153265581Y-108730250D01*
X153270797Y-108751074D01*
X153273947Y-108772309D01*
X153275000Y-108793750D01*
X153275000Y-109231250D01*
X153273947Y-109252691D01*
X153270797Y-109273926D01*
X153265581Y-109294750D01*
X153258349Y-109314962D01*
X153249170Y-109334368D01*
X153238134Y-109352781D01*
X153225346Y-109370024D01*
X153210930Y-109385930D01*
X153195024Y-109400346D01*
X153177781Y-109413134D01*
X153159368Y-109424170D01*
X153139962Y-109433349D01*
X153119750Y-109440581D01*
X153098926Y-109445797D01*
X153077691Y-109448947D01*
X153056250Y-109450000D01*
X152543750Y-109450000D01*
X152522309Y-109448947D01*
X152501074Y-109445797D01*
X152480250Y-109440581D01*
X152460038Y-109433349D01*
X152440632Y-109424170D01*
X152422219Y-109413134D01*
X152404976Y-109400346D01*
X152389070Y-109385930D01*
X152374654Y-109370024D01*
X152361866Y-109352781D01*
X152350830Y-109334368D01*
X152341651Y-109314962D01*
X152334419Y-109294750D01*
X152329203Y-109273926D01*
X152326053Y-109252691D01*
X152325000Y-109231250D01*
X152325000Y-108793750D01*
X152326053Y-108772309D01*
X152329203Y-108751074D01*
X152334419Y-108730250D01*
X152341651Y-108710038D01*
X152350830Y-108690632D01*
X152361866Y-108672219D01*
X152374654Y-108654976D01*
X152389070Y-108639070D01*
X152404976Y-108624654D01*
X152422219Y-108611866D01*
X152440632Y-108600830D01*
X152460038Y-108591651D01*
X152480250Y-108584419D01*
X152501074Y-108579203D01*
X152522309Y-108576053D01*
X152543750Y-108575000D01*
X153056250Y-108575000D01*
X153077691Y-108576053D01*
X153077691Y-108576053D01*
G37*
D12*
X152800000Y-109012500D03*
D11*
G36*
X171077691Y-110251053D02*
G01*
X171098926Y-110254203D01*
X171119750Y-110259419D01*
X171139962Y-110266651D01*
X171159368Y-110275830D01*
X171177781Y-110286866D01*
X171195024Y-110299654D01*
X171210930Y-110314070D01*
X171225346Y-110329976D01*
X171238134Y-110347219D01*
X171249170Y-110365632D01*
X171258349Y-110385038D01*
X171265581Y-110405250D01*
X171270797Y-110426074D01*
X171273947Y-110447309D01*
X171275000Y-110468750D01*
X171275000Y-110906250D01*
X171273947Y-110927691D01*
X171270797Y-110948926D01*
X171265581Y-110969750D01*
X171258349Y-110989962D01*
X171249170Y-111009368D01*
X171238134Y-111027781D01*
X171225346Y-111045024D01*
X171210930Y-111060930D01*
X171195024Y-111075346D01*
X171177781Y-111088134D01*
X171159368Y-111099170D01*
X171139962Y-111108349D01*
X171119750Y-111115581D01*
X171098926Y-111120797D01*
X171077691Y-111123947D01*
X171056250Y-111125000D01*
X170543750Y-111125000D01*
X170522309Y-111123947D01*
X170501074Y-111120797D01*
X170480250Y-111115581D01*
X170460038Y-111108349D01*
X170440632Y-111099170D01*
X170422219Y-111088134D01*
X170404976Y-111075346D01*
X170389070Y-111060930D01*
X170374654Y-111045024D01*
X170361866Y-111027781D01*
X170350830Y-111009368D01*
X170341651Y-110989962D01*
X170334419Y-110969750D01*
X170329203Y-110948926D01*
X170326053Y-110927691D01*
X170325000Y-110906250D01*
X170325000Y-110468750D01*
X170326053Y-110447309D01*
X170329203Y-110426074D01*
X170334419Y-110405250D01*
X170341651Y-110385038D01*
X170350830Y-110365632D01*
X170361866Y-110347219D01*
X170374654Y-110329976D01*
X170389070Y-110314070D01*
X170404976Y-110299654D01*
X170422219Y-110286866D01*
X170440632Y-110275830D01*
X170460038Y-110266651D01*
X170480250Y-110259419D01*
X170501074Y-110254203D01*
X170522309Y-110251053D01*
X170543750Y-110250000D01*
X171056250Y-110250000D01*
X171077691Y-110251053D01*
X171077691Y-110251053D01*
G37*
D12*
X170800000Y-110687500D03*
D11*
G36*
X171077691Y-108676053D02*
G01*
X171098926Y-108679203D01*
X171119750Y-108684419D01*
X171139962Y-108691651D01*
X171159368Y-108700830D01*
X171177781Y-108711866D01*
X171195024Y-108724654D01*
X171210930Y-108739070D01*
X171225346Y-108754976D01*
X171238134Y-108772219D01*
X171249170Y-108790632D01*
X171258349Y-108810038D01*
X171265581Y-108830250D01*
X171270797Y-108851074D01*
X171273947Y-108872309D01*
X171275000Y-108893750D01*
X171275000Y-109331250D01*
X171273947Y-109352691D01*
X171270797Y-109373926D01*
X171265581Y-109394750D01*
X171258349Y-109414962D01*
X171249170Y-109434368D01*
X171238134Y-109452781D01*
X171225346Y-109470024D01*
X171210930Y-109485930D01*
X171195024Y-109500346D01*
X171177781Y-109513134D01*
X171159368Y-109524170D01*
X171139962Y-109533349D01*
X171119750Y-109540581D01*
X171098926Y-109545797D01*
X171077691Y-109548947D01*
X171056250Y-109550000D01*
X170543750Y-109550000D01*
X170522309Y-109548947D01*
X170501074Y-109545797D01*
X170480250Y-109540581D01*
X170460038Y-109533349D01*
X170440632Y-109524170D01*
X170422219Y-109513134D01*
X170404976Y-109500346D01*
X170389070Y-109485930D01*
X170374654Y-109470024D01*
X170361866Y-109452781D01*
X170350830Y-109434368D01*
X170341651Y-109414962D01*
X170334419Y-109394750D01*
X170329203Y-109373926D01*
X170326053Y-109352691D01*
X170325000Y-109331250D01*
X170325000Y-108893750D01*
X170326053Y-108872309D01*
X170329203Y-108851074D01*
X170334419Y-108830250D01*
X170341651Y-108810038D01*
X170350830Y-108790632D01*
X170361866Y-108772219D01*
X170374654Y-108754976D01*
X170389070Y-108739070D01*
X170404976Y-108724654D01*
X170422219Y-108711866D01*
X170440632Y-108700830D01*
X170460038Y-108691651D01*
X170480250Y-108684419D01*
X170501074Y-108679203D01*
X170522309Y-108676053D01*
X170543750Y-108675000D01*
X171056250Y-108675000D01*
X171077691Y-108676053D01*
X171077691Y-108676053D01*
G37*
D12*
X170800000Y-109112500D03*
D11*
G36*
X165777691Y-110251053D02*
G01*
X165798926Y-110254203D01*
X165819750Y-110259419D01*
X165839962Y-110266651D01*
X165859368Y-110275830D01*
X165877781Y-110286866D01*
X165895024Y-110299654D01*
X165910930Y-110314070D01*
X165925346Y-110329976D01*
X165938134Y-110347219D01*
X165949170Y-110365632D01*
X165958349Y-110385038D01*
X165965581Y-110405250D01*
X165970797Y-110426074D01*
X165973947Y-110447309D01*
X165975000Y-110468750D01*
X165975000Y-110906250D01*
X165973947Y-110927691D01*
X165970797Y-110948926D01*
X165965581Y-110969750D01*
X165958349Y-110989962D01*
X165949170Y-111009368D01*
X165938134Y-111027781D01*
X165925346Y-111045024D01*
X165910930Y-111060930D01*
X165895024Y-111075346D01*
X165877781Y-111088134D01*
X165859368Y-111099170D01*
X165839962Y-111108349D01*
X165819750Y-111115581D01*
X165798926Y-111120797D01*
X165777691Y-111123947D01*
X165756250Y-111125000D01*
X165243750Y-111125000D01*
X165222309Y-111123947D01*
X165201074Y-111120797D01*
X165180250Y-111115581D01*
X165160038Y-111108349D01*
X165140632Y-111099170D01*
X165122219Y-111088134D01*
X165104976Y-111075346D01*
X165089070Y-111060930D01*
X165074654Y-111045024D01*
X165061866Y-111027781D01*
X165050830Y-111009368D01*
X165041651Y-110989962D01*
X165034419Y-110969750D01*
X165029203Y-110948926D01*
X165026053Y-110927691D01*
X165025000Y-110906250D01*
X165025000Y-110468750D01*
X165026053Y-110447309D01*
X165029203Y-110426074D01*
X165034419Y-110405250D01*
X165041651Y-110385038D01*
X165050830Y-110365632D01*
X165061866Y-110347219D01*
X165074654Y-110329976D01*
X165089070Y-110314070D01*
X165104976Y-110299654D01*
X165122219Y-110286866D01*
X165140632Y-110275830D01*
X165160038Y-110266651D01*
X165180250Y-110259419D01*
X165201074Y-110254203D01*
X165222309Y-110251053D01*
X165243750Y-110250000D01*
X165756250Y-110250000D01*
X165777691Y-110251053D01*
X165777691Y-110251053D01*
G37*
D12*
X165500000Y-110687500D03*
D11*
G36*
X165777691Y-108676053D02*
G01*
X165798926Y-108679203D01*
X165819750Y-108684419D01*
X165839962Y-108691651D01*
X165859368Y-108700830D01*
X165877781Y-108711866D01*
X165895024Y-108724654D01*
X165910930Y-108739070D01*
X165925346Y-108754976D01*
X165938134Y-108772219D01*
X165949170Y-108790632D01*
X165958349Y-108810038D01*
X165965581Y-108830250D01*
X165970797Y-108851074D01*
X165973947Y-108872309D01*
X165975000Y-108893750D01*
X165975000Y-109331250D01*
X165973947Y-109352691D01*
X165970797Y-109373926D01*
X165965581Y-109394750D01*
X165958349Y-109414962D01*
X165949170Y-109434368D01*
X165938134Y-109452781D01*
X165925346Y-109470024D01*
X165910930Y-109485930D01*
X165895024Y-109500346D01*
X165877781Y-109513134D01*
X165859368Y-109524170D01*
X165839962Y-109533349D01*
X165819750Y-109540581D01*
X165798926Y-109545797D01*
X165777691Y-109548947D01*
X165756250Y-109550000D01*
X165243750Y-109550000D01*
X165222309Y-109548947D01*
X165201074Y-109545797D01*
X165180250Y-109540581D01*
X165160038Y-109533349D01*
X165140632Y-109524170D01*
X165122219Y-109513134D01*
X165104976Y-109500346D01*
X165089070Y-109485930D01*
X165074654Y-109470024D01*
X165061866Y-109452781D01*
X165050830Y-109434368D01*
X165041651Y-109414962D01*
X165034419Y-109394750D01*
X165029203Y-109373926D01*
X165026053Y-109352691D01*
X165025000Y-109331250D01*
X165025000Y-108893750D01*
X165026053Y-108872309D01*
X165029203Y-108851074D01*
X165034419Y-108830250D01*
X165041651Y-108810038D01*
X165050830Y-108790632D01*
X165061866Y-108772219D01*
X165074654Y-108754976D01*
X165089070Y-108739070D01*
X165104976Y-108724654D01*
X165122219Y-108711866D01*
X165140632Y-108700830D01*
X165160038Y-108691651D01*
X165180250Y-108684419D01*
X165201074Y-108679203D01*
X165222309Y-108676053D01*
X165243750Y-108675000D01*
X165756250Y-108675000D01*
X165777691Y-108676053D01*
X165777691Y-108676053D01*
G37*
D12*
X165500000Y-109112500D03*
D11*
G36*
X161477691Y-102851053D02*
G01*
X161498926Y-102854203D01*
X161519750Y-102859419D01*
X161539962Y-102866651D01*
X161559368Y-102875830D01*
X161577781Y-102886866D01*
X161595024Y-102899654D01*
X161610930Y-102914070D01*
X161625346Y-102929976D01*
X161638134Y-102947219D01*
X161649170Y-102965632D01*
X161658349Y-102985038D01*
X161665581Y-103005250D01*
X161670797Y-103026074D01*
X161673947Y-103047309D01*
X161675000Y-103068750D01*
X161675000Y-103506250D01*
X161673947Y-103527691D01*
X161670797Y-103548926D01*
X161665581Y-103569750D01*
X161658349Y-103589962D01*
X161649170Y-103609368D01*
X161638134Y-103627781D01*
X161625346Y-103645024D01*
X161610930Y-103660930D01*
X161595024Y-103675346D01*
X161577781Y-103688134D01*
X161559368Y-103699170D01*
X161539962Y-103708349D01*
X161519750Y-103715581D01*
X161498926Y-103720797D01*
X161477691Y-103723947D01*
X161456250Y-103725000D01*
X160943750Y-103725000D01*
X160922309Y-103723947D01*
X160901074Y-103720797D01*
X160880250Y-103715581D01*
X160860038Y-103708349D01*
X160840632Y-103699170D01*
X160822219Y-103688134D01*
X160804976Y-103675346D01*
X160789070Y-103660930D01*
X160774654Y-103645024D01*
X160761866Y-103627781D01*
X160750830Y-103609368D01*
X160741651Y-103589962D01*
X160734419Y-103569750D01*
X160729203Y-103548926D01*
X160726053Y-103527691D01*
X160725000Y-103506250D01*
X160725000Y-103068750D01*
X160726053Y-103047309D01*
X160729203Y-103026074D01*
X160734419Y-103005250D01*
X160741651Y-102985038D01*
X160750830Y-102965632D01*
X160761866Y-102947219D01*
X160774654Y-102929976D01*
X160789070Y-102914070D01*
X160804976Y-102899654D01*
X160822219Y-102886866D01*
X160840632Y-102875830D01*
X160860038Y-102866651D01*
X160880250Y-102859419D01*
X160901074Y-102854203D01*
X160922309Y-102851053D01*
X160943750Y-102850000D01*
X161456250Y-102850000D01*
X161477691Y-102851053D01*
X161477691Y-102851053D01*
G37*
D12*
X161200000Y-103287500D03*
D11*
G36*
X161477691Y-101276053D02*
G01*
X161498926Y-101279203D01*
X161519750Y-101284419D01*
X161539962Y-101291651D01*
X161559368Y-101300830D01*
X161577781Y-101311866D01*
X161595024Y-101324654D01*
X161610930Y-101339070D01*
X161625346Y-101354976D01*
X161638134Y-101372219D01*
X161649170Y-101390632D01*
X161658349Y-101410038D01*
X161665581Y-101430250D01*
X161670797Y-101451074D01*
X161673947Y-101472309D01*
X161675000Y-101493750D01*
X161675000Y-101931250D01*
X161673947Y-101952691D01*
X161670797Y-101973926D01*
X161665581Y-101994750D01*
X161658349Y-102014962D01*
X161649170Y-102034368D01*
X161638134Y-102052781D01*
X161625346Y-102070024D01*
X161610930Y-102085930D01*
X161595024Y-102100346D01*
X161577781Y-102113134D01*
X161559368Y-102124170D01*
X161539962Y-102133349D01*
X161519750Y-102140581D01*
X161498926Y-102145797D01*
X161477691Y-102148947D01*
X161456250Y-102150000D01*
X160943750Y-102150000D01*
X160922309Y-102148947D01*
X160901074Y-102145797D01*
X160880250Y-102140581D01*
X160860038Y-102133349D01*
X160840632Y-102124170D01*
X160822219Y-102113134D01*
X160804976Y-102100346D01*
X160789070Y-102085930D01*
X160774654Y-102070024D01*
X160761866Y-102052781D01*
X160750830Y-102034368D01*
X160741651Y-102014962D01*
X160734419Y-101994750D01*
X160729203Y-101973926D01*
X160726053Y-101952691D01*
X160725000Y-101931250D01*
X160725000Y-101493750D01*
X160726053Y-101472309D01*
X160729203Y-101451074D01*
X160734419Y-101430250D01*
X160741651Y-101410038D01*
X160750830Y-101390632D01*
X160761866Y-101372219D01*
X160774654Y-101354976D01*
X160789070Y-101339070D01*
X160804976Y-101324654D01*
X160822219Y-101311866D01*
X160840632Y-101300830D01*
X160860038Y-101291651D01*
X160880250Y-101284419D01*
X160901074Y-101279203D01*
X160922309Y-101276053D01*
X160943750Y-101275000D01*
X161456250Y-101275000D01*
X161477691Y-101276053D01*
X161477691Y-101276053D01*
G37*
D12*
X161200000Y-101712500D03*
D11*
G36*
X157577691Y-102851053D02*
G01*
X157598926Y-102854203D01*
X157619750Y-102859419D01*
X157639962Y-102866651D01*
X157659368Y-102875830D01*
X157677781Y-102886866D01*
X157695024Y-102899654D01*
X157710930Y-102914070D01*
X157725346Y-102929976D01*
X157738134Y-102947219D01*
X157749170Y-102965632D01*
X157758349Y-102985038D01*
X157765581Y-103005250D01*
X157770797Y-103026074D01*
X157773947Y-103047309D01*
X157775000Y-103068750D01*
X157775000Y-103506250D01*
X157773947Y-103527691D01*
X157770797Y-103548926D01*
X157765581Y-103569750D01*
X157758349Y-103589962D01*
X157749170Y-103609368D01*
X157738134Y-103627781D01*
X157725346Y-103645024D01*
X157710930Y-103660930D01*
X157695024Y-103675346D01*
X157677781Y-103688134D01*
X157659368Y-103699170D01*
X157639962Y-103708349D01*
X157619750Y-103715581D01*
X157598926Y-103720797D01*
X157577691Y-103723947D01*
X157556250Y-103725000D01*
X157043750Y-103725000D01*
X157022309Y-103723947D01*
X157001074Y-103720797D01*
X156980250Y-103715581D01*
X156960038Y-103708349D01*
X156940632Y-103699170D01*
X156922219Y-103688134D01*
X156904976Y-103675346D01*
X156889070Y-103660930D01*
X156874654Y-103645024D01*
X156861866Y-103627781D01*
X156850830Y-103609368D01*
X156841651Y-103589962D01*
X156834419Y-103569750D01*
X156829203Y-103548926D01*
X156826053Y-103527691D01*
X156825000Y-103506250D01*
X156825000Y-103068750D01*
X156826053Y-103047309D01*
X156829203Y-103026074D01*
X156834419Y-103005250D01*
X156841651Y-102985038D01*
X156850830Y-102965632D01*
X156861866Y-102947219D01*
X156874654Y-102929976D01*
X156889070Y-102914070D01*
X156904976Y-102899654D01*
X156922219Y-102886866D01*
X156940632Y-102875830D01*
X156960038Y-102866651D01*
X156980250Y-102859419D01*
X157001074Y-102854203D01*
X157022309Y-102851053D01*
X157043750Y-102850000D01*
X157556250Y-102850000D01*
X157577691Y-102851053D01*
X157577691Y-102851053D01*
G37*
D12*
X157300000Y-103287500D03*
D11*
G36*
X157577691Y-101276053D02*
G01*
X157598926Y-101279203D01*
X157619750Y-101284419D01*
X157639962Y-101291651D01*
X157659368Y-101300830D01*
X157677781Y-101311866D01*
X157695024Y-101324654D01*
X157710930Y-101339070D01*
X157725346Y-101354976D01*
X157738134Y-101372219D01*
X157749170Y-101390632D01*
X157758349Y-101410038D01*
X157765581Y-101430250D01*
X157770797Y-101451074D01*
X157773947Y-101472309D01*
X157775000Y-101493750D01*
X157775000Y-101931250D01*
X157773947Y-101952691D01*
X157770797Y-101973926D01*
X157765581Y-101994750D01*
X157758349Y-102014962D01*
X157749170Y-102034368D01*
X157738134Y-102052781D01*
X157725346Y-102070024D01*
X157710930Y-102085930D01*
X157695024Y-102100346D01*
X157677781Y-102113134D01*
X157659368Y-102124170D01*
X157639962Y-102133349D01*
X157619750Y-102140581D01*
X157598926Y-102145797D01*
X157577691Y-102148947D01*
X157556250Y-102150000D01*
X157043750Y-102150000D01*
X157022309Y-102148947D01*
X157001074Y-102145797D01*
X156980250Y-102140581D01*
X156960038Y-102133349D01*
X156940632Y-102124170D01*
X156922219Y-102113134D01*
X156904976Y-102100346D01*
X156889070Y-102085930D01*
X156874654Y-102070024D01*
X156861866Y-102052781D01*
X156850830Y-102034368D01*
X156841651Y-102014962D01*
X156834419Y-101994750D01*
X156829203Y-101973926D01*
X156826053Y-101952691D01*
X156825000Y-101931250D01*
X156825000Y-101493750D01*
X156826053Y-101472309D01*
X156829203Y-101451074D01*
X156834419Y-101430250D01*
X156841651Y-101410038D01*
X156850830Y-101390632D01*
X156861866Y-101372219D01*
X156874654Y-101354976D01*
X156889070Y-101339070D01*
X156904976Y-101324654D01*
X156922219Y-101311866D01*
X156940632Y-101300830D01*
X156960038Y-101291651D01*
X156980250Y-101284419D01*
X157001074Y-101279203D01*
X157022309Y-101276053D01*
X157043750Y-101275000D01*
X157556250Y-101275000D01*
X157577691Y-101276053D01*
X157577691Y-101276053D01*
G37*
D12*
X157300000Y-101712500D03*
D11*
G36*
X163327691Y-112226053D02*
G01*
X163348926Y-112229203D01*
X163369750Y-112234419D01*
X163389962Y-112241651D01*
X163409368Y-112250830D01*
X163427781Y-112261866D01*
X163445024Y-112274654D01*
X163460930Y-112289070D01*
X163475346Y-112304976D01*
X163488134Y-112322219D01*
X163499170Y-112340632D01*
X163508349Y-112360038D01*
X163515581Y-112380250D01*
X163520797Y-112401074D01*
X163523947Y-112422309D01*
X163525000Y-112443750D01*
X163525000Y-112956250D01*
X163523947Y-112977691D01*
X163520797Y-112998926D01*
X163515581Y-113019750D01*
X163508349Y-113039962D01*
X163499170Y-113059368D01*
X163488134Y-113077781D01*
X163475346Y-113095024D01*
X163460930Y-113110930D01*
X163445024Y-113125346D01*
X163427781Y-113138134D01*
X163409368Y-113149170D01*
X163389962Y-113158349D01*
X163369750Y-113165581D01*
X163348926Y-113170797D01*
X163327691Y-113173947D01*
X163306250Y-113175000D01*
X162868750Y-113175000D01*
X162847309Y-113173947D01*
X162826074Y-113170797D01*
X162805250Y-113165581D01*
X162785038Y-113158349D01*
X162765632Y-113149170D01*
X162747219Y-113138134D01*
X162729976Y-113125346D01*
X162714070Y-113110930D01*
X162699654Y-113095024D01*
X162686866Y-113077781D01*
X162675830Y-113059368D01*
X162666651Y-113039962D01*
X162659419Y-113019750D01*
X162654203Y-112998926D01*
X162651053Y-112977691D01*
X162650000Y-112956250D01*
X162650000Y-112443750D01*
X162651053Y-112422309D01*
X162654203Y-112401074D01*
X162659419Y-112380250D01*
X162666651Y-112360038D01*
X162675830Y-112340632D01*
X162686866Y-112322219D01*
X162699654Y-112304976D01*
X162714070Y-112289070D01*
X162729976Y-112274654D01*
X162747219Y-112261866D01*
X162765632Y-112250830D01*
X162785038Y-112241651D01*
X162805250Y-112234419D01*
X162826074Y-112229203D01*
X162847309Y-112226053D01*
X162868750Y-112225000D01*
X163306250Y-112225000D01*
X163327691Y-112226053D01*
X163327691Y-112226053D01*
G37*
D12*
X163087500Y-112700000D03*
D11*
G36*
X161752691Y-112226053D02*
G01*
X161773926Y-112229203D01*
X161794750Y-112234419D01*
X161814962Y-112241651D01*
X161834368Y-112250830D01*
X161852781Y-112261866D01*
X161870024Y-112274654D01*
X161885930Y-112289070D01*
X161900346Y-112304976D01*
X161913134Y-112322219D01*
X161924170Y-112340632D01*
X161933349Y-112360038D01*
X161940581Y-112380250D01*
X161945797Y-112401074D01*
X161948947Y-112422309D01*
X161950000Y-112443750D01*
X161950000Y-112956250D01*
X161948947Y-112977691D01*
X161945797Y-112998926D01*
X161940581Y-113019750D01*
X161933349Y-113039962D01*
X161924170Y-113059368D01*
X161913134Y-113077781D01*
X161900346Y-113095024D01*
X161885930Y-113110930D01*
X161870024Y-113125346D01*
X161852781Y-113138134D01*
X161834368Y-113149170D01*
X161814962Y-113158349D01*
X161794750Y-113165581D01*
X161773926Y-113170797D01*
X161752691Y-113173947D01*
X161731250Y-113175000D01*
X161293750Y-113175000D01*
X161272309Y-113173947D01*
X161251074Y-113170797D01*
X161230250Y-113165581D01*
X161210038Y-113158349D01*
X161190632Y-113149170D01*
X161172219Y-113138134D01*
X161154976Y-113125346D01*
X161139070Y-113110930D01*
X161124654Y-113095024D01*
X161111866Y-113077781D01*
X161100830Y-113059368D01*
X161091651Y-113039962D01*
X161084419Y-113019750D01*
X161079203Y-112998926D01*
X161076053Y-112977691D01*
X161075000Y-112956250D01*
X161075000Y-112443750D01*
X161076053Y-112422309D01*
X161079203Y-112401074D01*
X161084419Y-112380250D01*
X161091651Y-112360038D01*
X161100830Y-112340632D01*
X161111866Y-112322219D01*
X161124654Y-112304976D01*
X161139070Y-112289070D01*
X161154976Y-112274654D01*
X161172219Y-112261866D01*
X161190632Y-112250830D01*
X161210038Y-112241651D01*
X161230250Y-112234419D01*
X161251074Y-112229203D01*
X161272309Y-112226053D01*
X161293750Y-112225000D01*
X161731250Y-112225000D01*
X161752691Y-112226053D01*
X161752691Y-112226053D01*
G37*
D12*
X161512500Y-112700000D03*
D11*
G36*
X173977691Y-108676053D02*
G01*
X173998926Y-108679203D01*
X174019750Y-108684419D01*
X174039962Y-108691651D01*
X174059368Y-108700830D01*
X174077781Y-108711866D01*
X174095024Y-108724654D01*
X174110930Y-108739070D01*
X174125346Y-108754976D01*
X174138134Y-108772219D01*
X174149170Y-108790632D01*
X174158349Y-108810038D01*
X174165581Y-108830250D01*
X174170797Y-108851074D01*
X174173947Y-108872309D01*
X174175000Y-108893750D01*
X174175000Y-109331250D01*
X174173947Y-109352691D01*
X174170797Y-109373926D01*
X174165581Y-109394750D01*
X174158349Y-109414962D01*
X174149170Y-109434368D01*
X174138134Y-109452781D01*
X174125346Y-109470024D01*
X174110930Y-109485930D01*
X174095024Y-109500346D01*
X174077781Y-109513134D01*
X174059368Y-109524170D01*
X174039962Y-109533349D01*
X174019750Y-109540581D01*
X173998926Y-109545797D01*
X173977691Y-109548947D01*
X173956250Y-109550000D01*
X173443750Y-109550000D01*
X173422309Y-109548947D01*
X173401074Y-109545797D01*
X173380250Y-109540581D01*
X173360038Y-109533349D01*
X173340632Y-109524170D01*
X173322219Y-109513134D01*
X173304976Y-109500346D01*
X173289070Y-109485930D01*
X173274654Y-109470024D01*
X173261866Y-109452781D01*
X173250830Y-109434368D01*
X173241651Y-109414962D01*
X173234419Y-109394750D01*
X173229203Y-109373926D01*
X173226053Y-109352691D01*
X173225000Y-109331250D01*
X173225000Y-108893750D01*
X173226053Y-108872309D01*
X173229203Y-108851074D01*
X173234419Y-108830250D01*
X173241651Y-108810038D01*
X173250830Y-108790632D01*
X173261866Y-108772219D01*
X173274654Y-108754976D01*
X173289070Y-108739070D01*
X173304976Y-108724654D01*
X173322219Y-108711866D01*
X173340632Y-108700830D01*
X173360038Y-108691651D01*
X173380250Y-108684419D01*
X173401074Y-108679203D01*
X173422309Y-108676053D01*
X173443750Y-108675000D01*
X173956250Y-108675000D01*
X173977691Y-108676053D01*
X173977691Y-108676053D01*
G37*
D12*
X173700000Y-109112500D03*
D11*
G36*
X173977691Y-110251053D02*
G01*
X173998926Y-110254203D01*
X174019750Y-110259419D01*
X174039962Y-110266651D01*
X174059368Y-110275830D01*
X174077781Y-110286866D01*
X174095024Y-110299654D01*
X174110930Y-110314070D01*
X174125346Y-110329976D01*
X174138134Y-110347219D01*
X174149170Y-110365632D01*
X174158349Y-110385038D01*
X174165581Y-110405250D01*
X174170797Y-110426074D01*
X174173947Y-110447309D01*
X174175000Y-110468750D01*
X174175000Y-110906250D01*
X174173947Y-110927691D01*
X174170797Y-110948926D01*
X174165581Y-110969750D01*
X174158349Y-110989962D01*
X174149170Y-111009368D01*
X174138134Y-111027781D01*
X174125346Y-111045024D01*
X174110930Y-111060930D01*
X174095024Y-111075346D01*
X174077781Y-111088134D01*
X174059368Y-111099170D01*
X174039962Y-111108349D01*
X174019750Y-111115581D01*
X173998926Y-111120797D01*
X173977691Y-111123947D01*
X173956250Y-111125000D01*
X173443750Y-111125000D01*
X173422309Y-111123947D01*
X173401074Y-111120797D01*
X173380250Y-111115581D01*
X173360038Y-111108349D01*
X173340632Y-111099170D01*
X173322219Y-111088134D01*
X173304976Y-111075346D01*
X173289070Y-111060930D01*
X173274654Y-111045024D01*
X173261866Y-111027781D01*
X173250830Y-111009368D01*
X173241651Y-110989962D01*
X173234419Y-110969750D01*
X173229203Y-110948926D01*
X173226053Y-110927691D01*
X173225000Y-110906250D01*
X173225000Y-110468750D01*
X173226053Y-110447309D01*
X173229203Y-110426074D01*
X173234419Y-110405250D01*
X173241651Y-110385038D01*
X173250830Y-110365632D01*
X173261866Y-110347219D01*
X173274654Y-110329976D01*
X173289070Y-110314070D01*
X173304976Y-110299654D01*
X173322219Y-110286866D01*
X173340632Y-110275830D01*
X173360038Y-110266651D01*
X173380250Y-110259419D01*
X173401074Y-110254203D01*
X173422309Y-110251053D01*
X173443750Y-110250000D01*
X173956250Y-110250000D01*
X173977691Y-110251053D01*
X173977691Y-110251053D01*
G37*
D12*
X173700000Y-110687500D03*
D11*
G36*
X169077691Y-102851053D02*
G01*
X169098926Y-102854203D01*
X169119750Y-102859419D01*
X169139962Y-102866651D01*
X169159368Y-102875830D01*
X169177781Y-102886866D01*
X169195024Y-102899654D01*
X169210930Y-102914070D01*
X169225346Y-102929976D01*
X169238134Y-102947219D01*
X169249170Y-102965632D01*
X169258349Y-102985038D01*
X169265581Y-103005250D01*
X169270797Y-103026074D01*
X169273947Y-103047309D01*
X169275000Y-103068750D01*
X169275000Y-103506250D01*
X169273947Y-103527691D01*
X169270797Y-103548926D01*
X169265581Y-103569750D01*
X169258349Y-103589962D01*
X169249170Y-103609368D01*
X169238134Y-103627781D01*
X169225346Y-103645024D01*
X169210930Y-103660930D01*
X169195024Y-103675346D01*
X169177781Y-103688134D01*
X169159368Y-103699170D01*
X169139962Y-103708349D01*
X169119750Y-103715581D01*
X169098926Y-103720797D01*
X169077691Y-103723947D01*
X169056250Y-103725000D01*
X168543750Y-103725000D01*
X168522309Y-103723947D01*
X168501074Y-103720797D01*
X168480250Y-103715581D01*
X168460038Y-103708349D01*
X168440632Y-103699170D01*
X168422219Y-103688134D01*
X168404976Y-103675346D01*
X168389070Y-103660930D01*
X168374654Y-103645024D01*
X168361866Y-103627781D01*
X168350830Y-103609368D01*
X168341651Y-103589962D01*
X168334419Y-103569750D01*
X168329203Y-103548926D01*
X168326053Y-103527691D01*
X168325000Y-103506250D01*
X168325000Y-103068750D01*
X168326053Y-103047309D01*
X168329203Y-103026074D01*
X168334419Y-103005250D01*
X168341651Y-102985038D01*
X168350830Y-102965632D01*
X168361866Y-102947219D01*
X168374654Y-102929976D01*
X168389070Y-102914070D01*
X168404976Y-102899654D01*
X168422219Y-102886866D01*
X168440632Y-102875830D01*
X168460038Y-102866651D01*
X168480250Y-102859419D01*
X168501074Y-102854203D01*
X168522309Y-102851053D01*
X168543750Y-102850000D01*
X169056250Y-102850000D01*
X169077691Y-102851053D01*
X169077691Y-102851053D01*
G37*
D12*
X168800000Y-103287500D03*
D11*
G36*
X169077691Y-101276053D02*
G01*
X169098926Y-101279203D01*
X169119750Y-101284419D01*
X169139962Y-101291651D01*
X169159368Y-101300830D01*
X169177781Y-101311866D01*
X169195024Y-101324654D01*
X169210930Y-101339070D01*
X169225346Y-101354976D01*
X169238134Y-101372219D01*
X169249170Y-101390632D01*
X169258349Y-101410038D01*
X169265581Y-101430250D01*
X169270797Y-101451074D01*
X169273947Y-101472309D01*
X169275000Y-101493750D01*
X169275000Y-101931250D01*
X169273947Y-101952691D01*
X169270797Y-101973926D01*
X169265581Y-101994750D01*
X169258349Y-102014962D01*
X169249170Y-102034368D01*
X169238134Y-102052781D01*
X169225346Y-102070024D01*
X169210930Y-102085930D01*
X169195024Y-102100346D01*
X169177781Y-102113134D01*
X169159368Y-102124170D01*
X169139962Y-102133349D01*
X169119750Y-102140581D01*
X169098926Y-102145797D01*
X169077691Y-102148947D01*
X169056250Y-102150000D01*
X168543750Y-102150000D01*
X168522309Y-102148947D01*
X168501074Y-102145797D01*
X168480250Y-102140581D01*
X168460038Y-102133349D01*
X168440632Y-102124170D01*
X168422219Y-102113134D01*
X168404976Y-102100346D01*
X168389070Y-102085930D01*
X168374654Y-102070024D01*
X168361866Y-102052781D01*
X168350830Y-102034368D01*
X168341651Y-102014962D01*
X168334419Y-101994750D01*
X168329203Y-101973926D01*
X168326053Y-101952691D01*
X168325000Y-101931250D01*
X168325000Y-101493750D01*
X168326053Y-101472309D01*
X168329203Y-101451074D01*
X168334419Y-101430250D01*
X168341651Y-101410038D01*
X168350830Y-101390632D01*
X168361866Y-101372219D01*
X168374654Y-101354976D01*
X168389070Y-101339070D01*
X168404976Y-101324654D01*
X168422219Y-101311866D01*
X168440632Y-101300830D01*
X168460038Y-101291651D01*
X168480250Y-101284419D01*
X168501074Y-101279203D01*
X168522309Y-101276053D01*
X168543750Y-101275000D01*
X169056250Y-101275000D01*
X169077691Y-101276053D01*
X169077691Y-101276053D01*
G37*
D12*
X168800000Y-101712500D03*
D11*
G36*
X166827691Y-101326053D02*
G01*
X166848926Y-101329203D01*
X166869750Y-101334419D01*
X166889962Y-101341651D01*
X166909368Y-101350830D01*
X166927781Y-101361866D01*
X166945024Y-101374654D01*
X166960930Y-101389070D01*
X166975346Y-101404976D01*
X166988134Y-101422219D01*
X166999170Y-101440632D01*
X167008349Y-101460038D01*
X167015581Y-101480250D01*
X167020797Y-101501074D01*
X167023947Y-101522309D01*
X167025000Y-101543750D01*
X167025000Y-102056250D01*
X167023947Y-102077691D01*
X167020797Y-102098926D01*
X167015581Y-102119750D01*
X167008349Y-102139962D01*
X166999170Y-102159368D01*
X166988134Y-102177781D01*
X166975346Y-102195024D01*
X166960930Y-102210930D01*
X166945024Y-102225346D01*
X166927781Y-102238134D01*
X166909368Y-102249170D01*
X166889962Y-102258349D01*
X166869750Y-102265581D01*
X166848926Y-102270797D01*
X166827691Y-102273947D01*
X166806250Y-102275000D01*
X166368750Y-102275000D01*
X166347309Y-102273947D01*
X166326074Y-102270797D01*
X166305250Y-102265581D01*
X166285038Y-102258349D01*
X166265632Y-102249170D01*
X166247219Y-102238134D01*
X166229976Y-102225346D01*
X166214070Y-102210930D01*
X166199654Y-102195024D01*
X166186866Y-102177781D01*
X166175830Y-102159368D01*
X166166651Y-102139962D01*
X166159419Y-102119750D01*
X166154203Y-102098926D01*
X166151053Y-102077691D01*
X166150000Y-102056250D01*
X166150000Y-101543750D01*
X166151053Y-101522309D01*
X166154203Y-101501074D01*
X166159419Y-101480250D01*
X166166651Y-101460038D01*
X166175830Y-101440632D01*
X166186866Y-101422219D01*
X166199654Y-101404976D01*
X166214070Y-101389070D01*
X166229976Y-101374654D01*
X166247219Y-101361866D01*
X166265632Y-101350830D01*
X166285038Y-101341651D01*
X166305250Y-101334419D01*
X166326074Y-101329203D01*
X166347309Y-101326053D01*
X166368750Y-101325000D01*
X166806250Y-101325000D01*
X166827691Y-101326053D01*
X166827691Y-101326053D01*
G37*
D12*
X166587500Y-101800000D03*
D11*
G36*
X165252691Y-101326053D02*
G01*
X165273926Y-101329203D01*
X165294750Y-101334419D01*
X165314962Y-101341651D01*
X165334368Y-101350830D01*
X165352781Y-101361866D01*
X165370024Y-101374654D01*
X165385930Y-101389070D01*
X165400346Y-101404976D01*
X165413134Y-101422219D01*
X165424170Y-101440632D01*
X165433349Y-101460038D01*
X165440581Y-101480250D01*
X165445797Y-101501074D01*
X165448947Y-101522309D01*
X165450000Y-101543750D01*
X165450000Y-102056250D01*
X165448947Y-102077691D01*
X165445797Y-102098926D01*
X165440581Y-102119750D01*
X165433349Y-102139962D01*
X165424170Y-102159368D01*
X165413134Y-102177781D01*
X165400346Y-102195024D01*
X165385930Y-102210930D01*
X165370024Y-102225346D01*
X165352781Y-102238134D01*
X165334368Y-102249170D01*
X165314962Y-102258349D01*
X165294750Y-102265581D01*
X165273926Y-102270797D01*
X165252691Y-102273947D01*
X165231250Y-102275000D01*
X164793750Y-102275000D01*
X164772309Y-102273947D01*
X164751074Y-102270797D01*
X164730250Y-102265581D01*
X164710038Y-102258349D01*
X164690632Y-102249170D01*
X164672219Y-102238134D01*
X164654976Y-102225346D01*
X164639070Y-102210930D01*
X164624654Y-102195024D01*
X164611866Y-102177781D01*
X164600830Y-102159368D01*
X164591651Y-102139962D01*
X164584419Y-102119750D01*
X164579203Y-102098926D01*
X164576053Y-102077691D01*
X164575000Y-102056250D01*
X164575000Y-101543750D01*
X164576053Y-101522309D01*
X164579203Y-101501074D01*
X164584419Y-101480250D01*
X164591651Y-101460038D01*
X164600830Y-101440632D01*
X164611866Y-101422219D01*
X164624654Y-101404976D01*
X164639070Y-101389070D01*
X164654976Y-101374654D01*
X164672219Y-101361866D01*
X164690632Y-101350830D01*
X164710038Y-101341651D01*
X164730250Y-101334419D01*
X164751074Y-101329203D01*
X164772309Y-101326053D01*
X164793750Y-101325000D01*
X165231250Y-101325000D01*
X165252691Y-101326053D01*
X165252691Y-101326053D01*
G37*
D12*
X165012500Y-101800000D03*
D11*
G36*
X160077691Y-110251053D02*
G01*
X160098926Y-110254203D01*
X160119750Y-110259419D01*
X160139962Y-110266651D01*
X160159368Y-110275830D01*
X160177781Y-110286866D01*
X160195024Y-110299654D01*
X160210930Y-110314070D01*
X160225346Y-110329976D01*
X160238134Y-110347219D01*
X160249170Y-110365632D01*
X160258349Y-110385038D01*
X160265581Y-110405250D01*
X160270797Y-110426074D01*
X160273947Y-110447309D01*
X160275000Y-110468750D01*
X160275000Y-110906250D01*
X160273947Y-110927691D01*
X160270797Y-110948926D01*
X160265581Y-110969750D01*
X160258349Y-110989962D01*
X160249170Y-111009368D01*
X160238134Y-111027781D01*
X160225346Y-111045024D01*
X160210930Y-111060930D01*
X160195024Y-111075346D01*
X160177781Y-111088134D01*
X160159368Y-111099170D01*
X160139962Y-111108349D01*
X160119750Y-111115581D01*
X160098926Y-111120797D01*
X160077691Y-111123947D01*
X160056250Y-111125000D01*
X159543750Y-111125000D01*
X159522309Y-111123947D01*
X159501074Y-111120797D01*
X159480250Y-111115581D01*
X159460038Y-111108349D01*
X159440632Y-111099170D01*
X159422219Y-111088134D01*
X159404976Y-111075346D01*
X159389070Y-111060930D01*
X159374654Y-111045024D01*
X159361866Y-111027781D01*
X159350830Y-111009368D01*
X159341651Y-110989962D01*
X159334419Y-110969750D01*
X159329203Y-110948926D01*
X159326053Y-110927691D01*
X159325000Y-110906250D01*
X159325000Y-110468750D01*
X159326053Y-110447309D01*
X159329203Y-110426074D01*
X159334419Y-110405250D01*
X159341651Y-110385038D01*
X159350830Y-110365632D01*
X159361866Y-110347219D01*
X159374654Y-110329976D01*
X159389070Y-110314070D01*
X159404976Y-110299654D01*
X159422219Y-110286866D01*
X159440632Y-110275830D01*
X159460038Y-110266651D01*
X159480250Y-110259419D01*
X159501074Y-110254203D01*
X159522309Y-110251053D01*
X159543750Y-110250000D01*
X160056250Y-110250000D01*
X160077691Y-110251053D01*
X160077691Y-110251053D01*
G37*
D12*
X159800000Y-110687500D03*
D11*
G36*
X160077691Y-108676053D02*
G01*
X160098926Y-108679203D01*
X160119750Y-108684419D01*
X160139962Y-108691651D01*
X160159368Y-108700830D01*
X160177781Y-108711866D01*
X160195024Y-108724654D01*
X160210930Y-108739070D01*
X160225346Y-108754976D01*
X160238134Y-108772219D01*
X160249170Y-108790632D01*
X160258349Y-108810038D01*
X160265581Y-108830250D01*
X160270797Y-108851074D01*
X160273947Y-108872309D01*
X160275000Y-108893750D01*
X160275000Y-109331250D01*
X160273947Y-109352691D01*
X160270797Y-109373926D01*
X160265581Y-109394750D01*
X160258349Y-109414962D01*
X160249170Y-109434368D01*
X160238134Y-109452781D01*
X160225346Y-109470024D01*
X160210930Y-109485930D01*
X160195024Y-109500346D01*
X160177781Y-109513134D01*
X160159368Y-109524170D01*
X160139962Y-109533349D01*
X160119750Y-109540581D01*
X160098926Y-109545797D01*
X160077691Y-109548947D01*
X160056250Y-109550000D01*
X159543750Y-109550000D01*
X159522309Y-109548947D01*
X159501074Y-109545797D01*
X159480250Y-109540581D01*
X159460038Y-109533349D01*
X159440632Y-109524170D01*
X159422219Y-109513134D01*
X159404976Y-109500346D01*
X159389070Y-109485930D01*
X159374654Y-109470024D01*
X159361866Y-109452781D01*
X159350830Y-109434368D01*
X159341651Y-109414962D01*
X159334419Y-109394750D01*
X159329203Y-109373926D01*
X159326053Y-109352691D01*
X159325000Y-109331250D01*
X159325000Y-108893750D01*
X159326053Y-108872309D01*
X159329203Y-108851074D01*
X159334419Y-108830250D01*
X159341651Y-108810038D01*
X159350830Y-108790632D01*
X159361866Y-108772219D01*
X159374654Y-108754976D01*
X159389070Y-108739070D01*
X159404976Y-108724654D01*
X159422219Y-108711866D01*
X159440632Y-108700830D01*
X159460038Y-108691651D01*
X159480250Y-108684419D01*
X159501074Y-108679203D01*
X159522309Y-108676053D01*
X159543750Y-108675000D01*
X160056250Y-108675000D01*
X160077691Y-108676053D01*
X160077691Y-108676053D01*
G37*
D12*
X159800000Y-109112500D03*
D11*
G36*
X156877691Y-110251053D02*
G01*
X156898926Y-110254203D01*
X156919750Y-110259419D01*
X156939962Y-110266651D01*
X156959368Y-110275830D01*
X156977781Y-110286866D01*
X156995024Y-110299654D01*
X157010930Y-110314070D01*
X157025346Y-110329976D01*
X157038134Y-110347219D01*
X157049170Y-110365632D01*
X157058349Y-110385038D01*
X157065581Y-110405250D01*
X157070797Y-110426074D01*
X157073947Y-110447309D01*
X157075000Y-110468750D01*
X157075000Y-110906250D01*
X157073947Y-110927691D01*
X157070797Y-110948926D01*
X157065581Y-110969750D01*
X157058349Y-110989962D01*
X157049170Y-111009368D01*
X157038134Y-111027781D01*
X157025346Y-111045024D01*
X157010930Y-111060930D01*
X156995024Y-111075346D01*
X156977781Y-111088134D01*
X156959368Y-111099170D01*
X156939962Y-111108349D01*
X156919750Y-111115581D01*
X156898926Y-111120797D01*
X156877691Y-111123947D01*
X156856250Y-111125000D01*
X156343750Y-111125000D01*
X156322309Y-111123947D01*
X156301074Y-111120797D01*
X156280250Y-111115581D01*
X156260038Y-111108349D01*
X156240632Y-111099170D01*
X156222219Y-111088134D01*
X156204976Y-111075346D01*
X156189070Y-111060930D01*
X156174654Y-111045024D01*
X156161866Y-111027781D01*
X156150830Y-111009368D01*
X156141651Y-110989962D01*
X156134419Y-110969750D01*
X156129203Y-110948926D01*
X156126053Y-110927691D01*
X156125000Y-110906250D01*
X156125000Y-110468750D01*
X156126053Y-110447309D01*
X156129203Y-110426074D01*
X156134419Y-110405250D01*
X156141651Y-110385038D01*
X156150830Y-110365632D01*
X156161866Y-110347219D01*
X156174654Y-110329976D01*
X156189070Y-110314070D01*
X156204976Y-110299654D01*
X156222219Y-110286866D01*
X156240632Y-110275830D01*
X156260038Y-110266651D01*
X156280250Y-110259419D01*
X156301074Y-110254203D01*
X156322309Y-110251053D01*
X156343750Y-110250000D01*
X156856250Y-110250000D01*
X156877691Y-110251053D01*
X156877691Y-110251053D01*
G37*
D12*
X156600000Y-110687500D03*
D11*
G36*
X156877691Y-108676053D02*
G01*
X156898926Y-108679203D01*
X156919750Y-108684419D01*
X156939962Y-108691651D01*
X156959368Y-108700830D01*
X156977781Y-108711866D01*
X156995024Y-108724654D01*
X157010930Y-108739070D01*
X157025346Y-108754976D01*
X157038134Y-108772219D01*
X157049170Y-108790632D01*
X157058349Y-108810038D01*
X157065581Y-108830250D01*
X157070797Y-108851074D01*
X157073947Y-108872309D01*
X157075000Y-108893750D01*
X157075000Y-109331250D01*
X157073947Y-109352691D01*
X157070797Y-109373926D01*
X157065581Y-109394750D01*
X157058349Y-109414962D01*
X157049170Y-109434368D01*
X157038134Y-109452781D01*
X157025346Y-109470024D01*
X157010930Y-109485930D01*
X156995024Y-109500346D01*
X156977781Y-109513134D01*
X156959368Y-109524170D01*
X156939962Y-109533349D01*
X156919750Y-109540581D01*
X156898926Y-109545797D01*
X156877691Y-109548947D01*
X156856250Y-109550000D01*
X156343750Y-109550000D01*
X156322309Y-109548947D01*
X156301074Y-109545797D01*
X156280250Y-109540581D01*
X156260038Y-109533349D01*
X156240632Y-109524170D01*
X156222219Y-109513134D01*
X156204976Y-109500346D01*
X156189070Y-109485930D01*
X156174654Y-109470024D01*
X156161866Y-109452781D01*
X156150830Y-109434368D01*
X156141651Y-109414962D01*
X156134419Y-109394750D01*
X156129203Y-109373926D01*
X156126053Y-109352691D01*
X156125000Y-109331250D01*
X156125000Y-108893750D01*
X156126053Y-108872309D01*
X156129203Y-108851074D01*
X156134419Y-108830250D01*
X156141651Y-108810038D01*
X156150830Y-108790632D01*
X156161866Y-108772219D01*
X156174654Y-108754976D01*
X156189070Y-108739070D01*
X156204976Y-108724654D01*
X156222219Y-108711866D01*
X156240632Y-108700830D01*
X156260038Y-108691651D01*
X156280250Y-108684419D01*
X156301074Y-108679203D01*
X156322309Y-108676053D01*
X156343750Y-108675000D01*
X156856250Y-108675000D01*
X156877691Y-108676053D01*
X156877691Y-108676053D01*
G37*
D12*
X156600000Y-109112500D03*
D11*
G36*
X167352691Y-112226053D02*
G01*
X167373926Y-112229203D01*
X167394750Y-112234419D01*
X167414962Y-112241651D01*
X167434368Y-112250830D01*
X167452781Y-112261866D01*
X167470024Y-112274654D01*
X167485930Y-112289070D01*
X167500346Y-112304976D01*
X167513134Y-112322219D01*
X167524170Y-112340632D01*
X167533349Y-112360038D01*
X167540581Y-112380250D01*
X167545797Y-112401074D01*
X167548947Y-112422309D01*
X167550000Y-112443750D01*
X167550000Y-112956250D01*
X167548947Y-112977691D01*
X167545797Y-112998926D01*
X167540581Y-113019750D01*
X167533349Y-113039962D01*
X167524170Y-113059368D01*
X167513134Y-113077781D01*
X167500346Y-113095024D01*
X167485930Y-113110930D01*
X167470024Y-113125346D01*
X167452781Y-113138134D01*
X167434368Y-113149170D01*
X167414962Y-113158349D01*
X167394750Y-113165581D01*
X167373926Y-113170797D01*
X167352691Y-113173947D01*
X167331250Y-113175000D01*
X166893750Y-113175000D01*
X166872309Y-113173947D01*
X166851074Y-113170797D01*
X166830250Y-113165581D01*
X166810038Y-113158349D01*
X166790632Y-113149170D01*
X166772219Y-113138134D01*
X166754976Y-113125346D01*
X166739070Y-113110930D01*
X166724654Y-113095024D01*
X166711866Y-113077781D01*
X166700830Y-113059368D01*
X166691651Y-113039962D01*
X166684419Y-113019750D01*
X166679203Y-112998926D01*
X166676053Y-112977691D01*
X166675000Y-112956250D01*
X166675000Y-112443750D01*
X166676053Y-112422309D01*
X166679203Y-112401074D01*
X166684419Y-112380250D01*
X166691651Y-112360038D01*
X166700830Y-112340632D01*
X166711866Y-112322219D01*
X166724654Y-112304976D01*
X166739070Y-112289070D01*
X166754976Y-112274654D01*
X166772219Y-112261866D01*
X166790632Y-112250830D01*
X166810038Y-112241651D01*
X166830250Y-112234419D01*
X166851074Y-112229203D01*
X166872309Y-112226053D01*
X166893750Y-112225000D01*
X167331250Y-112225000D01*
X167352691Y-112226053D01*
X167352691Y-112226053D01*
G37*
D12*
X167112500Y-112700000D03*
D11*
G36*
X168927691Y-112226053D02*
G01*
X168948926Y-112229203D01*
X168969750Y-112234419D01*
X168989962Y-112241651D01*
X169009368Y-112250830D01*
X169027781Y-112261866D01*
X169045024Y-112274654D01*
X169060930Y-112289070D01*
X169075346Y-112304976D01*
X169088134Y-112322219D01*
X169099170Y-112340632D01*
X169108349Y-112360038D01*
X169115581Y-112380250D01*
X169120797Y-112401074D01*
X169123947Y-112422309D01*
X169125000Y-112443750D01*
X169125000Y-112956250D01*
X169123947Y-112977691D01*
X169120797Y-112998926D01*
X169115581Y-113019750D01*
X169108349Y-113039962D01*
X169099170Y-113059368D01*
X169088134Y-113077781D01*
X169075346Y-113095024D01*
X169060930Y-113110930D01*
X169045024Y-113125346D01*
X169027781Y-113138134D01*
X169009368Y-113149170D01*
X168989962Y-113158349D01*
X168969750Y-113165581D01*
X168948926Y-113170797D01*
X168927691Y-113173947D01*
X168906250Y-113175000D01*
X168468750Y-113175000D01*
X168447309Y-113173947D01*
X168426074Y-113170797D01*
X168405250Y-113165581D01*
X168385038Y-113158349D01*
X168365632Y-113149170D01*
X168347219Y-113138134D01*
X168329976Y-113125346D01*
X168314070Y-113110930D01*
X168299654Y-113095024D01*
X168286866Y-113077781D01*
X168275830Y-113059368D01*
X168266651Y-113039962D01*
X168259419Y-113019750D01*
X168254203Y-112998926D01*
X168251053Y-112977691D01*
X168250000Y-112956250D01*
X168250000Y-112443750D01*
X168251053Y-112422309D01*
X168254203Y-112401074D01*
X168259419Y-112380250D01*
X168266651Y-112360038D01*
X168275830Y-112340632D01*
X168286866Y-112322219D01*
X168299654Y-112304976D01*
X168314070Y-112289070D01*
X168329976Y-112274654D01*
X168347219Y-112261866D01*
X168365632Y-112250830D01*
X168385038Y-112241651D01*
X168405250Y-112234419D01*
X168426074Y-112229203D01*
X168447309Y-112226053D01*
X168468750Y-112225000D01*
X168906250Y-112225000D01*
X168927691Y-112226053D01*
X168927691Y-112226053D01*
G37*
D12*
X168687500Y-112700000D03*
D11*
G36*
X171477691Y-90776053D02*
G01*
X171498926Y-90779203D01*
X171519750Y-90784419D01*
X171539962Y-90791651D01*
X171559368Y-90800830D01*
X171577781Y-90811866D01*
X171595024Y-90824654D01*
X171610930Y-90839070D01*
X171625346Y-90854976D01*
X171638134Y-90872219D01*
X171649170Y-90890632D01*
X171658349Y-90910038D01*
X171665581Y-90930250D01*
X171670797Y-90951074D01*
X171673947Y-90972309D01*
X171675000Y-90993750D01*
X171675000Y-91431250D01*
X171673947Y-91452691D01*
X171670797Y-91473926D01*
X171665581Y-91494750D01*
X171658349Y-91514962D01*
X171649170Y-91534368D01*
X171638134Y-91552781D01*
X171625346Y-91570024D01*
X171610930Y-91585930D01*
X171595024Y-91600346D01*
X171577781Y-91613134D01*
X171559368Y-91624170D01*
X171539962Y-91633349D01*
X171519750Y-91640581D01*
X171498926Y-91645797D01*
X171477691Y-91648947D01*
X171456250Y-91650000D01*
X170943750Y-91650000D01*
X170922309Y-91648947D01*
X170901074Y-91645797D01*
X170880250Y-91640581D01*
X170860038Y-91633349D01*
X170840632Y-91624170D01*
X170822219Y-91613134D01*
X170804976Y-91600346D01*
X170789070Y-91585930D01*
X170774654Y-91570024D01*
X170761866Y-91552781D01*
X170750830Y-91534368D01*
X170741651Y-91514962D01*
X170734419Y-91494750D01*
X170729203Y-91473926D01*
X170726053Y-91452691D01*
X170725000Y-91431250D01*
X170725000Y-90993750D01*
X170726053Y-90972309D01*
X170729203Y-90951074D01*
X170734419Y-90930250D01*
X170741651Y-90910038D01*
X170750830Y-90890632D01*
X170761866Y-90872219D01*
X170774654Y-90854976D01*
X170789070Y-90839070D01*
X170804976Y-90824654D01*
X170822219Y-90811866D01*
X170840632Y-90800830D01*
X170860038Y-90791651D01*
X170880250Y-90784419D01*
X170901074Y-90779203D01*
X170922309Y-90776053D01*
X170943750Y-90775000D01*
X171456250Y-90775000D01*
X171477691Y-90776053D01*
X171477691Y-90776053D01*
G37*
D12*
X171200000Y-91212500D03*
D11*
G36*
X171477691Y-92351053D02*
G01*
X171498926Y-92354203D01*
X171519750Y-92359419D01*
X171539962Y-92366651D01*
X171559368Y-92375830D01*
X171577781Y-92386866D01*
X171595024Y-92399654D01*
X171610930Y-92414070D01*
X171625346Y-92429976D01*
X171638134Y-92447219D01*
X171649170Y-92465632D01*
X171658349Y-92485038D01*
X171665581Y-92505250D01*
X171670797Y-92526074D01*
X171673947Y-92547309D01*
X171675000Y-92568750D01*
X171675000Y-93006250D01*
X171673947Y-93027691D01*
X171670797Y-93048926D01*
X171665581Y-93069750D01*
X171658349Y-93089962D01*
X171649170Y-93109368D01*
X171638134Y-93127781D01*
X171625346Y-93145024D01*
X171610930Y-93160930D01*
X171595024Y-93175346D01*
X171577781Y-93188134D01*
X171559368Y-93199170D01*
X171539962Y-93208349D01*
X171519750Y-93215581D01*
X171498926Y-93220797D01*
X171477691Y-93223947D01*
X171456250Y-93225000D01*
X170943750Y-93225000D01*
X170922309Y-93223947D01*
X170901074Y-93220797D01*
X170880250Y-93215581D01*
X170860038Y-93208349D01*
X170840632Y-93199170D01*
X170822219Y-93188134D01*
X170804976Y-93175346D01*
X170789070Y-93160930D01*
X170774654Y-93145024D01*
X170761866Y-93127781D01*
X170750830Y-93109368D01*
X170741651Y-93089962D01*
X170734419Y-93069750D01*
X170729203Y-93048926D01*
X170726053Y-93027691D01*
X170725000Y-93006250D01*
X170725000Y-92568750D01*
X170726053Y-92547309D01*
X170729203Y-92526074D01*
X170734419Y-92505250D01*
X170741651Y-92485038D01*
X170750830Y-92465632D01*
X170761866Y-92447219D01*
X170774654Y-92429976D01*
X170789070Y-92414070D01*
X170804976Y-92399654D01*
X170822219Y-92386866D01*
X170840632Y-92375830D01*
X170860038Y-92366651D01*
X170880250Y-92359419D01*
X170901074Y-92354203D01*
X170922309Y-92351053D01*
X170943750Y-92350000D01*
X171456250Y-92350000D01*
X171477691Y-92351053D01*
X171477691Y-92351053D01*
G37*
D12*
X171200000Y-92787500D03*
D11*
G36*
X167677691Y-89551053D02*
G01*
X167698926Y-89554203D01*
X167719750Y-89559419D01*
X167739962Y-89566651D01*
X167759368Y-89575830D01*
X167777781Y-89586866D01*
X167795024Y-89599654D01*
X167810930Y-89614070D01*
X167825346Y-89629976D01*
X167838134Y-89647219D01*
X167849170Y-89665632D01*
X167858349Y-89685038D01*
X167865581Y-89705250D01*
X167870797Y-89726074D01*
X167873947Y-89747309D01*
X167875000Y-89768750D01*
X167875000Y-90206250D01*
X167873947Y-90227691D01*
X167870797Y-90248926D01*
X167865581Y-90269750D01*
X167858349Y-90289962D01*
X167849170Y-90309368D01*
X167838134Y-90327781D01*
X167825346Y-90345024D01*
X167810930Y-90360930D01*
X167795024Y-90375346D01*
X167777781Y-90388134D01*
X167759368Y-90399170D01*
X167739962Y-90408349D01*
X167719750Y-90415581D01*
X167698926Y-90420797D01*
X167677691Y-90423947D01*
X167656250Y-90425000D01*
X167143750Y-90425000D01*
X167122309Y-90423947D01*
X167101074Y-90420797D01*
X167080250Y-90415581D01*
X167060038Y-90408349D01*
X167040632Y-90399170D01*
X167022219Y-90388134D01*
X167004976Y-90375346D01*
X166989070Y-90360930D01*
X166974654Y-90345024D01*
X166961866Y-90327781D01*
X166950830Y-90309368D01*
X166941651Y-90289962D01*
X166934419Y-90269750D01*
X166929203Y-90248926D01*
X166926053Y-90227691D01*
X166925000Y-90206250D01*
X166925000Y-89768750D01*
X166926053Y-89747309D01*
X166929203Y-89726074D01*
X166934419Y-89705250D01*
X166941651Y-89685038D01*
X166950830Y-89665632D01*
X166961866Y-89647219D01*
X166974654Y-89629976D01*
X166989070Y-89614070D01*
X167004976Y-89599654D01*
X167022219Y-89586866D01*
X167040632Y-89575830D01*
X167060038Y-89566651D01*
X167080250Y-89559419D01*
X167101074Y-89554203D01*
X167122309Y-89551053D01*
X167143750Y-89550000D01*
X167656250Y-89550000D01*
X167677691Y-89551053D01*
X167677691Y-89551053D01*
G37*
D12*
X167400000Y-89987500D03*
D11*
G36*
X167677691Y-87976053D02*
G01*
X167698926Y-87979203D01*
X167719750Y-87984419D01*
X167739962Y-87991651D01*
X167759368Y-88000830D01*
X167777781Y-88011866D01*
X167795024Y-88024654D01*
X167810930Y-88039070D01*
X167825346Y-88054976D01*
X167838134Y-88072219D01*
X167849170Y-88090632D01*
X167858349Y-88110038D01*
X167865581Y-88130250D01*
X167870797Y-88151074D01*
X167873947Y-88172309D01*
X167875000Y-88193750D01*
X167875000Y-88631250D01*
X167873947Y-88652691D01*
X167870797Y-88673926D01*
X167865581Y-88694750D01*
X167858349Y-88714962D01*
X167849170Y-88734368D01*
X167838134Y-88752781D01*
X167825346Y-88770024D01*
X167810930Y-88785930D01*
X167795024Y-88800346D01*
X167777781Y-88813134D01*
X167759368Y-88824170D01*
X167739962Y-88833349D01*
X167719750Y-88840581D01*
X167698926Y-88845797D01*
X167677691Y-88848947D01*
X167656250Y-88850000D01*
X167143750Y-88850000D01*
X167122309Y-88848947D01*
X167101074Y-88845797D01*
X167080250Y-88840581D01*
X167060038Y-88833349D01*
X167040632Y-88824170D01*
X167022219Y-88813134D01*
X167004976Y-88800346D01*
X166989070Y-88785930D01*
X166974654Y-88770024D01*
X166961866Y-88752781D01*
X166950830Y-88734368D01*
X166941651Y-88714962D01*
X166934419Y-88694750D01*
X166929203Y-88673926D01*
X166926053Y-88652691D01*
X166925000Y-88631250D01*
X166925000Y-88193750D01*
X166926053Y-88172309D01*
X166929203Y-88151074D01*
X166934419Y-88130250D01*
X166941651Y-88110038D01*
X166950830Y-88090632D01*
X166961866Y-88072219D01*
X166974654Y-88054976D01*
X166989070Y-88039070D01*
X167004976Y-88024654D01*
X167022219Y-88011866D01*
X167040632Y-88000830D01*
X167060038Y-87991651D01*
X167080250Y-87984419D01*
X167101074Y-87979203D01*
X167122309Y-87976053D01*
X167143750Y-87975000D01*
X167656250Y-87975000D01*
X167677691Y-87976053D01*
X167677691Y-87976053D01*
G37*
D12*
X167400000Y-88412500D03*
D11*
G36*
X168377691Y-84776053D02*
G01*
X168398926Y-84779203D01*
X168419750Y-84784419D01*
X168439962Y-84791651D01*
X168459368Y-84800830D01*
X168477781Y-84811866D01*
X168495024Y-84824654D01*
X168510930Y-84839070D01*
X168525346Y-84854976D01*
X168538134Y-84872219D01*
X168549170Y-84890632D01*
X168558349Y-84910038D01*
X168565581Y-84930250D01*
X168570797Y-84951074D01*
X168573947Y-84972309D01*
X168575000Y-84993750D01*
X168575000Y-85431250D01*
X168573947Y-85452691D01*
X168570797Y-85473926D01*
X168565581Y-85494750D01*
X168558349Y-85514962D01*
X168549170Y-85534368D01*
X168538134Y-85552781D01*
X168525346Y-85570024D01*
X168510930Y-85585930D01*
X168495024Y-85600346D01*
X168477781Y-85613134D01*
X168459368Y-85624170D01*
X168439962Y-85633349D01*
X168419750Y-85640581D01*
X168398926Y-85645797D01*
X168377691Y-85648947D01*
X168356250Y-85650000D01*
X167843750Y-85650000D01*
X167822309Y-85648947D01*
X167801074Y-85645797D01*
X167780250Y-85640581D01*
X167760038Y-85633349D01*
X167740632Y-85624170D01*
X167722219Y-85613134D01*
X167704976Y-85600346D01*
X167689070Y-85585930D01*
X167674654Y-85570024D01*
X167661866Y-85552781D01*
X167650830Y-85534368D01*
X167641651Y-85514962D01*
X167634419Y-85494750D01*
X167629203Y-85473926D01*
X167626053Y-85452691D01*
X167625000Y-85431250D01*
X167625000Y-84993750D01*
X167626053Y-84972309D01*
X167629203Y-84951074D01*
X167634419Y-84930250D01*
X167641651Y-84910038D01*
X167650830Y-84890632D01*
X167661866Y-84872219D01*
X167674654Y-84854976D01*
X167689070Y-84839070D01*
X167704976Y-84824654D01*
X167722219Y-84811866D01*
X167740632Y-84800830D01*
X167760038Y-84791651D01*
X167780250Y-84784419D01*
X167801074Y-84779203D01*
X167822309Y-84776053D01*
X167843750Y-84775000D01*
X168356250Y-84775000D01*
X168377691Y-84776053D01*
X168377691Y-84776053D01*
G37*
D12*
X168100000Y-85212500D03*
D11*
G36*
X168377691Y-86351053D02*
G01*
X168398926Y-86354203D01*
X168419750Y-86359419D01*
X168439962Y-86366651D01*
X168459368Y-86375830D01*
X168477781Y-86386866D01*
X168495024Y-86399654D01*
X168510930Y-86414070D01*
X168525346Y-86429976D01*
X168538134Y-86447219D01*
X168549170Y-86465632D01*
X168558349Y-86485038D01*
X168565581Y-86505250D01*
X168570797Y-86526074D01*
X168573947Y-86547309D01*
X168575000Y-86568750D01*
X168575000Y-87006250D01*
X168573947Y-87027691D01*
X168570797Y-87048926D01*
X168565581Y-87069750D01*
X168558349Y-87089962D01*
X168549170Y-87109368D01*
X168538134Y-87127781D01*
X168525346Y-87145024D01*
X168510930Y-87160930D01*
X168495024Y-87175346D01*
X168477781Y-87188134D01*
X168459368Y-87199170D01*
X168439962Y-87208349D01*
X168419750Y-87215581D01*
X168398926Y-87220797D01*
X168377691Y-87223947D01*
X168356250Y-87225000D01*
X167843750Y-87225000D01*
X167822309Y-87223947D01*
X167801074Y-87220797D01*
X167780250Y-87215581D01*
X167760038Y-87208349D01*
X167740632Y-87199170D01*
X167722219Y-87188134D01*
X167704976Y-87175346D01*
X167689070Y-87160930D01*
X167674654Y-87145024D01*
X167661866Y-87127781D01*
X167650830Y-87109368D01*
X167641651Y-87089962D01*
X167634419Y-87069750D01*
X167629203Y-87048926D01*
X167626053Y-87027691D01*
X167625000Y-87006250D01*
X167625000Y-86568750D01*
X167626053Y-86547309D01*
X167629203Y-86526074D01*
X167634419Y-86505250D01*
X167641651Y-86485038D01*
X167650830Y-86465632D01*
X167661866Y-86447219D01*
X167674654Y-86429976D01*
X167689070Y-86414070D01*
X167704976Y-86399654D01*
X167722219Y-86386866D01*
X167740632Y-86375830D01*
X167760038Y-86366651D01*
X167780250Y-86359419D01*
X167801074Y-86354203D01*
X167822309Y-86351053D01*
X167843750Y-86350000D01*
X168356250Y-86350000D01*
X168377691Y-86351053D01*
X168377691Y-86351053D01*
G37*
D12*
X168100000Y-86787500D03*
D11*
G36*
X166777691Y-83276053D02*
G01*
X166798926Y-83279203D01*
X166819750Y-83284419D01*
X166839962Y-83291651D01*
X166859368Y-83300830D01*
X166877781Y-83311866D01*
X166895024Y-83324654D01*
X166910930Y-83339070D01*
X166925346Y-83354976D01*
X166938134Y-83372219D01*
X166949170Y-83390632D01*
X166958349Y-83410038D01*
X166965581Y-83430250D01*
X166970797Y-83451074D01*
X166973947Y-83472309D01*
X166975000Y-83493750D01*
X166975000Y-83931250D01*
X166973947Y-83952691D01*
X166970797Y-83973926D01*
X166965581Y-83994750D01*
X166958349Y-84014962D01*
X166949170Y-84034368D01*
X166938134Y-84052781D01*
X166925346Y-84070024D01*
X166910930Y-84085930D01*
X166895024Y-84100346D01*
X166877781Y-84113134D01*
X166859368Y-84124170D01*
X166839962Y-84133349D01*
X166819750Y-84140581D01*
X166798926Y-84145797D01*
X166777691Y-84148947D01*
X166756250Y-84150000D01*
X166243750Y-84150000D01*
X166222309Y-84148947D01*
X166201074Y-84145797D01*
X166180250Y-84140581D01*
X166160038Y-84133349D01*
X166140632Y-84124170D01*
X166122219Y-84113134D01*
X166104976Y-84100346D01*
X166089070Y-84085930D01*
X166074654Y-84070024D01*
X166061866Y-84052781D01*
X166050830Y-84034368D01*
X166041651Y-84014962D01*
X166034419Y-83994750D01*
X166029203Y-83973926D01*
X166026053Y-83952691D01*
X166025000Y-83931250D01*
X166025000Y-83493750D01*
X166026053Y-83472309D01*
X166029203Y-83451074D01*
X166034419Y-83430250D01*
X166041651Y-83410038D01*
X166050830Y-83390632D01*
X166061866Y-83372219D01*
X166074654Y-83354976D01*
X166089070Y-83339070D01*
X166104976Y-83324654D01*
X166122219Y-83311866D01*
X166140632Y-83300830D01*
X166160038Y-83291651D01*
X166180250Y-83284419D01*
X166201074Y-83279203D01*
X166222309Y-83276053D01*
X166243750Y-83275000D01*
X166756250Y-83275000D01*
X166777691Y-83276053D01*
X166777691Y-83276053D01*
G37*
D12*
X166500000Y-83712500D03*
D11*
G36*
X166777691Y-84851053D02*
G01*
X166798926Y-84854203D01*
X166819750Y-84859419D01*
X166839962Y-84866651D01*
X166859368Y-84875830D01*
X166877781Y-84886866D01*
X166895024Y-84899654D01*
X166910930Y-84914070D01*
X166925346Y-84929976D01*
X166938134Y-84947219D01*
X166949170Y-84965632D01*
X166958349Y-84985038D01*
X166965581Y-85005250D01*
X166970797Y-85026074D01*
X166973947Y-85047309D01*
X166975000Y-85068750D01*
X166975000Y-85506250D01*
X166973947Y-85527691D01*
X166970797Y-85548926D01*
X166965581Y-85569750D01*
X166958349Y-85589962D01*
X166949170Y-85609368D01*
X166938134Y-85627781D01*
X166925346Y-85645024D01*
X166910930Y-85660930D01*
X166895024Y-85675346D01*
X166877781Y-85688134D01*
X166859368Y-85699170D01*
X166839962Y-85708349D01*
X166819750Y-85715581D01*
X166798926Y-85720797D01*
X166777691Y-85723947D01*
X166756250Y-85725000D01*
X166243750Y-85725000D01*
X166222309Y-85723947D01*
X166201074Y-85720797D01*
X166180250Y-85715581D01*
X166160038Y-85708349D01*
X166140632Y-85699170D01*
X166122219Y-85688134D01*
X166104976Y-85675346D01*
X166089070Y-85660930D01*
X166074654Y-85645024D01*
X166061866Y-85627781D01*
X166050830Y-85609368D01*
X166041651Y-85589962D01*
X166034419Y-85569750D01*
X166029203Y-85548926D01*
X166026053Y-85527691D01*
X166025000Y-85506250D01*
X166025000Y-85068750D01*
X166026053Y-85047309D01*
X166029203Y-85026074D01*
X166034419Y-85005250D01*
X166041651Y-84985038D01*
X166050830Y-84965632D01*
X166061866Y-84947219D01*
X166074654Y-84929976D01*
X166089070Y-84914070D01*
X166104976Y-84899654D01*
X166122219Y-84886866D01*
X166140632Y-84875830D01*
X166160038Y-84866651D01*
X166180250Y-84859419D01*
X166201074Y-84854203D01*
X166222309Y-84851053D01*
X166243750Y-84850000D01*
X166756250Y-84850000D01*
X166777691Y-84851053D01*
X166777691Y-84851053D01*
G37*
D12*
X166500000Y-85287500D03*
D11*
G36*
X165177691Y-82676053D02*
G01*
X165198926Y-82679203D01*
X165219750Y-82684419D01*
X165239962Y-82691651D01*
X165259368Y-82700830D01*
X165277781Y-82711866D01*
X165295024Y-82724654D01*
X165310930Y-82739070D01*
X165325346Y-82754976D01*
X165338134Y-82772219D01*
X165349170Y-82790632D01*
X165358349Y-82810038D01*
X165365581Y-82830250D01*
X165370797Y-82851074D01*
X165373947Y-82872309D01*
X165375000Y-82893750D01*
X165375000Y-83331250D01*
X165373947Y-83352691D01*
X165370797Y-83373926D01*
X165365581Y-83394750D01*
X165358349Y-83414962D01*
X165349170Y-83434368D01*
X165338134Y-83452781D01*
X165325346Y-83470024D01*
X165310930Y-83485930D01*
X165295024Y-83500346D01*
X165277781Y-83513134D01*
X165259368Y-83524170D01*
X165239962Y-83533349D01*
X165219750Y-83540581D01*
X165198926Y-83545797D01*
X165177691Y-83548947D01*
X165156250Y-83550000D01*
X164643750Y-83550000D01*
X164622309Y-83548947D01*
X164601074Y-83545797D01*
X164580250Y-83540581D01*
X164560038Y-83533349D01*
X164540632Y-83524170D01*
X164522219Y-83513134D01*
X164504976Y-83500346D01*
X164489070Y-83485930D01*
X164474654Y-83470024D01*
X164461866Y-83452781D01*
X164450830Y-83434368D01*
X164441651Y-83414962D01*
X164434419Y-83394750D01*
X164429203Y-83373926D01*
X164426053Y-83352691D01*
X164425000Y-83331250D01*
X164425000Y-82893750D01*
X164426053Y-82872309D01*
X164429203Y-82851074D01*
X164434419Y-82830250D01*
X164441651Y-82810038D01*
X164450830Y-82790632D01*
X164461866Y-82772219D01*
X164474654Y-82754976D01*
X164489070Y-82739070D01*
X164504976Y-82724654D01*
X164522219Y-82711866D01*
X164540632Y-82700830D01*
X164560038Y-82691651D01*
X164580250Y-82684419D01*
X164601074Y-82679203D01*
X164622309Y-82676053D01*
X164643750Y-82675000D01*
X165156250Y-82675000D01*
X165177691Y-82676053D01*
X165177691Y-82676053D01*
G37*
D12*
X164900000Y-83112500D03*
D11*
G36*
X165177691Y-84251053D02*
G01*
X165198926Y-84254203D01*
X165219750Y-84259419D01*
X165239962Y-84266651D01*
X165259368Y-84275830D01*
X165277781Y-84286866D01*
X165295024Y-84299654D01*
X165310930Y-84314070D01*
X165325346Y-84329976D01*
X165338134Y-84347219D01*
X165349170Y-84365632D01*
X165358349Y-84385038D01*
X165365581Y-84405250D01*
X165370797Y-84426074D01*
X165373947Y-84447309D01*
X165375000Y-84468750D01*
X165375000Y-84906250D01*
X165373947Y-84927691D01*
X165370797Y-84948926D01*
X165365581Y-84969750D01*
X165358349Y-84989962D01*
X165349170Y-85009368D01*
X165338134Y-85027781D01*
X165325346Y-85045024D01*
X165310930Y-85060930D01*
X165295024Y-85075346D01*
X165277781Y-85088134D01*
X165259368Y-85099170D01*
X165239962Y-85108349D01*
X165219750Y-85115581D01*
X165198926Y-85120797D01*
X165177691Y-85123947D01*
X165156250Y-85125000D01*
X164643750Y-85125000D01*
X164622309Y-85123947D01*
X164601074Y-85120797D01*
X164580250Y-85115581D01*
X164560038Y-85108349D01*
X164540632Y-85099170D01*
X164522219Y-85088134D01*
X164504976Y-85075346D01*
X164489070Y-85060930D01*
X164474654Y-85045024D01*
X164461866Y-85027781D01*
X164450830Y-85009368D01*
X164441651Y-84989962D01*
X164434419Y-84969750D01*
X164429203Y-84948926D01*
X164426053Y-84927691D01*
X164425000Y-84906250D01*
X164425000Y-84468750D01*
X164426053Y-84447309D01*
X164429203Y-84426074D01*
X164434419Y-84405250D01*
X164441651Y-84385038D01*
X164450830Y-84365632D01*
X164461866Y-84347219D01*
X164474654Y-84329976D01*
X164489070Y-84314070D01*
X164504976Y-84299654D01*
X164522219Y-84286866D01*
X164540632Y-84275830D01*
X164560038Y-84266651D01*
X164580250Y-84259419D01*
X164601074Y-84254203D01*
X164622309Y-84251053D01*
X164643750Y-84250000D01*
X165156250Y-84250000D01*
X165177691Y-84251053D01*
X165177691Y-84251053D01*
G37*
D12*
X164900000Y-84687500D03*
D11*
G36*
X163577691Y-82676053D02*
G01*
X163598926Y-82679203D01*
X163619750Y-82684419D01*
X163639962Y-82691651D01*
X163659368Y-82700830D01*
X163677781Y-82711866D01*
X163695024Y-82724654D01*
X163710930Y-82739070D01*
X163725346Y-82754976D01*
X163738134Y-82772219D01*
X163749170Y-82790632D01*
X163758349Y-82810038D01*
X163765581Y-82830250D01*
X163770797Y-82851074D01*
X163773947Y-82872309D01*
X163775000Y-82893750D01*
X163775000Y-83331250D01*
X163773947Y-83352691D01*
X163770797Y-83373926D01*
X163765581Y-83394750D01*
X163758349Y-83414962D01*
X163749170Y-83434368D01*
X163738134Y-83452781D01*
X163725346Y-83470024D01*
X163710930Y-83485930D01*
X163695024Y-83500346D01*
X163677781Y-83513134D01*
X163659368Y-83524170D01*
X163639962Y-83533349D01*
X163619750Y-83540581D01*
X163598926Y-83545797D01*
X163577691Y-83548947D01*
X163556250Y-83550000D01*
X163043750Y-83550000D01*
X163022309Y-83548947D01*
X163001074Y-83545797D01*
X162980250Y-83540581D01*
X162960038Y-83533349D01*
X162940632Y-83524170D01*
X162922219Y-83513134D01*
X162904976Y-83500346D01*
X162889070Y-83485930D01*
X162874654Y-83470024D01*
X162861866Y-83452781D01*
X162850830Y-83434368D01*
X162841651Y-83414962D01*
X162834419Y-83394750D01*
X162829203Y-83373926D01*
X162826053Y-83352691D01*
X162825000Y-83331250D01*
X162825000Y-82893750D01*
X162826053Y-82872309D01*
X162829203Y-82851074D01*
X162834419Y-82830250D01*
X162841651Y-82810038D01*
X162850830Y-82790632D01*
X162861866Y-82772219D01*
X162874654Y-82754976D01*
X162889070Y-82739070D01*
X162904976Y-82724654D01*
X162922219Y-82711866D01*
X162940632Y-82700830D01*
X162960038Y-82691651D01*
X162980250Y-82684419D01*
X163001074Y-82679203D01*
X163022309Y-82676053D01*
X163043750Y-82675000D01*
X163556250Y-82675000D01*
X163577691Y-82676053D01*
X163577691Y-82676053D01*
G37*
D12*
X163300000Y-83112500D03*
D11*
G36*
X163577691Y-84251053D02*
G01*
X163598926Y-84254203D01*
X163619750Y-84259419D01*
X163639962Y-84266651D01*
X163659368Y-84275830D01*
X163677781Y-84286866D01*
X163695024Y-84299654D01*
X163710930Y-84314070D01*
X163725346Y-84329976D01*
X163738134Y-84347219D01*
X163749170Y-84365632D01*
X163758349Y-84385038D01*
X163765581Y-84405250D01*
X163770797Y-84426074D01*
X163773947Y-84447309D01*
X163775000Y-84468750D01*
X163775000Y-84906250D01*
X163773947Y-84927691D01*
X163770797Y-84948926D01*
X163765581Y-84969750D01*
X163758349Y-84989962D01*
X163749170Y-85009368D01*
X163738134Y-85027781D01*
X163725346Y-85045024D01*
X163710930Y-85060930D01*
X163695024Y-85075346D01*
X163677781Y-85088134D01*
X163659368Y-85099170D01*
X163639962Y-85108349D01*
X163619750Y-85115581D01*
X163598926Y-85120797D01*
X163577691Y-85123947D01*
X163556250Y-85125000D01*
X163043750Y-85125000D01*
X163022309Y-85123947D01*
X163001074Y-85120797D01*
X162980250Y-85115581D01*
X162960038Y-85108349D01*
X162940632Y-85099170D01*
X162922219Y-85088134D01*
X162904976Y-85075346D01*
X162889070Y-85060930D01*
X162874654Y-85045024D01*
X162861866Y-85027781D01*
X162850830Y-85009368D01*
X162841651Y-84989962D01*
X162834419Y-84969750D01*
X162829203Y-84948926D01*
X162826053Y-84927691D01*
X162825000Y-84906250D01*
X162825000Y-84468750D01*
X162826053Y-84447309D01*
X162829203Y-84426074D01*
X162834419Y-84405250D01*
X162841651Y-84385038D01*
X162850830Y-84365632D01*
X162861866Y-84347219D01*
X162874654Y-84329976D01*
X162889070Y-84314070D01*
X162904976Y-84299654D01*
X162922219Y-84286866D01*
X162940632Y-84275830D01*
X162960038Y-84266651D01*
X162980250Y-84259419D01*
X163001074Y-84254203D01*
X163022309Y-84251053D01*
X163043750Y-84250000D01*
X163556250Y-84250000D01*
X163577691Y-84251053D01*
X163577691Y-84251053D01*
G37*
D12*
X163300000Y-84687500D03*
D11*
G36*
X161977691Y-83176053D02*
G01*
X161998926Y-83179203D01*
X162019750Y-83184419D01*
X162039962Y-83191651D01*
X162059368Y-83200830D01*
X162077781Y-83211866D01*
X162095024Y-83224654D01*
X162110930Y-83239070D01*
X162125346Y-83254976D01*
X162138134Y-83272219D01*
X162149170Y-83290632D01*
X162158349Y-83310038D01*
X162165581Y-83330250D01*
X162170797Y-83351074D01*
X162173947Y-83372309D01*
X162175000Y-83393750D01*
X162175000Y-83831250D01*
X162173947Y-83852691D01*
X162170797Y-83873926D01*
X162165581Y-83894750D01*
X162158349Y-83914962D01*
X162149170Y-83934368D01*
X162138134Y-83952781D01*
X162125346Y-83970024D01*
X162110930Y-83985930D01*
X162095024Y-84000346D01*
X162077781Y-84013134D01*
X162059368Y-84024170D01*
X162039962Y-84033349D01*
X162019750Y-84040581D01*
X161998926Y-84045797D01*
X161977691Y-84048947D01*
X161956250Y-84050000D01*
X161443750Y-84050000D01*
X161422309Y-84048947D01*
X161401074Y-84045797D01*
X161380250Y-84040581D01*
X161360038Y-84033349D01*
X161340632Y-84024170D01*
X161322219Y-84013134D01*
X161304976Y-84000346D01*
X161289070Y-83985930D01*
X161274654Y-83970024D01*
X161261866Y-83952781D01*
X161250830Y-83934368D01*
X161241651Y-83914962D01*
X161234419Y-83894750D01*
X161229203Y-83873926D01*
X161226053Y-83852691D01*
X161225000Y-83831250D01*
X161225000Y-83393750D01*
X161226053Y-83372309D01*
X161229203Y-83351074D01*
X161234419Y-83330250D01*
X161241651Y-83310038D01*
X161250830Y-83290632D01*
X161261866Y-83272219D01*
X161274654Y-83254976D01*
X161289070Y-83239070D01*
X161304976Y-83224654D01*
X161322219Y-83211866D01*
X161340632Y-83200830D01*
X161360038Y-83191651D01*
X161380250Y-83184419D01*
X161401074Y-83179203D01*
X161422309Y-83176053D01*
X161443750Y-83175000D01*
X161956250Y-83175000D01*
X161977691Y-83176053D01*
X161977691Y-83176053D01*
G37*
D12*
X161700000Y-83612500D03*
D11*
G36*
X161977691Y-84751053D02*
G01*
X161998926Y-84754203D01*
X162019750Y-84759419D01*
X162039962Y-84766651D01*
X162059368Y-84775830D01*
X162077781Y-84786866D01*
X162095024Y-84799654D01*
X162110930Y-84814070D01*
X162125346Y-84829976D01*
X162138134Y-84847219D01*
X162149170Y-84865632D01*
X162158349Y-84885038D01*
X162165581Y-84905250D01*
X162170797Y-84926074D01*
X162173947Y-84947309D01*
X162175000Y-84968750D01*
X162175000Y-85406250D01*
X162173947Y-85427691D01*
X162170797Y-85448926D01*
X162165581Y-85469750D01*
X162158349Y-85489962D01*
X162149170Y-85509368D01*
X162138134Y-85527781D01*
X162125346Y-85545024D01*
X162110930Y-85560930D01*
X162095024Y-85575346D01*
X162077781Y-85588134D01*
X162059368Y-85599170D01*
X162039962Y-85608349D01*
X162019750Y-85615581D01*
X161998926Y-85620797D01*
X161977691Y-85623947D01*
X161956250Y-85625000D01*
X161443750Y-85625000D01*
X161422309Y-85623947D01*
X161401074Y-85620797D01*
X161380250Y-85615581D01*
X161360038Y-85608349D01*
X161340632Y-85599170D01*
X161322219Y-85588134D01*
X161304976Y-85575346D01*
X161289070Y-85560930D01*
X161274654Y-85545024D01*
X161261866Y-85527781D01*
X161250830Y-85509368D01*
X161241651Y-85489962D01*
X161234419Y-85469750D01*
X161229203Y-85448926D01*
X161226053Y-85427691D01*
X161225000Y-85406250D01*
X161225000Y-84968750D01*
X161226053Y-84947309D01*
X161229203Y-84926074D01*
X161234419Y-84905250D01*
X161241651Y-84885038D01*
X161250830Y-84865632D01*
X161261866Y-84847219D01*
X161274654Y-84829976D01*
X161289070Y-84814070D01*
X161304976Y-84799654D01*
X161322219Y-84786866D01*
X161340632Y-84775830D01*
X161360038Y-84766651D01*
X161380250Y-84759419D01*
X161401074Y-84754203D01*
X161422309Y-84751053D01*
X161443750Y-84750000D01*
X161956250Y-84750000D01*
X161977691Y-84751053D01*
X161977691Y-84751053D01*
G37*
D12*
X161700000Y-85187500D03*
D11*
G36*
X160377691Y-84676053D02*
G01*
X160398926Y-84679203D01*
X160419750Y-84684419D01*
X160439962Y-84691651D01*
X160459368Y-84700830D01*
X160477781Y-84711866D01*
X160495024Y-84724654D01*
X160510930Y-84739070D01*
X160525346Y-84754976D01*
X160538134Y-84772219D01*
X160549170Y-84790632D01*
X160558349Y-84810038D01*
X160565581Y-84830250D01*
X160570797Y-84851074D01*
X160573947Y-84872309D01*
X160575000Y-84893750D01*
X160575000Y-85331250D01*
X160573947Y-85352691D01*
X160570797Y-85373926D01*
X160565581Y-85394750D01*
X160558349Y-85414962D01*
X160549170Y-85434368D01*
X160538134Y-85452781D01*
X160525346Y-85470024D01*
X160510930Y-85485930D01*
X160495024Y-85500346D01*
X160477781Y-85513134D01*
X160459368Y-85524170D01*
X160439962Y-85533349D01*
X160419750Y-85540581D01*
X160398926Y-85545797D01*
X160377691Y-85548947D01*
X160356250Y-85550000D01*
X159843750Y-85550000D01*
X159822309Y-85548947D01*
X159801074Y-85545797D01*
X159780250Y-85540581D01*
X159760038Y-85533349D01*
X159740632Y-85524170D01*
X159722219Y-85513134D01*
X159704976Y-85500346D01*
X159689070Y-85485930D01*
X159674654Y-85470024D01*
X159661866Y-85452781D01*
X159650830Y-85434368D01*
X159641651Y-85414962D01*
X159634419Y-85394750D01*
X159629203Y-85373926D01*
X159626053Y-85352691D01*
X159625000Y-85331250D01*
X159625000Y-84893750D01*
X159626053Y-84872309D01*
X159629203Y-84851074D01*
X159634419Y-84830250D01*
X159641651Y-84810038D01*
X159650830Y-84790632D01*
X159661866Y-84772219D01*
X159674654Y-84754976D01*
X159689070Y-84739070D01*
X159704976Y-84724654D01*
X159722219Y-84711866D01*
X159740632Y-84700830D01*
X159760038Y-84691651D01*
X159780250Y-84684419D01*
X159801074Y-84679203D01*
X159822309Y-84676053D01*
X159843750Y-84675000D01*
X160356250Y-84675000D01*
X160377691Y-84676053D01*
X160377691Y-84676053D01*
G37*
D12*
X160100000Y-85112500D03*
D11*
G36*
X160377691Y-86251053D02*
G01*
X160398926Y-86254203D01*
X160419750Y-86259419D01*
X160439962Y-86266651D01*
X160459368Y-86275830D01*
X160477781Y-86286866D01*
X160495024Y-86299654D01*
X160510930Y-86314070D01*
X160525346Y-86329976D01*
X160538134Y-86347219D01*
X160549170Y-86365632D01*
X160558349Y-86385038D01*
X160565581Y-86405250D01*
X160570797Y-86426074D01*
X160573947Y-86447309D01*
X160575000Y-86468750D01*
X160575000Y-86906250D01*
X160573947Y-86927691D01*
X160570797Y-86948926D01*
X160565581Y-86969750D01*
X160558349Y-86989962D01*
X160549170Y-87009368D01*
X160538134Y-87027781D01*
X160525346Y-87045024D01*
X160510930Y-87060930D01*
X160495024Y-87075346D01*
X160477781Y-87088134D01*
X160459368Y-87099170D01*
X160439962Y-87108349D01*
X160419750Y-87115581D01*
X160398926Y-87120797D01*
X160377691Y-87123947D01*
X160356250Y-87125000D01*
X159843750Y-87125000D01*
X159822309Y-87123947D01*
X159801074Y-87120797D01*
X159780250Y-87115581D01*
X159760038Y-87108349D01*
X159740632Y-87099170D01*
X159722219Y-87088134D01*
X159704976Y-87075346D01*
X159689070Y-87060930D01*
X159674654Y-87045024D01*
X159661866Y-87027781D01*
X159650830Y-87009368D01*
X159641651Y-86989962D01*
X159634419Y-86969750D01*
X159629203Y-86948926D01*
X159626053Y-86927691D01*
X159625000Y-86906250D01*
X159625000Y-86468750D01*
X159626053Y-86447309D01*
X159629203Y-86426074D01*
X159634419Y-86405250D01*
X159641651Y-86385038D01*
X159650830Y-86365632D01*
X159661866Y-86347219D01*
X159674654Y-86329976D01*
X159689070Y-86314070D01*
X159704976Y-86299654D01*
X159722219Y-86286866D01*
X159740632Y-86275830D01*
X159760038Y-86266651D01*
X159780250Y-86259419D01*
X159801074Y-86254203D01*
X159822309Y-86251053D01*
X159843750Y-86250000D01*
X160356250Y-86250000D01*
X160377691Y-86251053D01*
X160377691Y-86251053D01*
G37*
D12*
X160100000Y-86687500D03*
D11*
G36*
X161177691Y-87876053D02*
G01*
X161198926Y-87879203D01*
X161219750Y-87884419D01*
X161239962Y-87891651D01*
X161259368Y-87900830D01*
X161277781Y-87911866D01*
X161295024Y-87924654D01*
X161310930Y-87939070D01*
X161325346Y-87954976D01*
X161338134Y-87972219D01*
X161349170Y-87990632D01*
X161358349Y-88010038D01*
X161365581Y-88030250D01*
X161370797Y-88051074D01*
X161373947Y-88072309D01*
X161375000Y-88093750D01*
X161375000Y-88531250D01*
X161373947Y-88552691D01*
X161370797Y-88573926D01*
X161365581Y-88594750D01*
X161358349Y-88614962D01*
X161349170Y-88634368D01*
X161338134Y-88652781D01*
X161325346Y-88670024D01*
X161310930Y-88685930D01*
X161295024Y-88700346D01*
X161277781Y-88713134D01*
X161259368Y-88724170D01*
X161239962Y-88733349D01*
X161219750Y-88740581D01*
X161198926Y-88745797D01*
X161177691Y-88748947D01*
X161156250Y-88750000D01*
X160643750Y-88750000D01*
X160622309Y-88748947D01*
X160601074Y-88745797D01*
X160580250Y-88740581D01*
X160560038Y-88733349D01*
X160540632Y-88724170D01*
X160522219Y-88713134D01*
X160504976Y-88700346D01*
X160489070Y-88685930D01*
X160474654Y-88670024D01*
X160461866Y-88652781D01*
X160450830Y-88634368D01*
X160441651Y-88614962D01*
X160434419Y-88594750D01*
X160429203Y-88573926D01*
X160426053Y-88552691D01*
X160425000Y-88531250D01*
X160425000Y-88093750D01*
X160426053Y-88072309D01*
X160429203Y-88051074D01*
X160434419Y-88030250D01*
X160441651Y-88010038D01*
X160450830Y-87990632D01*
X160461866Y-87972219D01*
X160474654Y-87954976D01*
X160489070Y-87939070D01*
X160504976Y-87924654D01*
X160522219Y-87911866D01*
X160540632Y-87900830D01*
X160560038Y-87891651D01*
X160580250Y-87884419D01*
X160601074Y-87879203D01*
X160622309Y-87876053D01*
X160643750Y-87875000D01*
X161156250Y-87875000D01*
X161177691Y-87876053D01*
X161177691Y-87876053D01*
G37*
D12*
X160900000Y-88312500D03*
D11*
G36*
X161177691Y-89451053D02*
G01*
X161198926Y-89454203D01*
X161219750Y-89459419D01*
X161239962Y-89466651D01*
X161259368Y-89475830D01*
X161277781Y-89486866D01*
X161295024Y-89499654D01*
X161310930Y-89514070D01*
X161325346Y-89529976D01*
X161338134Y-89547219D01*
X161349170Y-89565632D01*
X161358349Y-89585038D01*
X161365581Y-89605250D01*
X161370797Y-89626074D01*
X161373947Y-89647309D01*
X161375000Y-89668750D01*
X161375000Y-90106250D01*
X161373947Y-90127691D01*
X161370797Y-90148926D01*
X161365581Y-90169750D01*
X161358349Y-90189962D01*
X161349170Y-90209368D01*
X161338134Y-90227781D01*
X161325346Y-90245024D01*
X161310930Y-90260930D01*
X161295024Y-90275346D01*
X161277781Y-90288134D01*
X161259368Y-90299170D01*
X161239962Y-90308349D01*
X161219750Y-90315581D01*
X161198926Y-90320797D01*
X161177691Y-90323947D01*
X161156250Y-90325000D01*
X160643750Y-90325000D01*
X160622309Y-90323947D01*
X160601074Y-90320797D01*
X160580250Y-90315581D01*
X160560038Y-90308349D01*
X160540632Y-90299170D01*
X160522219Y-90288134D01*
X160504976Y-90275346D01*
X160489070Y-90260930D01*
X160474654Y-90245024D01*
X160461866Y-90227781D01*
X160450830Y-90209368D01*
X160441651Y-90189962D01*
X160434419Y-90169750D01*
X160429203Y-90148926D01*
X160426053Y-90127691D01*
X160425000Y-90106250D01*
X160425000Y-89668750D01*
X160426053Y-89647309D01*
X160429203Y-89626074D01*
X160434419Y-89605250D01*
X160441651Y-89585038D01*
X160450830Y-89565632D01*
X160461866Y-89547219D01*
X160474654Y-89529976D01*
X160489070Y-89514070D01*
X160504976Y-89499654D01*
X160522219Y-89486866D01*
X160540632Y-89475830D01*
X160560038Y-89466651D01*
X160580250Y-89459419D01*
X160601074Y-89454203D01*
X160622309Y-89451053D01*
X160643750Y-89450000D01*
X161156250Y-89450000D01*
X161177691Y-89451053D01*
X161177691Y-89451053D01*
G37*
D12*
X160900000Y-89887500D03*
D11*
G36*
X157377691Y-92551053D02*
G01*
X157398926Y-92554203D01*
X157419750Y-92559419D01*
X157439962Y-92566651D01*
X157459368Y-92575830D01*
X157477781Y-92586866D01*
X157495024Y-92599654D01*
X157510930Y-92614070D01*
X157525346Y-92629976D01*
X157538134Y-92647219D01*
X157549170Y-92665632D01*
X157558349Y-92685038D01*
X157565581Y-92705250D01*
X157570797Y-92726074D01*
X157573947Y-92747309D01*
X157575000Y-92768750D01*
X157575000Y-93206250D01*
X157573947Y-93227691D01*
X157570797Y-93248926D01*
X157565581Y-93269750D01*
X157558349Y-93289962D01*
X157549170Y-93309368D01*
X157538134Y-93327781D01*
X157525346Y-93345024D01*
X157510930Y-93360930D01*
X157495024Y-93375346D01*
X157477781Y-93388134D01*
X157459368Y-93399170D01*
X157439962Y-93408349D01*
X157419750Y-93415581D01*
X157398926Y-93420797D01*
X157377691Y-93423947D01*
X157356250Y-93425000D01*
X156843750Y-93425000D01*
X156822309Y-93423947D01*
X156801074Y-93420797D01*
X156780250Y-93415581D01*
X156760038Y-93408349D01*
X156740632Y-93399170D01*
X156722219Y-93388134D01*
X156704976Y-93375346D01*
X156689070Y-93360930D01*
X156674654Y-93345024D01*
X156661866Y-93327781D01*
X156650830Y-93309368D01*
X156641651Y-93289962D01*
X156634419Y-93269750D01*
X156629203Y-93248926D01*
X156626053Y-93227691D01*
X156625000Y-93206250D01*
X156625000Y-92768750D01*
X156626053Y-92747309D01*
X156629203Y-92726074D01*
X156634419Y-92705250D01*
X156641651Y-92685038D01*
X156650830Y-92665632D01*
X156661866Y-92647219D01*
X156674654Y-92629976D01*
X156689070Y-92614070D01*
X156704976Y-92599654D01*
X156722219Y-92586866D01*
X156740632Y-92575830D01*
X156760038Y-92566651D01*
X156780250Y-92559419D01*
X156801074Y-92554203D01*
X156822309Y-92551053D01*
X156843750Y-92550000D01*
X157356250Y-92550000D01*
X157377691Y-92551053D01*
X157377691Y-92551053D01*
G37*
D12*
X157100000Y-92987500D03*
D11*
G36*
X157377691Y-90976053D02*
G01*
X157398926Y-90979203D01*
X157419750Y-90984419D01*
X157439962Y-90991651D01*
X157459368Y-91000830D01*
X157477781Y-91011866D01*
X157495024Y-91024654D01*
X157510930Y-91039070D01*
X157525346Y-91054976D01*
X157538134Y-91072219D01*
X157549170Y-91090632D01*
X157558349Y-91110038D01*
X157565581Y-91130250D01*
X157570797Y-91151074D01*
X157573947Y-91172309D01*
X157575000Y-91193750D01*
X157575000Y-91631250D01*
X157573947Y-91652691D01*
X157570797Y-91673926D01*
X157565581Y-91694750D01*
X157558349Y-91714962D01*
X157549170Y-91734368D01*
X157538134Y-91752781D01*
X157525346Y-91770024D01*
X157510930Y-91785930D01*
X157495024Y-91800346D01*
X157477781Y-91813134D01*
X157459368Y-91824170D01*
X157439962Y-91833349D01*
X157419750Y-91840581D01*
X157398926Y-91845797D01*
X157377691Y-91848947D01*
X157356250Y-91850000D01*
X156843750Y-91850000D01*
X156822309Y-91848947D01*
X156801074Y-91845797D01*
X156780250Y-91840581D01*
X156760038Y-91833349D01*
X156740632Y-91824170D01*
X156722219Y-91813134D01*
X156704976Y-91800346D01*
X156689070Y-91785930D01*
X156674654Y-91770024D01*
X156661866Y-91752781D01*
X156650830Y-91734368D01*
X156641651Y-91714962D01*
X156634419Y-91694750D01*
X156629203Y-91673926D01*
X156626053Y-91652691D01*
X156625000Y-91631250D01*
X156625000Y-91193750D01*
X156626053Y-91172309D01*
X156629203Y-91151074D01*
X156634419Y-91130250D01*
X156641651Y-91110038D01*
X156650830Y-91090632D01*
X156661866Y-91072219D01*
X156674654Y-91054976D01*
X156689070Y-91039070D01*
X156704976Y-91024654D01*
X156722219Y-91011866D01*
X156740632Y-91000830D01*
X156760038Y-90991651D01*
X156780250Y-90984419D01*
X156801074Y-90979203D01*
X156822309Y-90976053D01*
X156843750Y-90975000D01*
X157356250Y-90975000D01*
X157377691Y-90976053D01*
X157377691Y-90976053D01*
G37*
D12*
X157100000Y-91412500D03*
D11*
G36*
X160377691Y-95651053D02*
G01*
X160398926Y-95654203D01*
X160419750Y-95659419D01*
X160439962Y-95666651D01*
X160459368Y-95675830D01*
X160477781Y-95686866D01*
X160495024Y-95699654D01*
X160510930Y-95714070D01*
X160525346Y-95729976D01*
X160538134Y-95747219D01*
X160549170Y-95765632D01*
X160558349Y-95785038D01*
X160565581Y-95805250D01*
X160570797Y-95826074D01*
X160573947Y-95847309D01*
X160575000Y-95868750D01*
X160575000Y-96306250D01*
X160573947Y-96327691D01*
X160570797Y-96348926D01*
X160565581Y-96369750D01*
X160558349Y-96389962D01*
X160549170Y-96409368D01*
X160538134Y-96427781D01*
X160525346Y-96445024D01*
X160510930Y-96460930D01*
X160495024Y-96475346D01*
X160477781Y-96488134D01*
X160459368Y-96499170D01*
X160439962Y-96508349D01*
X160419750Y-96515581D01*
X160398926Y-96520797D01*
X160377691Y-96523947D01*
X160356250Y-96525000D01*
X159843750Y-96525000D01*
X159822309Y-96523947D01*
X159801074Y-96520797D01*
X159780250Y-96515581D01*
X159760038Y-96508349D01*
X159740632Y-96499170D01*
X159722219Y-96488134D01*
X159704976Y-96475346D01*
X159689070Y-96460930D01*
X159674654Y-96445024D01*
X159661866Y-96427781D01*
X159650830Y-96409368D01*
X159641651Y-96389962D01*
X159634419Y-96369750D01*
X159629203Y-96348926D01*
X159626053Y-96327691D01*
X159625000Y-96306250D01*
X159625000Y-95868750D01*
X159626053Y-95847309D01*
X159629203Y-95826074D01*
X159634419Y-95805250D01*
X159641651Y-95785038D01*
X159650830Y-95765632D01*
X159661866Y-95747219D01*
X159674654Y-95729976D01*
X159689070Y-95714070D01*
X159704976Y-95699654D01*
X159722219Y-95686866D01*
X159740632Y-95675830D01*
X159760038Y-95666651D01*
X159780250Y-95659419D01*
X159801074Y-95654203D01*
X159822309Y-95651053D01*
X159843750Y-95650000D01*
X160356250Y-95650000D01*
X160377691Y-95651053D01*
X160377691Y-95651053D01*
G37*
D12*
X160100000Y-96087500D03*
D11*
G36*
X160377691Y-94076053D02*
G01*
X160398926Y-94079203D01*
X160419750Y-94084419D01*
X160439962Y-94091651D01*
X160459368Y-94100830D01*
X160477781Y-94111866D01*
X160495024Y-94124654D01*
X160510930Y-94139070D01*
X160525346Y-94154976D01*
X160538134Y-94172219D01*
X160549170Y-94190632D01*
X160558349Y-94210038D01*
X160565581Y-94230250D01*
X160570797Y-94251074D01*
X160573947Y-94272309D01*
X160575000Y-94293750D01*
X160575000Y-94731250D01*
X160573947Y-94752691D01*
X160570797Y-94773926D01*
X160565581Y-94794750D01*
X160558349Y-94814962D01*
X160549170Y-94834368D01*
X160538134Y-94852781D01*
X160525346Y-94870024D01*
X160510930Y-94885930D01*
X160495024Y-94900346D01*
X160477781Y-94913134D01*
X160459368Y-94924170D01*
X160439962Y-94933349D01*
X160419750Y-94940581D01*
X160398926Y-94945797D01*
X160377691Y-94948947D01*
X160356250Y-94950000D01*
X159843750Y-94950000D01*
X159822309Y-94948947D01*
X159801074Y-94945797D01*
X159780250Y-94940581D01*
X159760038Y-94933349D01*
X159740632Y-94924170D01*
X159722219Y-94913134D01*
X159704976Y-94900346D01*
X159689070Y-94885930D01*
X159674654Y-94870024D01*
X159661866Y-94852781D01*
X159650830Y-94834368D01*
X159641651Y-94814962D01*
X159634419Y-94794750D01*
X159629203Y-94773926D01*
X159626053Y-94752691D01*
X159625000Y-94731250D01*
X159625000Y-94293750D01*
X159626053Y-94272309D01*
X159629203Y-94251074D01*
X159634419Y-94230250D01*
X159641651Y-94210038D01*
X159650830Y-94190632D01*
X159661866Y-94172219D01*
X159674654Y-94154976D01*
X159689070Y-94139070D01*
X159704976Y-94124654D01*
X159722219Y-94111866D01*
X159740632Y-94100830D01*
X159760038Y-94091651D01*
X159780250Y-94084419D01*
X159801074Y-94079203D01*
X159822309Y-94076053D01*
X159843750Y-94075000D01*
X160356250Y-94075000D01*
X160377691Y-94076053D01*
X160377691Y-94076053D01*
G37*
D12*
X160100000Y-94512500D03*
D11*
G36*
X168377691Y-94276053D02*
G01*
X168398926Y-94279203D01*
X168419750Y-94284419D01*
X168439962Y-94291651D01*
X168459368Y-94300830D01*
X168477781Y-94311866D01*
X168495024Y-94324654D01*
X168510930Y-94339070D01*
X168525346Y-94354976D01*
X168538134Y-94372219D01*
X168549170Y-94390632D01*
X168558349Y-94410038D01*
X168565581Y-94430250D01*
X168570797Y-94451074D01*
X168573947Y-94472309D01*
X168575000Y-94493750D01*
X168575000Y-94931250D01*
X168573947Y-94952691D01*
X168570797Y-94973926D01*
X168565581Y-94994750D01*
X168558349Y-95014962D01*
X168549170Y-95034368D01*
X168538134Y-95052781D01*
X168525346Y-95070024D01*
X168510930Y-95085930D01*
X168495024Y-95100346D01*
X168477781Y-95113134D01*
X168459368Y-95124170D01*
X168439962Y-95133349D01*
X168419750Y-95140581D01*
X168398926Y-95145797D01*
X168377691Y-95148947D01*
X168356250Y-95150000D01*
X167843750Y-95150000D01*
X167822309Y-95148947D01*
X167801074Y-95145797D01*
X167780250Y-95140581D01*
X167760038Y-95133349D01*
X167740632Y-95124170D01*
X167722219Y-95113134D01*
X167704976Y-95100346D01*
X167689070Y-95085930D01*
X167674654Y-95070024D01*
X167661866Y-95052781D01*
X167650830Y-95034368D01*
X167641651Y-95014962D01*
X167634419Y-94994750D01*
X167629203Y-94973926D01*
X167626053Y-94952691D01*
X167625000Y-94931250D01*
X167625000Y-94493750D01*
X167626053Y-94472309D01*
X167629203Y-94451074D01*
X167634419Y-94430250D01*
X167641651Y-94410038D01*
X167650830Y-94390632D01*
X167661866Y-94372219D01*
X167674654Y-94354976D01*
X167689070Y-94339070D01*
X167704976Y-94324654D01*
X167722219Y-94311866D01*
X167740632Y-94300830D01*
X167760038Y-94291651D01*
X167780250Y-94284419D01*
X167801074Y-94279203D01*
X167822309Y-94276053D01*
X167843750Y-94275000D01*
X168356250Y-94275000D01*
X168377691Y-94276053D01*
X168377691Y-94276053D01*
G37*
D12*
X168100000Y-94712500D03*
D11*
G36*
X168377691Y-95851053D02*
G01*
X168398926Y-95854203D01*
X168419750Y-95859419D01*
X168439962Y-95866651D01*
X168459368Y-95875830D01*
X168477781Y-95886866D01*
X168495024Y-95899654D01*
X168510930Y-95914070D01*
X168525346Y-95929976D01*
X168538134Y-95947219D01*
X168549170Y-95965632D01*
X168558349Y-95985038D01*
X168565581Y-96005250D01*
X168570797Y-96026074D01*
X168573947Y-96047309D01*
X168575000Y-96068750D01*
X168575000Y-96506250D01*
X168573947Y-96527691D01*
X168570797Y-96548926D01*
X168565581Y-96569750D01*
X168558349Y-96589962D01*
X168549170Y-96609368D01*
X168538134Y-96627781D01*
X168525346Y-96645024D01*
X168510930Y-96660930D01*
X168495024Y-96675346D01*
X168477781Y-96688134D01*
X168459368Y-96699170D01*
X168439962Y-96708349D01*
X168419750Y-96715581D01*
X168398926Y-96720797D01*
X168377691Y-96723947D01*
X168356250Y-96725000D01*
X167843750Y-96725000D01*
X167822309Y-96723947D01*
X167801074Y-96720797D01*
X167780250Y-96715581D01*
X167760038Y-96708349D01*
X167740632Y-96699170D01*
X167722219Y-96688134D01*
X167704976Y-96675346D01*
X167689070Y-96660930D01*
X167674654Y-96645024D01*
X167661866Y-96627781D01*
X167650830Y-96609368D01*
X167641651Y-96589962D01*
X167634419Y-96569750D01*
X167629203Y-96548926D01*
X167626053Y-96527691D01*
X167625000Y-96506250D01*
X167625000Y-96068750D01*
X167626053Y-96047309D01*
X167629203Y-96026074D01*
X167634419Y-96005250D01*
X167641651Y-95985038D01*
X167650830Y-95965632D01*
X167661866Y-95947219D01*
X167674654Y-95929976D01*
X167689070Y-95914070D01*
X167704976Y-95899654D01*
X167722219Y-95886866D01*
X167740632Y-95875830D01*
X167760038Y-95866651D01*
X167780250Y-95859419D01*
X167801074Y-95854203D01*
X167822309Y-95851053D01*
X167843750Y-95850000D01*
X168356250Y-95850000D01*
X168377691Y-95851053D01*
X168377691Y-95851053D01*
G37*
D12*
X168100000Y-96287500D03*
M02*
