<?xml version="1.0" standalone="no"?>
 <!DOCTYPE svg PUBLIC "-//W3C//DTD SVG 1.1//EN" 
 "http://www.w3.org/Graphics/SVG/1.1/DTD/svg11.dtd"> 
<svg xmlns="http://www.w3.org/2000/svg" version="1.1" 
    width="29.7002cm" height="21.0007cm" viewBox="0 0 116930 82680 ">
<title>SVG Picture created as Nixie-B_Mask.svg date 2021/03/25 13:34:28 </title>
  <desc>Picture generated by PCBNEW </desc>
<g style="fill:#000000; fill-opacity:1;stroke:#000000; stroke-opacity:1;
stroke-linecap:round; stroke-linejoin:round; "
 transform="translate(0 0) scale(1 1)">
</g>
<g style="fill:#000000; fill-opacity:0.0; 
stroke:#000000; stroke-width:-0.000393701; stroke-opacity:1; 
stroke-linecap:round; stroke-linejoin:round;">
</g>
<g style="fill:#000000; fill-opacity:1.0; 
stroke:#000000; stroke-width:0; stroke-opacity:1; 
stroke-linecap:round; stroke-linejoin:round;">
<path style="fill:#000000; fill-opacity:1.0; 
stroke:#000000; stroke-width:0; stroke-opacity:1; 
stroke-linecap:round; stroke-linejoin:round;fill-rule:evenodd;"
d="M 69713,39951
69741,39954
69794,39970
69794,39970
69844,39997
69888,40033
69923,40076
69950,40126
69950,40126
69966,40180
69972,40236
69966,40292
69952,40339
69950,40346
69923,40395
69888,40439
69844,40475
69794,40501
69794,40501
69741,40517
69713,40520
69699,40522
69671,40522
69657,40520
69629,40517
69575,40501
69575,40501
69525,40475
69481,40439
69446,40395
69419,40346
69417,40339
69403,40292
69397,40236
69403,40180
69419,40126
69419,40126
69446,40076
69481,40033
69525,39997
69575,39970
69575,39970
69629,39954
69657,39951
69671,39950
69699,39950
69713,39951
Z" /> 
<path style="fill:#000000; fill-opacity:1.0; 
stroke:#000000; stroke-width:0; stroke-opacity:1; 
stroke-linecap:round; stroke-linejoin:round;fill-rule:evenodd;"
d="M 68925,39951
68953,39954
69007,39970
69007,39970
69057,39997
69100,40033
69136,40076
69162,40126
69162,40126
69179,40180
69184,40236
69179,40292
69164,40339
69162,40346
69136,40395
69100,40439
69057,40475
69007,40501
69007,40501
68953,40517
68925,40520
68911,40522
68883,40522
68869,40520
68841,40517
68787,40501
68787,40501
68738,40475
68694,40439
68658,40395
68632,40346
68630,40339
68615,40292
68610,40236
68615,40180
68632,40126
68632,40126
68658,40076
68694,40033
68738,39997
68787,39970
68787,39970
68841,39954
68869,39951
68883,39950
68911,39950
68925,39951
Z" /> 
<path style="fill:#000000; fill-opacity:1.0; 
stroke:#000000; stroke-width:0; stroke-opacity:1; 
stroke-linecap:round; stroke-linejoin:round;fill-rule:evenodd;"
d="M 59990,39130
60032,39138
60150,39187
60256,39258
60347,39349
60418,39455
60467,39574
60492,39699
60492,39827
60467,39953
60418,40071
60347,40178
60256,40268
60150,40339
60150,40339
60150,40339
60115,40354
60032,40388
59997,40395
59906,40413
59778,40413
59688,40395
59652,40388
59569,40354
59534,40339
59534,40339
59534,40339
59428,40268
59337,40178
59266,40071
59217,39953
59192,39827
59192,39699
59217,39574
59266,39455
59337,39349
59428,39258
59534,39187
59652,39138
59694,39130
59778,39113
59906,39113
59990,39130
Z" /> 
<path style="fill:#000000; fill-opacity:1.0; 
stroke:#000000; stroke-width:0; stroke-opacity:1; 
stroke-linecap:round; stroke-linejoin:round;fill-rule:evenodd;"
d="M 68925,39164
68953,39167
69007,39183
69007,39183
69057,39210
69100,39245
69136,39289
69162,39338
69162,39338
69179,39392
69184,39448
69179,39504
69162,39558
69162,39558
69136,39608
69100,39651
69057,39687
69007,39714
69007,39714
68953,39730
68925,39733
68911,39734
68883,39734
68869,39733
68841,39730
68787,39714
68787,39714
68738,39687
68694,39651
68658,39608
68632,39558
68632,39558
68615,39504
68610,39448
68615,39392
68632,39338
68632,39338
68658,39289
68694,39245
68738,39210
68787,39183
68787,39183
68841,39167
68869,39164
68883,39162
68911,39162
68925,39164
Z" /> 
<path style="fill:#000000; fill-opacity:1.0; 
stroke:#000000; stroke-width:0; stroke-opacity:1; 
stroke-linecap:round; stroke-linejoin:round;fill-rule:evenodd;"
d="M 69713,39164
69741,39167
69794,39183
69794,39183
69844,39210
69888,39245
69923,39289
69950,39338
69950,39338
69966,39392
69972,39448
69966,39504
69950,39558
69950,39558
69923,39608
69888,39651
69844,39687
69794,39714
69794,39714
69741,39730
69713,39733
69699,39734
69671,39734
69657,39733
69629,39730
69575,39714
69575,39714
69525,39687
69481,39651
69446,39608
69419,39558
69419,39558
69403,39504
69397,39448
69403,39392
69419,39338
69419,39338
69446,39289
69481,39245
69525,39210
69575,39183
69575,39183
69629,39167
69657,39164
69671,39162
69699,39162
69713,39164
Z" /> 
<path style="fill:#000000; fill-opacity:1.0; 
stroke:#000000; stroke-width:0; stroke-opacity:1; 
stroke-linecap:round; stroke-linejoin:round;fill-rule:evenodd;"
d="M 69713,38376
69741,38379
69794,38396
69794,38396
69844,38422
69888,38458
69923,38501
69950,38551
69950,38551
69966,38605
69972,38661
69966,38717
69950,38771
69950,38771
69923,38820
69888,38864
69844,38900
69794,38926
69794,38926
69741,38943
69713,38945
69699,38947
69671,38947
69657,38945
69629,38943
69575,38926
69575,38926
69525,38900
69481,38864
69446,38820
69419,38771
69419,38771
69403,38717
69397,38661
69403,38605
69419,38551
69419,38551
69446,38501
69481,38458
69525,38422
69575,38396
69575,38396
69629,38379
69657,38376
69671,38375
69699,38375
69713,38376
Z" /> 
<path style="fill:#000000; fill-opacity:1.0; 
stroke:#000000; stroke-width:0; stroke-opacity:1; 
stroke-linecap:round; stroke-linejoin:round;fill-rule:evenodd;"
d="M 68925,38376
68953,38379
69007,38396
69007,38396
69057,38422
69100,38458
69136,38501
69162,38551
69162,38551
69179,38605
69184,38661
69179,38717
69162,38771
69162,38771
69136,38820
69100,38864
69057,38900
69007,38926
69007,38926
68953,38943
68925,38945
68911,38947
68883,38947
68869,38945
68841,38943
68787,38926
68787,38926
68738,38900
68694,38864
68658,38820
68632,38771
68632,38771
68615,38717
68610,38661
68615,38605
68632,38551
68632,38551
68658,38501
68694,38458
68738,38422
68787,38396
68787,38396
68841,38379
68869,38376
68883,38375
68911,38375
68925,38376
Z" /> 
<path style="fill:#000000; fill-opacity:1.0; 
stroke:#000000; stroke-width:0; stroke-opacity:1; 
stroke-linecap:round; stroke-linejoin:round;fill-rule:evenodd;"
d="M 69713,37589
69741,37592
69794,37608
69794,37608
69844,37635
69888,37670
69923,37714
69950,37764
69950,37764
69966,37817
69972,37874
69966,37930
69950,37983
69950,37983
69923,38033
69888,38077
69844,38112
69794,38139
69794,38139
69741,38155
69713,38158
69699,38159
69671,38159
69657,38158
69629,38155
69575,38139
69575,38139
69525,38112
69481,38077
69446,38033
69419,37983
69419,37983
69403,37930
69397,37874
69403,37817
69419,37764
69419,37764
69446,37714
69481,37670
69525,37635
69575,37608
69575,37608
69629,37592
69657,37589
69671,37588
69699,37588
69713,37589
Z" /> 
<path style="fill:#000000; fill-opacity:1.0; 
stroke:#000000; stroke-width:0; stroke-opacity:1; 
stroke-linecap:round; stroke-linejoin:round;fill-rule:evenodd;"
d="M 68925,37589
68953,37592
69007,37608
69007,37608
69057,37635
69100,37670
69136,37714
69162,37764
69162,37764
69179,37817
69184,37874
69179,37930
69162,37983
69162,37983
69136,38033
69100,38077
69057,38112
69007,38139
69007,38139
68953,38155
68925,38158
68911,38159
68883,38159
68869,38158
68841,38155
68787,38139
68787,38139
68738,38112
68694,38077
68658,38033
68632,37983
68632,37983
68615,37930
68610,37874
68615,37817
68632,37764
68632,37764
68658,37714
68694,37670
68738,37635
68787,37608
68787,37608
68841,37592
68869,37589
68883,37588
68911,37588
68925,37589
Z" /> 
<path style="fill:#000000; fill-opacity:1.0; 
stroke:#000000; stroke-width:0; stroke-opacity:1; 
stroke-linecap:round; stroke-linejoin:round;fill-rule:evenodd;"
d="M 69713,36802
69741,36804
69794,36821
69794,36821
69844,36847
69888,36883
69923,36927
69950,36976
69950,36976
69966,37030
69972,37086
69966,37142
69950,37196
69950,37196
69923,37246
69888,37289
69844,37325
69794,37351
69794,37351
69741,37368
69713,37371
69699,37372
69671,37372
69657,37371
69629,37368
69575,37351
69575,37351
69525,37325
69481,37289
69446,37246
69419,37196
69419,37196
69403,37142
69397,37086
69403,37030
69419,36976
69419,36976
69446,36927
69481,36883
69525,36847
69575,36821
69575,36821
69629,36804
69657,36802
69671,36800
69699,36800
69713,36802
Z" /> 
<path style="fill:#000000; fill-opacity:1.0; 
stroke:#000000; stroke-width:0; stroke-opacity:1; 
stroke-linecap:round; stroke-linejoin:round;fill-rule:evenodd;"
d="M 68925,36802
68953,36804
69007,36821
69007,36821
69057,36847
69100,36883
69136,36927
69162,36976
69162,36976
69179,37030
69184,37086
69179,37142
69162,37196
69162,37196
69136,37246
69100,37289
69057,37325
69007,37351
69007,37351
68953,37368
68925,37371
68911,37372
68883,37372
68869,37371
68841,37368
68787,37351
68787,37351
68738,37325
68694,37289
68658,37246
68632,37196
68632,37196
68615,37142
68610,37086
68615,37030
68632,36976
68632,36976
68658,36927
68694,36883
68738,36847
68787,36821
68787,36821
68841,36804
68869,36802
68883,36800
68911,36800
68925,36802
Z" /> 
<path style="fill:#000000; fill-opacity:1.0; 
stroke:#000000; stroke-width:0; stroke-opacity:1; 
stroke-linecap:round; stroke-linejoin:round;fill-rule:evenodd;"
d="M 64687,36544
64739,36566
64786,36597
64825,36637
64857,36684
64878,36735
64889,36790
64889,36847
64878,36902
64857,36954
64825,37000
64786,37040
64739,37071
64687,37093
64632,37104
64576,37104
64521,37093
64469,37071
64422,37040
64383,37000
64351,36954
64330,36902
64319,36847
64319,36790
64330,36735
64351,36684
64383,36637
64422,36597
64469,36566
64521,36544
64576,36533
64632,36533
64687,36544
Z" /> 
<path style="fill:#000000; fill-opacity:1.0; 
stroke:#000000; stroke-width:0; stroke-opacity:1; 
stroke-linecap:round; stroke-linejoin:round;fill-rule:evenodd;"
d="M 63555,36265
63607,36287
63654,36318
63693,36358
63725,36405
63746,36456
63757,36511
63757,36568
63746,36623
63725,36675
63693,36721
63654,36761
63607,36792
63555,36814
63500,36825
63444,36825
63389,36814
63337,36792
63290,36761
63251,36721
63219,36675
63198,36623
63187,36568
63187,36511
63198,36456
63219,36405
63251,36358
63290,36318
63337,36287
63389,36265
63444,36254
63500,36254
63555,36265
Z" /> 
<path style="fill:#000000; fill-opacity:1.0; 
stroke:#000000; stroke-width:0; stroke-opacity:1; 
stroke-linecap:round; stroke-linejoin:round;fill-rule:evenodd;"
d="M 65819,36265
65871,36287
65918,36318
65957,36358
65989,36405
66010,36456
66021,36511
66021,36568
66010,36623
65989,36675
65957,36721
65918,36761
65871,36792
65819,36814
65764,36825
65708,36825
65653,36814
65601,36792
65554,36761
65515,36721
65483,36675
65462,36623
65451,36568
65451,36511
65462,36456
65483,36405
65515,36358
65554,36318
65601,36287
65653,36265
65708,36254
65764,36254
65819,36265
Z" /> 
<path style="fill:#000000; fill-opacity:1.0; 
stroke:#000000; stroke-width:0; stroke-opacity:1; 
stroke-linecap:round; stroke-linejoin:round;fill-rule:evenodd;"
d="M 68925,36014
68953,36017
69007,36033
69007,36033
69057,36060
69100,36096
69136,36139
69162,36189
69162,36189
69179,36243
69184,36299
69179,36355
69162,36409
69162,36409
69136,36458
69100,36502
69057,36538
69007,36564
69007,36564
68953,36580
68925,36583
68911,36585
68883,36585
68869,36583
68841,36580
68787,36564
68787,36564
68738,36538
68694,36502
68658,36458
68632,36409
68632,36409
68615,36355
68610,36299
68615,36243
68632,36189
68632,36189
68658,36139
68694,36096
68738,36060
68787,36033
68787,36033
68841,36017
68869,36014
68883,36013
68911,36013
68925,36014
Z" /> 
<path style="fill:#000000; fill-opacity:1.0; 
stroke:#000000; stroke-width:0; stroke-opacity:1; 
stroke-linecap:round; stroke-linejoin:round;fill-rule:evenodd;"
d="M 69713,36014
69741,36017
69794,36033
69794,36033
69844,36060
69888,36096
69923,36139
69950,36189
69950,36189
69966,36243
69972,36299
69966,36355
69950,36409
69950,36409
69923,36458
69888,36502
69844,36538
69794,36564
69794,36564
69741,36580
69713,36583
69699,36585
69671,36585
69657,36583
69629,36580
69575,36564
69575,36564
69525,36538
69481,36502
69446,36458
69419,36409
69419,36409
69403,36355
69397,36299
69403,36243
69419,36189
69419,36189
69446,36139
69481,36096
69525,36060
69575,36033
69575,36033
69629,36017
69657,36014
69671,36013
69699,36013
69713,36014
Z" /> 
<path style="fill:#000000; fill-opacity:1.0; 
stroke:#000000; stroke-width:0; stroke-opacity:1; 
stroke-linecap:round; stroke-linejoin:round;fill-rule:evenodd;"
d="M 62682,35492
62734,35514
62781,35545
62820,35585
62852,35632
62873,35683
62884,35738
62884,35795
62873,35850
62852,35902
62820,35948
62781,35988
62734,36019
62682,36041
62627,36052
62571,36052
62516,36041
62464,36019
62417,35988
62378,35948
62346,35902
62325,35850
62314,35795
62314,35738
62325,35683
62346,35632
62378,35585
62417,35545
62464,35514
62516,35492
62571,35481
62627,35481
62682,35492
Z" /> 
<path style="fill:#000000; fill-opacity:1.0; 
stroke:#000000; stroke-width:0; stroke-opacity:1; 
stroke-linecap:round; stroke-linejoin:round;fill-rule:evenodd;"
d="M 66692,35492
66744,35514
66791,35545
66830,35585
66862,35632
66883,35683
66894,35738
66894,35795
66883,35850
66862,35902
66830,35948
66791,35988
66744,36019
66692,36041
66637,36052
66581,36052
66526,36041
66474,36019
66427,35988
66388,35948
66356,35902
66335,35850
66324,35795
66324,35738
66335,35683
66356,35632
66388,35585
66427,35545
66474,35514
66526,35492
66581,35481
66637,35481
66692,35492
Z" /> 
<path style="fill:#000000; fill-opacity:1.0; 
stroke:#000000; stroke-width:0; stroke-opacity:1; 
stroke-linecap:round; stroke-linejoin:round;fill-rule:evenodd;"
d="M 69183,35797
68611,35797
68611,35225
69183,35225
69183,35797
Z" /> 
<path style="fill:#000000; fill-opacity:1.0; 
stroke:#000000; stroke-width:0; stroke-opacity:1; 
stroke-linecap:round; stroke-linejoin:round;fill-rule:evenodd;"
d="M 69713,35227
69741,35230
69794,35246
69794,35246
69844,35273
69888,35308
69923,35352
69950,35401
69950,35401
69966,35455
69972,35511
69966,35567
69950,35621
69950,35621
69923,35671
69888,35714
69844,35750
69794,35777
69794,35777
69741,35793
69713,35796
69699,35797
69671,35797
69657,35796
69629,35793
69575,35777
69575,35777
69525,35750
69481,35714
69446,35671
69419,35621
69419,35621
69403,35567
69397,35511
69403,35455
69419,35401
69419,35401
69446,35352
69481,35308
69525,35273
69575,35246
69575,35246
69629,35230
69657,35227
69671,35225
69699,35225
69713,35227
Z" /> 
<path style="fill:#000000; fill-opacity:1.0; 
stroke:#000000; stroke-width:0; stroke-opacity:1; 
stroke-linecap:round; stroke-linejoin:round;fill-rule:evenodd;"
d="M 67106,34401
67158,34423
67205,34454
67244,34494
67276,34541
67297,34592
67308,34647
67308,34704
67297,34759
67276,34811
67244,34857
67205,34897
67158,34928
67106,34950
67051,34961
66995,34961
66940,34950
66888,34928
66841,34897
66802,34857
66770,34811
66749,34759
66738,34704
66738,34647
66749,34592
66770,34541
66802,34494
66841,34454
66888,34423
66940,34401
66995,34390
67051,34390
67106,34401
Z" /> 
<path style="fill:#000000; fill-opacity:1.0; 
stroke:#000000; stroke-width:0; stroke-opacity:1; 
stroke-linecap:round; stroke-linejoin:round;fill-rule:evenodd;"
d="M 62268,34401
62320,34423
62367,34454
62406,34494
62438,34541
62459,34592
62470,34647
62470,34704
62459,34759
62438,34811
62406,34857
62367,34897
62320,34928
62268,34950
62213,34961
62157,34961
62102,34950
62050,34928
62003,34897
61964,34857
61932,34811
61911,34759
61900,34704
61900,34647
61911,34592
61932,34541
61964,34494
62003,34454
62050,34423
62102,34401
62157,34390
62213,34390
62268,34401
Z" /> 
<path style="fill:#000000; fill-opacity:1.0; 
stroke:#000000; stroke-width:0; stroke-opacity:1; 
stroke-linecap:round; stroke-linejoin:round;fill-rule:evenodd;"
d="M 66965,33244
67017,33266
67064,33297
67103,33337
67135,33384
67156,33435
67167,33490
67167,33547
67156,33602
67135,33654
67103,33700
67064,33740
67017,33771
66965,33793
66910,33804
66854,33804
66799,33793
66747,33771
66700,33740
66661,33700
66629,33654
66608,33602
66597,33547
66597,33490
66608,33435
66629,33384
66661,33337
66700,33297
66747,33266
66799,33244
66854,33233
66910,33233
66965,33244
Z" /> 
<path style="fill:#000000; fill-opacity:1.0; 
stroke:#000000; stroke-width:0; stroke-opacity:1; 
stroke-linecap:round; stroke-linejoin:round;fill-rule:evenodd;"
d="M 62409,33244
62461,33266
62508,33297
62547,33337
62579,33384
62600,33435
62611,33490
62611,33547
62600,33602
62579,33654
62547,33700
62508,33740
62461,33771
62409,33793
62354,33804
62298,33804
62243,33793
62191,33771
62144,33740
62105,33700
62073,33654
62052,33602
62041,33547
62041,33490
62052,33435
62073,33384
62105,33337
62144,33297
62191,33266
62243,33244
62298,33233
62354,33233
62409,33244
Z" /> 
<path style="fill:#000000; fill-opacity:1.0; 
stroke:#000000; stroke-width:0; stroke-opacity:1; 
stroke-linecap:round; stroke-linejoin:round;fill-rule:evenodd;"
d="M 59990,32043
60032,32052
60150,32101
60256,32172
60347,32262
60418,32369
60462,32475
60467,32487
60492,32613
60492,32741
60484,32780
60467,32866
60418,32985
60347,33091
60256,33182
60150,33253
60032,33302
59990,33310
59906,33327
59778,33327
59694,33310
59652,33302
59534,33253
59428,33182
59337,33091
59266,32985
59217,32866
59200,32780
59192,32741
59192,32613
59217,32487
59222,32475
59266,32369
59337,32262
59428,32172
59534,32101
59652,32052
59694,32043
59778,32027
59906,32027
59990,32043
Z" /> 
<path style="fill:#000000; fill-opacity:1.0; 
stroke:#000000; stroke-width:0; stroke-opacity:1; 
stroke-linecap:round; stroke-linejoin:round;fill-rule:evenodd;"
d="M 69517,32043
69559,32052
69677,32101
69784,32172
69874,32262
69946,32369
69990,32475
69995,32487
70020,32613
70020,32741
70012,32780
69995,32866
69946,32985
69874,33091
69784,33182
69677,33253
69559,33302
69517,33310
69434,33327
69306,33327
69222,33310
69180,33302
69062,33253
68955,33182
68865,33091
68794,32985
68745,32866
68727,32780
68720,32741
68720,32613
68745,32487
68749,32475
68794,32369
68865,32262
68955,32172
69062,32101
69180,32052
69222,32043
69306,32027
69434,32027
69517,32043
Z" /> 
<path style="fill:#000000; fill-opacity:1.0; 
stroke:#000000; stroke-width:0; stroke-opacity:1; 
stroke-linecap:round; stroke-linejoin:round;fill-rule:evenodd;"
d="M 63071,32284
63123,32306
63170,32337
63209,32377
63241,32424
63262,32475
63273,32530
63273,32587
63262,32642
63241,32694
63209,32740
63170,32780
63123,32811
63071,32833
63016,32844
62960,32844
62905,32833
62853,32811
62806,32780
62767,32740
62735,32694
62714,32642
62703,32587
62703,32530
62714,32475
62735,32424
62767,32377
62806,32337
62853,32306
62905,32284
62960,32273
63016,32273
63071,32284
Z" /> 
<path style="fill:#000000; fill-opacity:1.0; 
stroke:#000000; stroke-width:0; stroke-opacity:1; 
stroke-linecap:round; stroke-linejoin:round;fill-rule:evenodd;"
d="M 66303,32284
66355,32306
66402,32337
66441,32377
66473,32424
66494,32475
66505,32530
66505,32587
66494,32642
66473,32694
66441,32740
66402,32780
66355,32811
66303,32833
66248,32844
66192,32844
66137,32833
66085,32811
66038,32780
65999,32740
65967,32694
65946,32642
65935,32587
65935,32530
65946,32475
65967,32424
65999,32377
66038,32337
66085,32306
66137,32284
66192,32273
66248,32273
66303,32284
Z" /> 
<path style="fill:#000000; fill-opacity:1.0; 
stroke:#000000; stroke-width:0; stroke-opacity:1; 
stroke-linecap:round; stroke-linejoin:round;fill-rule:evenodd;"
d="M 64104,31742
64156,31764
64203,31795
64242,31835
64274,31882
64295,31933
64306,31988
64306,32045
64295,32100
64274,32152
64242,32198
64203,32238
64156,32269
64104,32291
64049,32302
63993,32302
63938,32291
63886,32269
63839,32238
63800,32198
63768,32152
63747,32100
63736,32045
63736,31988
63747,31933
63768,31882
63800,31835
63839,31795
63886,31764
63938,31742
63993,31731
64049,31731
64104,31742
Z" /> 
<path style="fill:#000000; fill-opacity:1.0; 
stroke:#000000; stroke-width:0; stroke-opacity:1; 
stroke-linecap:round; stroke-linejoin:round;fill-rule:evenodd;"
d="M 65270,31742
65322,31764
65369,31795
65408,31835
65440,31882
65461,31933
65472,31988
65472,32045
65461,32100
65440,32152
65408,32198
65369,32238
65322,32269
65270,32291
65215,32302
65159,32302
65104,32291
65052,32269
65005,32238
64966,32198
64934,32152
64913,32100
64902,32045
64902,31988
64913,31933
64934,31882
64966,31835
65005,31795
65052,31764
65104,31742
65159,31731
65215,31731
65270,31742
Z" /> 
</g> 
</svg>
