<?xml version="1.0" standalone="no"?>
 <!DOCTYPE svg PUBLIC "-//W3C//DTD SVG 1.1//EN" 
 "http://www.w3.org/Graphics/SVG/1.1/DTD/svg11.dtd"> 
<svg xmlns="http://www.w3.org/2000/svg" version="1.1" 
    width="29.7002cm" height="21.0007cm" viewBox="0 0 116930 82680 ">
<title>SVG Picture created as Nixie-brd.svg date 2021/03/25 13:41:58 </title>
  <desc>Picture generated by PCBNEW </desc>
<g style="fill:#000000; fill-opacity:1;stroke:#000000; stroke-opacity:1;
stroke-linecap:round; stroke-linejoin:round; "
 transform="translate(0 0) scale(1 1)">
</g>
<g style="fill:#000000; fill-opacity:0.0; 
stroke:#000000; stroke-width:-0.000393701; stroke-opacity:1; 
stroke-linecap:round; stroke-linejoin:round;">
</g>
<g style="fill:#000000; fill-opacity:0.0; 
stroke:#000000; stroke-width:39.3701; stroke-opacity:1; 
stroke-linecap:round; stroke-linejoin:round;">
</g>
<g style="fill:#000000; fill-opacity:0.0; 
stroke:#000000; stroke-width:59.0551; stroke-opacity:1; 
stroke-linecap:round; stroke-linejoin:round;">
<rect x="69685.9" y="65357.2" width="42519.7" height="12598.4" rx="0" />
</g>
<g style="fill:#000000; fill-opacity:0.0; 
stroke:#000000; stroke-width:39.3701; stroke-opacity:1; 
stroke-linecap:round; stroke-linejoin:round;">
</g>
<g style="fill:#000000; fill-opacity:0.0; 
stroke:#000000; stroke-width:59.0551; stroke-opacity:1; 
stroke-linecap:round; stroke-linejoin:round;">
<rect x="3937.01" y="3937.01" width="109056" height="74806" rx="0" />
</g>
<g style="fill:#000000; fill-opacity:0.0; 
stroke:#000000; stroke-width:39.3701; stroke-opacity:1; 
stroke-linecap:round; stroke-linejoin:round;">
</g>
<g style="fill:#000000; fill-opacity:0.0; 
stroke:#000000; stroke-width:59.0551; stroke-opacity:1; 
stroke-linecap:round; stroke-linejoin:round;">
<rect x="4724.41" y="4724.41" width="107481" height="73231.2" rx="0" />
</g>
<g style="fill:#000000; fill-opacity:0.0; 
stroke:#000000; stroke-width:39.3701; stroke-opacity:1; 
stroke-linecap:round; stroke-linejoin:round;">
</g>
<g style="fill:#000000; fill-opacity:0.0; 
stroke:#000000; stroke-width:59.0551; stroke-opacity:1; 
stroke-linecap:round; stroke-linejoin:round;">
<path d="M23622 4724
L23622 3937
" />
</g>
<g style="fill:#000000; fill-opacity:0.0; 
stroke:#000000; stroke-width:39.3701; stroke-opacity:1; 
stroke-linecap:round; stroke-linejoin:round;">
</g>
<g style="fill:#000000; fill-opacity:0.0; 
stroke:#000000; stroke-width:59.0551; stroke-opacity:1; 
stroke-linecap:round; stroke-linejoin:round;">
<path d="M43307 4724
L43307 3937
" />
</g>
<g style="fill:#000000; fill-opacity:0.0; 
stroke:#000000; stroke-width:39.3701; stroke-opacity:1; 
stroke-linecap:round; stroke-linejoin:round;">
</g>
<g style="fill:#000000; fill-opacity:0.0; 
stroke:#000000; stroke-width:59.0551; stroke-opacity:1; 
stroke-linecap:round; stroke-linejoin:round;">
<path d="M62992 4724
L62992 3937
" />
</g>
<g style="fill:#000000; fill-opacity:0.0; 
stroke:#000000; stroke-width:39.3701; stroke-opacity:1; 
stroke-linecap:round; stroke-linejoin:round;">
</g>
<g style="fill:#000000; fill-opacity:0.0; 
stroke:#000000; stroke-width:59.0551; stroke-opacity:1; 
stroke-linecap:round; stroke-linejoin:round;">
<path d="M82677 4724
L82677 3937
" />
</g>
<g style="fill:#000000; fill-opacity:0.0; 
stroke:#000000; stroke-width:39.3701; stroke-opacity:1; 
stroke-linecap:round; stroke-linejoin:round;">
</g>
<g style="fill:#000000; fill-opacity:0.0; 
stroke:#000000; stroke-width:59.0551; stroke-opacity:1; 
stroke-linecap:round; stroke-linejoin:round;">
<path d="M102362 4724
L102362 3937
" />
</g>
<g style="fill:#000000; fill-opacity:0.0; 
stroke:#000000; stroke-width:39.3701; stroke-opacity:1; 
stroke-linecap:round; stroke-linejoin:round;">
</g>
<g style="fill:#000000; fill-opacity:0.0; 
stroke:#000000; stroke-width:59.0551; stroke-opacity:1; 
stroke-linecap:round; stroke-linejoin:round;">
<path d="M14199 4562
L13906 4562
" />
<path d="M14052 4562
L14052 4050
L14004 4123
L13955 4172
L13906 4196
" />
</g>
<g style="fill:#000000; fill-opacity:0.0; 
stroke:#000000; stroke-width:39.3701; stroke-opacity:1; 
stroke-linecap:round; stroke-linejoin:round;">
</g>
<g style="fill:#000000; fill-opacity:0.0; 
stroke:#000000; stroke-width:59.0551; stroke-opacity:1; 
stroke-linecap:round; stroke-linejoin:round;">
<path d="M33591 4099
L33615 4074
L33664 4050
L33786 4050
L33835 4074
L33859 4099
L33884 4147
L33884 4196
L33859 4269
L33567 4562
L33884 4562
" />
</g>
<g style="fill:#000000; fill-opacity:0.0; 
stroke:#000000; stroke-width:39.3701; stroke-opacity:1; 
stroke-linecap:round; stroke-linejoin:round;">
</g>
<g style="fill:#000000; fill-opacity:0.0; 
stroke:#000000; stroke-width:59.0551; stroke-opacity:1; 
stroke-linecap:round; stroke-linejoin:round;">
<path d="M53252 4050
L53569 4050
L53398 4245
L53471 4245
L53520 4269
L53544 4294
L53569 4342
L53569 4464
L53544 4513
L53520 4537
L53471 4562
L53325 4562
L53276 4537
L53252 4513
" />
</g>
<g style="fill:#000000; fill-opacity:0.0; 
stroke:#000000; stroke-width:39.3701; stroke-opacity:1; 
stroke-linecap:round; stroke-linejoin:round;">
</g>
<g style="fill:#000000; fill-opacity:0.0; 
stroke:#000000; stroke-width:59.0551; stroke-opacity:1; 
stroke-linecap:round; stroke-linejoin:round;">
<path d="M73205 4221
L73205 4562
" />
<path d="M73083 4026
L72961 4391
L73278 4391
" />
</g>
<g style="fill:#000000; fill-opacity:0.0; 
stroke:#000000; stroke-width:39.3701; stroke-opacity:1; 
stroke-linecap:round; stroke-linejoin:round;">
</g>
<g style="fill:#000000; fill-opacity:0.0; 
stroke:#000000; stroke-width:59.0551; stroke-opacity:1; 
stroke-linecap:round; stroke-linejoin:round;">
<path d="M92914 4050
L92671 4050
L92646 4294
L92671 4269
L92719 4245
L92841 4245
L92890 4269
L92914 4294
L92939 4342
L92939 4464
L92914 4513
L92890 4537
L92841 4562
L92719 4562
L92671 4537
L92646 4513
" />
</g>
<g style="fill:#000000; fill-opacity:0.0; 
stroke:#000000; stroke-width:39.3701; stroke-opacity:1; 
stroke-linecap:round; stroke-linejoin:round;">
</g>
<g style="fill:#000000; fill-opacity:0.0; 
stroke:#000000; stroke-width:59.0551; stroke-opacity:1; 
stroke-linecap:round; stroke-linejoin:round;">
<path d="M112575 4050
L112477 4050
L112429 4074
L112404 4099
L112356 4172
L112331 4269
L112331 4464
L112356 4513
L112380 4537
L112429 4562
L112526 4562
L112575 4537
L112599 4513
L112624 4464
L112624 4342
L112599 4294
L112575 4269
L112526 4245
L112429 4245
L112380 4269
L112356 4294
L112331 4342
" />
</g>
<g style="fill:#000000; fill-opacity:0.0; 
stroke:#000000; stroke-width:39.3701; stroke-opacity:1; 
stroke-linecap:round; stroke-linejoin:round;">
</g>
<g style="fill:#000000; fill-opacity:0.0; 
stroke:#000000; stroke-width:59.0551; stroke-opacity:1; 
stroke-linecap:round; stroke-linejoin:round;">
<path d="M23622 77955
L23622 78742
" />
</g>
<g style="fill:#000000; fill-opacity:0.0; 
stroke:#000000; stroke-width:39.3701; stroke-opacity:1; 
stroke-linecap:round; stroke-linejoin:round;">
</g>
<g style="fill:#000000; fill-opacity:0.0; 
stroke:#000000; stroke-width:59.0551; stroke-opacity:1; 
stroke-linecap:round; stroke-linejoin:round;">
<path d="M43307 77955
L43307 78742
" />
</g>
<g style="fill:#000000; fill-opacity:0.0; 
stroke:#000000; stroke-width:39.3701; stroke-opacity:1; 
stroke-linecap:round; stroke-linejoin:round;">
</g>
<g style="fill:#000000; fill-opacity:0.0; 
stroke:#000000; stroke-width:59.0551; stroke-opacity:1; 
stroke-linecap:round; stroke-linejoin:round;">
<path d="M62992 77955
L62992 78742
" />
</g>
<g style="fill:#000000; fill-opacity:0.0; 
stroke:#000000; stroke-width:39.3701; stroke-opacity:1; 
stroke-linecap:round; stroke-linejoin:round;">
</g>
<g style="fill:#000000; fill-opacity:0.0; 
stroke:#000000; stroke-width:59.0551; stroke-opacity:1; 
stroke-linecap:round; stroke-linejoin:round;">
<path d="M82677 77955
L82677 78742
" />
</g>
<g style="fill:#000000; fill-opacity:0.0; 
stroke:#000000; stroke-width:39.3701; stroke-opacity:1; 
stroke-linecap:round; stroke-linejoin:round;">
</g>
<g style="fill:#000000; fill-opacity:0.0; 
stroke:#000000; stroke-width:59.0551; stroke-opacity:1; 
stroke-linecap:round; stroke-linejoin:round;">
<path d="M102362 77955
L102362 78742
" />
</g>
<g style="fill:#000000; fill-opacity:0.0; 
stroke:#000000; stroke-width:39.3701; stroke-opacity:1; 
stroke-linecap:round; stroke-linejoin:round;">
</g>
<g style="fill:#000000; fill-opacity:0.0; 
stroke:#000000; stroke-width:59.0551; stroke-opacity:1; 
stroke-linecap:round; stroke-linejoin:round;">
<path d="M14199 78580
L13906 78580
" />
<path d="M14052 78580
L14052 78069
L14004 78142
L13955 78190
L13906 78215
" />
</g>
<g style="fill:#000000; fill-opacity:0.0; 
stroke:#000000; stroke-width:39.3701; stroke-opacity:1; 
stroke-linecap:round; stroke-linejoin:round;">
</g>
<g style="fill:#000000; fill-opacity:0.0; 
stroke:#000000; stroke-width:59.0551; stroke-opacity:1; 
stroke-linecap:round; stroke-linejoin:round;">
<path d="M33591 78117
L33615 78093
L33664 78069
L33786 78069
L33835 78093
L33859 78117
L33884 78166
L33884 78215
L33859 78288
L33567 78580
L33884 78580
" />
</g>
<g style="fill:#000000; fill-opacity:0.0; 
stroke:#000000; stroke-width:39.3701; stroke-opacity:1; 
stroke-linecap:round; stroke-linejoin:round;">
</g>
<g style="fill:#000000; fill-opacity:0.0; 
stroke:#000000; stroke-width:59.0551; stroke-opacity:1; 
stroke-linecap:round; stroke-linejoin:round;">
<path d="M53252 78069
L53569 78069
L53398 78263
L53471 78263
L53520 78288
L53544 78312
L53569 78361
L53569 78483
L53544 78532
L53520 78556
L53471 78580
L53325 78580
L53276 78556
L53252 78532
" />
</g>
<g style="fill:#000000; fill-opacity:0.0; 
stroke:#000000; stroke-width:39.3701; stroke-opacity:1; 
stroke-linecap:round; stroke-linejoin:round;">
</g>
<g style="fill:#000000; fill-opacity:0.0; 
stroke:#000000; stroke-width:59.0551; stroke-opacity:1; 
stroke-linecap:round; stroke-linejoin:round;">
<path d="M73205 78239
L73205 78580
" />
<path d="M73083 78044
L72961 78410
L73278 78410
" />
</g>
<g style="fill:#000000; fill-opacity:0.0; 
stroke:#000000; stroke-width:39.3701; stroke-opacity:1; 
stroke-linecap:round; stroke-linejoin:round;">
</g>
<g style="fill:#000000; fill-opacity:0.0; 
stroke:#000000; stroke-width:59.0551; stroke-opacity:1; 
stroke-linecap:round; stroke-linejoin:round;">
<path d="M92914 78069
L92671 78069
L92646 78312
L92671 78288
L92719 78263
L92841 78263
L92890 78288
L92914 78312
L92939 78361
L92939 78483
L92914 78532
L92890 78556
L92841 78580
L92719 78580
L92671 78556
L92646 78532
" />
</g>
<g style="fill:#000000; fill-opacity:0.0; 
stroke:#000000; stroke-width:39.3701; stroke-opacity:1; 
stroke-linecap:round; stroke-linejoin:round;">
</g>
<g style="fill:#000000; fill-opacity:0.0; 
stroke:#000000; stroke-width:59.0551; stroke-opacity:1; 
stroke-linecap:round; stroke-linejoin:round;">
<path d="M112575 78069
L112477 78069
L112429 78093
L112404 78117
L112356 78190
L112331 78288
L112331 78483
L112356 78532
L112380 78556
L112429 78580
L112526 78580
L112575 78556
L112599 78532
L112624 78483
L112624 78361
L112599 78312
L112575 78288
L112526 78263
L112429 78263
L112380 78288
L112356 78312
L112331 78361
" />
</g>
<g style="fill:#000000; fill-opacity:0.0; 
stroke:#000000; stroke-width:39.3701; stroke-opacity:1; 
stroke-linecap:round; stroke-linejoin:round;">
</g>
<g style="fill:#000000; fill-opacity:0.0; 
stroke:#000000; stroke-width:59.0551; stroke-opacity:1; 
stroke-linecap:round; stroke-linejoin:round;">
<path d="M3937 23622
L4724 23622
" />
</g>
<g style="fill:#000000; fill-opacity:0.0; 
stroke:#000000; stroke-width:39.3701; stroke-opacity:1; 
stroke-linecap:round; stroke-linejoin:round;">
</g>
<g style="fill:#000000; fill-opacity:0.0; 
stroke:#000000; stroke-width:59.0551; stroke-opacity:1; 
stroke-linecap:round; stroke-linejoin:round;">
<path d="M3937 43307
L4724 43307
" />
</g>
<g style="fill:#000000; fill-opacity:0.0; 
stroke:#000000; stroke-width:39.3701; stroke-opacity:1; 
stroke-linecap:round; stroke-linejoin:round;">
</g>
<g style="fill:#000000; fill-opacity:0.0; 
stroke:#000000; stroke-width:59.0551; stroke-opacity:1; 
stroke-linecap:round; stroke-linejoin:round;">
<path d="M3937 62992
L4724 62992
" />
</g>
<g style="fill:#000000; fill-opacity:0.0; 
stroke:#000000; stroke-width:39.3701; stroke-opacity:1; 
stroke-linecap:round; stroke-linejoin:round;">
</g>
<g style="fill:#000000; fill-opacity:0.0; 
stroke:#000000; stroke-width:59.0551; stroke-opacity:1; 
stroke-linecap:round; stroke-linejoin:round;">
<path d="M4208 13864
L4452 13864
" />
<path d="M4160 14011
L4330 13499
L4501 14011
" />
</g>
<g style="fill:#000000; fill-opacity:0.0; 
stroke:#000000; stroke-width:39.3701; stroke-opacity:1; 
stroke-linecap:round; stroke-linejoin:round;">
</g>
<g style="fill:#000000; fill-opacity:0.0; 
stroke:#000000; stroke-width:59.0551; stroke-opacity:1; 
stroke-linecap:round; stroke-linejoin:round;">
<path d="M4367 33428
L4440 33452
L4464 33476
L4489 33525
L4489 33598
L4464 33647
L4440 33671
L4391 33696
L4196 33696
L4196 33184
L4367 33184
L4416 33208
L4440 33233
L4464 33281
L4464 33330
L4440 33379
L4416 33403
L4367 33428
L4196 33428
" />
</g>
<g style="fill:#000000; fill-opacity:0.0; 
stroke:#000000; stroke-width:39.3701; stroke-opacity:1; 
stroke-linecap:round; stroke-linejoin:round;">
</g>
<g style="fill:#000000; fill-opacity:0.0; 
stroke:#000000; stroke-width:59.0551; stroke-opacity:1; 
stroke-linecap:round; stroke-linejoin:round;">
<path d="M4489 53332
L4464 53356
L4391 53381
L4342 53381
L4269 53356
L4221 53308
L4196 53259
L4172 53161
L4172 53088
L4196 52991
L4221 52942
L4269 52893
L4342 52869
L4391 52869
L4464 52893
L4489 52918
" />
</g>
<g style="fill:#000000; fill-opacity:0.0; 
stroke:#000000; stroke-width:39.3701; stroke-opacity:1; 
stroke-linecap:round; stroke-linejoin:round;">
</g>
<g style="fill:#000000; fill-opacity:0.0; 
stroke:#000000; stroke-width:59.0551; stroke-opacity:1; 
stroke-linecap:round; stroke-linejoin:round;">
<path d="M4196 73066
L4196 72554
L4318 72554
L4391 72578
L4440 72627
L4464 72676
L4489 72773
L4489 72846
L4464 72944
L4440 72993
L4391 73041
L4318 73066
L4196 73066
" />
</g>
<g style="fill:#000000; fill-opacity:0.0; 
stroke:#000000; stroke-width:39.3701; stroke-opacity:1; 
stroke-linecap:round; stroke-linejoin:round;">
</g>
<g style="fill:#000000; fill-opacity:0.0; 
stroke:#000000; stroke-width:59.0551; stroke-opacity:1; 
stroke-linecap:round; stroke-linejoin:round;">
<path d="M112992 23622
L112205 23622
" />
</g>
<g style="fill:#000000; fill-opacity:0.0; 
stroke:#000000; stroke-width:39.3701; stroke-opacity:1; 
stroke-linecap:round; stroke-linejoin:round;">
</g>
<g style="fill:#000000; fill-opacity:0.0; 
stroke:#000000; stroke-width:59.0551; stroke-opacity:1; 
stroke-linecap:round; stroke-linejoin:round;">
<path d="M112992 43307
L112205 43307
" />
</g>
<g style="fill:#000000; fill-opacity:0.0; 
stroke:#000000; stroke-width:39.3701; stroke-opacity:1; 
stroke-linecap:round; stroke-linejoin:round;">
</g>
<g style="fill:#000000; fill-opacity:0.0; 
stroke:#000000; stroke-width:59.0551; stroke-opacity:1; 
stroke-linecap:round; stroke-linejoin:round;">
<path d="M112992 62992
L112205 62992
" />
</g>
<g style="fill:#000000; fill-opacity:0.0; 
stroke:#000000; stroke-width:39.3701; stroke-opacity:1; 
stroke-linecap:round; stroke-linejoin:round;">
</g>
<g style="fill:#000000; fill-opacity:0.0; 
stroke:#000000; stroke-width:59.0551; stroke-opacity:1; 
stroke-linecap:round; stroke-linejoin:round;">
<path d="M112477 13864
L112721 13864
" />
<path d="M112428 14011
L112599 13499
L112769 14011
" />
</g>
<g style="fill:#000000; fill-opacity:0.0; 
stroke:#000000; stroke-width:39.3701; stroke-opacity:1; 
stroke-linecap:round; stroke-linejoin:round;">
</g>
<g style="fill:#000000; fill-opacity:0.0; 
stroke:#000000; stroke-width:59.0551; stroke-opacity:1; 
stroke-linecap:round; stroke-linejoin:round;">
<path d="M112635 33428
L112708 33452
L112733 33476
L112757 33525
L112757 33598
L112733 33647
L112708 33671
L112660 33696
L112465 33696
L112465 33184
L112635 33184
L112684 33208
L112708 33233
L112733 33281
L112733 33330
L112708 33379
L112684 33403
L112635 33428
L112465 33428
" />
</g>
<g style="fill:#000000; fill-opacity:0.0; 
stroke:#000000; stroke-width:39.3701; stroke-opacity:1; 
stroke-linecap:round; stroke-linejoin:round;">
</g>
<g style="fill:#000000; fill-opacity:0.0; 
stroke:#000000; stroke-width:59.0551; stroke-opacity:1; 
stroke-linecap:round; stroke-linejoin:round;">
<path d="M112757 53332
L112733 53356
L112660 53381
L112611 53381
L112538 53356
L112489 53308
L112465 53259
L112440 53161
L112440 53088
L112465 52991
L112489 52942
L112538 52893
L112611 52869
L112660 52869
L112733 52893
L112757 52918
" />
</g>
<g style="fill:#000000; fill-opacity:0.0; 
stroke:#000000; stroke-width:39.3701; stroke-opacity:1; 
stroke-linecap:round; stroke-linejoin:round;">
</g>
<g style="fill:#000000; fill-opacity:0.0; 
stroke:#000000; stroke-width:59.0551; stroke-opacity:1; 
stroke-linecap:round; stroke-linejoin:round;">
<path d="M112465 73066
L112465 72554
L112587 72554
L112660 72578
L112708 72627
L112733 72676
L112757 72773
L112757 72846
L112733 72944
L112708 72993
L112660 73041
L112587 73066
L112465 73066
" />
</g>
<g style="fill:#000000; fill-opacity:0.0; 
stroke:#000000; stroke-width:39.3701; stroke-opacity:1; 
stroke-linecap:round; stroke-linejoin:round;">
</g>
<g style="fill:#000000; fill-opacity:0.0; 
stroke:#000000; stroke-width:59.0551; stroke-opacity:1; 
stroke-linecap:round; stroke-linejoin:round;">
<path d="M78911 76293
L78911 75703
L79051 75703
L79136 75731
L79192 75787
L79220 75843
L79248 75956
L79248 76040
L79220 76153
L79192 76209
L79136 76265
L79051 76293
L78911 76293
" />
<path d="M79754 76293
L79754 75984
L79726 75928
L79670 75899
L79557 75899
L79501 75928
" />
<path d="M79754 76265
L79698 76293
L79557 76293
L79501 76265
L79473 76209
L79473 76153
L79501 76096
L79557 76068
L79698 76068
L79754 76040
" />
<path d="M79951 75899
L80176 75899
" />
<path d="M80036 75703
L80036 76209
L80064 76265
L80120 76293
L80176 76293
" />
<path d="M80598 76265
L80542 76293
L80429 76293
L80373 76265
L80345 76209
L80345 75984
L80373 75928
L80429 75899
L80542 75899
L80598 75928
L80626 75984
L80626 76040
L80345 76096
" />
<path d="M80879 76237
L80907 76265
L80879 76293
L80851 76265
L80879 76237
L80879 76293
" />
<path d="M80879 75928
L80907 75956
L80879 75984
L80851 75956
L80879 75928
L80879 75984
" />
</g>
<g style="fill:#000000; fill-opacity:0.0; 
stroke:#000000; stroke-width:39.3701; stroke-opacity:1; 
stroke-linecap:round; stroke-linejoin:round;">
</g>
<g style="fill:#000000; fill-opacity:0.0; 
stroke:#000000; stroke-width:59.0551; stroke-opacity:1; 
stroke-linecap:round; stroke-linejoin:round;">
<path d="M69685 76577
L112205 76577
" />
</g>
<g style="fill:#000000; fill-opacity:0.0; 
stroke:#000000; stroke-width:39.3701; stroke-opacity:1; 
stroke-linecap:round; stroke-linejoin:round;">
</g>
<g style="fill:#000000; fill-opacity:0.0; 
stroke:#000000; stroke-width:59.0551; stroke-opacity:1; 
stroke-linecap:round; stroke-linejoin:round;">
<path d="M70249 77395
L70249 76805
" />
<path d="M70587 77395
L70334 77058
" />
<path d="M70587 76805
L70249 77142
" />
<path d="M70840 77395
L70840 77002
" />
<path d="M70840 76805
L70812 76833
L70840 76861
L70868 76833
L70840 76805
L70840 76861
" />
<path d="M71458 77339
L71430 77367
L71346 77395
L71290 77395
L71205 77367
L71149 77311
L71121 77255
L71093 77142
L71093 77058
L71121 76946
L71149 76889
L71205 76833
L71290 76805
L71346 76805
L71430 76833
L71458 76861
" />
<path d="M71965 77395
L71965 77086
L71937 77030
L71880 77002
L71768 77002
L71712 77030
" />
<path d="M71965 77367
L71908 77395
L71768 77395
L71712 77367
L71683 77311
L71683 77255
L71712 77199
L71768 77171
L71908 77171
L71965 77142
" />
<path d="M72499 77395
L72499 76805
" />
<path d="M72499 77367
L72443 77395
L72330 77395
L72274 77367
L72246 77339
L72218 77283
L72218 77114
L72246 77058
L72274 77030
L72330 77002
L72443 77002
L72499 77030
" />
<path d="M73230 77086
L73427 77086
" />
<path d="M73511 77395
L73230 77395
L73230 76805
L73511 76805
" />
<path d="M73764 77339
L73793 77367
L73764 77395
L73736 77367
L73764 77339
L73764 77395
" />
<path d="M74046 77395
L74046 76805
L74186 76805
L74271 76833
L74327 76889
L74355 76946
L74383 77058
L74383 77142
L74355 77255
L74327 77311
L74271 77367
L74186 77395
L74046 77395
" />
<path d="M74636 77339
L74664 77367
L74636 77395
L74608 77367
L74636 77339
L74636 77395
" />
<path d="M74889 77227
L75171 77227
" />
<path d="M74833 77395
L75030 76805
L75227 77395
" />
<path d="M75424 77339
L75452 77367
L75424 77395
L75395 77367
L75424 77339
L75424 77395
" />
<path d="M76605 77395
L76605 76805
" />
<path d="M76661 77171
L76830 77395
" />
<path d="M76830 77002
L76605 77227
" />
<path d="M77083 77395
L77083 77002
" />
<path d="M77083 76805
L77055 76833
L77083 76861
L77111 76833
L77083 76805
L77083 76861
" />
<path d="M77617 77367
L77561 77395
L77448 77395
L77392 77367
L77364 77339
L77336 77283
L77336 77114
L77364 77058
L77392 77030
L77448 77002
L77561 77002
L77617 77030
" />
<path d="M78123 77395
L78123 77086
L78095 77030
L78039 77002
L77926 77002
L77870 77030
" />
<path d="M78123 77367
L78067 77395
L77926 77395
L77870 77367
L77842 77311
L77842 77255
L77870 77199
L77926 77171
L78067 77171
L78123 77142
" />
<path d="M78658 77395
L78658 76805
" />
<path d="M78658 77367
L78601 77395
L78489 77395
L78433 77367
L78404 77339
L78376 77283
L78376 77114
L78404 77058
L78433 77030
L78489 77002
L78601 77002
L78658 77030
" />
<path d="M79557 77620
L79529 77592
L79473 77508
L79445 77452
L79417 77367
L79389 77227
L79389 77114
L79417 76974
L79445 76889
L79473 76833
L79529 76749
L79557 76721
" />
<path d="M80064 76805
L79782 76805
L79754 77086
L79782 77058
L79839 77030
L79979 77030
L80036 77058
L80064 77086
L80092 77142
L80092 77283
L80064 77339
L80036 77367
L79979 77395
L79839 77395
L79782 77367
L79754 77339
" />
<path d="M80345 77339
L80373 77367
L80345 77395
L80317 77367
L80345 77339
L80345 77395
" />
<path d="M80935 77395
L80598 77395
" />
<path d="M80767 77395
L80767 76805
L80710 76889
L80654 76946
L80598 76974
" />
<path d="M81188 77339
L81217 77367
L81188 77395
L81160 77367
L81188 77339
L81188 77395
" />
<path d="M81442 76861
L81470 76833
L81526 76805
L81667 76805
L81723 76833
L81751 76861
L81779 76917
L81779 76974
L81751 77058
L81413 77395
L81779 77395
" />
<path d="M82032 77171
L82482 77171
" />
<path d="M83073 77395
L82735 77395
" />
<path d="M82904 77395
L82904 76805
L82848 76889
L82791 76946
L82735 76974
" />
<path d="M83269 77620
L83298 77592
L83354 77508
L83382 77452
L83410 77367
L83438 77227
L83438 77114
L83410 76974
L83382 76889
L83354 76833
L83298 76749
L83269 76721
" />
<path d="M83719 77171
L84169 77171
" />
<path d="M84760 77395
L84422 77395
" />
<path d="M84591 77395
L84591 76805
L84535 76889
L84479 76946
L84422 76974
" />
</g>
<g style="fill:#000000; fill-opacity:0.0; 
stroke:#000000; stroke-width:39.3701; stroke-opacity:1; 
stroke-linecap:round; stroke-linejoin:round;">
</g>
<g style="fill:#000000; fill-opacity:0.0; 
stroke:#000000; stroke-width:59.0551; stroke-opacity:1; 
stroke-linecap:round; stroke-linejoin:round;">
<path d="M69685 75396
L112205 75396
" />
</g>
<g style="fill:#000000; fill-opacity:0.0; 
stroke:#000000; stroke-width:39.3701; stroke-opacity:1; 
stroke-linecap:round; stroke-linejoin:round;">
</g>
<g style="fill:#000000; fill-opacity:0.0; 
stroke:#000000; stroke-width:118.11; stroke-opacity:1; 
stroke-linecap:round; stroke-linejoin:round;">
<path d="M104099 76293
L103902 76012
" />
<path d="M103761 76293
L103761 75703
L103986 75703
L104042 75731
L104070 75759
L104099 75815
L104099 75899
L104070 75956
L104042 75984
L103986 76012
L103761 76012
" />
<path d="M104577 76265
L104520 76293
L104408 76293
L104352 76265
L104323 76209
L104323 75984
L104352 75928
L104408 75899
L104520 75899
L104577 75928
L104605 75984
L104605 76040
L104323 76096
" />
<path d="M104802 75899
L104942 76293
L105083 75899
" />
<path d="M105308 76237
L105336 76265
L105308 76293
L105280 76265
L105308 76237
L105308 76293
" />
<path d="M105308 75928
L105336 75956
L105308 75984
L105280 75956
L105308 75928
L105308 75984
" />
</g>
<g style="fill:#000000; fill-opacity:0.0; 
stroke:#000000; stroke-width:39.3701; stroke-opacity:1; 
stroke-linecap:round; stroke-linejoin:round;">
</g>
<g style="fill:#000000; fill-opacity:0.0; 
stroke:#000000; stroke-width:59.0551; stroke-opacity:1; 
stroke-linecap:round; stroke-linejoin:round;">
<path d="M70221 76265
L70305 76293
L70446 76293
L70502 76265
L70530 76237
L70559 76181
L70559 76124
L70530 76068
L70502 76040
L70446 76012
L70334 75984
L70277 75956
L70249 75928
L70221 75871
L70221 75815
L70249 75759
L70277 75731
L70334 75703
L70474 75703
L70559 75731
" />
<path d="M70812 76293
L70812 75899
" />
<path d="M70812 75703
L70784 75731
L70812 75759
L70840 75731
L70812 75703
L70812 75759
" />
<path d="M71037 75899
L71346 75899
L71037 76293
L71346 76293
" />
<path d="M71796 76265
L71740 76293
L71627 76293
L71571 76265
L71543 76209
L71543 75984
L71571 75928
L71627 75899
L71740 75899
L71796 75928
L71824 75984
L71824 76040
L71543 76096
" />
<path d="M72077 76237
L72105 76265
L72077 76293
L72049 76265
L72077 76237
L72077 76293
" />
<path d="M72077 75928
L72105 75956
L72077 75984
L72049 75956
L72077 75928
L72077 75984
" />
<path d="M72780 76124
L73061 76124
" />
<path d="M72724 76293
L72921 75703
L73118 76293
" />
<path d="M73568 75899
L73568 76293
" />
<path d="M73427 75674
L73286 76096
L73652 76096
" />
</g>
<g style="fill:#000000; fill-opacity:0.0; 
stroke:#000000; stroke-width:39.3701; stroke-opacity:1; 
stroke-linecap:round; stroke-linejoin:round;">
</g>
<g style="fill:#000000; fill-opacity:0.0; 
stroke:#000000; stroke-width:59.0551; stroke-opacity:1; 
stroke-linecap:round; stroke-linejoin:round;">
<path d="M103714 77395
L103714 76805
" />
<path d="M104248 77395
L104248 76805
" />
<path d="M104248 77367
L104192 77395
L104079 77395
L104023 77367
L103995 77339
L103967 77283
L103967 77114
L103995 77058
L104023 77030
L104079 77002
L104192 77002
L104248 77030
" />
<path d="M104529 77339
L104557 77367
L104529 77395
L104501 77367
L104529 77339
L104529 77395
" />
<path d="M104529 77030
L104557 77058
L104529 77086
L104501 77058
L104529 77030
L104529 77086
" />
<path d="M105570 77395
L105232 77395
" />
<path d="M105401 77395
L105401 76805
L105345 76889
L105289 76946
L105232 76974
" />
<path d="M106245 76777
L105739 77536
" />
<path d="M106751 77395
L106413 77395
" />
<path d="M106582 77395
L106582 76805
L106526 76889
L106470 76946
L106413 76974
" />
</g>
<g style="fill:#000000; fill-opacity:0.0; 
stroke:#000000; stroke-width:39.3701; stroke-opacity:1; 
stroke-linecap:round; stroke-linejoin:round;">
</g>
<g style="fill:#000000; fill-opacity:0.0; 
stroke:#000000; stroke-width:59.0551; stroke-opacity:1; 
stroke-linecap:round; stroke-linejoin:round;">
<path d="M69685 73821
L112205 73821
" />
</g>
<g style="fill:#000000; fill-opacity:0.0; 
stroke:#000000; stroke-width:39.3701; stroke-opacity:1; 
stroke-linecap:round; stroke-linejoin:round;">
</g>
<g style="fill:#000000; fill-opacity:0.0; 
stroke:#000000; stroke-width:157.48; stroke-opacity:1; 
stroke-linecap:round; stroke-linejoin:round;">
<path d="M70360 74099
L70810 74099
" />
<path d="M70486 74886
L70585 74099
" />
<path d="M70974 74886
L71039 74361
" />
<path d="M71072 74099
L71030 74136
L71063 74174
L71105 74136
L71072 74099
L71063 74174
" />
<path d="M71302 74361
L71602 74361
" />
<path d="M71447 74099
L71363 74774
L71391 74849
L71461 74886
L71536 74886
" />
<path d="M71911 74886
L71841 74849
L71813 74774
L71897 74099
" />
<path d="M72516 74849
L72436 74886
L72286 74886
L72216 74849
L72187 74774
L72225 74474
L72272 74399
L72352 74361
L72501 74361
L72572 74399
L72600 74474
L72591 74549
L72206 74624
" />
<path d="M72895 74811
L72928 74849
L72886 74886
L72853 74849
L72895 74811
L72886 74886
" />
<path d="M72947 74399
L72980 74436
L72937 74474
L72905 74436
L72947 74399
L72937 74474
" />
</g>
<g style="fill:#000000; fill-opacity:0.0; 
stroke:#000000; stroke-width:39.3701; stroke-opacity:1; 
stroke-linecap:round; stroke-linejoin:round;">
</g>
<g style="fill:#000000; fill-opacity:0.0; 
stroke:#000000; stroke-width:59.0551; stroke-opacity:1; 
stroke-linecap:round; stroke-linejoin:round;">
<path d="M70446 73070
L70249 73070
" />
<path d="M70249 73380
L70249 72789
L70530 72789
" />
<path d="M70755 73380
L70755 72986
" />
<path d="M70755 72789
L70727 72817
L70755 72845
L70784 72817
L70755 72789
L70755 72845
" />
<path d="M71121 73380
L71065 73352
L71037 73295
L71037 72789
" />
<path d="M71571 73352
L71515 73380
L71402 73380
L71346 73352
L71318 73295
L71318 73070
L71346 73014
L71402 72986
L71515 72986
L71571 73014
L71599 73070
L71599 73127
L71318 73183
" />
<path d="M71852 73323
L71880 73352
L71852 73380
L71824 73352
L71852 73323
L71852 73380
" />
<path d="M71852 73014
L71880 73042
L71852 73070
L71824 73042
L71852 73014
L71852 73070
" />
<path d="M72583 73380
L72583 72789
L72921 73380
L72921 72789
" />
<path d="M73202 73380
L73202 72986
" />
<path d="M73202 72789
L73174 72817
L73202 72845
L73230 72817
L73202 72789
L73202 72845
" />
<path d="M73427 73380
L73736 72986
" />
<path d="M73427 72986
L73736 73380
" />
<path d="M73961 73380
L73961 72986
" />
<path d="M73961 72789
L73933 72817
L73961 72845
L73989 72817
L73961 72789
L73961 72845
" />
<path d="M74467 73352
L74411 73380
L74299 73380
L74242 73352
L74214 73295
L74214 73070
L74242 73014
L74299 72986
L74411 72986
L74467 73014
L74496 73070
L74496 73127
L74214 73183
" />
<path d="M74749 73323
L74777 73352
L74749 73380
L74721 73352
L74749 73323
L74749 73380
" />
<path d="M75030 73380
L75030 72789
" />
<path d="M75086 73155
L75255 73380
" />
<path d="M75255 72986
L75030 73211
" />
<path d="M75508 73380
L75508 72986
" />
<path d="M75508 72789
L75480 72817
L75508 72845
L75536 72817
L75508 72789
L75508 72845
" />
<path d="M76042 73352
L75986 73380
L75874 73380
L75817 73352
L75789 73323
L75761 73267
L75761 73099
L75789 73042
L75817 73014
L75874 72986
L75986 72986
L76042 73014
" />
<path d="M76548 73380
L76548 73070
L76520 73014
L76464 72986
L76352 72986
L76295 73014
" />
<path d="M76548 73352
L76492 73380
L76352 73380
L76295 73352
L76267 73295
L76267 73239
L76295 73183
L76352 73155
L76492 73155
L76548 73127
" />
<path d="M77083 73380
L77083 72789
" />
<path d="M77083 73352
L77027 73380
L76914 73380
L76858 73352
L76830 73323
L76802 73267
L76802 73099
L76830 73042
L76858 73014
L76914 72986
L77027 72986
L77083 73014
" />
<path d="M77223 73436
L77673 73436
" />
<path d="M77814 72986
L77814 73577
" />
<path d="M77814 73014
L77870 72986
L77983 72986
L78039 73014
L78067 73042
L78095 73099
L78095 73267
L78067 73323
L78039 73352
L77983 73380
L77870 73380
L77814 73352
" />
<path d="M78601 73352
L78545 73380
L78433 73380
L78376 73352
L78348 73323
L78320 73267
L78320 73099
L78348 73042
L78376 73014
L78433 72986
L78545 72986
L78601 73014
" />
<path d="M78854 73380
L78854 72789
" />
<path d="M78854 73014
L78911 72986
L79023 72986
L79079 73014
L79108 73042
L79136 73099
L79136 73267
L79108 73323
L79079 73352
L79023 73380
L78911 73380
L78854 73352
" />
</g>
<g style="fill:#000000; fill-opacity:0.0; 
stroke:#000000; stroke-width:39.3701; stroke-opacity:1; 
stroke-linecap:round; stroke-linejoin:round;">
</g>
<g style="fill:#000000; fill-opacity:0.0; 
stroke:#000000; stroke-width:59.0551; stroke-opacity:1; 
stroke-linecap:round; stroke-linejoin:round;">
<path d="M69685 71459
L112205 71459
" />
</g>
<g style="fill:#000000; fill-opacity:0.0; 
stroke:#000000; stroke-width:39.3701; stroke-opacity:1; 
stroke-linecap:round; stroke-linejoin:round;">
</g>
<g style="fill:#000000; fill-opacity:0.0; 
stroke:#000000; stroke-width:59.0551; stroke-opacity:1; 
stroke-linecap:round; stroke-linejoin:round;">
<path d="M70221 72289
L70305 72317
L70446 72317
L70502 72289
L70530 72260
L70559 72204
L70559 72148
L70530 72092
L70502 72064
L70446 72036
L70334 72007
L70277 71979
L70249 71951
L70221 71895
L70221 71839
L70249 71782
L70277 71754
L70334 71726
L70474 71726
L70559 71754
" />
<path d="M70812 72317
L70812 71726
" />
<path d="M71065 72317
L71065 72007
L71037 71951
L70980 71923
L70896 71923
L70840 71951
L70812 71979
" />
<path d="M71571 72289
L71515 72317
L71402 72317
L71346 72289
L71318 72232
L71318 72007
L71346 71951
L71402 71923
L71515 71923
L71571 71951
L71599 72007
L71599 72064
L71318 72120
" />
<path d="M72077 72289
L72021 72317
L71908 72317
L71852 72289
L71824 72232
L71824 72007
L71852 71951
L71908 71923
L72021 71923
L72077 71951
L72105 72007
L72105 72064
L71824 72120
" />
<path d="M72274 71923
L72499 71923
" />
<path d="M72358 71726
L72358 72232
L72386 72289
L72443 72317
L72499 72317
" />
<path d="M72696 72260
L72724 72289
L72696 72317
L72668 72289
L72696 72260
L72696 72317
" />
<path d="M72696 71951
L72724 71979
L72696 72007
L72668 71979
L72696 71951
L72696 72007
" />
</g>
<g style="fill:#000000; fill-opacity:0.0; 
stroke:#000000; stroke-width:39.3701; stroke-opacity:1; 
stroke-linecap:round; stroke-linejoin:round;">
</g>
<g style="fill:#000000; fill-opacity:0.0; 
stroke:#000000; stroke-width:59.0551; stroke-opacity:1; 
stroke-linecap:round; stroke-linejoin:round;">
<path d="M77559 75396
L77559 76577
" />
</g>
<g style="fill:#000000; fill-opacity:0.0; 
stroke:#000000; stroke-width:39.3701; stroke-opacity:1; 
stroke-linecap:round; stroke-linejoin:round;">
</g>
<g style="fill:#000000; fill-opacity:0.0; 
stroke:#000000; stroke-width:59.0551; stroke-opacity:1; 
stroke-linecap:round; stroke-linejoin:round;">
<path d="M102756 75396
L102756 77955
" />
</g>
<g style="fill:#008484; fill-opacity:0.0; 
stroke:#008484; stroke-width:59.0551; stroke-opacity:1; 
stroke-linecap:round; stroke-linejoin:round;">
</g>
<g style="fill:#008484; fill-opacity:0.0; 
stroke:#008484; stroke-width:47.2441; stroke-opacity:1; 
stroke-linecap:round; stroke-linejoin:round;">
<path d="M68480 35094
L68897 35094
" />
<path d="M68480 35511
L68480 35094
" />
<path d="M69291 35094
L70102 35094
" />
<path d="M69291 35905
L69291 35094
" />
<path d="M68480 35905
L69291 35905
" />
<path d="M70102 35094
L70102 40653
" />
<path d="M68480 35905
L68480 40653
" />
<path d="M68480 40653
L70102 40653
" />
</g>
<g style="fill:#008484; fill-opacity:0.0; 
stroke:#008484; stroke-width:100; stroke-opacity:1; 
stroke-linecap:round; stroke-linejoin:round;">
<circle cx="64604.5" cy="34383.1" r="3493" /> 
<path d="M67604.5 34383.1 A3000.16 3000.16 0.0 1 0 61604.5 34445.1 " />
</g>
<g style="fill:#008484; fill-opacity:0.0; 
stroke:#008484; stroke-width:47.2441; stroke-opacity:1; 
stroke-linecap:round; stroke-linejoin:round;">
<path d="M69440 41590
L69074 41590
" />
<path d="M68196 41590
L68562 41590
" />
<path d="M68196 41590
L68196 42440
" />
<path d="M69440 41590
L69440 42165
" />
<path d="M62629 41590
L62263 41590
" />
<path d="M61385 41590
L61751 41590
" />
<path d="M61385 41590
L61385 42440
" />
<path d="M62629 41590
L62629 42165
" />
<path d="M64125 41590
L63759 41590
" />
<path d="M62881 41590
L63248 41590
" />
<path d="M62881 41590
L62881 42440
" />
<path d="M64125 41590
L64125 42165
" />
<path d="M65937 38755
L65570 38755
" />
<path d="M64692 38755
L65059 38755
" />
<path d="M64692 38755
L64692 39606
" />
<path d="M65937 38755
L65937 39330
" />
<path d="M67433 38755
L67433 39330
" />
<path d="M66188 38755
L66188 39606
" />
<path d="M66188 38755
L66555 38755
" />
<path d="M67433 38755
L67066 38755
" />
<path d="M66803 43165
L66803 43740
" />
<path d="M65559 43165
L65559 44015
" />
<path d="M65559 43165
L65925 43165
" />
<path d="M66803 43165
L66437 43165
" />
<path d="M61094 41590
L61094 42165
" />
<path d="M59850 41590
L59850 42440
" />
<path d="M59850 41590
L60216 41590
" />
<path d="M61094 41590
L60728 41590
" />
<path d="M62944 38755
L62944 39330
" />
<path d="M61700 38755
L61700 39606
" />
<path d="M61700 38755
L62066 38755
" />
<path d="M62944 38755
L62578 38755
" />
<path d="M64440 38755
L64440 39330
" />
<path d="M63196 38755
L63196 39606
" />
<path d="M63196 38755
L63562 38755
" />
<path d="M64440 38755
L64074 38755
" />
<path d="M66409 41590
L66409 42165
" />
<path d="M65165 41590
L65165 42440
" />
<path d="M65165 41590
L65531 41590
" />
<path d="M66409 41590
L66043 41590
" />
<path d="M67905 41590
L67539 41590
" />
<path d="M66661 41590
L67027 41590
" />
<path d="M66661 41590
L66661 42440
" />
<path d="M67905 41590
L67905 42165
" />
<path d="M64598 43165
L64232 43165
" />
<path d="M63354 43165
L63720 43165
" />
<path d="M63354 43165
L63354 44015
" />
<path d="M64598 43165
L64598 43740
" />
<path d="M68224 43371
L68224 43243
" />
<path d="M68625 43371
L68625 43243
" />
<path d="M61413 43449
L61413 43321
" />
<path d="M61814 43449
L61814 43321
" />
<path d="M62673 43449
L62673 43321
" />
<path d="M63074 43449
L63074 43321
" />
<path d="M64720 40457
L64720 40329
" />
<path d="M65122 40457
L65122 40329
" />
<path d="M66216 40457
L66216 40329
" />
<path d="M66618 40457
L66618 40329
" />
<path d="M66171 44767
L66043 44767
" />
<path d="M66171 44366
L66043 44366
" />
<path d="M60279 43449
L60279 43321
" />
<path d="M59877 43449
L59877 43321
" />
<path d="M61728 40462
L61728 40334
" />
<path d="M62129 40462
L62129 40334
" />
<path d="M63848 40318
L63720 40318
" />
<path d="M63848 39917
L63720 39917
" />
<path d="M64917 43454
L64917 43326
" />
<path d="M65318 43454
L65318 43326
" />
<path d="M67082 43449
L67082 43321
" />
<path d="M67484 43449
L67484 43321
" />
<path d="M63961 44366
L63833 44366
" />
<path d="M63961 44767
L63833 44767
" />
<path d="M62759 36835
L62759 36707
" />
<path d="M62358 36835
L62358 36707
" />
<path d="M63066 35103
L63066 34975
" />
<path d="M63468 35103
L63468 34975
" />
<path d="M63232 33838
L63232 33710
" />
<path d="M62830 33838
L62830 33710
" />
<path d="M63862 33287
L63862 33159
" />
<path d="M63460 33287
L63460 33159
" />
<path d="M64492 33051
L64492 32923
" />
<path d="M64090 33051
L64090 32923
" />
<path d="M65122 33051
L65122 32923
" />
<path d="M64720 33051
L64720 32923
" />
<path d="M65751 33287
L65751 33159
" />
<path d="M65350 33287
L65350 33159
" />
<path d="M66381 33917
L66381 33789
" />
<path d="M65980 33917
L65980 33789
" />
<path d="M66145 35187
L66145 35058
" />
<path d="M65744 35187
L65744 35058
" />
<path d="M66854 36840
L66854 36712
" />
<path d="M66452 36840
L66452 36712
" />
<path d="M65507 37494
L65507 37623
" />
<path d="M65909 37494
L65909 37623
" />
<path d="M63625 37494
L63625 37623
" />
<path d="M63224 37494
L63224 37623
" />
</g>
<g style="fill:#008484; fill-opacity:0.0; 
stroke:#008484; stroke-width:59.0551; stroke-opacity:1; 
stroke-linecap:round; stroke-linejoin:round;">
<path d="M-434 -1791
L-566 -1979
" />
<path d="M-659 -1791
L-659 -2185
L-509 -2185
L-472 -2166
L-453 -2148
L-434 -2110
L-434 -2054
L-453 -2016
L-472 -1998
L-509 -1979
L-659 -1979
" />
<path d="M-266 -1998
L-134 -1998
" />
<path d="M-78 -1791
L-266 -1791
L-266 -2185
L-78 -2185
" />
<path d="M221 -1998
L89 -1998
" />
<path d="M89 -1791
L89 -2185
L277 -2185
" />
<path d="M483 -2185
L483 -2091
" />
<path d="M389 -2129
L483 -2091
L577 -2129
" />
<path d="M427 -2016
L483 -2091
L539 -2016
" />
<path d="M783 -2185
L783 -2091
" />
<path d="M689 -2129
L783 -2091
L877 -2129
" />
<path d="M727 -2016
L783 -2091
L839 -2016
" />
<path d="M69266 34378
L69266 34660
L69247 34716
L69210 34753
L69153 34772
L69116 34772
" />
<path d="M69660 34772
L69435 34772
" />
<path d="M69547 34772
L69547 34378
L69510 34435
L69472 34472
L69435 34491
" />
</g>
<g style="fill:#008484; fill-opacity:0.0; 
stroke:#008484; stroke-width:40; stroke-opacity:1; 
stroke-linecap:round; stroke-linejoin:round;">
<path d="M60170 35265
L60170 34765
L60455 35265
L60455 34765
" />
<path d="M60955 35265
L60670 35265
" />
<path d="M60813 35265
L60813 34765
L60765 34836
L60717 34884
L60670 34908
" />
</g>
<g style="fill:#008484; fill-opacity:0.0; 
stroke:#008484; stroke-width:59.0551; stroke-opacity:1; 
stroke-linecap:round; stroke-linejoin:round;">
<path d="M59267 36210
L59267 35710
" />
<path d="M59505 36210
L59505 35710
L59791 36210
L59791 35710
" />
<path d="M60029 36019
L60410 36019
" />
<path d="M60910 36210
L60624 36210
" />
<path d="M60767 36210
L60767 35710
L60719 35781
L60672 35829
L60624 35853
" />
<path d="M61338 35877
L61338 36210
" />
<path d="M61219 35686
L61100 36043
L61410 36043
" />
<path d="M69490 41436
L69452 41417
L69415 41379
L69358 41323
L69321 41304
L69283 41304
" />
<path d="M69302 41398
L69265 41379
L69227 41342
L69208 41267
L69208 41136
L69227 41061
L69265 41023
L69302 41004
L69377 41004
L69415 41023
L69452 41061
L69471 41136
L69471 41267
L69452 41342
L69415 41379
L69377 41398
L69302 41398
" />
<path d="M69846 41398
L69621 41398
" />
<path d="M69733 41398
L69733 41004
L69696 41061
L69658 41098
L69621 41117
" />
<path d="M62600 41593
L62562 41574
L62525 41537
L62469 41481
L62431 41462
L62394 41462
" />
<path d="M62412 41556
L62375 41537
L62337 41499
L62319 41424
L62319 41293
L62337 41218
L62375 41181
L62412 41162
L62487 41162
L62525 41181
L62562 41218
L62581 41293
L62581 41424
L62562 41499
L62525 41537
L62487 41556
L62412 41556
" />
<path d="M62731 41199
L62750 41181
L62787 41162
L62881 41162
L62919 41181
L62937 41199
L62956 41237
L62956 41274
L62937 41331
L62712 41556
L62956 41556
" />
<path d="M64096 41554
L64058 41535
L64021 41497
L63965 41441
L63927 41422
L63890 41422
" />
<path d="M63908 41516
L63871 41497
L63833 41460
L63815 41385
L63815 41254
L63833 41179
L63871 41141
L63908 41122
L63983 41122
L64021 41141
L64058 41179
L64077 41254
L64077 41385
L64058 41460
L64021 41497
L63983 41516
L63908 41516
" />
<path d="M64208 41122
L64452 41122
L64321 41272
L64377 41272
L64415 41291
L64433 41310
L64452 41347
L64452 41441
L64433 41479
L64415 41497
L64377 41516
L64265 41516
L64227 41497
L64208 41479
" />
<path d="M65868 38680
L65830 38661
L65793 38623
L65736 38567
L65699 38548
L65661 38548
" />
<path d="M65680 38642
L65643 38623
L65605 38586
L65586 38511
L65586 38380
L65605 38305
L65643 38267
L65680 38248
L65755 38248
L65793 38267
L65830 38305
L65849 38380
L65849 38511
L65830 38586
L65793 38623
L65755 38642
L65680 38642
" />
<path d="M66186 38380
L66186 38642
" />
<path d="M66092 38230
L65999 38511
L66242 38511
" />
<path d="M67442 38640
L67405 38622
L67367 38584
L67311 38528
L67274 38509
L67236 38509
" />
<path d="M67255 38603
L67217 38584
L67180 38547
L67161 38472
L67161 38340
L67180 38265
L67217 38228
L67255 38209
L67330 38209
L67367 38228
L67405 38265
L67424 38340
L67424 38472
L67405 38547
L67367 38584
L67330 38603
L67255 38603
" />
<path d="M67780 38209
L67592 38209
L67574 38397
L67592 38378
L67630 38359
L67724 38359
L67761 38378
L67780 38397
L67799 38434
L67799 38528
L67780 38565
L67761 38584
L67724 38603
L67630 38603
L67592 38584
L67574 38565
" />
<path d="M66616 43050
L66578 43031
L66541 42994
L66484 42937
L66447 42919
L66409 42919
" />
<path d="M66428 43012
L66391 42994
L66353 42956
L66334 42881
L66334 42750
L66353 42675
L66391 42637
L66428 42619
L66503 42619
L66541 42637
L66578 42675
L66597 42750
L66597 42881
L66578 42956
L66541 42994
L66503 43012
L66428 43012
" />
<path d="M66934 42619
L66859 42619
L66822 42637
L66803 42656
L66766 42712
L66747 42787
L66747 42937
L66766 42975
L66784 42994
L66822 43012
L66897 43012
L66934 42994
L66953 42975
L66972 42937
L66972 42844
L66953 42806
L66934 42787
L66897 42769
L66822 42769
L66784 42787
L66766 42806
L66747 42844
" />
<path d="M61025 41632
L60988 41614
L60950 41576
L60894 41520
L60856 41501
L60819 41501
" />
<path d="M60838 41595
L60800 41576
L60763 41539
L60744 41464
L60744 41332
L60763 41257
L60800 41220
L60838 41201
L60913 41201
L60950 41220
L60988 41257
L61006 41332
L61006 41464
L60988 41539
L60950 41576
L60913 41595
L60838 41595
" />
<path d="M61137 41201
L61400 41201
L61231 41595
" />
<path d="M62875 38640
L62838 38622
L62800 38584
L62744 38528
L62707 38509
L62669 38509
" />
<path d="M62688 38603
L62650 38584
L62613 38547
L62594 38472
L62594 38340
L62613 38265
L62650 38228
L62688 38209
L62763 38209
L62800 38228
L62838 38265
L62857 38340
L62857 38472
L62838 38547
L62800 38584
L62763 38603
L62688 38603
" />
<path d="M63082 38378
L63044 38359
L63025 38340
L63007 38303
L63007 38284
L63025 38247
L63044 38228
L63082 38209
L63157 38209
L63194 38228
L63213 38247
L63232 38284
L63232 38303
L63213 38340
L63194 38359
L63157 38378
L63082 38378
L63044 38397
L63025 38415
L63007 38453
L63007 38528
L63025 38565
L63044 38584
L63082 38603
L63157 38603
L63194 38584
L63213 38565
L63232 38528
L63232 38453
L63213 38415
L63194 38397
L63157 38378
" />
<path d="M64529 38680
L64491 38661
L64454 38623
L64398 38567
L64360 38548
L64323 38548
" />
<path d="M64341 38642
L64304 38623
L64266 38586
L64248 38511
L64248 38380
L64266 38305
L64304 38267
L64341 38248
L64416 38248
L64454 38267
L64491 38305
L64510 38380
L64510 38511
L64491 38586
L64454 38623
L64416 38642
L64341 38642
" />
<path d="M64698 38642
L64773 38642
L64810 38623
L64829 38605
L64866 38548
L64885 38473
L64885 38323
L64866 38286
L64848 38267
L64810 38248
L64735 38248
L64698 38267
L64679 38286
L64660 38323
L64660 38417
L64679 38455
L64698 38473
L64735 38492
L64810 38492
L64848 38473
L64866 38455
L64885 38417
" />
<path d="M66389 41554
L66351 41535
L66314 41497
L66257 41441
L66220 41422
L66182 41422
" />
<path d="M66201 41516
L66164 41497
L66126 41460
L66107 41385
L66107 41254
L66126 41179
L66164 41141
L66201 41122
L66276 41122
L66314 41141
L66351 41179
L66370 41254
L66370 41385
L66351 41460
L66314 41497
L66276 41516
L66201 41516
" />
<path d="M66745 41516
L66520 41516
" />
<path d="M66632 41516
L66632 41122
L66595 41179
L66557 41216
L66520 41235
" />
<path d="M66989 41122
L67026 41122
L67064 41141
L67082 41160
L67101 41197
L67120 41272
L67120 41366
L67101 41441
L67082 41479
L67064 41497
L67026 41516
L66989 41516
L66951 41497
L66932 41479
L66914 41441
L66895 41366
L66895 41272
L66914 41197
L66932 41160
L66951 41141
L66989 41122
" />
<path d="M67806 41554
L67769 41535
L67731 41497
L67675 41441
L67637 41422
L67600 41422
" />
<path d="M67619 41516
L67581 41497
L67544 41460
L67525 41385
L67525 41254
L67544 41179
L67581 41141
L67619 41122
L67694 41122
L67731 41141
L67769 41179
L67787 41254
L67787 41385
L67769 41460
L67731 41497
L67694 41516
L67619 41516
" />
<path d="M68162 41516
L67937 41516
" />
<path d="M68050 41516
L68050 41122
L68012 41179
L67975 41216
L67937 41235
" />
<path d="M68537 41516
L68312 41516
" />
<path d="M68425 41516
L68425 41122
L68387 41179
L68350 41216
L68312 41235
" />
<path d="M64341 43050
L64304 43031
L64266 42994
L64210 42937
L64173 42919
L64135 42919
" />
<path d="M64154 43012
L64116 42994
L64079 42956
L64060 42881
L64060 42750
L64079 42675
L64116 42637
L64154 42619
L64229 42619
L64266 42637
L64304 42675
L64323 42750
L64323 42881
L64304 42956
L64266 42994
L64229 43012
L64154 43012
" />
<path d="M64698 43012
L64473 43012
" />
<path d="M64585 43012
L64585 42619
L64548 42675
L64510 42712
L64473 42731
" />
<path d="M64848 42656
L64866 42637
L64904 42619
L64998 42619
L65035 42637
L65054 42656
L65073 42694
L65073 42731
L65054 42787
L64829 43012
L65073 43012
" />
<path d="M69028 43800
L68897 43612
" />
<path d="M68803 43800
L68803 43406
L68953 43406
L68991 43425
L69010 43443
L69028 43481
L69028 43537
L69010 43575
L68991 43593
L68953 43612
L68803 43612
" />
<path d="M69403 43800
L69178 43800
" />
<path d="M69291 43800
L69291 43406
L69253 43462
L69216 43500
L69178 43518
" />
<path d="M61548 44430
L61417 44242
" />
<path d="M61323 44430
L61323 44036
L61473 44036
L61511 44055
L61529 44073
L61548 44111
L61548 44167
L61529 44205
L61511 44223
L61473 44242
L61323 44242
" />
<path d="M61698 44073
L61717 44055
L61754 44036
L61848 44036
L61886 44055
L61904 44073
L61923 44111
L61923 44148
L61904 44205
L61679 44430
L61923 44430
" />
<path d="M62847 44351
L62716 44163
" />
<path d="M62622 44351
L62622 43957
L62772 43957
L62810 43976
L62829 43995
L62847 44032
L62847 44088
L62829 44126
L62810 44145
L62772 44163
L62622 44163
" />
<path d="M62979 43957
L63222 43957
L63091 44107
L63147 44107
L63185 44126
L63203 44145
L63222 44182
L63222 44276
L63203 44313
L63185 44332
L63147 44351
L63035 44351
L62997 44332
L62979 44313
" />
<path d="M64304 40886
L64173 40699
" />
<path d="M64079 40886
L64079 40493
L64229 40493
L64266 40511
L64285 40530
L64304 40568
L64304 40624
L64285 40661
L64266 40680
L64229 40699
L64079 40699
" />
<path d="M64641 40624
L64641 40886
" />
<path d="M64548 40474
L64454 40755
L64698 40755
" />
<path d="M65721 40571
L65590 40384
" />
<path d="M65496 40571
L65496 40178
L65646 40178
L65684 40196
L65703 40215
L65721 40253
L65721 40309
L65703 40346
L65684 40365
L65646 40384
L65496 40384
" />
<path d="M66077 40178
L65890 40178
L65871 40365
L65890 40346
L65928 40328
L66021 40328
L66059 40346
L66077 40365
L66096 40403
L66096 40496
L66077 40534
L66059 40553
L66021 40571
L65928 40571
L65890 40553
L65871 40534
" />
<path d="M67099 44784
L66968 44596
" />
<path d="M66874 44784
L66874 44390
L67024 44390
L67062 44409
L67080 44428
L67099 44465
L67099 44521
L67080 44559
L67062 44578
L67024 44596
L66874 44596
" />
<path d="M67437 44390
L67362 44390
L67324 44409
L67305 44428
L67268 44484
L67249 44559
L67249 44709
L67268 44746
L67287 44765
L67324 44784
L67399 44784
L67437 44765
L67455 44746
L67474 44709
L67474 44615
L67455 44578
L67437 44559
L67399 44540
L67324 44540
L67287 44559
L67268 44578
L67249 44615
" />
<path d="M60052 44508
L59921 44321
" />
<path d="M59827 44508
L59827 44115
L59977 44115
L60014 44133
L60033 44152
L60052 44190
L60052 44246
L60033 44283
L60014 44302
L59977 44321
L59827 44321
" />
<path d="M60183 44115
L60446 44115
L60277 44508
" />
<path d="M61233 40576
L61102 40389
" />
<path d="M61008 40576
L61008 40183
L61158 40183
L61196 40201
L61214 40220
L61233 40258
L61233 40314
L61214 40351
L61196 40370
L61158 40389
L61008 40389
" />
<path d="M61458 40351
L61421 40333
L61402 40314
L61383 40276
L61383 40258
L61402 40220
L61421 40201
L61458 40183
L61533 40183
L61571 40201
L61589 40220
L61608 40258
L61608 40276
L61589 40314
L61571 40333
L61533 40351
L61458 40351
L61421 40370
L61402 40389
L61383 40426
L61383 40501
L61402 40539
L61421 40557
L61458 40576
L61533 40576
L61571 40557
L61589 40539
L61608 40501
L61608 40426
L61589 40389
L61571 40370
L61533 40351
" />
<path d="M63438 40847
L63307 40659
" />
<path d="M63213 40847
L63213 40453
L63363 40453
L63400 40472
L63419 40491
L63438 40528
L63438 40584
L63419 40622
L63400 40641
L63363 40659
L63213 40659
" />
<path d="M63625 40847
L63700 40847
L63738 40828
L63757 40809
L63794 40753
L63813 40678
L63813 40528
L63794 40491
L63775 40472
L63738 40453
L63663 40453
L63625 40472
L63607 40491
L63588 40528
L63588 40622
L63607 40659
L63625 40678
L63663 40697
L63738 40697
L63775 40678
L63794 40659
L63813 40622
" />
<path d="M64825 44548
L64694 44360
" />
<path d="M64600 44548
L64600 44154
L64750 44154
L64788 44173
L64806 44191
L64825 44229
L64825 44285
L64806 44323
L64788 44341
L64750 44360
L64600 44360
" />
<path d="M65200 44548
L64975 44548
" />
<path d="M65088 44548
L65088 44154
L65050 44210
L65013 44248
L64975 44266
" />
<path d="M65444 44154
L65481 44154
L65519 44173
L65538 44191
L65556 44229
L65575 44304
L65575 44398
L65556 44473
L65538 44510
L65519 44529
L65481 44548
L65444 44548
L65406 44529
L65388 44510
L65369 44473
L65350 44398
L65350 44304
L65369 44229
L65388 44191
L65406 44173
L65444 44154
" />
<path d="M67227 44311
L67095 44124
" />
<path d="M67002 44311
L67002 43918
L67152 43918
L67189 43937
L67208 43955
L67227 43993
L67227 44049
L67208 44086
L67189 44105
L67152 44124
L67002 44124
" />
<path d="M67602 44311
L67377 44311
" />
<path d="M67489 44311
L67489 43918
L67452 43974
L67414 44011
L67377 44030
" />
<path d="M67977 44311
L67752 44311
" />
<path d="M67864 44311
L67864 43918
L67827 43974
L67789 44011
L67752 44030
" />
<path d="M62384 44745
L62253 44557
" />
<path d="M62159 44745
L62159 44351
L62309 44351
L62347 44370
L62365 44388
L62384 44426
L62384 44482
L62365 44520
L62347 44538
L62309 44557
L62159 44557
" />
<path d="M62759 44745
L62534 44745
" />
<path d="M62647 44745
L62647 44351
L62609 44407
L62572 44445
L62534 44463
" />
<path d="M62909 44388
L62928 44370
L62965 44351
L63059 44351
L63097 44370
L63115 44388
L63134 44426
L63134 44463
L63115 44520
L62890 44745
L63134 44745
" />
<path d="M61361 36871
L61229 36683
" />
<path d="M61136 36871
L61136 36477
L61286 36477
L61323 36496
L61342 36514
L61361 36552
L61361 36608
L61342 36646
L61323 36664
L61286 36683
L61136 36683
" />
<path d="M61736 36871
L61511 36871
" />
<path d="M61623 36871
L61623 36477
L61586 36533
L61548 36571
L61511 36589
" />
<path d="M61867 36477
L62110 36477
L61979 36627
L62035 36627
L62073 36646
L62092 36664
L62110 36702
L62110 36796
L62092 36833
L62073 36852
L62035 36871
L61923 36871
L61886 36852
L61867 36833
" />
<path d="M63880 35296
L63749 35108
" />
<path d="M63655 35296
L63655 34902
L63805 34902
L63843 34921
L63862 34940
L63880 34977
L63880 35033
L63862 35071
L63843 35089
L63805 35108
L63655 35108
" />
<path d="M64255 35296
L64030 35296
" />
<path d="M64143 35296
L64143 34902
L64105 34958
L64068 34996
L64030 35014
" />
<path d="M64593 35033
L64593 35296
" />
<path d="M64499 34883
L64405 35164
L64649 35164
" />
<path d="M61951 34272
L61820 34085
" />
<path d="M61726 34272
L61726 33878
L61876 33878
L61914 33897
L61932 33916
L61951 33953
L61951 34010
L61932 34047
L61914 34066
L61876 34085
L61726 34085
" />
<path d="M62326 34272
L62101 34272
" />
<path d="M62214 34272
L62214 33878
L62176 33935
L62139 33972
L62101 33991
" />
<path d="M62682 33878
L62495 33878
L62476 34066
L62495 34047
L62532 34028
L62626 34028
L62664 34047
L62682 34066
L62701 34103
L62701 34197
L62682 34235
L62664 34253
L62626 34272
L62532 34272
L62495 34253
L62476 34235
" />
<path d="M62896 32146
L62765 31959
" />
<path d="M62671 32146
L62671 31752
L62821 31752
L62859 31771
L62877 31790
L62896 31827
L62896 31884
L62877 31921
L62859 31940
L62821 31959
L62671 31959
" />
<path d="M63271 32146
L63046 32146
" />
<path d="M63158 32146
L63158 31752
L63121 31809
L63083 31846
L63046 31865
" />
<path d="M63608 31752
L63533 31752
L63496 31771
L63477 31790
L63440 31846
L63421 31921
L63421 32071
L63440 32109
L63458 32127
L63496 32146
L63571 32146
L63608 32127
L63627 32109
L63646 32071
L63646 31977
L63627 31940
L63608 31921
L63571 31902
L63496 31902
L63458 31921
L63440 31940
L63421 31977
" />
<path d="M63959 31634
L63828 31447
" />
<path d="M63734 31634
L63734 31241
L63884 31241
L63922 31259
L63940 31278
L63959 31316
L63959 31372
L63940 31409
L63922 31428
L63884 31447
L63734 31447
" />
<path d="M64334 31634
L64109 31634
" />
<path d="M64221 31634
L64221 31241
L64184 31297
L64146 31334
L64109 31353
" />
<path d="M64465 31241
L64728 31241
L64559 31634
" />
<path d="M64536 33240
L64348 33371
" />
<path d="M64536 33465
L64142 33465
L64142 33315
L64161 33277
L64180 33259
L64217 33240
L64273 33240
L64311 33259
L64330 33277
L64348 33315
L64348 33465
" />
<path d="M64536 32865
L64536 33090
" />
<path d="M64536 32977
L64142 32977
L64198 33015
L64236 33052
L64255 33090
" />
<path d="M64311 32640
L64292 32677
L64273 32696
L64236 32715
L64217 32715
L64180 32696
L64161 32677
L64142 32640
L64142 32565
L64161 32527
L64180 32509
L64217 32490
L64236 32490
L64273 32509
L64292 32527
L64311 32565
L64311 32640
L64330 32677
L64348 32696
L64386 32715
L64461 32715
L64498 32696
L64517 32677
L64536 32640
L64536 32565
L64517 32527
L64498 32509
L64461 32490
L64386 32490
L64348 32509
L64330 32527
L64311 32565
" />
<path d="M65140 31634
L65009 31447
" />
<path d="M64915 31634
L64915 31241
L65065 31241
L65103 31259
L65121 31278
L65140 31316
L65140 31372
L65121 31409
L65103 31428
L65065 31447
L64915 31447
" />
<path d="M65515 31634
L65290 31634
" />
<path d="M65403 31634
L65403 31241
L65365 31297
L65328 31334
L65290 31353
" />
<path d="M65703 31634
L65778 31634
L65815 31616
L65834 31597
L65871 31541
L65890 31466
L65890 31316
L65871 31278
L65853 31259
L65815 31241
L65740 31241
L65703 31259
L65684 31278
L65665 31316
L65665 31409
L65684 31447
L65703 31466
L65740 31484
L65815 31484
L65853 31466
L65871 31447
L65890 31409
" />
<path d="M66794 34272
L66662 34085
" />
<path d="M66569 34272
L66569 33878
L66719 33878
L66756 33897
L66775 33916
L66794 33953
L66794 34010
L66775 34047
L66756 34066
L66719 34085
L66569 34085
" />
<path d="M66944 33916
L66962 33897
L67000 33878
L67094 33878
L67131 33897
L67150 33916
L67169 33953
L67169 33991
L67150 34047
L66925 34272
L67169 34272
" />
<path d="M67412 33878
L67450 33878
L67487 33897
L67506 33916
L67525 33953
L67544 34028
L67544 34122
L67525 34197
L67506 34235
L67487 34253
L67450 34272
L67412 34272
L67375 34253
L67356 34235
L67337 34197
L67319 34122
L67319 34028
L67337 33953
L67356 33916
L67375 33897
L67412 33878
" />
<path d="M64943 35301
L64812 35113
" />
<path d="M64718 35301
L64718 34907
L64868 34907
L64906 34926
L64925 34944
L64943 34982
L64943 35038
L64925 35076
L64906 35094
L64868 35113
L64718 35113
" />
<path d="M65093 34944
L65112 34926
L65149 34907
L65243 34907
L65281 34926
L65299 34944
L65318 34982
L65318 35019
L65299 35076
L65074 35301
L65318 35301
" />
<path d="M65693 35301
L65468 35301
" />
<path d="M65581 35301
L65581 34907
L65543 34963
L65506 35001
L65468 35019
" />
<path d="M67266 36910
L67135 36722
" />
<path d="M67041 36910
L67041 36516
L67191 36516
L67229 36535
L67247 36554
L67266 36591
L67266 36647
L67247 36685
L67229 36704
L67191 36722
L67041 36722
" />
<path d="M67416 36554
L67435 36535
L67472 36516
L67566 36516
L67604 36535
L67622 36554
L67641 36591
L67641 36629
L67622 36685
L67397 36910
L67641 36910
" />
<path d="M67791 36554
L67810 36535
L67847 36516
L67941 36516
L67979 36535
L67997 36554
L68016 36591
L68016 36629
L67997 36685
L67772 36910
L68016 36910
" />
<path d="M66321 37855
L66190 37667
" />
<path d="M66096 37855
L66096 37461
L66246 37461
L66284 37480
L66302 37499
L66321 37536
L66321 37592
L66302 37630
L66284 37649
L66246 37667
L66096 37667
" />
<path d="M66471 37499
L66490 37480
L66527 37461
L66621 37461
L66659 37480
L66677 37499
L66696 37536
L66696 37574
L66677 37630
L66452 37855
L66696 37855
" />
<path d="M66827 37461
L67071 37461
L66940 37611
L66996 37611
L67034 37630
L67052 37649
L67071 37686
L67071 37780
L67052 37817
L67034 37836
L66996 37855
L66884 37855
L66846 37836
L66827 37817
" />
<path d="M62384 37855
L62253 37667
" />
<path d="M62159 37855
L62159 37461
L62309 37461
L62347 37480
L62365 37499
L62384 37536
L62384 37592
L62365 37630
L62347 37649
L62309 37667
L62159 37667
" />
<path d="M62534 37499
L62553 37480
L62590 37461
L62684 37461
L62722 37480
L62740 37499
L62759 37536
L62759 37574
L62740 37630
L62515 37855
L62759 37855
" />
<path d="M63097 37592
L63097 37855
" />
<path d="M63003 37442
L62909 37724
L63153 37724
" />
<g >
</g>
</g>
<g style="fill:#000000; fill-opacity:0.0; 
stroke:#000000; stroke-width:59.0551; stroke-opacity:1; 
stroke-linecap:round; stroke-linejoin:round;">
</g>
<g style="fill:#C2C200; fill-opacity:0.0; 
stroke:#C2C200; stroke-width:59.0551; stroke-opacity:1; 
stroke-linecap:round; stroke-linejoin:round;">
</g>
<g style="fill:#C2C200; fill-opacity:0.0; 
stroke:#C2C200; stroke-width:19.685; stroke-opacity:1; 
stroke-linecap:round; stroke-linejoin:round;">
<path d="M58267 30708
L58267 45275
" />
<path d="M70866 30708
L58267 30708
" />
<path d="M70866 45275
L70866 30708
" />
<path d="M58267 45275
L70866 45275
" />
<g >
</g>
<g >
</g>
<g >
</g>
<g >
</g>
<g >
</g>
<g >
</g>
<g >
</g>
<g >
</g>
<g >
</g>
<g >
</g>
<g >
</g>
<g >
</g>
<g >
</g>
<g >
</g>
<g >
</g>
<g >
</g>
<g >
</g>
<g >
</g>
<g >
</g>
<g >
</g>
<g >
</g>
<g >
</g>
<g >
</g>
<g >
</g>
<g >
</g>
<g >
</g>
<g >
</g>
<g >
</g>
<g >
</g>
<g >
</g>
<g >
</g>
<g >
</g>
<g >
</g>
<g >
</g>
<g >
</g>
<g >
</g>
<g >
</g>
<g >
</g>
<g >
</g>
<g >
</g>
<g >
</g>
<g >
</g>
<g >
</g>
</g> 
</svg>
