<?xml version="1.0" standalone="no"?>
 <!DOCTYPE svg PUBLIC "-//W3C//DTD SVG 1.1//EN" 
 "http://www.w3.org/Graphics/SVG/1.1/DTD/svg11.dtd"> 
<svg xmlns="http://www.w3.org/2000/svg" version="1.1" 
    width="29.7002cm" height="21.0007cm" viewBox="0 0 116930 82680 ">
<title>SVG Picture created as Nixie-F_Mask.svg date 2021/03/25 13:34:28 </title>
  <desc>Picture generated by PCBNEW </desc>
<g style="fill:#000000; fill-opacity:1;stroke:#000000; stroke-opacity:1;
stroke-linecap:round; stroke-linejoin:round; "
 transform="translate(0 0) scale(1 1)">
</g>
<g style="fill:#000000; fill-opacity:0.0; 
stroke:#000000; stroke-width:-0.000393701; stroke-opacity:1; 
stroke-linecap:round; stroke-linejoin:round;">
</g>
<g style="fill:#000000; fill-opacity:1.0; 
stroke:#000000; stroke-width:0; stroke-opacity:1; 
stroke-linecap:round; stroke-linejoin:round;">
<path style="fill:#000000; fill-opacity:1.0; 
stroke:#000000; stroke-width:0; stroke-opacity:1; 
stroke-linecap:round; stroke-linejoin:round;fill-rule:evenodd;"
d="M 66552,44361
66565,44365
66577,44372
66588,44380
66597,44391
66603,44404
66608,44417
66609,44433
66609,44700
66608,44716
66603,44729
66597,44742
66588,44752
66577,44761
66565,44768
66552,44772
66535,44774
66298,44774
66282,44772
66269,44768
66256,44761
66246,44752
66237,44742
66230,44729
66226,44716
66225,44700
66225,44433
66226,44417
66230,44404
66237,44391
66246,44380
66256,44372
66269,44365
66282,44361
66298,44359
66535,44359
66552,44361
Z" /> 
<path style="fill:#000000; fill-opacity:1.0; 
stroke:#000000; stroke-width:0; stroke-opacity:1; 
stroke-linecap:round; stroke-linejoin:round;fill-rule:evenodd;"
d="M 65931,44361
65945,44365
65957,44372
65968,44380
65977,44391
65983,44404
65987,44417
65989,44433
65989,44700
65987,44716
65983,44729
65977,44742
65968,44752
65957,44761
65945,44768
65931,44772
65915,44774
65678,44774
65662,44772
65649,44768
65636,44761
65626,44752
65617,44742
65610,44729
65606,44716
65604,44700
65604,44433
65606,44417
65610,44404
65617,44391
65626,44380
65636,44372
65649,44365
65662,44361
65678,44359
65915,44359
65931,44361
Z" /> 
<path style="fill:#000000; fill-opacity:1.0; 
stroke:#000000; stroke-width:0; stroke-opacity:1; 
stroke-linecap:round; stroke-linejoin:round;fill-rule:evenodd;"
d="M 64342,44361
64355,44365
64368,44372
64378,44380
64387,44391
64394,44404
64398,44417
64400,44433
64400,44700
64398,44716
64394,44729
64387,44742
64378,44752
64368,44761
64355,44768
64342,44772
64326,44774
64089,44774
64072,44772
64059,44768
64047,44761
64036,44752
64027,44742
64021,44729
64016,44716
64015,44700
64015,44433
64016,44417
64021,44404
64027,44391
64036,44380
64047,44372
64059,44365
64072,44361
64089,44359
64326,44359
64342,44361
Z" /> 
<path style="fill:#000000; fill-opacity:1.0; 
stroke:#000000; stroke-width:0; stroke-opacity:1; 
stroke-linecap:round; stroke-linejoin:round;fill-rule:evenodd;"
d="M 63722,44361
63735,44365
63747,44372
63758,44380
63767,44391
63774,44404
63778,44417
63779,44433
63779,44700
63778,44716
63774,44729
63767,44742
63758,44752
63747,44761
63735,44768
63722,44772
63705,44774
63469,44774
63452,44772
63439,44768
63427,44761
63416,44752
63407,44742
63400,44729
63396,44716
63395,44700
63395,44433
63396,44417
63400,44404
63407,44391
63416,44380
63427,44372
63439,44365
63452,44361
63469,44359
63705,44359
63722,44361
Z" /> 
<path style="fill:#000000; fill-opacity:1.0; 
stroke:#000000; stroke-width:0; stroke-opacity:1; 
stroke-linecap:round; stroke-linejoin:round;fill-rule:evenodd;"
d="M 66732,44055
66377,44055
66377,43661
66732,43661
66732,44055
Z" /> 
<path style="fill:#000000; fill-opacity:1.0; 
stroke:#000000; stroke-width:0; stroke-opacity:1; 
stroke-linecap:round; stroke-linejoin:round;fill-rule:evenodd;"
d="M 65984,44055
65629,44055
65629,43661
65984,43661
65984,44055
Z" /> 
<path style="fill:#000000; fill-opacity:1.0; 
stroke:#000000; stroke-width:0; stroke-opacity:1; 
stroke-linecap:round; stroke-linejoin:round;fill-rule:evenodd;"
d="M 63779,44055
63424,44055
63424,43661
63779,43661
63779,44055
Z" /> 
<path style="fill:#000000; fill-opacity:1.0; 
stroke:#000000; stroke-width:0; stroke-opacity:1; 
stroke-linecap:round; stroke-linejoin:round;fill-rule:evenodd;"
d="M 64527,44055
64172,44055
64172,43661
64527,43661
64527,44055
Z" /> 
<path style="fill:#000000; fill-opacity:1.0; 
stroke:#000000; stroke-width:0; stroke-opacity:1; 
stroke-linecap:round; stroke-linejoin:round;fill-rule:evenodd;"
d="M 65267,43510
65280,43514
65293,43520
65304,43529
65312,43540
65319,43552
65323,43566
65325,43582
65325,43819
65323,43835
65319,43848
65312,43861
65304,43871
65293,43880
65280,43887
65267,43891
65251,43893
64984,43893
64968,43891
64955,43887
64942,43880
64932,43871
64923,43861
64916,43848
64912,43835
64911,43819
64911,43582
64912,43566
64916,43552
64923,43540
64932,43529
64942,43520
64955,43514
64968,43510
64984,43508
65251,43508
65267,43510
Z" /> 
<path style="fill:#000000; fill-opacity:1.0; 
stroke:#000000; stroke-width:0; stroke-opacity:1; 
stroke-linecap:round; stroke-linejoin:round;fill-rule:evenodd;"
d="M 67432,43505
67446,43509
67458,43515
67469,43524
67478,43535
67484,43547
67488,43561
67490,43577
67490,43814
67488,43830
67484,43843
67478,43856
67469,43867
67458,43875
67446,43882
67432,43886
67416,43888
67150,43888
67134,43886
67120,43882
67108,43875
67097,43867
67088,43856
67082,43843
67077,43830
67076,43814
67076,43577
67077,43561
67082,43547
67088,43535
67097,43524
67108,43515
67120,43509
67134,43505
67150,43503
67416,43503
67432,43505
Z" /> 
<path style="fill:#000000; fill-opacity:1.0; 
stroke:#000000; stroke-width:0; stroke-opacity:1; 
stroke-linecap:round; stroke-linejoin:round;fill-rule:evenodd;"
d="M 63023,43505
63036,43509
63049,43515
63059,43524
63068,43535
63075,43547
63079,43561
63081,43577
63081,43814
63079,43830
63075,43843
63068,43856
63059,43867
63049,43875
63036,43882
63023,43886
63007,43888
62740,43888
62724,43886
62711,43882
62698,43875
62688,43867
62679,43856
62672,43843
62668,43830
62666,43814
62666,43577
62668,43561
62672,43547
62679,43535
62688,43524
62698,43515
62711,43509
62724,43505
62740,43503
63007,43503
63023,43505
Z" /> 
<path style="fill:#000000; fill-opacity:1.0; 
stroke:#000000; stroke-width:0; stroke-opacity:1; 
stroke-linecap:round; stroke-linejoin:round;fill-rule:evenodd;"
d="M 61763,43505
61776,43509
61789,43515
61800,43524
61809,43535
61815,43547
61819,43561
61821,43577
61821,43814
61819,43830
61815,43843
61809,43856
61800,43867
61789,43875
61776,43882
61763,43886
61747,43888
61481,43888
61464,43886
61451,43882
61439,43875
61428,43867
61419,43856
61412,43843
61408,43830
61407,43814
61407,43577
61408,43561
61412,43547
61419,43535
61428,43524
61439,43515
61451,43509
61464,43505
61481,43503
61747,43503
61763,43505
Z" /> 
<path style="fill:#000000; fill-opacity:1.0; 
stroke:#000000; stroke-width:0; stroke-opacity:1; 
stroke-linecap:round; stroke-linejoin:round;fill-rule:evenodd;"
d="M 60228,43505
60241,43509
60253,43515
60264,43524
60273,43535
60280,43547
60284,43561
60285,43577
60285,43814
60284,43830
60280,43843
60273,43856
60264,43867
60253,43875
60241,43882
60228,43886
60211,43888
59945,43888
59929,43886
59915,43882
59903,43875
59892,43867
59883,43856
59877,43843
59873,43830
59871,43814
59871,43577
59873,43561
59877,43547
59883,43535
59892,43524
59903,43515
59915,43509
59929,43505
59945,43503
60211,43503
60228,43505
Z" /> 
<path style="fill:#000000; fill-opacity:1.0; 
stroke:#000000; stroke-width:0; stroke-opacity:1; 
stroke-linecap:round; stroke-linejoin:round;fill-rule:evenodd;"
d="M 68574,43426
68588,43430
68600,43437
68611,43445
68620,43456
68626,43469
68630,43482
68632,43498
68632,43735
68630,43751
68626,43765
68620,43777
68611,43788
68600,43797
68588,43803
68574,43807
68558,43809
68292,43809
68275,43807
68262,43803
68250,43797
68239,43788
68230,43777
68223,43765
68219,43751
68218,43735
68218,43498
68219,43482
68223,43469
68230,43456
68239,43445
68250,43437
68262,43430
68275,43426
68292,43424
68558,43424
68574,43426
Z" /> 
<path style="fill:#000000; fill-opacity:1.0; 
stroke:#000000; stroke-width:0; stroke-opacity:1; 
stroke-linecap:round; stroke-linejoin:round;fill-rule:evenodd;"
d="M 65267,42889
65280,42894
65293,42900
65304,42909
65312,42920
65319,42932
65323,42946
65325,42962
65325,43199
65323,43215
65319,43228
65312,43241
65304,43251
65293,43260
65280,43267
65267,43271
65251,43273
64984,43273
64968,43271
64955,43267
64942,43260
64932,43251
64923,43241
64916,43228
64912,43215
64911,43199
64911,42962
64912,42946
64916,42932
64923,42920
64932,42909
64942,42900
64955,42894
64968,42889
64984,42888
65251,42888
65267,42889
Z" /> 
<path style="fill:#000000; fill-opacity:1.0; 
stroke:#000000; stroke-width:0; stroke-opacity:1; 
stroke-linecap:round; stroke-linejoin:round;fill-rule:evenodd;"
d="M 60228,42885
60241,42889
60253,42895
60264,42904
60273,42915
60280,42927
60284,42941
60285,42957
60285,43194
60284,43210
60280,43223
60273,43236
60264,43246
60253,43255
60241,43262
60228,43266
60211,43268
59945,43268
59929,43266
59915,43262
59903,43255
59892,43246
59883,43236
59877,43223
59873,43210
59871,43194
59871,42957
59873,42941
59877,42927
59883,42915
59892,42904
59903,42895
59915,42889
59929,42885
59945,42883
60211,42883
60228,42885
Z" /> 
<path style="fill:#000000; fill-opacity:1.0; 
stroke:#000000; stroke-width:0; stroke-opacity:1; 
stroke-linecap:round; stroke-linejoin:round;fill-rule:evenodd;"
d="M 66358,43268
66003,43268
66003,42873
66358,42873
66358,43268
Z" /> 
<path style="fill:#000000; fill-opacity:1.0; 
stroke:#000000; stroke-width:0; stroke-opacity:1; 
stroke-linecap:round; stroke-linejoin:round;fill-rule:evenodd;"
d="M 67432,42885
67446,42889
67458,42895
67469,42904
67478,42915
67484,42927
67488,42941
67490,42957
67490,43194
67488,43210
67484,43223
67478,43236
67469,43246
67458,43255
67446,43262
67432,43266
67416,43268
67150,43268
67134,43266
67120,43262
67108,43255
67097,43246
67088,43236
67082,43223
67077,43210
67076,43194
67076,42957
67077,42941
67082,42927
67088,42915
67097,42904
67108,42895
67120,42889
67134,42885
67150,42883
67416,42883
67432,42885
Z" /> 
<path style="fill:#000000; fill-opacity:1.0; 
stroke:#000000; stroke-width:0; stroke-opacity:1; 
stroke-linecap:round; stroke-linejoin:round;fill-rule:evenodd;"
d="M 64153,43268
63798,43268
63798,42873
64153,42873
64153,43268
Z" /> 
<path style="fill:#000000; fill-opacity:1.0; 
stroke:#000000; stroke-width:0; stroke-opacity:1; 
stroke-linecap:round; stroke-linejoin:round;fill-rule:evenodd;"
d="M 63023,42885
63036,42889
63049,42895
63059,42904
63068,42915
63075,42927
63079,42941
63081,42957
63081,43194
63079,43210
63075,43223
63068,43236
63059,43246
63049,43255
63036,43262
63023,43266
63007,43268
62740,43268
62724,43266
62711,43262
62698,43255
62688,43246
62679,43236
62672,43223
62668,43210
62666,43194
62666,42957
62668,42941
62672,42927
62679,42915
62688,42904
62698,42895
62711,42889
62724,42885
62740,42883
63007,42883
63023,42885
Z" /> 
<path style="fill:#000000; fill-opacity:1.0; 
stroke:#000000; stroke-width:0; stroke-opacity:1; 
stroke-linecap:round; stroke-linejoin:round;fill-rule:evenodd;"
d="M 61763,42885
61776,42889
61789,42895
61800,42904
61809,42915
61815,42927
61819,42941
61821,42957
61821,43194
61819,43210
61815,43223
61809,43236
61800,43246
61789,43255
61776,43262
61763,43266
61747,43268
61481,43268
61464,43266
61451,43262
61439,43255
61428,43246
61419,43236
61412,43223
61408,43210
61407,43194
61407,42957
61408,42941
61412,42927
61419,42915
61428,42904
61439,42895
61451,42889
61464,42885
61481,42883
61747,42883
61763,42885
Z" /> 
<path style="fill:#000000; fill-opacity:1.0; 
stroke:#000000; stroke-width:0; stroke-opacity:1; 
stroke-linecap:round; stroke-linejoin:round;fill-rule:evenodd;"
d="M 68574,42806
68588,42810
68600,42816
68611,42825
68620,42836
68626,42848
68630,42862
68632,42878
68632,43115
68630,43131
68626,43145
68620,43157
68611,43168
68600,43177
68588,43183
68574,43187
68558,43189
68292,43189
68275,43187
68262,43183
68250,43177
68239,43168
68230,43157
68223,43145
68219,43131
68218,43115
68218,42878
68219,42862
68223,42848
68230,42836
68239,42825
68250,42816
68262,42810
68275,42806
68292,42804
68558,42804
68574,42806
Z" /> 
<path style="fill:#000000; fill-opacity:1.0; 
stroke:#000000; stroke-width:0; stroke-opacity:1; 
stroke-linecap:round; stroke-linejoin:round;fill-rule:evenodd;"
d="M 63307,42480
62952,42480
62952,42086
63307,42086
63307,42480
Z" /> 
<path style="fill:#000000; fill-opacity:1.0; 
stroke:#000000; stroke-width:0; stroke-opacity:1; 
stroke-linecap:round; stroke-linejoin:round;fill-rule:evenodd;"
d="M 65590,42480
65235,42480
65235,42086
65590,42086
65590,42480
Z" /> 
<path style="fill:#000000; fill-opacity:1.0; 
stroke:#000000; stroke-width:0; stroke-opacity:1; 
stroke-linecap:round; stroke-linejoin:round;fill-rule:evenodd;"
d="M 66338,42480
65983,42480
65983,42086
66338,42086
66338,42480
Z" /> 
<path style="fill:#000000; fill-opacity:1.0; 
stroke:#000000; stroke-width:0; stroke-opacity:1; 
stroke-linecap:round; stroke-linejoin:round;fill-rule:evenodd;"
d="M 68622,42480
68267,42480
68267,42086
68622,42086
68622,42480
Z" /> 
<path style="fill:#000000; fill-opacity:1.0; 
stroke:#000000; stroke-width:0; stroke-opacity:1; 
stroke-linecap:round; stroke-linejoin:round;fill-rule:evenodd;"
d="M 67087,42480
66731,42480
66731,42086
67087,42086
67087,42480
Z" /> 
<path style="fill:#000000; fill-opacity:1.0; 
stroke:#000000; stroke-width:0; stroke-opacity:1; 
stroke-linecap:round; stroke-linejoin:round;fill-rule:evenodd;"
d="M 64055,42480
63700,42480
63700,42086
64055,42086
64055,42480
Z" /> 
<path style="fill:#000000; fill-opacity:1.0; 
stroke:#000000; stroke-width:0; stroke-opacity:1; 
stroke-linecap:round; stroke-linejoin:round;fill-rule:evenodd;"
d="M 67835,42480
67479,42480
67479,42086
67835,42086
67835,42480
Z" /> 
<path style="fill:#000000; fill-opacity:1.0; 
stroke:#000000; stroke-width:0; stroke-opacity:1; 
stroke-linecap:round; stroke-linejoin:round;fill-rule:evenodd;"
d="M 69370,42480
69015,42480
69015,42086
69370,42086
69370,42480
Z" /> 
<path style="fill:#000000; fill-opacity:1.0; 
stroke:#000000; stroke-width:0; stroke-opacity:1; 
stroke-linecap:round; stroke-linejoin:round;fill-rule:evenodd;"
d="M 61811,42480
61456,42480
61456,42086
61811,42086
61811,42480
Z" /> 
<path style="fill:#000000; fill-opacity:1.0; 
stroke:#000000; stroke-width:0; stroke-opacity:1; 
stroke-linecap:round; stroke-linejoin:round;fill-rule:evenodd;"
d="M 62559,42480
62204,42480
62204,42086
62559,42086
62559,42480
Z" /> 
<path style="fill:#000000; fill-opacity:1.0; 
stroke:#000000; stroke-width:0; stroke-opacity:1; 
stroke-linecap:round; stroke-linejoin:round;fill-rule:evenodd;"
d="M 61024,42480
60668,42480
60668,42086
61024,42086
61024,42480
Z" /> 
<path style="fill:#000000; fill-opacity:1.0; 
stroke:#000000; stroke-width:0; stroke-opacity:1; 
stroke-linecap:round; stroke-linejoin:round;fill-rule:evenodd;"
d="M 60275,42480
59920,42480
59920,42086
60275,42086
60275,42480
Z" /> 
<path style="fill:#000000; fill-opacity:1.0; 
stroke:#000000; stroke-width:0; stroke-opacity:1; 
stroke-linecap:round; stroke-linejoin:round;fill-rule:evenodd;"
d="M 67461,41693
67105,41693
67105,41298
67461,41298
67461,41693
Z" /> 
<path style="fill:#000000; fill-opacity:1.0; 
stroke:#000000; stroke-width:0; stroke-opacity:1; 
stroke-linecap:round; stroke-linejoin:round;fill-rule:evenodd;"
d="M 68996,41693
68641,41693
68641,41298
68996,41298
68996,41693
Z" /> 
<path style="fill:#000000; fill-opacity:1.0; 
stroke:#000000; stroke-width:0; stroke-opacity:1; 
stroke-linecap:round; stroke-linejoin:round;fill-rule:evenodd;"
d="M 65964,41693
65609,41693
65609,41298
65964,41298
65964,41693
Z" /> 
<path style="fill:#000000; fill-opacity:1.0; 
stroke:#000000; stroke-width:0; stroke-opacity:1; 
stroke-linecap:round; stroke-linejoin:round;fill-rule:evenodd;"
d="M 63681,41693
63326,41693
63326,41298
63681,41298
63681,41693
Z" /> 
<path style="fill:#000000; fill-opacity:1.0; 
stroke:#000000; stroke-width:0; stroke-opacity:1; 
stroke-linecap:round; stroke-linejoin:round;fill-rule:evenodd;"
d="M 62185,41693
61830,41693
61830,41298
62185,41298
62185,41693
Z" /> 
<path style="fill:#000000; fill-opacity:1.0; 
stroke:#000000; stroke-width:0; stroke-opacity:1; 
stroke-linecap:round; stroke-linejoin:round;fill-rule:evenodd;"
d="M 60650,41693
60294,41693
60294,41298
60650,41298
60650,41693
Z" /> 
<path style="fill:#000000; fill-opacity:1.0; 
stroke:#000000; stroke-width:0; stroke-opacity:1; 
stroke-linecap:round; stroke-linejoin:round;fill-rule:evenodd;"
d="M 62078,40517
62091,40522
62104,40528
62115,40537
62123,40548
62130,40560
62134,40573
62136,40590
62136,40827
62134,40843
62130,40856
62123,40869
62115,40879
62104,40888
62091,40895
62078,40899
62062,40900
61796,40900
61779,40899
61766,40895
61753,40888
61743,40879
61734,40869
61727,40856
61723,40843
61722,40827
61722,40590
61723,40573
61727,40560
61734,40548
61743,40537
61753,40528
61766,40522
61779,40517
61796,40516
62062,40516
62078,40517
Z" /> 
<path style="fill:#000000; fill-opacity:1.0; 
stroke:#000000; stroke-width:0; stroke-opacity:1; 
stroke-linecap:round; stroke-linejoin:round;fill-rule:evenodd;"
d="M 65070,40513
65084,40517
65096,40523
65107,40532
65116,40543
65122,40555
65126,40569
65128,40585
65128,40822
65126,40838
65122,40851
65116,40864
65107,40874
65096,40883
65084,40890
65070,40894
65054,40896
64788,40896
64771,40894
64758,40890
64746,40883
64735,40874
64726,40864
64719,40851
64715,40838
64714,40822
64714,40585
64715,40569
64719,40555
64726,40543
64735,40532
64746,40523
64758,40517
64771,40513
64788,40511
65054,40511
65070,40513
Z" /> 
<path style="fill:#000000; fill-opacity:1.0; 
stroke:#000000; stroke-width:0; stroke-opacity:1; 
stroke-linecap:round; stroke-linejoin:round;fill-rule:evenodd;"
d="M 66566,40513
66580,40517
66592,40523
66603,40532
66612,40543
66618,40555
66622,40569
66624,40585
66624,40822
66622,40838
66618,40851
66612,40864
66603,40874
66592,40883
66580,40890
66566,40894
66550,40896
66284,40896
66267,40894
66254,40890
66242,40883
66231,40874
66222,40864
66215,40851
66211,40838
66210,40822
66210,40585
66211,40569
66215,40555
66222,40543
66231,40532
66242,40523
66254,40517
66267,40513
66284,40511
66550,40511
66566,40513
Z" /> 
<path style="fill:#000000; fill-opacity:1.0; 
stroke:#000000; stroke-width:0; stroke-opacity:1; 
stroke-linecap:round; stroke-linejoin:round;fill-rule:evenodd;"
d="M 68914,39950
68953,39954
69007,39970
69007,39970
69057,39997
69100,40033
69136,40076
69162,40126
69162,40126
69179,40180
69184,40236
69179,40292
69171,40319
69162,40346
69136,40395
69100,40439
69057,40475
69007,40501
69007,40501
68953,40517
68925,40520
68911,40522
68883,40522
68869,40520
68841,40517
68787,40501
68787,40501
68738,40475
68694,40439
68658,40395
68632,40346
68624,40319
68615,40292
68610,40236
68615,40180
68632,40126
68632,40126
68658,40076
68694,40033
68738,39997
68787,39970
68787,39970
68841,39954
68880,39950
68883,39950
68911,39950
68914,39950
Z" /> 
<path style="fill:#000000; fill-opacity:1.0; 
stroke:#000000; stroke-width:0; stroke-opacity:1; 
stroke-linecap:round; stroke-linejoin:round;fill-rule:evenodd;"
d="M 69702,39950
69741,39954
69794,39970
69794,39970
69844,39997
69888,40033
69923,40076
69950,40126
69950,40126
69966,40180
69972,40236
69966,40292
69958,40319
69950,40346
69923,40395
69888,40439
69844,40475
69794,40501
69794,40501
69741,40517
69713,40520
69699,40522
69671,40522
69657,40520
69629,40517
69575,40501
69575,40501
69525,40475
69481,40439
69446,40395
69419,40346
69411,40319
69403,40292
69397,40236
69403,40180
69419,40126
69419,40126
69446,40076
69481,40033
69525,39997
69575,39970
69575,39970
69629,39954
69667,39950
69671,39950
69699,39950
69702,39950
Z" /> 
<path style="fill:#000000; fill-opacity:1.0; 
stroke:#000000; stroke-width:0; stroke-opacity:1; 
stroke-linecap:round; stroke-linejoin:round;fill-rule:evenodd;"
d="M 59990,39130
60032,39138
60150,39187
60256,39258
60347,39349
60418,39455
60461,39558
60467,39574
60492,39699
60492,39827
60478,39898
60467,39953
60418,40071
60347,40178
60256,40268
60150,40339
60150,40339
60150,40339
60115,40354
60032,40388
59997,40395
59906,40413
59778,40413
59688,40395
59652,40388
59569,40354
59534,40339
59534,40339
59534,40339
59428,40268
59337,40178
59266,40071
59217,39953
59206,39898
59192,39827
59192,39699
59217,39574
59223,39558
59266,39455
59337,39349
59428,39258
59534,39187
59652,39138
59694,39130
59778,39113
59906,39113
59990,39130
Z" /> 
<path style="fill:#000000; fill-opacity:1.0; 
stroke:#000000; stroke-width:0; stroke-opacity:1; 
stroke-linecap:round; stroke-linejoin:round;fill-rule:evenodd;"
d="M 64229,39912
64242,39916
64254,39923
64265,39932
64274,39942
64281,39955
64285,39968
64286,39984
64286,40251
64285,40267
64281,40280
64274,40293
64265,40304
64254,40312
64242,40319
64229,40323
64212,40325
63976,40325
63959,40323
63946,40319
63934,40312
63923,40304
63914,40293
63907,40280
63903,40267
63902,40251
63902,39984
63903,39968
63907,39955
63914,39942
63923,39932
63934,39923
63946,39916
63959,39912
63976,39911
64212,39911
64229,39912
Z" /> 
<path style="fill:#000000; fill-opacity:1.0; 
stroke:#000000; stroke-width:0; stroke-opacity:1; 
stroke-linecap:round; stroke-linejoin:round;fill-rule:evenodd;"
d="M 63609,39912
63622,39916
63634,39923
63645,39932
63654,39942
63661,39955
63665,39968
63666,39984
63666,40251
63665,40267
63661,40280
63654,40293
63645,40304
63634,40312
63622,40319
63609,40323
63592,40325
63356,40325
63339,40323
63326,40319
63314,40312
63303,40304
63294,40293
63287,40280
63283,40267
63282,40251
63282,39984
63283,39968
63287,39955
63294,39942
63303,39932
63314,39923
63326,39916
63339,39912
63356,39911
63592,39911
63609,39912
Z" /> 
<path style="fill:#000000; fill-opacity:1.0; 
stroke:#000000; stroke-width:0; stroke-opacity:1; 
stroke-linecap:round; stroke-linejoin:round;fill-rule:evenodd;"
d="M 62078,39897
62091,39901
62104,39908
62115,39917
62123,39928
62130,39940
62134,39953
62136,39970
62136,40206
62134,40223
62130,40236
62123,40248
62115,40259
62104,40268
62091,40275
62078,40279
62062,40280
61796,40280
61779,40279
61766,40275
61753,40268
61743,40259
61734,40248
61727,40236
61723,40223
61722,40206
61722,39970
61723,39953
61727,39940
61734,39928
61743,39917
61753,39908
61766,39901
61779,39897
61796,39896
62062,39896
62078,39897
Z" /> 
<path style="fill:#000000; fill-opacity:1.0; 
stroke:#000000; stroke-width:0; stroke-opacity:1; 
stroke-linecap:round; stroke-linejoin:round;fill-rule:evenodd;"
d="M 65070,39892
65084,39897
65096,39903
65107,39912
65116,39923
65122,39935
65126,39948
65128,39965
65128,40202
65126,40218
65122,40231
65116,40244
65107,40254
65096,40263
65084,40270
65070,40274
65054,40275
64788,40275
64771,40274
64758,40270
64746,40263
64735,40254
64726,40244
64719,40231
64715,40218
64714,40202
64714,39965
64715,39948
64719,39935
64726,39923
64735,39912
64746,39903
64758,39897
64771,39892
64788,39891
65054,39891
65070,39892
Z" /> 
<path style="fill:#000000; fill-opacity:1.0; 
stroke:#000000; stroke-width:0; stroke-opacity:1; 
stroke-linecap:round; stroke-linejoin:round;fill-rule:evenodd;"
d="M 66566,39892
66580,39897
66592,39903
66603,39912
66612,39923
66618,39935
66622,39948
66624,39965
66624,40202
66622,40218
66618,40231
66612,40244
66603,40254
66592,40263
66580,40270
66566,40274
66550,40275
66284,40275
66267,40274
66254,40270
66242,40263
66231,40254
66222,40244
66215,40231
66211,40218
66210,40202
66210,39965
66211,39948
66215,39935
66222,39923
66231,39912
66242,39903
66254,39897
66267,39892
66284,39891
66550,39891
66566,39892
Z" /> 
<path style="fill:#000000; fill-opacity:1.0; 
stroke:#000000; stroke-width:0; stroke-opacity:1; 
stroke-linecap:round; stroke-linejoin:round;fill-rule:evenodd;"
d="M 68925,39164
68953,39167
69007,39183
69007,39183
69057,39210
69100,39245
69136,39289
69162,39338
69162,39338
69179,39392
69184,39448
69179,39504
69162,39558
69162,39558
69136,39608
69100,39651
69057,39687
69007,39714
69007,39714
68953,39730
68925,39733
68911,39734
68883,39734
68869,39733
68841,39730
68787,39714
68787,39714
68738,39687
68694,39651
68658,39608
68632,39558
68632,39558
68615,39504
68610,39448
68615,39392
68632,39338
68632,39338
68658,39289
68694,39245
68738,39210
68787,39183
68787,39183
68841,39167
68869,39164
68883,39162
68911,39162
68925,39164
Z" /> 
<path style="fill:#000000; fill-opacity:1.0; 
stroke:#000000; stroke-width:0; stroke-opacity:1; 
stroke-linecap:round; stroke-linejoin:round;fill-rule:evenodd;"
d="M 69713,39164
69741,39167
69794,39183
69794,39183
69844,39210
69888,39245
69923,39289
69950,39338
69950,39338
69966,39392
69972,39448
69966,39504
69950,39558
69950,39558
69923,39608
69888,39651
69844,39687
69794,39714
69794,39714
69741,39730
69713,39733
69699,39734
69671,39734
69657,39733
69629,39730
69575,39714
69575,39714
69525,39687
69481,39651
69446,39608
69419,39558
69419,39558
69403,39504
69397,39448
69403,39392
69419,39338
69419,39338
69446,39289
69481,39245
69525,39210
69575,39183
69575,39183
69629,39167
69657,39164
69671,39162
69699,39162
69713,39164
Z" /> 
<path style="fill:#000000; fill-opacity:1.0; 
stroke:#000000; stroke-width:0; stroke-opacity:1; 
stroke-linecap:round; stroke-linejoin:round;fill-rule:evenodd;"
d="M 66614,39646
66259,39646
66259,39251
66614,39251
66614,39646
Z" /> 
<path style="fill:#000000; fill-opacity:1.0; 
stroke:#000000; stroke-width:0; stroke-opacity:1; 
stroke-linecap:round; stroke-linejoin:round;fill-rule:evenodd;"
d="M 67362,39646
67007,39646
67007,39251
67362,39251
67362,39646
Z" /> 
<path style="fill:#000000; fill-opacity:1.0; 
stroke:#000000; stroke-width:0; stroke-opacity:1; 
stroke-linecap:round; stroke-linejoin:round;fill-rule:evenodd;"
d="M 65866,39646
65511,39646
65511,39251
65866,39251
65866,39646
Z" /> 
<path style="fill:#000000; fill-opacity:1.0; 
stroke:#000000; stroke-width:0; stroke-opacity:1; 
stroke-linecap:round; stroke-linejoin:round;fill-rule:evenodd;"
d="M 63622,39646
63267,39646
63267,39251
63622,39251
63622,39646
Z" /> 
<path style="fill:#000000; fill-opacity:1.0; 
stroke:#000000; stroke-width:0; stroke-opacity:1; 
stroke-linecap:round; stroke-linejoin:round;fill-rule:evenodd;"
d="M 65118,39646
64763,39646
64763,39251
65118,39251
65118,39646
Z" /> 
<path style="fill:#000000; fill-opacity:1.0; 
stroke:#000000; stroke-width:0; stroke-opacity:1; 
stroke-linecap:round; stroke-linejoin:round;fill-rule:evenodd;"
d="M 64370,39646
64015,39646
64015,39251
64370,39251
64370,39646
Z" /> 
<path style="fill:#000000; fill-opacity:1.0; 
stroke:#000000; stroke-width:0; stroke-opacity:1; 
stroke-linecap:round; stroke-linejoin:round;fill-rule:evenodd;"
d="M 62874,39646
62519,39646
62519,39251
62874,39251
62874,39646
Z" /> 
<path style="fill:#000000; fill-opacity:1.0; 
stroke:#000000; stroke-width:0; stroke-opacity:1; 
stroke-linecap:round; stroke-linejoin:round;fill-rule:evenodd;"
d="M 62126,39646
61771,39646
61771,39251
62126,39251
62126,39646
Z" /> 
<path style="fill:#000000; fill-opacity:1.0; 
stroke:#000000; stroke-width:0; stroke-opacity:1; 
stroke-linecap:round; stroke-linejoin:round;fill-rule:evenodd;"
d="M 69713,38376
69741,38379
69794,38396
69794,38396
69844,38422
69888,38458
69923,38501
69950,38551
69950,38551
69966,38605
69972,38661
69966,38717
69950,38771
69950,38771
69923,38820
69888,38864
69844,38900
69794,38926
69794,38926
69741,38943
69713,38945
69699,38947
69671,38947
69657,38945
69629,38943
69575,38926
69575,38926
69525,38900
69481,38864
69446,38820
69419,38771
69419,38771
69403,38717
69397,38661
69403,38605
69419,38551
69419,38551
69446,38501
69481,38458
69525,38422
69575,38396
69575,38396
69629,38379
69657,38376
69671,38375
69699,38375
69713,38376
Z" /> 
<path style="fill:#000000; fill-opacity:1.0; 
stroke:#000000; stroke-width:0; stroke-opacity:1; 
stroke-linecap:round; stroke-linejoin:round;fill-rule:evenodd;"
d="M 68925,38376
68953,38379
69007,38396
69007,38396
69057,38422
69100,38458
69136,38501
69162,38551
69162,38551
69179,38605
69184,38661
69179,38717
69162,38771
69162,38771
69136,38820
69100,38864
69057,38900
69007,38926
69007,38926
68953,38943
68925,38945
68911,38947
68883,38947
68869,38945
68841,38943
68787,38926
68787,38926
68738,38900
68694,38864
68658,38820
68632,38771
68632,38771
68615,38717
68610,38661
68615,38605
68632,38551
68632,38551
68658,38501
68694,38458
68738,38422
68787,38396
68787,38396
68841,38379
68869,38376
68883,38375
68911,38375
68925,38376
Z" /> 
<path style="fill:#000000; fill-opacity:1.0; 
stroke:#000000; stroke-width:0; stroke-opacity:1; 
stroke-linecap:round; stroke-linejoin:round;fill-rule:evenodd;"
d="M 66988,38858
66633,38858
66633,38464
66988,38464
66988,38858
Z" /> 
<path style="fill:#000000; fill-opacity:1.0; 
stroke:#000000; stroke-width:0; stroke-opacity:1; 
stroke-linecap:round; stroke-linejoin:round;fill-rule:evenodd;"
d="M 62500,38858
62145,38858
62145,38464
62500,38464
62500,38858
Z" /> 
<path style="fill:#000000; fill-opacity:1.0; 
stroke:#000000; stroke-width:0; stroke-opacity:1; 
stroke-linecap:round; stroke-linejoin:round;fill-rule:evenodd;"
d="M 63996,38858
63641,38858
63641,38464
63996,38464
63996,38858
Z" /> 
<path style="fill:#000000; fill-opacity:1.0; 
stroke:#000000; stroke-width:0; stroke-opacity:1; 
stroke-linecap:round; stroke-linejoin:round;fill-rule:evenodd;"
d="M 65492,38858
65137,38858
65137,38464
65492,38464
65492,38858
Z" /> 
<path style="fill:#000000; fill-opacity:1.0; 
stroke:#000000; stroke-width:0; stroke-opacity:1; 
stroke-linecap:round; stroke-linejoin:round;fill-rule:evenodd;"
d="M 69713,37589
69741,37592
69794,37608
69794,37608
69844,37635
69888,37670
69923,37714
69950,37764
69950,37764
69966,37817
69972,37874
69966,37930
69950,37983
69950,37983
69923,38033
69888,38077
69844,38112
69794,38139
69794,38139
69741,38155
69713,38158
69699,38159
69671,38159
69657,38158
69629,38155
69575,38139
69575,38139
69525,38112
69481,38077
69446,38033
69419,37983
69419,37983
69403,37930
69397,37874
69403,37817
69419,37764
69419,37764
69446,37714
69481,37670
69525,37635
69575,37608
69575,37608
69629,37592
69657,37589
69671,37588
69699,37588
69713,37589
Z" /> 
<path style="fill:#000000; fill-opacity:1.0; 
stroke:#000000; stroke-width:0; stroke-opacity:1; 
stroke-linecap:round; stroke-linejoin:round;fill-rule:evenodd;"
d="M 68925,37589
68953,37592
69007,37608
69007,37608
69057,37635
69100,37670
69136,37714
69162,37764
69162,37764
69179,37817
69184,37874
69179,37930
69162,37983
69162,37983
69136,38033
69100,38077
69057,38112
69007,38139
69007,38139
68953,38155
68925,38158
68911,38159
68883,38159
68869,38158
68841,38155
68787,38139
68787,38139
68738,38112
68694,38077
68658,38033
68632,37983
68632,37983
68615,37930
68610,37874
68615,37817
68632,37764
68632,37764
68658,37714
68694,37670
68738,37635
68787,37608
68787,37608
68841,37592
68869,37589
68883,37588
68911,37588
68925,37589
Z" /> 
<path style="fill:#000000; fill-opacity:1.0; 
stroke:#000000; stroke-width:0; stroke-opacity:1; 
stroke-linecap:round; stroke-linejoin:round;fill-rule:evenodd;"
d="M 63574,37678
63588,37682
63600,37689
63611,37697
63620,37708
63626,37721
63630,37734
63632,37750
63632,37987
63630,38003
63626,38017
63620,38029
63611,38040
63600,38049
63588,38055
63574,38059
63558,38061
63292,38061
63275,38059
63262,38055
63250,38049
63239,38040
63230,38029
63223,38017
63219,38003
63218,37987
63218,37750
63219,37734
63223,37721
63230,37708
63239,37697
63250,37689
63262,37682
63275,37678
63292,37676
63558,37676
63574,37678
Z" /> 
<path style="fill:#000000; fill-opacity:1.0; 
stroke:#000000; stroke-width:0; stroke-opacity:1; 
stroke-linecap:round; stroke-linejoin:round;fill-rule:evenodd;"
d="M 65858,37678
65871,37682
65883,37689
65894,37697
65903,37708
65910,37721
65914,37734
65915,37750
65915,37987
65914,38003
65910,38017
65903,38029
65894,38040
65883,38049
65871,38055
65858,38059
65841,38061
65575,38061
65559,38059
65545,38055
65533,38049
65522,38040
65513,38029
65507,38017
65503,38003
65501,37987
65501,37750
65503,37734
65507,37721
65513,37708
65522,37697
65533,37689
65545,37682
65559,37678
65575,37676
65841,37676
65858,37678
Z" /> 
<path style="fill:#000000; fill-opacity:1.0; 
stroke:#000000; stroke-width:0; stroke-opacity:1; 
stroke-linecap:round; stroke-linejoin:round;fill-rule:evenodd;"
d="M 65858,37058
65871,37062
65883,37068
65894,37077
65903,37088
65910,37100
65914,37114
65915,37130
65915,37367
65914,37383
65910,37397
65903,37409
65894,37420
65883,37429
65871,37435
65858,37439
65841,37441
65575,37441
65559,37439
65545,37435
65533,37429
65522,37420
65513,37409
65507,37397
65503,37383
65501,37367
65501,37130
65503,37114
65507,37100
65513,37088
65522,37077
65533,37068
65545,37062
65559,37058
65575,37056
65841,37056
65858,37058
Z" /> 
<path style="fill:#000000; fill-opacity:1.0; 
stroke:#000000; stroke-width:0; stroke-opacity:1; 
stroke-linecap:round; stroke-linejoin:round;fill-rule:evenodd;"
d="M 63574,37058
63588,37062
63600,37068
63611,37077
63620,37088
63626,37100
63630,37114
63632,37130
63632,37367
63630,37383
63626,37397
63620,37409
63611,37420
63600,37429
63588,37435
63574,37439
63558,37441
63292,37441
63275,37439
63262,37435
63250,37429
63239,37420
63230,37409
63223,37397
63219,37383
63218,37367
63218,37130
63219,37114
63223,37100
63230,37088
63239,37077
63250,37068
63262,37062
63275,37058
63292,37056
63558,37056
63574,37058
Z" /> 
<path style="fill:#000000; fill-opacity:1.0; 
stroke:#000000; stroke-width:0; stroke-opacity:1; 
stroke-linecap:round; stroke-linejoin:round;fill-rule:evenodd;"
d="M 68925,36802
68953,36804
69007,36821
69007,36821
69057,36847
69100,36883
69136,36927
69162,36976
69162,36976
69179,37030
69184,37086
69179,37142
69162,37196
69162,37196
69136,37246
69100,37289
69057,37325
69007,37351
69007,37351
68953,37368
68925,37371
68911,37372
68883,37372
68869,37371
68841,37368
68787,37351
68787,37351
68738,37325
68694,37289
68658,37246
68632,37196
68632,37196
68615,37142
68610,37086
68615,37030
68632,36976
68632,36976
68658,36927
68694,36883
68738,36847
68787,36821
68787,36821
68841,36804
68869,36802
68883,36800
68911,36800
68925,36802
Z" /> 
<path style="fill:#000000; fill-opacity:1.0; 
stroke:#000000; stroke-width:0; stroke-opacity:1; 
stroke-linecap:round; stroke-linejoin:round;fill-rule:evenodd;"
d="M 69713,36802
69741,36804
69794,36821
69794,36821
69844,36847
69888,36883
69923,36927
69950,36976
69950,36976
69966,37030
69972,37086
69966,37142
69950,37196
69950,37196
69923,37246
69888,37289
69844,37325
69794,37351
69794,37351
69741,37368
69713,37371
69699,37372
69671,37372
69657,37371
69629,37368
69575,37351
69575,37351
69525,37325
69481,37289
69446,37246
69419,37196
69419,37196
69403,37142
69397,37086
69403,37030
69419,36976
69419,36976
69446,36927
69481,36883
69525,36847
69575,36821
69575,36821
69629,36804
69657,36802
69671,36800
69699,36800
69713,36802
Z" /> 
<path style="fill:#000000; fill-opacity:1.0; 
stroke:#000000; stroke-width:0; stroke-opacity:1; 
stroke-linecap:round; stroke-linejoin:round;fill-rule:evenodd;"
d="M 66802,36895
66816,36899
66828,36906
66839,36915
66848,36926
66854,36938
66859,36951
66860,36968
66860,37204
66859,37221
66854,37234
66848,37247
66839,37257
66828,37266
66816,37273
66802,37277
66786,37278
66520,37278
66504,37277
66490,37273
66478,37266
66467,37257
66458,37247
66452,37234
66448,37221
66446,37204
66446,36968
66448,36951
66452,36938
66458,36926
66467,36915
66478,36906
66490,36899
66504,36895
66520,36894
66786,36894
66802,36895
Z" /> 
<path style="fill:#000000; fill-opacity:1.0; 
stroke:#000000; stroke-width:0; stroke-opacity:1; 
stroke-linecap:round; stroke-linejoin:round;fill-rule:evenodd;"
d="M 62708,36890
62721,36895
62734,36901
62745,36910
62753,36921
62760,36933
62764,36947
62766,36963
62766,37200
62764,37216
62760,37229
62753,37242
62745,37252
62734,37261
62721,37268
62708,37272
62692,37274
62425,37274
62409,37272
62396,37268
62383,37261
62373,37252
62364,37242
62357,37229
62353,37216
62351,37200
62351,36963
62353,36947
62357,36933
62364,36921
62373,36910
62383,36901
62396,36895
62409,36890
62425,36889
62692,36889
62708,36890
Z" /> 
<path style="fill:#000000; fill-opacity:1.0; 
stroke:#000000; stroke-width:0; stroke-opacity:1; 
stroke-linecap:round; stroke-linejoin:round;fill-rule:evenodd;"
d="M 64687,36544
64739,36566
64786,36597
64825,36637
64857,36684
64878,36735
64889,36790
64889,36847
64878,36902
64857,36954
64825,37000
64786,37040
64739,37071
64687,37093
64632,37104
64576,37104
64521,37093
64469,37071
64422,37040
64383,37000
64351,36954
64330,36902
64319,36847
64319,36790
64330,36735
64351,36684
64383,36637
64422,36597
64469,36566
64521,36544
64576,36533
64632,36533
64687,36544
Z" /> 
<path style="fill:#000000; fill-opacity:1.0; 
stroke:#000000; stroke-width:0; stroke-opacity:1; 
stroke-linecap:round; stroke-linejoin:round;fill-rule:evenodd;"
d="M 63555,36265
63607,36287
63654,36318
63693,36358
63725,36405
63746,36456
63757,36511
63757,36568
63746,36623
63725,36675
63693,36721
63654,36761
63607,36792
63555,36814
63500,36825
63444,36825
63389,36814
63337,36792
63290,36761
63251,36721
63219,36675
63198,36623
63187,36568
63187,36511
63198,36456
63219,36405
63251,36358
63290,36318
63337,36287
63389,36265
63444,36254
63500,36254
63555,36265
Z" /> 
<path style="fill:#000000; fill-opacity:1.0; 
stroke:#000000; stroke-width:0; stroke-opacity:1; 
stroke-linecap:round; stroke-linejoin:round;fill-rule:evenodd;"
d="M 65819,36265
65871,36287
65918,36318
65957,36358
65989,36405
66010,36456
66021,36511
66021,36568
66010,36623
65989,36675
65957,36721
65918,36761
65871,36792
65819,36814
65764,36825
65708,36825
65653,36814
65601,36792
65554,36761
65515,36721
65483,36675
65462,36623
65451,36568
65451,36511
65462,36456
65483,36405
65515,36358
65554,36318
65601,36287
65653,36265
65708,36254
65764,36254
65819,36265
Z" /> 
<path style="fill:#000000; fill-opacity:1.0; 
stroke:#000000; stroke-width:0; stroke-opacity:1; 
stroke-linecap:round; stroke-linejoin:round;fill-rule:evenodd;"
d="M 66802,36275
66816,36279
66828,36286
66839,36295
66848,36306
66854,36318
66859,36331
66860,36348
66860,36584
66859,36601
66854,36614
66848,36626
66839,36637
66828,36646
66816,36653
66802,36657
66786,36658
66520,36658
66504,36657
66490,36653
66478,36646
66467,36637
66458,36626
66452,36614
66448,36601
66446,36584
66446,36348
66448,36331
66452,36318
66458,36306
66467,36295
66478,36286
66490,36279
66504,36275
66520,36274
66786,36274
66802,36275
Z" /> 
<path style="fill:#000000; fill-opacity:1.0; 
stroke:#000000; stroke-width:0; stroke-opacity:1; 
stroke-linecap:round; stroke-linejoin:round;fill-rule:evenodd;"
d="M 62708,36270
62721,36274
62734,36281
62745,36290
62753,36301
62760,36313
62764,36326
62766,36343
62766,36579
62764,36596
62760,36609
62753,36622
62745,36632
62734,36641
62721,36648
62708,36652
62692,36653
62425,36653
62409,36652
62396,36648
62383,36641
62373,36632
62364,36622
62357,36609
62353,36596
62351,36579
62351,36343
62353,36326
62357,36313
62364,36301
62373,36290
62383,36281
62396,36274
62409,36270
62425,36269
62692,36269
62708,36270
Z" /> 
<path style="fill:#000000; fill-opacity:1.0; 
stroke:#000000; stroke-width:0; stroke-opacity:1; 
stroke-linecap:round; stroke-linejoin:round;fill-rule:evenodd;"
d="M 69713,36014
69741,36017
69794,36033
69794,36033
69844,36060
69888,36096
69923,36139
69950,36189
69950,36189
69966,36243
69972,36299
69966,36355
69950,36409
69950,36409
69923,36458
69888,36502
69844,36538
69794,36564
69794,36564
69741,36580
69713,36583
69699,36585
69671,36585
69657,36583
69629,36580
69575,36564
69575,36564
69525,36538
69481,36502
69446,36458
69419,36409
69419,36409
69403,36355
69397,36299
69403,36243
69419,36189
69419,36189
69446,36139
69481,36096
69525,36060
69575,36033
69575,36033
69629,36017
69657,36014
69671,36013
69699,36013
69713,36014
Z" /> 
<path style="fill:#000000; fill-opacity:1.0; 
stroke:#000000; stroke-width:0; stroke-opacity:1; 
stroke-linecap:round; stroke-linejoin:round;fill-rule:evenodd;"
d="M 68925,36014
68953,36017
69007,36033
69007,36033
69057,36060
69100,36096
69136,36139
69162,36189
69162,36189
69179,36243
69184,36299
69179,36355
69162,36409
69162,36409
69136,36458
69100,36502
69057,36538
69007,36564
69007,36564
68953,36580
68925,36583
68911,36585
68883,36585
68869,36583
68841,36580
68787,36564
68787,36564
68738,36538
68694,36502
68658,36458
68632,36409
68632,36409
68615,36355
68610,36299
68615,36243
68632,36189
68632,36189
68658,36139
68694,36096
68738,36060
68787,36033
68787,36033
68841,36017
68869,36014
68883,36013
68911,36013
68925,36014
Z" /> 
<path style="fill:#000000; fill-opacity:1.0; 
stroke:#000000; stroke-width:0; stroke-opacity:1; 
stroke-linecap:round; stroke-linejoin:round;fill-rule:evenodd;"
d="M 66692,35492
66744,35514
66791,35545
66830,35585
66862,35632
66883,35683
66894,35738
66894,35795
66883,35850
66862,35902
66830,35948
66791,35988
66744,36019
66692,36041
66637,36052
66581,36052
66526,36041
66474,36019
66427,35988
66388,35948
66356,35902
66335,35850
66324,35795
66324,35738
66335,35683
66356,35632
66388,35585
66427,35545
66474,35514
66526,35492
66581,35481
66637,35481
66692,35492
Z" /> 
<path style="fill:#000000; fill-opacity:1.0; 
stroke:#000000; stroke-width:0; stroke-opacity:1; 
stroke-linecap:round; stroke-linejoin:round;fill-rule:evenodd;"
d="M 62682,35492
62734,35514
62781,35545
62820,35585
62852,35632
62873,35683
62884,35738
62884,35795
62873,35850
62852,35902
62820,35948
62781,35988
62734,36019
62682,36041
62627,36052
62571,36052
62516,36041
62464,36019
62417,35988
62378,35948
62346,35902
62325,35850
62314,35795
62314,35738
62325,35683
62346,35632
62378,35585
62417,35545
62464,35514
62516,35492
62571,35481
62627,35481
62682,35492
Z" /> 
<path style="fill:#000000; fill-opacity:1.0; 
stroke:#000000; stroke-width:0; stroke-opacity:1; 
stroke-linecap:round; stroke-linejoin:round;fill-rule:evenodd;"
d="M 69713,35227
69741,35230
69794,35246
69794,35246
69844,35273
69888,35308
69923,35352
69950,35401
69950,35401
69966,35455
69972,35511
69966,35567
69952,35613
69950,35621
69923,35671
69888,35714
69844,35750
69794,35777
69794,35777
69741,35793
69713,35796
69699,35797
69671,35797
69657,35796
69629,35793
69575,35777
69575,35777
69525,35750
69481,35714
69446,35671
69419,35621
69417,35613
69403,35567
69397,35511
69403,35455
69419,35401
69419,35401
69446,35352
69481,35308
69525,35273
69575,35246
69575,35246
69629,35230
69657,35227
69671,35225
69699,35225
69713,35227
Z" /> 
<path style="fill:#000000; fill-opacity:1.0; 
stroke:#000000; stroke-width:0; stroke-opacity:1; 
stroke-linecap:round; stroke-linejoin:round;fill-rule:evenodd;"
d="M 69183,35797
68611,35797
68611,35225
69183,35225
69183,35797
Z" /> 
<path style="fill:#000000; fill-opacity:1.0; 
stroke:#000000; stroke-width:0; stroke-opacity:1; 
stroke-linecap:round; stroke-linejoin:round;fill-rule:evenodd;"
d="M 66094,35242
66107,35246
66120,35253
66130,35261
66139,35272
66146,35285
66150,35298
66151,35314
66151,35551
66150,35567
66146,35581
66139,35593
66130,35604
66120,35613
66107,35619
66094,35623
66077,35625
65811,35625
65795,35623
65782,35619
65769,35613
65758,35604
65750,35593
65743,35581
65739,35567
65737,35551
65737,35314
65739,35298
65743,35285
65750,35272
65758,35261
65769,35253
65782,35246
65795,35242
65811,35240
66077,35240
66094,35242
Z" /> 
<path style="fill:#000000; fill-opacity:1.0; 
stroke:#000000; stroke-width:0; stroke-opacity:1; 
stroke-linecap:round; stroke-linejoin:round;fill-rule:evenodd;"
d="M 63417,35158
63430,35162
63442,35169
63453,35178
63462,35189
63469,35201
63473,35214
63474,35231
63474,35467
63473,35484
63469,35497
63462,35509
63453,35520
63442,35529
63430,35536
63417,35540
63400,35541
63134,35541
63118,35540
63104,35536
63092,35529
63081,35520
63072,35509
63066,35497
63062,35484
63060,35467
63060,35231
63062,35214
63066,35201
63072,35189
63081,35178
63092,35169
63104,35162
63118,35158
63134,35157
63400,35157
63417,35158
Z" /> 
<path style="fill:#000000; fill-opacity:1.0; 
stroke:#000000; stroke-width:0; stroke-opacity:1; 
stroke-linecap:round; stroke-linejoin:round;fill-rule:evenodd;"
d="M 66094,34622
66107,34626
66120,34632
66130,34641
66139,34652
66146,34664
66150,34678
66151,34694
66151,34931
66150,34947
66146,34961
66139,34973
66130,34984
66120,34993
66107,34999
66094,35003
66077,35005
65811,35005
65795,35003
65782,34999
65769,34993
65758,34984
65750,34973
65743,34961
65739,34947
65737,34931
65737,34694
65739,34678
65743,34664
65750,34652
65758,34641
65769,34632
65782,34626
65795,34622
65811,34620
66077,34620
66094,34622
Z" /> 
<path style="fill:#000000; fill-opacity:1.0; 
stroke:#000000; stroke-width:0; stroke-opacity:1; 
stroke-linecap:round; stroke-linejoin:round;fill-rule:evenodd;"
d="M 62268,34401
62320,34423
62367,34454
62406,34494
62438,34541
62459,34592
62470,34647
62470,34704
62459,34759
62438,34811
62406,34857
62367,34897
62320,34928
62268,34950
62213,34961
62157,34961
62102,34950
62050,34928
62003,34897
61964,34857
61932,34811
61911,34759
61900,34704
61900,34647
61911,34592
61932,34541
61964,34494
62003,34454
62050,34423
62102,34401
62157,34390
62213,34390
62268,34401
Z" /> 
<path style="fill:#000000; fill-opacity:1.0; 
stroke:#000000; stroke-width:0; stroke-opacity:1; 
stroke-linecap:round; stroke-linejoin:round;fill-rule:evenodd;"
d="M 67106,34401
67158,34423
67205,34454
67244,34494
67276,34541
67297,34592
67308,34647
67308,34704
67297,34759
67276,34811
67244,34857
67205,34897
67158,34928
67106,34950
67051,34961
66995,34961
66940,34950
66888,34928
66841,34897
66802,34857
66770,34811
66749,34759
66738,34704
66738,34647
66749,34592
66770,34541
66802,34494
66841,34454
66888,34423
66940,34401
66995,34390
67051,34390
67106,34401
Z" /> 
<path style="fill:#000000; fill-opacity:1.0; 
stroke:#000000; stroke-width:0; stroke-opacity:1; 
stroke-linecap:round; stroke-linejoin:round;fill-rule:evenodd;"
d="M 63417,34538
63430,34542
63442,34549
63453,34558
63462,34568
63469,34581
63473,34594
63474,34610
63474,34847
63473,34864
63469,34877
63462,34889
63453,34900
63442,34909
63430,34915
63417,34920
63400,34921
63134,34921
63118,34920
63104,34915
63092,34909
63081,34900
63072,34889
63066,34877
63062,34864
63060,34847
63060,34610
63062,34594
63066,34581
63072,34568
63081,34558
63092,34549
63104,34542
63118,34538
63134,34537
63400,34537
63417,34538
Z" /> 
<path style="fill:#000000; fill-opacity:1.0; 
stroke:#000000; stroke-width:0; stroke-opacity:1; 
stroke-linecap:round; stroke-linejoin:round;fill-rule:evenodd;"
d="M 66330,33972
66343,33976
66356,33983
66367,33992
66375,34002
66382,34015
66386,34028
66388,34045
66388,34281
66386,34298
66382,34311
66375,34323
66367,34334
66356,34343
66343,34350
66330,34354
66314,34355
66047,34355
66031,34354
66018,34350
66005,34343
65995,34334
65986,34323
65979,34311
65975,34298
65974,34281
65974,34045
65975,34028
65979,34015
65986,34002
65995,33992
66005,33983
66018,33976
66031,33972
66047,33971
66314,33971
66330,33972
Z" /> 
<path style="fill:#000000; fill-opacity:1.0; 
stroke:#000000; stroke-width:0; stroke-opacity:1; 
stroke-linecap:round; stroke-linejoin:round;fill-rule:evenodd;"
d="M 63180,33893
63194,33897
63206,33904
63217,33913
63226,33924
63232,33936
63236,33949
63238,33966
63238,34202
63236,34219
63232,34232
63226,34245
63217,34255
63206,34264
63194,34271
63180,34275
63164,34276
62898,34276
62882,34275
62868,34271
62856,34264
62845,34255
62836,34245
62830,34232
62826,34219
62824,34202
62824,33966
62826,33949
62830,33936
62836,33924
62845,33913
62856,33904
62868,33897
62882,33893
62898,33892
63164,33892
63180,33893
Z" /> 
<path style="fill:#000000; fill-opacity:1.0; 
stroke:#000000; stroke-width:0; stroke-opacity:1; 
stroke-linecap:round; stroke-linejoin:round;fill-rule:evenodd;"
d="M 66965,33244
67017,33266
67064,33297
67103,33337
67135,33384
67156,33435
67167,33490
67167,33547
67156,33602
67135,33654
67103,33700
67064,33740
67017,33771
66965,33793
66910,33804
66854,33804
66799,33793
66747,33771
66700,33740
66661,33700
66629,33654
66608,33602
66597,33547
66597,33490
66608,33435
66629,33384
66661,33337
66700,33297
66747,33266
66799,33244
66854,33233
66910,33233
66965,33244
Z" /> 
<path style="fill:#000000; fill-opacity:1.0; 
stroke:#000000; stroke-width:0; stroke-opacity:1; 
stroke-linecap:round; stroke-linejoin:round;fill-rule:evenodd;"
d="M 62409,33244
62461,33266
62508,33297
62547,33337
62579,33384
62600,33435
62611,33490
62611,33547
62600,33602
62579,33654
62547,33700
62508,33740
62461,33771
62409,33793
62354,33804
62298,33804
62243,33793
62191,33771
62144,33740
62105,33700
62073,33654
62052,33602
62041,33547
62041,33490
62052,33435
62073,33384
62105,33337
62144,33297
62191,33266
62243,33244
62298,33233
62354,33233
62409,33244
Z" /> 
<path style="fill:#000000; fill-opacity:1.0; 
stroke:#000000; stroke-width:0; stroke-opacity:1; 
stroke-linecap:round; stroke-linejoin:round;fill-rule:evenodd;"
d="M 66330,33352
66343,33356
66356,33363
66367,33372
66375,33382
66382,33395
66386,33408
66388,33424
66388,33661
66386,33677
66382,33691
66375,33703
66367,33714
66356,33723
66343,33729
66330,33734
66314,33735
66047,33735
66031,33734
66018,33729
66005,33723
65995,33714
65986,33703
65979,33691
65975,33677
65974,33661
65974,33424
65975,33408
65979,33395
65986,33382
65995,33372
66005,33363
66018,33356
66031,33352
66047,33350
66314,33350
66330,33352
Z" /> 
<path style="fill:#000000; fill-opacity:1.0; 
stroke:#000000; stroke-width:0; stroke-opacity:1; 
stroke-linecap:round; stroke-linejoin:round;fill-rule:evenodd;"
d="M 63810,33342
63824,33346
63836,33353
63847,33362
63856,33373
63862,33385
63866,33398
63868,33415
63868,33651
63866,33668
63862,33681
63856,33693
63847,33704
63836,33713
63824,33720
63810,33724
63794,33725
63528,33725
63511,33724
63498,33720
63486,33713
63475,33704
63466,33693
63459,33681
63455,33668
63454,33651
63454,33415
63455,33398
63459,33385
63466,33373
63475,33362
63486,33353
63498,33346
63511,33342
63528,33341
63794,33341
63810,33342
Z" /> 
<path style="fill:#000000; fill-opacity:1.0; 
stroke:#000000; stroke-width:0; stroke-opacity:1; 
stroke-linecap:round; stroke-linejoin:round;fill-rule:evenodd;"
d="M 65700,33342
65714,33346
65726,33353
65737,33362
65746,33373
65752,33385
65756,33398
65758,33415
65758,33651
65756,33668
65752,33681
65746,33693
65737,33704
65726,33713
65714,33720
65700,33724
65684,33725
65418,33725
65401,33724
65388,33720
65376,33713
65365,33704
65356,33693
65349,33681
65345,33668
65344,33651
65344,33415
65345,33398
65349,33385
65356,33373
65365,33362
65376,33353
65388,33346
65401,33342
65418,33341
65684,33341
65700,33342
Z" /> 
<path style="fill:#000000; fill-opacity:1.0; 
stroke:#000000; stroke-width:0; stroke-opacity:1; 
stroke-linecap:round; stroke-linejoin:round;fill-rule:evenodd;"
d="M 63180,33273
63194,33277
63206,33284
63217,33293
63226,33304
63232,33316
63236,33329
63238,33346
63238,33582
63236,33599
63232,33612
63226,33624
63217,33635
63206,33644
63194,33651
63180,33655
63164,33656
62898,33656
62882,33655
62868,33651
62856,33644
62845,33635
62836,33624
62830,33612
62826,33599
62824,33582
62824,33346
62826,33329
62830,33316
62836,33304
62845,33293
62856,33284
62868,33277
62882,33273
62898,33272
63164,33272
63180,33273
Z" /> 
<path style="fill:#000000; fill-opacity:1.0; 
stroke:#000000; stroke-width:0; stroke-opacity:1; 
stroke-linecap:round; stroke-linejoin:round;fill-rule:evenodd;"
d="M 64440,33106
64454,33110
64466,33117
64477,33126
64486,33136
64492,33149
64496,33162
64498,33178
64498,33415
64496,33431
64492,33445
64486,33457
64477,33468
64466,33477
64454,33483
64440,33487
64424,33489
64158,33489
64141,33487
64128,33483
64116,33477
64105,33468
64096,33457
64089,33445
64085,33431
64084,33415
64084,33178
64085,33162
64089,33149
64096,33136
64105,33126
64116,33117
64128,33110
64141,33106
64158,33104
64424,33104
64440,33106
Z" /> 
<path style="fill:#000000; fill-opacity:1.0; 
stroke:#000000; stroke-width:0; stroke-opacity:1; 
stroke-linecap:round; stroke-linejoin:round;fill-rule:evenodd;"
d="M 65070,33106
65084,33110
65096,33117
65107,33126
65116,33136
65122,33149
65126,33162
65128,33178
65128,33415
65126,33431
65122,33445
65116,33457
65107,33468
65096,33477
65084,33483
65070,33487
65054,33489
64788,33489
64771,33487
64758,33483
64746,33477
64735,33468
64726,33457
64719,33445
64715,33431
64714,33415
64714,33178
64715,33162
64719,33149
64726,33136
64735,33126
64746,33117
64758,33110
64771,33106
64788,33104
65054,33104
65070,33106
Z" /> 
<path style="fill:#000000; fill-opacity:1.0; 
stroke:#000000; stroke-width:0; stroke-opacity:1; 
stroke-linecap:round; stroke-linejoin:round;fill-rule:evenodd;"
d="M 69517,32043
69559,32052
69677,32101
69784,32172
69874,32262
69946,32369
69995,32487
69996,32497
70020,32613
70020,32741
70012,32780
69995,32866
69946,32985
69874,33091
69784,33182
69677,33253
69559,33302
69517,33310
69434,33327
69306,33327
69222,33310
69180,33302
69062,33253
68955,33182
68865,33091
68794,32985
68745,32866
68727,32780
68720,32741
68720,32613
68743,32497
68745,32487
68794,32369
68865,32262
68955,32172
69062,32101
69180,32052
69222,32043
69306,32027
69434,32027
69517,32043
Z" /> 
<path style="fill:#000000; fill-opacity:1.0; 
stroke:#000000; stroke-width:0; stroke-opacity:1; 
stroke-linecap:round; stroke-linejoin:round;fill-rule:evenodd;"
d="M 59990,32043
60032,32052
60150,32101
60256,32172
60347,32262
60418,32369
60467,32487
60469,32497
60492,32613
60492,32741
60484,32780
60467,32866
60418,32985
60347,33091
60256,33182
60150,33253
60032,33302
59990,33310
59906,33327
59778,33327
59694,33310
59652,33302
59534,33253
59428,33182
59337,33091
59266,32985
59217,32866
59200,32780
59192,32741
59192,32613
59215,32497
59217,32487
59266,32369
59337,32262
59428,32172
59534,32101
59652,32052
59694,32043
59778,32027
59906,32027
59990,32043
Z" /> 
<path style="fill:#000000; fill-opacity:1.0; 
stroke:#000000; stroke-width:0; stroke-opacity:1; 
stroke-linecap:round; stroke-linejoin:round;fill-rule:evenodd;"
d="M 63810,32722
63824,32726
63836,32733
63847,32742
63856,32752
63862,32765
63866,32778
63868,32795
63868,33031
63866,33048
63862,33061
63856,33073
63847,33084
63836,33093
63824,33100
63810,33104
63794,33105
63528,33105
63511,33104
63498,33100
63486,33093
63475,33084
63466,33073
63459,33061
63455,33048
63454,33031
63454,32795
63455,32778
63459,32765
63466,32752
63475,32742
63486,32733
63498,32726
63511,32722
63528,32721
63794,32721
63810,32722
Z" /> 
<path style="fill:#000000; fill-opacity:1.0; 
stroke:#000000; stroke-width:0; stroke-opacity:1; 
stroke-linecap:round; stroke-linejoin:round;fill-rule:evenodd;"
d="M 65700,32722
65714,32726
65726,32733
65737,32742
65746,32752
65752,32765
65756,32778
65758,32795
65758,33031
65756,33048
65752,33061
65746,33073
65737,33084
65726,33093
65714,33100
65700,33104
65684,33105
65418,33105
65401,33104
65388,33100
65376,33093
65365,33084
65356,33073
65349,33061
65345,33048
65344,33031
65344,32795
65345,32778
65349,32765
65356,32752
65365,32742
65376,32733
65388,32726
65401,32722
65418,32721
65684,32721
65700,32722
Z" /> 
<path style="fill:#000000; fill-opacity:1.0; 
stroke:#000000; stroke-width:0; stroke-opacity:1; 
stroke-linecap:round; stroke-linejoin:round;fill-rule:evenodd;"
d="M 64440,32486
64454,32490
64466,32497
64477,32505
64486,32516
64492,32529
64496,32542
64498,32558
64498,32795
64496,32811
64492,32825
64486,32837
64477,32848
64466,32857
64454,32863
64440,32867
64424,32869
64158,32869
64141,32867
64128,32863
64116,32857
64105,32848
64096,32837
64089,32825
64085,32811
64084,32795
64084,32558
64085,32542
64089,32529
64096,32516
64105,32505
64116,32497
64128,32490
64141,32486
64158,32484
64424,32484
64440,32486
Z" /> 
<path style="fill:#000000; fill-opacity:1.0; 
stroke:#000000; stroke-width:0; stroke-opacity:1; 
stroke-linecap:round; stroke-linejoin:round;fill-rule:evenodd;"
d="M 65070,32486
65084,32490
65096,32497
65107,32505
65116,32516
65122,32529
65126,32542
65128,32558
65128,32795
65126,32811
65122,32825
65116,32837
65107,32848
65096,32857
65084,32863
65070,32867
65054,32869
64788,32869
64771,32867
64758,32863
64746,32857
64735,32848
64726,32837
64719,32825
64715,32811
64714,32795
64714,32558
64715,32542
64719,32529
64726,32516
64735,32505
64746,32497
64758,32490
64771,32486
64788,32484
65054,32484
65070,32486
Z" /> 
<path style="fill:#000000; fill-opacity:1.0; 
stroke:#000000; stroke-width:0; stroke-opacity:1; 
stroke-linecap:round; stroke-linejoin:round;fill-rule:evenodd;"
d="M 63071,32284
63123,32306
63170,32337
63209,32377
63241,32424
63262,32475
63273,32530
63273,32587
63262,32642
63241,32694
63209,32740
63170,32780
63123,32811
63071,32833
63016,32844
62960,32844
62905,32833
62853,32811
62806,32780
62767,32740
62735,32694
62714,32642
62703,32587
62703,32530
62714,32475
62735,32424
62767,32377
62806,32337
62853,32306
62905,32284
62960,32273
63016,32273
63071,32284
Z" /> 
<path style="fill:#000000; fill-opacity:1.0; 
stroke:#000000; stroke-width:0; stroke-opacity:1; 
stroke-linecap:round; stroke-linejoin:round;fill-rule:evenodd;"
d="M 66303,32284
66355,32306
66402,32337
66441,32377
66473,32424
66494,32475
66505,32530
66505,32587
66494,32642
66473,32694
66441,32740
66402,32780
66355,32811
66303,32833
66248,32844
66192,32844
66137,32833
66085,32811
66038,32780
65999,32740
65967,32694
65946,32642
65935,32587
65935,32530
65946,32475
65967,32424
65999,32377
66038,32337
66085,32306
66137,32284
66192,32273
66248,32273
66303,32284
Z" /> 
<path style="fill:#000000; fill-opacity:1.0; 
stroke:#000000; stroke-width:0; stroke-opacity:1; 
stroke-linecap:round; stroke-linejoin:round;fill-rule:evenodd;"
d="M 65270,31742
65322,31764
65369,31795
65408,31835
65440,31882
65461,31933
65472,31988
65472,32045
65461,32100
65440,32152
65408,32198
65369,32238
65322,32269
65270,32291
65215,32302
65159,32302
65104,32291
65052,32269
65005,32238
64966,32198
64934,32152
64913,32100
64902,32045
64902,31988
64913,31933
64934,31882
64966,31835
65005,31795
65052,31764
65104,31742
65159,31731
65215,31731
65270,31742
Z" /> 
<path style="fill:#000000; fill-opacity:1.0; 
stroke:#000000; stroke-width:0; stroke-opacity:1; 
stroke-linecap:round; stroke-linejoin:round;fill-rule:evenodd;"
d="M 64104,31742
64156,31764
64203,31795
64242,31835
64274,31882
64295,31933
64306,31988
64306,32045
64295,32100
64274,32152
64242,32198
64203,32238
64156,32269
64104,32291
64049,32302
63993,32302
63938,32291
63886,32269
63839,32238
63800,32198
63768,32152
63747,32100
63736,32045
63736,31988
63747,31933
63768,31882
63800,31835
63839,31795
63886,31764
63938,31742
63993,31731
64049,31731
64104,31742
Z" /> 
</g> 
</svg>
