<?xml version="1.0" standalone="no"?>
 <!DOCTYPE svg PUBLIC "-//W3C//DTD SVG 1.1//EN" 
 "http://www.w3.org/Graphics/SVG/1.1/DTD/svg11.dtd"> 
<svg xmlns="http://www.w3.org/2000/svg" version="1.1" 
    width="29.7002cm" height="21.0007cm" viewBox="0 0 116930 82680 ">
<title>SVG Picture created as Nixie-F_Paste.svg date 2021/03/25 13:34:28 </title>
  <desc>Picture generated by PCBNEW </desc>
<g style="fill:#000000; fill-opacity:1;stroke:#000000; stroke-opacity:1;
stroke-linecap:round; stroke-linejoin:round; "
 transform="translate(0 0) scale(1 1)">
</g>
<g style="fill:#000000; fill-opacity:0.0; 
stroke:#000000; stroke-width:-0.000393701; stroke-opacity:1; 
stroke-linecap:round; stroke-linejoin:round;">
<g >
</g>
<g >
</g>
<g >
</g>
<g >
</g>
<g >
</g>
<g >
</g>
<g style="fill:#000000; fill-opacity:0.0; 
stroke:#000000; stroke-width:0; stroke-opacity:1; 
stroke-linecap:round; stroke-linejoin:round;">
</g>
<g style="fill:#000000; fill-opacity:1.0; 
stroke:#000000; stroke-width:0; stroke-opacity:1; 
stroke-linecap:round; stroke-linejoin:round;">
<path style="fill:#000000; fill-opacity:1.0; 
stroke:#000000; stroke-width:0; stroke-opacity:1; 
stroke-linecap:round; stroke-linejoin:round;fill-rule:evenodd;"
d="M 68602,42460
68287,42460
68287,42106
68602,42106
68602,42460
Z" /> 
<path style="fill:#000000; fill-opacity:1.0; 
stroke:#000000; stroke-width:0; stroke-opacity:1; 
stroke-linecap:round; stroke-linejoin:round;fill-rule:evenodd;"
d="M 69350,42460
69035,42460
69035,42106
69350,42106
69350,42460
Z" /> 
<path style="fill:#000000; fill-opacity:1.0; 
stroke:#000000; stroke-width:0; stroke-opacity:1; 
stroke-linecap:round; stroke-linejoin:round;fill-rule:evenodd;"
d="M 68976,41673
68661,41673
68661,41318
68976,41318
68976,41673
Z" /> 
</g>
<g >
<path style="fill:#000000; fill-opacity:1.0; 
stroke:#000000; stroke-width:0; stroke-opacity:1; 
stroke-linecap:round; stroke-linejoin:round;fill-rule:evenodd;"
d="M 61791,42460
61476,42460
61476,42106
61791,42106
61791,42460
Z" /> 
<path style="fill:#000000; fill-opacity:1.0; 
stroke:#000000; stroke-width:0; stroke-opacity:1; 
stroke-linecap:round; stroke-linejoin:round;fill-rule:evenodd;"
d="M 62539,42460
62224,42460
62224,42106
62539,42106
62539,42460
Z" /> 
<path style="fill:#000000; fill-opacity:1.0; 
stroke:#000000; stroke-width:0; stroke-opacity:1; 
stroke-linecap:round; stroke-linejoin:round;fill-rule:evenodd;"
d="M 62165,41673
61850,41673
61850,41318
62165,41318
62165,41673
Z" /> 
</g>
<g >
<path style="fill:#000000; fill-opacity:1.0; 
stroke:#000000; stroke-width:0; stroke-opacity:1; 
stroke-linecap:round; stroke-linejoin:round;fill-rule:evenodd;"
d="M 63287,42460
62972,42460
62972,42106
63287,42106
63287,42460
Z" /> 
<path style="fill:#000000; fill-opacity:1.0; 
stroke:#000000; stroke-width:0; stroke-opacity:1; 
stroke-linecap:round; stroke-linejoin:round;fill-rule:evenodd;"
d="M 64035,42460
63720,42460
63720,42106
64035,42106
64035,42460
Z" /> 
<path style="fill:#000000; fill-opacity:1.0; 
stroke:#000000; stroke-width:0; stroke-opacity:1; 
stroke-linecap:round; stroke-linejoin:round;fill-rule:evenodd;"
d="M 63661,41673
63346,41673
63346,41318
63661,41318
63661,41673
Z" /> 
</g>
<g >
<path style="fill:#000000; fill-opacity:1.0; 
stroke:#000000; stroke-width:0; stroke-opacity:1; 
stroke-linecap:round; stroke-linejoin:round;fill-rule:evenodd;"
d="M 65098,39625
64783,39625
64783,39271
65098,39271
65098,39625
Z" /> 
<path style="fill:#000000; fill-opacity:1.0; 
stroke:#000000; stroke-width:0; stroke-opacity:1; 
stroke-linecap:round; stroke-linejoin:round;fill-rule:evenodd;"
d="M 65846,39625
65531,39625
65531,39271
65846,39271
65846,39625
Z" /> 
<path style="fill:#000000; fill-opacity:1.0; 
stroke:#000000; stroke-width:0; stroke-opacity:1; 
stroke-linecap:round; stroke-linejoin:round;fill-rule:evenodd;"
d="M 65472,38838
65157,38838
65157,38484
65472,38484
65472,38838
Z" /> 
</g>
<g >
<path style="fill:#000000; fill-opacity:1.0; 
stroke:#000000; stroke-width:0; stroke-opacity:1; 
stroke-linecap:round; stroke-linejoin:round;fill-rule:evenodd;"
d="M 66968,38838
66653,38838
66653,38484
66968,38484
66968,38838
Z" /> 
<path style="fill:#000000; fill-opacity:1.0; 
stroke:#000000; stroke-width:0; stroke-opacity:1; 
stroke-linecap:round; stroke-linejoin:round;fill-rule:evenodd;"
d="M 67342,39625
67027,39625
67027,39271
67342,39271
67342,39625
Z" /> 
<path style="fill:#000000; fill-opacity:1.0; 
stroke:#000000; stroke-width:0; stroke-opacity:1; 
stroke-linecap:round; stroke-linejoin:round;fill-rule:evenodd;"
d="M 66594,39625
66279,39625
66279,39271
66594,39271
66594,39625
Z" /> 
</g>
<g >
<path style="fill:#000000; fill-opacity:1.0; 
stroke:#000000; stroke-width:0; stroke-opacity:1; 
stroke-linecap:round; stroke-linejoin:round;fill-rule:evenodd;"
d="M 66338,43248
66023,43248
66023,42893
66338,42893
66338,43248
Z" /> 
<path style="fill:#000000; fill-opacity:1.0; 
stroke:#000000; stroke-width:0; stroke-opacity:1; 
stroke-linecap:round; stroke-linejoin:round;fill-rule:evenodd;"
d="M 66712,44035
66397,44035
66397,43681
66712,43681
66712,44035
Z" /> 
<path style="fill:#000000; fill-opacity:1.0; 
stroke:#000000; stroke-width:0; stroke-opacity:1; 
stroke-linecap:round; stroke-linejoin:round;fill-rule:evenodd;"
d="M 65964,44035
65649,44035
65649,43681
65964,43681
65964,44035
Z" /> 
</g>
<g >
<path style="fill:#000000; fill-opacity:1.0; 
stroke:#000000; stroke-width:0; stroke-opacity:1; 
stroke-linecap:round; stroke-linejoin:round;fill-rule:evenodd;"
d="M 60629,41673
60314,41673
60314,41318
60629,41318
60629,41673
Z" /> 
<path style="fill:#000000; fill-opacity:1.0; 
stroke:#000000; stroke-width:0; stroke-opacity:1; 
stroke-linecap:round; stroke-linejoin:round;fill-rule:evenodd;"
d="M 61003,42460
60688,42460
60688,42106
61003,42106
61003,42460
Z" /> 
<path style="fill:#000000; fill-opacity:1.0; 
stroke:#000000; stroke-width:0; stroke-opacity:1; 
stroke-linecap:round; stroke-linejoin:round;fill-rule:evenodd;"
d="M 60255,42460
59940,42460
59940,42106
60255,42106
60255,42460
Z" /> 
</g>
<g >
<path style="fill:#000000; fill-opacity:1.0; 
stroke:#000000; stroke-width:0; stroke-opacity:1; 
stroke-linecap:round; stroke-linejoin:round;fill-rule:evenodd;"
d="M 62480,38838
62165,38838
62165,38484
62480,38484
62480,38838
Z" /> 
<path style="fill:#000000; fill-opacity:1.0; 
stroke:#000000; stroke-width:0; stroke-opacity:1; 
stroke-linecap:round; stroke-linejoin:round;fill-rule:evenodd;"
d="M 62854,39625
62539,39625
62539,39271
62854,39271
62854,39625
Z" /> 
<path style="fill:#000000; fill-opacity:1.0; 
stroke:#000000; stroke-width:0; stroke-opacity:1; 
stroke-linecap:round; stroke-linejoin:round;fill-rule:evenodd;"
d="M 62106,39625
61791,39625
61791,39271
62106,39271
62106,39625
Z" /> 
</g>
<g >
<path style="fill:#000000; fill-opacity:1.0; 
stroke:#000000; stroke-width:0; stroke-opacity:1; 
stroke-linecap:round; stroke-linejoin:round;fill-rule:evenodd;"
d="M 63976,38838
63661,38838
63661,38484
63976,38484
63976,38838
Z" /> 
<path style="fill:#000000; fill-opacity:1.0; 
stroke:#000000; stroke-width:0; stroke-opacity:1; 
stroke-linecap:round; stroke-linejoin:round;fill-rule:evenodd;"
d="M 64350,39625
64035,39625
64035,39271
64350,39271
64350,39625
Z" /> 
<path style="fill:#000000; fill-opacity:1.0; 
stroke:#000000; stroke-width:0; stroke-opacity:1; 
stroke-linecap:round; stroke-linejoin:round;fill-rule:evenodd;"
d="M 63602,39625
63287,39625
63287,39271
63602,39271
63602,39625
Z" /> 
</g>
<g >
<path style="fill:#000000; fill-opacity:1.0; 
stroke:#000000; stroke-width:0; stroke-opacity:1; 
stroke-linecap:round; stroke-linejoin:round;fill-rule:evenodd;"
d="M 65944,41673
65629,41673
65629,41318
65944,41318
65944,41673
Z" /> 
<path style="fill:#000000; fill-opacity:1.0; 
stroke:#000000; stroke-width:0; stroke-opacity:1; 
stroke-linecap:round; stroke-linejoin:round;fill-rule:evenodd;"
d="M 66318,42460
66003,42460
66003,42106
66318,42106
66318,42460
Z" /> 
<path style="fill:#000000; fill-opacity:1.0; 
stroke:#000000; stroke-width:0; stroke-opacity:1; 
stroke-linecap:round; stroke-linejoin:round;fill-rule:evenodd;"
d="M 65570,42460
65255,42460
65255,42106
65570,42106
65570,42460
Z" /> 
</g>
<g >
<path style="fill:#000000; fill-opacity:1.0; 
stroke:#000000; stroke-width:0; stroke-opacity:1; 
stroke-linecap:round; stroke-linejoin:round;fill-rule:evenodd;"
d="M 67066,42460
66751,42460
66751,42106
67066,42106
67066,42460
Z" /> 
<path style="fill:#000000; fill-opacity:1.0; 
stroke:#000000; stroke-width:0; stroke-opacity:1; 
stroke-linecap:round; stroke-linejoin:round;fill-rule:evenodd;"
d="M 67814,42460
67500,42460
67500,42106
67814,42106
67814,42460
Z" /> 
<path style="fill:#000000; fill-opacity:1.0; 
stroke:#000000; stroke-width:0; stroke-opacity:1; 
stroke-linecap:round; stroke-linejoin:round;fill-rule:evenodd;"
d="M 67440,41673
67125,41673
67125,41318
67440,41318
67440,41673
Z" /> 
</g>
<g >
<path style="fill:#000000; fill-opacity:1.0; 
stroke:#000000; stroke-width:0; stroke-opacity:1; 
stroke-linecap:round; stroke-linejoin:round;fill-rule:evenodd;"
d="M 63759,44035
63444,44035
63444,43681
63759,43681
63759,44035
Z" /> 
<path style="fill:#000000; fill-opacity:1.0; 
stroke:#000000; stroke-width:0; stroke-opacity:1; 
stroke-linecap:round; stroke-linejoin:round;fill-rule:evenodd;"
d="M 64507,44035
64192,44035
64192,43681
64507,43681
64507,44035
Z" /> 
<path style="fill:#000000; fill-opacity:1.0; 
stroke:#000000; stroke-width:0; stroke-opacity:1; 
stroke-linecap:round; stroke-linejoin:round;fill-rule:evenodd;"
d="M 64133,43248
63818,43248
63818,42893
64133,42893
64133,43248
Z" /> 
</g>
<g >
<path style="fill:#000000; fill-opacity:1.0; 
stroke:#000000; stroke-width:0; stroke-opacity:1; 
stroke-linecap:round; stroke-linejoin:round;fill-rule:evenodd;"
d="M 68534,43445
68542,43446
68551,43448
68559,43451
68566,43455
68573,43459
68580,43464
68586,43470
68592,43476
68597,43483
68602,43490
68605,43498
68608,43506
68610,43514
68611,43522
68612,43531
68612,43703
68611,43711
68610,43720
68608,43728
68605,43736
68602,43743
68597,43751
68592,43757
68586,43764
68580,43769
68573,43774
68566,43779
68559,43782
68551,43785
68542,43787
68534,43788
68526,43789
68324,43789
68315,43788
68307,43787
68299,43785
68291,43782
68283,43779
68276,43774
68269,43769
68263,43764
68257,43757
68252,43751
68248,43743
68244,43736
68241,43728
68239,43720
68238,43711
68238,43703
68238,43531
68238,43522
68239,43514
68241,43506
68244,43498
68248,43490
68252,43483
68257,43476
68263,43470
68269,43464
68276,43459
68283,43455
68291,43451
68299,43448
68307,43446
68315,43445
68324,43444
68526,43444
68534,43445
Z" /> 
<path style="fill:#000000; fill-opacity:1.0; 
stroke:#000000; stroke-width:0; stroke-opacity:1; 
stroke-linecap:round; stroke-linejoin:round;fill-rule:evenodd;"
d="M 68534,42825
68542,42826
68551,42828
68559,42831
68566,42834
68573,42839
68580,42844
68586,42850
68592,42856
68597,42863
68602,42870
68605,42877
68608,42885
68610,42894
68611,42902
68612,42910
68612,43083
68611,43091
68610,43099
68608,43108
68605,43116
68602,43123
68597,43131
68592,43137
68586,43144
68580,43149
68573,43154
68566,43159
68559,43162
68551,43165
68542,43167
68534,43168
68526,43169
68324,43169
68315,43168
68307,43167
68299,43165
68291,43162
68283,43159
68276,43154
68269,43149
68263,43144
68257,43137
68252,43131
68248,43123
68244,43116
68241,43108
68239,43099
68238,43091
68238,43083
68238,42910
68238,42902
68239,42894
68241,42885
68244,42877
68248,42870
68252,42863
68257,42856
68263,42850
68269,42844
68276,42839
68283,42834
68291,42831
68299,42828
68307,42826
68315,42825
68324,42824
68526,42824
68534,42825
Z" /> 
</g>
<g >
<path style="fill:#000000; fill-opacity:1.0; 
stroke:#000000; stroke-width:0; stroke-opacity:1; 
stroke-linecap:round; stroke-linejoin:round;fill-rule:evenodd;"
d="M 61723,43524
61731,43525
61740,43527
61748,43530
61755,43533
61762,43538
61769,43543
61775,43548
61781,43555
61786,43561
61791,43569
61794,43576
61797,43584
61799,43592
61800,43601
61801,43609
61801,43781
61800,43790
61799,43798
61797,43806
61794,43814
61791,43822
61786,43829
61781,43836
61775,43842
61769,43848
61762,43853
61755,43857
61748,43861
61740,43864
61731,43866
61723,43867
61715,43868
61513,43868
61504,43867
61496,43866
61488,43864
61480,43861
61472,43857
61465,43853
61458,43848
61452,43842
61446,43836
61441,43829
61437,43822
61433,43814
61430,43806
61428,43798
61427,43790
61427,43781
61427,43609
61427,43601
61428,43592
61430,43584
61433,43576
61437,43569
61441,43561
61446,43555
61452,43548
61458,43543
61465,43538
61472,43533
61480,43530
61488,43527
61496,43525
61504,43524
61513,43523
61715,43523
61723,43524
Z" /> 
<path style="fill:#000000; fill-opacity:1.0; 
stroke:#000000; stroke-width:0; stroke-opacity:1; 
stroke-linecap:round; stroke-linejoin:round;fill-rule:evenodd;"
d="M 61723,42903
61731,42905
61740,42907
61748,42910
61755,42913
61762,42918
61769,42923
61775,42928
61781,42935
61786,42941
61791,42949
61794,42956
61797,42964
61799,42972
61800,42981
61801,42989
61801,43161
61800,43170
61799,43178
61797,43186
61794,43194
61791,43202
61786,43209
61781,43216
61775,43222
61769,43228
61762,43233
61755,43237
61748,43241
61740,43244
61731,43246
61723,43247
61715,43248
61513,43248
61504,43247
61496,43246
61488,43244
61480,43241
61472,43237
61465,43233
61458,43228
61452,43222
61446,43216
61441,43209
61437,43202
61433,43194
61430,43186
61428,43178
61427,43170
61427,43161
61427,42989
61427,42981
61428,42972
61430,42964
61433,42956
61437,42949
61441,42941
61446,42935
61452,42928
61458,42923
61465,42918
61472,42913
61480,42910
61488,42907
61496,42905
61504,42903
61513,42903
61715,42903
61723,42903
Z" /> 
</g>
<g >
<path style="fill:#000000; fill-opacity:1.0; 
stroke:#000000; stroke-width:0; stroke-opacity:1; 
stroke-linecap:round; stroke-linejoin:round;fill-rule:evenodd;"
d="M 62983,43524
62991,43525
62999,43527
63007,43530
63015,43533
63022,43538
63029,43543
63035,43548
63041,43555
63046,43561
63050,43569
63054,43576
63057,43584
63059,43592
63060,43601
63061,43609
63061,43781
63060,43790
63059,43798
63057,43806
63054,43814
63050,43822
63046,43829
63041,43836
63035,43842
63029,43848
63022,43853
63015,43857
63007,43861
62999,43864
62991,43866
62983,43867
62974,43868
62773,43868
62764,43867
62756,43866
62748,43864
62740,43861
62732,43857
62725,43853
62718,43848
62712,43842
62706,43836
62701,43829
62697,43822
62693,43814
62690,43806
62688,43798
62687,43790
62687,43781
62687,43609
62687,43601
62688,43592
62690,43584
62693,43576
62697,43569
62701,43561
62706,43555
62712,43548
62718,43543
62725,43538
62732,43533
62740,43530
62748,43527
62756,43525
62764,43524
62773,43523
62974,43523
62983,43524
Z" /> 
<path style="fill:#000000; fill-opacity:1.0; 
stroke:#000000; stroke-width:0; stroke-opacity:1; 
stroke-linecap:round; stroke-linejoin:round;fill-rule:evenodd;"
d="M 62983,42903
62991,42905
62999,42907
63007,42910
63015,42913
63022,42918
63029,42923
63035,42928
63041,42935
63046,42941
63050,42949
63054,42956
63057,42964
63059,42972
63060,42981
63061,42989
63061,43161
63060,43170
63059,43178
63057,43186
63054,43194
63050,43202
63046,43209
63041,43216
63035,43222
63029,43228
63022,43233
63015,43237
63007,43241
62999,43244
62991,43246
62983,43247
62974,43248
62773,43248
62764,43247
62756,43246
62748,43244
62740,43241
62732,43237
62725,43233
62718,43228
62712,43222
62706,43216
62701,43209
62697,43202
62693,43194
62690,43186
62688,43178
62687,43170
62687,43161
62687,42989
62687,42981
62688,42972
62690,42964
62693,42956
62697,42949
62701,42941
62706,42935
62712,42928
62718,42923
62725,42918
62732,42913
62740,42910
62748,42907
62756,42905
62764,42903
62773,42903
62974,42903
62983,42903
Z" /> 
</g>
<g >
<path style="fill:#000000; fill-opacity:1.0; 
stroke:#000000; stroke-width:0; stroke-opacity:1; 
stroke-linecap:round; stroke-linejoin:round;fill-rule:evenodd;"
d="M 65030,40531
65038,40533
65047,40535
65055,40538
65062,40541
65069,40546
65076,40551
65083,40556
65088,40562
65093,40569
65098,40577
65101,40584
65104,40592
65106,40600
65107,40609
65108,40617
65108,40789
65107,40798
65106,40806
65104,40814
65101,40822
65098,40830
65093,40837
65088,40844
65083,40850
65076,40856
65069,40861
65062,40865
65055,40869
65047,40872
65038,40874
65030,40875
65022,40875
64820,40875
64811,40875
64803,40874
64795,40872
64787,40869
64779,40865
64772,40861
64765,40856
64759,40850
64753,40844
64748,40837
64744,40830
64740,40822
64737,40814
64735,40806
64734,40798
64734,40789
64734,40617
64734,40609
64735,40600
64737,40592
64740,40584
64744,40577
64748,40569
64753,40562
64759,40556
64765,40551
64772,40546
64779,40541
64787,40538
64795,40535
64803,40533
64811,40531
64820,40531
65022,40531
65030,40531
Z" /> 
<path style="fill:#000000; fill-opacity:1.0; 
stroke:#000000; stroke-width:0; stroke-opacity:1; 
stroke-linecap:round; stroke-linejoin:round;fill-rule:evenodd;"
d="M 65030,39911
65038,39913
65047,39915
65055,39917
65062,39921
65069,39925
65076,39930
65083,39936
65088,39942
65093,39949
65098,39956
65101,39964
65104,39972
65106,39980
65107,39989
65108,39997
65108,40169
65107,40178
65106,40186
65104,40194
65101,40202
65098,40210
65093,40217
65088,40224
65083,40230
65076,40236
65069,40241
65062,40245
65055,40249
65047,40252
65038,40254
65030,40255
65022,40255
64820,40255
64811,40255
64803,40254
64795,40252
64787,40249
64779,40245
64772,40241
64765,40236
64759,40230
64753,40224
64748,40217
64744,40210
64740,40202
64737,40194
64735,40186
64734,40178
64734,40169
64734,39997
64734,39989
64735,39980
64737,39972
64740,39964
64744,39956
64748,39949
64753,39942
64759,39936
64765,39930
64772,39925
64779,39921
64787,39917
64795,39915
64803,39913
64811,39911
64820,39911
65022,39911
65030,39911
Z" /> 
</g>
<g >
<path style="fill:#000000; fill-opacity:1.0; 
stroke:#000000; stroke-width:0; stroke-opacity:1; 
stroke-linecap:round; stroke-linejoin:round;fill-rule:evenodd;"
d="M 66526,40531
66535,40533
66543,40535
66551,40538
66558,40541
66566,40546
66572,40551
66579,40556
66584,40562
66589,40569
66594,40577
66597,40584
66600,40592
66602,40600
66603,40609
66604,40617
66604,40789
66603,40798
66602,40806
66600,40814
66597,40822
66594,40830
66589,40837
66584,40844
66579,40850
66572,40856
66566,40861
66558,40865
66551,40869
66543,40872
66535,40874
66526,40875
66518,40875
66316,40875
66307,40875
66299,40874
66291,40872
66283,40869
66275,40865
66268,40861
66261,40856
66255,40850
66249,40844
66244,40837
66240,40830
66236,40822
66234,40814
66231,40806
66230,40798
66230,40789
66230,40617
66230,40609
66231,40600
66234,40592
66236,40584
66240,40577
66244,40569
66249,40562
66255,40556
66261,40551
66268,40546
66275,40541
66283,40538
66291,40535
66299,40533
66307,40531
66316,40531
66518,40531
66526,40531
Z" /> 
<path style="fill:#000000; fill-opacity:1.0; 
stroke:#000000; stroke-width:0; stroke-opacity:1; 
stroke-linecap:round; stroke-linejoin:round;fill-rule:evenodd;"
d="M 66526,39911
66535,39913
66543,39915
66551,39917
66558,39921
66566,39925
66572,39930
66579,39936
66584,39942
66589,39949
66594,39956
66597,39964
66600,39972
66602,39980
66603,39989
66604,39997
66604,40169
66603,40178
66602,40186
66600,40194
66597,40202
66594,40210
66589,40217
66584,40224
66579,40230
66572,40236
66566,40241
66558,40245
66551,40249
66543,40252
66535,40254
66526,40255
66518,40255
66316,40255
66307,40255
66299,40254
66291,40252
66283,40249
66275,40245
66268,40241
66261,40236
66255,40230
66249,40224
66244,40217
66240,40210
66236,40202
66234,40194
66231,40186
66230,40178
66230,40169
66230,39997
66230,39989
66231,39980
66234,39972
66236,39964
66240,39956
66244,39949
66249,39942
66255,39936
66261,39930
66268,39925
66275,39921
66283,39917
66291,39915
66299,39913
66307,39911
66316,39911
66518,39911
66526,39911
Z" /> 
</g>
<g >
<path style="fill:#000000; fill-opacity:1.0; 
stroke:#000000; stroke-width:0; stroke-opacity:1; 
stroke-linecap:round; stroke-linejoin:round;fill-rule:evenodd;"
d="M 66511,44380
66520,44381
66528,44383
66536,44386
66544,44390
66551,44394
66558,44399
66564,44405
66570,44411
66575,44418
66579,44425
66583,44433
66585,44441
66587,44449
66589,44457
66589,44466
66589,44667
66589,44676
66587,44684
66585,44692
66583,44700
66579,44708
66575,44715
66570,44722
66564,44728
66558,44734
66551,44739
66544,44743
66536,44747
66528,44750
66520,44752
66511,44753
66503,44753
66331,44753
66322,44753
66314,44752
66306,44750
66298,44747
66290,44743
66283,44739
66276,44734
66270,44728
66264,44722
66259,44715
66255,44708
66251,44700
66248,44692
66246,44684
66245,44676
66245,44667
66245,44466
66245,44457
66246,44449
66248,44441
66251,44433
66255,44425
66259,44418
66264,44411
66270,44405
66276,44399
66283,44394
66290,44390
66298,44386
66306,44383
66314,44381
66322,44380
66331,44379
66503,44379
66511,44380
Z" /> 
<path style="fill:#000000; fill-opacity:1.0; 
stroke:#000000; stroke-width:0; stroke-opacity:1; 
stroke-linecap:round; stroke-linejoin:round;fill-rule:evenodd;"
d="M 65891,44380
65900,44381
65908,44383
65916,44386
65923,44390
65931,44394
65938,44399
65944,44405
65949,44411
65954,44418
65959,44425
65962,44433
65965,44441
65967,44449
65969,44457
65969,44466
65969,44667
65969,44676
65967,44684
65965,44692
65962,44700
65959,44708
65954,44715
65949,44722
65944,44728
65938,44734
65931,44739
65923,44743
65916,44747
65908,44750
65900,44752
65891,44753
65883,44753
65711,44753
65702,44753
65694,44752
65686,44750
65678,44747
65670,44743
65663,44739
65656,44734
65650,44728
65644,44722
65639,44715
65635,44708
65631,44700
65628,44692
65626,44684
65625,44676
65625,44667
65625,44466
65625,44457
65626,44449
65628,44441
65631,44433
65635,44425
65639,44418
65644,44411
65650,44405
65656,44399
65663,44394
65670,44390
65678,44386
65686,44383
65694,44381
65702,44380
65711,44379
65883,44379
65891,44380
Z" /> 
</g>
<g >
<path style="fill:#000000; fill-opacity:1.0; 
stroke:#000000; stroke-width:0; stroke-opacity:1; 
stroke-linecap:round; stroke-linejoin:round;fill-rule:evenodd;"
d="M 60188,42903
60196,42905
60204,42907
60212,42910
60220,42913
60227,42918
60234,42923
60240,42928
60246,42935
60251,42941
60255,42949
60259,42956
60262,42964
60264,42972
60265,42981
60265,42989
60265,43161
60265,43170
60264,43178
60262,43186
60259,43194
60255,43202
60251,43209
60246,43216
60240,43222
60234,43228
60227,43233
60220,43237
60212,43241
60204,43244
60196,43246
60188,43247
60179,43248
59977,43248
59969,43247
59961,43246
59952,43244
59944,43241
59937,43237
59930,43233
59923,43228
59916,43222
59911,43216
59906,43209
59901,43202
59898,43194
59895,43186
59893,43178
59892,43170
59891,43161
59891,42989
59892,42981
59893,42972
59895,42964
59898,42956
59901,42949
59906,42941
59911,42935
59916,42928
59923,42923
59930,42918
59937,42913
59944,42910
59952,42907
59961,42905
59969,42903
59977,42903
60179,42903
60188,42903
Z" /> 
<path style="fill:#000000; fill-opacity:1.0; 
stroke:#000000; stroke-width:0; stroke-opacity:1; 
stroke-linecap:round; stroke-linejoin:round;fill-rule:evenodd;"
d="M 60188,43524
60196,43525
60204,43527
60212,43530
60220,43533
60227,43538
60234,43543
60240,43548
60246,43555
60251,43561
60255,43569
60259,43576
60262,43584
60264,43592
60265,43601
60265,43609
60265,43781
60265,43790
60264,43798
60262,43806
60259,43814
60255,43822
60251,43829
60246,43836
60240,43842
60234,43848
60227,43853
60220,43857
60212,43861
60204,43864
60196,43866
60188,43867
60179,43868
59977,43868
59969,43867
59961,43866
59952,43864
59944,43861
59937,43857
59930,43853
59923,43848
59916,43842
59911,43836
59906,43829
59901,43822
59898,43814
59895,43806
59893,43798
59892,43790
59891,43781
59891,43609
59892,43601
59893,43592
59895,43584
59898,43576
59901,43569
59906,43561
59911,43555
59916,43548
59923,43543
59930,43538
59937,43533
59944,43530
59952,43527
59961,43525
59969,43524
59977,43523
60179,43523
60188,43524
Z" /> 
</g>
<g >
<path style="fill:#000000; fill-opacity:1.0; 
stroke:#000000; stroke-width:0; stroke-opacity:1; 
stroke-linecap:round; stroke-linejoin:round;fill-rule:evenodd;"
d="M 62038,40536
62046,40538
62055,40540
62062,40542
62070,40546
62077,40550
62084,40555
62090,40561
62096,40567
62101,40574
62105,40581
62109,40589
62112,40597
62114,40605
62115,40614
62116,40622
62116,40794
62115,40803
62114,40811
62112,40819
62109,40827
62105,40835
62101,40842
62096,40849
62090,40855
62084,40861
62077,40866
62070,40870
62062,40874
62055,40877
62046,40879
62038,40880
62030,40880
61828,40880
61819,40880
61811,40879
61803,40877
61795,40874
61787,40870
61780,40866
61773,40861
61767,40855
61761,40849
61756,40842
61752,40835
61748,40827
61745,40819
61743,40811
61742,40803
61742,40794
61742,40622
61742,40614
61743,40605
61745,40597
61748,40589
61752,40581
61756,40574
61761,40567
61767,40561
61773,40555
61780,40550
61787,40546
61795,40542
61803,40540
61811,40538
61819,40536
61828,40536
62030,40536
62038,40536
Z" /> 
<path style="fill:#000000; fill-opacity:1.0; 
stroke:#000000; stroke-width:0; stroke-opacity:1; 
stroke-linecap:round; stroke-linejoin:round;fill-rule:evenodd;"
d="M 62038,39916
62046,39917
62055,39920
62062,39922
62070,39926
62077,39930
62084,39935
62090,39941
62096,39947
62101,39954
62105,39961
62109,39969
62112,39977
62114,39985
62115,39994
62116,40002
62116,40174
62115,40183
62114,40191
62112,40199
62109,40207
62105,40215
62101,40222
62096,40229
62090,40235
62084,40241
62077,40246
62070,40250
62062,40254
62055,40257
62046,40259
62038,40260
62030,40260
61828,40260
61819,40260
61811,40259
61803,40257
61795,40254
61787,40250
61780,40246
61773,40241
61767,40235
61761,40229
61756,40222
61752,40215
61748,40207
61745,40199
61743,40191
61742,40183
61742,40174
61742,40002
61742,39994
61743,39985
61745,39977
61748,39969
61752,39961
61756,39954
61761,39947
61767,39941
61773,39935
61780,39930
61787,39926
61795,39922
61803,39920
61811,39917
61819,39916
61828,39916
62030,39916
62038,39916
Z" /> 
</g>
<g >
<path style="fill:#000000; fill-opacity:1.0; 
stroke:#000000; stroke-width:0; stroke-opacity:1; 
stroke-linecap:round; stroke-linejoin:round;fill-rule:evenodd;"
d="M 64189,39931
64197,39932
64205,39934
64213,39937
64221,39941
64228,39945
64235,39950
64241,39956
64247,39962
64252,39969
64256,39976
64260,39984
64263,39992
64265,40000
64266,40008
64266,40017
64266,40218
64266,40227
64265,40235
64263,40243
64260,40251
64256,40259
64252,40266
64247,40273
64241,40279
64235,40285
64228,40290
64221,40294
64213,40298
64205,40301
64197,40303
64189,40304
64180,40305
64008,40305
63999,40304
63991,40303
63983,40301
63975,40298
63967,40294
63960,40290
63953,40285
63947,40279
63941,40273
63936,40266
63932,40259
63928,40251
63925,40243
63923,40235
63922,40227
63922,40218
63922,40017
63922,40008
63923,40000
63925,39992
63928,39984
63932,39976
63936,39969
63941,39962
63947,39956
63953,39950
63960,39945
63967,39941
63975,39937
63983,39934
63991,39932
63999,39931
64008,39931
64180,39931
64189,39931
Z" /> 
<path style="fill:#000000; fill-opacity:1.0; 
stroke:#000000; stroke-width:0; stroke-opacity:1; 
stroke-linecap:round; stroke-linejoin:round;fill-rule:evenodd;"
d="M 63568,39931
63577,39932
63585,39934
63593,39937
63601,39941
63608,39945
63615,39950
63621,39956
63627,39962
63632,39969
63636,39976
63640,39984
63642,39992
63644,40000
63646,40008
63646,40017
63646,40218
63646,40227
63644,40235
63642,40243
63640,40251
63636,40259
63632,40266
63627,40273
63621,40279
63615,40285
63608,40290
63601,40294
63593,40298
63585,40301
63577,40303
63568,40304
63560,40305
63388,40305
63379,40304
63371,40303
63363,40301
63355,40298
63347,40294
63340,40290
63333,40285
63327,40279
63321,40273
63316,40266
63312,40259
63308,40251
63305,40243
63303,40235
63302,40227
63302,40218
63302,40017
63302,40008
63303,40000
63305,39992
63308,39984
63312,39976
63316,39969
63321,39962
63327,39956
63333,39950
63340,39945
63347,39941
63355,39937
63363,39934
63371,39932
63379,39931
63388,39931
63560,39931
63568,39931
Z" /> 
</g>
<g >
<path style="fill:#000000; fill-opacity:1.0; 
stroke:#000000; stroke-width:0; stroke-opacity:1; 
stroke-linecap:round; stroke-linejoin:round;fill-rule:evenodd;"
d="M 65227,43528
65235,43530
65243,43532
65251,43535
65259,43538
65266,43543
65273,43548
65279,43553
65285,43560
65290,43566
65294,43574
65298,43581
65301,43589
65303,43597
65304,43606
65305,43614
65305,43786
65304,43795
65303,43803
65301,43811
65298,43819
65294,43827
65290,43834
65285,43841
65279,43847
65273,43853
65266,43858
65259,43862
65251,43866
65243,43869
65235,43871
65227,43872
65218,43873
65017,43873
65008,43872
65000,43871
64992,43869
64984,43866
64976,43862
64969,43858
64962,43853
64956,43847
64950,43841
64945,43834
64941,43827
64937,43819
64934,43811
64932,43803
64931,43795
64931,43786
64931,43614
64931,43606
64932,43597
64934,43589
64937,43581
64941,43574
64945,43566
64950,43560
64956,43553
64962,43548
64969,43543
64976,43538
64984,43535
64992,43532
65000,43530
65008,43528
65017,43528
65218,43528
65227,43528
Z" /> 
<path style="fill:#000000; fill-opacity:1.0; 
stroke:#000000; stroke-width:0; stroke-opacity:1; 
stroke-linecap:round; stroke-linejoin:round;fill-rule:evenodd;"
d="M 65227,42908
65235,42910
65243,42912
65251,42915
65259,42918
65266,42922
65273,42928
65279,42933
65285,42939
65290,42946
65294,42953
65298,42961
65301,42969
65303,42977
65304,42986
65305,42994
65305,43166
65304,43175
65303,43183
65301,43191
65298,43199
65294,43207
65290,43214
65285,43221
65279,43227
65273,43233
65266,43238
65259,43242
65251,43246
65243,43249
65235,43251
65227,43252
65218,43252
65017,43252
65008,43252
65000,43251
64992,43249
64984,43246
64976,43242
64969,43238
64962,43233
64956,43227
64950,43221
64945,43214
64941,43207
64937,43199
64934,43191
64932,43183
64931,43175
64931,43166
64931,42994
64931,42986
64932,42977
64934,42969
64937,42961
64941,42953
64945,42946
64950,42939
64956,42933
64962,42928
64969,42922
64976,42918
64984,42915
64992,42912
65000,42910
65008,42908
65017,42908
65218,42908
65227,42908
Z" /> 
</g>
<g >
<path style="fill:#000000; fill-opacity:1.0; 
stroke:#000000; stroke-width:0; stroke-opacity:1; 
stroke-linecap:round; stroke-linejoin:round;fill-rule:evenodd;"
d="M 67392,43524
67401,43525
67409,43527
67417,43530
67424,43533
67432,43538
67438,43543
67445,43548
67450,43555
67455,43561
67460,43569
67463,43576
67466,43584
67468,43592
67470,43601
67470,43609
67470,43781
67470,43790
67468,43798
67466,43806
67463,43814
67460,43822
67455,43829
67450,43836
67445,43842
67438,43848
67432,43853
67424,43857
67417,43861
67409,43864
67401,43866
67392,43867
67384,43868
67182,43868
67174,43867
67165,43866
67157,43864
67149,43861
67141,43857
67134,43853
67127,43848
67121,43842
67116,43836
67110,43829
67106,43822
67103,43814
67100,43806
67098,43798
67096,43790
67096,43781
67096,43609
67096,43601
67098,43592
67100,43584
67103,43576
67106,43569
67110,43561
67116,43555
67121,43548
67127,43543
67134,43538
67141,43533
67149,43530
67157,43527
67165,43525
67174,43524
67182,43523
67384,43523
67392,43524
Z" /> 
<path style="fill:#000000; fill-opacity:1.0; 
stroke:#000000; stroke-width:0; stroke-opacity:1; 
stroke-linecap:round; stroke-linejoin:round;fill-rule:evenodd;"
d="M 67392,42903
67401,42905
67409,42907
67417,42910
67424,42913
67432,42918
67438,42923
67445,42928
67450,42935
67455,42941
67460,42949
67463,42956
67466,42964
67468,42972
67470,42981
67470,42989
67470,43161
67470,43170
67468,43178
67466,43186
67463,43194
67460,43202
67455,43209
67450,43216
67445,43222
67438,43228
67432,43233
67424,43237
67417,43241
67409,43244
67401,43246
67392,43247
67384,43248
67182,43248
67174,43247
67165,43246
67157,43244
67149,43241
67141,43237
67134,43233
67127,43228
67121,43222
67116,43216
67110,43209
67106,43202
67103,43194
67100,43186
67098,43178
67096,43170
67096,43161
67096,42989
67096,42981
67098,42972
67100,42964
67103,42956
67106,42949
67110,42941
67116,42935
67121,42928
67127,42923
67134,42918
67141,42913
67149,42910
67157,42907
67165,42905
67174,42903
67182,42903
67384,42903
67392,42903
Z" /> 
</g>
<g >
<path style="fill:#000000; fill-opacity:1.0; 
stroke:#000000; stroke-width:0; stroke-opacity:1; 
stroke-linecap:round; stroke-linejoin:round;fill-rule:evenodd;"
d="M 63682,44380
63690,44381
63698,44383
63706,44386
63714,44390
63721,44394
63728,44399
63734,44405
63740,44411
63745,44418
63749,44425
63753,44433
63756,44441
63758,44449
63759,44457
63759,44466
63759,44667
63759,44676
63758,44684
63756,44692
63753,44700
63749,44708
63745,44715
63740,44722
63734,44728
63728,44734
63721,44739
63714,44743
63706,44747
63698,44750
63690,44752
63682,44753
63673,44753
63501,44753
63493,44753
63484,44752
63476,44750
63468,44747
63460,44743
63453,44739
63446,44734
63440,44728
63434,44722
63429,44715
63425,44708
63421,44700
63419,44692
63417,44684
63415,44676
63415,44667
63415,44466
63415,44457
63417,44449
63419,44441
63421,44433
63425,44425
63429,44418
63434,44411
63440,44405
63446,44399
63453,44394
63460,44390
63468,44386
63476,44383
63484,44381
63493,44380
63501,44379
63673,44379
63682,44380
Z" /> 
<path style="fill:#000000; fill-opacity:1.0; 
stroke:#000000; stroke-width:0; stroke-opacity:1; 
stroke-linecap:round; stroke-linejoin:round;fill-rule:evenodd;"
d="M 64302,44380
64310,44381
64318,44383
64326,44386
64334,44390
64341,44394
64348,44399
64354,44405
64360,44411
64365,44418
64369,44425
64373,44433
64376,44441
64378,44449
64379,44457
64379,44466
64379,44667
64379,44676
64378,44684
64376,44692
64373,44700
64369,44708
64365,44715
64360,44722
64354,44728
64348,44734
64341,44739
64334,44743
64326,44747
64318,44750
64310,44752
64302,44753
64293,44753
64121,44753
64113,44753
64104,44752
64096,44750
64088,44747
64080,44743
64073,44739
64066,44734
64060,44728
64054,44722
64049,44715
64045,44708
64041,44700
64039,44692
64037,44684
64035,44676
64035,44667
64035,44466
64035,44457
64037,44449
64039,44441
64041,44433
64045,44425
64049,44418
64054,44411
64060,44405
64066,44399
64073,44394
64080,44390
64088,44386
64096,44383
64104,44381
64113,44380
64121,44379
64293,44379
64302,44380
Z" /> 
</g>
<g >
<path style="fill:#000000; fill-opacity:1.0; 
stroke:#000000; stroke-width:0; stroke-opacity:1; 
stroke-linecap:round; stroke-linejoin:round;fill-rule:evenodd;"
d="M 62668,36289
62676,36291
62684,36293
62692,36295
62700,36299
62707,36303
62714,36308
62720,36314
62726,36320
62731,36327
62735,36334
62739,36342
62742,36350
62744,36358
62745,36367
62746,36375
62746,36547
62745,36556
62744,36564
62742,36572
62739,36580
62735,36588
62731,36595
62726,36602
62720,36608
62714,36614
62707,36619
62700,36623
62692,36627
62684,36630
62676,36632
62668,36633
62659,36633
62458,36633
62449,36633
62441,36632
62433,36630
62425,36627
62417,36623
62410,36619
62403,36614
62397,36608
62391,36602
62386,36595
62382,36588
62378,36580
62375,36572
62373,36564
62372,36556
62372,36547
62372,36375
62372,36367
62373,36358
62375,36350
62378,36342
62382,36334
62386,36327
62391,36320
62397,36314
62403,36308
62410,36303
62417,36299
62425,36295
62433,36293
62441,36291
62449,36289
62458,36289
62659,36289
62668,36289
Z" /> 
<path style="fill:#000000; fill-opacity:1.0; 
stroke:#000000; stroke-width:0; stroke-opacity:1; 
stroke-linecap:round; stroke-linejoin:round;fill-rule:evenodd;"
d="M 62668,36909
62676,36911
62684,36913
62692,36916
62700,36919
62707,36923
62714,36928
62720,36934
62726,36940
62731,36947
62735,36954
62739,36962
62742,36970
62744,36978
62745,36987
62746,36995
62746,37167
62745,37176
62744,37184
62742,37192
62739,37200
62735,37208
62731,37215
62726,37222
62720,37228
62714,37234
62707,37239
62700,37243
62692,37247
62684,37250
62676,37252
62668,37253
62659,37253
62458,37253
62449,37253
62441,37252
62433,37250
62425,37247
62417,37243
62410,37239
62403,37234
62397,37228
62391,37222
62386,37215
62382,37208
62378,37200
62375,37192
62373,37184
62372,37176
62372,37167
62372,36995
62372,36987
62373,36978
62375,36970
62378,36962
62382,36954
62386,36947
62391,36940
62397,36934
62403,36928
62410,36923
62417,36919
62425,36916
62433,36913
62441,36911
62449,36909
62458,36909
62659,36909
62668,36909
Z" /> 
</g>
<g >
<path style="fill:#000000; fill-opacity:1.0; 
stroke:#000000; stroke-width:0; stroke-opacity:1; 
stroke-linecap:round; stroke-linejoin:round;fill-rule:evenodd;"
d="M 63377,35177
63385,35178
63393,35180
63401,35183
63409,35187
63416,35191
63423,35196
63429,35202
63435,35208
63440,35215
63444,35222
63448,35230
63451,35238
63453,35246
63454,35254
63454,35263
63454,35435
63454,35443
63453,35452
63451,35460
63448,35468
63444,35476
63440,35483
63435,35490
63429,35496
63423,35502
63416,35507
63409,35511
63401,35515
63393,35517
63385,35519
63377,35521
63368,35521
63166,35521
63158,35521
63150,35519
63141,35517
63133,35515
63126,35511
63118,35507
63112,35502
63105,35496
63100,35490
63095,35483
63090,35476
63087,35468
63084,35460
63082,35452
63081,35443
63080,35435
63080,35263
63081,35254
63082,35246
63084,35238
63087,35230
63090,35222
63095,35215
63100,35208
63105,35202
63112,35196
63118,35191
63126,35187
63133,35183
63141,35180
63150,35178
63158,35177
63166,35177
63368,35177
63377,35177
Z" /> 
<path style="fill:#000000; fill-opacity:1.0; 
stroke:#000000; stroke-width:0; stroke-opacity:1; 
stroke-linecap:round; stroke-linejoin:round;fill-rule:evenodd;"
d="M 63377,34557
63385,34558
63393,34560
63401,34563
63409,34567
63416,34571
63423,34576
63429,34582
63435,34588
63440,34595
63444,34602
63448,34610
63451,34618
63453,34626
63454,34634
63454,34643
63454,34815
63454,34823
63453,34832
63451,34840
63448,34848
63444,34856
63440,34863
63435,34870
63429,34876
63423,34882
63416,34887
63409,34891
63401,34895
63393,34897
63385,34899
63377,34901
63368,34901
63166,34901
63158,34901
63150,34899
63141,34897
63133,34895
63126,34891
63118,34887
63112,34882
63105,34876
63100,34870
63095,34863
63090,34856
63087,34848
63084,34840
63082,34832
63081,34823
63080,34815
63080,34643
63081,34634
63082,34626
63084,34618
63087,34610
63090,34602
63095,34595
63100,34588
63105,34582
63112,34576
63118,34571
63126,34567
63133,34563
63141,34560
63150,34558
63158,34557
63166,34557
63368,34557
63377,34557
Z" /> 
</g>
<g >
<path style="fill:#000000; fill-opacity:1.0; 
stroke:#000000; stroke-width:0; stroke-opacity:1; 
stroke-linecap:round; stroke-linejoin:round;fill-rule:evenodd;"
d="M 63140,33292
63149,33293
63157,33296
63165,33298
63172,33302
63180,33306
63187,33311
63193,33317
63198,33323
63203,33330
63208,33337
63211,33345
63214,33353
63216,33361
63218,33370
63218,33378
63218,33550
63218,33559
63216,33567
63214,33575
63211,33583
63208,33591
63203,33598
63198,33605
63193,33611
63187,33617
63180,33622
63172,33626
63165,33630
63157,33633
63149,33635
63140,33636
63132,33636
62930,33636
62922,33636
62913,33635
62905,33633
62897,33630
62890,33626
62882,33622
62875,33617
62869,33611
62864,33605
62859,33598
62854,33591
62851,33583
62848,33575
62846,33567
62844,33559
62844,33550
62844,33378
62844,33370
62846,33361
62848,33353
62851,33345
62854,33337
62859,33330
62864,33323
62869,33317
62875,33311
62882,33306
62890,33302
62897,33298
62905,33296
62913,33293
62922,33292
62930,33292
63132,33292
63140,33292
Z" /> 
<path style="fill:#000000; fill-opacity:1.0; 
stroke:#000000; stroke-width:0; stroke-opacity:1; 
stroke-linecap:round; stroke-linejoin:round;fill-rule:evenodd;"
d="M 63140,33912
63149,33914
63157,33916
63165,33918
63172,33922
63180,33926
63187,33931
63193,33937
63198,33943
63203,33950
63208,33957
63211,33965
63214,33973
63216,33981
63218,33990
63218,33998
63218,34170
63218,34179
63216,34187
63214,34195
63211,34203
63208,34211
63203,34218
63198,34225
63193,34231
63187,34237
63180,34242
63172,34246
63165,34250
63157,34253
63149,34255
63140,34256
63132,34256
62930,34256
62922,34256
62913,34255
62905,34253
62897,34250
62890,34246
62882,34242
62875,34237
62869,34231
62864,34225
62859,34218
62854,34211
62851,34203
62848,34195
62846,34187
62844,34179
62844,34170
62844,33998
62844,33990
62846,33981
62848,33973
62851,33965
62854,33957
62859,33950
62864,33943
62869,33937
62875,33931
62882,33926
62890,33922
62897,33918
62905,33916
62913,33914
62922,33912
62930,33912
63132,33912
63140,33912
Z" /> 
</g>
<g >
<path style="fill:#000000; fill-opacity:1.0; 
stroke:#000000; stroke-width:0; stroke-opacity:1; 
stroke-linecap:round; stroke-linejoin:round;fill-rule:evenodd;"
d="M 63770,32741
63779,32742
63787,32744
63795,32747
63802,32751
63810,32755
63816,32760
63823,32766
63828,32772
63833,32779
63838,32786
63841,32794
63844,32802
63846,32810
63848,32818
63848,32827
63848,32999
63848,33007
63846,33016
63844,33024
63841,33032
63838,33040
63833,33047
63828,33054
63823,33060
63816,33066
63810,33071
63802,33075
63795,33079
63787,33081
63779,33083
63770,33085
63762,33085
63560,33085
63552,33085
63543,33083
63535,33081
63527,33079
63519,33075
63512,33071
63505,33066
63499,33060
63493,33054
63488,33047
63484,33040
63480,33032
63478,33024
63476,33016
63474,33007
63474,32999
63474,32827
63474,32818
63476,32810
63478,32802
63480,32794
63484,32786
63488,32779
63493,32772
63499,32766
63505,32760
63512,32755
63519,32751
63527,32747
63535,32744
63543,32742
63552,32741
63560,32741
63762,32741
63770,32741
Z" /> 
<path style="fill:#000000; fill-opacity:1.0; 
stroke:#000000; stroke-width:0; stroke-opacity:1; 
stroke-linecap:round; stroke-linejoin:round;fill-rule:evenodd;"
d="M 63770,33361
63779,33362
63787,33364
63795,33367
63802,33371
63810,33375
63816,33380
63823,33386
63828,33392
63833,33399
63838,33406
63841,33414
63844,33422
63846,33430
63848,33438
63848,33447
63848,33619
63848,33628
63846,33636
63844,33644
63841,33652
63838,33660
63833,33667
63828,33674
63823,33680
63816,33686
63810,33691
63802,33695
63795,33699
63787,33702
63779,33704
63770,33705
63762,33705
63560,33705
63552,33705
63543,33704
63535,33702
63527,33699
63519,33695
63512,33691
63505,33686
63499,33680
63493,33674
63488,33667
63484,33660
63480,33652
63478,33644
63476,33636
63474,33628
63474,33619
63474,33447
63474,33438
63476,33430
63478,33422
63480,33414
63484,33406
63488,33399
63493,33392
63499,33386
63505,33380
63512,33375
63519,33371
63527,33367
63535,33364
63543,33362
63552,33361
63560,33361
63762,33361
63770,33361
Z" /> 
</g>
<g >
<path style="fill:#000000; fill-opacity:1.0; 
stroke:#000000; stroke-width:0; stroke-opacity:1; 
stroke-linecap:round; stroke-linejoin:round;fill-rule:evenodd;"
d="M 64400,32505
64409,32506
64417,32508
64425,32511
64432,32515
64440,32519
64446,32524
64453,32530
64458,32536
64463,32543
64468,32550
64471,32558
64474,32566
64476,32574
64477,32582
64478,32591
64478,32763
64477,32771
64476,32780
64474,32788
64471,32796
64468,32803
64463,32811
64458,32817
64453,32824
64446,32829
64440,32834
64432,32839
64425,32842
64417,32845
64409,32847
64400,32848
64392,32849
64190,32849
64182,32848
64173,32847
64165,32845
64157,32842
64149,32839
64142,32834
64135,32829
64129,32824
64123,32817
64118,32811
64114,32803
64110,32796
64108,32788
64105,32780
64104,32771
64104,32763
64104,32591
64104,32582
64105,32574
64108,32566
64110,32558
64114,32550
64118,32543
64123,32536
64129,32530
64135,32524
64142,32519
64149,32515
64157,32511
64165,32508
64173,32506
64182,32505
64190,32504
64392,32504
64400,32505
Z" /> 
<path style="fill:#000000; fill-opacity:1.0; 
stroke:#000000; stroke-width:0; stroke-opacity:1; 
stroke-linecap:round; stroke-linejoin:round;fill-rule:evenodd;"
d="M 64400,33125
64409,33126
64417,33128
64425,33131
64432,33135
64440,33139
64446,33144
64453,33150
64458,33156
64463,33163
64468,33170
64471,33178
64474,33186
64476,33194
64477,33202
64478,33211
64478,33383
64477,33391
64476,33400
64474,33408
64471,33416
64468,33423
64463,33431
64458,33438
64453,33444
64446,33449
64440,33454
64432,33459
64425,33462
64417,33465
64409,33467
64400,33469
64392,33469
64190,33469
64182,33469
64173,33467
64165,33465
64157,33462
64149,33459
64142,33454
64135,33449
64129,33444
64123,33438
64118,33431
64114,33423
64110,33416
64108,33408
64105,33400
64104,33391
64104,33383
64104,33211
64104,33202
64105,33194
64108,33186
64110,33178
64114,33170
64118,33163
64123,33156
64129,33150
64135,33144
64142,33139
64149,33135
64157,33131
64165,33128
64173,33126
64182,33125
64190,33125
64392,33125
64400,33125
Z" /> 
</g>
<g >
<path style="fill:#000000; fill-opacity:1.0; 
stroke:#000000; stroke-width:0; stroke-opacity:1; 
stroke-linecap:round; stroke-linejoin:round;fill-rule:evenodd;"
d="M 65030,32505
65038,32506
65047,32508
65055,32511
65062,32515
65069,32519
65076,32524
65083,32530
65088,32536
65093,32543
65098,32550
65101,32558
65104,32566
65106,32574
65107,32582
65108,32591
65108,32763
65107,32771
65106,32780
65104,32788
65101,32796
65098,32803
65093,32811
65088,32817
65083,32824
65076,32829
65069,32834
65062,32839
65055,32842
65047,32845
65038,32847
65030,32848
65022,32849
64820,32849
64811,32848
64803,32847
64795,32845
64787,32842
64779,32839
64772,32834
64765,32829
64759,32824
64753,32817
64748,32811
64744,32803
64740,32796
64737,32788
64735,32780
64734,32771
64734,32763
64734,32591
64734,32582
64735,32574
64737,32566
64740,32558
64744,32550
64748,32543
64753,32536
64759,32530
64765,32524
64772,32519
64779,32515
64787,32511
64795,32508
64803,32506
64811,32505
64820,32504
65022,32504
65030,32505
Z" /> 
<path style="fill:#000000; fill-opacity:1.0; 
stroke:#000000; stroke-width:0; stroke-opacity:1; 
stroke-linecap:round; stroke-linejoin:round;fill-rule:evenodd;"
d="M 65030,33125
65038,33126
65047,33128
65055,33131
65062,33135
65069,33139
65076,33144
65083,33150
65088,33156
65093,33163
65098,33170
65101,33178
65104,33186
65106,33194
65107,33202
65108,33211
65108,33383
65107,33391
65106,33400
65104,33408
65101,33416
65098,33423
65093,33431
65088,33438
65083,33444
65076,33449
65069,33454
65062,33459
65055,33462
65047,33465
65038,33467
65030,33469
65022,33469
64820,33469
64811,33469
64803,33467
64795,33465
64787,33462
64779,33459
64772,33454
64765,33449
64759,33444
64753,33438
64748,33431
64744,33423
64740,33416
64737,33408
64735,33400
64734,33391
64734,33383
64734,33211
64734,33202
64735,33194
64737,33186
64740,33178
64744,33170
64748,33163
64753,33156
64759,33150
64765,33144
64772,33139
64779,33135
64787,33131
64795,33128
64803,33126
64811,33125
64820,33125
65022,33125
65030,33125
Z" /> 
</g>
<g >
<path style="fill:#000000; fill-opacity:1.0; 
stroke:#000000; stroke-width:0; stroke-opacity:1; 
stroke-linecap:round; stroke-linejoin:round;fill-rule:evenodd;"
d="M 65660,32741
65668,32742
65677,32744
65685,32747
65692,32751
65699,32755
65706,32760
65712,32766
65718,32772
65723,32779
65728,32786
65731,32794
65734,32802
65736,32810
65737,32818
65738,32827
65738,32999
65737,33007
65736,33016
65734,33024
65731,33032
65728,33040
65723,33047
65718,33054
65712,33060
65706,33066
65699,33071
65692,33075
65685,33079
65677,33081
65668,33083
65660,33085
65652,33085
65450,33085
65441,33085
65433,33083
65425,33081
65417,33079
65409,33075
65402,33071
65395,33066
65389,33060
65383,33054
65378,33047
65374,33040
65370,33032
65367,33024
65365,33016
65364,33007
65364,32999
65364,32827
65364,32818
65365,32810
65367,32802
65370,32794
65374,32786
65378,32779
65383,32772
65389,32766
65395,32760
65402,32755
65409,32751
65417,32747
65425,32744
65433,32742
65441,32741
65450,32741
65652,32741
65660,32741
Z" /> 
<path style="fill:#000000; fill-opacity:1.0; 
stroke:#000000; stroke-width:0; stroke-opacity:1; 
stroke-linecap:round; stroke-linejoin:round;fill-rule:evenodd;"
d="M 65660,33361
65668,33362
65677,33364
65685,33367
65692,33371
65699,33375
65706,33380
65712,33386
65718,33392
65723,33399
65728,33406
65731,33414
65734,33422
65736,33430
65737,33438
65738,33447
65738,33619
65737,33628
65736,33636
65734,33644
65731,33652
65728,33660
65723,33667
65718,33674
65712,33680
65706,33686
65699,33691
65692,33695
65685,33699
65677,33702
65668,33704
65660,33705
65652,33705
65450,33705
65441,33705
65433,33704
65425,33702
65417,33699
65409,33695
65402,33691
65395,33686
65389,33680
65383,33674
65378,33667
65374,33660
65370,33652
65367,33644
65365,33636
65364,33628
65364,33619
65364,33447
65364,33438
65365,33430
65367,33422
65370,33414
65374,33406
65378,33399
65383,33392
65389,33386
65395,33380
65402,33375
65409,33371
65417,33367
65425,33364
65433,33362
65441,33361
65450,33361
65652,33361
65660,33361
Z" /> 
</g>
<g >
<path style="fill:#000000; fill-opacity:1.0; 
stroke:#000000; stroke-width:0; stroke-opacity:1; 
stroke-linecap:round; stroke-linejoin:round;fill-rule:evenodd;"
d="M 66290,33371
66298,33372
66306,33374
66314,33377
66322,33381
66329,33385
66336,33390
66342,33396
66348,33402
66353,33409
66357,33416
66361,33424
66364,33432
66366,33440
66367,33448
66368,33457
66368,33629
66367,33637
66366,33646
66364,33654
66361,33662
66357,33670
66353,33677
66348,33684
66342,33690
66336,33696
66329,33701
66322,33705
66314,33708
66306,33711
66298,33713
66290,33715
66281,33715
66080,33715
66071,33715
66063,33713
66055,33711
66047,33708
66039,33705
66032,33701
66025,33696
66019,33690
66013,33684
66008,33677
66004,33670
66000,33662
65997,33654
65995,33646
65994,33637
65994,33629
65994,33457
65994,33448
65995,33440
65997,33432
66000,33424
66004,33416
66008,33409
66013,33402
66019,33396
66025,33390
66032,33385
66039,33381
66047,33377
66055,33374
66063,33372
66071,33371
66080,33371
66281,33371
66290,33371
Z" /> 
<path style="fill:#000000; fill-opacity:1.0; 
stroke:#000000; stroke-width:0; stroke-opacity:1; 
stroke-linecap:round; stroke-linejoin:round;fill-rule:evenodd;"
d="M 66290,33991
66298,33992
66306,33994
66314,33997
66322,34001
66329,34005
66336,34010
66342,34016
66348,34022
66353,34029
66357,34036
66361,34044
66364,34052
66366,34060
66367,34068
66368,34077
66368,34249
66367,34257
66366,34266
66364,34274
66361,34282
66357,34290
66353,34297
66348,34304
66342,34310
66336,34316
66329,34321
66322,34325
66314,34329
66306,34331
66298,34333
66290,34335
66281,34335
66080,34335
66071,34335
66063,34333
66055,34331
66047,34329
66039,34325
66032,34321
66025,34316
66019,34310
66013,34304
66008,34297
66004,34290
66000,34282
65997,34274
65995,34266
65994,34257
65994,34249
65994,34077
65994,34068
65995,34060
65997,34052
66000,34044
66004,34036
66008,34029
66013,34022
66019,34016
66025,34010
66032,34005
66039,34001
66047,33997
66055,33994
66063,33992
66071,33991
66080,33991
66281,33991
66290,33991
Z" /> 
</g>
<g >
<path style="fill:#000000; fill-opacity:1.0; 
stroke:#000000; stroke-width:0; stroke-opacity:1; 
stroke-linecap:round; stroke-linejoin:round;fill-rule:evenodd;"
d="M 66054,34641
66062,34642
66070,34644
66078,34647
66086,34650
66093,34655
66100,34660
66106,34665
66112,34672
66117,34679
66121,34686
66125,34693
66128,34701
66130,34710
66131,34718
66131,34726
66131,34899
66131,34907
66130,34915
66128,34924
66125,34932
66121,34939
66117,34946
66112,34953
66106,34960
66100,34965
66093,34970
66086,34975
66078,34978
66070,34981
66062,34983
66054,34984
66045,34985
65843,34985
65835,34984
65827,34983
65818,34981
65811,34978
65803,34975
65796,34970
65789,34965
65783,34960
65777,34953
65772,34946
65768,34939
65764,34932
65761,34924
65759,34915
65758,34907
65757,34899
65757,34726
65758,34718
65759,34710
65761,34701
65764,34693
65768,34686
65772,34679
65777,34672
65783,34665
65789,34660
65796,34655
65803,34650
65811,34647
65818,34644
65827,34642
65835,34641
65843,34640
66045,34640
66054,34641
Z" /> 
<path style="fill:#000000; fill-opacity:1.0; 
stroke:#000000; stroke-width:0; stroke-opacity:1; 
stroke-linecap:round; stroke-linejoin:round;fill-rule:evenodd;"
d="M 66054,35261
66062,35262
66070,35264
66078,35267
66086,35270
66093,35275
66100,35280
66106,35286
66112,35292
66117,35299
66121,35306
66125,35313
66128,35321
66130,35330
66131,35338
66131,35346
66131,35519
66131,35527
66130,35535
66128,35544
66125,35552
66121,35559
66117,35567
66112,35573
66106,35580
66100,35585
66093,35590
66086,35595
66078,35598
66070,35601
66062,35603
66054,35604
66045,35605
65843,35605
65835,35604
65827,35603
65818,35601
65811,35598
65803,35595
65796,35590
65789,35585
65783,35580
65777,35573
65772,35567
65768,35559
65764,35552
65761,35544
65759,35535
65758,35527
65757,35519
65757,35346
65758,35338
65759,35330
65761,35321
65764,35313
65768,35306
65772,35299
65777,35292
65783,35286
65789,35280
65796,35275
65803,35270
65811,35267
65818,35264
65827,35262
65835,35261
65843,35260
66045,35260
66054,35261
Z" /> 
</g>
<g >
<path style="fill:#000000; fill-opacity:1.0; 
stroke:#000000; stroke-width:0; stroke-opacity:1; 
stroke-linecap:round; stroke-linejoin:round;fill-rule:evenodd;"
d="M 66762,36294
66771,36295
66779,36297
66787,36300
66795,36304
66802,36308
66809,36313
66815,36319
66821,36325
66826,36332
66830,36339
66833,36347
66836,36355
66838,36363
66840,36371
66840,36380
66840,36552
66840,36561
66838,36569
66836,36577
66833,36585
66830,36593
66826,36600
66821,36607
66815,36613
66809,36619
66802,36624
66795,36628
66787,36632
66779,36635
66771,36637
66762,36638
66754,36638
66552,36638
66544,36638
66535,36637
66527,36635
66519,36632
66512,36628
66504,36624
66498,36619
66491,36613
66486,36607
66481,36600
66476,36593
66473,36585
66470,36577
66468,36569
66466,36561
66466,36552
66466,36380
66466,36371
66468,36363
66470,36355
66473,36347
66476,36339
66481,36332
66486,36325
66491,36319
66498,36313
66504,36308
66512,36304
66519,36300
66527,36297
66535,36295
66544,36294
66552,36294
66754,36294
66762,36294
Z" /> 
<path style="fill:#000000; fill-opacity:1.0; 
stroke:#000000; stroke-width:0; stroke-opacity:1; 
stroke-linecap:round; stroke-linejoin:round;fill-rule:evenodd;"
d="M 66762,36914
66771,36916
66779,36918
66787,36920
66795,36924
66802,36928
66809,36933
66815,36939
66821,36945
66826,36952
66830,36959
66833,36967
66836,36975
66838,36983
66840,36992
66840,37000
66840,37172
66840,37181
66838,37189
66836,37197
66833,37205
66830,37213
66826,37220
66821,37227
66815,37233
66809,37239
66802,37244
66795,37248
66787,37252
66779,37255
66771,37257
66762,37258
66754,37258
66552,37258
66544,37258
66535,37257
66527,37255
66519,37252
66512,37248
66504,37244
66498,37239
66491,37233
66486,37227
66481,37220
66476,37213
66473,37205
66470,37197
66468,37189
66466,37181
66466,37172
66466,37000
66466,36992
66468,36983
66470,36975
66473,36967
66476,36959
66481,36952
66486,36945
66491,36939
66498,36933
66504,36928
66512,36924
66519,36920
66527,36918
66535,36916
66544,36914
66552,36914
66754,36914
66762,36914
Z" /> 
</g>
<g >
<path style="fill:#000000; fill-opacity:1.0; 
stroke:#000000; stroke-width:0; stroke-opacity:1; 
stroke-linecap:round; stroke-linejoin:round;fill-rule:evenodd;"
d="M 65817,37697
65826,37698
65834,37700
65842,37703
65850,37707
65857,37711
65864,37716
65870,37722
65876,37728
65881,37735
65885,37742
65889,37750
65891,37757
65894,37766
65895,37774
65895,37782
65895,37955
65895,37963
65894,37972
65891,37980
65889,37988
65885,37995
65881,38003
65876,38009
65870,38016
65864,38021
65857,38026
65850,38031
65842,38034
65834,38037
65826,38039
65817,38040
65809,38041
65607,38041
65599,38040
65590,38039
65582,38037
65574,38034
65567,38031
65559,38026
65553,38021
65546,38016
65541,38009
65536,38003
65531,37995
65528,37988
65525,37980
65523,37972
65522,37963
65521,37955
65521,37782
65522,37774
65523,37766
65525,37757
65528,37750
65531,37742
65536,37735
65541,37728
65546,37722
65553,37716
65559,37711
65567,37707
65574,37703
65582,37700
65590,37698
65599,37697
65607,37696
65809,37696
65817,37697
Z" /> 
<path style="fill:#000000; fill-opacity:1.0; 
stroke:#000000; stroke-width:0; stroke-opacity:1; 
stroke-linecap:round; stroke-linejoin:round;fill-rule:evenodd;"
d="M 65817,37077
65826,37078
65834,37080
65842,37083
65850,37086
65857,37091
65864,37096
65870,37101
65876,37108
65881,37115
65885,37122
65889,37129
65891,37137
65894,37146
65895,37154
65895,37162
65895,37335
65895,37343
65894,37351
65891,37360
65889,37368
65885,37375
65881,37382
65876,37389
65870,37396
65864,37401
65857,37406
65850,37411
65842,37414
65834,37417
65826,37419
65817,37420
65809,37421
65607,37421
65599,37420
65590,37419
65582,37417
65574,37414
65567,37411
65559,37406
65553,37401
65546,37396
65541,37389
65536,37382
65531,37375
65528,37368
65525,37360
65523,37351
65522,37343
65521,37335
65521,37162
65522,37154
65523,37146
65525,37137
65528,37129
65531,37122
65536,37115
65541,37108
65546,37101
65553,37096
65559,37091
65567,37086
65574,37083
65582,37080
65590,37078
65599,37077
65607,37076
65809,37076
65817,37077
Z" /> 
</g>
<g >
<path style="fill:#000000; fill-opacity:1.0; 
stroke:#000000; stroke-width:0; stroke-opacity:1; 
stroke-linecap:round; stroke-linejoin:round;fill-rule:evenodd;"
d="M 63534,37077
63542,37078
63551,37080
63559,37083
63566,37086
63573,37091
63580,37096
63586,37101
63592,37108
63597,37115
63602,37122
63605,37129
63608,37137
63610,37146
63611,37154
63612,37162
63612,37335
63611,37343
63610,37351
63608,37360
63605,37368
63602,37375
63597,37382
63592,37389
63586,37396
63580,37401
63573,37406
63566,37411
63559,37414
63551,37417
63542,37419
63534,37420
63526,37421
63324,37421
63315,37420
63307,37419
63299,37417
63291,37414
63283,37411
63276,37406
63269,37401
63263,37396
63257,37389
63252,37382
63248,37375
63244,37368
63241,37360
63239,37351
63238,37343
63238,37335
63238,37162
63238,37154
63239,37146
63241,37137
63244,37129
63248,37122
63252,37115
63257,37108
63263,37101
63269,37096
63276,37091
63283,37086
63291,37083
63299,37080
63307,37078
63315,37077
63324,37076
63526,37076
63534,37077
Z" /> 
<path style="fill:#000000; fill-opacity:1.0; 
stroke:#000000; stroke-width:0; stroke-opacity:1; 
stroke-linecap:round; stroke-linejoin:round;fill-rule:evenodd;"
d="M 63534,37697
63542,37698
63551,37700
63559,37703
63566,37707
63573,37711
63580,37716
63586,37722
63592,37728
63597,37735
63602,37742
63605,37750
63608,37757
63610,37766
63611,37774
63612,37782
63612,37955
63611,37963
63610,37972
63608,37980
63605,37988
63602,37995
63597,38003
63592,38009
63586,38016
63580,38021
63573,38026
63566,38031
63559,38034
63551,38037
63542,38039
63534,38040
63526,38041
63324,38041
63315,38040
63307,38039
63299,38037
63291,38034
63283,38031
63276,38026
63269,38021
63263,38016
63257,38009
63252,38003
63248,37995
63244,37988
63241,37980
63239,37972
63238,37963
63238,37955
63238,37782
63238,37774
63239,37766
63241,37757
63244,37750
63248,37742
63252,37735
63257,37728
63263,37722
63269,37716
63276,37711
63283,37707
63291,37703
63299,37700
63307,37698
63315,37697
63324,37696
63526,37696
63534,37697
Z" /> 
</g>
<g >
</g>
<g >
</g>
<g >
</g>
</g> 
</svg>
