<?xml version="1.0" encoding="UTF-8" standalone="no"?>
<svg
   xmlns:dc="http://purl.org/dc/elements/1.1/"
   xmlns:cc="http://creativecommons.org/ns#"
   xmlns:rdf="http://www.w3.org/1999/02/22-rdf-syntax-ns#"
   xmlns:svg="http://www.w3.org/2000/svg"
   xmlns="http://www.w3.org/2000/svg"
   xmlns:sodipodi="http://sodipodi.sourceforge.net/DTD/sodipodi-0.dtd"
   xmlns:inkscape="http://www.inkscape.org/namespaces/inkscape"
   version="1.1"
   width="28.499716mm"
   height="34.776051mm"
   viewBox="0 0 11220.369 13691.371"
   id="svg5228"
   sodipodi:docname="Nixie-F_Cu.svg"
   inkscape:version="1.0.2 (e86c8708, 2021-01-15)">
  <metadata
     id="metadata5234">
    <rdf:RDF>
      <cc:Work
         rdf:about="">
        <dc:format>image/svg+xml</dc:format>
        <dc:type
           rdf:resource="http://purl.org/dc/dcmitype/StillImage" />
        <dc:title>SVG Picture created as Nixie-F_Cu.svg date 2021/03/25 13:34:28 </dc:title>
      </cc:Work>
    </rdf:RDF>
  </metadata>
  <defs
     id="defs5232" />
  <sodipodi:namedview
     pagecolor="#ffffff"
     bordercolor="#666666"
     borderopacity="1"
     objecttolerance="10"
     gridtolerance="10"
     guidetolerance="10"
     inkscape:pageopacity="0"
     inkscape:pageshadow="2"
     inkscape:window-width="743"
     inkscape:window-height="480"
     id="namedview5230"
     showgrid="false"
     inkscape:document-units="mm"
     units="mm"
     fit-margin-top="0"
     fit-margin-left="0"
     fit-margin-right="0"
     fit-margin-bottom="0"
     inkscape:zoom="0.97191408"
     inkscape:cx="-5.6573478"
     inkscape:cy="94.508849"
     inkscape:window-x="0"
     inkscape:window-y="25"
     inkscape:window-maximized="0"
     inkscape:current-layer="svg5228" />
  <title
     id="title4302">SVG Picture created as Nixie-F_Cu.svg date 2021/03/25 13:34:28 </title>
  <desc
     id="desc4304">Picture generated by PCBNEW </desc>
  <g
     style="fill:#000000;fill-opacity:1;stroke:#000000;stroke-linecap:round;stroke-linejoin:round;stroke-opacity:1"
     id="g4306"
     transform="translate(-59054.315,-31495.315)" />
  <g
     style="fill:#000000;fill-opacity:0;stroke:#000000;stroke-width:-0.000393701;stroke-linecap:round;stroke-linejoin:round;stroke-opacity:1"
     id="g5226"
     transform="translate(-59054.315,-31495.315)">
    <g
       id="g4308" />
    <g
       id="g4310" />
    <g
       id="g4312" />
    <g
       id="g4314" />
    <g
       style="fill:#000000;fill-opacity:0;stroke:#000000;stroke-width:531.496;stroke-linecap:round;stroke-linejoin:round;stroke-opacity:1"
       id="g4342">
      <path
         d="m 69685,40236 v 0"
         id="path4316" />
      <path
         d="m 68897,40236 v 0"
         id="path4318" />
      <path
         d="m 69685,39448 v 0"
         id="path4320" />
      <path
         d="m 68897,39448 v 0"
         id="path4322" />
      <path
         d="m 69685,38661 v 0"
         id="path4324" />
      <path
         d="m 68897,38661 v 0"
         id="path4326" />
      <path
         d="m 69685,37874 v 0"
         id="path4328" />
      <path
         d="m 68897,37874 v 0"
         id="path4330" />
      <path
         d="m 69685,37086 v 0"
         id="path4332" />
      <path
         d="m 68897,37086 v 0"
         id="path4334" />
      <path
         d="m 69685,36299 v 0"
         id="path4336" />
      <path
         d="m 68897,36299 v 0"
         id="path4338" />
      <path
         d="m 69685,35511 v 0"
         id="path4340" />
    </g>
    <g
       style="fill:#000000;fill-opacity:0;stroke:#000000;stroke-width:0;stroke-linecap:round;stroke-linejoin:round;stroke-opacity:1"
       id="g4344" />
    <g
       style="fill:#000000;fill-opacity:1;stroke:#000000;stroke-width:0;stroke-linecap:round;stroke-linejoin:round;stroke-opacity:1"
       id="g4348">
      <path
         style="fill:#000000;fill-opacity:1;fill-rule:evenodd;stroke:#000000;stroke-width:0;stroke-linecap:round;stroke-linejoin:round;stroke-opacity:1"
         d="m 68631,35777 v -531 h 532 v 531 z"
         id="path4346" />
    </g>
    <g
       id="g4352">
      <circle
         cx="66609.5"
         cy="35767.102"
         r="265"
         id="circle4350" />
    </g>
    <g
       style="fill:#000000;fill-opacity:1;stroke:#000000;stroke-width:39.3701;stroke-linecap:round;stroke-linejoin:round;stroke-opacity:1"
       id="g4354" />
    <g
       style="fill:#000000;fill-opacity:1;stroke:#000000;stroke-width:0;stroke-linecap:round;stroke-linejoin:round;stroke-opacity:1"
       id="g4358">
      <circle
         cx="62599.5"
         cy="35767.102"
         r="265"
         id="circle4356" />
    </g>
    <g
       style="fill:#000000;fill-opacity:1;stroke:#000000;stroke-width:39.3701;stroke-linecap:round;stroke-linejoin:round;stroke-opacity:1"
       id="g4360" />
    <g
       style="fill:#000000;fill-opacity:1;stroke:#000000;stroke-width:0;stroke-linecap:round;stroke-linejoin:round;stroke-opacity:1"
       id="g4364">
      <circle
         cx="62185.5"
         cy="34676.102"
         r="265"
         id="circle4362" />
    </g>
    <g
       style="fill:#000000;fill-opacity:1;stroke:#000000;stroke-width:39.3701;stroke-linecap:round;stroke-linejoin:round;stroke-opacity:1"
       id="g4366" />
    <g
       style="fill:#000000;fill-opacity:1;stroke:#000000;stroke-width:0;stroke-linecap:round;stroke-linejoin:round;stroke-opacity:1"
       id="g4370">
      <circle
         cx="62326.5"
         cy="33519.102"
         r="265"
         id="circle4368" />
    </g>
    <g
       style="fill:#000000;fill-opacity:1;stroke:#000000;stroke-width:39.3701;stroke-linecap:round;stroke-linejoin:round;stroke-opacity:1"
       id="g4372" />
    <g
       style="fill:#000000;fill-opacity:1;stroke:#000000;stroke-width:0;stroke-linecap:round;stroke-linejoin:round;stroke-opacity:1"
       id="g4376">
      <circle
         cx="62988.5"
         cy="32559.1"
         r="265"
         id="circle4374" />
    </g>
    <g
       style="fill:#000000;fill-opacity:1;stroke:#000000;stroke-width:39.3701;stroke-linecap:round;stroke-linejoin:round;stroke-opacity:1"
       id="g4378" />
    <g
       style="fill:#000000;fill-opacity:1;stroke:#000000;stroke-width:0;stroke-linecap:round;stroke-linejoin:round;stroke-opacity:1"
       id="g4382">
      <circle
         cx="64021.5"
         cy="32017.1"
         r="265"
         id="circle4380" />
    </g>
    <g
       style="fill:#000000;fill-opacity:1;stroke:#000000;stroke-width:39.3701;stroke-linecap:round;stroke-linejoin:round;stroke-opacity:1"
       id="g4384" />
    <g
       style="fill:#000000;fill-opacity:1;stroke:#000000;stroke-width:0;stroke-linecap:round;stroke-linejoin:round;stroke-opacity:1"
       id="g4388">
      <circle
         cx="65187.5"
         cy="32017.1"
         r="265"
         id="circle4386" />
    </g>
    <g
       style="fill:#000000;fill-opacity:1;stroke:#000000;stroke-width:39.3701;stroke-linecap:round;stroke-linejoin:round;stroke-opacity:1"
       id="g4390" />
    <g
       style="fill:#000000;fill-opacity:1;stroke:#000000;stroke-width:0;stroke-linecap:round;stroke-linejoin:round;stroke-opacity:1"
       id="g4394">
      <circle
         cx="66220.5"
         cy="32559.1"
         r="265"
         id="circle4392" />
    </g>
    <g
       style="fill:#000000;fill-opacity:1;stroke:#000000;stroke-width:39.3701;stroke-linecap:round;stroke-linejoin:round;stroke-opacity:1"
       id="g4396" />
    <g
       style="fill:#000000;fill-opacity:1;stroke:#000000;stroke-width:0;stroke-linecap:round;stroke-linejoin:round;stroke-opacity:1"
       id="g4400">
      <circle
         cx="66882.5"
         cy="33519.102"
         r="265"
         id="circle4398" />
    </g>
    <g
       style="fill:#000000;fill-opacity:1;stroke:#000000;stroke-width:39.3701;stroke-linecap:round;stroke-linejoin:round;stroke-opacity:1"
       id="g4402" />
    <g
       style="fill:#000000;fill-opacity:1;stroke:#000000;stroke-width:0;stroke-linecap:round;stroke-linejoin:round;stroke-opacity:1"
       id="g4406">
      <circle
         cx="67023.5"
         cy="34676.102"
         r="265"
         id="circle4404" />
    </g>
    <g
       style="fill:#000000;fill-opacity:1;stroke:#000000;stroke-width:39.3701;stroke-linecap:round;stroke-linejoin:round;stroke-opacity:1"
       id="g4408" />
    <g
       style="fill:#000000;fill-opacity:1;stroke:#000000;stroke-width:0;stroke-linecap:round;stroke-linejoin:round;stroke-opacity:1"
       id="g4412">
      <circle
         cx="64604.5"
         cy="36819.102"
         r="265"
         id="circle4410" />
    </g>
    <g
       style="fill:#000000;fill-opacity:1;stroke:#000000;stroke-width:39.3701;stroke-linecap:round;stroke-linejoin:round;stroke-opacity:1"
       id="g4414" />
    <g
       style="fill:#000000;fill-opacity:1;stroke:#000000;stroke-width:0;stroke-linecap:round;stroke-linejoin:round;stroke-opacity:1"
       id="g4418">
      <circle
         cx="65736.5"
         cy="36540.102"
         r="265"
         id="circle4416" />
    </g>
    <g
       style="fill:#000000;fill-opacity:1;stroke:#000000;stroke-width:39.3701;stroke-linecap:round;stroke-linejoin:round;stroke-opacity:1"
       id="g4420" />
    <g
       style="fill:#000000;fill-opacity:1;stroke:#000000;stroke-width:0;stroke-linecap:round;stroke-linejoin:round;stroke-opacity:1"
       id="g4424">
      <circle
         cx="63472.5"
         cy="36540.102"
         r="265"
         id="circle4422" />
    </g>
    <g
       style="fill:#000000;fill-opacity:1;stroke:#000000;stroke-width:39.3701;stroke-linecap:round;stroke-linejoin:round;stroke-opacity:1"
       id="g4426" />
    <g
       id="g4428" />
    <g
       style="fill:#000000;fill-opacity:1;stroke:#000000;stroke-width:0;stroke-linecap:round;stroke-linejoin:round;stroke-opacity:1"
       id="g4436">
      <path
         style="fill:#000000;fill-opacity:1;fill-rule:evenodd;stroke:#000000;stroke-width:0;stroke-linecap:round;stroke-linejoin:round;stroke-opacity:1"
         d="m 68602,42460 h -315 v -354 h 315 z"
         id="path4430" />
      <path
         style="fill:#000000;fill-opacity:1;fill-rule:evenodd;stroke:#000000;stroke-width:0;stroke-linecap:round;stroke-linejoin:round;stroke-opacity:1"
         d="m 69350,42460 h -315 v -354 h 315 z"
         id="path4432" />
      <path
         style="fill:#000000;fill-opacity:1;fill-rule:evenodd;stroke:#000000;stroke-width:0;stroke-linecap:round;stroke-linejoin:round;stroke-opacity:1"
         d="m 68976,41673 h -315 v -355 h 315 z"
         id="path4434" />
    </g>
    <g
       id="g4444">
      <path
         style="fill:#000000;fill-opacity:1;fill-rule:evenodd;stroke:#000000;stroke-width:0;stroke-linecap:round;stroke-linejoin:round;stroke-opacity:1"
         d="m 61791,42460 h -315 v -354 h 315 z"
         id="path4438" />
      <path
         style="fill:#000000;fill-opacity:1;fill-rule:evenodd;stroke:#000000;stroke-width:0;stroke-linecap:round;stroke-linejoin:round;stroke-opacity:1"
         d="m 62539,42460 h -315 v -354 h 315 z"
         id="path4440" />
      <path
         style="fill:#000000;fill-opacity:1;fill-rule:evenodd;stroke:#000000;stroke-width:0;stroke-linecap:round;stroke-linejoin:round;stroke-opacity:1"
         d="m 62165,41673 h -315 v -355 h 315 z"
         id="path4442" />
    </g>
    <g
       id="g4452">
      <path
         style="fill:#000000;fill-opacity:1;fill-rule:evenodd;stroke:#000000;stroke-width:0;stroke-linecap:round;stroke-linejoin:round;stroke-opacity:1"
         d="m 63287,42460 h -315 v -354 h 315 z"
         id="path4446" />
      <path
         style="fill:#000000;fill-opacity:1;fill-rule:evenodd;stroke:#000000;stroke-width:0;stroke-linecap:round;stroke-linejoin:round;stroke-opacity:1"
         d="m 64035,42460 h -315 v -354 h 315 z"
         id="path4448" />
      <path
         style="fill:#000000;fill-opacity:1;fill-rule:evenodd;stroke:#000000;stroke-width:0;stroke-linecap:round;stroke-linejoin:round;stroke-opacity:1"
         d="m 63661,41673 h -315 v -355 h 315 z"
         id="path4450" />
    </g>
    <g
       id="g4460">
      <path
         style="fill:#000000;fill-opacity:1;fill-rule:evenodd;stroke:#000000;stroke-width:0;stroke-linecap:round;stroke-linejoin:round;stroke-opacity:1"
         d="m 65098,39625 h -315 v -354 h 315 z"
         id="path4454" />
      <path
         style="fill:#000000;fill-opacity:1;fill-rule:evenodd;stroke:#000000;stroke-width:0;stroke-linecap:round;stroke-linejoin:round;stroke-opacity:1"
         d="m 65846,39625 h -315 v -354 h 315 z"
         id="path4456" />
      <path
         style="fill:#000000;fill-opacity:1;fill-rule:evenodd;stroke:#000000;stroke-width:0;stroke-linecap:round;stroke-linejoin:round;stroke-opacity:1"
         d="m 65472,38838 h -315 v -354 h 315 z"
         id="path4458" />
    </g>
    <g
       id="g4468">
      <path
         style="fill:#000000;fill-opacity:1;fill-rule:evenodd;stroke:#000000;stroke-width:0;stroke-linecap:round;stroke-linejoin:round;stroke-opacity:1"
         d="m 66968,38838 h -315 v -354 h 315 z"
         id="path4462" />
      <path
         style="fill:#000000;fill-opacity:1;fill-rule:evenodd;stroke:#000000;stroke-width:0;stroke-linecap:round;stroke-linejoin:round;stroke-opacity:1"
         d="m 67342,39625 h -315 v -354 h 315 z"
         id="path4464" />
      <path
         style="fill:#000000;fill-opacity:1;fill-rule:evenodd;stroke:#000000;stroke-width:0;stroke-linecap:round;stroke-linejoin:round;stroke-opacity:1"
         d="m 66594,39625 h -315 v -354 h 315 z"
         id="path4466" />
    </g>
    <g
       id="g4476">
      <path
         style="fill:#000000;fill-opacity:1;fill-rule:evenodd;stroke:#000000;stroke-width:0;stroke-linecap:round;stroke-linejoin:round;stroke-opacity:1"
         d="m 66338,43248 h -315 v -355 h 315 z"
         id="path4470" />
      <path
         style="fill:#000000;fill-opacity:1;fill-rule:evenodd;stroke:#000000;stroke-width:0;stroke-linecap:round;stroke-linejoin:round;stroke-opacity:1"
         d="m 66712,44035 h -315 v -354 h 315 z"
         id="path4472" />
      <path
         style="fill:#000000;fill-opacity:1;fill-rule:evenodd;stroke:#000000;stroke-width:0;stroke-linecap:round;stroke-linejoin:round;stroke-opacity:1"
         d="m 65964,44035 h -315 v -354 h 315 z"
         id="path4474" />
    </g>
    <g
       id="g4484">
      <path
         style="fill:#000000;fill-opacity:1;fill-rule:evenodd;stroke:#000000;stroke-width:0;stroke-linecap:round;stroke-linejoin:round;stroke-opacity:1"
         d="m 60629,41673 h -315 v -355 h 315 z"
         id="path4478" />
      <path
         style="fill:#000000;fill-opacity:1;fill-rule:evenodd;stroke:#000000;stroke-width:0;stroke-linecap:round;stroke-linejoin:round;stroke-opacity:1"
         d="m 61003,42460 h -315 v -354 h 315 z"
         id="path4480" />
      <path
         style="fill:#000000;fill-opacity:1;fill-rule:evenodd;stroke:#000000;stroke-width:0;stroke-linecap:round;stroke-linejoin:round;stroke-opacity:1"
         d="m 60255,42460 h -315 v -354 h 315 z"
         id="path4482" />
    </g>
    <g
       id="g4492">
      <path
         style="fill:#000000;fill-opacity:1;fill-rule:evenodd;stroke:#000000;stroke-width:0;stroke-linecap:round;stroke-linejoin:round;stroke-opacity:1"
         d="m 62480,38838 h -315 v -354 h 315 z"
         id="path4486" />
      <path
         style="fill:#000000;fill-opacity:1;fill-rule:evenodd;stroke:#000000;stroke-width:0;stroke-linecap:round;stroke-linejoin:round;stroke-opacity:1"
         d="m 62854,39625 h -315 v -354 h 315 z"
         id="path4488" />
      <path
         style="fill:#000000;fill-opacity:1;fill-rule:evenodd;stroke:#000000;stroke-width:0;stroke-linecap:round;stroke-linejoin:round;stroke-opacity:1"
         d="m 62106,39625 h -315 v -354 h 315 z"
         id="path4490" />
    </g>
    <g
       id="g4500">
      <path
         style="fill:#000000;fill-opacity:1;fill-rule:evenodd;stroke:#000000;stroke-width:0;stroke-linecap:round;stroke-linejoin:round;stroke-opacity:1"
         d="m 63976,38838 h -315 v -354 h 315 z"
         id="path4494" />
      <path
         style="fill:#000000;fill-opacity:1;fill-rule:evenodd;stroke:#000000;stroke-width:0;stroke-linecap:round;stroke-linejoin:round;stroke-opacity:1"
         d="m 64350,39625 h -315 v -354 h 315 z"
         id="path4496" />
      <path
         style="fill:#000000;fill-opacity:1;fill-rule:evenodd;stroke:#000000;stroke-width:0;stroke-linecap:round;stroke-linejoin:round;stroke-opacity:1"
         d="m 63602,39625 h -315 v -354 h 315 z"
         id="path4498" />
    </g>
    <g
       id="g4508">
      <path
         style="fill:#000000;fill-opacity:1;fill-rule:evenodd;stroke:#000000;stroke-width:0;stroke-linecap:round;stroke-linejoin:round;stroke-opacity:1"
         d="m 65944,41673 h -315 v -355 h 315 z"
         id="path4502" />
      <path
         style="fill:#000000;fill-opacity:1;fill-rule:evenodd;stroke:#000000;stroke-width:0;stroke-linecap:round;stroke-linejoin:round;stroke-opacity:1"
         d="m 66318,42460 h -315 v -354 h 315 z"
         id="path4504" />
      <path
         style="fill:#000000;fill-opacity:1;fill-rule:evenodd;stroke:#000000;stroke-width:0;stroke-linecap:round;stroke-linejoin:round;stroke-opacity:1"
         d="m 65570,42460 h -315 v -354 h 315 z"
         id="path4506" />
    </g>
    <g
       id="g4516">
      <path
         style="fill:#000000;fill-opacity:1;fill-rule:evenodd;stroke:#000000;stroke-width:0;stroke-linecap:round;stroke-linejoin:round;stroke-opacity:1"
         d="m 67066,42460 h -315 v -354 h 315 z"
         id="path4510" />
      <path
         style="fill:#000000;fill-opacity:1;fill-rule:evenodd;stroke:#000000;stroke-width:0;stroke-linecap:round;stroke-linejoin:round;stroke-opacity:1"
         d="m 67814,42460 h -314 v -354 h 314 z"
         id="path4512" />
      <path
         style="fill:#000000;fill-opacity:1;fill-rule:evenodd;stroke:#000000;stroke-width:0;stroke-linecap:round;stroke-linejoin:round;stroke-opacity:1"
         d="m 67440,41673 h -315 v -355 h 315 z"
         id="path4514" />
    </g>
    <g
       id="g4524">
      <path
         style="fill:#000000;fill-opacity:1;fill-rule:evenodd;stroke:#000000;stroke-width:0;stroke-linecap:round;stroke-linejoin:round;stroke-opacity:1"
         d="m 63759,44035 h -315 v -354 h 315 z"
         id="path4518" />
      <path
         style="fill:#000000;fill-opacity:1;fill-rule:evenodd;stroke:#000000;stroke-width:0;stroke-linecap:round;stroke-linejoin:round;stroke-opacity:1"
         d="m 64507,44035 h -315 v -354 h 315 z"
         id="path4520" />
      <path
         style="fill:#000000;fill-opacity:1;fill-rule:evenodd;stroke:#000000;stroke-width:0;stroke-linecap:round;stroke-linejoin:round;stroke-opacity:1"
         d="m 64133,43248 h -315 v -355 h 315 z"
         id="path4522" />
    </g>
    <g
       id="g4530">
      <path
         style="fill:#000000;fill-opacity:1;fill-rule:evenodd;stroke:#000000;stroke-width:0;stroke-linecap:round;stroke-linejoin:round;stroke-opacity:1"
         d="m 68534,43445 8,1 9,2 8,3 7,4 7,4 7,5 6,6 6,6 5,7 5,7 3,8 3,8 2,8 1,8 1,9 v 172 l -1,8 -1,9 -2,8 -3,8 -3,7 -5,8 -5,6 -6,7 -6,5 -7,5 -7,5 -7,3 -8,3 -9,2 -8,1 -8,1 h -202 l -9,-1 -8,-1 -8,-2 -8,-3 -8,-3 -7,-5 -7,-5 -6,-5 -6,-7 -5,-6 -4,-8 -4,-7 -3,-8 -2,-8 -1,-9 v -8 -172 -9 l 1,-8 2,-8 3,-8 4,-8 4,-7 5,-7 6,-6 6,-6 7,-5 7,-4 8,-4 8,-3 8,-2 8,-1 9,-1 h 202 z"
         id="path4526" />
      <path
         style="fill:#000000;fill-opacity:1;fill-rule:evenodd;stroke:#000000;stroke-width:0;stroke-linecap:round;stroke-linejoin:round;stroke-opacity:1"
         d="m 68534,42825 8,1 9,2 8,3 7,3 7,5 7,5 6,6 6,6 5,7 5,7 3,7 3,8 2,9 1,8 1,8 v 173 l -1,8 -1,8 -2,9 -3,8 -3,7 -5,8 -5,6 -6,7 -6,5 -7,5 -7,5 -7,3 -8,3 -9,2 -8,1 -8,1 h -202 l -9,-1 -8,-1 -8,-2 -8,-3 -8,-3 -7,-5 -7,-5 -6,-5 -6,-7 -5,-6 -4,-8 -4,-7 -3,-8 -2,-9 -1,-8 v -8 -173 -8 l 1,-8 2,-9 3,-8 4,-7 4,-7 5,-7 6,-6 6,-6 7,-5 7,-5 8,-3 8,-3 8,-2 8,-1 9,-1 h 202 z"
         id="path4528" />
    </g>
    <g
       id="g4536">
      <path
         style="fill:#000000;fill-opacity:1;fill-rule:evenodd;stroke:#000000;stroke-width:0;stroke-linecap:round;stroke-linejoin:round;stroke-opacity:1"
         d="m 61723,43524 8,1 9,2 8,3 7,3 7,5 7,5 6,5 6,7 5,6 5,8 3,7 3,8 2,8 1,9 1,8 v 172 l -1,9 -1,8 -2,8 -3,8 -3,8 -5,7 -5,7 -6,6 -6,6 -7,5 -7,4 -7,4 -8,3 -9,2 -8,1 -8,1 h -202 l -9,-1 -8,-1 -8,-2 -8,-3 -8,-4 -7,-4 -7,-5 -6,-6 -6,-6 -5,-7 -4,-7 -4,-8 -3,-8 -2,-8 -1,-8 v -9 -172 -8 l 1,-9 2,-8 3,-8 4,-7 4,-8 5,-6 6,-7 6,-5 7,-5 7,-5 8,-3 8,-3 8,-2 8,-1 9,-1 h 202 z"
         id="path4532" />
      <path
         style="fill:#000000;fill-opacity:1;fill-rule:evenodd;stroke:#000000;stroke-width:0;stroke-linecap:round;stroke-linejoin:round;stroke-opacity:1"
         d="m 61723,42903 8,2 9,2 8,3 7,3 7,5 7,5 6,5 6,7 5,6 5,8 3,7 3,8 2,8 1,9 1,8 v 172 l -1,9 -1,8 -2,8 -3,8 -3,8 -5,7 -5,7 -6,6 -6,6 -7,5 -7,4 -7,4 -8,3 -9,2 -8,1 -8,1 h -202 l -9,-1 -8,-1 -8,-2 -8,-3 -8,-4 -7,-4 -7,-5 -6,-6 -6,-6 -5,-7 -4,-7 -4,-8 -3,-8 -2,-8 -1,-8 v -9 -172 -8 l 1,-9 2,-8 3,-8 4,-7 4,-8 5,-6 6,-7 6,-5 7,-5 7,-5 8,-3 8,-3 8,-2 8,-2 h 9 202 z"
         id="path4534" />
    </g>
    <g
       id="g4542">
      <path
         style="fill:#000000;fill-opacity:1;fill-rule:evenodd;stroke:#000000;stroke-width:0;stroke-linecap:round;stroke-linejoin:round;stroke-opacity:1"
         d="m 62983,43524 8,1 8,2 8,3 8,3 7,5 7,5 6,5 6,7 5,6 4,8 4,7 3,8 2,8 1,9 1,8 v 172 l -1,9 -1,8 -2,8 -3,8 -4,8 -4,7 -5,7 -6,6 -6,6 -7,5 -7,4 -8,4 -8,3 -8,2 -8,1 -9,1 h -201 l -9,-1 -8,-1 -8,-2 -8,-3 -8,-4 -7,-4 -7,-5 -6,-6 -6,-6 -5,-7 -4,-7 -4,-8 -3,-8 -2,-8 -1,-8 v -9 -172 -8 l 1,-9 2,-8 3,-8 4,-7 4,-8 5,-6 6,-7 6,-5 7,-5 7,-5 8,-3 8,-3 8,-2 8,-1 9,-1 h 201 z"
         id="path4538" />
      <path
         style="fill:#000000;fill-opacity:1;fill-rule:evenodd;stroke:#000000;stroke-width:0;stroke-linecap:round;stroke-linejoin:round;stroke-opacity:1"
         d="m 62983,42903 8,2 8,2 8,3 8,3 7,5 7,5 6,5 6,7 5,6 4,8 4,7 3,8 2,8 1,9 1,8 v 172 l -1,9 -1,8 -2,8 -3,8 -4,8 -4,7 -5,7 -6,6 -6,6 -7,5 -7,4 -8,4 -8,3 -8,2 -8,1 -9,1 h -201 l -9,-1 -8,-1 -8,-2 -8,-3 -8,-4 -7,-4 -7,-5 -6,-6 -6,-6 -5,-7 -4,-7 -4,-8 -3,-8 -2,-8 -1,-8 v -9 -172 -8 l 1,-9 2,-8 3,-8 4,-7 4,-8 5,-6 6,-7 6,-5 7,-5 7,-5 8,-3 8,-3 8,-2 8,-2 h 9 201 z"
         id="path4540" />
    </g>
    <g
       id="g4548">
      <path
         style="fill:#000000;fill-opacity:1;fill-rule:evenodd;stroke:#000000;stroke-width:0;stroke-linecap:round;stroke-linejoin:round;stroke-opacity:1"
         d="m 65030,40531 8,2 9,2 8,3 7,3 7,5 7,5 7,5 5,6 5,7 5,8 3,7 3,8 2,8 1,9 1,8 v 172 l -1,9 -1,8 -2,8 -3,8 -3,8 -5,7 -5,7 -5,6 -7,6 -7,5 -7,4 -7,4 -8,3 -9,2 -8,1 h -8 -202 -9 l -8,-1 -8,-2 -8,-3 -8,-4 -7,-4 -7,-5 -6,-6 -6,-6 -5,-7 -4,-7 -4,-8 -3,-8 -2,-8 -1,-8 v -9 -172 -8 l 1,-9 2,-8 3,-8 4,-7 4,-8 5,-7 6,-6 6,-5 7,-5 7,-5 8,-3 8,-3 8,-2 8,-2 h 9 202 z"
         id="path4544" />
      <path
         style="fill:#000000;fill-opacity:1;fill-rule:evenodd;stroke:#000000;stroke-width:0;stroke-linecap:round;stroke-linejoin:round;stroke-opacity:1"
         d="m 65030,39911 8,2 9,2 8,2 7,4 7,4 7,5 7,6 5,6 5,7 5,7 3,8 3,8 2,8 1,9 1,8 v 172 l -1,9 -1,8 -2,8 -3,8 -3,8 -5,7 -5,7 -5,6 -7,6 -7,5 -7,4 -7,4 -8,3 -9,2 -8,1 h -8 -202 -9 l -8,-1 -8,-2 -8,-3 -8,-4 -7,-4 -7,-5 -6,-6 -6,-6 -5,-7 -4,-7 -4,-8 -3,-8 -2,-8 -1,-8 v -9 -172 -8 l 1,-9 2,-8 3,-8 4,-8 4,-7 5,-7 6,-6 6,-6 7,-5 7,-4 8,-4 8,-2 8,-2 8,-2 h 9 202 z"
         id="path4546" />
    </g>
    <g
       id="g4554">
      <path
         style="fill:#000000;fill-opacity:1;fill-rule:evenodd;stroke:#000000;stroke-width:0;stroke-linecap:round;stroke-linejoin:round;stroke-opacity:1"
         d="m 66526,40531 9,2 8,2 8,3 7,3 8,5 6,5 7,5 5,6 5,7 5,8 3,7 3,8 2,8 1,9 1,8 v 172 l -1,9 -1,8 -2,8 -3,8 -3,8 -5,7 -5,7 -5,6 -7,6 -6,5 -8,4 -7,4 -8,3 -8,2 -9,1 h -8 -202 -9 l -8,-1 -8,-2 -8,-3 -8,-4 -7,-4 -7,-5 -6,-6 -6,-6 -5,-7 -4,-7 -4,-8 -2,-8 -3,-8 -1,-8 v -9 -172 -8 l 1,-9 3,-8 2,-8 4,-7 4,-8 5,-7 6,-6 6,-5 7,-5 7,-5 8,-3 8,-3 8,-2 8,-2 h 9 202 z"
         id="path4550" />
      <path
         style="fill:#000000;fill-opacity:1;fill-rule:evenodd;stroke:#000000;stroke-width:0;stroke-linecap:round;stroke-linejoin:round;stroke-opacity:1"
         d="m 66526,39911 9,2 8,2 8,2 7,4 8,4 6,5 7,6 5,6 5,7 5,7 3,8 3,8 2,8 1,9 1,8 v 172 l -1,9 -1,8 -2,8 -3,8 -3,8 -5,7 -5,7 -5,6 -7,6 -6,5 -8,4 -7,4 -8,3 -8,2 -9,1 h -8 -202 -9 l -8,-1 -8,-2 -8,-3 -8,-4 -7,-4 -7,-5 -6,-6 -6,-6 -5,-7 -4,-7 -4,-8 -2,-8 -3,-8 -1,-8 v -9 -172 -8 l 1,-9 3,-8 2,-8 4,-8 4,-7 5,-7 6,-6 6,-6 7,-5 7,-4 8,-4 8,-2 8,-2 8,-2 h 9 202 z"
         id="path4552" />
    </g>
    <g
       id="g4560">
      <path
         style="fill:#000000;fill-opacity:1;fill-rule:evenodd;stroke:#000000;stroke-width:0;stroke-linecap:round;stroke-linejoin:round;stroke-opacity:1"
         d="m 66511,44380 9,1 8,2 8,3 8,4 7,4 7,5 6,6 6,6 5,7 4,7 4,8 2,8 2,8 2,8 v 9 201 9 l -2,8 -2,8 -2,8 -4,8 -4,7 -5,7 -6,6 -6,6 -7,5 -7,4 -8,4 -8,3 -8,2 -9,1 h -8 -172 -9 l -8,-1 -8,-2 -8,-3 -8,-4 -7,-4 -7,-5 -6,-6 -6,-6 -5,-7 -4,-7 -4,-8 -3,-8 -2,-8 -1,-8 v -9 -201 -9 l 1,-8 2,-8 3,-8 4,-8 4,-7 5,-7 6,-6 6,-6 7,-5 7,-4 8,-4 8,-3 8,-2 8,-1 9,-1 h 172 z"
         id="path4556" />
      <path
         style="fill:#000000;fill-opacity:1;fill-rule:evenodd;stroke:#000000;stroke-width:0;stroke-linecap:round;stroke-linejoin:round;stroke-opacity:1"
         d="m 65891,44380 9,1 8,2 8,3 7,4 8,4 7,5 6,6 5,6 5,7 5,7 3,8 3,8 2,8 2,8 v 9 201 9 l -2,8 -2,8 -3,8 -3,8 -5,7 -5,7 -5,6 -6,6 -7,5 -8,4 -7,4 -8,3 -8,2 -9,1 h -8 -172 -9 l -8,-1 -8,-2 -8,-3 -8,-4 -7,-4 -7,-5 -6,-6 -6,-6 -5,-7 -4,-7 -4,-8 -3,-8 -2,-8 -1,-8 v -9 -201 -9 l 1,-8 2,-8 3,-8 4,-8 4,-7 5,-7 6,-6 6,-6 7,-5 7,-4 8,-4 8,-3 8,-2 8,-1 9,-1 h 172 z"
         id="path4558" />
    </g>
    <g
       id="g4566">
      <path
         style="fill:#000000;fill-opacity:1;fill-rule:evenodd;stroke:#000000;stroke-width:0;stroke-linecap:round;stroke-linejoin:round;stroke-opacity:1"
         d="m 60188,42903 8,2 8,2 8,3 8,3 7,5 7,5 6,5 6,7 5,6 4,8 4,7 3,8 2,8 1,9 v 8 172 9 l -1,8 -2,8 -3,8 -4,8 -4,7 -5,7 -6,6 -6,6 -7,5 -7,4 -8,4 -8,3 -8,2 -8,1 -9,1 h -202 l -8,-1 -8,-1 -9,-2 -8,-3 -7,-4 -7,-4 -7,-5 -7,-6 -5,-6 -5,-7 -5,-7 -3,-8 -3,-8 -2,-8 -1,-8 -1,-9 v -172 l 1,-8 1,-9 2,-8 3,-8 3,-7 5,-8 5,-6 5,-7 7,-5 7,-5 7,-5 7,-3 8,-3 9,-2 8,-2 h 8 202 z"
         id="path4562" />
      <path
         style="fill:#000000;fill-opacity:1;fill-rule:evenodd;stroke:#000000;stroke-width:0;stroke-linecap:round;stroke-linejoin:round;stroke-opacity:1"
         d="m 60188,43524 8,1 8,2 8,3 8,3 7,5 7,5 6,5 6,7 5,6 4,8 4,7 3,8 2,8 1,9 v 8 172 9 l -1,8 -2,8 -3,8 -4,8 -4,7 -5,7 -6,6 -6,6 -7,5 -7,4 -8,4 -8,3 -8,2 -8,1 -9,1 h -202 l -8,-1 -8,-1 -9,-2 -8,-3 -7,-4 -7,-4 -7,-5 -7,-6 -5,-6 -5,-7 -5,-7 -3,-8 -3,-8 -2,-8 -1,-8 -1,-9 v -172 l 1,-8 1,-9 2,-8 3,-8 3,-7 5,-8 5,-6 5,-7 7,-5 7,-5 7,-5 7,-3 8,-3 9,-2 8,-1 8,-1 h 202 z"
         id="path4564" />
    </g>
    <g
       id="g4572">
      <path
         style="fill:#000000;fill-opacity:1;fill-rule:evenodd;stroke:#000000;stroke-width:0;stroke-linecap:round;stroke-linejoin:round;stroke-opacity:1"
         d="m 62038,40536 8,2 9,2 7,2 8,4 7,4 7,5 6,6 6,6 5,7 4,7 4,8 3,8 2,8 1,9 1,8 v 172 l -1,9 -1,8 -2,8 -3,8 -4,8 -4,7 -5,7 -6,6 -6,6 -7,5 -7,4 -8,4 -7,3 -9,2 -8,1 h -8 -202 -9 l -8,-1 -8,-2 -8,-3 -8,-4 -7,-4 -7,-5 -6,-6 -6,-6 -5,-7 -4,-7 -4,-8 -3,-8 -2,-8 -1,-8 v -9 -172 -8 l 1,-9 2,-8 3,-8 4,-8 4,-7 5,-7 6,-6 6,-6 7,-5 7,-4 8,-4 8,-2 8,-2 8,-2 h 9 202 z"
         id="path4568" />
      <path
         style="fill:#000000;fill-opacity:1;fill-rule:evenodd;stroke:#000000;stroke-width:0;stroke-linecap:round;stroke-linejoin:round;stroke-opacity:1"
         d="m 62038,39916 8,1 9,3 7,2 8,4 7,4 7,5 6,6 6,6 5,7 4,7 4,8 3,8 2,8 1,9 1,8 v 172 l -1,9 -1,8 -2,8 -3,8 -4,8 -4,7 -5,7 -6,6 -6,6 -7,5 -7,4 -8,4 -7,3 -9,2 -8,1 h -8 -202 -9 l -8,-1 -8,-2 -8,-3 -8,-4 -7,-4 -7,-5 -6,-6 -6,-6 -5,-7 -4,-7 -4,-8 -3,-8 -2,-8 -1,-8 v -9 -172 -8 l 1,-9 2,-8 3,-8 4,-8 4,-7 5,-7 6,-6 6,-6 7,-5 7,-4 8,-4 8,-2 8,-3 8,-1 h 9 202 z"
         id="path4570" />
    </g>
    <g
       id="g4578">
      <path
         style="fill:#000000;fill-opacity:1;fill-rule:evenodd;stroke:#000000;stroke-width:0;stroke-linecap:round;stroke-linejoin:round;stroke-opacity:1"
         d="m 64189,39931 8,1 8,2 8,3 8,4 7,4 7,5 6,6 6,6 5,7 4,7 4,8 3,8 2,8 1,8 v 9 201 9 l -1,8 -2,8 -3,8 -4,8 -4,7 -5,7 -6,6 -6,6 -7,5 -7,4 -8,4 -8,3 -8,2 -8,1 -9,1 h -172 l -9,-1 -8,-1 -8,-2 -8,-3 -8,-4 -7,-4 -7,-5 -6,-6 -6,-6 -5,-7 -4,-7 -4,-8 -3,-8 -2,-8 -1,-8 v -9 -201 -9 l 1,-8 2,-8 3,-8 4,-8 4,-7 5,-7 6,-6 6,-6 7,-5 7,-4 8,-4 8,-3 8,-2 8,-1 h 9 172 z"
         id="path4574" />
      <path
         style="fill:#000000;fill-opacity:1;fill-rule:evenodd;stroke:#000000;stroke-width:0;stroke-linecap:round;stroke-linejoin:round;stroke-opacity:1"
         d="m 63568,39931 9,1 8,2 8,3 8,4 7,4 7,5 6,6 6,6 5,7 4,7 4,8 2,8 2,8 2,8 v 9 201 9 l -2,8 -2,8 -2,8 -4,8 -4,7 -5,7 -6,6 -6,6 -7,5 -7,4 -8,4 -8,3 -8,2 -9,1 -8,1 h -172 l -9,-1 -8,-1 -8,-2 -8,-3 -8,-4 -7,-4 -7,-5 -6,-6 -6,-6 -5,-7 -4,-7 -4,-8 -3,-8 -2,-8 -1,-8 v -9 -201 -9 l 1,-8 2,-8 3,-8 4,-8 4,-7 5,-7 6,-6 6,-6 7,-5 7,-4 8,-4 8,-3 8,-2 8,-1 h 9 172 z"
         id="path4576" />
    </g>
    <g
       id="g4584">
      <path
         style="fill:#000000;fill-opacity:1;fill-rule:evenodd;stroke:#000000;stroke-width:0;stroke-linecap:round;stroke-linejoin:round;stroke-opacity:1"
         d="m 65227,43528 8,2 8,2 8,3 8,3 7,5 7,5 6,5 6,7 5,6 4,8 4,7 3,8 2,8 1,9 1,8 v 172 l -1,9 -1,8 -2,8 -3,8 -4,8 -4,7 -5,7 -6,6 -6,6 -7,5 -7,4 -8,4 -8,3 -8,2 -8,1 -9,1 h -201 l -9,-1 -8,-1 -8,-2 -8,-3 -8,-4 -7,-4 -7,-5 -6,-6 -6,-6 -5,-7 -4,-7 -4,-8 -3,-8 -2,-8 -1,-8 v -9 -172 -8 l 1,-9 2,-8 3,-8 4,-7 4,-8 5,-6 6,-7 6,-5 7,-5 7,-5 8,-3 8,-3 8,-2 8,-2 h 9 201 z"
         id="path4580" />
      <path
         style="fill:#000000;fill-opacity:1;fill-rule:evenodd;stroke:#000000;stroke-width:0;stroke-linecap:round;stroke-linejoin:round;stroke-opacity:1"
         d="m 65227,42908 8,2 8,2 8,3 8,3 7,4 7,6 6,5 6,6 5,7 4,7 4,8 3,8 2,8 1,9 1,8 v 172 l -1,9 -1,8 -2,8 -3,8 -4,8 -4,7 -5,7 -6,6 -6,6 -7,5 -7,4 -8,4 -8,3 -8,2 -8,1 h -9 -201 -9 l -8,-1 -8,-2 -8,-3 -8,-4 -7,-4 -7,-5 -6,-6 -6,-6 -5,-7 -4,-7 -4,-8 -3,-8 -2,-8 -1,-8 v -9 -172 -8 l 1,-9 2,-8 3,-8 4,-8 4,-7 5,-7 6,-6 6,-5 7,-6 7,-4 8,-3 8,-3 8,-2 8,-2 h 9 201 z"
         id="path4582" />
    </g>
    <g
       id="g4590">
      <path
         style="fill:#000000;fill-opacity:1;fill-rule:evenodd;stroke:#000000;stroke-width:0;stroke-linecap:round;stroke-linejoin:round;stroke-opacity:1"
         d="m 67392,43524 9,1 8,2 8,3 7,3 8,5 6,5 7,5 5,7 5,6 5,8 3,7 3,8 2,8 2,9 v 8 172 9 l -2,8 -2,8 -3,8 -3,8 -5,7 -5,7 -5,6 -7,6 -6,5 -8,4 -7,4 -8,3 -8,2 -9,1 -8,1 h -202 l -8,-1 -9,-1 -8,-2 -8,-3 -8,-4 -7,-4 -7,-5 -6,-6 -5,-6 -6,-7 -4,-7 -3,-8 -3,-8 -2,-8 -2,-8 v -9 -172 -8 l 2,-9 2,-8 3,-8 3,-7 4,-8 6,-6 5,-7 6,-5 7,-5 7,-5 8,-3 8,-3 8,-2 9,-1 8,-1 h 202 z"
         id="path4586" />
      <path
         style="fill:#000000;fill-opacity:1;fill-rule:evenodd;stroke:#000000;stroke-width:0;stroke-linecap:round;stroke-linejoin:round;stroke-opacity:1"
         d="m 67392,42903 9,2 8,2 8,3 7,3 8,5 6,5 7,5 5,7 5,6 5,8 3,7 3,8 2,8 2,9 v 8 172 9 l -2,8 -2,8 -3,8 -3,8 -5,7 -5,7 -5,6 -7,6 -6,5 -8,4 -7,4 -8,3 -8,2 -9,1 -8,1 h -202 l -8,-1 -9,-1 -8,-2 -8,-3 -8,-4 -7,-4 -7,-5 -6,-6 -5,-6 -6,-7 -4,-7 -3,-8 -3,-8 -2,-8 -2,-8 v -9 -172 -8 l 2,-9 2,-8 3,-8 3,-7 4,-8 6,-6 5,-7 6,-5 7,-5 7,-5 8,-3 8,-3 8,-2 9,-2 h 8 202 z"
         id="path4588" />
    </g>
    <g
       id="g4596">
      <path
         style="fill:#000000;fill-opacity:1;fill-rule:evenodd;stroke:#000000;stroke-width:0;stroke-linecap:round;stroke-linejoin:round;stroke-opacity:1"
         d="m 63682,44380 8,1 8,2 8,3 8,4 7,4 7,5 6,6 6,6 5,7 4,7 4,8 3,8 2,8 1,8 v 9 201 9 l -1,8 -2,8 -3,8 -4,8 -4,7 -5,7 -6,6 -6,6 -7,5 -7,4 -8,4 -8,3 -8,2 -8,1 h -9 -172 -8 l -9,-1 -8,-2 -8,-3 -8,-4 -7,-4 -7,-5 -6,-6 -6,-6 -5,-7 -4,-7 -4,-8 -2,-8 -2,-8 -2,-8 v -9 -201 -9 l 2,-8 2,-8 2,-8 4,-8 4,-7 5,-7 6,-6 6,-6 7,-5 7,-4 8,-4 8,-3 8,-2 9,-1 8,-1 h 172 z"
         id="path4592" />
      <path
         style="fill:#000000;fill-opacity:1;fill-rule:evenodd;stroke:#000000;stroke-width:0;stroke-linecap:round;stroke-linejoin:round;stroke-opacity:1"
         d="m 64302,44380 8,1 8,2 8,3 8,4 7,4 7,5 6,6 6,6 5,7 4,7 4,8 3,8 2,8 1,8 v 9 201 9 l -1,8 -2,8 -3,8 -4,8 -4,7 -5,7 -6,6 -6,6 -7,5 -7,4 -8,4 -8,3 -8,2 -8,1 h -9 -172 -8 l -9,-1 -8,-2 -8,-3 -8,-4 -7,-4 -7,-5 -6,-6 -6,-6 -5,-7 -4,-7 -4,-8 -2,-8 -2,-8 -2,-8 v -9 -201 -9 l 2,-8 2,-8 2,-8 4,-8 4,-7 5,-7 6,-6 6,-6 7,-5 7,-4 8,-4 8,-3 8,-2 9,-1 8,-1 h 172 z"
         id="path4594" />
    </g>
    <g
       id="g4602">
      <path
         style="fill:#000000;fill-opacity:1;fill-rule:evenodd;stroke:#000000;stroke-width:0;stroke-linecap:round;stroke-linejoin:round;stroke-opacity:1"
         d="m 62668,36289 8,2 8,2 8,2 8,4 7,4 7,5 6,6 6,6 5,7 4,7 4,8 3,8 2,8 1,9 1,8 v 172 l -1,9 -1,8 -2,8 -3,8 -4,8 -4,7 -5,7 -6,6 -6,6 -7,5 -7,4 -8,4 -8,3 -8,2 -8,1 h -9 -201 -9 l -8,-1 -8,-2 -8,-3 -8,-4 -7,-4 -7,-5 -6,-6 -6,-6 -5,-7 -4,-7 -4,-8 -3,-8 -2,-8 -1,-8 v -9 -172 -8 l 1,-9 2,-8 3,-8 4,-8 4,-7 5,-7 6,-6 6,-6 7,-5 7,-4 8,-4 8,-2 8,-2 8,-2 h 9 201 z"
         id="path4598" />
      <path
         style="fill:#000000;fill-opacity:1;fill-rule:evenodd;stroke:#000000;stroke-width:0;stroke-linecap:round;stroke-linejoin:round;stroke-opacity:1"
         d="m 62668,36909 8,2 8,2 8,3 8,3 7,4 7,5 6,6 6,6 5,7 4,7 4,8 3,8 2,8 1,9 1,8 v 172 l -1,9 -1,8 -2,8 -3,8 -4,8 -4,7 -5,7 -6,6 -6,6 -7,5 -7,4 -8,4 -8,3 -8,2 -8,1 h -9 -201 -9 l -8,-1 -8,-2 -8,-3 -8,-4 -7,-4 -7,-5 -6,-6 -6,-6 -5,-7 -4,-7 -4,-8 -3,-8 -2,-8 -1,-8 v -9 -172 -8 l 1,-9 2,-8 3,-8 4,-8 4,-7 5,-7 6,-6 6,-6 7,-5 7,-4 8,-3 8,-3 8,-2 8,-2 h 9 201 z"
         id="path4600" />
    </g>
    <g
       id="g4608">
      <path
         style="fill:#000000;fill-opacity:1;fill-rule:evenodd;stroke:#000000;stroke-width:0;stroke-linecap:round;stroke-linejoin:round;stroke-opacity:1"
         d="m 63377,35177 8,1 8,2 8,3 8,4 7,4 7,5 6,6 6,6 5,7 4,7 4,8 3,8 2,8 1,8 v 9 172 8 l -1,9 -2,8 -3,8 -4,8 -4,7 -5,7 -6,6 -6,6 -7,5 -7,4 -8,4 -8,2 -8,2 -8,2 h -9 -202 -8 l -8,-2 -9,-2 -8,-2 -7,-4 -8,-4 -6,-5 -7,-6 -5,-6 -5,-7 -5,-7 -3,-8 -3,-8 -2,-8 -1,-9 -1,-8 v -172 l 1,-9 1,-8 2,-8 3,-8 3,-8 5,-7 5,-7 5,-6 7,-6 6,-5 8,-4 7,-4 8,-3 9,-2 8,-1 h 8 202 z"
         id="path4604" />
      <path
         style="fill:#000000;fill-opacity:1;fill-rule:evenodd;stroke:#000000;stroke-width:0;stroke-linecap:round;stroke-linejoin:round;stroke-opacity:1"
         d="m 63377,34557 8,1 8,2 8,3 8,4 7,4 7,5 6,6 6,6 5,7 4,7 4,8 3,8 2,8 1,8 v 9 172 8 l -1,9 -2,8 -3,8 -4,8 -4,7 -5,7 -6,6 -6,6 -7,5 -7,4 -8,4 -8,2 -8,2 -8,2 h -9 -202 -8 l -8,-2 -9,-2 -8,-2 -7,-4 -8,-4 -6,-5 -7,-6 -5,-6 -5,-7 -5,-7 -3,-8 -3,-8 -2,-8 -1,-9 -1,-8 v -172 l 1,-9 1,-8 2,-8 3,-8 3,-8 5,-7 5,-7 5,-6 7,-6 6,-5 8,-4 7,-4 8,-3 9,-2 8,-1 h 8 202 z"
         id="path4606" />
    </g>
    <g
       id="g4614">
      <path
         style="fill:#000000;fill-opacity:1;fill-rule:evenodd;stroke:#000000;stroke-width:0;stroke-linecap:round;stroke-linejoin:round;stroke-opacity:1"
         d="m 63140,33292 9,1 8,3 8,2 7,4 8,4 7,5 6,6 5,6 5,7 5,7 3,8 3,8 2,8 2,9 v 8 172 9 l -2,8 -2,8 -3,8 -3,8 -5,7 -5,7 -5,6 -6,6 -7,5 -8,4 -7,4 -8,3 -8,2 -9,1 h -8 -202 -8 l -9,-1 -8,-2 -8,-3 -7,-4 -8,-4 -7,-5 -6,-6 -5,-6 -5,-7 -5,-7 -3,-8 -3,-8 -2,-8 -2,-8 v -9 -172 -8 l 2,-9 2,-8 3,-8 3,-8 5,-7 5,-7 5,-6 6,-6 7,-5 8,-4 7,-4 8,-2 8,-3 9,-1 h 8 202 z"
         id="path4610" />
      <path
         style="fill:#000000;fill-opacity:1;fill-rule:evenodd;stroke:#000000;stroke-width:0;stroke-linecap:round;stroke-linejoin:round;stroke-opacity:1"
         d="m 63140,33912 9,2 8,2 8,2 7,4 8,4 7,5 6,6 5,6 5,7 5,7 3,8 3,8 2,8 2,9 v 8 172 9 l -2,8 -2,8 -3,8 -3,8 -5,7 -5,7 -5,6 -6,6 -7,5 -8,4 -7,4 -8,3 -8,2 -9,1 h -8 -202 -8 l -9,-1 -8,-2 -8,-3 -7,-4 -8,-4 -7,-5 -6,-6 -5,-6 -5,-7 -5,-7 -3,-8 -3,-8 -2,-8 -2,-8 v -9 -172 -8 l 2,-9 2,-8 3,-8 3,-8 5,-7 5,-7 5,-6 6,-6 7,-5 8,-4 7,-4 8,-2 8,-2 9,-2 h 8 202 z"
         id="path4612" />
    </g>
    <g
       id="g4620">
      <path
         style="fill:#000000;fill-opacity:1;fill-rule:evenodd;stroke:#000000;stroke-width:0;stroke-linecap:round;stroke-linejoin:round;stroke-opacity:1"
         d="m 63770,32741 9,1 8,2 8,3 7,4 8,4 6,5 7,6 5,6 5,7 5,7 3,8 3,8 2,8 2,8 v 9 172 8 l -2,9 -2,8 -3,8 -3,8 -5,7 -5,7 -5,6 -7,6 -6,5 -8,4 -7,4 -8,2 -8,2 -9,2 h -8 -202 -8 l -9,-2 -8,-2 -8,-2 -8,-4 -7,-4 -7,-5 -6,-6 -6,-6 -5,-7 -4,-7 -4,-8 -2,-8 -2,-8 -2,-9 v -8 -172 -9 l 2,-8 2,-8 2,-8 4,-8 4,-7 5,-7 6,-6 6,-6 7,-5 7,-4 8,-4 8,-3 8,-2 9,-1 h 8 202 z"
         id="path4616" />
      <path
         style="fill:#000000;fill-opacity:1;fill-rule:evenodd;stroke:#000000;stroke-width:0;stroke-linecap:round;stroke-linejoin:round;stroke-opacity:1"
         d="m 63770,33361 9,1 8,2 8,3 7,4 8,4 6,5 7,6 5,6 5,7 5,7 3,8 3,8 2,8 2,8 v 9 172 9 l -2,8 -2,8 -3,8 -3,8 -5,7 -5,7 -5,6 -7,6 -6,5 -8,4 -7,4 -8,3 -8,2 -9,1 h -8 -202 -8 l -9,-1 -8,-2 -8,-3 -8,-4 -7,-4 -7,-5 -6,-6 -6,-6 -5,-7 -4,-7 -4,-8 -2,-8 -2,-8 -2,-8 v -9 -172 -9 l 2,-8 2,-8 2,-8 4,-8 4,-7 5,-7 6,-6 6,-6 7,-5 7,-4 8,-4 8,-3 8,-2 9,-1 h 8 202 z"
         id="path4618" />
    </g>
    <g
       id="g4626">
      <path
         style="fill:#000000;fill-opacity:1;fill-rule:evenodd;stroke:#000000;stroke-width:0;stroke-linecap:round;stroke-linejoin:round;stroke-opacity:1"
         d="m 64400,32505 9,1 8,2 8,3 7,4 8,4 6,5 7,6 5,6 5,7 5,7 3,8 3,8 2,8 1,8 1,9 v 172 l -1,8 -1,9 -2,8 -3,8 -3,7 -5,8 -5,6 -5,7 -7,5 -6,5 -8,5 -7,3 -8,3 -8,2 -9,1 -8,1 h -202 l -8,-1 -9,-1 -8,-2 -8,-3 -8,-3 -7,-5 -7,-5 -6,-5 -6,-7 -5,-6 -4,-8 -4,-7 -2,-8 -3,-8 -1,-9 v -8 -172 -9 l 1,-8 3,-8 2,-8 4,-8 4,-7 5,-7 6,-6 6,-6 7,-5 7,-4 8,-4 8,-3 8,-2 9,-1 8,-1 h 202 z"
         id="path4622" />
      <path
         style="fill:#000000;fill-opacity:1;fill-rule:evenodd;stroke:#000000;stroke-width:0;stroke-linecap:round;stroke-linejoin:round;stroke-opacity:1"
         d="m 64400,33125 9,1 8,2 8,3 7,4 8,4 6,5 7,6 5,6 5,7 5,7 3,8 3,8 2,8 1,8 1,9 v 172 l -1,8 -1,9 -2,8 -3,8 -3,7 -5,8 -5,7 -5,6 -7,5 -6,5 -8,5 -7,3 -8,3 -8,2 -9,2 h -8 -202 -8 l -9,-2 -8,-2 -8,-3 -8,-3 -7,-5 -7,-5 -6,-5 -6,-6 -5,-7 -4,-8 -4,-7 -2,-8 -3,-8 -1,-9 v -8 -172 -9 l 1,-8 3,-8 2,-8 4,-8 4,-7 5,-7 6,-6 6,-6 7,-5 7,-4 8,-4 8,-3 8,-2 9,-1 h 8 202 z"
         id="path4624" />
    </g>
    <g
       id="g4632">
      <path
         style="fill:#000000;fill-opacity:1;fill-rule:evenodd;stroke:#000000;stroke-width:0;stroke-linecap:round;stroke-linejoin:round;stroke-opacity:1"
         d="m 65030,32505 8,1 9,2 8,3 7,4 7,4 7,5 7,6 5,6 5,7 5,7 3,8 3,8 2,8 1,8 1,9 v 172 l -1,8 -1,9 -2,8 -3,8 -3,7 -5,8 -5,6 -5,7 -7,5 -7,5 -7,5 -7,3 -8,3 -9,2 -8,1 -8,1 h -202 l -9,-1 -8,-1 -8,-2 -8,-3 -8,-3 -7,-5 -7,-5 -6,-5 -6,-7 -5,-6 -4,-8 -4,-7 -3,-8 -2,-8 -1,-9 v -8 -172 -9 l 1,-8 2,-8 3,-8 4,-8 4,-7 5,-7 6,-6 6,-6 7,-5 7,-4 8,-4 8,-3 8,-2 8,-1 9,-1 h 202 z"
         id="path4628" />
      <path
         style="fill:#000000;fill-opacity:1;fill-rule:evenodd;stroke:#000000;stroke-width:0;stroke-linecap:round;stroke-linejoin:round;stroke-opacity:1"
         d="m 65030,33125 8,1 9,2 8,3 7,4 7,4 7,5 7,6 5,6 5,7 5,7 3,8 3,8 2,8 1,8 1,9 v 172 l -1,8 -1,9 -2,8 -3,8 -3,7 -5,8 -5,7 -5,6 -7,5 -7,5 -7,5 -7,3 -8,3 -9,2 -8,2 h -8 -202 -9 l -8,-2 -8,-2 -8,-3 -8,-3 -7,-5 -7,-5 -6,-5 -6,-6 -5,-7 -4,-8 -4,-7 -3,-8 -2,-8 -1,-9 v -8 -172 -9 l 1,-8 2,-8 3,-8 4,-8 4,-7 5,-7 6,-6 6,-6 7,-5 7,-4 8,-4 8,-3 8,-2 8,-1 h 9 202 z"
         id="path4630" />
    </g>
    <g
       id="g4638">
      <path
         style="fill:#000000;fill-opacity:1;fill-rule:evenodd;stroke:#000000;stroke-width:0;stroke-linecap:round;stroke-linejoin:round;stroke-opacity:1"
         d="m 65660,32741 8,1 9,2 8,3 7,4 7,4 7,5 6,6 6,6 5,7 5,7 3,8 3,8 2,8 1,8 1,9 v 172 l -1,8 -1,9 -2,8 -3,8 -3,8 -5,7 -5,7 -6,6 -6,6 -7,5 -7,4 -7,4 -8,2 -9,2 -8,2 h -8 -202 -9 l -8,-2 -8,-2 -8,-2 -8,-4 -7,-4 -7,-5 -6,-6 -6,-6 -5,-7 -4,-7 -4,-8 -3,-8 -2,-8 -1,-9 v -8 -172 -9 l 1,-8 2,-8 3,-8 4,-8 4,-7 5,-7 6,-6 6,-6 7,-5 7,-4 8,-4 8,-3 8,-2 8,-1 h 9 202 z"
         id="path4634" />
      <path
         style="fill:#000000;fill-opacity:1;fill-rule:evenodd;stroke:#000000;stroke-width:0;stroke-linecap:round;stroke-linejoin:round;stroke-opacity:1"
         d="m 65660,33361 8,1 9,2 8,3 7,4 7,4 7,5 6,6 6,6 5,7 5,7 3,8 3,8 2,8 1,8 1,9 v 172 l -1,9 -1,8 -2,8 -3,8 -3,8 -5,7 -5,7 -6,6 -6,6 -7,5 -7,4 -7,4 -8,3 -9,2 -8,1 h -8 -202 -9 l -8,-1 -8,-2 -8,-3 -8,-4 -7,-4 -7,-5 -6,-6 -6,-6 -5,-7 -4,-7 -4,-8 -3,-8 -2,-8 -1,-8 v -9 -172 -9 l 1,-8 2,-8 3,-8 4,-8 4,-7 5,-7 6,-6 6,-6 7,-5 7,-4 8,-4 8,-3 8,-2 8,-1 h 9 202 z"
         id="path4636" />
    </g>
    <g
       id="g4644">
      <path
         style="fill:#000000;fill-opacity:1;fill-rule:evenodd;stroke:#000000;stroke-width:0;stroke-linecap:round;stroke-linejoin:round;stroke-opacity:1"
         d="m 66290,33371 8,1 8,2 8,3 8,4 7,4 7,5 6,6 6,6 5,7 4,7 4,8 3,8 2,8 1,8 1,9 v 172 l -1,8 -1,9 -2,8 -3,8 -4,8 -4,7 -5,7 -6,6 -6,6 -7,5 -7,4 -8,3 -8,3 -8,2 -8,2 h -9 -201 -9 l -8,-2 -8,-2 -8,-3 -8,-3 -7,-4 -7,-5 -6,-6 -6,-6 -5,-7 -4,-7 -4,-8 -3,-8 -2,-8 -1,-9 v -8 -172 -9 l 1,-8 2,-8 3,-8 4,-8 4,-7 5,-7 6,-6 6,-6 7,-5 7,-4 8,-4 8,-3 8,-2 8,-1 h 9 201 z"
         id="path4640" />
      <path
         style="fill:#000000;fill-opacity:1;fill-rule:evenodd;stroke:#000000;stroke-width:0;stroke-linecap:round;stroke-linejoin:round;stroke-opacity:1"
         d="m 66290,33991 8,1 8,2 8,3 8,4 7,4 7,5 6,6 6,6 5,7 4,7 4,8 3,8 2,8 1,8 1,9 v 172 l -1,8 -1,9 -2,8 -3,8 -4,8 -4,7 -5,7 -6,6 -6,6 -7,5 -7,4 -8,4 -8,2 -8,2 -8,2 h -9 -201 -9 l -8,-2 -8,-2 -8,-2 -8,-4 -7,-4 -7,-5 -6,-6 -6,-6 -5,-7 -4,-7 -4,-8 -3,-8 -2,-8 -1,-9 v -8 -172 -9 l 1,-8 2,-8 3,-8 4,-8 4,-7 5,-7 6,-6 6,-6 7,-5 7,-4 8,-4 8,-3 8,-2 8,-1 h 9 201 z"
         id="path4642" />
    </g>
    <g
       id="g4650">
      <path
         style="fill:#000000;fill-opacity:1;fill-rule:evenodd;stroke:#000000;stroke-width:0;stroke-linecap:round;stroke-linejoin:round;stroke-opacity:1"
         d="m 66054,34641 8,1 8,2 8,3 8,3 7,5 7,5 6,5 6,7 5,7 4,7 4,7 3,8 2,9 1,8 v 8 173 8 l -1,8 -2,9 -3,8 -4,7 -4,7 -5,7 -6,7 -6,5 -7,5 -7,5 -8,3 -8,3 -8,2 -8,1 -9,1 h -202 l -8,-1 -8,-1 -9,-2 -7,-3 -8,-3 -7,-5 -7,-5 -6,-5 -6,-7 -5,-7 -4,-7 -4,-7 -3,-8 -2,-9 -1,-8 -1,-8 v -173 l 1,-8 1,-8 2,-9 3,-8 4,-7 4,-7 5,-7 6,-7 6,-5 7,-5 7,-5 8,-3 7,-3 9,-2 8,-1 8,-1 h 202 z"
         id="path4646" />
      <path
         style="fill:#000000;fill-opacity:1;fill-rule:evenodd;stroke:#000000;stroke-width:0;stroke-linecap:round;stroke-linejoin:round;stroke-opacity:1"
         d="m 66054,35261 8,1 8,2 8,3 8,3 7,5 7,5 6,6 6,6 5,7 4,7 4,7 3,8 2,9 1,8 v 8 173 8 l -1,8 -2,9 -3,8 -4,7 -4,8 -5,6 -6,7 -6,5 -7,5 -7,5 -8,3 -8,3 -8,2 -8,1 -9,1 h -202 l -8,-1 -8,-1 -9,-2 -7,-3 -8,-3 -7,-5 -7,-5 -6,-5 -6,-7 -5,-6 -4,-8 -4,-7 -3,-8 -2,-9 -1,-8 -1,-8 v -173 l 1,-8 1,-8 2,-9 3,-8 4,-7 4,-7 5,-7 6,-6 6,-6 7,-5 7,-5 8,-3 7,-3 9,-2 8,-1 8,-1 h 202 z"
         id="path4648" />
    </g>
    <g
       id="g4656">
      <path
         style="fill:#000000;fill-opacity:1;fill-rule:evenodd;stroke:#000000;stroke-width:0;stroke-linecap:round;stroke-linejoin:round;stroke-opacity:1"
         d="m 66762,36294 9,1 8,2 8,3 8,4 7,4 7,5 6,6 6,6 5,7 4,7 3,8 3,8 2,8 2,8 v 9 172 9 l -2,8 -2,8 -3,8 -3,8 -4,7 -5,7 -6,6 -6,6 -7,5 -7,4 -8,4 -8,3 -8,2 -9,1 h -8 -202 -8 l -9,-1 -8,-2 -8,-3 -7,-4 -8,-4 -6,-5 -7,-6 -5,-6 -5,-7 -5,-7 -3,-8 -3,-8 -2,-8 -2,-8 v -9 -172 -9 l 2,-8 2,-8 3,-8 3,-8 5,-7 5,-7 5,-6 7,-6 6,-5 8,-4 7,-4 8,-3 8,-2 9,-1 h 8 202 z"
         id="path4652" />
      <path
         style="fill:#000000;fill-opacity:1;fill-rule:evenodd;stroke:#000000;stroke-width:0;stroke-linecap:round;stroke-linejoin:round;stroke-opacity:1"
         d="m 66762,36914 9,2 8,2 8,2 8,4 7,4 7,5 6,6 6,6 5,7 4,7 3,8 3,8 2,8 2,9 v 8 172 9 l -2,8 -2,8 -3,8 -3,8 -4,7 -5,7 -6,6 -6,6 -7,5 -7,4 -8,4 -8,3 -8,2 -9,1 h -8 -202 -8 l -9,-1 -8,-2 -8,-3 -7,-4 -8,-4 -6,-5 -7,-6 -5,-6 -5,-7 -5,-7 -3,-8 -3,-8 -2,-8 -2,-8 v -9 -172 -8 l 2,-9 2,-8 3,-8 3,-8 5,-7 5,-7 5,-6 7,-6 6,-5 8,-4 7,-4 8,-2 8,-2 9,-2 h 8 202 z"
         id="path4654" />
    </g>
    <g
       id="g4662">
      <path
         style="fill:#000000;fill-opacity:1;fill-rule:evenodd;stroke:#000000;stroke-width:0;stroke-linecap:round;stroke-linejoin:round;stroke-opacity:1"
         d="m 65817,37697 9,1 8,2 8,3 8,4 7,4 7,5 6,6 6,6 5,7 4,7 4,8 2,7 3,9 1,8 v 8 173 8 l -1,9 -3,8 -2,8 -4,7 -4,8 -5,6 -6,7 -6,5 -7,5 -7,5 -8,3 -8,3 -8,2 -9,1 -8,1 h -202 l -8,-1 -9,-1 -8,-2 -8,-3 -7,-3 -8,-5 -6,-5 -7,-5 -5,-7 -5,-6 -5,-8 -3,-7 -3,-8 -2,-8 -1,-9 -1,-8 v -173 l 1,-8 1,-8 2,-9 3,-7 3,-8 5,-7 5,-7 5,-6 7,-6 6,-5 8,-4 7,-4 8,-3 8,-2 9,-1 8,-1 h 202 z"
         id="path4658" />
      <path
         style="fill:#000000;fill-opacity:1;fill-rule:evenodd;stroke:#000000;stroke-width:0;stroke-linecap:round;stroke-linejoin:round;stroke-opacity:1"
         d="m 65817,37077 9,1 8,2 8,3 8,3 7,5 7,5 6,5 6,7 5,7 4,7 4,7 2,8 3,9 1,8 v 8 173 8 l -1,8 -3,9 -2,8 -4,7 -4,7 -5,7 -6,7 -6,5 -7,5 -7,5 -8,3 -8,3 -8,2 -9,1 -8,1 h -202 l -8,-1 -9,-1 -8,-2 -8,-3 -7,-3 -8,-5 -6,-5 -7,-5 -5,-7 -5,-7 -5,-7 -3,-7 -3,-8 -2,-9 -1,-8 -1,-8 v -173 l 1,-8 1,-8 2,-9 3,-8 3,-7 5,-7 5,-7 5,-7 7,-5 6,-5 8,-5 7,-3 8,-3 8,-2 9,-1 8,-1 h 202 z"
         id="path4660" />
    </g>
    <g
       id="g4668">
      <path
         style="fill:#000000;fill-opacity:1;fill-rule:evenodd;stroke:#000000;stroke-width:0;stroke-linecap:round;stroke-linejoin:round;stroke-opacity:1"
         d="m 63534,37077 8,1 9,2 8,3 7,3 7,5 7,5 6,5 6,7 5,7 5,7 3,7 3,8 2,9 1,8 1,8 v 173 l -1,8 -1,8 -2,9 -3,8 -3,7 -5,7 -5,7 -6,7 -6,5 -7,5 -7,5 -7,3 -8,3 -9,2 -8,1 -8,1 h -202 l -9,-1 -8,-1 -8,-2 -8,-3 -8,-3 -7,-5 -7,-5 -6,-5 -6,-7 -5,-7 -4,-7 -4,-7 -3,-8 -2,-9 -1,-8 v -8 -173 -8 l 1,-8 2,-9 3,-8 4,-7 4,-7 5,-7 6,-7 6,-5 7,-5 7,-5 8,-3 8,-3 8,-2 8,-1 9,-1 h 202 z"
         id="path4664" />
      <path
         style="fill:#000000;fill-opacity:1;fill-rule:evenodd;stroke:#000000;stroke-width:0;stroke-linecap:round;stroke-linejoin:round;stroke-opacity:1"
         d="m 63534,37697 8,1 9,2 8,3 7,4 7,4 7,5 6,6 6,6 5,7 5,7 3,8 3,7 2,9 1,8 1,8 v 173 l -1,8 -1,9 -2,8 -3,8 -3,7 -5,8 -5,6 -6,7 -6,5 -7,5 -7,5 -7,3 -8,3 -9,2 -8,1 -8,1 h -202 l -9,-1 -8,-1 -8,-2 -8,-3 -8,-3 -7,-5 -7,-5 -6,-5 -6,-7 -5,-6 -4,-8 -4,-7 -3,-8 -2,-8 -1,-9 v -8 -173 -8 l 1,-8 2,-9 3,-7 4,-8 4,-7 5,-7 6,-6 6,-6 7,-5 7,-4 8,-4 8,-3 8,-2 8,-1 9,-1 h 202 z"
         id="path4666" />
    </g>
    <g
       id="g4672">
      <circle
         cx="64055.102"
         cy="41692.898"
         r="157.48"
         id="circle4670" />
    </g>
    <g
       style="fill:#000000;fill-opacity:1;stroke:#000000;stroke-width:39.3701;stroke-linecap:round;stroke-linejoin:round;stroke-opacity:1"
       id="g4674" />
    <g
       style="fill:#000000;fill-opacity:1;stroke:#000000;stroke-width:0;stroke-linecap:round;stroke-linejoin:round;stroke-opacity:1"
       id="g4678">
      <circle
         cx="65502"
         cy="41113.602"
         r="157.48"
         id="circle4676" />
    </g>
    <g
       style="fill:#000000;fill-opacity:1;stroke:#000000;stroke-width:39.3701;stroke-linecap:round;stroke-linejoin:round;stroke-opacity:1"
       id="g4680" />
    <g
       style="fill:#000000;fill-opacity:1;stroke:#000000;stroke-width:0;stroke-linecap:round;stroke-linejoin:round;stroke-opacity:1"
       id="g4684">
      <circle
         cx="67322.797"
         cy="40275.602"
         r="157.48"
         id="circle4682" />
    </g>
    <g
       style="fill:#000000;fill-opacity:1;stroke:#000000;stroke-width:39.3701;stroke-linecap:round;stroke-linejoin:round;stroke-opacity:1"
       id="g4686" />
    <g
       style="fill:#000000;fill-opacity:1;stroke:#000000;stroke-width:0;stroke-linecap:round;stroke-linejoin:round;stroke-opacity:1"
       id="g4690">
      <circle
         cx="67007.898"
         cy="39881.898"
         r="157.48"
         id="circle4688" />
    </g>
    <g
       style="fill:#000000;fill-opacity:1;stroke:#000000;stroke-width:39.3701;stroke-linecap:round;stroke-linejoin:round;stroke-opacity:1"
       id="g4692" />
    <g
       style="fill:#000000;fill-opacity:1;stroke:#000000;stroke-width:0;stroke-linecap:round;stroke-linejoin:round;stroke-opacity:1"
       id="g4696">
      <circle
         cx="64448.801"
         cy="41338.602"
         r="157.48"
         id="circle4694" />
    </g>
    <g
       style="fill:#000000;fill-opacity:1;stroke:#000000;stroke-width:39.3701;stroke-linecap:round;stroke-linejoin:round;stroke-opacity:1"
       id="g4698" />
    <g
       style="fill:#000000;fill-opacity:1;stroke:#000000;stroke-width:0;stroke-linecap:round;stroke-linejoin:round;stroke-opacity:1"
       id="g4702">
      <circle
         cx="64803.102"
         cy="38976.398"
         r="157.48"
         id="circle4700" />
    </g>
    <g
       style="fill:#000000;fill-opacity:1;stroke:#000000;stroke-width:39.3701;stroke-linecap:round;stroke-linejoin:round;stroke-opacity:1"
       id="g4704" />
    <g
       style="fill:#000000;fill-opacity:1;stroke:#000000;stroke-width:0;stroke-linecap:round;stroke-linejoin:round;stroke-opacity:1"
       id="g4708">
      <circle
         cx="64291.301"
         cy="38464.602"
         r="157.48"
         id="circle4706" />
    </g>
    <g
       style="fill:#000000;fill-opacity:1;stroke:#000000;stroke-width:39.3701;stroke-linecap:round;stroke-linejoin:round;stroke-opacity:1"
       id="g4710" />
    <g
       style="fill:#000000;fill-opacity:1;stroke:#000000;stroke-width:0;stroke-linecap:round;stroke-linejoin:round;stroke-opacity:1"
       id="g4714">
      <circle
         cx="63031.5"
         cy="38425.199"
         r="157.48"
         id="circle4712" />
    </g>
    <g
       style="fill:#000000;fill-opacity:1;stroke:#000000;stroke-width:39.3701;stroke-linecap:round;stroke-linejoin:round;stroke-opacity:1"
       id="g4716" />
    <g
       style="fill:#000000;fill-opacity:1;stroke:#000000;stroke-width:0;stroke-linecap:round;stroke-linejoin:round;stroke-opacity:1"
       id="g4720">
      <circle
         cx="61929.102"
         cy="37952.801"
         r="157.48"
         id="circle4718" />
    </g>
    <g
       style="fill:#000000;fill-opacity:1;stroke:#000000;stroke-width:39.3701;stroke-linecap:round;stroke-linejoin:round;stroke-opacity:1"
       id="g4722" />
    <g
       style="fill:#000000;fill-opacity:1;stroke:#000000;stroke-width:0;stroke-linecap:round;stroke-linejoin:round;stroke-opacity:1"
       id="g4726">
      <circle
         cx="61811"
         cy="37519.699"
         r="157.48"
         id="circle4724" />
    </g>
    <g
       style="fill:#000000;fill-opacity:1;stroke:#000000;stroke-width:39.3701;stroke-linecap:round;stroke-linejoin:round;stroke-opacity:1"
       id="g4728" />
    <g
       style="fill:#000000;fill-opacity:1;stroke:#000000;stroke-width:0;stroke-linecap:round;stroke-linejoin:round;stroke-opacity:1"
       id="g4732">
      <circle
         cx="60986.801"
         cy="37202.199"
         r="157.48"
         id="circle4730" />
    </g>
    <g
       style="fill:#000000;fill-opacity:1;stroke:#000000;stroke-width:39.3701;stroke-linecap:round;stroke-linejoin:round;stroke-opacity:1"
       id="g4734" />
    <g
       id="g4736" />
    <g
       style="fill:#000000;fill-opacity:1;stroke:#000000;stroke-width:78.7402;stroke-linecap:round;stroke-linejoin:round;stroke-opacity:1"
       id="g4738" />
    <g
       style="fill:#000000;fill-opacity:0;stroke:#000000;stroke-width:78.7402;stroke-linecap:round;stroke-linejoin:round;stroke-opacity:1"
       id="g4872">
      <path
         d="m 64207,44340 v 226"
         id="path4740" />
      <path
         d="m 64074,44207 133,133"
         id="path4742" />
      <path
         d="m 64291,43370 -217,216"
         id="path4744" />
      <path
         d="m 64291,42151 v 1219"
         id="path4746" />
      <path
         d="m 64055,41915 236,236"
         id="path4748" />
      <path
         d="m 64074,43586 v 621"
         id="path4750" />
      <path
         d="m 64055,41692 v 223"
         id="path4752" />
      <path
         d="m 66279,44202 138,138"
         id="path4754" />
      <path
         d="m 66279,43716 v 486"
         id="path4756" />
      <path
         d="m 65698,41954 v 1431"
         id="path4758" />
      <path
         d="m 65501,41757 197,197"
         id="path4760" />
      <path
         d="m 65698,43385 581,331"
         id="path4762" />
      <path
         d="m 66417,44340 v 226"
         id="path4764" />
      <path
         d="m 65501,41113 v 644"
         id="path4766" />
      <path
         d="m 66633,40964 v 2323"
         id="path4768" />
      <path
         d="m 67322,40275 -689,689"
         id="path4770" />
      <path
         d="m 67042,43695 h 241"
         id="path4772" />
      <path
         d="m 66633,43287 409,408"
         id="path4774" />
      <path
         d="m 67007,40113 -590,590"
         id="path4776" />
      <path
         d="m 67007,39881 v 232"
         id="path4778" />
      <path
         d="m 64488,43425 -40,-2087"
         id="path4780" />
      <path
         d="m 65118,43700 -630,-275"
         id="path4782" />
      <path
         d="m 64739,40522 182,181"
         id="path4784" />
      <path
         d="m 64616,40398 123,124"
         id="path4786" />
      <path
         d="m 64616,39912 v 486"
         id="path4788" />
      <path
         d="m 64665,39863 -49,49"
         id="path4790" />
      <path
         d="m 64665,39177 v 686"
         id="path4792" />
      <path
         d="m 64866,38976 -201,201"
         id="path4794" />
      <path
         d="m 64803,38976 h 63"
         id="path4796" />
      <path
         d="m 63917,39720 23,24"
         id="path4798" />
      <path
         d="m 63917,39177 v 543"
         id="path4800" />
      <path
         d="m 63937,39157 -20,20"
         id="path4802" />
      <path
         d="m 64083,39744 11,374"
         id="path4804" />
      <path
         d="m 63937,38956 v 201"
         id="path4806" />
      <path
         d="m 64070,38956 h -133"
         id="path4808" />
      <path
         d="m 64094,38661 v 272"
         id="path4810" />
      <path
         d="m 64094,38933 -24,23"
         id="path4812" />
      <path
         d="m 63940,39744 h 143"
         id="path4814" />
      <path
         d="m 64291,38464 -197,197"
         id="path4816" />
      <path
         d="m 62692,43514 182,181"
         id="path4818" />
      <path
         d="m 62568,43390 124,124"
         id="path4820" />
      <path
         d="m 62568,42905 v 485"
         id="path4822" />
      <path
         d="m 62677,42796 -109,109"
         id="path4824" />
      <path
         d="m 62677,42188 v 608"
         id="path4826" />
      <path
         d="m 62992,41874 -315,314"
         id="path4828" />
      <path
         d="m 62992,38464 v 3410"
         id="path4830" />
      <path
         d="m 63031,38425 -39,39"
         id="path4832" />
      <path
         d="m 61624,38257 v 2382"
         id="path4834" />
      <path
         d="m 61929,37952 -305,305"
         id="path4836" />
      <path
         d="m 61692,40708 h 237"
         id="path4838" />
      <path
         d="m 61624,40639 68,69"
         id="path4840" />
      <path
         d="m 61496,37755 236,-236"
         id="path4842" />
      <path
         d="m 61732,37519 h 79"
         id="path4844" />
      <path
         d="m 61377,38031 119,-276"
         id="path4846" />
      <path
         d="M 61377,41181 V 38031"
         id="path4848" />
      <path
         d="m 61141,41417 236,-236"
         id="path4850" />
      <path
         d="m 61614,43695 h -227"
         id="path4852" />
      <path
         d="m 61387,43695 -246,-246"
         id="path4854" />
      <path
         d="M 61141,43449 V 41417"
         id="path4856" />
      <path
         d="m 60986,37202 v 3307"
         id="path4858" />
      <path
         d="m 60711,40509 -672,672"
         id="path4860" />
      <path
         d="m 60986,40509 h -275"
         id="path4862" />
      <path
         d="m 60039,41677 433,433"
         id="path4864" />
      <path
         d="m 60039,41181 v 496"
         id="path4866" />
      <path
         d="m 60472,43302 -394,393"
         id="path4868" />
      <path
         d="m 60472,42110 v 1192"
         id="path4870" />
    </g>
    <g
       style="fill:#000000;fill-opacity:0;stroke:#000000;stroke-width:98.4252;stroke-linecap:round;stroke-linejoin:round;stroke-opacity:1"
       id="g4954">
      <path
         d="m 69104,41807 -325,324"
         id="path4874" />
      <path
         d="m 69104,41216 v 591"
         id="path4876" />
      <path
         d="m 68503,40616 601,600"
         id="path4878" />
      <path
         d="m 68503,36692 v 3924"
         id="path4880" />
      <path
         d="m 68897,36299 -394,393"
         id="path4882" />
      <path
         d="m 68779,43262 -354,355"
         id="path4884" />
      <path
         d="m 68779,42131 v 1131"
         id="path4886" />
      <path
         d="m 66653,37086 1358,1358"
         id="path4888" />
      <path
         d="m 68011,40413 807,807"
         id="path4890" />
      <path
         d="m 68818,41220 v 276"
         id="path4892" />
      <path
         d="m 68011,38444 v 1969"
         id="path4894" />
      <path
         d="m 61815,37081 -605,606"
         id="path4896" />
      <path
         d="m 62559,37081 h -744"
         id="path4898" />
      <path
         d="m 61210,37687 v 3051"
         id="path4900" />
      <path
         d="m 61210,40738 -738,738"
         id="path4902" />
      <path
         d="m 60472,41476 v 20"
         id="path4904" />
      <path
         d="m 63267,35561 -79,78"
         id="path4906" />
      <path
         d="m 63267,35349 v 212"
         id="path4908" />
      <path
         d="m 62874,36306 v 1618"
         id="path4910" />
      <path
         d="m 63188,35991 -314,315"
         id="path4912" />
      <path
         d="m 63188,35639 v 352"
         id="path4914" />
      <path
         d="m 62494,37924 -644,644"
         id="path4916" />
      <path
         d="m 62874,37924 h -380"
         id="path4918" />
      <path
         d="m 61850,38568 v 447"
         id="path4920" />
      <path
         d="m 62208,39143 114,114"
         id="path4922" />
      <path
         d="m 61978,39143 h 230"
         id="path4924" />
      <path
         d="m 61850,39015 128,128"
         id="path4926" />
      <path
         d="m 62322,39257 v 1963"
         id="path4928" />
      <path
         d="m 62007,41476 v 20"
         id="path4930" />
      <path
         d="m 62263,41220 -256,256"
         id="path4932" />
      <path
         d="m 62322,41220 h -59"
         id="path4934" />
      <path
         d="m 63079,36351 v 1750"
         id="path4936" />
      <path
         d="m 63661,35769 -582,582"
         id="path4938" />
      <path
         d="m 63661,34330 v 1439"
         id="path4940" />
      <path
         d="m 62862,38101 -540,540"
         id="path4942" />
      <path
         d="m 63079,38101 h -217"
         id="path4944" />
      <path
         d="m 63636,34266 25,64"
         id="path4946" />
      <path
         d="m 63213,34266 h 423"
         id="path4948" />
      <path
         d="m 62322,38641 v 20"
         id="path4950" />
      <path
         d="m 63031,34084 182,182"
         id="path4952" />
    </g>
    <g
       style="fill:#000000;fill-opacity:0;stroke:#000000;stroke-width:78.7402;stroke-linecap:round;stroke-linejoin:round;stroke-opacity:1"
       id="g4984">
      <path
         d="m 63764,39790 v 1189"
         id="path4956" />
      <path
         d="m 63740,39766 24,24"
         id="path4958" />
      <path
         d="m 63740,39196 v 570"
         id="path4960" />
      <path
         d="m 63858,33730 v 4222"
         id="path4962" />
      <path
         d="m 63858,37952 -355,355"
         id="path4964" />
      <path
         d="m 63503,41240 v 256"
         id="path4966" />
      <path
         d="m 63503,38960 237,236"
         id="path4968" />
      <path
         d="m 63503,38307 v 653"
         id="path4970" />
      <path
         d="m 63661,33533 197,197"
         id="path4972" />
      <path
         d="m 63764,40979 -261,261"
         id="path4974" />
      <path
         d="m 64015,38208 -197,197"
         id="path4976" />
      <path
         d="m 63818,38405 v 256"
         id="path4978" />
      <path
         d="m 64015,33572 v 4636"
         id="path4980" />
      <path
         d="m 64291,33297 -276,275"
         id="path4982" />
    </g>
    <g
       style="fill:#000000;fill-opacity:0;stroke:#000000;stroke-width:98.4252;stroke-linecap:round;stroke-linejoin:round;stroke-opacity:1"
       id="g4996">
      <path
         d="m 65059,38661 h 255"
         id="path4986" />
      <path
         d="m 64921,36417 118,118"
         id="path4988" />
      <path
         d="m 65039,38641 20,20"
         id="path4990" />
      <path
         d="m 65039,36535 v 2106"
         id="path4992" />
      <path
         d="m 64921,33297 v 3120"
         id="path4994" />
    </g>
    <g
       style="fill:#000000;fill-opacity:0;stroke:#000000;stroke-width:78.7402;stroke-linecap:round;stroke-linejoin:round;stroke-opacity:1"
       id="g5012">
      <path
         d="m 65369,33715 182,-182"
         id="path4998" />
      <path
         d="m 65226,33858 143,-143"
         id="path5000" />
      <path
         d="M 65226,37862 V 33858"
         id="path5002" />
      <path
         d="m 65974,38610 -748,-748"
         id="path5004" />
      <path
         d="M 65974,39710 V 38610"
         id="path5006" />
      <path
         d="m 65787,39897 187,-187"
         id="path5008" />
      <path
         d="M 65787,41496 V 39897"
         id="path5010" />
    </g>
    <g
       style="fill:#000000;fill-opacity:0;stroke:#000000;stroke-width:98.4252;stroke-linecap:round;stroke-linejoin:round;stroke-opacity:1"
       id="g5094">
      <path
         d="m 65954,34163 -10,10"
         id="path5014" />
      <path
         d="m 66181,34163 h -227"
         id="path5016" />
      <path
         d="m 65944,34173 h -354"
         id="path5018" />
      <path
         d="m 65590,34173 -197,197"
         id="path5020" />
      <path
         d="m 65393,34370 v 1417"
         id="path5022" />
      <path
         d="m 65393,35787 276,275"
         id="path5024" />
      <path
         d="m 65669,36062 h 275"
         id="path5026" />
      <path
         d="m 66129,36247 v 1850"
         id="path5028" />
      <path
         d="m 65944,36062 185,185"
         id="path5030" />
      <path
         d="m 66129,38097 12,13"
         id="path5032" />
      <path
         d="m 66141,38110 v 118"
         id="path5034" />
      <path
         d="m 66141,38228 236,236"
         id="path5036" />
      <path
         d="m 66555,38661 h 256"
         id="path5038" />
      <path
         d="m 66377,38484 178,177"
         id="path5040" />
      <path
         d="m 66377,38464 v 20"
         id="path5042" />
      <path
         d="m 67834,40944 -551,552"
         id="path5044" />
      <path
         d="m 67834,38937 v 2007"
         id="path5046" />
      <path
         d="m 66889,37992 945,945"
         id="path5048" />
      <path
         d="m 66306,36045 v 1797"
         id="path5050" />
      <path
         d="m 66456,37992 h 433"
         id="path5052" />
      <path
         d="m 66306,37842 150,150"
         id="path5054" />
      <path
         d="m 66062,35802 244,243"
         id="path5056" />
      <path
         d="m 66062,35762 v 40"
         id="path5058" />
      <path
         d="m 65944,35644 118,118"
         id="path5060" />
      <path
         d="m 65944,35433 v 211"
         id="path5062" />
      <path
         d="m 65866,42736 315,315"
         id="path5064" />
      <path
         d="m 65866,42013 v 723"
         id="path5066" />
      <path
         d="m 66181,43051 v 19"
         id="path5068" />
      <path
         d="m 66141,41738 -275,275"
         id="path5070" />
      <path
         d="m 66102,40528 v 350"
         id="path5072" />
      <path
         d="m 66141,40917 v 821"
         id="path5074" />
      <path
         d="m 66102,40878 39,39"
         id="path5076" />
      <path
         d="m 66141,40297 v 192"
         id="path5078" />
      <path
         d="m 66141,39869 -39,39"
         id="path5080" />
      <path
         d="m 66141,40489 -39,39"
         id="path5082" />
      <path
         d="m 66102,40258 39,39"
         id="path5084" />
      <path
         d="m 66141,38513 v 1356"
         id="path5086" />
      <path
         d="m 66102,39908 v 350"
         id="path5088" />
      <path
         d="m 65708,38080 433,433"
         id="path5090" />
      <path
         d="m 65708,37869 v 211"
         id="path5092" />
    </g>
    <g
       style="fill:#000000;fill-opacity:0;stroke:#000000;stroke-width:78.7402;stroke-linecap:round;stroke-linejoin:round;stroke-opacity:1"
       id="g5116">
      <path
         d="m 63425,38163 -118,118"
         id="path5096" />
      <path
         d="m 63307,38281 v 774"
         id="path5098" />
      <path
         d="m 63425,37869 v 294"
         id="path5100" />
      <path
         d="m 63291,39055 -142,141"
         id="path5102" />
      <path
         d="m 63307,39055 h -16"
         id="path5104" />
      <path
         d="m 63149,41755 433,433"
         id="path5106" />
      <path
         d="m 63149,39196 v 2559"
         id="path5108" />
      <path
         d="m 63976,43051 v 19"
         id="path5110" />
      <path
         d="m 63582,42657 394,394"
         id="path5112" />
      <path
         d="m 63582,42188 v 469"
         id="path5114" />
    </g>
    <g
       style="fill:#000000;fill-opacity:0;stroke:#000000;stroke-width:98.4252;stroke-linecap:round;stroke-linejoin:round;stroke-opacity:1"
       id="g5218">
      <path
         d="m 66653,35811 -44,-44"
         id="path5118" />
      <path
         d="m 66653,36466 v -655"
         id="path5120" />
      <path
         d="m 62559,35807 40,-40"
         id="path5122" />
      <path
         d="m 62559,36461 v -654"
         id="path5124" />
      <path
         d="m 62238,34729 -53,-53"
         id="path5126" />
      <path
         d="M 63267,34729 H 62238"
         id="path5128" />
      <path
         d="m 62380,33464 -54,55"
         id="path5130" />
      <path
         d="m 63031,33464 h -651"
         id="path5132" />
      <path
         d="m 63342,32913 -354,-354"
         id="path5134" />
      <path
         d="m 63661,32913 h -319"
         id="path5136" />
      <path
         d="m 64021,32407 270,270"
         id="path5138" />
      <path
         d="m 64021,32017 v 390"
         id="path5140" />
      <path
         d="m 65187,32410 -266,267"
         id="path5142" />
      <path
         d="m 65187,32017 v 393"
         id="path5144" />
      <path
         d="m 65866,32913 354,-354"
         id="path5146" />
      <path
         d="m 65551,32913 h 315"
         id="path5148" />
      <path
         d="m 66858,33543 24,-24"
         id="path5150" />
      <path
         d="m 66181,33543 h 677"
         id="path5152" />
      <path
         d="m 66886,34812 137,-136"
         id="path5154" />
      <path
         d="m 65944,34812 h 942"
         id="path5156" />
      <path
         d="m 65708,36567 28,-27"
         id="path5158" />
      <path
         d="m 65708,37249 v -682"
         id="path5160" />
      <path
         d="m 63425,36587 47,-47"
         id="path5162" />
      <path
         d="m 63425,37249 v -662"
         id="path5164" />
      <path
         d="m 68425,42303 19,-20"
         id="path5166" />
      <path
         d="m 68425,42997 v -694"
         id="path5168" />
      <path
         d="m 61614,42303 19,-20"
         id="path5170" />
      <path
         d="m 61614,43075 v -772"
         id="path5172" />
      <path
         d="m 62874,42539 255,-256"
         id="path5174" />
      <path
         d="m 62874,43075 v -536"
         id="path5176" />
      <path
         d="m 64921,39468 19,-20"
         id="path5178" />
      <path
         d="m 64921,40083 v -615"
         id="path5180" />
      <path
         d="m 66417,39468 20,-20"
         id="path5182" />
      <path
         d="m 66417,40083 v -615"
         id="path5184" />
      <path
         d="m 65797,43868 10,-10"
         id="path5186" />
      <path
         d="m 65797,44566 v -698"
         id="path5188" />
      <path
         d="m 60078,42303 20,-20"
         id="path5190" />
      <path
         d="m 60078,43075 v -772"
         id="path5192" />
      <path
         d="m 61929,39468 19,-20"
         id="path5194" />
      <path
         d="m 61929,40088 v -620"
         id="path5196" />
      <path
         d="m 63425,39468 19,-20"
         id="path5198" />
      <path
         d="m 63425,40083 v -615"
         id="path5200" />
      <path
         d="m 65157,42283 h 256"
         id="path5202" />
      <path
         d="m 65118,42322 39,-39"
         id="path5204" />
      <path
         d="m 65118,43080 v -758"
         id="path5206" />
      <path
         d="m 67165,42283 h -256"
         id="path5208" />
      <path
         d="m 67283,42401 -118,-118"
         id="path5210" />
      <path
         d="m 67283,43075 v -674"
         id="path5212" />
      <path
         d="m 63587,43873 15,-15"
         id="path5214" />
      <path
         d="m 63587,44566 v -693"
         id="path5216" />
    </g>
    <g
       id="g5220" />
    <g
       style="fill:#000000;fill-opacity:1;stroke:#000000;stroke-width:39.3701;stroke-linecap:round;stroke-linejoin:round;stroke-opacity:1"
       id="g5224">
      <path
         style="fill:#000000;fill-opacity:1;fill-rule:evenodd;stroke:#000000;stroke-width:39.3701;stroke-linecap:round;stroke-linejoin:round;stroke-opacity:1"
         d="M 70255,45167 H 59074 v -701 h 4242 v 201 l 4,36 10,35 17,32 23,28 28,23 32,17 35,11 36,3 h 172 l 36,-3 35,-11 32,-17 28,-23 23,-28 17,-32 11,-35 3,-36 v -201 l -3,-37 -11,-34 -17,-32 -23,-28 -28,-23 -32,-17 -9,-3 v -158 h 24 l 20,-2 18,-6 17,-9 15,-12 13,-15 9,-17 5,-19 2,-19 v -354 l -2,-20 -5,-18 -9,-17 -13,-15 -15,-13 -17,-9 -18,-5 -20,-2 h -315 l -19,2 -18,5 -18,9 -15,13 -12,15 -9,17 -6,18 -2,20 v 354 l 2,19 6,19 9,17 12,15 15,12 18,9 18,6 14,1 v 159 l -9,3 -32,17 -28,23 -23,28 -17,32 -10,34 -4,37 h -4242 v -1477 h 718 v 172 l 4,37 10,34 18,32 23,28 28,23 32,17 34,11 36,3 h 202 l 36,-3 30,-9 -90,90 h -178 l -36,4 -34,10 -32,17 -28,23 -23,28 -18,32 -10,35 -4,36 v 172 l 4,37 10,34 18,32 23,28 28,23 32,17 34,11 36,4 h 202 l 36,-4 35,-11 32,-17 28,-23 23,-28 17,-32 11,-34 3,-37 v -172 -4 l 201,-201 5,-4 17,-21 13,-24 8,-26 2,-27 v -7 -721 l 2,1 23,13 26,8 27,3 84,-1 35,-35 v -241 h -8 v -78 h 8 v -242 l -35,-34 -84,-1 -27,3 -26,8 -23,13 -21,17 -12,14 -9,-10 -5,-4 -236,-236 h 300 l 20,-2 18,-6 17,-9 15,-12 13,-15 9,-17 5,-19 2,-19 v -245 l 512,-511 v 207 l -191,191 -6,4 -17,21 -13,24 -8,26 -2,27 v 7 543 0 l -83,1 -35,34 v 242 h 8 v 78 h -8 v 241 l 35,35 83,1 v 844 6 7 l 2,20 8,26 13,24 17,21 6,5 236,236 4,5 21,17 23,12 9,30 17,32 23,28 28,23 32,17 35,11 36,4 h 202 l 36,-4 34,-11 32,-17 28,-23 23,-28 17,-32 11,-34 4,-37 v -172 l -4,-36 -11,-35 -17,-32 -23,-28 -28,-23 -32,-17 -34,-10 -36,-4 h -202 l -36,4 -35,10 -32,17 -28,23 -8,10 -95,-96 v -403 h 49 v 172 l 3,37 11,34 17,32 23,28 28,23 32,17 35,11 36,3 h 202 l 36,-3 34,-11 32,-17 28,-23 23,-28 17,-32 11,-34 4,-37 v -172 l -4,-36 -11,-35 -17,-32 -23,-28 -28,-23 -32,-17 -24,-7 v -252 h 30 l 19,-2 19,-5 17,-10 15,-12 12,-15 9,-17 6,-19 2,-19 h 195 l 3,27 8,26 13,24 17,21 21,17 24,13 26,8 27,3 84,-1 34,-35 v -241 h -221 l -35,35 -1,103 h -195 v -354 h 195 l 1,103 35,35 h 221 v -242 l -34,-34 -84,-1 -27,3 -26,8 -24,13 -21,17 -17,21 -13,24 -8,26 -3,27 h -195 l -2,-19 -6,-19 -9,-17 -12,-15 -15,-12 -17,-10 -19,-5 -19,-2 h -315 l -19,2 -19,5 -17,10 -15,12 -12,15 -9,17 -6,19 -2,19 v 354 l 2,19 6,19 9,17 12,15 15,12 17,10 19,5 9,1 v 253 l -24,7 -32,17 -28,23 -23,28 -17,32 -11,35 -3,36 h -49 v -1515 l 191,-191 5,-4 18,-21 12,-24 8,-25 v -1 l 3,-27 -1,-7 v -449 l 11,12 5,4 59,60 5,5 20,17 22,12 2,1 10,3 8,26 17,32 23,28 28,23 32,17 35,11 36,3 h 202 l 36,-3 34,-11 32,-17 28,-23 15,-17 v 194 l -17,13 -4,6 -99,98 h -205 l -19,2 -19,6 -17,9 -15,12 -12,15 -9,18 -6,18 -2,19 v 355 l 2,19 6,19 9,17 12,15 15,12 17,9 19,6 19,2 h 315 l 19,-2 19,-6 17,-9 15,-12 12,-15 9,-17 6,-19 2,-19 v -245 l 60,-60 27,-3 28,-8 26,-14 22,-18 19,-23 13,-25 9,-28 2,-22 1,-7 -1,-7 v -1468 l 16,8 26,8 27,3 84,-1 34,-34 v -241 h -8 v -79 h 8 v -241 l -34,-35 h -84 l -27,2 -26,8 -24,13 -19,16 -11,-14 -5,-6 -5,-4 -104,-104 -5,-6 -22,-18 -26,-14 -28,-8 -22,-2 v 0 l -7,-1 -7,1 h -162 l -41,-42 v -324 l 68,-69 v 277 l 2,19 5,19 10,17 12,15 15,12 17,9 19,6 19,2 h 315 l 19,-2 19,-6 17,-9 15,-12 12,-15 9,-17 6,-19 2,-19 v -244 l 197,-197 -1,2 v 51 l 10,49 19,47 28,42 22,21 v 524 h -84 l -34,35 v 241 h 8 v 79 h -8 v 241 l 34,34 84,1 v 2052 l -206,206 -11,-14 -21,-17 -24,-13 -26,-8 -27,-3 -84,1 -34,34 v 242 h 8 v 78 h -8 v 241 l 34,35 84,1 v 0 140 l -63,63 -6,5 -17,21 -13,24 -6,22 -1,4 -3,27 1,6 v 472 l -1,7 3,27 5,17 2,9 13,24 17,21 6,4 112,113 v 4 172 l 3,37 11,34 17,32 23,28 28,23 32,17 35,11 36,4 h 201 l 36,-4 35,-11 32,-17 28,-23 23,-28 17,-32 11,-34 3,-37 v -172 l -3,-36 -11,-35 -17,-32 -23,-28 -28,-23 -32,-17 -35,-10 -36,-4 h -177 l -3,-3 v 0 l -87,-87 30,9 36,3 h 201 l 36,-3 35,-11 32,-17 28,-23 23,-28 17,-32 11,-34 3,-37 v -172 l -3,-36 -11,-35 -17,-32 -23,-28 -28,-23 -32,-17 -24,-7 v -211 l 41,-41 h 225 l 19,-2 19,-5 17,-10 15,-12 12,-15 9,-17 6,-19 2,-19 v -273 l 58,59 v 404 7 l 2,27 5,14 3,12 13,24 17,21 6,4 229,230 v 259 l 2,19 6,18 9,17 12,15 15,13 18,9 18,6 19,1 h 301 l -137,138 -6,4 -17,21 -13,24 -5,19 -2,7 -3,27 1,7 v 607 l -1,7 3,27 6,21 1,5 13,24 17,21 6,4 17,18 -9,8 -23,28 -17,32 -10,34 -4,37 v 201 l 4,36 10,35 17,32 23,28 28,23 32,17 35,11 36,3 h 172 l 36,-3 35,-11 32,-17 28,-23 23,-28 17,-32 11,-35 3,-36 v -201 l -3,-37 -11,-34 -17,-32 -23,-28 -28,-23 -32,-17 -30,-9 -12,-23 -17,-21 -5,-4 -65,-65 h 41 l 35,-35 v -241 h 78 v 241 l 35,35 h 83 l 27,-2 26,-8 24,-13 21,-17 18,-21 12,-24 8,-26 3,-27 -1,-103 -34,-35 h -222 -78 -8 v -79 h 8 v -241 l -17,-16 72,-72 v 1 l 5,9 2,2 1,3 7,8 7,9 2,1 2,2 8,7 9,7 2,2 2,1 8,4 -32,32 v 241 h 222 l 34,-34 1,-103 -3,-27 -3,-12 192,84 v 60 l 3,37 11,34 17,32 23,28 28,23 32,17 35,11 36,3 h 201 l 37,-3 34,-11 32,-17 28,-23 23,-28 17,-32 11,-34 4,-37 v -172 l -4,-36 -11,-35 -17,-32 -23,-28 -28,-23 -32,-17 -34,-10 -37,-4 h -201 l -36,4 -35,10 -32,17 v 1 l -290,-127 -34,-1783 21,-14 36,-36 28,-42 19,-46 10,-50 v -50 l -10,-50 -19,-46 -28,-42 -36,-36 -41,-28 -47,-19 -49,-10 h -51 l -49,10 -47,19 -42,28 -35,36 -28,42 -20,46 -10,50 v 50 l 10,50 20,46 28,42 35,36 30,20 8,431 -101,-101 31,-31 28,-42 20,-47 10,-49 v -51 l -10,-49 -20,-47 -28,-42 -35,-35 -42,-28 -47,-20 -49,-9 h -51 l -49,9 -47,20 -42,28 -35,35 -28,42 -19,47 -10,49 v 51 l 10,49 19,47 28,42 35,35 26,17 v 0 l -1,7 3,27 7,24 1,2 8,16 -18,18 v 242 h 8 v 78 h -8 v 241 l 34,35 84,1 27,-3 26,-8 24,-13 21,-17 17,-21 3,-6 v 265 0 l -20,-2 h -219 l -194,-194 v -1 l 84,-1 34,-35 v -241 h -8 v -78 h 8 v -242 l -34,-34 -84,-1 -27,3 -26,8 -24,13 -21,17 -11,14 -251,-250 h 301 l 19,-2 19,-6 17,-9 15,-12 12,-15 9,-17 6,-19 2,-19 v -355 l -2,-19 -6,-18 -9,-18 -12,-15 -15,-12 -9,-5 150,-150 5,-4 17,-21 13,-24 8,-26 2,-20 1,-7 -1,-7 v -602 l 3,2 32,17 35,11 36,4 h 172 l 36,-4 35,-11 32,-17 28,-23 23,-28 17,-32 11,-34 3,-37 v -201 l -3,-36 -11,-35 -17,-32 -1,-2 h 144 l 1,7 v 472 l -1,7 3,27 5,17 3,9 13,24 17,21 5,4 112,113 v 4 172 l 3,36 11,35 17,32 23,28 28,23 32,17 35,11 36,3 h 202 l 36,-3 34,-11 32,-17 28,-23 23,-28 18,-32 10,-35 4,-36 v -172 l -4,-36 -10,-35 -18,-32 -23,-28 -28,-23 -32,-17 -34,-10 -36,-4 h -178 l -3,-3 v 0 l -87,-87 30,9 36,3 h 202 l 36,-3 34,-11 32,-17 28,-23 23,-28 18,-32 10,-35 4,-36 v -172 l -4,-36 -10,-35 -18,-32 -23,-28 -28,-23 -32,-17 -24,-7 v -95 h 30 l 19,-2 19,-5 17,-9 15,-13 12,-15 9,-17 6,-18 2,-20 h 196 l 2,27 8,26 13,24 17,21 21,18 24,12 26,8 27,3 84,-1 34,-34 v -241 h -221 l -35,34 v 103 h -196 v -354 h 196 v 104 l 35,34 h 221 v -241 l -34,-35 h -84 l -27,2 -26,8 -24,13 -21,17 -17,21 -13,24 -8,26 -2,27 h -196 l -2,-19 -6,-19 -9,-17 -12,-15 -15,-12 -17,-9 -19,-6 -19,-2 h -130 l 33,-33 28,-42 20,-46 10,-50 v -50 l -10,-50 -20,-46 -28,-42 -35,-36 -42,-28 -47,-19 -49,-10 h -51 l -49,10 -47,19 -41,28 -36,36 -28,42 -19,46 -10,50 v 50 l 10,50 11,27 -1,1 -17,21 -13,24 -6,19 -2,7 -3,27 1,6 v 623 l -4,4 -5,5 -17,21 -13,23 -7,22 -1,4 -3,27 h -144 l -22,-26 -28,-23 -32,-17 -27,-8 -2,-75 h 10 v -34 l 34,34 84,1 27,-3 26,-8 24,-12 21,-18 17,-21 13,-24 8,-26 2,-27 v -103 l -35,-34 h -221 v 8 h -79 v -8 h -8 v -79 h 8 v -241 h 79 v 241 h 221 l 35,-34 v -104 l -2,-27 -8,-26 -13,-24 -17,-21 -21,-17 -24,-13 -26,-8 -27,-2 h -84 l -34,35 h -79 l -34,-35 h -45 v -39 h 3 v 0 l 20,-2 26,-8 24,-13 21,-17 5,-5 14,-14 5,-5 17,-21 13,-23 8,-26 2,-21 v 0 -6 -7 -208 l 4,-4 30,6 h 50 l 49,-10 47,-19 42,-28 36,-36 28,-42 19,-46 10,-50 v -50 l -10,-50 -19,-46 -28,-42 -36,-36 -42,-28 -47,-19 -49,-10 h -50 l -50,10 -46,19 -24,16 5,-18 2,-20 1,-7 -1,-7 v -1418 h 88 v 71 l 14,71 27,66 40,59 50,51 60,40 66,27 70,14 h 72 l 70,-14 66,-27 60,-40 50,-51 5,-7 v 1591 7 l 1,20 1,9 1,3 8,25 12,22 2,4 18,22 6,5 9,9 5,6 20,16 2,2 5,3 21,11 28,8 21,3 v 0 h 7 v 29 l 2,19 6,19 9,17 12,15 15,12 17,9 19,6 19,2 h 315 l 19,-2 19,-6 17,-9 15,-12 12,-15 9,-17 6,-19 2,-19 v -354 l -2,-20 -6,-18 -9,-17 -12,-15 -15,-12 -17,-10 -19,-5 -19,-2 h -285 v -367 l 649,649 v 466 h -74 l -34,35 v 241 h 8 v 79 h -8 v 241 l 16,16 -50,50 -5,4 -17,21 -10,18 -3,6 -8,26 -3,27 1,7 v 1000 l -26,-18 -47,-19 -49,-10 h -51 l -49,10 -47,19 -42,28 -35,36 -28,42 -20,46 -9,50 v 50 l 9,50 20,46 28,42 35,36 26,17 v 422 l -1,6 3,27 6,21 2,5 12,24 18,21 5,5 147,147 h -301 l -19,2 -18,5 -18,10 -15,12 -12,15 -9,17 -6,19 -1,19 v 29 h -7 v 0 l -22,2 -28,9 -25,14 -23,18 -5,6 -29,29 -5,4 -7,9 -12,14 -7,14 -6,12 -8,25 -1,2 -3,29 1,8 v 486 l -24,7 -32,17 -28,23 -23,28 -17,32 -11,35 -3,36 v 172 l 3,36 11,35 17,32 23,28 28,23 32,17 35,11 36,3 h 201 l 37,-3 34,-11 32,-17 28,-23 23,-28 17,-32 11,-35 4,-36 v -172 l -4,-36 -11,-35 -17,-32 -23,-28 -28,-23 -32,-17 -24,-7 v -257 h 296 v 824 l -1,12 2,9 1,8 1,5 1,5 3,8 2,8 3,5 1,4 5,8 4,7 3,4 3,4 6,7 5,6 4,3 4,4 7,5 6,5 11,6 133,76 h -116 l -19,2 -19,5 -17,9 -15,13 -12,15 -9,17 -6,18 -2,20 v 354 l 2,19 6,19 9,17 12,15 15,12 17,9 19,6 19,2 v 0 158 l -9,3 -32,17 -28,23 -23,28 -17,32 -11,34 -3,37 v 201 l 3,36 11,35 17,32 23,28 28,23 32,17 35,11 36,3 h 172 l 36,-3 35,-11 32,-17 28,-23 23,-28 17,-32 10,-35 4,-36 v -201 l -4,-37 -10,-34 -17,-32 -23,-28 -28,-23 -32,-17 -10,-3 v -158 h 20 l 19,-2 19,-6 17,-9 15,-12 12,-15 9,-17 6,-19 2,-19 v -283 l 78,44 v 399 7 l 2,27 6,18 2,8 13,24 17,21 5,4 23,23 -9,8 -23,28 -17,32 -11,34 -3,37 v 201 l 3,36 11,35 17,32 23,28 28,23 32,17 35,11 36,3 h 172 l 36,-3 35,-11 32,-17 28,-23 23,-28 17,-32 10,-35 4,-36 v -201 l -4,-37 -10,-34 -17,-32 -23,-28 -28,-23 -32,-17 -30,-9 -12,-23 -17,-21 -6,-4 -64,-65 h 36 l 34,-35 v -241 h 79 v 241 l 34,35 h 84 l 27,-2 26,-8 24,-13 21,-17 17,-21 13,-24 8,-26 3,-27 -1,-103 -35,-35 h -221 -79 -8 v -79 h 8 v -241 l -34,-34 -84,-1 -27,3 -26,8 -24,12 -11,10 -473,-270 v -390 l 88,88 v 245 l 2,19 6,18 9,17 12,15 15,13 17,9 19,6 19,1 h 315 l 19,-1 19,-6 17,-9 15,-13 12,-15 9,-17 6,-18 2,-19 v -355 l -2,-19 -6,-19 -9,-17 -12,-15 -15,-12 -17,-9 -19,-6 -19,-2 h -205 l -120,-119 v -76 l 74,-1 35,-35 v -241 h 78 v 241 l 35,35 83,1 27,-3 26,-8 24,-13 21,-17 18,-21 12,-24 8,-26 3,-27 -1,-103 -34,-35 h -222 -78 -8 v -78 h 8 v -242 h 78 v 242 h 222 l 34,-35 1,-103 -3,-27 -8,-26 -12,-24 -18,-21 -21,-17 -24,-13 -26,-8 -27,-3 -83,1 -35,34 h -78 l -19,-18 137,-137 6,-4 14,-17 5,-6 13,-26 1,-2 8,-25 2,-22 v 0 l 1,-7 -1,-8 v -758 l 27,2 h 180 v 2306 l -1,7 3,27 4,16 3,10 13,24 17,21 6,4 153,153 -66,1 -34,34 v 241 h 221 l 35,-34 v -85 l 90,89 4,5 21,17 24,13 15,5 7,24 17,32 23,28 28,23 32,17 35,11 36,4 h 202 l 36,-4 35,-11 32,-17 28,-23 23,-28 17,-32 10,-34 4,-37 v -172 l -4,-36 -10,-35 -17,-32 -23,-28 -28,-23 -32,-17 -35,-10 -36,-4 h -202 l -36,4 -35,10 -32,17 -28,23 -14,18 -266,-266 v -671 h 295 l 20,-2 18,-5 17,-10 14,-11 v 280 l -24,7 -32,17 -28,23 -23,28 -17,32 -10,35 -4,36 v 172 l 4,37 10,34 17,32 23,28 28,23 32,17 35,11 36,3 h 202 l 36,-3 35,-11 32,-17 28,-23 23,-28 17,-32 10,-34 4,-37 v -172 l -4,-36 -10,-35 -17,-32 -23,-28 -28,-23 -32,-17 -24,-7 v -231 l 16,8 25,8 28,3 83,-1 35,-35 v -241 h 78 v 241 l 35,35 83,1 27,-3 26,-8 24,-13 21,-17 18,-21 12,-24 8,-26 3,-27 -1,-103 -34,-35 h -222 -78 -8 v -78 h 8 v -242 h 78 v 242 h 222 l 34,-35 1,-103 -3,-27 -8,-26 -12,-24 -18,-21 -21,-17 -24,-13 -26,-8 -27,-3 -83,1 -35,34 h -78 l -35,-34 -83,-1 -28,3 -25,8 -24,13 -21,17 -18,21 -12,24 -8,26 -3,27 1,103 34,35 h -34 v 27 l -88,-87 -4,-6 -23,-18 -25,-14 -28,-9 -22,-2 v 0 h -7 v -29 l -2,-19 -5,-19 -9,-17 -13,-15 -15,-12 -17,-10 -18,-5 -20,-2 h -295 v -986 l 496,-496 30,6 h 51 l 49,-10 47,-19 41,-28 36,-36 28,-42 19,-46 10,-50 v -50 l -10,-50 -19,-46 -28,-42 -36,-36 -41,-28 -47,-19 -49,-10 h -51 l -49,10 -45,18 3,-2 28,-42 19,-47 10,-49 v -51 l -10,-49 -19,-47 -10,-15 v -16 l 34,34 84,1 27,-3 26,-8 24,-12 21,-18 17,-21 13,-24 8,-26 2,-27 v -103 l -35,-34 h -221 v 8 h -79 v -8 h -221 l -35,34 v 103 l 2,27 -5,3 -42,28 -35,35 -28,42 -20,47 -10,49 v 51 l 10,49 20,47 28,42 35,35 h 1 l -155,155 9,-30 4,-36 v -172 l -4,-36 -10,-35 -17,-32 -23,-28 -28,-23 -32,-17 -25,-7 v -95 h 30 l 19,-2 19,-5 17,-9 15,-13 12,-15 9,-17 6,-18 2,-20 v -354 h 196 v 104 l 35,34 h 221 v -241 h 79 v 241 h 221 l 35,-34 v -104 l -2,-27 -8,-26 -13,-24 -17,-21 -21,-17 -24,-13 -26,-8 -27,-2 h -84 l -34,35 h -79 l -34,-35 h -84 l -27,2 -26,8 -24,13 -21,17 -17,21 -13,24 -8,26 -2,27 h -196 l -2,-19 -6,-19 -9,-17 -12,-15 -15,-12 -17,-9 -19,-6 -19,-2 h -305 v -568 l 156,156 5,6 12,10 10,8 19,10 7,4 28,8 21,3 v 0 h 7 v 29 l 2,19 6,19 9,17 12,15 15,12 17,9 19,6 19,2 h 315 l 19,-2 19,-6 17,-9 15,-12 12,-15 9,-17 6,-19 2,-19 v -354 l -2,-20 -6,-18 -9,-17 -12,-15 -15,-12 -17,-10 -19,-5 -19,-2 h -315 l -19,2 -19,5 -17,10 -15,12 -12,15 -9,17 -3,10 -42,-42 -2,-7 -5,-8 -9,-17 -3,-4 -16,-19 -5,-4 -188,-188 v -50 l 1,-7 -2,-13 -1,-16 -9,-28 -1,-3 v -29 l 70,70 4,6 6,4 17,14 17,9 8,5 28,8 22,2 v 0 l 7,1 7,-1 h 365 l 859,859 v 1885 l -337,336 h -225 l -19,2 -18,6 -17,9 -15,12 -13,15 -9,18 -6,18 -1,19 v 355 l 1,19 6,19 9,17 13,15 15,12 17,9 18,6 19,2 h 315 l 20,-2 18,-6 17,-9 15,-12 13,-15 9,-17 5,-19 2,-19 v -225 l 394,-394 6,-5 18,-22 14,-26 9,-28 2,-21 v 0 -8 -7 -345 l 637,637 -13,7 -15,12 -12,15 -9,18 -6,18 -2,19 v 355 l 2,19 6,19 9,17 12,15 15,12 17,9 19,6 19,2 h 269 l -250,250 -6,4 -5,7 -12,-9 -17,-10 -19,-5 -19,-2 h -315 l -19,2 -19,5 -17,10 -15,12 -12,15 -9,17 -6,19 -2,19 v 354 l 2,19 6,19 9,17 12,15 15,12 17,10 19,5 9,1 v 174 l -24,7 -32,18 -28,23 -23,28 -17,32 -11,34 -3,36 v 173 l 3,36 11,34 17,32 23,29 28,23 32,17 35,10 36,4 h 202 l 36,-4 9,-3 -84,84 h -163 l -36,4 -35,11 -32,17 -28,23 -23,28 -17,32 -11,34 -3,37 v 172 l 3,36 11,35 17,32 23,28 28,23 32,17 35,10 36,4 h 202 l 36,-4 34,-10 32,-17 28,-23 23,-28 18,-32 10,-35 4,-36 v -163 l 167,-168 6,-5 18,-22 14,-26 9,-28 2,-21 v 0 -8 -7 -710 l 10,13 21,17 24,13 26,8 27,3 84,-1 34,-35 v -241 h 79 v 241 l 34,35 84,1 27,-3 26,-8 24,-13 21,-17 17,-21 13,-24 8,-26 2,-27 v -103 l -35,-35 h -221 -79 -8 v -78 h 8 v -242 h 79 v 242 h 221 l 35,-35 v -103 l -2,-27 -8,-26 -13,-24 -17,-21 -21,-17 -24,-13 -26,-8 -27,-3 -84,1 -34,34 h -79 l -18,-18 68,-68 6,-5 13,-15 5,-7 14,-26 v 0 l 8,-27 2,-22 v 0 l 1,-7 -1,-8 v -576 l 1,-7 -1,-7 -2,-22 -8,-28 -7,-12 -7,-13 -10,-13 -8,-10 -6,-4 -552,-553 v -49 l 43,35 63,34 69,21 53,5 h 36 l 54,-5 68,-21 63,-34 56,-46 45,-55 34,-63 21,-69 7,-71 h 56 l 7,71 20,69 34,63 46,55 55,46 64,34 68,21 54,5 h 35 l 54,-5 69,-21 63,-34 55,-46 46,-55 34,-63 20,-69 7,-71 -7,-72 -20,-68 -34,-64 -46,-55 -55,-46 -63,-33 -69,-21 -54,-5 h -35 l -54,5 -68,21 -64,33 -55,46 -46,55 -34,64 -20,68 -7,72 h -56 l -7,-72 -21,-68 -34,-64 -45,-55 -56,-46 -63,-33 -68,-21 -54,-5 h -36 l -53,5 -69,21 -63,33 -43,36 v -250 l 43,36 63,33 69,21 53,5 h 36 l 54,-5 68,-21 63,-33 56,-46 45,-55 34,-64 21,-68 7,-72 h 56 l 7,72 20,68 34,64 46,55 55,46 64,33 68,21 54,5 h 35 l 54,-5 69,-21 63,-33 55,-46 46,-55 34,-64 20,-68 7,-72 -7,-71 -20,-69 -34,-63 -46,-55 -55,-46 -63,-34 -69,-21 -54,-5 h -35 l -54,5 -68,21 -64,34 -55,46 -46,55 -34,63 -20,69 -7,71 h -56 l -7,-71 -21,-69 -34,-63 -45,-55 -56,-46 -63,-34 -68,-21 -54,-5 h -36 l -53,5 -69,21 -63,34 -43,35 v -249 l 43,35 63,34 69,21 53,5 h 36 l 54,-5 68,-21 63,-34 56,-45 45,-56 34,-63 21,-69 7,-71 h 56 l 7,71 20,69 34,63 46,56 55,45 64,34 68,21 54,5 h 35 l 54,-5 69,-21 63,-34 55,-45 46,-56 34,-63 20,-69 7,-71 -7,-71 -20,-69 -34,-63 -46,-56 -55,-45 -63,-34 -69,-21 -54,-5 h -35 l -54,5 -68,21 -64,34 -55,45 -46,56 -34,63 -20,69 -7,71 h -56 l -7,-71 -21,-69 -34,-63 -45,-56 -56,-45 -63,-34 -68,-21 -54,-5 h -36 l -53,5 -69,21 -63,34 -43,35 v -249 l 43,35 63,34 69,20 53,6 h 36 l 54,-6 68,-20 63,-34 56,-46 45,-55 34,-63 21,-69 7,-71 h 56 l 7,71 20,69 34,63 46,55 55,46 64,34 68,20 54,6 h 35 l 54,-6 69,-20 63,-34 55,-46 46,-55 34,-63 20,-69 7,-71 -7,-72 -20,-69 -34,-63 -46,-55 -55,-46 -63,-34 -69,-20 -54,-6 h -35 l -54,6 -68,20 -64,34 -55,46 -46,55 -34,63 -20,69 -7,72 h -56 l -7,-72 -21,-69 -34,-63 -45,-55 -56,-46 -63,-34 -68,-20 -54,-6 h -36 l -53,6 -69,20 -63,34 -43,35 v -249 l 43,35 63,34 69,21 53,5 h 36 l 54,-5 68,-21 63,-34 56,-45 45,-56 34,-63 21,-68 7,-72 h 56 l 7,72 20,68 34,63 46,56 55,45 64,34 68,21 54,5 h 35 l 54,-5 69,-21 63,-34 55,-45 46,-56 34,-63 20,-68 7,-72 -7,-71 -20,-69 -34,-63 -46,-56 -55,-45 -63,-34 -69,-21 -54,-5 h -35 l -54,5 -68,21 -64,34 -55,45 -46,56 -34,63 -20,69 -7,71 h -56 l -7,-71 -21,-69 -34,-63 -45,-56 -56,-45 -63,-34 -68,-21 -54,-5 h -36 l -53,5 -69,21 -63,34 -43,35 v -63 l 114,-115 61,19 53,5 h 36 l 54,-5 68,-21 63,-34 56,-46 45,-55 34,-63 21,-69 7,-71 h 56 l 7,71 20,69 34,63 46,55 55,46 64,34 68,21 54,5 h 35 l 54,-5 69,-21 63,-34 55,-46 46,-55 34,-63 20,-69 7,-71 -7,-72 -20,-68 -34,-64 -46,-55 -55,-46 -63,-33 -69,-21 -54,-5 h -35 l -54,5 -68,21 -64,33 -55,46 -46,55 -34,64 -20,68 -7,72 h -56 l -7,-72 -21,-68 -34,-64 -45,-55 -56,-46 -63,-33 -68,-21 -54,-5 h -36 l -53,5 -69,21 -63,33 -56,46 -45,55 -34,64 -21,68 -7,72 7,71 19,61 -153,152 -5,5 -19,22 -14,26 -8,27 -1,14 -2,15 1,8 v 3849 l -197,-197 v -1900 l 1,-8 -1,-9 -2,-20 -9,-27 -8,-17 -5,-9 -8,-10 -11,-13 -5,-4 -1172,-1172 v -163 l -4,-36 -10,-35 -17,-32 -23,-28 -28,-23 -32,-17 -35,-10 -36,-4 h -202 l -36,4 -35,10 -27,15 v -136 l 27,15 35,11 36,3 h 202 l 36,-3 35,-11 32,-17 28,-23 23,-28 17,-32 10,-35 4,-36 v -172 l -4,-36 -10,-35 -17,-32 -23,-28 -28,-23 -32,-17 -24,-7 v -126 l 40,-27 50,-51 40,-59 27,-66 14,-71 v -71 l -14,-70 -27,-67 -40,-59 -50,-51 -60,-40 -66,-27 -70,-14 h -72 l -70,14 -66,27 -60,40 -50,51 -40,59 -27,67 -14,70 v 45 l -37,-37 -1,-6 -8,-27 -14,-26 -19,-23 v 0 l 9,-7 23,-29 17,-32 11,-34 3,-36 v -173 l -3,-36 -11,-34 -16,-30 h 2332 v 531 l 2,19 6,19 9,17 12,15 15,12 18,9 18,6 19,2 h 532 l 19,-2 19,-6 17,-9 15,-12 12,-15 9,-17 6,-19 2,-19 v -164 h 32 l 9,31 33,72 47,64 58,53 68,41 74,28 62,-24 v -327 h 79 v 327 l 62,24 74,-28 68,-41 58,-53 47,-64 33,-72 9,-31 -23,-62 h -328 -79 -327 l -24,62 h -32 v -203 h 32 l 24,62 h 327 v -328 h 79 v 328 h 328 l 23,-62 -9,-31 -33,-72 -47,-64 -58,-54 -68,-41 -74,-27 -62,23 h -79 l -62,-23 -74,27 -68,41 -58,54 -47,64 -33,72 -9,31 h -32 v -164 l -2,-20 -6,-18 -9,-17 -12,-15 -15,-13 -17,-9 -19,-5 -19,-2 h -532 l -19,2 -18,5 -18,9 -15,13 -12,15 -9,17 -6,18 -2,20 h -2332 l -1,-2 -23,-28 -28,-23 -32,-17 -35,-11 -36,-4 h -202 l -36,4 -34,11 -32,17 -28,23 -23,28 -17,32 -11,34 -4,36 v 173 l 4,36 11,34 17,32 23,29 28,23 32,17 34,10 v 1 l 13,24 1,2 18,22 6,5 71,71 1,6 8,27 14,26 19,23 5,4 6,6 -17,-2 v 0 l -8,-1 -7,1 h -207 l -189,-189 v -1000 h 117 v 173 l 4,36 11,34 17,32 23,28 28,23 32,18 34,10 36,4 h 202 l 36,-4 35,-10 32,-18 28,-23 23,-28 17,-32 3,-9 h 576 l 56,38 66,27 70,14 h 72 l 70,-14 66,-27 60,-40 50,-51 40,-59 27,-66 14,-71 v -71 l -14,-70 -27,-67 -40,-59 -50,-51 -60,-40 -66,-27 -70,-14 h -72 l -70,14 -66,27 -60,40 -50,51 -40,59 -27,67 -14,70 v 25 h -441 l -3,-9 -17,-32 -23,-28 -28,-23 -32,-18 -35,-10 -36,-4 h -202 l -36,4 -34,10 -32,18 -28,23 -23,28 -17,32 -11,34 -4,36 h -117 v -295 l 110,-111 h 258 l 17,32 23,28 28,23 32,17 35,10 36,4 h 201 l 37,-4 34,-10 32,-17 28,-23 23,-28 17,-32 11,-35 4,-36 v -172 l -4,-36 -11,-35 -17,-32 -23,-28 -28,-23 -32,-17 -34,-11 -37,-3 h -201 l -36,3 -35,11 -32,17 -28,23 -23,28 -17,32 -6,18 -3,1 h -303 l -7,-1 -7,1 v 0 l -22,2 -28,9 -25,13 -23,19 -4,5 -117,117 v -275 l 107,-108 v 0 l 3,-3 h 178 l 36,-3 34,-11 32,-17 28,-23 23,-28 18,-32 10,-35 4,-36 v -162 h 58 v 172 l 3,36 11,35 17,32 23,28 28,23 32,17 35,10 36,4 h 201 l 37,-4 34,-10 32,-17 28,-23 23,-28 17,-32 3,-10 h 105 v 1 l 40,59 50,51 60,40 66,27 70,14 h 72 l 70,-14 66,-27 60,-40 50,-51 40,-59 27,-66 14,-71 v -71 l -14,-70 -27,-67 -40,-59 -50,-51 -60,-40 -66,-27 -70,-14 h -72 l -70,14 -66,27 -60,40 -50,51 -40,59 -20,49 h -85 l -3,-9 -17,-32 -23,-28 -28,-23 -32,-17 -34,-11 -37,-3 h -201 l -36,3 -35,11 -32,17 -28,23 -23,28 -17,32 -11,35 -3,36 h -58 v -10 l -4,-36 -10,-35 -18,-32 -23,-28 -28,-23 -32,-17 -34,-11 -36,-3 h -202 l -36,3 -35,11 -32,17 -28,23 -23,28 -17,32 -11,35 -3,36 v 172 5 l -132,132 -5,4 -17,21 -11,20 -2,4 -8,26 -3,27 1,7 v 2510 l -20,-19 v -2795 l 24,-7 32,-17 28,-23 23,-28 18,-32 10,-35 4,-36 v -172 l -4,-36 -10,-35 -18,-32 -23,-28 -28,-23 -32,-17 -34,-11 -36,-3 h -202 l -36,3 -35,11 -32,17 -28,23 -23,28 -17,32 -11,35 -3,36 v 172 l 3,36 11,35 17,32 23,28 28,23 32,17 24,7 v 2849 l -1,7 2,19 1,10 3,9 6,19 12,22 1,3 19,23 5,4 2,2 -47,-32 -66,-27 -70,-14 h -72 l -70,14 -66,27 -60,40 -50,51 -40,59 -27,67 -14,70 h -88 v -3154 l 62,-61 h 177 l 36,-4 35,-10 32,-17 28,-23 23,-28 17,-32 10,-35 4,-36 v -172 l -4,-36 -10,-35 -17,-32 -23,-28 -28,-23 -32,-17 -35,-11 -36,-3 h -202 l -36,3 -35,11 -32,17 -28,23 -23,28 -17,32 -11,35 -3,36 v 172 4 l -58,59 -4,-35 -10,-35 -17,-32 -23,-28 -28,-23 -32,-17 -35,-11 -36,-3 h -202 l -36,3 -35,11 -32,17 -28,23 -23,28 -17,32 -10,35 -4,36 v 172 l 4,36 10,35 17,32 23,28 28,23 32,17 35,11 36,3 h 160 v 340 0 l -2,-1 -11,-7 -11,-6 h -2 l -1,-1 -13,-4 -12,-4 h -1 l -2,-1 -13,-1 -13,-1 h -9 -313 v -120 l -4,-36 -10,-35 -17,-32 -23,-28 -28,-23 -32,-17 -35,-10 -36,-4 h -202 l -36,4 -35,10 -32,17 -28,23 -23,28 -17,32 -10,35 -4,36 v 172 l 4,36 10,35 17,32 23,28 28,23 32,17 35,11 36,3 h 163 l 10,10 5,6 22,18 26,14 28,8 21,3 v 0 h 8 7 293 v 115 l -14,-17 -28,-23 -32,-17 -35,-11 -36,-3 h -202 l -36,3 -34,11 -32,17 -29,23 -23,28 -17,32 -2,9 h -456 l -3,-11 -27,-67 -40,-59 -50,-51 -60,-40 -66,-27 -70,-14 h -72 l -70,14 -66,27 -60,40 -50,51 -40,59 -27,67 -14,70 v 71 l 14,71 27,66 40,59 50,51 60,40 66,27 70,14 h 72 l 70,-14 66,-27 60,-40 50,-51 21,-31 h 505 l 2,10 17,32 23,28 29,23 32,17 34,10 36,4 h 202 l 36,-4 35,-10 32,-17 28,-23 14,-18 v 221 l -14,-17 -28,-23 -32,-17 -35,-11 -36,-3 h -202 l -36,3 -34,11 -32,17 -29,23 -23,28 -17,32 -10,35 -4,36 v 172 l 4,36 10,35 17,32 23,28 18,14 -2,2 -8,28 -2,19 -1,10 1,8 v 283 l -267,266 -5,5 -14,16 -25,-13 -24,-7 v -81 l 65,-27 60,-40 50,-51 40,-59 27,-66 14,-71 v -71 l -14,-70 -27,-67 -40,-59 -50,-51 -60,-40 -66,-27 -70,-14 h -72 l -70,14 -66,27 -60,40 -50,51 -40,59 -27,67 -14,70 v 71 l 14,71 27,66 40,59 50,51 44,29 v 119 l -24,7 -32,17 -28,23 -23,28 -17,32 -11,35 -3,36 v 172 l 3,36 11,35 17,32 23,28 28,23 32,17 35,11 36,3 h 201 l 37,-3 30,-10 v 104 l -30,-9 -37,-4 h -201 l -36,4 -35,10 -32,17 -28,23 -23,28 -17,32 -3,10 h -461 l -8,-1 -7,1 v 0 l -21,2 -28,8 -26,14 -22,18 -5,6 -582,582 v -147 l 25,-17 36,-35 28,-42 19,-47 10,-49 v -51 l -10,-49 -19,-47 -28,-41 -36,-36 -41,-28 -47,-19 -49,-10 h -51 l -49,10 -47,19 -42,28 -35,36 -28,41 -20,47 -10,49 v 51 l 10,49 20,47 28,42 35,35 26,17 v 2954 h -132 l -6,-1 -27,3 -8,2 -18,6 -24,13 -21,17 -5,5 -662,662 -5,5 -17,21 -13,24 -6,19 -2,7 -3,27 1,6 v 483 l -1,7 3,27 4,14 4,12 13,24 17,21 5,4 228,228 h -234 l -19,2 -18,5 -18,10 -14,12 -13,15 -9,17 -6,19 -1,19 v 354 l 1,19 6,19 9,17 13,15 14,12 18,10 18,5 10,1 v 253 l -24,7 -32,17 -28,23 -23,28 -18,32 -10,35 -4,36 h -718 v -3297 h 40 v 143 l 28,141 55,132 79,120 102,101 119,80 133,55 140,28 h 144 l 140,-28 133,-55 119,-80 102,-101 79,-120 55,-132 28,-141 v -143 l -28,-141 -55,-133 -79,-119 -102,-101 -119,-80 -133,-55 -140,-28 h -144 l -140,28 -133,55 -119,80 -102,101 -79,119 -55,133 -28,141 h -40 v -6209 h 2889 v 71 l 14,71 27,66 40,59 50,51 60,40 66,27 70,14 h 72 l 70,-14 66,-27 60,-40 50,-51 40,-59 27,-66 3,-13 h 78 l 3,9 17,32 23,28 28,23 32,17 35,11 36,3 h 202 l 36,-3 35,-11 32,-17 28,-23 23,-28 17,-32 10,-35 4,-36 v -172 l -4,-36 -10,-35 -17,-32 -23,-28 -28,-23 -32,-17 -35,-11 -36,-3 h -202 l -36,3 -35,11 -32,17 -28,23 -23,28 -17,32 -3,9 h -128 l -20,-29 -50,-51 -60,-40 -66,-27 -70,-14 h -72 l -70,14 -66,27 -60,40 -50,51 -40,59 -27,67 -14,70 h -2889 v -878 h 40 v 143 l 28,141 55,133 79,119 102,101 119,80 133,55 140,28 h 144 l 140,-28 133,-55 119,-80 102,-101 79,-119 55,-133 28,-141 v -143 l -16,-82 h 2071 v 71 l 14,71 27,66 40,59 50,51 60,40 66,27 70,14 h 72 l 70,-14 24,-10 115,114 4,6 23,18 26,14 27,8 22,3 v 0 h 7 8 36 l 3,9 17,32 23,28 28,23 32,17 35,10 36,4 h 202 l 36,-4 35,-10 32,-17 28,-23 23,-28 17,-32 10,-35 4,-36 v -172 l -4,-36 -10,-35 -17,-32 -23,-28 -28,-23 -32,-17 -35,-11 -36,-3 h -202 l -36,3 -35,11 -32,17 -28,23 -23,28 -15,29 -64,-64 10,-24 14,-71 v -71 l -14,-70 -27,-67 -40,-59 -50,-51 -60,-40 -66,-27 -70,-14 h -72 l -70,14 -66,27 -60,40 -50,51 -40,59 -27,67 -14,70 h -2071 l -12,-59 -55,-132 -79,-120 -102,-101 -119,-80 -122,-50 h 3593 v 71 l 14,71 27,66 40,59 50,51 60,40 24,10 v 51 7 l 1,13 1,16 9,28 14,25 18,23 6,4 83,84 v 163 l 3,36 11,35 17,32 23,28 28,23 32,17 35,10 36,4 h 202 l 36,-4 35,-10 32,-17 28,-23 23,-28 17,-32 10,-35 4,-36 v -172 h 58 v 172 l 3,36 11,35 17,32 23,28 28,23 32,17 35,10 36,4 h 202 l 36,-4 34,-10 32,-17 28,-23 23,-28 18,-32 2,-7 h 70 v 172 l 3,36 11,35 17,32 23,28 28,23 32,17 35,10 36,4 h 202 l 36,-4 34,-10 32,-17 28,-23 23,-28 18,-32 2,-9 h 33 8 7 v 0 l 22,-3 27,-8 26,-14 23,-18 4,-6 114,-114 25,10 70,14 h 72 l 70,-14 66,-27 60,-40 50,-51 40,-59 27,-66 12,-60 h 2060 v 143 l 28,141 55,133 80,119 101,101 120,80 132,55 141,28 h 143 l 141,-28 133,-55 119,-80 101,-101 80,-119 55,-133 28,-141 v -143 l -28,-141 -55,-132 -80,-120 -101,-101 -119,-80 -133,-55 -141,-28 h -143 l -141,28 -132,55 -120,80 -101,101 -80,120 -55,132 -28,141 h -2060 l 2,-11 v -71 l -14,-70 -27,-67 -40,-59 -50,-51 -60,-40 -66,-27 -70,-14 h -72 l -70,14 -66,27 -60,40 -50,51 -40,59 -27,67 -14,70 v 71 l 14,71 10,24 -62,61 -14,-26 -23,-28 -28,-23 -32,-17 -34,-11 -36,-3 h -202 l -36,3 -35,11 -32,17 -28,23 -23,28 -17,32 -11,35 -3,36 h -70 l 8,-28 4,-36 v -163 l 79,-80 6,-5 18,-22 14,-26 8,-28 3,-21 v 0 -8 -7 -54 l 24,-10 60,-40 50,-51 40,-59 27,-66 14,-71 v -71 l -14,-70 -27,-67 -40,-59 -50,-51 -60,-40 -66,-27 -70,-14 h -72 l -70,14 -66,27 -60,40 -50,51 -40,59 -27,67 -14,70 v 71 l 14,71 27,66 40,59 50,51 60,40 24,10 v 0 l -56,57 h -163 l -36,3 -35,11 -32,17 -28,23 -23,28 -17,32 -11,34 -3,37 h -58 l -4,-37 -10,-34 -17,-32 -23,-28 -28,-23 -32,-17 -35,-11 -36,-3 h -164 l -57,-58 22,-9 60,-40 50,-51 40,-59 27,-66 14,-71 v -71 l -14,-70 -27,-67 -40,-59 -50,-51 -60,-40 -66,-27 -70,-14 h -72 l -70,14 -66,27 -60,40 -50,51 -40,59 -27,67 -14,70 h -3593 l -11,-5 -140,-28 h -144 l -140,28 -133,55 -119,80 -102,101 -79,120 -55,132 -28,141 h -40 v -1090 h 11181 z"
         id="path5222" />
    </g>
  </g>
</svg>
