<?xml version="1.0" encoding="UTF-8" standalone="no"?>
<svg
   xmlns:dc="http://purl.org/dc/elements/1.1/"
   xmlns:cc="http://creativecommons.org/ns#"
   xmlns:rdf="http://www.w3.org/1999/02/22-rdf-syntax-ns#"
   xmlns:svg="http://www.w3.org/2000/svg"
   xmlns="http://www.w3.org/2000/svg"
   xmlns:sodipodi="http://sodipodi.sourceforge.net/DTD/sodipodi-0.dtd"
   xmlns:inkscape="http://www.inkscape.org/namespaces/inkscape"
   width="32.05146mm"
   height="37.050179mm"
   viewBox="0 0 32.05146 37.050179"
   version="1.1"
   id="svg3304"
   inkscape:version="1.0.2 (e86c8708, 2021-01-15)"
   sodipodi:docname="nixie.svg">
  <defs
     id="defs3298" />
  <sodipodi:namedview
     id="base"
     pagecolor="#ffffff"
     bordercolor="#666666"
     borderopacity="1.0"
     inkscape:pageopacity="0.0"
     inkscape:pageshadow="2"
     inkscape:zoom="0.35"
     inkscape:cx="151.99826"
     inkscape:cy="321.44466"
     inkscape:document-units="mm"
     inkscape:current-layer="layer1"
     inkscape:document-rotation="0"
     showgrid="false"
     fit-margin-top="0"
     fit-margin-left="0"
     fit-margin-right="0"
     fit-margin-bottom="0"
     inkscape:window-width="1290"
     inkscape:window-height="1174"
     inkscape:window-x="0"
     inkscape:window-y="25"
     inkscape:window-maximized="0" />
  <metadata
     id="metadata3301">
    <rdf:RDF>
      <cc:Work
         rdf:about="">
        <dc:format>image/svg+xml</dc:format>
        <dc:type
           rdf:resource="http://purl.org/dc/dcmitype/StillImage" />
        <dc:title></dc:title>
      </cc:Work>
    </rdf:RDF>
  </metadata>
  <g
     inkscape:label="Layer 1"
     inkscape:groupmode="layer"
     id="layer1"
     transform="translate(-65.617128,-63.117767)">
    <g
       style="fill:#008484;fill-opacity:0;stroke:#008484;stroke-width:47.2441;stroke-linecap:round;stroke-linejoin:round;stroke-opacity:1"
       id="g2306"
       transform="matrix(0.00254,0,0,0.00254,-82.356052,-14.855553)">
      <path
         d="m 68480,35094 h 417"
         id="path2290" />
      <path
         d="m 68480,35511 v -417"
         id="path2292" />
      <path
         d="m 69291,35094 h 811"
         id="path2294" />
      <path
         d="m 69291,35905 v -811"
         id="path2296" />
      <path
         d="m 68480,35905 h 811"
         id="path2298" />
      <path
         d="m 70102,35094 v 5559"
         id="path2300" />
      <path
         d="m 68480,35905 v 4748"
         id="path2302" />
      <path
         d="m 68480,40653 h 1622"
         id="path2304" />
    </g>
    <g
       style="fill:#008484;fill-opacity:0;stroke:#008484;stroke-width:100;stroke-linecap:round;stroke-linejoin:round;stroke-opacity:1"
       id="g2312"
       transform="matrix(0.00254,0,0,0.00254,-82.356052,-14.855553)">
      <circle
         cx="64604.5"
         cy="34383.102"
         r="3493"
         id="circle2308" />
      <path
         d="m 67604.5,34383.1 a 3000.1602,3000.1602 0 1 0 -6000,62"
         id="path2310" />
    </g>
    <g
       style="fill:#008484;fill-opacity:0;stroke:#008484;stroke-width:47.2441;stroke-linecap:round;stroke-linejoin:round;stroke-opacity:1"
       id="g2506"
       transform="matrix(0.00254,0,0,0.00254,-82.356052,-14.855553)">
      <path
         d="m 69440,41590 h -366"
         id="path2314" />
      <path
         d="m 68196,41590 h 366"
         id="path2316" />
      <path
         d="m 68196,41590 v 850"
         id="path2318" />
      <path
         d="m 69440,41590 v 575"
         id="path2320" />
      <path
         d="m 62629,41590 h -366"
         id="path2322" />
      <path
         d="m 61385,41590 h 366"
         id="path2324" />
      <path
         d="m 61385,41590 v 850"
         id="path2326" />
      <path
         d="m 62629,41590 v 575"
         id="path2328" />
      <path
         d="m 64125,41590 h -366"
         id="path2330" />
      <path
         d="m 62881,41590 h 367"
         id="path2332" />
      <path
         d="m 62881,41590 v 850"
         id="path2334" />
      <path
         d="m 64125,41590 v 575"
         id="path2336" />
      <path
         d="m 65937,38755 h -367"
         id="path2338" />
      <path
         d="m 64692,38755 h 367"
         id="path2340" />
      <path
         d="m 64692,38755 v 851"
         id="path2342" />
      <path
         d="m 65937,38755 v 575"
         id="path2344" />
      <path
         d="m 67433,38755 v 575"
         id="path2346" />
      <path
         d="m 66188,38755 v 851"
         id="path2348" />
      <path
         d="m 66188,38755 h 367"
         id="path2350" />
      <path
         d="m 67433,38755 h -367"
         id="path2352" />
      <path
         d="m 66803,43165 v 575"
         id="path2354" />
      <path
         d="m 65559,43165 v 850"
         id="path2356" />
      <path
         d="m 65559,43165 h 366"
         id="path2358" />
      <path
         d="m 66803,43165 h -366"
         id="path2360" />
      <path
         d="m 61094,41590 v 575"
         id="path2362" />
      <path
         d="m 59850,41590 v 850"
         id="path2364" />
      <path
         d="m 59850,41590 h 366"
         id="path2366" />
      <path
         d="m 61094,41590 h -366"
         id="path2368" />
      <path
         d="m 62944,38755 v 575"
         id="path2370" />
      <path
         d="m 61700,38755 v 851"
         id="path2372" />
      <path
         d="m 61700,38755 h 366"
         id="path2374" />
      <path
         d="m 62944,38755 h -366"
         id="path2376" />
      <path
         d="m 64440,38755 v 575"
         id="path2378" />
      <path
         d="m 63196,38755 v 851"
         id="path2380" />
      <path
         d="m 63196,38755 h 366"
         id="path2382" />
      <path
         d="m 64440,38755 h -366"
         id="path2384" />
      <path
         d="m 66409,41590 v 575"
         id="path2386" />
      <path
         d="m 65165,41590 v 850"
         id="path2388" />
      <path
         d="m 65165,41590 h 366"
         id="path2390" />
      <path
         d="m 66409,41590 h -366"
         id="path2392" />
      <path
         d="m 67905,41590 h -366"
         id="path2394" />
      <path
         d="m 66661,41590 h 366"
         id="path2396" />
      <path
         d="m 66661,41590 v 850"
         id="path2398" />
      <path
         d="m 67905,41590 v 575"
         id="path2400" />
      <path
         d="m 64598,43165 h -366"
         id="path2402" />
      <path
         d="m 63354,43165 h 366"
         id="path2404" />
      <path
         d="m 63354,43165 v 850"
         id="path2406" />
      <path
         d="m 64598,43165 v 575"
         id="path2408" />
      <path
         d="m 68224,43371 v -128"
         id="path2410" />
      <path
         d="m 68625,43371 v -128"
         id="path2412" />
      <path
         d="m 61413,43449 v -128"
         id="path2414" />
      <path
         d="m 61814,43449 v -128"
         id="path2416" />
      <path
         d="m 62673,43449 v -128"
         id="path2418" />
      <path
         d="m 63074,43449 v -128"
         id="path2420" />
      <path
         d="m 64720,40457 v -128"
         id="path2422" />
      <path
         d="m 65122,40457 v -128"
         id="path2424" />
      <path
         d="m 66216,40457 v -128"
         id="path2426" />
      <path
         d="m 66618,40457 v -128"
         id="path2428" />
      <path
         d="m 66171,44767 h -128"
         id="path2430" />
      <path
         d="m 66171,44366 h -128"
         id="path2432" />
      <path
         d="m 60279,43449 v -128"
         id="path2434" />
      <path
         d="m 59877,43449 v -128"
         id="path2436" />
      <path
         d="m 61728,40462 v -128"
         id="path2438" />
      <path
         d="m 62129,40462 v -128"
         id="path2440" />
      <path
         d="m 63848,40318 h -128"
         id="path2442" />
      <path
         d="m 63848,39917 h -128"
         id="path2444" />
      <path
         d="m 64917,43454 v -128"
         id="path2446" />
      <path
         d="m 65318,43454 v -128"
         id="path2448" />
      <path
         d="m 67082,43449 v -128"
         id="path2450" />
      <path
         d="m 67484,43449 v -128"
         id="path2452" />
      <path
         d="m 63961,44366 h -128"
         id="path2454" />
      <path
         d="m 63961,44767 h -128"
         id="path2456" />
      <path
         d="m 62759,36835 v -128"
         id="path2458" />
      <path
         d="m 62358,36835 v -128"
         id="path2460" />
      <path
         d="m 63066,35103 v -128"
         id="path2462" />
      <path
         d="m 63468,35103 v -128"
         id="path2464" />
      <path
         d="m 63232,33838 v -128"
         id="path2466" />
      <path
         d="m 62830,33838 v -128"
         id="path2468" />
      <path
         d="m 63862,33287 v -128"
         id="path2470" />
      <path
         d="m 63460,33287 v -128"
         id="path2472" />
      <path
         d="m 64492,33051 v -128"
         id="path2474" />
      <path
         d="m 64090,33051 v -128"
         id="path2476" />
      <path
         d="m 65122,33051 v -128"
         id="path2478" />
      <path
         d="m 64720,33051 v -128"
         id="path2480" />
      <path
         d="m 65751,33287 v -128"
         id="path2482" />
      <path
         d="m 65350,33287 v -128"
         id="path2484" />
      <path
         d="m 66381,33917 v -128"
         id="path2486" />
      <path
         d="m 65980,33917 v -128"
         id="path2488" />
      <path
         d="m 66145,35187 v -129"
         id="path2490" />
      <path
         d="m 65744,35187 v -129"
         id="path2492" />
      <path
         d="m 66854,36840 v -128"
         id="path2494" />
      <path
         d="m 66452,36840 v -128"
         id="path2496" />
      <path
         d="m 65507,37494 v 129"
         id="path2498" />
      <path
         d="m 65909,37494 v 129"
         id="path2500" />
      <path
         d="m 63625,37494 v 129"
         id="path2502" />
      <path
         d="m 63224,37494 v 129"
         id="path2504" />
    </g>
    <g
       style="fill:#008484;fill-opacity:0;stroke:#008484;stroke-width:40;stroke-linecap:round;stroke-linejoin:round;stroke-opacity:1"
       id="g2546"
       transform="matrix(0.00254,0,0,0.00254,-82.356052,-14.855553)">
      <path
         d="m 60170,35265 v -500 l 285,500 v -500"
         id="path2540" />
      <path
         d="m 60955,35265 h -285"
         id="path2542" />
      <path
         d="m 60813,35265 v -500 l -48,71 -48,48 -47,24"
         id="path2544" />
    </g>
    <g
       style="fill:#008484;fill-opacity:0;stroke:#008484;stroke-width:59.0551;stroke-linecap:round;stroke-linejoin:round;stroke-opacity:1"
       id="g2860"
       transform="matrix(0.00254,0,0,0.00254,-82.356052,-14.855553)">
      <path
         d="m 59267,36210 v -500"
         id="path2548" />
      <path
         d="m 59505,36210 v -500 l 286,500 v -500"
         id="path2550" />
      <path
         d="m 60029,36019 h 381"
         id="path2552" />
      <path
         d="m 60910,36210 h -286"
         id="path2554" />
      <path
         d="m 60767,36210 v -500 l -48,71 -47,48 -48,24"
         id="path2556" />
      <path
         d="m 61338,35877 v 333"
         id="path2558" />
      <path
         d="m 61219,35686 -119,357 h 310"
         id="path2560" />
      <path
         d="m 69490,41436 -38,-19 -37,-38 -57,-56 -37,-19 h -38"
         id="path2562" />
      <path
         d="m 69302,41398 -37,-19 -38,-37 -19,-75 v -131 l 19,-75 38,-38 37,-19 h 75 l 38,19 37,38 19,75 v 131 l -19,75 -37,37 -38,19 h -75"
         id="path2564" />
      <path
         d="m 69846,41398 h -225"
         id="path2566" />
      <path
         d="m 69733,41398 v -394 l -37,57 -38,37 -37,19"
         id="path2568" />
      <path
         d="m 62600,41593 -38,-19 -37,-37 -56,-56 -38,-19 h -37"
         id="path2570" />
      <path
         d="m 62412,41556 -37,-19 -38,-38 -18,-75 v -131 l 18,-75 38,-37 37,-19 h 75 l 38,19 37,37 19,75 v 131 l -19,75 -37,38 -38,19 h -75"
         id="path2572" />
      <path
         d="m 62731,41199 19,-18 37,-19 h 94 l 38,19 18,18 19,38 v 37 l -19,57 -225,225 h 244"
         id="path2574" />
      <path
         d="m 64096,41554 -38,-19 -37,-38 -56,-56 -38,-19 h -37"
         id="path2576" />
      <path
         d="m 63908,41516 -37,-19 -38,-37 -18,-75 v -131 l 18,-75 38,-38 37,-19 h 75 l 38,19 37,38 19,75 v 131 l -19,75 -37,37 -38,19 h -75"
         id="path2578" />
      <path
         d="m 64208,41122 h 244 l -131,150 h 56 l 38,19 18,19 19,37 v 94 l -19,38 -18,18 -38,19 h -112 l -38,-19 -19,-18"
         id="path2580" />
      <path
         d="m 65868,38680 -38,-19 -37,-38 -57,-56 -37,-19 h -38"
         id="path2582" />
      <path
         d="m 65680,38642 -37,-19 -38,-37 -19,-75 v -131 l 19,-75 38,-38 37,-19 h 75 l 38,19 37,38 19,75 v 131 l -19,75 -37,37 -38,19 h -75"
         id="path2584" />
      <path
         d="m 66186,38380 v 262"
         id="path2586" />
      <path
         d="m 66092,38230 -93,281 h 243"
         id="path2588" />
      <path
         d="m 67442,38640 -37,-18 -38,-38 -56,-56 -37,-19 h -38"
         id="path2590" />
      <path
         d="m 67255,38603 -38,-19 -37,-37 -19,-75 v -132 l 19,-75 37,-37 38,-19 h 75 l 37,19 38,37 19,75 v 132 l -19,75 -38,37 -37,19 h -75"
         id="path2592" />
      <path
         d="m 67780,38209 h -188 l -18,188 18,-19 38,-19 h 94 l 37,19 19,19 19,37 v 94 l -19,37 -19,19 -37,19 h -94 l -38,-19 -18,-19"
         id="path2594" />
      <path
         d="m 66616,43050 -38,-19 -37,-37 -57,-57 -37,-18 h -38"
         id="path2596" />
      <path
         d="m 66428,43012 -37,-18 -38,-38 -19,-75 v -131 l 19,-75 38,-38 37,-18 h 75 l 38,18 37,38 19,75 v 131 l -19,75 -37,38 -38,18 h -75"
         id="path2598" />
      <path
         d="m 66934,42619 h -75 l -37,18 -19,19 -37,56 -19,75 v 150 l 19,38 18,19 38,18 h 75 l 37,-18 19,-19 19,-38 v -93 l -19,-38 -19,-19 -37,-18 h -75 l -38,18 -18,19 -19,38"
         id="path2600" />
      <path
         d="m 61025,41632 -37,-18 -38,-38 -56,-56 -38,-19 h -37"
         id="path2602" />
      <path
         d="m 60838,41595 -38,-19 -37,-37 -19,-75 v -132 l 19,-75 37,-37 38,-19 h 75 l 37,19 38,37 18,75 v 132 l -18,75 -38,37 -37,19 h -75"
         id="path2604" />
      <path
         d="m 61137,41201 h 263 l -169,394"
         id="path2606" />
      <path
         d="m 62875,38640 -37,-18 -38,-38 -56,-56 -37,-19 h -38"
         id="path2608" />
      <path
         d="m 62688,38603 -38,-19 -37,-37 -19,-75 v -132 l 19,-75 37,-37 38,-19 h 75 l 37,19 38,37 19,75 v 132 l -19,75 -38,37 -37,19 h -75"
         id="path2610" />
      <path
         d="m 63082,38378 -38,-19 -19,-19 -18,-37 v -19 l 18,-37 19,-19 38,-19 h 75 l 37,19 19,19 19,37 v 19 l -19,37 -19,19 -37,19 h -75 l -38,19 -19,18 -18,38 v 75 l 18,37 19,19 38,19 h 75 l 37,-19 19,-19 19,-37 v -75 l -19,-38 -19,-18 -37,-19"
         id="path2612" />
      <path
         d="m 64529,38680 -38,-19 -37,-38 -56,-56 -38,-19 h -37"
         id="path2614" />
      <path
         d="m 64341,38642 -37,-19 -38,-37 -18,-75 v -131 l 18,-75 38,-38 37,-19 h 75 l 38,19 37,38 19,75 v 131 l -19,75 -37,37 -38,19 h -75"
         id="path2616" />
      <path
         d="m 64698,38642 h 75 l 37,-19 19,-18 37,-57 19,-75 v -150 l -19,-37 -18,-19 -38,-19 h -75 l -37,19 -19,19 -19,37 v 94 l 19,38 19,18 37,19 h 75 l 38,-19 18,-18 19,-38"
         id="path2618" />
      <path
         d="m 66389,41554 -38,-19 -37,-38 -57,-56 -37,-19 h -38"
         id="path2620" />
      <path
         d="m 66201,41516 -37,-19 -38,-37 -19,-75 v -131 l 19,-75 38,-38 37,-19 h 75 l 38,19 37,38 19,75 v 131 l -19,75 -37,37 -38,19 h -75"
         id="path2622" />
      <path
         d="m 66745,41516 h -225"
         id="path2624" />
      <path
         d="m 66632,41516 v -394 l -37,57 -38,37 -37,19"
         id="path2626" />
      <path
         d="m 66989,41122 h 37 l 38,19 18,19 19,37 19,75 v 94 l -19,75 -19,38 -18,18 -38,19 h -37 l -38,-19 -19,-18 -18,-38 -19,-75 v -94 l 19,-75 18,-37 19,-19 38,-19"
         id="path2628" />
      <path
         d="m 67806,41554 -37,-19 -38,-38 -56,-56 -38,-19 h -37"
         id="path2630" />
      <path
         d="m 67619,41516 -38,-19 -37,-37 -19,-75 v -131 l 19,-75 37,-38 38,-19 h 75 l 37,19 38,38 18,75 v 131 l -18,75 -38,37 -37,19 h -75"
         id="path2632" />
      <path
         d="m 68162,41516 h -225"
         id="path2634" />
      <path
         d="m 68050,41516 v -394 l -38,57 -37,37 -38,19"
         id="path2636" />
      <path
         d="m 68537,41516 h -225"
         id="path2638" />
      <path
         d="m 68425,41516 v -394 l -38,57 -37,37 -38,19"
         id="path2640" />
      <path
         d="m 64341,43050 -37,-19 -38,-37 -56,-57 -37,-18 h -38"
         id="path2642" />
      <path
         d="m 64154,43012 -38,-18 -37,-38 -19,-75 v -131 l 19,-75 37,-38 38,-18 h 75 l 37,18 38,38 19,75 v 131 l -19,75 -38,38 -37,18 h -75"
         id="path2644" />
      <path
         d="m 64698,43012 h -225"
         id="path2646" />
      <path
         d="m 64585,43012 v -393 l -37,56 -38,37 -37,19"
         id="path2648" />
      <path
         d="m 64848,42656 18,-19 38,-18 h 94 l 37,18 19,19 19,38 v 37 l -19,56 -225,225 h 244"
         id="path2650" />
      <path
         d="m 69028,43800 -131,-188"
         id="path2652" />
      <path
         d="m 68803,43800 v -394 h 150 l 38,19 19,18 18,38 v 56 l -18,38 -19,18 -38,19 h -150"
         id="path2654" />
      <path
         d="m 69403,43800 h -225"
         id="path2656" />
      <path
         d="m 69291,43800 v -394 l -38,56 -37,38 -38,18"
         id="path2658" />
      <path
         d="m 61548,44430 -131,-188"
         id="path2660" />
      <path
         d="m 61323,44430 v -394 h 150 l 38,19 18,18 19,38 v 56 l -19,38 -18,18 -38,19 h -150"
         id="path2662" />
      <path
         d="m 61698,44073 19,-18 37,-19 h 94 l 38,19 18,18 19,38 v 37 l -19,57 -225,225 h 244"
         id="path2664" />
      <path
         d="m 62847,44351 -131,-188"
         id="path2666" />
      <path
         d="m 62622,44351 v -394 h 150 l 38,19 19,19 18,37 v 56 l -18,38 -19,19 -38,18 h -150"
         id="path2668" />
      <path
         d="m 62979,43957 h 243 l -131,150 h 56 l 38,19 18,19 19,37 v 94 l -19,37 -18,19 -38,19 h -112 l -38,-19 -18,-19"
         id="path2670" />
      <path
         d="m 64304,40886 -131,-187"
         id="path2672" />
      <path
         d="m 64079,40886 v -393 h 150 l 37,18 19,19 19,38 v 56 l -19,37 -19,19 -37,19 h -150"
         id="path2674" />
      <path
         d="m 64641,40624 v 262"
         id="path2676" />
      <path
         d="m 64548,40474 -94,281 h 244"
         id="path2678" />
      <path
         d="m 65721,40571 -131,-187"
         id="path2680" />
      <path
         d="m 65496,40571 v -393 h 150 l 38,18 19,19 18,38 v 56 l -18,37 -19,19 -38,19 h -150"
         id="path2682" />
      <path
         d="m 66077,40178 h -187 l -19,187 19,-19 38,-18 h 93 l 38,18 18,19 19,38 v 93 l -19,38 -18,19 -38,18 h -93 l -38,-18 -19,-19"
         id="path2684" />
      <path
         d="m 67099,44784 -131,-188"
         id="path2686" />
      <path
         d="m 66874,44784 v -394 h 150 l 38,19 18,19 19,37 v 56 l -19,38 -18,19 -38,18 h -150"
         id="path2688" />
      <path
         d="m 67437,44390 h -75 l -38,19 -19,19 -37,56 -19,75 v 150 l 19,37 19,19 37,19 h 75 l 38,-19 18,-19 19,-37 v -94 l -19,-37 -18,-19 -38,-19 h -75 l -37,19 -19,19 -19,37"
         id="path2690" />
      <path
         d="m 60052,44508 -131,-187"
         id="path2692" />
      <path
         d="m 59827,44508 v -393 h 150 l 37,18 19,19 19,38 v 56 l -19,37 -19,19 -37,19 h -150"
         id="path2694" />
      <path
         d="m 60183,44115 h 263 l -169,393"
         id="path2696" />
      <path
         d="m 61233,40576 -131,-187"
         id="path2698" />
      <path
         d="m 61008,40576 v -393 h 150 l 38,18 18,19 19,38 v 56 l -19,37 -18,19 -38,19 h -150"
         id="path2700" />
      <path
         d="m 61458,40351 -37,-18 -19,-19 -19,-38 v -18 l 19,-38 19,-19 37,-18 h 75 l 38,18 18,19 19,38 v 18 l -19,38 -18,19 -38,18 h -75 l -37,19 -19,19 -19,37 v 75 l 19,38 19,18 37,19 h 75 l 38,-19 18,-18 19,-38 v -75 l -19,-37 -18,-19 -38,-19"
         id="path2702" />
      <path
         d="m 63438,40847 -131,-188"
         id="path2704" />
      <path
         d="m 63213,40847 v -394 h 150 l 37,19 19,19 19,37 v 56 l -19,38 -19,19 -37,18 h -150"
         id="path2706" />
      <path
         d="m 63625,40847 h 75 l 38,-19 19,-19 37,-56 19,-75 v -150 l -19,-37 -19,-19 -37,-19 h -75 l -38,19 -18,19 -19,37 v 94 l 19,37 18,19 38,19 h 75 l 37,-19 19,-19 19,-37"
         id="path2708" />
      <path
         d="m 64825,44548 -131,-188"
         id="path2710" />
      <path
         d="m 64600,44548 v -394 h 150 l 38,19 18,18 19,38 v 56 l -19,38 -18,18 -38,19 h -150"
         id="path2712" />
      <path
         d="m 65200,44548 h -225"
         id="path2714" />
      <path
         d="m 65088,44548 v -394 l -38,56 -37,38 -38,18"
         id="path2716" />
      <path
         d="m 65444,44154 h 37 l 38,19 19,18 18,38 19,75 v 94 l -19,75 -18,37 -19,19 -38,19 h -37 l -38,-19 -18,-19 -19,-37 -19,-75 v -94 l 19,-75 19,-38 18,-18 38,-19"
         id="path2718" />
      <path
         d="m 67227,44311 -132,-187"
         id="path2720" />
      <path
         d="m 67002,44311 v -393 h 150 l 37,19 19,18 19,38 v 56 l -19,37 -19,19 -37,19 h -150"
         id="path2722" />
      <path
         d="m 67602,44311 h -225"
         id="path2724" />
      <path
         d="m 67489,44311 v -393 l -37,56 -38,37 -37,19"
         id="path2726" />
      <path
         d="m 67977,44311 h -225"
         id="path2728" />
      <path
         d="m 67864,44311 v -393 l -37,56 -38,37 -37,19"
         id="path2730" />
      <path
         d="m 62384,44745 -131,-188"
         id="path2732" />
      <path
         d="m 62159,44745 v -394 h 150 l 38,19 18,18 19,38 v 56 l -19,38 -18,18 -38,19 h -150"
         id="path2734" />
      <path
         d="m 62759,44745 h -225"
         id="path2736" />
      <path
         d="m 62647,44745 v -394 l -38,56 -37,38 -38,18"
         id="path2738" />
      <path
         d="m 62909,44388 19,-18 37,-19 h 94 l 38,19 18,18 19,38 v 37 l -19,57 -225,225 h 244"
         id="path2740" />
      <path
         d="m 61361,36871 -132,-188"
         id="path2742" />
      <path
         d="m 61136,36871 v -394 h 150 l 37,19 19,18 19,38 v 56 l -19,38 -19,18 -37,19 h -150"
         id="path2744" />
      <path
         d="m 61736,36871 h -225"
         id="path2746" />
      <path
         d="m 61623,36871 v -394 l -37,56 -38,38 -37,18"
         id="path2748" />
      <path
         d="m 61867,36477 h 243 l -131,150 h 56 l 38,19 19,18 18,38 v 94 l -18,37 -19,19 -38,19 h -112 l -37,-19 -19,-19"
         id="path2750" />
      <path
         d="m 63880,35296 -131,-188"
         id="path2752" />
      <path
         d="m 63655,35296 v -394 h 150 l 38,19 19,19 18,37 v 56 l -18,38 -19,18 -38,19 h -150"
         id="path2754" />
      <path
         d="m 64255,35296 h -225"
         id="path2756" />
      <path
         d="m 64143,35296 v -394 l -38,56 -37,38 -38,18"
         id="path2758" />
      <path
         d="m 64593,35033 v 263"
         id="path2760" />
      <path
         d="m 64499,34883 -94,281 h 244"
         id="path2762" />
      <path
         d="m 61951,34272 -131,-187"
         id="path2764" />
      <path
         d="m 61726,34272 v -394 h 150 l 38,19 18,19 19,37 v 57 l -19,37 -18,19 -38,19 h -150"
         id="path2766" />
      <path
         d="m 62326,34272 h -225"
         id="path2768" />
      <path
         d="m 62214,34272 v -394 l -38,57 -37,37 -38,19"
         id="path2770" />
      <path
         d="m 62682,33878 h -187 l -19,188 19,-19 37,-19 h 94 l 38,19 18,19 19,37 v 94 l -19,38 -18,18 -38,19 h -94 l -37,-19 -19,-18"
         id="path2772" />
      <path
         d="m 62896,32146 -131,-187"
         id="path2774" />
      <path
         d="m 62671,32146 v -394 h 150 l 38,19 18,19 19,37 v 57 l -19,37 -18,19 -38,19 h -150"
         id="path2776" />
      <path
         d="m 63271,32146 h -225"
         id="path2778" />
      <path
         d="m 63158,32146 v -394 l -37,57 -38,37 -37,19"
         id="path2780" />
      <path
         d="m 63608,31752 h -75 l -37,19 -19,19 -37,56 -19,75 v 150 l 19,38 18,18 38,19 h 75 l 37,-19 19,-18 19,-38 v -94 l -19,-37 -19,-19 -37,-19 h -75 l -38,19 -18,19 -19,37"
         id="path2782" />
      <path
         d="m 63959,31634 -131,-187"
         id="path2784" />
      <path
         d="m 63734,31634 v -393 h 150 l 38,18 18,19 19,38 v 56 l -19,37 -18,19 -38,19 h -150"
         id="path2786" />
      <path
         d="m 64334,31634 h -225"
         id="path2788" />
      <path
         d="m 64221,31634 v -393 l -37,56 -38,37 -37,19"
         id="path2790" />
      <path
         d="m 64465,31241 h 263 l -169,393"
         id="path2792" />
      <path
         d="m 64536,33240 -188,131"
         id="path2794" />
      <path
         d="m 64536,33465 h -394 v -150 l 19,-38 19,-18 37,-19 h 56 l 38,19 19,18 18,38 v 150"
         id="path2796" />
      <path
         d="m 64536,32865 v 225"
         id="path2798" />
      <path
         d="m 64536,32977 h -394 l 56,38 38,37 19,38"
         id="path2800" />
      <path
         d="m 64311,32640 -19,37 -19,19 -37,19 h -19 l -37,-19 -19,-19 -19,-37 v -75 l 19,-38 19,-18 37,-19 h 19 l 37,19 19,18 19,38 v 75 l 19,37 18,19 38,19 h 75 l 37,-19 19,-19 19,-37 v -75 l -19,-38 -19,-18 -37,-19 h -75 l -38,19 -18,18 -19,38"
         id="path2802" />
      <path
         d="m 65140,31634 -131,-187"
         id="path2804" />
      <path
         d="m 64915,31634 v -393 h 150 l 38,18 18,19 19,38 v 56 l -19,37 -18,19 -38,19 h -150"
         id="path2806" />
      <path
         d="m 65515,31634 h -225"
         id="path2808" />
      <path
         d="m 65403,31634 v -393 l -38,56 -37,37 -38,19"
         id="path2810" />
      <path
         d="m 65703,31634 h 75 l 37,-18 19,-19 37,-56 19,-75 v -150 l -19,-38 -18,-19 -38,-18 h -75 l -37,18 -19,19 -19,38 v 93 l 19,38 19,19 37,18 h 75 l 38,-18 18,-19 19,-38"
         id="path2812" />
      <path
         d="m 66794,34272 -132,-187"
         id="path2814" />
      <path
         d="m 66569,34272 v -394 h 150 l 37,19 19,19 19,37 v 57 l -19,37 -19,19 -37,19 h -150"
         id="path2816" />
      <path
         d="m 66944,33916 18,-19 38,-19 h 94 l 37,19 19,19 19,37 v 38 l -19,56 -225,225 h 244"
         id="path2818" />
      <path
         d="m 67412,33878 h 38 l 37,19 19,19 19,37 19,75 v 94 l -19,75 -19,38 -19,18 -37,19 h -38 l -37,-19 -19,-18 -19,-38 -18,-75 v -94 l 18,-75 19,-37 19,-19 37,-19"
         id="path2820" />
      <path
         d="m 64943,35301 -131,-188"
         id="path2822" />
      <path
         d="m 64718,35301 v -394 h 150 l 38,19 19,18 18,38 v 56 l -18,38 -19,18 -38,19 h -150"
         id="path2824" />
      <path
         d="m 65093,34944 19,-18 37,-19 h 94 l 38,19 18,18 19,38 v 37 l -19,57 -225,225 h 244"
         id="path2826" />
      <path
         d="m 65693,35301 h -225"
         id="path2828" />
      <path
         d="m 65581,35301 v -394 l -38,56 -37,38 -38,18"
         id="path2830" />
      <path
         d="m 67266,36910 -131,-188"
         id="path2832" />
      <path
         d="m 67041,36910 v -394 h 150 l 38,19 18,19 19,37 v 56 l -19,38 -18,19 -38,18 h -150"
         id="path2834" />
      <path
         d="m 67416,36554 19,-19 37,-19 h 94 l 38,19 18,19 19,37 v 38 l -19,56 -225,225 h 244"
         id="path2836" />
      <path
         d="m 67791,36554 19,-19 37,-19 h 94 l 38,19 18,19 19,37 v 38 l -19,56 -225,225 h 244"
         id="path2838" />
      <path
         d="m 66321,37855 -131,-188"
         id="path2840" />
      <path
         d="m 66096,37855 v -394 h 150 l 38,19 18,19 19,37 v 56 l -19,38 -18,19 -38,18 h -150"
         id="path2842" />
      <path
         d="m 66471,37499 19,-19 37,-19 h 94 l 38,19 18,19 19,37 v 38 l -19,56 -225,225 h 244"
         id="path2844" />
      <path
         d="m 66827,37461 h 244 l -131,150 h 56 l 38,19 18,19 19,37 v 94 l -19,37 -18,19 -38,19 h -112 l -38,-19 -19,-19"
         id="path2846" />
      <path
         d="m 62384,37855 -131,-188"
         id="path2848" />
      <path
         d="m 62159,37855 v -394 h 150 l 38,19 18,19 19,37 v 56 l -19,38 -18,19 -38,18 h -150"
         id="path2850" />
      <path
         d="m 62534,37499 19,-19 37,-19 h 94 l 38,19 18,19 19,37 v 38 l -19,56 -225,225 h 244"
         id="path2852" />
      <path
         d="m 63097,37592 v 263"
         id="path2854" />
      <path
         d="m 63003,37442 -94,282 h 244"
         id="path2856" />
      <g
         id="g2858" />
    </g>
    <g
       style="fill:#c2c200;fill-opacity:0;stroke:#c2c200;stroke-width:19.685;stroke-linecap:round;stroke-linejoin:round;stroke-opacity:1"
       id="g2960"
       transform="matrix(0.00254,0,0,0.00254,-82.356052,-14.855553)">
      <path
         d="M 58267,30708 V 45275"
         id="path2866" />
      <path
         d="M 70866,30708 H 58267"
         id="path2868" />
      <path
         d="M 70866,45275 V 30708"
         id="path2870" />
      <path
         d="M 58267,45275 H 70866"
         id="path2872" />
      <g
         id="g2874" />
      <g
         id="g2876" />
      <g
         id="g2878" />
      <g
         id="g2880" />
      <g
         id="g2882" />
      <g
         id="g2884" />
      <g
         id="g2886" />
      <g
         id="g2888" />
      <g
         id="g2890" />
      <g
         id="g2892" />
      <g
         id="g2894" />
      <g
         id="g2896" />
      <g
         id="g2898" />
      <g
         id="g2900" />
      <g
         id="g2902" />
      <g
         id="g2904" />
      <g
         id="g2906" />
      <g
         id="g2908" />
      <g
         id="g2910" />
      <g
         id="g2912" />
      <g
         id="g2914" />
      <g
         id="g2916" />
      <g
         id="g2918" />
      <g
         id="g2920" />
      <g
         id="g2922" />
      <g
         id="g2924" />
      <g
         id="g2926" />
      <g
         id="g2928" />
      <g
         id="g2930" />
      <g
         id="g2932" />
      <g
         id="g2934" />
      <g
         id="g2936" />
      <g
         id="g2938" />
      <g
         id="g2940" />
      <g
         id="g2942" />
      <g
         id="g2944" />
      <g
         id="g2946" />
      <g
         id="g2948" />
      <g
         id="g2950" />
      <g
         id="g2952" />
      <g
         id="g2954" />
      <g
         id="g2956" />
      <g
         id="g2958" />
    </g>
  </g>
</svg>
