  0
SECTION
  2
HEADER
  9
$ANGBASE
  50
0.0
  9
$ANGDIR
  70
  1
  9
$MEASUREMENT
  70
0
  0
ENDSEC
  0
SECTION
  2
TABLES
  0
TABLE
  2
LTYPE
  70
4
  0
LTYPE
  5
40F
  2
CONTINUOUS
  70
0
  3
Solid line
  72
65
  73
0
  40
0.0
  0
LTYPE
  5
410
  2
DASHDOT
 70
0
  3
Dash Dot ____ _ ____ _
 72
65
 73
4
 40
2.0
 49
1.25
 49
-0.25
 49
0.25
 49
-0.25
  0
LTYPE
  5
411
  2
DASHED
 70
0
  3
Dashed __ __ __ __ __
 72
65
 73
2
 40
0.75
 49
0.5
 49
-0.25
  0
LTYPE
  5
43B
  2
DOTTED
 70
0
  3
Dotted .  .  .  .
 72
65
 73
2
 40
0.2
 49
0.0
 49
-0.2
  0
ENDTAB
  0
TABLE
  2
STYLE
  70
4
  0
STYLE
  2
KICAD
  70
0
  40
0
  41
1
  42
1
  50
0
  71
0
  3
isocp.shx
  0
STYLE
  2
KICADB
  70
0
  40
0
  41
1
  42
1
  50
0
  71
0
  3
isocp.shx
  0
STYLE
  2
KICADI
  70
0
  40
0
  41
1
  42
1
  50
15
  71
0
  3
isocp.shx
  0
STYLE
  2
KICADBI
  70
0
  40
0
  41
1
  42
1
  50
15
  71
0
  3
isocp.shx
  0
ENDTAB
  0
TABLE
  2
LAYER
  70
30
  0
LAYER
  2
BLACK
  70
0
  62
7
  6
CONTINUOUS
  0
LAYER
  2
GRAY1
  70
0
  62
251
  6
CONTINUOUS
  0
LAYER
  2
GRAY2
  70
0
  62
8
  6
CONTINUOUS
  0
LAYER
  2
GRAY3
  70
0
  62
9
  6
CONTINUOUS
  0
LAYER
  2
WHITE
  70
0
  62
7
  6
CONTINUOUS
  0
LAYER
  2
LYELLOW
  70
0
  62
51
  6
CONTINUOUS
  0
LAYER
  2
BLUE1
  70
0
  62
178
  6
CONTINUOUS
  0
LAYER
  2
GREEN1
  70
0
  62
98
  6
CONTINUOUS
  0
LAYER
  2
CYAN1
  70
0
  62
138
  6
CONTINUOUS
  0
LAYER
  2
RED1
  70
0
  62
18
  6
CONTINUOUS
  0
LAYER
  2
MAGENTA1
  70
0
  62
228
  6
CONTINUOUS
  0
LAYER
  2
BROWN1
  70
0
  62
58
  6
CONTINUOUS
  0
LAYER
  2
BLUE2
  70
0
  62
5
  6
CONTINUOUS
  0
LAYER
  2
GREEN2
  70
0
  62
3
  6
CONTINUOUS
  0
LAYER
  2
CYAN2
  70
0
  62
4
  6
CONTINUOUS
  0
LAYER
  2
RED2
  70
0
  62
1
  6
CONTINUOUS
  0
LAYER
  2
MAGENTA2
  70
0
  62
6
  6
CONTINUOUS
  0
LAYER
  2
BROWN2
  70
0
  62
54
  6
CONTINUOUS
  0
LAYER
  2
BLUE3
  70
0
  62
171
  6
CONTINUOUS
  0
LAYER
  2
GREEN3
  70
0
  62
91
  6
CONTINUOUS
  0
LAYER
  2
CYAN3
  70
0
  62
131
  6
CONTINUOUS
  0
LAYER
  2
RED3
  70
0
  62
11
  6
CONTINUOUS
  0
LAYER
  2
MAGENTA3
  70
0
  62
221
  6
CONTINUOUS
  0
LAYER
  2
YELLOW3
  70
0
  62
2
  6
CONTINUOUS
  0
LAYER
  2
BLUE4
  70
0
  62
5
  6
CONTINUOUS
  0
LAYER
  2
GREEN4
  70
0
  62
3
  6
CONTINUOUS
  0
LAYER
  2
CYAN4
  70
0
  62
4
  6
CONTINUOUS
  0
LAYER
  2
RED4
  70
0
  62
1
  6
CONTINUOUS
  0
LAYER
  2
MAGENTA4
  70
0
  62
6
  6
CONTINUOUS
  0
LAYER
  2
YELLOW4
  70
0
  62
2
  6
CONTINUOUS
  0
ENDTAB
  0
ENDSEC
  0
SECTION
  2
ENTITIES
0
LINE
8
BLACK
6
CONTINUOUS
10
163.349
20
-112.729
11
163.39
21
-112.742
0
LINE
8
BLACK
6
CONTINUOUS
10
163.39
20
-112.742
11
163.428
21
-112.762
0
LINE
8
BLACK
6
CONTINUOUS
10
163.428
20
-112.762
11
163.461
21
-112.789
0
LINE
8
BLACK
6
CONTINUOUS
10
163.461
20
-112.789
11
163.488
21
-112.822
0
LINE
8
BLACK
6
CONTINUOUS
10
163.488
20
-112.822
11
163.508
21
-112.86
0
LINE
8
BLACK
6
CONTINUOUS
10
163.508
20
-112.86
11
163.521
21
-112.901
0
LINE
8
BLACK
6
CONTINUOUS
10
163.521
20
-112.901
11
163.525
21
-112.944
0
LINE
8
BLACK
6
CONTINUOUS
10
163.525
20
-112.944
11
163.525
21
-113.456
0
LINE
8
BLACK
6
CONTINUOUS
10
163.525
20
-113.456
11
163.521
21
-113.499
0
LINE
8
BLACK
6
CONTINUOUS
10
163.521
20
-113.499
11
163.508
21
-113.54
0
LINE
8
BLACK
6
CONTINUOUS
10
163.508
20
-113.54
11
163.488
21
-113.578
0
LINE
8
BLACK
6
CONTINUOUS
10
163.488
20
-113.578
11
163.461
21
-113.611
0
LINE
8
BLACK
6
CONTINUOUS
10
163.461
20
-113.611
11
163.428
21
-113.638
0
LINE
8
BLACK
6
CONTINUOUS
10
163.428
20
-113.638
11
163.39
21
-113.658
0
LINE
8
BLACK
6
CONTINUOUS
10
163.39
20
-113.658
11
163.349
21
-113.671
0
LINE
8
BLACK
6
CONTINUOUS
10
163.349
20
-113.671
11
163.306
21
-113.675
0
LINE
8
BLACK
6
CONTINUOUS
10
163.306
20
-113.675
11
162.869
21
-113.675
0
LINE
8
BLACK
6
CONTINUOUS
10
162.869
20
-113.675
11
162.826
21
-113.671
0
LINE
8
BLACK
6
CONTINUOUS
10
162.826
20
-113.671
11
162.785
21
-113.658
0
LINE
8
BLACK
6
CONTINUOUS
10
162.785
20
-113.658
11
162.747
21
-113.638
0
LINE
8
BLACK
6
CONTINUOUS
10
162.747
20
-113.638
11
162.714
21
-113.611
0
LINE
8
BLACK
6
CONTINUOUS
10
162.714
20
-113.611
11
162.687
21
-113.578
0
LINE
8
BLACK
6
CONTINUOUS
10
162.687
20
-113.578
11
162.667
21
-113.54
0
LINE
8
BLACK
6
CONTINUOUS
10
162.667
20
-113.54
11
162.654
21
-113.499
0
LINE
8
BLACK
6
CONTINUOUS
10
162.654
20
-113.499
11
162.65
21
-113.456
0
LINE
8
BLACK
6
CONTINUOUS
10
162.65
20
-113.456
11
162.65
21
-112.944
0
LINE
8
BLACK
6
CONTINUOUS
10
162.65
20
-112.944
11
162.654
21
-112.901
0
LINE
8
BLACK
6
CONTINUOUS
10
162.654
20
-112.901
11
162.667
21
-112.86
0
LINE
8
BLACK
6
CONTINUOUS
10
162.667
20
-112.86
11
162.687
21
-112.822
0
LINE
8
BLACK
6
CONTINUOUS
10
162.687
20
-112.822
11
162.714
21
-112.789
0
LINE
8
BLACK
6
CONTINUOUS
10
162.714
20
-112.789
11
162.747
21
-112.762
0
LINE
8
BLACK
6
CONTINUOUS
10
162.747
20
-112.762
11
162.785
21
-112.742
0
LINE
8
BLACK
6
CONTINUOUS
10
162.785
20
-112.742
11
162.826
21
-112.729
0
LINE
8
BLACK
6
CONTINUOUS
10
162.826
20
-112.729
11
162.869
21
-112.725
0
LINE
8
BLACK
6
CONTINUOUS
10
162.869
20
-112.725
11
163.306
21
-112.725
0
LINE
8
BLACK
6
CONTINUOUS
10
163.306
20
-112.725
11
163.349
21
-112.729
0
LINE
8
BLACK
6
CONTINUOUS
10
161.774
20
-112.729
11
161.815
21
-112.742
0
LINE
8
BLACK
6
CONTINUOUS
10
161.815
20
-112.742
11
161.853
21
-112.762
0
LINE
8
BLACK
6
CONTINUOUS
10
161.853
20
-112.762
11
161.886
21
-112.789
0
LINE
8
BLACK
6
CONTINUOUS
10
161.886
20
-112.789
11
161.913
21
-112.822
0
LINE
8
BLACK
6
CONTINUOUS
10
161.913
20
-112.822
11
161.933
21
-112.86
0
LINE
8
BLACK
6
CONTINUOUS
10
161.933
20
-112.86
11
161.946
21
-112.901
0
LINE
8
BLACK
6
CONTINUOUS
10
161.946
20
-112.901
11
161.95
21
-112.944
0
LINE
8
BLACK
6
CONTINUOUS
10
161.95
20
-112.944
11
161.95
21
-113.456
0
LINE
8
BLACK
6
CONTINUOUS
10
161.95
20
-113.456
11
161.946
21
-113.499
0
LINE
8
BLACK
6
CONTINUOUS
10
161.946
20
-113.499
11
161.933
21
-113.54
0
LINE
8
BLACK
6
CONTINUOUS
10
161.933
20
-113.54
11
161.913
21
-113.578
0
LINE
8
BLACK
6
CONTINUOUS
10
161.913
20
-113.578
11
161.886
21
-113.611
0
LINE
8
BLACK
6
CONTINUOUS
10
161.886
20
-113.611
11
161.853
21
-113.638
0
LINE
8
BLACK
6
CONTINUOUS
10
161.853
20
-113.638
11
161.815
21
-113.658
0
LINE
8
BLACK
6
CONTINUOUS
10
161.815
20
-113.658
11
161.774
21
-113.671
0
LINE
8
BLACK
6
CONTINUOUS
10
161.774
20
-113.671
11
161.731
21
-113.675
0
LINE
8
BLACK
6
CONTINUOUS
10
161.731
20
-113.675
11
161.294
21
-113.675
0
LINE
8
BLACK
6
CONTINUOUS
10
161.294
20
-113.675
11
161.251
21
-113.671
0
LINE
8
BLACK
6
CONTINUOUS
10
161.251
20
-113.671
11
161.21
21
-113.658
0
LINE
8
BLACK
6
CONTINUOUS
10
161.21
20
-113.658
11
161.172
21
-113.638
0
LINE
8
BLACK
6
CONTINUOUS
10
161.172
20
-113.638
11
161.139
21
-113.611
0
LINE
8
BLACK
6
CONTINUOUS
10
161.139
20
-113.611
11
161.112
21
-113.578
0
LINE
8
BLACK
6
CONTINUOUS
10
161.112
20
-113.578
11
161.092
21
-113.54
0
LINE
8
BLACK
6
CONTINUOUS
10
161.092
20
-113.54
11
161.079
21
-113.499
0
LINE
8
BLACK
6
CONTINUOUS
10
161.079
20
-113.499
11
161.075
21
-113.456
0
LINE
8
BLACK
6
CONTINUOUS
10
161.075
20
-113.456
11
161.075
21
-112.944
0
LINE
8
BLACK
6
CONTINUOUS
10
161.075
20
-112.944
11
161.079
21
-112.901
0
LINE
8
BLACK
6
CONTINUOUS
10
161.079
20
-112.901
11
161.092
21
-112.86
0
LINE
8
BLACK
6
CONTINUOUS
10
161.092
20
-112.86
11
161.112
21
-112.822
0
LINE
8
BLACK
6
CONTINUOUS
10
161.112
20
-112.822
11
161.139
21
-112.789
0
LINE
8
BLACK
6
CONTINUOUS
10
161.139
20
-112.789
11
161.172
21
-112.762
0
LINE
8
BLACK
6
CONTINUOUS
10
161.172
20
-112.762
11
161.21
21
-112.742
0
LINE
8
BLACK
6
CONTINUOUS
10
161.21
20
-112.742
11
161.251
21
-112.729
0
LINE
8
BLACK
6
CONTINUOUS
10
161.251
20
-112.729
11
161.294
21
-112.725
0
LINE
8
BLACK
6
CONTINUOUS
10
161.294
20
-112.725
11
161.731
21
-112.725
0
LINE
8
BLACK
6
CONTINUOUS
10
161.731
20
-112.725
11
161.774
21
-112.729
0
LINE
8
BLACK
6
CONTINUOUS
10
168.961
20
-112.729
11
169.002
21
-112.742
0
LINE
8
BLACK
6
CONTINUOUS
10
169.002
20
-112.742
11
169.04
21
-112.762
0
LINE
8
BLACK
6
CONTINUOUS
10
169.04
20
-112.762
11
169.073
21
-112.789
0
LINE
8
BLACK
6
CONTINUOUS
10
169.073
20
-112.789
11
169.101
21
-112.822
0
LINE
8
BLACK
6
CONTINUOUS
10
169.101
20
-112.822
11
169.121
21
-112.86
0
LINE
8
BLACK
6
CONTINUOUS
10
169.121
20
-112.86
11
169.133
21
-112.901
0
LINE
8
BLACK
6
CONTINUOUS
10
169.133
20
-112.901
11
169.137
21
-112.944
0
LINE
8
BLACK
6
CONTINUOUS
10
169.137
20
-112.944
11
169.137
21
-113.456
0
LINE
8
BLACK
6
CONTINUOUS
10
169.137
20
-113.456
11
169.133
21
-113.499
0
LINE
8
BLACK
6
CONTINUOUS
10
169.133
20
-113.499
11
169.121
21
-113.54
0
LINE
8
BLACK
6
CONTINUOUS
10
169.121
20
-113.54
11
169.101
21
-113.578
0
LINE
8
BLACK
6
CONTINUOUS
10
169.101
20
-113.578
11
169.073
21
-113.611
0
LINE
8
BLACK
6
CONTINUOUS
10
169.073
20
-113.611
11
169.04
21
-113.638
0
LINE
8
BLACK
6
CONTINUOUS
10
169.04
20
-113.638
11
169.002
21
-113.658
0
LINE
8
BLACK
6
CONTINUOUS
10
169.002
20
-113.658
11
168.961
21
-113.671
0
LINE
8
BLACK
6
CONTINUOUS
10
168.961
20
-113.671
11
168.919
21
-113.675
0
LINE
8
BLACK
6
CONTINUOUS
10
168.919
20
-113.675
11
168.481
21
-113.675
0
LINE
8
BLACK
6
CONTINUOUS
10
168.481
20
-113.675
11
168.439
21
-113.671
0
LINE
8
BLACK
6
CONTINUOUS
10
168.439
20
-113.671
11
168.398
21
-113.658
0
LINE
8
BLACK
6
CONTINUOUS
10
168.398
20
-113.658
11
168.36
21
-113.638
0
LINE
8
BLACK
6
CONTINUOUS
10
168.36
20
-113.638
11
168.327
21
-113.611
0
LINE
8
BLACK
6
CONTINUOUS
10
168.327
20
-113.611
11
168.299
21
-113.578
0
LINE
8
BLACK
6
CONTINUOUS
10
168.299
20
-113.578
11
168.279
21
-113.54
0
LINE
8
BLACK
6
CONTINUOUS
10
168.279
20
-113.54
11
168.267
21
-113.499
0
LINE
8
BLACK
6
CONTINUOUS
10
168.267
20
-113.499
11
168.262
21
-113.456
0
LINE
8
BLACK
6
CONTINUOUS
10
168.262
20
-113.456
11
168.262
21
-112.944
0
LINE
8
BLACK
6
CONTINUOUS
10
168.262
20
-112.944
11
168.267
21
-112.901
0
LINE
8
BLACK
6
CONTINUOUS
10
168.267
20
-112.901
11
168.279
21
-112.86
0
LINE
8
BLACK
6
CONTINUOUS
10
168.279
20
-112.86
11
168.299
21
-112.822
0
LINE
8
BLACK
6
CONTINUOUS
10
168.299
20
-112.822
11
168.327
21
-112.789
0
LINE
8
BLACK
6
CONTINUOUS
10
168.327
20
-112.789
11
168.36
21
-112.762
0
LINE
8
BLACK
6
CONTINUOUS
10
168.36
20
-112.762
11
168.398
21
-112.742
0
LINE
8
BLACK
6
CONTINUOUS
10
168.398
20
-112.742
11
168.439
21
-112.729
0
LINE
8
BLACK
6
CONTINUOUS
10
168.439
20
-112.729
11
168.481
21
-112.725
0
LINE
8
BLACK
6
CONTINUOUS
10
168.481
20
-112.725
11
168.919
21
-112.725
0
LINE
8
BLACK
6
CONTINUOUS
10
168.919
20
-112.725
11
168.961
21
-112.729
0
LINE
8
BLACK
6
CONTINUOUS
10
167.386
20
-112.729
11
167.427
21
-112.742
0
LINE
8
BLACK
6
CONTINUOUS
10
167.427
20
-112.742
11
167.465
21
-112.762
0
LINE
8
BLACK
6
CONTINUOUS
10
167.465
20
-112.762
11
167.498
21
-112.789
0
LINE
8
BLACK
6
CONTINUOUS
10
167.498
20
-112.789
11
167.526
21
-112.822
0
LINE
8
BLACK
6
CONTINUOUS
10
167.526
20
-112.822
11
167.546
21
-112.86
0
LINE
8
BLACK
6
CONTINUOUS
10
167.546
20
-112.86
11
167.558
21
-112.901
0
LINE
8
BLACK
6
CONTINUOUS
10
167.558
20
-112.901
11
167.562
21
-112.944
0
LINE
8
BLACK
6
CONTINUOUS
10
167.562
20
-112.944
11
167.562
21
-113.456
0
LINE
8
BLACK
6
CONTINUOUS
10
167.562
20
-113.456
11
167.558
21
-113.499
0
LINE
8
BLACK
6
CONTINUOUS
10
167.558
20
-113.499
11
167.546
21
-113.54
0
LINE
8
BLACK
6
CONTINUOUS
10
167.546
20
-113.54
11
167.526
21
-113.578
0
LINE
8
BLACK
6
CONTINUOUS
10
167.526
20
-113.578
11
167.498
21
-113.611
0
LINE
8
BLACK
6
CONTINUOUS
10
167.498
20
-113.611
11
167.465
21
-113.638
0
LINE
8
BLACK
6
CONTINUOUS
10
167.465
20
-113.638
11
167.427
21
-113.658
0
LINE
8
BLACK
6
CONTINUOUS
10
167.427
20
-113.658
11
167.386
21
-113.671
0
LINE
8
BLACK
6
CONTINUOUS
10
167.386
20
-113.671
11
167.344
21
-113.675
0
LINE
8
BLACK
6
CONTINUOUS
10
167.344
20
-113.675
11
166.906
21
-113.675
0
LINE
8
BLACK
6
CONTINUOUS
10
166.906
20
-113.675
11
166.864
21
-113.671
0
LINE
8
BLACK
6
CONTINUOUS
10
166.864
20
-113.671
11
166.823
21
-113.658
0
LINE
8
BLACK
6
CONTINUOUS
10
166.823
20
-113.658
11
166.785
21
-113.638
0
LINE
8
BLACK
6
CONTINUOUS
10
166.785
20
-113.638
11
166.752
21
-113.611
0
LINE
8
BLACK
6
CONTINUOUS
10
166.752
20
-113.611
11
166.724
21
-113.578
0
LINE
8
BLACK
6
CONTINUOUS
10
166.724
20
-113.578
11
166.704
21
-113.54
0
LINE
8
BLACK
6
CONTINUOUS
10
166.704
20
-113.54
11
166.692
21
-113.499
0
LINE
8
BLACK
6
CONTINUOUS
10
166.692
20
-113.499
11
166.688
21
-113.456
0
LINE
8
BLACK
6
CONTINUOUS
10
166.688
20
-113.456
11
166.688
21
-112.944
0
LINE
8
BLACK
6
CONTINUOUS
10
166.688
20
-112.944
11
166.692
21
-112.901
0
LINE
8
BLACK
6
CONTINUOUS
10
166.692
20
-112.901
11
166.704
21
-112.86
0
LINE
8
BLACK
6
CONTINUOUS
10
166.704
20
-112.86
11
166.724
21
-112.822
0
LINE
8
BLACK
6
CONTINUOUS
10
166.724
20
-112.822
11
166.752
21
-112.789
0
LINE
8
BLACK
6
CONTINUOUS
10
166.752
20
-112.789
11
166.785
21
-112.762
0
LINE
8
BLACK
6
CONTINUOUS
10
166.785
20
-112.762
11
166.823
21
-112.742
0
LINE
8
BLACK
6
CONTINUOUS
10
166.823
20
-112.742
11
166.864
21
-112.729
0
LINE
8
BLACK
6
CONTINUOUS
10
166.864
20
-112.729
11
166.906
21
-112.725
0
LINE
8
BLACK
6
CONTINUOUS
10
166.906
20
-112.725
11
167.344
21
-112.725
0
LINE
8
BLACK
6
CONTINUOUS
10
167.344
20
-112.725
11
167.386
21
-112.729
0
LINE
8
BLACK
6
CONTINUOUS
10
163.85
20
-111.85
11
163.05
21
-111.85
0
LINE
8
BLACK
6
CONTINUOUS
10
163.05
20
-111.85
11
163.05
21
-110.95
0
LINE
8
BLACK
6
CONTINUOUS
10
163.05
20
-110.95
11
163.85
21
-110.95
0
LINE
8
BLACK
6
CONTINUOUS
10
163.85
20
-110.95
11
163.85
21
-111.85
0
LINE
8
BLACK
6
CONTINUOUS
10
161.95
20
-111.85
11
161.15
21
-111.85
0
LINE
8
BLACK
6
CONTINUOUS
10
161.15
20
-111.85
11
161.15
21
-110.95
0
LINE
8
BLACK
6
CONTINUOUS
10
161.15
20
-110.95
11
161.95
21
-110.95
0
LINE
8
BLACK
6
CONTINUOUS
10
161.95
20
-110.95
11
161.95
21
-111.85
0
LINE
8
BLACK
6
CONTINUOUS
10
169.45
20
-111.85
11
168.65
21
-111.85
0
LINE
8
BLACK
6
CONTINUOUS
10
168.65
20
-111.85
11
168.65
21
-110.95
0
LINE
8
BLACK
6
CONTINUOUS
10
168.65
20
-110.95
11
169.45
21
-110.95
0
LINE
8
BLACK
6
CONTINUOUS
10
169.45
20
-110.95
11
169.45
21
-111.85
0
LINE
8
BLACK
6
CONTINUOUS
10
167.55
20
-111.85
11
166.75
21
-111.85
0
LINE
8
BLACK
6
CONTINUOUS
10
166.75
20
-111.85
11
166.75
21
-110.95
0
LINE
8
BLACK
6
CONTINUOUS
10
166.75
20
-110.95
11
167.55
21
-110.95
0
LINE
8
BLACK
6
CONTINUOUS
10
167.55
20
-110.95
11
167.55
21
-111.85
0
LINE
8
BLACK
6
CONTINUOUS
10
165.699
20
-110.567
11
165.74
21
-110.579
0
LINE
8
BLACK
6
CONTINUOUS
10
165.74
20
-110.579
11
165.778
21
-110.599
0
LINE
8
BLACK
6
CONTINUOUS
10
165.778
20
-110.599
11
165.811
21
-110.627
0
LINE
8
BLACK
6
CONTINUOUS
10
165.811
20
-110.627
11
165.838
21
-110.66
0
LINE
8
BLACK
6
CONTINUOUS
10
165.838
20
-110.66
11
165.858
21
-110.698
0
LINE
8
BLACK
6
CONTINUOUS
10
165.858
20
-110.698
11
165.871
21
-110.739
0
LINE
8
BLACK
6
CONTINUOUS
10
165.871
20
-110.739
11
165.875
21
-110.781
0
LINE
8
BLACK
6
CONTINUOUS
10
165.875
20
-110.781
11
165.875
21
-111.219
0
LINE
8
BLACK
6
CONTINUOUS
10
165.875
20
-111.219
11
165.871
21
-111.261
0
LINE
8
BLACK
6
CONTINUOUS
10
165.871
20
-111.261
11
165.858
21
-111.302
0
LINE
8
BLACK
6
CONTINUOUS
10
165.858
20
-111.302
11
165.838
21
-111.34
0
LINE
8
BLACK
6
CONTINUOUS
10
165.838
20
-111.34
11
165.811
21
-111.373
0
LINE
8
BLACK
6
CONTINUOUS
10
165.811
20
-111.373
11
165.778
21
-111.401
0
LINE
8
BLACK
6
CONTINUOUS
10
165.778
20
-111.401
11
165.74
21
-111.421
0
LINE
8
BLACK
6
CONTINUOUS
10
165.74
20
-111.421
11
165.699
21
-111.433
0
LINE
8
BLACK
6
CONTINUOUS
10
165.699
20
-111.433
11
165.656
21
-111.438
0
LINE
8
BLACK
6
CONTINUOUS
10
165.656
20
-111.438
11
165.144
21
-111.438
0
LINE
8
BLACK
6
CONTINUOUS
10
165.144
20
-111.438
11
165.101
21
-111.433
0
LINE
8
BLACK
6
CONTINUOUS
10
165.101
20
-111.433
11
165.06
21
-111.421
0
LINE
8
BLACK
6
CONTINUOUS
10
165.06
20
-111.421
11
165.022
21
-111.401
0
LINE
8
BLACK
6
CONTINUOUS
10
165.022
20
-111.401
11
164.989
21
-111.373
0
LINE
8
BLACK
6
CONTINUOUS
10
164.989
20
-111.373
11
164.962
21
-111.34
0
LINE
8
BLACK
6
CONTINUOUS
10
164.962
20
-111.34
11
164.942
21
-111.302
0
LINE
8
BLACK
6
CONTINUOUS
10
164.942
20
-111.302
11
164.929
21
-111.261
0
LINE
8
BLACK
6
CONTINUOUS
10
164.929
20
-111.261
11
164.925
21
-111.219
0
LINE
8
BLACK
6
CONTINUOUS
10
164.925
20
-111.219
11
164.925
21
-110.781
0
LINE
8
BLACK
6
CONTINUOUS
10
164.925
20
-110.781
11
164.929
21
-110.739
0
LINE
8
BLACK
6
CONTINUOUS
10
164.929
20
-110.739
11
164.942
21
-110.698
0
LINE
8
BLACK
6
CONTINUOUS
10
164.942
20
-110.698
11
164.962
21
-110.66
0
LINE
8
BLACK
6
CONTINUOUS
10
164.962
20
-110.66
11
164.989
21
-110.627
0
LINE
8
BLACK
6
CONTINUOUS
10
164.989
20
-110.627
11
165.022
21
-110.599
0
LINE
8
BLACK
6
CONTINUOUS
10
165.022
20
-110.599
11
165.06
21
-110.579
0
LINE
8
BLACK
6
CONTINUOUS
10
165.06
20
-110.579
11
165.101
21
-110.567
0
LINE
8
BLACK
6
CONTINUOUS
10
165.101
20
-110.567
11
165.144
21
-110.562
0
LINE
8
BLACK
6
CONTINUOUS
10
165.144
20
-110.562
11
165.656
21
-110.562
0
LINE
8
BLACK
6
CONTINUOUS
10
165.656
20
-110.562
11
165.699
21
-110.567
0
LINE
8
BLACK
6
CONTINUOUS
10
159.999
20
-110.554
11
160.04
21
-110.567
0
LINE
8
BLACK
6
CONTINUOUS
10
160.04
20
-110.567
11
160.078
21
-110.587
0
LINE
8
BLACK
6
CONTINUOUS
10
160.078
20
-110.587
11
160.111
21
-110.614
0
LINE
8
BLACK
6
CONTINUOUS
10
160.111
20
-110.614
11
160.138
21
-110.647
0
LINE
8
BLACK
6
CONTINUOUS
10
160.138
20
-110.647
11
160.158
21
-110.685
0
LINE
8
BLACK
6
CONTINUOUS
10
160.158
20
-110.685
11
160.171
21
-110.726
0
LINE
8
BLACK
6
CONTINUOUS
10
160.171
20
-110.726
11
160.175
21
-110.769
0
LINE
8
BLACK
6
CONTINUOUS
10
160.175
20
-110.769
11
160.175
21
-111.206
0
LINE
8
BLACK
6
CONTINUOUS
10
160.175
20
-111.206
11
160.171
21
-111.249
0
LINE
8
BLACK
6
CONTINUOUS
10
160.171
20
-111.249
11
160.158
21
-111.29
0
LINE
8
BLACK
6
CONTINUOUS
10
160.158
20
-111.29
11
160.138
21
-111.328
0
LINE
8
BLACK
6
CONTINUOUS
10
160.138
20
-111.328
11
160.111
21
-111.361
0
LINE
8
BLACK
6
CONTINUOUS
10
160.111
20
-111.361
11
160.078
21
-111.388
0
LINE
8
BLACK
6
CONTINUOUS
10
160.078
20
-111.388
11
160.04
21
-111.408
0
LINE
8
BLACK
6
CONTINUOUS
10
160.04
20
-111.408
11
159.999
21
-111.421
0
LINE
8
BLACK
6
CONTINUOUS
10
159.999
20
-111.421
11
159.956
21
-111.425
0
LINE
8
BLACK
6
CONTINUOUS
10
159.956
20
-111.425
11
159.444
21
-111.425
0
LINE
8
BLACK
6
CONTINUOUS
10
159.444
20
-111.425
11
159.401
21
-111.421
0
LINE
8
BLACK
6
CONTINUOUS
10
159.401
20
-111.421
11
159.36
21
-111.408
0
LINE
8
BLACK
6
CONTINUOUS
10
159.36
20
-111.408
11
159.322
21
-111.388
0
LINE
8
BLACK
6
CONTINUOUS
10
159.322
20
-111.388
11
159.289
21
-111.361
0
LINE
8
BLACK
6
CONTINUOUS
10
159.289
20
-111.361
11
159.262
21
-111.328
0
LINE
8
BLACK
6
CONTINUOUS
10
159.262
20
-111.328
11
159.242
21
-111.29
0
LINE
8
BLACK
6
CONTINUOUS
10
159.242
20
-111.29
11
159.229
21
-111.249
0
LINE
8
BLACK
6
CONTINUOUS
10
159.229
20
-111.249
11
159.225
21
-111.206
0
LINE
8
BLACK
6
CONTINUOUS
10
159.225
20
-111.206
11
159.225
21
-110.769
0
LINE
8
BLACK
6
CONTINUOUS
10
159.225
20
-110.769
11
159.229
21
-110.726
0
LINE
8
BLACK
6
CONTINUOUS
10
159.229
20
-110.726
11
159.242
21
-110.685
0
LINE
8
BLACK
6
CONTINUOUS
10
159.242
20
-110.685
11
159.262
21
-110.647
0
LINE
8
BLACK
6
CONTINUOUS
10
159.262
20
-110.647
11
159.289
21
-110.614
0
LINE
8
BLACK
6
CONTINUOUS
10
159.289
20
-110.614
11
159.322
21
-110.587
0
LINE
8
BLACK
6
CONTINUOUS
10
159.322
20
-110.587
11
159.36
21
-110.567
0
LINE
8
BLACK
6
CONTINUOUS
10
159.36
20
-110.567
11
159.401
21
-110.554
0
LINE
8
BLACK
6
CONTINUOUS
10
159.401
20
-110.554
11
159.444
21
-110.55
0
LINE
8
BLACK
6
CONTINUOUS
10
159.444
20
-110.55
11
159.956
21
-110.55
0
LINE
8
BLACK
6
CONTINUOUS
10
159.956
20
-110.55
11
159.999
21
-110.554
0
LINE
8
BLACK
6
CONTINUOUS
10
156.799
20
-110.554
11
156.84
21
-110.567
0
LINE
8
BLACK
6
CONTINUOUS
10
156.84
20
-110.567
11
156.878
21
-110.587
0
LINE
8
BLACK
6
CONTINUOUS
10
156.878
20
-110.587
11
156.911
21
-110.614
0
LINE
8
BLACK
6
CONTINUOUS
10
156.911
20
-110.614
11
156.938
21
-110.647
0
LINE
8
BLACK
6
CONTINUOUS
10
156.938
20
-110.647
11
156.958
21
-110.685
0
LINE
8
BLACK
6
CONTINUOUS
10
156.958
20
-110.685
11
156.971
21
-110.726
0
LINE
8
BLACK
6
CONTINUOUS
10
156.971
20
-110.726
11
156.975
21
-110.769
0
LINE
8
BLACK
6
CONTINUOUS
10
156.975
20
-110.769
11
156.975
21
-111.206
0
LINE
8
BLACK
6
CONTINUOUS
10
156.975
20
-111.206
11
156.971
21
-111.249
0
LINE
8
BLACK
6
CONTINUOUS
10
156.971
20
-111.249
11
156.958
21
-111.29
0
LINE
8
BLACK
6
CONTINUOUS
10
156.958
20
-111.29
11
156.938
21
-111.328
0
LINE
8
BLACK
6
CONTINUOUS
10
156.938
20
-111.328
11
156.911
21
-111.361
0
LINE
8
BLACK
6
CONTINUOUS
10
156.911
20
-111.361
11
156.878
21
-111.388
0
LINE
8
BLACK
6
CONTINUOUS
10
156.878
20
-111.388
11
156.84
21
-111.408
0
LINE
8
BLACK
6
CONTINUOUS
10
156.84
20
-111.408
11
156.799
21
-111.421
0
LINE
8
BLACK
6
CONTINUOUS
10
156.799
20
-111.421
11
156.756
21
-111.425
0
LINE
8
BLACK
6
CONTINUOUS
10
156.756
20
-111.425
11
156.244
21
-111.425
0
LINE
8
BLACK
6
CONTINUOUS
10
156.244
20
-111.425
11
156.201
21
-111.421
0
LINE
8
BLACK
6
CONTINUOUS
10
156.201
20
-111.421
11
156.16
21
-111.408
0
LINE
8
BLACK
6
CONTINUOUS
10
156.16
20
-111.408
11
156.122
21
-111.388
0
LINE
8
BLACK
6
CONTINUOUS
10
156.122
20
-111.388
11
156.089
21
-111.361
0
LINE
8
BLACK
6
CONTINUOUS
10
156.089
20
-111.361
11
156.062
21
-111.328
0
LINE
8
BLACK
6
CONTINUOUS
10
156.062
20
-111.328
11
156.042
21
-111.29
0
LINE
8
BLACK
6
CONTINUOUS
10
156.042
20
-111.29
11
156.029
21
-111.249
0
LINE
8
BLACK
6
CONTINUOUS
10
156.029
20
-111.249
11
156.025
21
-111.206
0
LINE
8
BLACK
6
CONTINUOUS
10
156.025
20
-111.206
11
156.025
21
-110.769
0
LINE
8
BLACK
6
CONTINUOUS
10
156.025
20
-110.769
11
156.029
21
-110.726
0
LINE
8
BLACK
6
CONTINUOUS
10
156.029
20
-110.726
11
156.042
21
-110.685
0
LINE
8
BLACK
6
CONTINUOUS
10
156.042
20
-110.685
11
156.062
21
-110.647
0
LINE
8
BLACK
6
CONTINUOUS
10
156.062
20
-110.647
11
156.089
21
-110.614
0
LINE
8
BLACK
6
CONTINUOUS
10
156.089
20
-110.614
11
156.122
21
-110.587
0
LINE
8
BLACK
6
CONTINUOUS
10
156.122
20
-110.587
11
156.16
21
-110.567
0
LINE
8
BLACK
6
CONTINUOUS
10
156.16
20
-110.567
11
156.201
21
-110.554
0
LINE
8
BLACK
6
CONTINUOUS
10
156.201
20
-110.554
11
156.244
21
-110.55
0
LINE
8
BLACK
6
CONTINUOUS
10
156.244
20
-110.55
11
156.756
21
-110.55
0
LINE
8
BLACK
6
CONTINUOUS
10
156.756
20
-110.55
11
156.799
21
-110.554
0
LINE
8
BLACK
6
CONTINUOUS
10
171.199
20
-110.554
11
171.24
21
-110.567
0
LINE
8
BLACK
6
CONTINUOUS
10
171.24
20
-110.567
11
171.278
21
-110.587
0
LINE
8
BLACK
6
CONTINUOUS
10
171.278
20
-110.587
11
171.311
21
-110.614
0
LINE
8
BLACK
6
CONTINUOUS
10
171.311
20
-110.614
11
171.338
21
-110.647
0
LINE
8
BLACK
6
CONTINUOUS
10
171.338
20
-110.647
11
171.358
21
-110.685
0
LINE
8
BLACK
6
CONTINUOUS
10
171.358
20
-110.685
11
171.371
21
-110.726
0
LINE
8
BLACK
6
CONTINUOUS
10
171.371
20
-110.726
11
171.375
21
-110.769
0
LINE
8
BLACK
6
CONTINUOUS
10
171.375
20
-110.769
11
171.375
21
-111.206
0
LINE
8
BLACK
6
CONTINUOUS
10
171.375
20
-111.206
11
171.371
21
-111.249
0
LINE
8
BLACK
6
CONTINUOUS
10
171.371
20
-111.249
11
171.358
21
-111.29
0
LINE
8
BLACK
6
CONTINUOUS
10
171.358
20
-111.29
11
171.338
21
-111.328
0
LINE
8
BLACK
6
CONTINUOUS
10
171.338
20
-111.328
11
171.311
21
-111.361
0
LINE
8
BLACK
6
CONTINUOUS
10
171.311
20
-111.361
11
171.278
21
-111.388
0
LINE
8
BLACK
6
CONTINUOUS
10
171.278
20
-111.388
11
171.24
21
-111.408
0
LINE
8
BLACK
6
CONTINUOUS
10
171.24
20
-111.408
11
171.199
21
-111.421
0
LINE
8
BLACK
6
CONTINUOUS
10
171.199
20
-111.421
11
171.156
21
-111.425
0
LINE
8
BLACK
6
CONTINUOUS
10
171.156
20
-111.425
11
170.644
21
-111.425
0
LINE
8
BLACK
6
CONTINUOUS
10
170.644
20
-111.425
11
170.601
21
-111.421
0
LINE
8
BLACK
6
CONTINUOUS
10
170.601
20
-111.421
11
170.56
21
-111.408
0
LINE
8
BLACK
6
CONTINUOUS
10
170.56
20
-111.408
11
170.522
21
-111.388
0
LINE
8
BLACK
6
CONTINUOUS
10
170.522
20
-111.388
11
170.489
21
-111.361
0
LINE
8
BLACK
6
CONTINUOUS
10
170.489
20
-111.361
11
170.462
21
-111.328
0
LINE
8
BLACK
6
CONTINUOUS
10
170.462
20
-111.328
11
170.442
21
-111.29
0
LINE
8
BLACK
6
CONTINUOUS
10
170.442
20
-111.29
11
170.429
21
-111.249
0
LINE
8
BLACK
6
CONTINUOUS
10
170.429
20
-111.249
11
170.425
21
-111.206
0
LINE
8
BLACK
6
CONTINUOUS
10
170.425
20
-111.206
11
170.425
21
-110.769
0
LINE
8
BLACK
6
CONTINUOUS
10
170.425
20
-110.769
11
170.429
21
-110.726
0
LINE
8
BLACK
6
CONTINUOUS
10
170.429
20
-110.726
11
170.442
21
-110.685
0
LINE
8
BLACK
6
CONTINUOUS
10
170.442
20
-110.685
11
170.462
21
-110.647
0
LINE
8
BLACK
6
CONTINUOUS
10
170.462
20
-110.647
11
170.489
21
-110.614
0
LINE
8
BLACK
6
CONTINUOUS
10
170.489
20
-110.614
11
170.522
21
-110.587
0
LINE
8
BLACK
6
CONTINUOUS
10
170.522
20
-110.587
11
170.56
21
-110.567
0
LINE
8
BLACK
6
CONTINUOUS
10
170.56
20
-110.567
11
170.601
21
-110.554
0
LINE
8
BLACK
6
CONTINUOUS
10
170.601
20
-110.554
11
170.644
21
-110.55
0
LINE
8
BLACK
6
CONTINUOUS
10
170.644
20
-110.55
11
171.156
21
-110.55
0
LINE
8
BLACK
6
CONTINUOUS
10
171.156
20
-110.55
11
171.199
21
-110.554
0
LINE
8
BLACK
6
CONTINUOUS
10
152.899
20
-110.554
11
152.94
21
-110.567
0
LINE
8
BLACK
6
CONTINUOUS
10
152.94
20
-110.567
11
152.978
21
-110.587
0
LINE
8
BLACK
6
CONTINUOUS
10
152.978
20
-110.587
11
153.011
21
-110.614
0
LINE
8
BLACK
6
CONTINUOUS
10
153.011
20
-110.614
11
153.038
21
-110.647
0
LINE
8
BLACK
6
CONTINUOUS
10
153.038
20
-110.647
11
153.058
21
-110.685
0
LINE
8
BLACK
6
CONTINUOUS
10
153.058
20
-110.685
11
153.071
21
-110.726
0
LINE
8
BLACK
6
CONTINUOUS
10
153.071
20
-110.726
11
153.075
21
-110.769
0
LINE
8
BLACK
6
CONTINUOUS
10
153.075
20
-110.769
11
153.075
21
-111.206
0
LINE
8
BLACK
6
CONTINUOUS
10
153.075
20
-111.206
11
153.071
21
-111.249
0
LINE
8
BLACK
6
CONTINUOUS
10
153.071
20
-111.249
11
153.058
21
-111.29
0
LINE
8
BLACK
6
CONTINUOUS
10
153.058
20
-111.29
11
153.038
21
-111.328
0
LINE
8
BLACK
6
CONTINUOUS
10
153.038
20
-111.328
11
153.011
21
-111.361
0
LINE
8
BLACK
6
CONTINUOUS
10
153.011
20
-111.361
11
152.978
21
-111.388
0
LINE
8
BLACK
6
CONTINUOUS
10
152.978
20
-111.388
11
152.94
21
-111.408
0
LINE
8
BLACK
6
CONTINUOUS
10
152.94
20
-111.408
11
152.899
21
-111.421
0
LINE
8
BLACK
6
CONTINUOUS
10
152.899
20
-111.421
11
152.856
21
-111.425
0
LINE
8
BLACK
6
CONTINUOUS
10
152.856
20
-111.425
11
152.344
21
-111.425
0
LINE
8
BLACK
6
CONTINUOUS
10
152.344
20
-111.425
11
152.301
21
-111.421
0
LINE
8
BLACK
6
CONTINUOUS
10
152.301
20
-111.421
11
152.26
21
-111.408
0
LINE
8
BLACK
6
CONTINUOUS
10
152.26
20
-111.408
11
152.222
21
-111.388
0
LINE
8
BLACK
6
CONTINUOUS
10
152.222
20
-111.388
11
152.189
21
-111.361
0
LINE
8
BLACK
6
CONTINUOUS
10
152.189
20
-111.361
11
152.162
21
-111.328
0
LINE
8
BLACK
6
CONTINUOUS
10
152.162
20
-111.328
11
152.142
21
-111.29
0
LINE
8
BLACK
6
CONTINUOUS
10
152.142
20
-111.29
11
152.129
21
-111.249
0
LINE
8
BLACK
6
CONTINUOUS
10
152.129
20
-111.249
11
152.125
21
-111.206
0
LINE
8
BLACK
6
CONTINUOUS
10
152.125
20
-111.206
11
152.125
21
-110.769
0
LINE
8
BLACK
6
CONTINUOUS
10
152.125
20
-110.769
11
152.129
21
-110.726
0
LINE
8
BLACK
6
CONTINUOUS
10
152.129
20
-110.726
11
152.142
21
-110.685
0
LINE
8
BLACK
6
CONTINUOUS
10
152.142
20
-110.685
11
152.162
21
-110.647
0
LINE
8
BLACK
6
CONTINUOUS
10
152.162
20
-110.647
11
152.189
21
-110.614
0
LINE
8
BLACK
6
CONTINUOUS
10
152.189
20
-110.614
11
152.222
21
-110.587
0
LINE
8
BLACK
6
CONTINUOUS
10
152.222
20
-110.587
11
152.26
21
-110.567
0
LINE
8
BLACK
6
CONTINUOUS
10
152.26
20
-110.567
11
152.301
21
-110.554
0
LINE
8
BLACK
6
CONTINUOUS
10
152.301
20
-110.554
11
152.344
21
-110.55
0
LINE
8
BLACK
6
CONTINUOUS
10
152.344
20
-110.55
11
152.856
21
-110.55
0
LINE
8
BLACK
6
CONTINUOUS
10
152.856
20
-110.55
11
152.899
21
-110.554
0
LINE
8
BLACK
6
CONTINUOUS
10
174.099
20
-110.354
11
174.14
21
-110.367
0
LINE
8
BLACK
6
CONTINUOUS
10
174.14
20
-110.367
11
174.178
21
-110.387
0
LINE
8
BLACK
6
CONTINUOUS
10
174.178
20
-110.387
11
174.211
21
-110.414
0
LINE
8
BLACK
6
CONTINUOUS
10
174.211
20
-110.414
11
174.238
21
-110.447
0
LINE
8
BLACK
6
CONTINUOUS
10
174.238
20
-110.447
11
174.258
21
-110.485
0
LINE
8
BLACK
6
CONTINUOUS
10
174.258
20
-110.485
11
174.271
21
-110.526
0
LINE
8
BLACK
6
CONTINUOUS
10
174.271
20
-110.526
11
174.275
21
-110.569
0
LINE
8
BLACK
6
CONTINUOUS
10
174.275
20
-110.569
11
174.275
21
-111.006
0
LINE
8
BLACK
6
CONTINUOUS
10
174.275
20
-111.006
11
174.271
21
-111.049
0
LINE
8
BLACK
6
CONTINUOUS
10
174.271
20
-111.049
11
174.258
21
-111.09
0
LINE
8
BLACK
6
CONTINUOUS
10
174.258
20
-111.09
11
174.238
21
-111.128
0
LINE
8
BLACK
6
CONTINUOUS
10
174.238
20
-111.128
11
174.211
21
-111.161
0
LINE
8
BLACK
6
CONTINUOUS
10
174.211
20
-111.161
11
174.178
21
-111.188
0
LINE
8
BLACK
6
CONTINUOUS
10
174.178
20
-111.188
11
174.14
21
-111.208
0
LINE
8
BLACK
6
CONTINUOUS
10
174.14
20
-111.208
11
174.099
21
-111.221
0
LINE
8
BLACK
6
CONTINUOUS
10
174.099
20
-111.221
11
174.056
21
-111.225
0
LINE
8
BLACK
6
CONTINUOUS
10
174.056
20
-111.225
11
173.544
21
-111.225
0
LINE
8
BLACK
6
CONTINUOUS
10
173.544
20
-111.225
11
173.501
21
-111.221
0
LINE
8
BLACK
6
CONTINUOUS
10
173.501
20
-111.221
11
173.46
21
-111.208
0
LINE
8
BLACK
6
CONTINUOUS
10
173.46
20
-111.208
11
173.422
21
-111.188
0
LINE
8
BLACK
6
CONTINUOUS
10
173.422
20
-111.188
11
173.389
21
-111.161
0
LINE
8
BLACK
6
CONTINUOUS
10
173.389
20
-111.161
11
173.362
21
-111.128
0
LINE
8
BLACK
6
CONTINUOUS
10
173.362
20
-111.128
11
173.342
21
-111.09
0
LINE
8
BLACK
6
CONTINUOUS
10
173.342
20
-111.09
11
173.329
21
-111.049
0
LINE
8
BLACK
6
CONTINUOUS
10
173.329
20
-111.049
11
173.325
21
-111.006
0
LINE
8
BLACK
6
CONTINUOUS
10
173.325
20
-111.006
11
173.325
21
-110.569
0
LINE
8
BLACK
6
CONTINUOUS
10
173.325
20
-110.569
11
173.329
21
-110.526
0
LINE
8
BLACK
6
CONTINUOUS
10
173.329
20
-110.526
11
173.342
21
-110.485
0
LINE
8
BLACK
6
CONTINUOUS
10
173.342
20
-110.485
11
173.362
21
-110.447
0
LINE
8
BLACK
6
CONTINUOUS
10
173.362
20
-110.447
11
173.389
21
-110.414
0
LINE
8
BLACK
6
CONTINUOUS
10
173.389
20
-110.414
11
173.422
21
-110.387
0
LINE
8
BLACK
6
CONTINUOUS
10
173.422
20
-110.387
11
173.46
21
-110.367
0
LINE
8
BLACK
6
CONTINUOUS
10
173.46
20
-110.367
11
173.501
21
-110.354
0
LINE
8
BLACK
6
CONTINUOUS
10
173.501
20
-110.354
11
173.544
21
-110.35
0
LINE
8
BLACK
6
CONTINUOUS
10
173.544
20
-110.35
11
174.056
21
-110.35
0
LINE
8
BLACK
6
CONTINUOUS
10
174.056
20
-110.35
11
174.099
21
-110.354
0
LINE
8
BLACK
6
CONTINUOUS
10
165.699
20
-108.992
11
165.74
21
-109.004
0
LINE
8
BLACK
6
CONTINUOUS
10
165.74
20
-109.004
11
165.778
21
-109.024
0
LINE
8
BLACK
6
CONTINUOUS
10
165.778
20
-109.024
11
165.811
21
-109.052
0
LINE
8
BLACK
6
CONTINUOUS
10
165.811
20
-109.052
11
165.838
21
-109.085
0
LINE
8
BLACK
6
CONTINUOUS
10
165.838
20
-109.085
11
165.858
21
-109.123
0
LINE
8
BLACK
6
CONTINUOUS
10
165.858
20
-109.123
11
165.871
21
-109.164
0
LINE
8
BLACK
6
CONTINUOUS
10
165.871
20
-109.164
11
165.875
21
-109.206
0
LINE
8
BLACK
6
CONTINUOUS
10
165.875
20
-109.206
11
165.875
21
-109.644
0
LINE
8
BLACK
6
CONTINUOUS
10
165.875
20
-109.644
11
165.871
21
-109.686
0
LINE
8
BLACK
6
CONTINUOUS
10
165.871
20
-109.686
11
165.858
21
-109.727
0
LINE
8
BLACK
6
CONTINUOUS
10
165.858
20
-109.727
11
165.838
21
-109.765
0
LINE
8
BLACK
6
CONTINUOUS
10
165.838
20
-109.765
11
165.811
21
-109.798
0
LINE
8
BLACK
6
CONTINUOUS
10
165.811
20
-109.798
11
165.778
21
-109.826
0
LINE
8
BLACK
6
CONTINUOUS
10
165.778
20
-109.826
11
165.74
21
-109.846
0
LINE
8
BLACK
6
CONTINUOUS
10
165.74
20
-109.846
11
165.699
21
-109.858
0
LINE
8
BLACK
6
CONTINUOUS
10
165.699
20
-109.858
11
165.656
21
-109.862
0
LINE
8
BLACK
6
CONTINUOUS
10
165.656
20
-109.862
11
165.144
21
-109.862
0
LINE
8
BLACK
6
CONTINUOUS
10
165.144
20
-109.862
11
165.101
21
-109.858
0
LINE
8
BLACK
6
CONTINUOUS
10
165.101
20
-109.858
11
165.06
21
-109.846
0
LINE
8
BLACK
6
CONTINUOUS
10
165.06
20
-109.846
11
165.022
21
-109.826
0
LINE
8
BLACK
6
CONTINUOUS
10
165.022
20
-109.826
11
164.989
21
-109.798
0
LINE
8
BLACK
6
CONTINUOUS
10
164.989
20
-109.798
11
164.962
21
-109.765
0
LINE
8
BLACK
6
CONTINUOUS
10
164.962
20
-109.765
11
164.942
21
-109.727
0
LINE
8
BLACK
6
CONTINUOUS
10
164.942
20
-109.727
11
164.929
21
-109.686
0
LINE
8
BLACK
6
CONTINUOUS
10
164.929
20
-109.686
11
164.925
21
-109.644
0
LINE
8
BLACK
6
CONTINUOUS
10
164.925
20
-109.644
11
164.925
21
-109.206
0
LINE
8
BLACK
6
CONTINUOUS
10
164.925
20
-109.206
11
164.929
21
-109.164
0
LINE
8
BLACK
6
CONTINUOUS
10
164.929
20
-109.164
11
164.942
21
-109.123
0
LINE
8
BLACK
6
CONTINUOUS
10
164.942
20
-109.123
11
164.962
21
-109.085
0
LINE
8
BLACK
6
CONTINUOUS
10
164.962
20
-109.085
11
164.989
21
-109.052
0
LINE
8
BLACK
6
CONTINUOUS
10
164.989
20
-109.052
11
165.022
21
-109.024
0
LINE
8
BLACK
6
CONTINUOUS
10
165.022
20
-109.024
11
165.06
21
-109.004
0
LINE
8
BLACK
6
CONTINUOUS
10
165.06
20
-109.004
11
165.101
21
-108.992
0
LINE
8
BLACK
6
CONTINUOUS
10
165.101
20
-108.992
11
165.144
21
-108.987
0
LINE
8
BLACK
6
CONTINUOUS
10
165.144
20
-108.987
11
165.656
21
-108.987
0
LINE
8
BLACK
6
CONTINUOUS
10
165.656
20
-108.987
11
165.699
21
-108.992
0
LINE
8
BLACK
6
CONTINUOUS
10
156.799
20
-108.979
11
156.84
21
-108.992
0
LINE
8
BLACK
6
CONTINUOUS
10
156.84
20
-108.992
11
156.878
21
-109.012
0
LINE
8
BLACK
6
CONTINUOUS
10
156.878
20
-109.012
11
156.911
21
-109.039
0
LINE
8
BLACK
6
CONTINUOUS
10
156.911
20
-109.039
11
156.938
21
-109.072
0
LINE
8
BLACK
6
CONTINUOUS
10
156.938
20
-109.072
11
156.958
21
-109.11
0
LINE
8
BLACK
6
CONTINUOUS
10
156.958
20
-109.11
11
156.971
21
-109.151
0
LINE
8
BLACK
6
CONTINUOUS
10
156.971
20
-109.151
11
156.975
21
-109.194
0
LINE
8
BLACK
6
CONTINUOUS
10
156.975
20
-109.194
11
156.975
21
-109.631
0
LINE
8
BLACK
6
CONTINUOUS
10
156.975
20
-109.631
11
156.971
21
-109.674
0
LINE
8
BLACK
6
CONTINUOUS
10
156.971
20
-109.674
11
156.958
21
-109.715
0
LINE
8
BLACK
6
CONTINUOUS
10
156.958
20
-109.715
11
156.938
21
-109.753
0
LINE
8
BLACK
6
CONTINUOUS
10
156.938
20
-109.753
11
156.911
21
-109.786
0
LINE
8
BLACK
6
CONTINUOUS
10
156.911
20
-109.786
11
156.878
21
-109.813
0
LINE
8
BLACK
6
CONTINUOUS
10
156.878
20
-109.813
11
156.84
21
-109.833
0
LINE
8
BLACK
6
CONTINUOUS
10
156.84
20
-109.833
11
156.799
21
-109.846
0
LINE
8
BLACK
6
CONTINUOUS
10
156.799
20
-109.846
11
156.756
21
-109.85
0
LINE
8
BLACK
6
CONTINUOUS
10
156.756
20
-109.85
11
156.244
21
-109.85
0
LINE
8
BLACK
6
CONTINUOUS
10
156.244
20
-109.85
11
156.201
21
-109.846
0
LINE
8
BLACK
6
CONTINUOUS
10
156.201
20
-109.846
11
156.16
21
-109.833
0
LINE
8
BLACK
6
CONTINUOUS
10
156.16
20
-109.833
11
156.122
21
-109.813
0
LINE
8
BLACK
6
CONTINUOUS
10
156.122
20
-109.813
11
156.089
21
-109.786
0
LINE
8
BLACK
6
CONTINUOUS
10
156.089
20
-109.786
11
156.062
21
-109.753
0
LINE
8
BLACK
6
CONTINUOUS
10
156.062
20
-109.753
11
156.042
21
-109.715
0
LINE
8
BLACK
6
CONTINUOUS
10
156.042
20
-109.715
11
156.029
21
-109.674
0
LINE
8
BLACK
6
CONTINUOUS
10
156.029
20
-109.674
11
156.025
21
-109.631
0
LINE
8
BLACK
6
CONTINUOUS
10
156.025
20
-109.631
11
156.025
21
-109.194
0
LINE
8
BLACK
6
CONTINUOUS
10
156.025
20
-109.194
11
156.029
21
-109.151
0
LINE
8
BLACK
6
CONTINUOUS
10
156.029
20
-109.151
11
156.042
21
-109.11
0
LINE
8
BLACK
6
CONTINUOUS
10
156.042
20
-109.11
11
156.062
21
-109.072
0
LINE
8
BLACK
6
CONTINUOUS
10
156.062
20
-109.072
11
156.089
21
-109.039
0
LINE
8
BLACK
6
CONTINUOUS
10
156.089
20
-109.039
11
156.122
21
-109.012
0
LINE
8
BLACK
6
CONTINUOUS
10
156.122
20
-109.012
11
156.16
21
-108.992
0
LINE
8
BLACK
6
CONTINUOUS
10
156.16
20
-108.992
11
156.201
21
-108.979
0
LINE
8
BLACK
6
CONTINUOUS
10
156.201
20
-108.979
11
156.244
21
-108.975
0
LINE
8
BLACK
6
CONTINUOUS
10
156.244
20
-108.975
11
156.756
21
-108.975
0
LINE
8
BLACK
6
CONTINUOUS
10
156.756
20
-108.975
11
156.799
21
-108.979
0
LINE
8
BLACK
6
CONTINUOUS
10
162.9
20
-109.85
11
162.1
21
-109.85
0
LINE
8
BLACK
6
CONTINUOUS
10
162.1
20
-109.85
11
162.1
21
-108.95
0
LINE
8
BLACK
6
CONTINUOUS
10
162.1
20
-108.95
11
162.9
21
-108.95
0
LINE
8
BLACK
6
CONTINUOUS
10
162.9
20
-108.95
11
162.9
21
-109.85
0
LINE
8
BLACK
6
CONTINUOUS
10
159.999
20
-108.979
11
160.04
21
-108.992
0
LINE
8
BLACK
6
CONTINUOUS
10
160.04
20
-108.992
11
160.078
21
-109.012
0
LINE
8
BLACK
6
CONTINUOUS
10
160.078
20
-109.012
11
160.111
21
-109.039
0
LINE
8
BLACK
6
CONTINUOUS
10
160.111
20
-109.039
11
160.138
21
-109.072
0
LINE
8
BLACK
6
CONTINUOUS
10
160.138
20
-109.072
11
160.158
21
-109.11
0
LINE
8
BLACK
6
CONTINUOUS
10
160.158
20
-109.11
11
160.171
21
-109.151
0
LINE
8
BLACK
6
CONTINUOUS
10
160.171
20
-109.151
11
160.175
21
-109.194
0
LINE
8
BLACK
6
CONTINUOUS
10
160.175
20
-109.194
11
160.175
21
-109.631
0
LINE
8
BLACK
6
CONTINUOUS
10
160.175
20
-109.631
11
160.171
21
-109.674
0
LINE
8
BLACK
6
CONTINUOUS
10
160.171
20
-109.674
11
160.158
21
-109.715
0
LINE
8
BLACK
6
CONTINUOUS
10
160.158
20
-109.715
11
160.138
21
-109.753
0
LINE
8
BLACK
6
CONTINUOUS
10
160.138
20
-109.753
11
160.111
21
-109.786
0
LINE
8
BLACK
6
CONTINUOUS
10
160.111
20
-109.786
11
160.078
21
-109.813
0
LINE
8
BLACK
6
CONTINUOUS
10
160.078
20
-109.813
11
160.04
21
-109.833
0
LINE
8
BLACK
6
CONTINUOUS
10
160.04
20
-109.833
11
159.999
21
-109.846
0
LINE
8
BLACK
6
CONTINUOUS
10
159.999
20
-109.846
11
159.956
21
-109.85
0
LINE
8
BLACK
6
CONTINUOUS
10
159.956
20
-109.85
11
159.444
21
-109.85
0
LINE
8
BLACK
6
CONTINUOUS
10
159.444
20
-109.85
11
159.401
21
-109.846
0
LINE
8
BLACK
6
CONTINUOUS
10
159.401
20
-109.846
11
159.36
21
-109.833
0
LINE
8
BLACK
6
CONTINUOUS
10
159.36
20
-109.833
11
159.322
21
-109.813
0
LINE
8
BLACK
6
CONTINUOUS
10
159.322
20
-109.813
11
159.289
21
-109.786
0
LINE
8
BLACK
6
CONTINUOUS
10
159.289
20
-109.786
11
159.262
21
-109.753
0
LINE
8
BLACK
6
CONTINUOUS
10
159.262
20
-109.753
11
159.242
21
-109.715
0
LINE
8
BLACK
6
CONTINUOUS
10
159.242
20
-109.715
11
159.229
21
-109.674
0
LINE
8
BLACK
6
CONTINUOUS
10
159.229
20
-109.674
11
159.225
21
-109.631
0
LINE
8
BLACK
6
CONTINUOUS
10
159.225
20
-109.631
11
159.225
21
-109.194
0
LINE
8
BLACK
6
CONTINUOUS
10
159.225
20
-109.194
11
159.229
21
-109.151
0
LINE
8
BLACK
6
CONTINUOUS
10
159.229
20
-109.151
11
159.242
21
-109.11
0
LINE
8
BLACK
6
CONTINUOUS
10
159.242
20
-109.11
11
159.262
21
-109.072
0
LINE
8
BLACK
6
CONTINUOUS
10
159.262
20
-109.072
11
159.289
21
-109.039
0
LINE
8
BLACK
6
CONTINUOUS
10
159.289
20
-109.039
11
159.322
21
-109.012
0
LINE
8
BLACK
6
CONTINUOUS
10
159.322
20
-109.012
11
159.36
21
-108.992
0
LINE
8
BLACK
6
CONTINUOUS
10
159.36
20
-108.992
11
159.401
21
-108.979
0
LINE
8
BLACK
6
CONTINUOUS
10
159.401
20
-108.979
11
159.444
21
-108.975
0
LINE
8
BLACK
6
CONTINUOUS
10
159.444
20
-108.975
11
159.956
21
-108.975
0
LINE
8
BLACK
6
CONTINUOUS
10
159.956
20
-108.975
11
159.999
21
-108.979
0
LINE
8
BLACK
6
CONTINUOUS
10
171.199
20
-108.979
11
171.24
21
-108.992
0
LINE
8
BLACK
6
CONTINUOUS
10
171.24
20
-108.992
11
171.278
21
-109.012
0
LINE
8
BLACK
6
CONTINUOUS
10
171.278
20
-109.012
11
171.311
21
-109.039
0
LINE
8
BLACK
6
CONTINUOUS
10
171.311
20
-109.039
11
171.338
21
-109.072
0
LINE
8
BLACK
6
CONTINUOUS
10
171.338
20
-109.072
11
171.358
21
-109.11
0
LINE
8
BLACK
6
CONTINUOUS
10
171.358
20
-109.11
11
171.371
21
-109.151
0
LINE
8
BLACK
6
CONTINUOUS
10
171.371
20
-109.151
11
171.375
21
-109.194
0
LINE
8
BLACK
6
CONTINUOUS
10
171.375
20
-109.194
11
171.375
21
-109.631
0
LINE
8
BLACK
6
CONTINUOUS
10
171.375
20
-109.631
11
171.371
21
-109.674
0
LINE
8
BLACK
6
CONTINUOUS
10
171.371
20
-109.674
11
171.358
21
-109.715
0
LINE
8
BLACK
6
CONTINUOUS
10
171.358
20
-109.715
11
171.338
21
-109.753
0
LINE
8
BLACK
6
CONTINUOUS
10
171.338
20
-109.753
11
171.311
21
-109.786
0
LINE
8
BLACK
6
CONTINUOUS
10
171.311
20
-109.786
11
171.278
21
-109.813
0
LINE
8
BLACK
6
CONTINUOUS
10
171.278
20
-109.813
11
171.24
21
-109.833
0
LINE
8
BLACK
6
CONTINUOUS
10
171.24
20
-109.833
11
171.199
21
-109.846
0
LINE
8
BLACK
6
CONTINUOUS
10
171.199
20
-109.846
11
171.156
21
-109.85
0
LINE
8
BLACK
6
CONTINUOUS
10
171.156
20
-109.85
11
170.644
21
-109.85
0
LINE
8
BLACK
6
CONTINUOUS
10
170.644
20
-109.85
11
170.601
21
-109.846
0
LINE
8
BLACK
6
CONTINUOUS
10
170.601
20
-109.846
11
170.56
21
-109.833
0
LINE
8
BLACK
6
CONTINUOUS
10
170.56
20
-109.833
11
170.522
21
-109.813
0
LINE
8
BLACK
6
CONTINUOUS
10
170.522
20
-109.813
11
170.489
21
-109.786
0
LINE
8
BLACK
6
CONTINUOUS
10
170.489
20
-109.786
11
170.462
21
-109.753
0
LINE
8
BLACK
6
CONTINUOUS
10
170.462
20
-109.753
11
170.442
21
-109.715
0
LINE
8
BLACK
6
CONTINUOUS
10
170.442
20
-109.715
11
170.429
21
-109.674
0
LINE
8
BLACK
6
CONTINUOUS
10
170.429
20
-109.674
11
170.425
21
-109.631
0
LINE
8
BLACK
6
CONTINUOUS
10
170.425
20
-109.631
11
170.425
21
-109.194
0
LINE
8
BLACK
6
CONTINUOUS
10
170.425
20
-109.194
11
170.429
21
-109.151
0
LINE
8
BLACK
6
CONTINUOUS
10
170.429
20
-109.151
11
170.442
21
-109.11
0
LINE
8
BLACK
6
CONTINUOUS
10
170.442
20
-109.11
11
170.462
21
-109.072
0
LINE
8
BLACK
6
CONTINUOUS
10
170.462
20
-109.072
11
170.489
21
-109.039
0
LINE
8
BLACK
6
CONTINUOUS
10
170.489
20
-109.039
11
170.522
21
-109.012
0
LINE
8
BLACK
6
CONTINUOUS
10
170.522
20
-109.012
11
170.56
21
-108.992
0
LINE
8
BLACK
6
CONTINUOUS
10
170.56
20
-108.992
11
170.601
21
-108.979
0
LINE
8
BLACK
6
CONTINUOUS
10
170.601
20
-108.979
11
170.644
21
-108.975
0
LINE
8
BLACK
6
CONTINUOUS
10
170.644
20
-108.975
11
171.156
21
-108.975
0
LINE
8
BLACK
6
CONTINUOUS
10
171.156
20
-108.975
11
171.199
21
-108.979
0
LINE
8
BLACK
6
CONTINUOUS
10
168.5
20
-109.85
11
167.7
21
-109.85
0
LINE
8
BLACK
6
CONTINUOUS
10
167.7
20
-109.85
11
167.7
21
-108.95
0
LINE
8
BLACK
6
CONTINUOUS
10
167.7
20
-108.95
11
168.5
21
-108.95
0
LINE
8
BLACK
6
CONTINUOUS
10
168.5
20
-108.95
11
168.5
21
-109.85
0
LINE
8
BLACK
6
CONTINUOUS
10
152.899
20
-108.979
11
152.94
21
-108.992
0
LINE
8
BLACK
6
CONTINUOUS
10
152.94
20
-108.992
11
152.978
21
-109.012
0
LINE
8
BLACK
6
CONTINUOUS
10
152.978
20
-109.012
11
153.011
21
-109.039
0
LINE
8
BLACK
6
CONTINUOUS
10
153.011
20
-109.039
11
153.038
21
-109.072
0
LINE
8
BLACK
6
CONTINUOUS
10
153.038
20
-109.072
11
153.058
21
-109.11
0
LINE
8
BLACK
6
CONTINUOUS
10
153.058
20
-109.11
11
153.071
21
-109.151
0
LINE
8
BLACK
6
CONTINUOUS
10
153.071
20
-109.151
11
153.075
21
-109.194
0
LINE
8
BLACK
6
CONTINUOUS
10
153.075
20
-109.194
11
153.075
21
-109.631
0
LINE
8
BLACK
6
CONTINUOUS
10
153.075
20
-109.631
11
153.071
21
-109.674
0
LINE
8
BLACK
6
CONTINUOUS
10
153.071
20
-109.674
11
153.058
21
-109.715
0
LINE
8
BLACK
6
CONTINUOUS
10
153.058
20
-109.715
11
153.038
21
-109.753
0
LINE
8
BLACK
6
CONTINUOUS
10
153.038
20
-109.753
11
153.011
21
-109.786
0
LINE
8
BLACK
6
CONTINUOUS
10
153.011
20
-109.786
11
152.978
21
-109.813
0
LINE
8
BLACK
6
CONTINUOUS
10
152.978
20
-109.813
11
152.94
21
-109.833
0
LINE
8
BLACK
6
CONTINUOUS
10
152.94
20
-109.833
11
152.899
21
-109.846
0
LINE
8
BLACK
6
CONTINUOUS
10
152.899
20
-109.846
11
152.856
21
-109.85
0
LINE
8
BLACK
6
CONTINUOUS
10
152.856
20
-109.85
11
152.344
21
-109.85
0
LINE
8
BLACK
6
CONTINUOUS
10
152.344
20
-109.85
11
152.301
21
-109.846
0
LINE
8
BLACK
6
CONTINUOUS
10
152.301
20
-109.846
11
152.26
21
-109.833
0
LINE
8
BLACK
6
CONTINUOUS
10
152.26
20
-109.833
11
152.222
21
-109.813
0
LINE
8
BLACK
6
CONTINUOUS
10
152.222
20
-109.813
11
152.189
21
-109.786
0
LINE
8
BLACK
6
CONTINUOUS
10
152.189
20
-109.786
11
152.162
21
-109.753
0
LINE
8
BLACK
6
CONTINUOUS
10
152.162
20
-109.753
11
152.142
21
-109.715
0
LINE
8
BLACK
6
CONTINUOUS
10
152.142
20
-109.715
11
152.129
21
-109.674
0
LINE
8
BLACK
6
CONTINUOUS
10
152.129
20
-109.674
11
152.125
21
-109.631
0
LINE
8
BLACK
6
CONTINUOUS
10
152.125
20
-109.631
11
152.125
21
-109.194
0
LINE
8
BLACK
6
CONTINUOUS
10
152.125
20
-109.194
11
152.129
21
-109.151
0
LINE
8
BLACK
6
CONTINUOUS
10
152.129
20
-109.151
11
152.142
21
-109.11
0
LINE
8
BLACK
6
CONTINUOUS
10
152.142
20
-109.11
11
152.162
21
-109.072
0
LINE
8
BLACK
6
CONTINUOUS
10
152.162
20
-109.072
11
152.189
21
-109.039
0
LINE
8
BLACK
6
CONTINUOUS
10
152.189
20
-109.039
11
152.222
21
-109.012
0
LINE
8
BLACK
6
CONTINUOUS
10
152.222
20
-109.012
11
152.26
21
-108.992
0
LINE
8
BLACK
6
CONTINUOUS
10
152.26
20
-108.992
11
152.301
21
-108.979
0
LINE
8
BLACK
6
CONTINUOUS
10
152.301
20
-108.979
11
152.344
21
-108.975
0
LINE
8
BLACK
6
CONTINUOUS
10
152.344
20
-108.975
11
152.856
21
-108.975
0
LINE
8
BLACK
6
CONTINUOUS
10
152.856
20
-108.975
11
152.899
21
-108.979
0
LINE
8
BLACK
6
CONTINUOUS
10
174.099
20
-108.779
11
174.14
21
-108.792
0
LINE
8
BLACK
6
CONTINUOUS
10
174.14
20
-108.792
11
174.178
21
-108.812
0
LINE
8
BLACK
6
CONTINUOUS
10
174.178
20
-108.812
11
174.211
21
-108.839
0
LINE
8
BLACK
6
CONTINUOUS
10
174.211
20
-108.839
11
174.238
21
-108.872
0
LINE
8
BLACK
6
CONTINUOUS
10
174.238
20
-108.872
11
174.258
21
-108.91
0
LINE
8
BLACK
6
CONTINUOUS
10
174.258
20
-108.91
11
174.271
21
-108.951
0
LINE
8
BLACK
6
CONTINUOUS
10
174.271
20
-108.951
11
174.275
21
-108.994
0
LINE
8
BLACK
6
CONTINUOUS
10
174.275
20
-108.994
11
174.275
21
-109.431
0
LINE
8
BLACK
6
CONTINUOUS
10
174.275
20
-109.431
11
174.271
21
-109.474
0
LINE
8
BLACK
6
CONTINUOUS
10
174.271
20
-109.474
11
174.258
21
-109.515
0
LINE
8
BLACK
6
CONTINUOUS
10
174.258
20
-109.515
11
174.238
21
-109.553
0
LINE
8
BLACK
6
CONTINUOUS
10
174.238
20
-109.553
11
174.211
21
-109.586
0
LINE
8
BLACK
6
CONTINUOUS
10
174.211
20
-109.586
11
174.178
21
-109.613
0
LINE
8
BLACK
6
CONTINUOUS
10
174.178
20
-109.613
11
174.14
21
-109.633
0
LINE
8
BLACK
6
CONTINUOUS
10
174.14
20
-109.633
11
174.099
21
-109.646
0
LINE
8
BLACK
6
CONTINUOUS
10
174.099
20
-109.646
11
174.056
21
-109.65
0
LINE
8
BLACK
6
CONTINUOUS
10
174.056
20
-109.65
11
173.544
21
-109.65
0
LINE
8
BLACK
6
CONTINUOUS
10
173.544
20
-109.65
11
173.501
21
-109.646
0
LINE
8
BLACK
6
CONTINUOUS
10
173.501
20
-109.646
11
173.46
21
-109.633
0
LINE
8
BLACK
6
CONTINUOUS
10
173.46
20
-109.633
11
173.422
21
-109.613
0
LINE
8
BLACK
6
CONTINUOUS
10
173.422
20
-109.613
11
173.389
21
-109.586
0
LINE
8
BLACK
6
CONTINUOUS
10
173.389
20
-109.586
11
173.362
21
-109.553
0
LINE
8
BLACK
6
CONTINUOUS
10
173.362
20
-109.553
11
173.342
21
-109.515
0
LINE
8
BLACK
6
CONTINUOUS
10
173.342
20
-109.515
11
173.329
21
-109.474
0
LINE
8
BLACK
6
CONTINUOUS
10
173.329
20
-109.474
11
173.325
21
-109.431
0
LINE
8
BLACK
6
CONTINUOUS
10
173.325
20
-109.431
11
173.325
21
-108.994
0
LINE
8
BLACK
6
CONTINUOUS
10
173.325
20
-108.994
11
173.329
21
-108.951
0
LINE
8
BLACK
6
CONTINUOUS
10
173.329
20
-108.951
11
173.342
21
-108.91
0
LINE
8
BLACK
6
CONTINUOUS
10
173.342
20
-108.91
11
173.362
21
-108.872
0
LINE
8
BLACK
6
CONTINUOUS
10
173.362
20
-108.872
11
173.389
21
-108.839
0
LINE
8
BLACK
6
CONTINUOUS
10
173.389
20
-108.839
11
173.422
21
-108.812
0
LINE
8
BLACK
6
CONTINUOUS
10
173.422
20
-108.812
11
173.46
21
-108.792
0
LINE
8
BLACK
6
CONTINUOUS
10
173.46
20
-108.792
11
173.501
21
-108.779
0
LINE
8
BLACK
6
CONTINUOUS
10
173.501
20
-108.779
11
173.544
21
-108.775
0
LINE
8
BLACK
6
CONTINUOUS
10
173.544
20
-108.775
11
174.056
21
-108.775
0
LINE
8
BLACK
6
CONTINUOUS
10
174.056
20
-108.775
11
174.099
21
-108.779
0
LINE
8
BLACK
6
CONTINUOUS
10
174.25
20
-107.85
11
173.45
21
-107.85
0
LINE
8
BLACK
6
CONTINUOUS
10
173.45
20
-107.85
11
173.45
21
-106.95
0
LINE
8
BLACK
6
CONTINUOUS
10
173.45
20
-106.95
11
174.25
21
-106.95
0
LINE
8
BLACK
6
CONTINUOUS
10
174.25
20
-106.95
11
174.25
21
-107.85
0
LINE
8
BLACK
6
CONTINUOUS
10
154.95
20
-107.85
11
154.15
21
-107.85
0
LINE
8
BLACK
6
CONTINUOUS
10
154.15
20
-107.85
11
154.15
21
-106.95
0
LINE
8
BLACK
6
CONTINUOUS
10
154.15
20
-106.95
11
154.95
21
-106.95
0
LINE
8
BLACK
6
CONTINUOUS
10
154.95
20
-106.95
11
154.95
21
-107.85
0
LINE
8
BLACK
6
CONTINUOUS
10
168.45
20
-107.85
11
167.65
21
-107.85
0
LINE
8
BLACK
6
CONTINUOUS
10
167.65
20
-107.85
11
167.65
21
-106.95
0
LINE
8
BLACK
6
CONTINUOUS
10
167.65
20
-106.95
11
168.45
21
-106.95
0
LINE
8
BLACK
6
CONTINUOUS
10
168.45
20
-106.95
11
168.45
21
-107.85
0
LINE
8
BLACK
6
CONTINUOUS
10
166.55
20
-107.85
11
165.75
21
-107.85
0
LINE
8
BLACK
6
CONTINUOUS
10
165.75
20
-107.85
11
165.75
21
-106.95
0
LINE
8
BLACK
6
CONTINUOUS
10
165.75
20
-106.95
11
166.55
21
-106.95
0
LINE
8
BLACK
6
CONTINUOUS
10
166.55
20
-106.95
11
166.55
21
-107.85
0
LINE
8
BLACK
6
CONTINUOUS
10
170.35
20
-107.85
11
169.55
21
-107.85
0
LINE
8
BLACK
6
CONTINUOUS
10
169.55
20
-107.85
11
169.55
21
-106.95
0
LINE
8
BLACK
6
CONTINUOUS
10
169.55
20
-106.95
11
170.35
21
-106.95
0
LINE
8
BLACK
6
CONTINUOUS
10
170.35
20
-106.95
11
170.35
21
-107.85
0
LINE
8
BLACK
6
CONTINUOUS
10
172.25
20
-107.85
11
171.45
21
-107.85
0
LINE
8
BLACK
6
CONTINUOUS
10
171.45
20
-107.85
11
171.45
21
-106.95
0
LINE
8
BLACK
6
CONTINUOUS
10
171.45
20
-106.95
11
172.25
21
-106.95
0
LINE
8
BLACK
6
CONTINUOUS
10
172.25
20
-106.95
11
172.25
21
-107.85
0
LINE
8
BLACK
6
CONTINUOUS
10
162.65
20
-107.85
11
161.85
21
-107.85
0
LINE
8
BLACK
6
CONTINUOUS
10
161.85
20
-107.85
11
161.85
21
-106.95
0
LINE
8
BLACK
6
CONTINUOUS
10
161.85
20
-106.95
11
162.65
21
-106.95
0
LINE
8
BLACK
6
CONTINUOUS
10
162.65
20
-106.95
11
162.65
21
-107.85
0
LINE
8
BLACK
6
CONTINUOUS
10
160.75
20
-107.85
11
159.95
21
-107.85
0
LINE
8
BLACK
6
CONTINUOUS
10
159.95
20
-107.85
11
159.95
21
-106.95
0
LINE
8
BLACK
6
CONTINUOUS
10
159.95
20
-106.95
11
160.75
21
-106.95
0
LINE
8
BLACK
6
CONTINUOUS
10
160.75
20
-106.95
11
160.75
21
-107.85
0
LINE
8
BLACK
6
CONTINUOUS
10
158.85
20
-107.85
11
158.05
21
-107.85
0
LINE
8
BLACK
6
CONTINUOUS
10
158.05
20
-107.85
11
158.05
21
-106.95
0
LINE
8
BLACK
6
CONTINUOUS
10
158.05
20
-106.95
11
158.85
21
-106.95
0
LINE
8
BLACK
6
CONTINUOUS
10
158.85
20
-106.95
11
158.85
21
-107.85
0
LINE
8
BLACK
6
CONTINUOUS
10
156.95
20
-107.85
11
156.15
21
-107.85
0
LINE
8
BLACK
6
CONTINUOUS
10
156.15
20
-107.85
11
156.15
21
-106.95
0
LINE
8
BLACK
6
CONTINUOUS
10
156.15
20
-106.95
11
156.95
21
-106.95
0
LINE
8
BLACK
6
CONTINUOUS
10
156.95
20
-106.95
11
156.95
21
-107.85
0
LINE
8
BLACK
6
CONTINUOUS
10
176.15
20
-107.85
11
175.35
21
-107.85
0
LINE
8
BLACK
6
CONTINUOUS
10
175.35
20
-107.85
11
175.35
21
-106.95
0
LINE
8
BLACK
6
CONTINUOUS
10
175.35
20
-106.95
11
176.15
21
-106.95
0
LINE
8
BLACK
6
CONTINUOUS
10
176.15
20
-106.95
11
176.15
21
-107.85
0
LINE
8
BLACK
6
CONTINUOUS
10
153.05
20
-107.85
11
152.25
21
-107.85
0
LINE
8
BLACK
6
CONTINUOUS
10
152.25
20
-107.85
11
152.25
21
-106.95
0
LINE
8
BLACK
6
CONTINUOUS
10
152.25
20
-106.95
11
153.05
21
-106.95
0
LINE
8
BLACK
6
CONTINUOUS
10
153.05
20
-106.95
11
153.05
21
-107.85
0
LINE
8
BLACK
6
CONTINUOUS
10
154
20
-105.85
11
153.2
21
-105.85
0
LINE
8
BLACK
6
CONTINUOUS
10
153.2
20
-105.85
11
153.2
21
-104.95
0
LINE
8
BLACK
6
CONTINUOUS
10
153.2
20
-104.95
11
154
21
-104.95
0
LINE
8
BLACK
6
CONTINUOUS
10
154
20
-104.95
11
154
21
-105.85
0
LINE
8
BLACK
6
CONTINUOUS
10
161.7
20
-105.85
11
160.9
21
-105.85
0
LINE
8
BLACK
6
CONTINUOUS
10
160.9
20
-105.85
11
160.9
21
-104.95
0
LINE
8
BLACK
6
CONTINUOUS
10
160.9
20
-104.95
11
161.7
21
-104.95
0
LINE
8
BLACK
6
CONTINUOUS
10
161.7
20
-104.95
11
161.7
21
-105.85
0
LINE
8
BLACK
6
CONTINUOUS
10
167.5
20
-105.85
11
166.7
21
-105.85
0
LINE
8
BLACK
6
CONTINUOUS
10
166.7
20
-105.85
11
166.7
21
-104.95
0
LINE
8
BLACK
6
CONTINUOUS
10
166.7
20
-104.95
11
167.5
21
-104.95
0
LINE
8
BLACK
6
CONTINUOUS
10
167.5
20
-104.95
11
167.5
21
-105.85
0
LINE
8
BLACK
6
CONTINUOUS
10
171.3
20
-105.85
11
170.5
21
-105.85
0
LINE
8
BLACK
6
CONTINUOUS
10
170.5
20
-105.85
11
170.5
21
-104.95
0
LINE
8
BLACK
6
CONTINUOUS
10
170.5
20
-104.95
11
171.3
21
-104.95
0
LINE
8
BLACK
6
CONTINUOUS
10
171.3
20
-104.95
11
171.3
21
-105.85
0
LINE
8
BLACK
6
CONTINUOUS
10
157.9
20
-105.85
11
157.1
21
-105.85
0
LINE
8
BLACK
6
CONTINUOUS
10
157.1
20
-105.85
11
157.1
21
-104.95
0
LINE
8
BLACK
6
CONTINUOUS
10
157.1
20
-104.95
11
157.9
21
-104.95
0
LINE
8
BLACK
6
CONTINUOUS
10
157.9
20
-104.95
11
157.9
21
-105.85
0
LINE
8
BLACK
6
CONTINUOUS
10
175.2
20
-105.85
11
174.4
21
-105.85
0
LINE
8
BLACK
6
CONTINUOUS
10
174.4
20
-105.85
11
174.4
21
-104.95
0
LINE
8
BLACK
6
CONTINUOUS
10
174.4
20
-104.95
11
175.2
21
-104.95
0
LINE
8
BLACK
6
CONTINUOUS
10
175.2
20
-104.95
11
175.2
21
-105.85
0
LINE
8
BLACK
6
CONTINUOUS
10
157.599
20
-102.967
11
157.64
21
-102.979
0
LINE
8
BLACK
6
CONTINUOUS
10
157.64
20
-102.979
11
157.678
21
-102.999
0
LINE
8
BLACK
6
CONTINUOUS
10
157.678
20
-102.999
11
157.711
21
-103.027
0
LINE
8
BLACK
6
CONTINUOUS
10
157.711
20
-103.027
11
157.738
21
-103.06
0
LINE
8
BLACK
6
CONTINUOUS
10
157.738
20
-103.06
11
157.758
21
-103.098
0
LINE
8
BLACK
6
CONTINUOUS
10
157.758
20
-103.098
11
157.771
21
-103.139
0
LINE
8
BLACK
6
CONTINUOUS
10
157.771
20
-103.139
11
157.775
21
-103.181
0
LINE
8
BLACK
6
CONTINUOUS
10
157.775
20
-103.181
11
157.775
21
-103.619
0
LINE
8
BLACK
6
CONTINUOUS
10
157.775
20
-103.619
11
157.771
21
-103.661
0
LINE
8
BLACK
6
CONTINUOUS
10
157.771
20
-103.661
11
157.758
21
-103.702
0
LINE
8
BLACK
6
CONTINUOUS
10
157.758
20
-103.702
11
157.738
21
-103.74
0
LINE
8
BLACK
6
CONTINUOUS
10
157.738
20
-103.74
11
157.711
21
-103.773
0
LINE
8
BLACK
6
CONTINUOUS
10
157.711
20
-103.773
11
157.678
21
-103.801
0
LINE
8
BLACK
6
CONTINUOUS
10
157.678
20
-103.801
11
157.64
21
-103.821
0
LINE
8
BLACK
6
CONTINUOUS
10
157.64
20
-103.821
11
157.599
21
-103.833
0
LINE
8
BLACK
6
CONTINUOUS
10
157.599
20
-103.833
11
157.556
21
-103.837
0
LINE
8
BLACK
6
CONTINUOUS
10
157.556
20
-103.837
11
157.044
21
-103.837
0
LINE
8
BLACK
6
CONTINUOUS
10
157.044
20
-103.837
11
157.001
21
-103.833
0
LINE
8
BLACK
6
CONTINUOUS
10
157.001
20
-103.833
11
156.96
21
-103.821
0
LINE
8
BLACK
6
CONTINUOUS
10
156.96
20
-103.821
11
156.922
21
-103.801
0
LINE
8
BLACK
6
CONTINUOUS
10
156.922
20
-103.801
11
156.889
21
-103.773
0
LINE
8
BLACK
6
CONTINUOUS
10
156.889
20
-103.773
11
156.862
21
-103.74
0
LINE
8
BLACK
6
CONTINUOUS
10
156.862
20
-103.74
11
156.842
21
-103.702
0
LINE
8
BLACK
6
CONTINUOUS
10
156.842
20
-103.702
11
156.829
21
-103.661
0
LINE
8
BLACK
6
CONTINUOUS
10
156.829
20
-103.661
11
156.825
21
-103.619
0
LINE
8
BLACK
6
CONTINUOUS
10
156.825
20
-103.619
11
156.825
21
-103.181
0
LINE
8
BLACK
6
CONTINUOUS
10
156.825
20
-103.181
11
156.829
21
-103.139
0
LINE
8
BLACK
6
CONTINUOUS
10
156.829
20
-103.139
11
156.842
21
-103.098
0
LINE
8
BLACK
6
CONTINUOUS
10
156.842
20
-103.098
11
156.862
21
-103.06
0
LINE
8
BLACK
6
CONTINUOUS
10
156.862
20
-103.06
11
156.889
21
-103.027
0
LINE
8
BLACK
6
CONTINUOUS
10
156.889
20
-103.027
11
156.922
21
-102.999
0
LINE
8
BLACK
6
CONTINUOUS
10
156.922
20
-102.999
11
156.96
21
-102.979
0
LINE
8
BLACK
6
CONTINUOUS
10
156.96
20
-102.979
11
157.001
21
-102.967
0
LINE
8
BLACK
6
CONTINUOUS
10
157.001
20
-102.967
11
157.044
21
-102.962
0
LINE
8
BLACK
6
CONTINUOUS
10
157.044
20
-102.962
11
157.556
21
-102.962
0
LINE
8
BLACK
6
CONTINUOUS
10
157.556
20
-102.962
11
157.599
21
-102.967
0
LINE
8
BLACK
6
CONTINUOUS
10
165.199
20
-102.954
11
165.24
21
-102.967
0
LINE
8
BLACK
6
CONTINUOUS
10
165.24
20
-102.967
11
165.278
21
-102.987
0
LINE
8
BLACK
6
CONTINUOUS
10
165.278
20
-102.987
11
165.311
21
-103.014
0
LINE
8
BLACK
6
CONTINUOUS
10
165.311
20
-103.014
11
165.338
21
-103.047
0
LINE
8
BLACK
6
CONTINUOUS
10
165.338
20
-103.047
11
165.358
21
-103.085
0
LINE
8
BLACK
6
CONTINUOUS
10
165.358
20
-103.085
11
165.371
21
-103.126
0
LINE
8
BLACK
6
CONTINUOUS
10
165.371
20
-103.126
11
165.375
21
-103.169
0
LINE
8
BLACK
6
CONTINUOUS
10
165.375
20
-103.169
11
165.375
21
-103.606
0
LINE
8
BLACK
6
CONTINUOUS
10
165.375
20
-103.606
11
165.371
21
-103.649
0
LINE
8
BLACK
6
CONTINUOUS
10
165.371
20
-103.649
11
165.358
21
-103.69
0
LINE
8
BLACK
6
CONTINUOUS
10
165.358
20
-103.69
11
165.338
21
-103.728
0
LINE
8
BLACK
6
CONTINUOUS
10
165.338
20
-103.728
11
165.311
21
-103.761
0
LINE
8
BLACK
6
CONTINUOUS
10
165.311
20
-103.761
11
165.278
21
-103.788
0
LINE
8
BLACK
6
CONTINUOUS
10
165.278
20
-103.788
11
165.24
21
-103.808
0
LINE
8
BLACK
6
CONTINUOUS
10
165.24
20
-103.808
11
165.199
21
-103.821
0
LINE
8
BLACK
6
CONTINUOUS
10
165.199
20
-103.821
11
165.156
21
-103.825
0
LINE
8
BLACK
6
CONTINUOUS
10
165.156
20
-103.825
11
164.644
21
-103.825
0
LINE
8
BLACK
6
CONTINUOUS
10
164.644
20
-103.825
11
164.601
21
-103.821
0
LINE
8
BLACK
6
CONTINUOUS
10
164.601
20
-103.821
11
164.56
21
-103.808
0
LINE
8
BLACK
6
CONTINUOUS
10
164.56
20
-103.808
11
164.522
21
-103.788
0
LINE
8
BLACK
6
CONTINUOUS
10
164.522
20
-103.788
11
164.489
21
-103.761
0
LINE
8
BLACK
6
CONTINUOUS
10
164.489
20
-103.761
11
164.462
21
-103.728
0
LINE
8
BLACK
6
CONTINUOUS
10
164.462
20
-103.728
11
164.442
21
-103.69
0
LINE
8
BLACK
6
CONTINUOUS
10
164.442
20
-103.69
11
164.429
21
-103.649
0
LINE
8
BLACK
6
CONTINUOUS
10
164.429
20
-103.649
11
164.425
21
-103.606
0
LINE
8
BLACK
6
CONTINUOUS
10
164.425
20
-103.606
11
164.425
21
-103.169
0
LINE
8
BLACK
6
CONTINUOUS
10
164.425
20
-103.169
11
164.429
21
-103.126
0
LINE
8
BLACK
6
CONTINUOUS
10
164.429
20
-103.126
11
164.442
21
-103.085
0
LINE
8
BLACK
6
CONTINUOUS
10
164.442
20
-103.085
11
164.462
21
-103.047
0
LINE
8
BLACK
6
CONTINUOUS
10
164.462
20
-103.047
11
164.489
21
-103.014
0
LINE
8
BLACK
6
CONTINUOUS
10
164.489
20
-103.014
11
164.522
21
-102.987
0
LINE
8
BLACK
6
CONTINUOUS
10
164.522
20
-102.987
11
164.56
21
-102.967
0
LINE
8
BLACK
6
CONTINUOUS
10
164.56
20
-102.967
11
164.601
21
-102.954
0
LINE
8
BLACK
6
CONTINUOUS
10
164.601
20
-102.954
11
164.644
21
-102.95
0
LINE
8
BLACK
6
CONTINUOUS
10
164.644
20
-102.95
11
165.156
21
-102.95
0
LINE
8
BLACK
6
CONTINUOUS
10
165.156
20
-102.95
11
165.199
21
-102.954
0
LINE
8
BLACK
6
CONTINUOUS
10
168.999
20
-102.954
11
169.04
21
-102.967
0
LINE
8
BLACK
6
CONTINUOUS
10
169.04
20
-102.967
11
169.078
21
-102.987
0
LINE
8
BLACK
6
CONTINUOUS
10
169.078
20
-102.987
11
169.111
21
-103.014
0
LINE
8
BLACK
6
CONTINUOUS
10
169.111
20
-103.014
11
169.138
21
-103.047
0
LINE
8
BLACK
6
CONTINUOUS
10
169.138
20
-103.047
11
169.158
21
-103.085
0
LINE
8
BLACK
6
CONTINUOUS
10
169.158
20
-103.085
11
169.171
21
-103.126
0
LINE
8
BLACK
6
CONTINUOUS
10
169.171
20
-103.126
11
169.175
21
-103.169
0
LINE
8
BLACK
6
CONTINUOUS
10
169.175
20
-103.169
11
169.175
21
-103.606
0
LINE
8
BLACK
6
CONTINUOUS
10
169.175
20
-103.606
11
169.171
21
-103.649
0
LINE
8
BLACK
6
CONTINUOUS
10
169.171
20
-103.649
11
169.158
21
-103.69
0
LINE
8
BLACK
6
CONTINUOUS
10
169.158
20
-103.69
11
169.138
21
-103.728
0
LINE
8
BLACK
6
CONTINUOUS
10
169.138
20
-103.728
11
169.111
21
-103.761
0
LINE
8
BLACK
6
CONTINUOUS
10
169.111
20
-103.761
11
169.078
21
-103.788
0
LINE
8
BLACK
6
CONTINUOUS
10
169.078
20
-103.788
11
169.04
21
-103.808
0
LINE
8
BLACK
6
CONTINUOUS
10
169.04
20
-103.808
11
168.999
21
-103.821
0
LINE
8
BLACK
6
CONTINUOUS
10
168.999
20
-103.821
11
168.956
21
-103.825
0
LINE
8
BLACK
6
CONTINUOUS
10
168.956
20
-103.825
11
168.444
21
-103.825
0
LINE
8
BLACK
6
CONTINUOUS
10
168.444
20
-103.825
11
168.401
21
-103.821
0
LINE
8
BLACK
6
CONTINUOUS
10
168.401
20
-103.821
11
168.36
21
-103.808
0
LINE
8
BLACK
6
CONTINUOUS
10
168.36
20
-103.808
11
168.322
21
-103.788
0
LINE
8
BLACK
6
CONTINUOUS
10
168.322
20
-103.788
11
168.289
21
-103.761
0
LINE
8
BLACK
6
CONTINUOUS
10
168.289
20
-103.761
11
168.262
21
-103.728
0
LINE
8
BLACK
6
CONTINUOUS
10
168.262
20
-103.728
11
168.242
21
-103.69
0
LINE
8
BLACK
6
CONTINUOUS
10
168.242
20
-103.69
11
168.229
21
-103.649
0
LINE
8
BLACK
6
CONTINUOUS
10
168.229
20
-103.649
11
168.225
21
-103.606
0
LINE
8
BLACK
6
CONTINUOUS
10
168.225
20
-103.606
11
168.225
21
-103.169
0
LINE
8
BLACK
6
CONTINUOUS
10
168.225
20
-103.169
11
168.229
21
-103.126
0
LINE
8
BLACK
6
CONTINUOUS
10
168.229
20
-103.126
11
168.242
21
-103.085
0
LINE
8
BLACK
6
CONTINUOUS
10
168.242
20
-103.085
11
168.262
21
-103.047
0
LINE
8
BLACK
6
CONTINUOUS
10
168.262
20
-103.047
11
168.289
21
-103.014
0
LINE
8
BLACK
6
CONTINUOUS
10
168.289
20
-103.014
11
168.322
21
-102.987
0
LINE
8
BLACK
6
CONTINUOUS
10
168.322
20
-102.987
11
168.36
21
-102.967
0
LINE
8
BLACK
6
CONTINUOUS
10
168.36
20
-102.967
11
168.401
21
-102.954
0
LINE
8
BLACK
6
CONTINUOUS
10
168.401
20
-102.954
11
168.444
21
-102.95
0
LINE
8
BLACK
6
CONTINUOUS
10
168.444
20
-102.95
11
168.956
21
-102.95
0
LINE
8
BLACK
6
CONTINUOUS
10
168.956
20
-102.95
11
168.999
21
-102.954
0
LINE
8
BLACK
6
CONTINUOUS
10
163.061
20
-101.429
11
163.102
21
-101.442
0
LINE
8
BLACK
6
CONTINUOUS
10
163.102
20
-101.442
11
163.14
21
-101.462
0
LINE
8
BLACK
6
CONTINUOUS
10
163.14
20
-101.462
11
163.173
21
-101.489
0
LINE
8
BLACK
6
CONTINUOUS
10
163.173
20
-101.489
11
163.201
21
-101.522
0
LINE
8
BLACK
6
CONTINUOUS
10
163.201
20
-101.522
11
163.221
21
-101.56
0
LINE
8
BLACK
6
CONTINUOUS
10
163.221
20
-101.56
11
163.233
21
-101.601
0
LINE
8
BLACK
6
CONTINUOUS
10
163.233
20
-101.601
11
163.237
21
-101.644
0
LINE
8
BLACK
6
CONTINUOUS
10
163.237
20
-101.644
11
163.237
21
-102.156
0
LINE
8
BLACK
6
CONTINUOUS
10
163.237
20
-102.156
11
163.233
21
-102.199
0
LINE
8
BLACK
6
CONTINUOUS
10
163.233
20
-102.199
11
163.221
21
-102.24
0
LINE
8
BLACK
6
CONTINUOUS
10
163.221
20
-102.24
11
163.201
21
-102.278
0
LINE
8
BLACK
6
CONTINUOUS
10
163.201
20
-102.278
11
163.173
21
-102.311
0
LINE
8
BLACK
6
CONTINUOUS
10
163.173
20
-102.311
11
163.14
21
-102.338
0
LINE
8
BLACK
6
CONTINUOUS
10
163.14
20
-102.338
11
163.102
21
-102.358
0
LINE
8
BLACK
6
CONTINUOUS
10
163.102
20
-102.358
11
163.061
21
-102.371
0
LINE
8
BLACK
6
CONTINUOUS
10
163.061
20
-102.371
11
163.019
21
-102.375
0
LINE
8
BLACK
6
CONTINUOUS
10
163.019
20
-102.375
11
162.581
21
-102.375
0
LINE
8
BLACK
6
CONTINUOUS
10
162.581
20
-102.375
11
162.539
21
-102.371
0
LINE
8
BLACK
6
CONTINUOUS
10
162.539
20
-102.371
11
162.498
21
-102.358
0
LINE
8
BLACK
6
CONTINUOUS
10
162.498
20
-102.358
11
162.46
21
-102.338
0
LINE
8
BLACK
6
CONTINUOUS
10
162.46
20
-102.338
11
162.427
21
-102.311
0
LINE
8
BLACK
6
CONTINUOUS
10
162.427
20
-102.311
11
162.399
21
-102.278
0
LINE
8
BLACK
6
CONTINUOUS
10
162.399
20
-102.278
11
162.379
21
-102.24
0
LINE
8
BLACK
6
CONTINUOUS
10
162.379
20
-102.24
11
162.367
21
-102.199
0
LINE
8
BLACK
6
CONTINUOUS
10
162.367
20
-102.199
11
162.362
21
-102.156
0
LINE
8
BLACK
6
CONTINUOUS
10
162.362
20
-102.156
11
162.362
21
-101.644
0
LINE
8
BLACK
6
CONTINUOUS
10
162.362
20
-101.644
11
162.367
21
-101.601
0
LINE
8
BLACK
6
CONTINUOUS
10
162.367
20
-101.601
11
162.379
21
-101.56
0
LINE
8
BLACK
6
CONTINUOUS
10
162.379
20
-101.56
11
162.399
21
-101.522
0
LINE
8
BLACK
6
CONTINUOUS
10
162.399
20
-101.522
11
162.427
21
-101.489
0
LINE
8
BLACK
6
CONTINUOUS
10
162.427
20
-101.489
11
162.46
21
-101.462
0
LINE
8
BLACK
6
CONTINUOUS
10
162.46
20
-101.462
11
162.498
21
-101.442
0
LINE
8
BLACK
6
CONTINUOUS
10
162.498
20
-101.442
11
162.539
21
-101.429
0
LINE
8
BLACK
6
CONTINUOUS
10
162.539
20
-101.429
11
162.581
21
-101.425
0
LINE
8
BLACK
6
CONTINUOUS
10
162.581
20
-101.425
11
163.019
21
-101.425
0
LINE
8
BLACK
6
CONTINUOUS
10
163.019
20
-101.425
11
163.061
21
-101.429
0
LINE
8
BLACK
6
CONTINUOUS
10
161.486
20
-101.429
11
161.527
21
-101.442
0
LINE
8
BLACK
6
CONTINUOUS
10
161.527
20
-101.442
11
161.565
21
-101.462
0
LINE
8
BLACK
6
CONTINUOUS
10
161.565
20
-101.462
11
161.598
21
-101.489
0
LINE
8
BLACK
6
CONTINUOUS
10
161.598
20
-101.489
11
161.626
21
-101.522
0
LINE
8
BLACK
6
CONTINUOUS
10
161.626
20
-101.522
11
161.646
21
-101.56
0
LINE
8
BLACK
6
CONTINUOUS
10
161.646
20
-101.56
11
161.658
21
-101.601
0
LINE
8
BLACK
6
CONTINUOUS
10
161.658
20
-101.601
11
161.662
21
-101.644
0
LINE
8
BLACK
6
CONTINUOUS
10
161.662
20
-101.644
11
161.662
21
-102.156
0
LINE
8
BLACK
6
CONTINUOUS
10
161.662
20
-102.156
11
161.658
21
-102.199
0
LINE
8
BLACK
6
CONTINUOUS
10
161.658
20
-102.199
11
161.646
21
-102.24
0
LINE
8
BLACK
6
CONTINUOUS
10
161.646
20
-102.24
11
161.626
21
-102.278
0
LINE
8
BLACK
6
CONTINUOUS
10
161.626
20
-102.278
11
161.598
21
-102.311
0
LINE
8
BLACK
6
CONTINUOUS
10
161.598
20
-102.311
11
161.565
21
-102.338
0
LINE
8
BLACK
6
CONTINUOUS
10
161.565
20
-102.338
11
161.527
21
-102.358
0
LINE
8
BLACK
6
CONTINUOUS
10
161.527
20
-102.358
11
161.486
21
-102.371
0
LINE
8
BLACK
6
CONTINUOUS
10
161.486
20
-102.371
11
161.444
21
-102.375
0
LINE
8
BLACK
6
CONTINUOUS
10
161.444
20
-102.375
11
161.006
21
-102.375
0
LINE
8
BLACK
6
CONTINUOUS
10
161.006
20
-102.375
11
160.964
21
-102.371
0
LINE
8
BLACK
6
CONTINUOUS
10
160.964
20
-102.371
11
160.923
21
-102.358
0
LINE
8
BLACK
6
CONTINUOUS
10
160.923
20
-102.358
11
160.885
21
-102.338
0
LINE
8
BLACK
6
CONTINUOUS
10
160.885
20
-102.338
11
160.852
21
-102.311
0
LINE
8
BLACK
6
CONTINUOUS
10
160.852
20
-102.311
11
160.824
21
-102.278
0
LINE
8
BLACK
6
CONTINUOUS
10
160.824
20
-102.278
11
160.804
21
-102.24
0
LINE
8
BLACK
6
CONTINUOUS
10
160.804
20
-102.24
11
160.792
21
-102.199
0
LINE
8
BLACK
6
CONTINUOUS
10
160.792
20
-102.199
11
160.787
21
-102.156
0
LINE
8
BLACK
6
CONTINUOUS
10
160.787
20
-102.156
11
160.787
21
-101.644
0
LINE
8
BLACK
6
CONTINUOUS
10
160.787
20
-101.644
11
160.792
21
-101.601
0
LINE
8
BLACK
6
CONTINUOUS
10
160.792
20
-101.601
11
160.804
21
-101.56
0
LINE
8
BLACK
6
CONTINUOUS
10
160.804
20
-101.56
11
160.824
21
-101.522
0
LINE
8
BLACK
6
CONTINUOUS
10
160.824
20
-101.522
11
160.852
21
-101.489
0
LINE
8
BLACK
6
CONTINUOUS
10
160.852
20
-101.489
11
160.885
21
-101.462
0
LINE
8
BLACK
6
CONTINUOUS
10
160.885
20
-101.462
11
160.923
21
-101.442
0
LINE
8
BLACK
6
CONTINUOUS
10
160.923
20
-101.442
11
160.964
21
-101.429
0
LINE
8
BLACK
6
CONTINUOUS
10
160.964
20
-101.429
11
161.006
21
-101.425
0
LINE
8
BLACK
6
CONTINUOUS
10
161.006
20
-101.425
11
161.444
21
-101.425
0
LINE
8
BLACK
6
CONTINUOUS
10
161.444
20
-101.425
11
161.486
21
-101.429
0
LINE
8
BLACK
6
CONTINUOUS
10
157.599
20
-101.392
11
157.64
21
-101.404
0
LINE
8
BLACK
6
CONTINUOUS
10
157.64
20
-101.404
11
157.678
21
-101.424
0
LINE
8
BLACK
6
CONTINUOUS
10
157.678
20
-101.424
11
157.711
21
-101.452
0
LINE
8
BLACK
6
CONTINUOUS
10
157.711
20
-101.452
11
157.738
21
-101.485
0
LINE
8
BLACK
6
CONTINUOUS
10
157.738
20
-101.485
11
157.758
21
-101.523
0
LINE
8
BLACK
6
CONTINUOUS
10
157.758
20
-101.523
11
157.771
21
-101.564
0
LINE
8
BLACK
6
CONTINUOUS
10
157.771
20
-101.564
11
157.775
21
-101.606
0
LINE
8
BLACK
6
CONTINUOUS
10
157.775
20
-101.606
11
157.775
21
-102.044
0
LINE
8
BLACK
6
CONTINUOUS
10
157.775
20
-102.044
11
157.771
21
-102.086
0
LINE
8
BLACK
6
CONTINUOUS
10
157.771
20
-102.086
11
157.758
21
-102.127
0
LINE
8
BLACK
6
CONTINUOUS
10
157.758
20
-102.127
11
157.738
21
-102.165
0
LINE
8
BLACK
6
CONTINUOUS
10
157.738
20
-102.165
11
157.711
21
-102.198
0
LINE
8
BLACK
6
CONTINUOUS
10
157.711
20
-102.198
11
157.678
21
-102.226
0
LINE
8
BLACK
6
CONTINUOUS
10
157.678
20
-102.226
11
157.64
21
-102.246
0
LINE
8
BLACK
6
CONTINUOUS
10
157.64
20
-102.246
11
157.599
21
-102.258
0
LINE
8
BLACK
6
CONTINUOUS
10
157.599
20
-102.258
11
157.556
21
-102.262
0
LINE
8
BLACK
6
CONTINUOUS
10
157.556
20
-102.262
11
157.044
21
-102.262
0
LINE
8
BLACK
6
CONTINUOUS
10
157.044
20
-102.262
11
157.001
21
-102.258
0
LINE
8
BLACK
6
CONTINUOUS
10
157.001
20
-102.258
11
156.96
21
-102.246
0
LINE
8
BLACK
6
CONTINUOUS
10
156.96
20
-102.246
11
156.922
21
-102.226
0
LINE
8
BLACK
6
CONTINUOUS
10
156.922
20
-102.226
11
156.889
21
-102.198
0
LINE
8
BLACK
6
CONTINUOUS
10
156.889
20
-102.198
11
156.862
21
-102.165
0
LINE
8
BLACK
6
CONTINUOUS
10
156.862
20
-102.165
11
156.842
21
-102.127
0
LINE
8
BLACK
6
CONTINUOUS
10
156.842
20
-102.127
11
156.829
21
-102.086
0
LINE
8
BLACK
6
CONTINUOUS
10
156.829
20
-102.086
11
156.825
21
-102.044
0
LINE
8
BLACK
6
CONTINUOUS
10
156.825
20
-102.044
11
156.825
21
-101.606
0
LINE
8
BLACK
6
CONTINUOUS
10
156.825
20
-101.606
11
156.829
21
-101.564
0
LINE
8
BLACK
6
CONTINUOUS
10
156.829
20
-101.564
11
156.842
21
-101.523
0
LINE
8
BLACK
6
CONTINUOUS
10
156.842
20
-101.523
11
156.862
21
-101.485
0
LINE
8
BLACK
6
CONTINUOUS
10
156.862
20
-101.485
11
156.889
21
-101.452
0
LINE
8
BLACK
6
CONTINUOUS
10
156.889
20
-101.452
11
156.922
21
-101.424
0
LINE
8
BLACK
6
CONTINUOUS
10
156.922
20
-101.424
11
156.96
21
-101.404
0
LINE
8
BLACK
6
CONTINUOUS
10
156.96
20
-101.404
11
157.001
21
-101.392
0
LINE
8
BLACK
6
CONTINUOUS
10
157.001
20
-101.392
11
157.044
21
-101.387
0
LINE
8
BLACK
6
CONTINUOUS
10
157.044
20
-101.387
11
157.556
21
-101.387
0
LINE
8
BLACK
6
CONTINUOUS
10
157.556
20
-101.387
11
157.599
21
-101.392
0
LINE
8
BLACK
6
CONTINUOUS
10
165.199
20
-101.379
11
165.24
21
-101.392
0
LINE
8
BLACK
6
CONTINUOUS
10
165.24
20
-101.392
11
165.278
21
-101.412
0
LINE
8
BLACK
6
CONTINUOUS
10
165.278
20
-101.412
11
165.311
21
-101.439
0
LINE
8
BLACK
6
CONTINUOUS
10
165.311
20
-101.439
11
165.338
21
-101.472
0
LINE
8
BLACK
6
CONTINUOUS
10
165.338
20
-101.472
11
165.358
21
-101.51
0
LINE
8
BLACK
6
CONTINUOUS
10
165.358
20
-101.51
11
165.371
21
-101.551
0
LINE
8
BLACK
6
CONTINUOUS
10
165.371
20
-101.551
11
165.375
21
-101.594
0
LINE
8
BLACK
6
CONTINUOUS
10
165.375
20
-101.594
11
165.375
21
-102.031
0
LINE
8
BLACK
6
CONTINUOUS
10
165.375
20
-102.031
11
165.371
21
-102.074
0
LINE
8
BLACK
6
CONTINUOUS
10
165.371
20
-102.074
11
165.358
21
-102.115
0
LINE
8
BLACK
6
CONTINUOUS
10
165.358
20
-102.115
11
165.338
21
-102.153
0
LINE
8
BLACK
6
CONTINUOUS
10
165.338
20
-102.153
11
165.311
21
-102.186
0
LINE
8
BLACK
6
CONTINUOUS
10
165.311
20
-102.186
11
165.278
21
-102.213
0
LINE
8
BLACK
6
CONTINUOUS
10
165.278
20
-102.213
11
165.24
21
-102.233
0
LINE
8
BLACK
6
CONTINUOUS
10
165.24
20
-102.233
11
165.199
21
-102.246
0
LINE
8
BLACK
6
CONTINUOUS
10
165.199
20
-102.246
11
165.156
21
-102.25
0
LINE
8
BLACK
6
CONTINUOUS
10
165.156
20
-102.25
11
164.644
21
-102.25
0
LINE
8
BLACK
6
CONTINUOUS
10
164.644
20
-102.25
11
164.601
21
-102.246
0
LINE
8
BLACK
6
CONTINUOUS
10
164.601
20
-102.246
11
164.56
21
-102.233
0
LINE
8
BLACK
6
CONTINUOUS
10
164.56
20
-102.233
11
164.522
21
-102.213
0
LINE
8
BLACK
6
CONTINUOUS
10
164.522
20
-102.213
11
164.489
21
-102.186
0
LINE
8
BLACK
6
CONTINUOUS
10
164.489
20
-102.186
11
164.462
21
-102.153
0
LINE
8
BLACK
6
CONTINUOUS
10
164.462
20
-102.153
11
164.442
21
-102.115
0
LINE
8
BLACK
6
CONTINUOUS
10
164.442
20
-102.115
11
164.429
21
-102.074
0
LINE
8
BLACK
6
CONTINUOUS
10
164.429
20
-102.074
11
164.425
21
-102.031
0
LINE
8
BLACK
6
CONTINUOUS
10
164.425
20
-102.031
11
164.425
21
-101.594
0
LINE
8
BLACK
6
CONTINUOUS
10
164.425
20
-101.594
11
164.429
21
-101.551
0
LINE
8
BLACK
6
CONTINUOUS
10
164.429
20
-101.551
11
164.442
21
-101.51
0
LINE
8
BLACK
6
CONTINUOUS
10
164.442
20
-101.51
11
164.462
21
-101.472
0
LINE
8
BLACK
6
CONTINUOUS
10
164.462
20
-101.472
11
164.489
21
-101.439
0
LINE
8
BLACK
6
CONTINUOUS
10
164.489
20
-101.439
11
164.522
21
-101.412
0
LINE
8
BLACK
6
CONTINUOUS
10
164.522
20
-101.412
11
164.56
21
-101.392
0
LINE
8
BLACK
6
CONTINUOUS
10
164.56
20
-101.392
11
164.601
21
-101.379
0
LINE
8
BLACK
6
CONTINUOUS
10
164.601
20
-101.379
11
164.644
21
-101.375
0
LINE
8
BLACK
6
CONTINUOUS
10
164.644
20
-101.375
11
165.156
21
-101.375
0
LINE
8
BLACK
6
CONTINUOUS
10
165.156
20
-101.375
11
165.199
21
-101.379
0
LINE
8
BLACK
6
CONTINUOUS
10
168.999
20
-101.379
11
169.04
21
-101.392
0
LINE
8
BLACK
6
CONTINUOUS
10
169.04
20
-101.392
11
169.078
21
-101.412
0
LINE
8
BLACK
6
CONTINUOUS
10
169.078
20
-101.412
11
169.111
21
-101.439
0
LINE
8
BLACK
6
CONTINUOUS
10
169.111
20
-101.439
11
169.138
21
-101.472
0
LINE
8
BLACK
6
CONTINUOUS
10
169.138
20
-101.472
11
169.158
21
-101.51
0
LINE
8
BLACK
6
CONTINUOUS
10
169.158
20
-101.51
11
169.171
21
-101.551
0
LINE
8
BLACK
6
CONTINUOUS
10
169.171
20
-101.551
11
169.175
21
-101.594
0
LINE
8
BLACK
6
CONTINUOUS
10
169.175
20
-101.594
11
169.175
21
-102.031
0
LINE
8
BLACK
6
CONTINUOUS
10
169.175
20
-102.031
11
169.171
21
-102.074
0
LINE
8
BLACK
6
CONTINUOUS
10
169.171
20
-102.074
11
169.158
21
-102.115
0
LINE
8
BLACK
6
CONTINUOUS
10
169.158
20
-102.115
11
169.138
21
-102.153
0
LINE
8
BLACK
6
CONTINUOUS
10
169.138
20
-102.153
11
169.111
21
-102.186
0
LINE
8
BLACK
6
CONTINUOUS
10
169.111
20
-102.186
11
169.078
21
-102.213
0
LINE
8
BLACK
6
CONTINUOUS
10
169.078
20
-102.213
11
169.04
21
-102.233
0
LINE
8
BLACK
6
CONTINUOUS
10
169.04
20
-102.233
11
168.999
21
-102.246
0
LINE
8
BLACK
6
CONTINUOUS
10
168.999
20
-102.246
11
168.956
21
-102.25
0
LINE
8
BLACK
6
CONTINUOUS
10
168.956
20
-102.25
11
168.444
21
-102.25
0
LINE
8
BLACK
6
CONTINUOUS
10
168.444
20
-102.25
11
168.401
21
-102.246
0
LINE
8
BLACK
6
CONTINUOUS
10
168.401
20
-102.246
11
168.36
21
-102.233
0
LINE
8
BLACK
6
CONTINUOUS
10
168.36
20
-102.233
11
168.322
21
-102.213
0
LINE
8
BLACK
6
CONTINUOUS
10
168.322
20
-102.213
11
168.289
21
-102.186
0
LINE
8
BLACK
6
CONTINUOUS
10
168.289
20
-102.186
11
168.262
21
-102.153
0
LINE
8
BLACK
6
CONTINUOUS
10
168.262
20
-102.153
11
168.242
21
-102.115
0
LINE
8
BLACK
6
CONTINUOUS
10
168.242
20
-102.115
11
168.229
21
-102.074
0
LINE
8
BLACK
6
CONTINUOUS
10
168.229
20
-102.074
11
168.225
21
-102.031
0
LINE
8
BLACK
6
CONTINUOUS
10
168.225
20
-102.031
11
168.225
21
-101.594
0
LINE
8
BLACK
6
CONTINUOUS
10
168.225
20
-101.594
11
168.229
21
-101.551
0
LINE
8
BLACK
6
CONTINUOUS
10
168.229
20
-101.551
11
168.242
21
-101.51
0
LINE
8
BLACK
6
CONTINUOUS
10
168.242
20
-101.51
11
168.262
21
-101.472
0
LINE
8
BLACK
6
CONTINUOUS
10
168.262
20
-101.472
11
168.289
21
-101.439
0
LINE
8
BLACK
6
CONTINUOUS
10
168.289
20
-101.439
11
168.322
21
-101.412
0
LINE
8
BLACK
6
CONTINUOUS
10
168.322
20
-101.412
11
168.36
21
-101.392
0
LINE
8
BLACK
6
CONTINUOUS
10
168.36
20
-101.392
11
168.401
21
-101.379
0
LINE
8
BLACK
6
CONTINUOUS
10
168.401
20
-101.379
11
168.444
21
-101.375
0
LINE
8
BLACK
6
CONTINUOUS
10
168.444
20
-101.375
11
168.956
21
-101.375
0
LINE
8
BLACK
6
CONTINUOUS
10
168.956
20
-101.375
11
168.999
21
-101.379
0
LINE
8
BLACK
6
CONTINUOUS
10
161.55
20
-100.65
11
160.75
21
-100.65
0
LINE
8
BLACK
6
CONTINUOUS
10
160.75
20
-100.65
11
160.75
21
-99.75
0
LINE
8
BLACK
6
CONTINUOUS
10
160.75
20
-99.75
11
161.55
21
-99.75
0
LINE
8
BLACK
6
CONTINUOUS
10
161.55
20
-99.75
11
161.55
21
-100.65
0
LINE
8
BLACK
6
CONTINUOUS
10
163.45
20
-100.65
11
162.65
21
-100.65
0
LINE
8
BLACK
6
CONTINUOUS
10
162.65
20
-100.65
11
162.65
21
-99.75
0
LINE
8
BLACK
6
CONTINUOUS
10
162.65
20
-99.75
11
163.45
21
-99.75
0
LINE
8
BLACK
6
CONTINUOUS
10
163.45
20
-99.75
11
163.45
21
-100.65
0
LINE
8
BLACK
6
CONTINUOUS
10
157.75
20
-100.65
11
156.95
21
-100.65
0
LINE
8
BLACK
6
CONTINUOUS
10
156.95
20
-100.65
11
156.95
21
-99.75
0
LINE
8
BLACK
6
CONTINUOUS
10
156.95
20
-99.75
11
157.75
21
-99.75
0
LINE
8
BLACK
6
CONTINUOUS
10
157.75
20
-99.75
11
157.75
21
-100.65
0
LINE
8
BLACK
6
CONTINUOUS
10
159.65
20
-100.65
11
158.85
21
-100.65
0
LINE
8
BLACK
6
CONTINUOUS
10
158.85
20
-100.65
11
158.85
21
-99.75
0
LINE
8
BLACK
6
CONTINUOUS
10
158.85
20
-99.75
11
159.65
21
-99.75
0
LINE
8
BLACK
6
CONTINUOUS
10
159.65
20
-99.75
11
159.65
21
-100.65
0
LINE
8
BLACK
6
CONTINUOUS
10
169.15
20
-100.65
11
168.35
21
-100.65
0
LINE
8
BLACK
6
CONTINUOUS
10
168.35
20
-100.65
11
168.35
21
-99.75
0
LINE
8
BLACK
6
CONTINUOUS
10
168.35
20
-99.75
11
169.15
21
-99.75
0
LINE
8
BLACK
6
CONTINUOUS
10
169.15
20
-99.75
11
169.15
21
-100.65
0
LINE
8
BLACK
6
CONTINUOUS
10
171.05
20
-100.65
11
170.25
21
-100.65
0
LINE
8
BLACK
6
CONTINUOUS
10
170.25
20
-100.65
11
170.25
21
-99.75
0
LINE
8
BLACK
6
CONTINUOUS
10
170.25
20
-99.75
11
171.05
21
-99.75
0
LINE
8
BLACK
6
CONTINUOUS
10
171.05
20
-99.75
11
171.05
21
-100.65
0
LINE
8
BLACK
6
CONTINUOUS
10
167.25
20
-100.65
11
166.45
21
-100.65
0
LINE
8
BLACK
6
CONTINUOUS
10
166.45
20
-100.65
11
166.45
21
-99.75
0
LINE
8
BLACK
6
CONTINUOUS
10
166.45
20
-99.75
11
167.25
21
-99.75
0
LINE
8
BLACK
6
CONTINUOUS
10
167.25
20
-99.75
11
167.25
21
-100.65
0
LINE
8
BLACK
6
CONTINUOUS
10
165.35
20
-100.65
11
164.55
21
-100.65
0
LINE
8
BLACK
6
CONTINUOUS
10
164.55
20
-100.65
11
164.55
21
-99.75
0
LINE
8
BLACK
6
CONTINUOUS
10
164.55
20
-99.75
11
165.35
21
-99.75
0
LINE
8
BLACK
6
CONTINUOUS
10
165.35
20
-99.75
11
165.35
21
-100.65
0
LINE
8
BLACK
6
CONTINUOUS
10
162.5
20
-98.65
11
161.7
21
-98.65
0
LINE
8
BLACK
6
CONTINUOUS
10
161.7
20
-98.65
11
161.7
21
-97.75
0
LINE
8
BLACK
6
CONTINUOUS
10
161.7
20
-97.75
11
162.5
21
-97.75
0
LINE
8
BLACK
6
CONTINUOUS
10
162.5
20
-97.75
11
162.5
21
-98.65
0
LINE
8
BLACK
6
CONTINUOUS
10
158.7
20
-98.65
11
157.9
21
-98.65
0
LINE
8
BLACK
6
CONTINUOUS
10
157.9
20
-98.65
11
157.9
21
-97.75
0
LINE
8
BLACK
6
CONTINUOUS
10
157.9
20
-97.75
11
158.7
21
-97.75
0
LINE
8
BLACK
6
CONTINUOUS
10
158.7
20
-97.75
11
158.7
21
-98.65
0
LINE
8
BLACK
6
CONTINUOUS
10
170.1
20
-98.65
11
169.3
21
-98.65
0
LINE
8
BLACK
6
CONTINUOUS
10
169.3
20
-98.65
11
169.3
21
-97.75
0
LINE
8
BLACK
6
CONTINUOUS
10
169.3
20
-97.75
11
170.1
21
-97.75
0
LINE
8
BLACK
6
CONTINUOUS
10
170.1
20
-97.75
11
170.1
21
-98.65
0
LINE
8
BLACK
6
CONTINUOUS
10
166.3
20
-98.65
11
165.5
21
-98.65
0
LINE
8
BLACK
6
CONTINUOUS
10
165.5
20
-98.65
11
165.5
21
-97.75
0
LINE
8
BLACK
6
CONTINUOUS
10
165.5
20
-97.75
11
166.3
21
-97.75
0
LINE
8
BLACK
6
CONTINUOUS
10
166.3
20
-97.75
11
166.3
21
-98.65
0
LINE
8
BLACK
6
CONTINUOUS
10
161.399
20
-95.7542
11
161.44
21
-95.7667
0
LINE
8
BLACK
6
CONTINUOUS
10
161.44
20
-95.7667
11
161.478
21
-95.7869
0
LINE
8
BLACK
6
CONTINUOUS
10
161.478
20
-95.7869
11
161.511
21
-95.8141
0
LINE
8
BLACK
6
CONTINUOUS
10
161.511
20
-95.8141
11
161.538
21
-95.8472
0
LINE
8
BLACK
6
CONTINUOUS
10
161.538
20
-95.8472
11
161.558
21
-95.885
0
LINE
8
BLACK
6
CONTINUOUS
10
161.558
20
-95.885
11
161.571
21
-95.9261
0
LINE
8
BLACK
6
CONTINUOUS
10
161.571
20
-95.9261
11
161.575
21
-95.9688
0
LINE
8
BLACK
6
CONTINUOUS
10
161.575
20
-95.9688
11
161.575
21
-96.4062
0
LINE
8
BLACK
6
CONTINUOUS
10
161.575
20
-96.4062
11
161.571
21
-96.4489
0
LINE
8
BLACK
6
CONTINUOUS
10
161.571
20
-96.4489
11
161.558
21
-96.49
0
LINE
8
BLACK
6
CONTINUOUS
10
161.558
20
-96.49
11
161.538
21
-96.5278
0
LINE
8
BLACK
6
CONTINUOUS
10
161.538
20
-96.5278
11
161.511
21
-96.5609
0
LINE
8
BLACK
6
CONTINUOUS
10
161.511
20
-96.5609
11
161.478
21
-96.5881
0
LINE
8
BLACK
6
CONTINUOUS
10
161.478
20
-96.5881
11
161.44
21
-96.6083
0
LINE
8
BLACK
6
CONTINUOUS
10
161.44
20
-96.6083
11
161.399
21
-96.6208
0
LINE
8
BLACK
6
CONTINUOUS
10
161.399
20
-96.6208
11
161.356
21
-96.625
0
LINE
8
BLACK
6
CONTINUOUS
10
161.356
20
-96.625
11
160.844
21
-96.625
0
LINE
8
BLACK
6
CONTINUOUS
10
160.844
20
-96.625
11
160.801
21
-96.6208
0
LINE
8
BLACK
6
CONTINUOUS
10
160.801
20
-96.6208
11
160.76
21
-96.6083
0
LINE
8
BLACK
6
CONTINUOUS
10
160.76
20
-96.6083
11
160.722
21
-96.5881
0
LINE
8
BLACK
6
CONTINUOUS
10
160.722
20
-96.5881
11
160.689
21
-96.5609
0
LINE
8
BLACK
6
CONTINUOUS
10
160.689
20
-96.5609
11
160.662
21
-96.5278
0
LINE
8
BLACK
6
CONTINUOUS
10
160.662
20
-96.5278
11
160.642
21
-96.49
0
LINE
8
BLACK
6
CONTINUOUS
10
160.642
20
-96.49
11
160.629
21
-96.4489
0
LINE
8
BLACK
6
CONTINUOUS
10
160.629
20
-96.4489
11
160.625
21
-96.4062
0
LINE
8
BLACK
6
CONTINUOUS
10
160.625
20
-96.4062
11
160.625
21
-95.9688
0
LINE
8
BLACK
6
CONTINUOUS
10
160.625
20
-95.9688
11
160.629
21
-95.9261
0
LINE
8
BLACK
6
CONTINUOUS
10
160.629
20
-95.9261
11
160.642
21
-95.885
0
LINE
8
BLACK
6
CONTINUOUS
10
160.642
20
-95.885
11
160.662
21
-95.8472
0
LINE
8
BLACK
6
CONTINUOUS
10
160.662
20
-95.8472
11
160.689
21
-95.8141
0
LINE
8
BLACK
6
CONTINUOUS
10
160.689
20
-95.8141
11
160.722
21
-95.7869
0
LINE
8
BLACK
6
CONTINUOUS
10
160.722
20
-95.7869
11
160.76
21
-95.7667
0
LINE
8
BLACK
6
CONTINUOUS
10
160.76
20
-95.7667
11
160.801
21
-95.7542
0
LINE
8
BLACK
6
CONTINUOUS
10
160.801
20
-95.7542
11
160.844
21
-95.75
0
LINE
8
BLACK
6
CONTINUOUS
10
160.844
20
-95.75
11
161.356
21
-95.75
0
LINE
8
BLACK
6
CONTINUOUS
10
161.356
20
-95.75
11
161.399
21
-95.7542
0
LINE
8
BLACK
6
CONTINUOUS
10
167.199
20
-95.7542
11
167.24
21
-95.7667
0
LINE
8
BLACK
6
CONTINUOUS
10
167.24
20
-95.7667
11
167.278
21
-95.7869
0
LINE
8
BLACK
6
CONTINUOUS
10
167.278
20
-95.7869
11
167.311
21
-95.8141
0
LINE
8
BLACK
6
CONTINUOUS
10
167.311
20
-95.8141
11
167.338
21
-95.8472
0
LINE
8
BLACK
6
CONTINUOUS
10
167.338
20
-95.8472
11
167.358
21
-95.885
0
LINE
8
BLACK
6
CONTINUOUS
10
167.358
20
-95.885
11
167.371
21
-95.9261
0
LINE
8
BLACK
6
CONTINUOUS
10
167.371
20
-95.9261
11
167.375
21
-95.9688
0
LINE
8
BLACK
6
CONTINUOUS
10
167.375
20
-95.9688
11
167.375
21
-96.4062
0
LINE
8
BLACK
6
CONTINUOUS
10
167.375
20
-96.4062
11
167.371
21
-96.4489
0
LINE
8
BLACK
6
CONTINUOUS
10
167.371
20
-96.4489
11
167.358
21
-96.49
0
LINE
8
BLACK
6
CONTINUOUS
10
167.358
20
-96.49
11
167.338
21
-96.5278
0
LINE
8
BLACK
6
CONTINUOUS
10
167.338
20
-96.5278
11
167.311
21
-96.5609
0
LINE
8
BLACK
6
CONTINUOUS
10
167.311
20
-96.5609
11
167.278
21
-96.5881
0
LINE
8
BLACK
6
CONTINUOUS
10
167.278
20
-96.5881
11
167.24
21
-96.6083
0
LINE
8
BLACK
6
CONTINUOUS
10
167.24
20
-96.6083
11
167.199
21
-96.6208
0
LINE
8
BLACK
6
CONTINUOUS
10
167.199
20
-96.6208
11
167.156
21
-96.625
0
LINE
8
BLACK
6
CONTINUOUS
10
167.156
20
-96.625
11
166.644
21
-96.625
0
LINE
8
BLACK
6
CONTINUOUS
10
166.644
20
-96.625
11
166.601
21
-96.6208
0
LINE
8
BLACK
6
CONTINUOUS
10
166.601
20
-96.6208
11
166.56
21
-96.6083
0
LINE
8
BLACK
6
CONTINUOUS
10
166.56
20
-96.6083
11
166.522
21
-96.5881
0
LINE
8
BLACK
6
CONTINUOUS
10
166.522
20
-96.5881
11
166.489
21
-96.5609
0
LINE
8
BLACK
6
CONTINUOUS
10
166.489
20
-96.5609
11
166.462
21
-96.5278
0
LINE
8
BLACK
6
CONTINUOUS
10
166.462
20
-96.5278
11
166.442
21
-96.49
0
LINE
8
BLACK
6
CONTINUOUS
10
166.442
20
-96.49
11
166.429
21
-96.4489
0
LINE
8
BLACK
6
CONTINUOUS
10
166.429
20
-96.4489
11
166.425
21
-96.4062
0
LINE
8
BLACK
6
CONTINUOUS
10
166.425
20
-96.4062
11
166.425
21
-95.9688
0
LINE
8
BLACK
6
CONTINUOUS
10
166.425
20
-95.9688
11
166.429
21
-95.9261
0
LINE
8
BLACK
6
CONTINUOUS
10
166.429
20
-95.9261
11
166.442
21
-95.885
0
LINE
8
BLACK
6
CONTINUOUS
10
166.442
20
-95.885
11
166.462
21
-95.8472
0
LINE
8
BLACK
6
CONTINUOUS
10
166.462
20
-95.8472
11
166.489
21
-95.8141
0
LINE
8
BLACK
6
CONTINUOUS
10
166.489
20
-95.8141
11
166.522
21
-95.7869
0
LINE
8
BLACK
6
CONTINUOUS
10
166.522
20
-95.7869
11
166.56
21
-95.7667
0
LINE
8
BLACK
6
CONTINUOUS
10
166.56
20
-95.7667
11
166.601
21
-95.7542
0
LINE
8
BLACK
6
CONTINUOUS
10
166.601
20
-95.7542
11
166.644
21
-95.75
0
LINE
8
BLACK
6
CONTINUOUS
10
166.644
20
-95.75
11
167.156
21
-95.75
0
LINE
8
BLACK
6
CONTINUOUS
10
167.156
20
-95.75
11
167.199
21
-95.7542
0
LINE
8
BLACK
6
CONTINUOUS
10
167.199
20
-94.1792
11
167.24
21
-94.1917
0
LINE
8
BLACK
6
CONTINUOUS
10
167.24
20
-94.1917
11
167.278
21
-94.2119
0
LINE
8
BLACK
6
CONTINUOUS
10
167.278
20
-94.2119
11
167.311
21
-94.2391
0
LINE
8
BLACK
6
CONTINUOUS
10
167.311
20
-94.2391
11
167.338
21
-94.2722
0
LINE
8
BLACK
6
CONTINUOUS
10
167.338
20
-94.2722
11
167.358
21
-94.31
0
LINE
8
BLACK
6
CONTINUOUS
10
167.358
20
-94.31
11
167.371
21
-94.3511
0
LINE
8
BLACK
6
CONTINUOUS
10
167.371
20
-94.3511
11
167.375
21
-94.3937
0
LINE
8
BLACK
6
CONTINUOUS
10
167.375
20
-94.3937
11
167.375
21
-94.8312
0
LINE
8
BLACK
6
CONTINUOUS
10
167.375
20
-94.8312
11
167.371
21
-94.8739
0
LINE
8
BLACK
6
CONTINUOUS
10
167.371
20
-94.8739
11
167.358
21
-94.915
0
LINE
8
BLACK
6
CONTINUOUS
10
167.358
20
-94.915
11
167.338
21
-94.9528
0
LINE
8
BLACK
6
CONTINUOUS
10
167.338
20
-94.9528
11
167.311
21
-94.9859
0
LINE
8
BLACK
6
CONTINUOUS
10
167.311
20
-94.9859
11
167.278
21
-95.0131
0
LINE
8
BLACK
6
CONTINUOUS
10
167.278
20
-95.0131
11
167.24
21
-95.0333
0
LINE
8
BLACK
6
CONTINUOUS
10
167.24
20
-95.0333
11
167.199
21
-95.0458
0
LINE
8
BLACK
6
CONTINUOUS
10
167.199
20
-95.0458
11
167.156
21
-95.05
0
LINE
8
BLACK
6
CONTINUOUS
10
167.156
20
-95.05
11
166.644
21
-95.05
0
LINE
8
BLACK
6
CONTINUOUS
10
166.644
20
-95.05
11
166.601
21
-95.0458
0
LINE
8
BLACK
6
CONTINUOUS
10
166.601
20
-95.0458
11
166.56
21
-95.0333
0
LINE
8
BLACK
6
CONTINUOUS
10
166.56
20
-95.0333
11
166.522
21
-95.0131
0
LINE
8
BLACK
6
CONTINUOUS
10
166.522
20
-95.0131
11
166.489
21
-94.9859
0
LINE
8
BLACK
6
CONTINUOUS
10
166.489
20
-94.9859
11
166.462
21
-94.9528
0
LINE
8
BLACK
6
CONTINUOUS
10
166.462
20
-94.9528
11
166.442
21
-94.915
0
LINE
8
BLACK
6
CONTINUOUS
10
166.442
20
-94.915
11
166.429
21
-94.8739
0
LINE
8
BLACK
6
CONTINUOUS
10
166.429
20
-94.8739
11
166.425
21
-94.8312
0
LINE
8
BLACK
6
CONTINUOUS
10
166.425
20
-94.8312
11
166.425
21
-94.3937
0
LINE
8
BLACK
6
CONTINUOUS
10
166.425
20
-94.3937
11
166.429
21
-94.3511
0
LINE
8
BLACK
6
CONTINUOUS
10
166.429
20
-94.3511
11
166.442
21
-94.31
0
LINE
8
BLACK
6
CONTINUOUS
10
166.442
20
-94.31
11
166.462
21
-94.2722
0
LINE
8
BLACK
6
CONTINUOUS
10
166.462
20
-94.2722
11
166.489
21
-94.2391
0
LINE
8
BLACK
6
CONTINUOUS
10
166.489
20
-94.2391
11
166.522
21
-94.2119
0
LINE
8
BLACK
6
CONTINUOUS
10
166.522
20
-94.2119
11
166.56
21
-94.1917
0
LINE
8
BLACK
6
CONTINUOUS
10
166.56
20
-94.1917
11
166.601
21
-94.1792
0
LINE
8
BLACK
6
CONTINUOUS
10
166.601
20
-94.1792
11
166.644
21
-94.175
0
LINE
8
BLACK
6
CONTINUOUS
10
166.644
20
-94.175
11
167.156
21
-94.175
0
LINE
8
BLACK
6
CONTINUOUS
10
167.156
20
-94.175
11
167.199
21
-94.1792
0
LINE
8
BLACK
6
CONTINUOUS
10
161.399
20
-94.1792
11
161.44
21
-94.1917
0
LINE
8
BLACK
6
CONTINUOUS
10
161.44
20
-94.1917
11
161.478
21
-94.2119
0
LINE
8
BLACK
6
CONTINUOUS
10
161.478
20
-94.2119
11
161.511
21
-94.2391
0
LINE
8
BLACK
6
CONTINUOUS
10
161.511
20
-94.2391
11
161.538
21
-94.2722
0
LINE
8
BLACK
6
CONTINUOUS
10
161.538
20
-94.2722
11
161.558
21
-94.31
0
LINE
8
BLACK
6
CONTINUOUS
10
161.558
20
-94.31
11
161.571
21
-94.3511
0
LINE
8
BLACK
6
CONTINUOUS
10
161.571
20
-94.3511
11
161.575
21
-94.3937
0
LINE
8
BLACK
6
CONTINUOUS
10
161.575
20
-94.3937
11
161.575
21
-94.8312
0
LINE
8
BLACK
6
CONTINUOUS
10
161.575
20
-94.8312
11
161.571
21
-94.8739
0
LINE
8
BLACK
6
CONTINUOUS
10
161.571
20
-94.8739
11
161.558
21
-94.915
0
LINE
8
BLACK
6
CONTINUOUS
10
161.558
20
-94.915
11
161.538
21
-94.9528
0
LINE
8
BLACK
6
CONTINUOUS
10
161.538
20
-94.9528
11
161.511
21
-94.9859
0
LINE
8
BLACK
6
CONTINUOUS
10
161.511
20
-94.9859
11
161.478
21
-95.0131
0
LINE
8
BLACK
6
CONTINUOUS
10
161.478
20
-95.0131
11
161.44
21
-95.0333
0
LINE
8
BLACK
6
CONTINUOUS
10
161.44
20
-95.0333
11
161.399
21
-95.0458
0
LINE
8
BLACK
6
CONTINUOUS
10
161.399
20
-95.0458
11
161.356
21
-95.05
0
LINE
8
BLACK
6
CONTINUOUS
10
161.356
20
-95.05
11
160.844
21
-95.05
0
LINE
8
BLACK
6
CONTINUOUS
10
160.844
20
-95.05
11
160.801
21
-95.0458
0
LINE
8
BLACK
6
CONTINUOUS
10
160.801
20
-95.0458
11
160.76
21
-95.0333
0
LINE
8
BLACK
6
CONTINUOUS
10
160.76
20
-95.0333
11
160.722
21
-95.0131
0
LINE
8
BLACK
6
CONTINUOUS
10
160.722
20
-95.0131
11
160.689
21
-94.9859
0
LINE
8
BLACK
6
CONTINUOUS
10
160.689
20
-94.9859
11
160.662
21
-94.9528
0
LINE
8
BLACK
6
CONTINUOUS
10
160.662
20
-94.9528
11
160.642
21
-94.915
0
LINE
8
BLACK
6
CONTINUOUS
10
160.642
20
-94.915
11
160.629
21
-94.8739
0
LINE
8
BLACK
6
CONTINUOUS
10
160.629
20
-94.8739
11
160.625
21
-94.8312
0
LINE
8
BLACK
6
CONTINUOUS
10
160.625
20
-94.8312
11
160.625
21
-94.3937
0
LINE
8
BLACK
6
CONTINUOUS
10
160.625
20
-94.3937
11
160.629
21
-94.3511
0
LINE
8
BLACK
6
CONTINUOUS
10
160.629
20
-94.3511
11
160.642
21
-94.31
0
LINE
8
BLACK
6
CONTINUOUS
10
160.642
20
-94.31
11
160.662
21
-94.2722
0
LINE
8
BLACK
6
CONTINUOUS
10
160.662
20
-94.2722
11
160.689
21
-94.2391
0
LINE
8
BLACK
6
CONTINUOUS
10
160.689
20
-94.2391
11
160.722
21
-94.2119
0
LINE
8
BLACK
6
CONTINUOUS
10
160.722
20
-94.2119
11
160.76
21
-94.1917
0
LINE
8
BLACK
6
CONTINUOUS
10
160.76
20
-94.1917
11
160.801
21
-94.1792
0
LINE
8
BLACK
6
CONTINUOUS
10
160.801
20
-94.1792
11
160.844
21
-94.175
0
LINE
8
BLACK
6
CONTINUOUS
10
160.844
20
-94.175
11
161.356
21
-94.175
0
LINE
8
BLACK
6
CONTINUOUS
10
161.356
20
-94.175
11
161.399
21
-94.1792
0
LINE
8
BLACK
6
CONTINUOUS
10
169.599
20
-93.7667
11
169.64
21
-93.7792
0
LINE
8
BLACK
6
CONTINUOUS
10
169.64
20
-93.7792
11
169.678
21
-93.7994
0
LINE
8
BLACK
6
CONTINUOUS
10
169.678
20
-93.7994
11
169.711
21
-93.8266
0
LINE
8
BLACK
6
CONTINUOUS
10
169.711
20
-93.8266
11
169.738
21
-93.8597
0
LINE
8
BLACK
6
CONTINUOUS
10
169.738
20
-93.8597
11
169.758
21
-93.8975
0
LINE
8
BLACK
6
CONTINUOUS
10
169.758
20
-93.8975
11
169.771
21
-93.9386
0
LINE
8
BLACK
6
CONTINUOUS
10
169.771
20
-93.9386
11
169.775
21
-93.9813
0
LINE
8
BLACK
6
CONTINUOUS
10
169.775
20
-93.9813
11
169.775
21
-94.4187
0
LINE
8
BLACK
6
CONTINUOUS
10
169.775
20
-94.4187
11
169.771
21
-94.4614
0
LINE
8
BLACK
6
CONTINUOUS
10
169.771
20
-94.4614
11
169.758
21
-94.5025
0
LINE
8
BLACK
6
CONTINUOUS
10
169.758
20
-94.5025
11
169.738
21
-94.5403
0
LINE
8
BLACK
6
CONTINUOUS
10
169.738
20
-94.5403
11
169.711
21
-94.5734
0
LINE
8
BLACK
6
CONTINUOUS
10
169.711
20
-94.5734
11
169.678
21
-94.6006
0
LINE
8
BLACK
6
CONTINUOUS
10
169.678
20
-94.6006
11
169.64
21
-94.6208
0
LINE
8
BLACK
6
CONTINUOUS
10
169.64
20
-94.6208
11
169.599
21
-94.6333
0
LINE
8
BLACK
6
CONTINUOUS
10
169.599
20
-94.6333
11
169.556
21
-94.6375
0
LINE
8
BLACK
6
CONTINUOUS
10
169.556
20
-94.6375
11
169.044
21
-94.6375
0
LINE
8
BLACK
6
CONTINUOUS
10
169.044
20
-94.6375
11
169.001
21
-94.6333
0
LINE
8
BLACK
6
CONTINUOUS
10
169.001
20
-94.6333
11
168.96
21
-94.6208
0
LINE
8
BLACK
6
CONTINUOUS
10
168.96
20
-94.6208
11
168.922
21
-94.6006
0
LINE
8
BLACK
6
CONTINUOUS
10
168.922
20
-94.6006
11
168.889
21
-94.5734
0
LINE
8
BLACK
6
CONTINUOUS
10
168.889
20
-94.5734
11
168.862
21
-94.5403
0
LINE
8
BLACK
6
CONTINUOUS
10
168.862
20
-94.5403
11
168.842
21
-94.5025
0
LINE
8
BLACK
6
CONTINUOUS
10
168.842
20
-94.5025
11
168.829
21
-94.4614
0
LINE
8
BLACK
6
CONTINUOUS
10
168.829
20
-94.4614
11
168.825
21
-94.4187
0
LINE
8
BLACK
6
CONTINUOUS
10
168.825
20
-94.4187
11
168.825
21
-93.9813
0
LINE
8
BLACK
6
CONTINUOUS
10
168.825
20
-93.9813
11
168.829
21
-93.9386
0
LINE
8
BLACK
6
CONTINUOUS
10
168.829
20
-93.9386
11
168.842
21
-93.8975
0
LINE
8
BLACK
6
CONTINUOUS
10
168.842
20
-93.8975
11
168.862
21
-93.8597
0
LINE
8
BLACK
6
CONTINUOUS
10
168.862
20
-93.8597
11
168.889
21
-93.8266
0
LINE
8
BLACK
6
CONTINUOUS
10
168.889
20
-93.8266
11
168.922
21
-93.7994
0
LINE
8
BLACK
6
CONTINUOUS
10
168.922
20
-93.7994
11
168.96
21
-93.7792
0
LINE
8
BLACK
6
CONTINUOUS
10
168.96
20
-93.7792
11
169.001
21
-93.7667
0
LINE
8
BLACK
6
CONTINUOUS
10
169.001
20
-93.7667
11
169.044
21
-93.7625
0
LINE
8
BLACK
6
CONTINUOUS
10
169.044
20
-93.7625
11
169.556
21
-93.7625
0
LINE
8
BLACK
6
CONTINUOUS
10
169.556
20
-93.7625
11
169.599
21
-93.7667
0
LINE
8
BLACK
6
CONTINUOUS
10
159.199
20
-93.7542
11
159.24
21
-93.7667
0
LINE
8
BLACK
6
CONTINUOUS
10
159.24
20
-93.7667
11
159.278
21
-93.7869
0
LINE
8
BLACK
6
CONTINUOUS
10
159.278
20
-93.7869
11
159.311
21
-93.8141
0
LINE
8
BLACK
6
CONTINUOUS
10
159.311
20
-93.8141
11
159.338
21
-93.8472
0
LINE
8
BLACK
6
CONTINUOUS
10
159.338
20
-93.8472
11
159.358
21
-93.885
0
LINE
8
BLACK
6
CONTINUOUS
10
159.358
20
-93.885
11
159.371
21
-93.9261
0
LINE
8
BLACK
6
CONTINUOUS
10
159.371
20
-93.9261
11
159.375
21
-93.9688
0
LINE
8
BLACK
6
CONTINUOUS
10
159.375
20
-93.9688
11
159.375
21
-94.4062
0
LINE
8
BLACK
6
CONTINUOUS
10
159.375
20
-94.4062
11
159.371
21
-94.4489
0
LINE
8
BLACK
6
CONTINUOUS
10
159.371
20
-94.4489
11
159.358
21
-94.49
0
LINE
8
BLACK
6
CONTINUOUS
10
159.358
20
-94.49
11
159.338
21
-94.5278
0
LINE
8
BLACK
6
CONTINUOUS
10
159.338
20
-94.5278
11
159.311
21
-94.5609
0
LINE
8
BLACK
6
CONTINUOUS
10
159.311
20
-94.5609
11
159.278
21
-94.5881
0
LINE
8
BLACK
6
CONTINUOUS
10
159.278
20
-94.5881
11
159.24
21
-94.6083
0
LINE
8
BLACK
6
CONTINUOUS
10
159.24
20
-94.6083
11
159.199
21
-94.6208
0
LINE
8
BLACK
6
CONTINUOUS
10
159.199
20
-94.6208
11
159.156
21
-94.625
0
LINE
8
BLACK
6
CONTINUOUS
10
159.156
20
-94.625
11
158.644
21
-94.625
0
LINE
8
BLACK
6
CONTINUOUS
10
158.644
20
-94.625
11
158.601
21
-94.6208
0
LINE
8
BLACK
6
CONTINUOUS
10
158.601
20
-94.6208
11
158.56
21
-94.6083
0
LINE
8
BLACK
6
CONTINUOUS
10
158.56
20
-94.6083
11
158.522
21
-94.5881
0
LINE
8
BLACK
6
CONTINUOUS
10
158.522
20
-94.5881
11
158.489
21
-94.5609
0
LINE
8
BLACK
6
CONTINUOUS
10
158.489
20
-94.5609
11
158.462
21
-94.5278
0
LINE
8
BLACK
6
CONTINUOUS
10
158.462
20
-94.5278
11
158.442
21
-94.49
0
LINE
8
BLACK
6
CONTINUOUS
10
158.442
20
-94.49
11
158.429
21
-94.4489
0
LINE
8
BLACK
6
CONTINUOUS
10
158.429
20
-94.4489
11
158.425
21
-94.4062
0
LINE
8
BLACK
6
CONTINUOUS
10
158.425
20
-94.4062
11
158.425
21
-93.9688
0
LINE
8
BLACK
6
CONTINUOUS
10
158.425
20
-93.9688
11
158.429
21
-93.9261
0
LINE
8
BLACK
6
CONTINUOUS
10
158.429
20
-93.9261
11
158.442
21
-93.885
0
LINE
8
BLACK
6
CONTINUOUS
10
158.442
20
-93.885
11
158.462
21
-93.8472
0
LINE
8
BLACK
6
CONTINUOUS
10
158.462
20
-93.8472
11
158.489
21
-93.8141
0
LINE
8
BLACK
6
CONTINUOUS
10
158.489
20
-93.8141
11
158.522
21
-93.7869
0
LINE
8
BLACK
6
CONTINUOUS
10
158.522
20
-93.7869
11
158.56
21
-93.7667
0
LINE
8
BLACK
6
CONTINUOUS
10
158.56
20
-93.7667
11
158.601
21
-93.7542
0
LINE
8
BLACK
6
CONTINUOUS
10
158.601
20
-93.7542
11
158.644
21
-93.75
0
LINE
8
BLACK
6
CONTINUOUS
10
158.644
20
-93.75
11
159.156
21
-93.75
0
LINE
8
BLACK
6
CONTINUOUS
10
159.156
20
-93.75
11
159.199
21
-93.7542
0
LINE
8
BLACK
6
CONTINUOUS
10
169.599
20
-92.1917
11
169.64
21
-92.2042
0
LINE
8
BLACK
6
CONTINUOUS
10
169.64
20
-92.2042
11
169.678
21
-92.2244
0
LINE
8
BLACK
6
CONTINUOUS
10
169.678
20
-92.2244
11
169.711
21
-92.2516
0
LINE
8
BLACK
6
CONTINUOUS
10
169.711
20
-92.2516
11
169.738
21
-92.2847
0
LINE
8
BLACK
6
CONTINUOUS
10
169.738
20
-92.2847
11
169.758
21
-92.3225
0
LINE
8
BLACK
6
CONTINUOUS
10
169.758
20
-92.3225
11
169.771
21
-92.3636
0
LINE
8
BLACK
6
CONTINUOUS
10
169.771
20
-92.3636
11
169.775
21
-92.4062
0
LINE
8
BLACK
6
CONTINUOUS
10
169.775
20
-92.4062
11
169.775
21
-92.8438
0
LINE
8
BLACK
6
CONTINUOUS
10
169.775
20
-92.8438
11
169.771
21
-92.8864
0
LINE
8
BLACK
6
CONTINUOUS
10
169.771
20
-92.8864
11
169.758
21
-92.9275
0
LINE
8
BLACK
6
CONTINUOUS
10
169.758
20
-92.9275
11
169.738
21
-92.9653
0
LINE
8
BLACK
6
CONTINUOUS
10
169.738
20
-92.9653
11
169.711
21
-92.9984
0
LINE
8
BLACK
6
CONTINUOUS
10
169.711
20
-92.9984
11
169.678
21
-93.0256
0
LINE
8
BLACK
6
CONTINUOUS
10
169.678
20
-93.0256
11
169.64
21
-93.0458
0
LINE
8
BLACK
6
CONTINUOUS
10
169.64
20
-93.0458
11
169.599
21
-93.0583
0
LINE
8
BLACK
6
CONTINUOUS
10
169.599
20
-93.0583
11
169.556
21
-93.0625
0
LINE
8
BLACK
6
CONTINUOUS
10
169.556
20
-93.0625
11
169.044
21
-93.0625
0
LINE
8
BLACK
6
CONTINUOUS
10
169.044
20
-93.0625
11
169.001
21
-93.0583
0
LINE
8
BLACK
6
CONTINUOUS
10
169.001
20
-93.0583
11
168.96
21
-93.0458
0
LINE
8
BLACK
6
CONTINUOUS
10
168.96
20
-93.0458
11
168.922
21
-93.0256
0
LINE
8
BLACK
6
CONTINUOUS
10
168.922
20
-93.0256
11
168.889
21
-92.9984
0
LINE
8
BLACK
6
CONTINUOUS
10
168.889
20
-92.9984
11
168.862
21
-92.9653
0
LINE
8
BLACK
6
CONTINUOUS
10
168.862
20
-92.9653
11
168.842
21
-92.9275
0
LINE
8
BLACK
6
CONTINUOUS
10
168.842
20
-92.9275
11
168.829
21
-92.8864
0
LINE
8
BLACK
6
CONTINUOUS
10
168.829
20
-92.8864
11
168.825
21
-92.8438
0
LINE
8
BLACK
6
CONTINUOUS
10
168.825
20
-92.8438
11
168.825
21
-92.4062
0
LINE
8
BLACK
6
CONTINUOUS
10
168.825
20
-92.4062
11
168.829
21
-92.3636
0
LINE
8
BLACK
6
CONTINUOUS
10
168.829
20
-92.3636
11
168.842
21
-92.3225
0
LINE
8
BLACK
6
CONTINUOUS
10
168.842
20
-92.3225
11
168.862
21
-92.2847
0
LINE
8
BLACK
6
CONTINUOUS
10
168.862
20
-92.2847
11
168.889
21
-92.2516
0
LINE
8
BLACK
6
CONTINUOUS
10
168.889
20
-92.2516
11
168.922
21
-92.2244
0
LINE
8
BLACK
6
CONTINUOUS
10
168.922
20
-92.2244
11
168.96
21
-92.2042
0
LINE
8
BLACK
6
CONTINUOUS
10
168.96
20
-92.2042
11
169.001
21
-92.1917
0
LINE
8
BLACK
6
CONTINUOUS
10
169.001
20
-92.1917
11
169.044
21
-92.1875
0
LINE
8
BLACK
6
CONTINUOUS
10
169.044
20
-92.1875
11
169.556
21
-92.1875
0
LINE
8
BLACK
6
CONTINUOUS
10
169.556
20
-92.1875
11
169.599
21
-92.1917
0
LINE
8
BLACK
6
CONTINUOUS
10
159.199
20
-92.1792
11
159.24
21
-92.1917
0
LINE
8
BLACK
6
CONTINUOUS
10
159.24
20
-92.1917
11
159.278
21
-92.2119
0
LINE
8
BLACK
6
CONTINUOUS
10
159.278
20
-92.2119
11
159.311
21
-92.2391
0
LINE
8
BLACK
6
CONTINUOUS
10
159.311
20
-92.2391
11
159.338
21
-92.2722
0
LINE
8
BLACK
6
CONTINUOUS
10
159.338
20
-92.2722
11
159.358
21
-92.31
0
LINE
8
BLACK
6
CONTINUOUS
10
159.358
20
-92.31
11
159.371
21
-92.3511
0
LINE
8
BLACK
6
CONTINUOUS
10
159.371
20
-92.3511
11
159.375
21
-92.3937
0
LINE
8
BLACK
6
CONTINUOUS
10
159.375
20
-92.3937
11
159.375
21
-92.8312
0
LINE
8
BLACK
6
CONTINUOUS
10
159.375
20
-92.8312
11
159.371
21
-92.8739
0
LINE
8
BLACK
6
CONTINUOUS
10
159.371
20
-92.8739
11
159.358
21
-92.915
0
LINE
8
BLACK
6
CONTINUOUS
10
159.358
20
-92.915
11
159.338
21
-92.9528
0
LINE
8
BLACK
6
CONTINUOUS
10
159.338
20
-92.9528
11
159.311
21
-92.9859
0
LINE
8
BLACK
6
CONTINUOUS
10
159.311
20
-92.9859
11
159.278
21
-93.0131
0
LINE
8
BLACK
6
CONTINUOUS
10
159.278
20
-93.0131
11
159.24
21
-93.0333
0
LINE
8
BLACK
6
CONTINUOUS
10
159.24
20
-93.0333
11
159.199
21
-93.0458
0
LINE
8
BLACK
6
CONTINUOUS
10
159.199
20
-93.0458
11
159.156
21
-93.05
0
LINE
8
BLACK
6
CONTINUOUS
10
159.156
20
-93.05
11
158.644
21
-93.05
0
LINE
8
BLACK
6
CONTINUOUS
10
158.644
20
-93.05
11
158.601
21
-93.0458
0
LINE
8
BLACK
6
CONTINUOUS
10
158.601
20
-93.0458
11
158.56
21
-93.0333
0
LINE
8
BLACK
6
CONTINUOUS
10
158.56
20
-93.0333
11
158.522
21
-93.0131
0
LINE
8
BLACK
6
CONTINUOUS
10
158.522
20
-93.0131
11
158.489
21
-92.9859
0
LINE
8
BLACK
6
CONTINUOUS
10
158.489
20
-92.9859
11
158.462
21
-92.9528
0
LINE
8
BLACK
6
CONTINUOUS
10
158.462
20
-92.9528
11
158.442
21
-92.915
0
LINE
8
BLACK
6
CONTINUOUS
10
158.442
20
-92.915
11
158.429
21
-92.8739
0
LINE
8
BLACK
6
CONTINUOUS
10
158.429
20
-92.8739
11
158.425
21
-92.8312
0
LINE
8
BLACK
6
CONTINUOUS
10
158.425
20
-92.8312
11
158.425
21
-92.3937
0
LINE
8
BLACK
6
CONTINUOUS
10
158.425
20
-92.3937
11
158.429
21
-92.3511
0
LINE
8
BLACK
6
CONTINUOUS
10
158.429
20
-92.3511
11
158.442
21
-92.31
0
LINE
8
BLACK
6
CONTINUOUS
10
158.442
20
-92.31
11
158.462
21
-92.2722
0
LINE
8
BLACK
6
CONTINUOUS
10
158.462
20
-92.2722
11
158.489
21
-92.2391
0
LINE
8
BLACK
6
CONTINUOUS
10
158.489
20
-92.2391
11
158.522
21
-92.2119
0
LINE
8
BLACK
6
CONTINUOUS
10
158.522
20
-92.2119
11
158.56
21
-92.1917
0
LINE
8
BLACK
6
CONTINUOUS
10
158.56
20
-92.1917
11
158.601
21
-92.1792
0
LINE
8
BLACK
6
CONTINUOUS
10
158.601
20
-92.1792
11
158.644
21
-92.175
0
LINE
8
BLACK
6
CONTINUOUS
10
158.644
20
-92.175
11
159.156
21
-92.175
0
LINE
8
BLACK
6
CONTINUOUS
10
159.156
20
-92.175
11
159.199
21
-92.1792
0
LINE
8
BLACK
6
CONTINUOUS
10
167.799
20
-89.5667
11
167.84
21
-89.5792
0
LINE
8
BLACK
6
CONTINUOUS
10
167.84
20
-89.5792
11
167.878
21
-89.5994
0
LINE
8
BLACK
6
CONTINUOUS
10
167.878
20
-89.5994
11
167.911
21
-89.6266
0
LINE
8
BLACK
6
CONTINUOUS
10
167.911
20
-89.6266
11
167.938
21
-89.6597
0
LINE
8
BLACK
6
CONTINUOUS
10
167.938
20
-89.6597
11
167.958
21
-89.6975
0
LINE
8
BLACK
6
CONTINUOUS
10
167.958
20
-89.6975
11
167.971
21
-89.7386
0
LINE
8
BLACK
6
CONTINUOUS
10
167.971
20
-89.7386
11
167.975
21
-89.7812
0
LINE
8
BLACK
6
CONTINUOUS
10
167.975
20
-89.7812
11
167.975
21
-90.2188
0
LINE
8
BLACK
6
CONTINUOUS
10
167.975
20
-90.2188
11
167.971
21
-90.2614
0
LINE
8
BLACK
6
CONTINUOUS
10
167.971
20
-90.2614
11
167.958
21
-90.3025
0
LINE
8
BLACK
6
CONTINUOUS
10
167.958
20
-90.3025
11
167.938
21
-90.3403
0
LINE
8
BLACK
6
CONTINUOUS
10
167.938
20
-90.3403
11
167.911
21
-90.3734
0
LINE
8
BLACK
6
CONTINUOUS
10
167.911
20
-90.3734
11
167.878
21
-90.4006
0
LINE
8
BLACK
6
CONTINUOUS
10
167.878
20
-90.4006
11
167.84
21
-90.4208
0
LINE
8
BLACK
6
CONTINUOUS
10
167.84
20
-90.4208
11
167.799
21
-90.4333
0
LINE
8
BLACK
6
CONTINUOUS
10
167.799
20
-90.4333
11
167.756
21
-90.4375
0
LINE
8
BLACK
6
CONTINUOUS
10
167.756
20
-90.4375
11
167.244
21
-90.4375
0
LINE
8
BLACK
6
CONTINUOUS
10
167.244
20
-90.4375
11
167.201
21
-90.4333
0
LINE
8
BLACK
6
CONTINUOUS
10
167.201
20
-90.4333
11
167.16
21
-90.4208
0
LINE
8
BLACK
6
CONTINUOUS
10
167.16
20
-90.4208
11
167.122
21
-90.4006
0
LINE
8
BLACK
6
CONTINUOUS
10
167.122
20
-90.4006
11
167.089
21
-90.3734
0
LINE
8
BLACK
6
CONTINUOUS
10
167.089
20
-90.3734
11
167.062
21
-90.3403
0
LINE
8
BLACK
6
CONTINUOUS
10
167.062
20
-90.3403
11
167.042
21
-90.3025
0
LINE
8
BLACK
6
CONTINUOUS
10
167.042
20
-90.3025
11
167.029
21
-90.2614
0
LINE
8
BLACK
6
CONTINUOUS
10
167.029
20
-90.2614
11
167.025
21
-90.2188
0
LINE
8
BLACK
6
CONTINUOUS
10
167.025
20
-90.2188
11
167.025
21
-89.7812
0
LINE
8
BLACK
6
CONTINUOUS
10
167.025
20
-89.7812
11
167.029
21
-89.7386
0
LINE
8
BLACK
6
CONTINUOUS
10
167.029
20
-89.7386
11
167.042
21
-89.6975
0
LINE
8
BLACK
6
CONTINUOUS
10
167.042
20
-89.6975
11
167.062
21
-89.6597
0
LINE
8
BLACK
6
CONTINUOUS
10
167.062
20
-89.6597
11
167.089
21
-89.6266
0
LINE
8
BLACK
6
CONTINUOUS
10
167.089
20
-89.6266
11
167.122
21
-89.5994
0
LINE
8
BLACK
6
CONTINUOUS
10
167.122
20
-89.5994
11
167.16
21
-89.5792
0
LINE
8
BLACK
6
CONTINUOUS
10
167.16
20
-89.5792
11
167.201
21
-89.5667
0
LINE
8
BLACK
6
CONTINUOUS
10
167.201
20
-89.5667
11
167.244
21
-89.5625
0
LINE
8
BLACK
6
CONTINUOUS
10
167.244
20
-89.5625
11
167.756
21
-89.5625
0
LINE
8
BLACK
6
CONTINUOUS
10
167.756
20
-89.5625
11
167.799
21
-89.5667
0
LINE
8
BLACK
6
CONTINUOUS
10
160.999
20
-89.3542
11
161.04
21
-89.3667
0
LINE
8
BLACK
6
CONTINUOUS
10
161.04
20
-89.3667
11
161.078
21
-89.3869
0
LINE
8
BLACK
6
CONTINUOUS
10
161.078
20
-89.3869
11
161.111
21
-89.4141
0
LINE
8
BLACK
6
CONTINUOUS
10
161.111
20
-89.4141
11
161.138
21
-89.4472
0
LINE
8
BLACK
6
CONTINUOUS
10
161.138
20
-89.4472
11
161.158
21
-89.485
0
LINE
8
BLACK
6
CONTINUOUS
10
161.158
20
-89.485
11
161.171
21
-89.5261
0
LINE
8
BLACK
6
CONTINUOUS
10
161.171
20
-89.5261
11
161.175
21
-89.5687
0
LINE
8
BLACK
6
CONTINUOUS
10
161.175
20
-89.5687
11
161.175
21
-90.0062
0
LINE
8
BLACK
6
CONTINUOUS
10
161.175
20
-90.0062
11
161.171
21
-90.0489
0
LINE
8
BLACK
6
CONTINUOUS
10
161.171
20
-90.0489
11
161.158
21
-90.09
0
LINE
8
BLACK
6
CONTINUOUS
10
161.158
20
-90.09
11
161.138
21
-90.1278
0
LINE
8
BLACK
6
CONTINUOUS
10
161.138
20
-90.1278
11
161.111
21
-90.1609
0
LINE
8
BLACK
6
CONTINUOUS
10
161.111
20
-90.1609
11
161.078
21
-90.1881
0
LINE
8
BLACK
6
CONTINUOUS
10
161.078
20
-90.1881
11
161.04
21
-90.2083
0
LINE
8
BLACK
6
CONTINUOUS
10
161.04
20
-90.2083
11
160.999
21
-90.2208
0
LINE
8
BLACK
6
CONTINUOUS
10
160.999
20
-90.2208
11
160.956
21
-90.225
0
LINE
8
BLACK
6
CONTINUOUS
10
160.956
20
-90.225
11
160.444
21
-90.225
0
LINE
8
BLACK
6
CONTINUOUS
10
160.444
20
-90.225
11
160.401
21
-90.2208
0
LINE
8
BLACK
6
CONTINUOUS
10
160.401
20
-90.2208
11
160.36
21
-90.2083
0
LINE
8
BLACK
6
CONTINUOUS
10
160.36
20
-90.2083
11
160.322
21
-90.1881
0
LINE
8
BLACK
6
CONTINUOUS
10
160.322
20
-90.1881
11
160.289
21
-90.1609
0
LINE
8
BLACK
6
CONTINUOUS
10
160.289
20
-90.1609
11
160.262
21
-90.1278
0
LINE
8
BLACK
6
CONTINUOUS
10
160.262
20
-90.1278
11
160.242
21
-90.09
0
LINE
8
BLACK
6
CONTINUOUS
10
160.242
20
-90.09
11
160.229
21
-90.0489
0
LINE
8
BLACK
6
CONTINUOUS
10
160.229
20
-90.0489
11
160.225
21
-90.0062
0
LINE
8
BLACK
6
CONTINUOUS
10
160.225
20
-90.0062
11
160.225
21
-89.5687
0
LINE
8
BLACK
6
CONTINUOUS
10
160.225
20
-89.5687
11
160.229
21
-89.5261
0
LINE
8
BLACK
6
CONTINUOUS
10
160.229
20
-89.5261
11
160.242
21
-89.485
0
LINE
8
BLACK
6
CONTINUOUS
10
160.242
20
-89.485
11
160.262
21
-89.4472
0
LINE
8
BLACK
6
CONTINUOUS
10
160.262
20
-89.4472
11
160.289
21
-89.4141
0
LINE
8
BLACK
6
CONTINUOUS
10
160.289
20
-89.4141
11
160.322
21
-89.3869
0
LINE
8
BLACK
6
CONTINUOUS
10
160.322
20
-89.3869
11
160.36
21
-89.3667
0
LINE
8
BLACK
6
CONTINUOUS
10
160.36
20
-89.3667
11
160.401
21
-89.3542
0
LINE
8
BLACK
6
CONTINUOUS
10
160.401
20
-89.3542
11
160.444
21
-89.35
0
LINE
8
BLACK
6
CONTINUOUS
10
160.444
20
-89.35
11
160.956
21
-89.35
0
LINE
8
BLACK
6
CONTINUOUS
10
160.956
20
-89.35
11
160.999
21
-89.3542
0
LINE
8
BLACK
6
CONTINUOUS
10
167.799
20
-87.9917
11
167.84
21
-88.0042
0
LINE
8
BLACK
6
CONTINUOUS
10
167.84
20
-88.0042
11
167.878
21
-88.0244
0
LINE
8
BLACK
6
CONTINUOUS
10
167.878
20
-88.0244
11
167.911
21
-88.0516
0
LINE
8
BLACK
6
CONTINUOUS
10
167.911
20
-88.0516
11
167.938
21
-88.0847
0
LINE
8
BLACK
6
CONTINUOUS
10
167.938
20
-88.0847
11
167.958
21
-88.1225
0
LINE
8
BLACK
6
CONTINUOUS
10
167.958
20
-88.1225
11
167.971
21
-88.1636
0
LINE
8
BLACK
6
CONTINUOUS
10
167.971
20
-88.1636
11
167.975
21
-88.2062
0
LINE
8
BLACK
6
CONTINUOUS
10
167.975
20
-88.2062
11
167.975
21
-88.6437
0
LINE
8
BLACK
6
CONTINUOUS
10
167.975
20
-88.6437
11
167.971
21
-88.6864
0
LINE
8
BLACK
6
CONTINUOUS
10
167.971
20
-88.6864
11
167.958
21
-88.7275
0
LINE
8
BLACK
6
CONTINUOUS
10
167.958
20
-88.7275
11
167.938
21
-88.7653
0
LINE
8
BLACK
6
CONTINUOUS
10
167.938
20
-88.7653
11
167.911
21
-88.7984
0
LINE
8
BLACK
6
CONTINUOUS
10
167.911
20
-88.7984
11
167.878
21
-88.8256
0
LINE
8
BLACK
6
CONTINUOUS
10
167.878
20
-88.8256
11
167.84
21
-88.8458
0
LINE
8
BLACK
6
CONTINUOUS
10
167.84
20
-88.8458
11
167.799
21
-88.8583
0
LINE
8
BLACK
6
CONTINUOUS
10
167.799
20
-88.8583
11
167.756
21
-88.8625
0
LINE
8
BLACK
6
CONTINUOUS
10
167.756
20
-88.8625
11
167.244
21
-88.8625
0
LINE
8
BLACK
6
CONTINUOUS
10
167.244
20
-88.8625
11
167.201
21
-88.8583
0
LINE
8
BLACK
6
CONTINUOUS
10
167.201
20
-88.8583
11
167.16
21
-88.8458
0
LINE
8
BLACK
6
CONTINUOUS
10
167.16
20
-88.8458
11
167.122
21
-88.8256
0
LINE
8
BLACK
6
CONTINUOUS
10
167.122
20
-88.8256
11
167.089
21
-88.7984
0
LINE
8
BLACK
6
CONTINUOUS
10
167.089
20
-88.7984
11
167.062
21
-88.7653
0
LINE
8
BLACK
6
CONTINUOUS
10
167.062
20
-88.7653
11
167.042
21
-88.7275
0
LINE
8
BLACK
6
CONTINUOUS
10
167.042
20
-88.7275
11
167.029
21
-88.6864
0
LINE
8
BLACK
6
CONTINUOUS
10
167.029
20
-88.6864
11
167.025
21
-88.6437
0
LINE
8
BLACK
6
CONTINUOUS
10
167.025
20
-88.6437
11
167.025
21
-88.2062
0
LINE
8
BLACK
6
CONTINUOUS
10
167.025
20
-88.2062
11
167.029
21
-88.1636
0
LINE
8
BLACK
6
CONTINUOUS
10
167.029
20
-88.1636
11
167.042
21
-88.1225
0
LINE
8
BLACK
6
CONTINUOUS
10
167.042
20
-88.1225
11
167.062
21
-88.0847
0
LINE
8
BLACK
6
CONTINUOUS
10
167.062
20
-88.0847
11
167.089
21
-88.0516
0
LINE
8
BLACK
6
CONTINUOUS
10
167.089
20
-88.0516
11
167.122
21
-88.0244
0
LINE
8
BLACK
6
CONTINUOUS
10
167.122
20
-88.0244
11
167.16
21
-88.0042
0
LINE
8
BLACK
6
CONTINUOUS
10
167.16
20
-88.0042
11
167.201
21
-87.9917
0
LINE
8
BLACK
6
CONTINUOUS
10
167.201
20
-87.9917
11
167.244
21
-87.9875
0
LINE
8
BLACK
6
CONTINUOUS
10
167.244
20
-87.9875
11
167.756
21
-87.9875
0
LINE
8
BLACK
6
CONTINUOUS
10
167.756
20
-87.9875
11
167.799
21
-87.9917
0
LINE
8
BLACK
6
CONTINUOUS
10
160.999
20
-87.7792
11
161.04
21
-87.7917
0
LINE
8
BLACK
6
CONTINUOUS
10
161.04
20
-87.7917
11
161.078
21
-87.8119
0
LINE
8
BLACK
6
CONTINUOUS
10
161.078
20
-87.8119
11
161.111
21
-87.8391
0
LINE
8
BLACK
6
CONTINUOUS
10
161.111
20
-87.8391
11
161.138
21
-87.8722
0
LINE
8
BLACK
6
CONTINUOUS
10
161.138
20
-87.8722
11
161.158
21
-87.91
0
LINE
8
BLACK
6
CONTINUOUS
10
161.158
20
-87.91
11
161.171
21
-87.9511
0
LINE
8
BLACK
6
CONTINUOUS
10
161.171
20
-87.9511
11
161.175
21
-87.9937
0
LINE
8
BLACK
6
CONTINUOUS
10
161.175
20
-87.9937
11
161.175
21
-88.4312
0
LINE
8
BLACK
6
CONTINUOUS
10
161.175
20
-88.4312
11
161.171
21
-88.4739
0
LINE
8
BLACK
6
CONTINUOUS
10
161.171
20
-88.4739
11
161.158
21
-88.515
0
LINE
8
BLACK
6
CONTINUOUS
10
161.158
20
-88.515
11
161.138
21
-88.5528
0
LINE
8
BLACK
6
CONTINUOUS
10
161.138
20
-88.5528
11
161.111
21
-88.5859
0
LINE
8
BLACK
6
CONTINUOUS
10
161.111
20
-88.5859
11
161.078
21
-88.6131
0
LINE
8
BLACK
6
CONTINUOUS
10
161.078
20
-88.6131
11
161.04
21
-88.6333
0
LINE
8
BLACK
6
CONTINUOUS
10
161.04
20
-88.6333
11
160.999
21
-88.6458
0
LINE
8
BLACK
6
CONTINUOUS
10
160.999
20
-88.6458
11
160.956
21
-88.65
0
LINE
8
BLACK
6
CONTINUOUS
10
160.956
20
-88.65
11
160.444
21
-88.65
0
LINE
8
BLACK
6
CONTINUOUS
10
160.444
20
-88.65
11
160.401
21
-88.6458
0
LINE
8
BLACK
6
CONTINUOUS
10
160.401
20
-88.6458
11
160.36
21
-88.6333
0
LINE
8
BLACK
6
CONTINUOUS
10
160.36
20
-88.6333
11
160.322
21
-88.6131
0
LINE
8
BLACK
6
CONTINUOUS
10
160.322
20
-88.6131
11
160.289
21
-88.5859
0
LINE
8
BLACK
6
CONTINUOUS
10
160.289
20
-88.5859
11
160.262
21
-88.5528
0
LINE
8
BLACK
6
CONTINUOUS
10
160.262
20
-88.5528
11
160.242
21
-88.515
0
LINE
8
BLACK
6
CONTINUOUS
10
160.242
20
-88.515
11
160.229
21
-88.4739
0
LINE
8
BLACK
6
CONTINUOUS
10
160.229
20
-88.4739
11
160.225
21
-88.4312
0
LINE
8
BLACK
6
CONTINUOUS
10
160.225
20
-88.4312
11
160.225
21
-87.9937
0
LINE
8
BLACK
6
CONTINUOUS
10
160.225
20
-87.9937
11
160.229
21
-87.9511
0
LINE
8
BLACK
6
CONTINUOUS
10
160.229
20
-87.9511
11
160.242
21
-87.91
0
LINE
8
BLACK
6
CONTINUOUS
10
160.242
20
-87.91
11
160.262
21
-87.8722
0
LINE
8
BLACK
6
CONTINUOUS
10
160.262
20
-87.8722
11
160.289
21
-87.8391
0
LINE
8
BLACK
6
CONTINUOUS
10
160.289
20
-87.8391
11
160.322
21
-87.8119
0
LINE
8
BLACK
6
CONTINUOUS
10
160.322
20
-87.8119
11
160.36
21
-87.7917
0
LINE
8
BLACK
6
CONTINUOUS
10
160.36
20
-87.7917
11
160.401
21
-87.7792
0
LINE
8
BLACK
6
CONTINUOUS
10
160.401
20
-87.7792
11
160.444
21
-87.775
0
LINE
8
BLACK
6
CONTINUOUS
10
160.444
20
-87.775
11
160.956
21
-87.775
0
LINE
8
BLACK
6
CONTINUOUS
10
160.956
20
-87.775
11
160.999
21
-87.7792
0
LINE
8
BLACK
6
CONTINUOUS
10
168.399
20
-86.3417
11
168.44
21
-86.3542
0
LINE
8
BLACK
6
CONTINUOUS
10
168.44
20
-86.3542
11
168.478
21
-86.3744
0
LINE
8
BLACK
6
CONTINUOUS
10
168.478
20
-86.3744
11
168.511
21
-86.4016
0
LINE
8
BLACK
6
CONTINUOUS
10
168.511
20
-86.4016
11
168.538
21
-86.4347
0
LINE
8
BLACK
6
CONTINUOUS
10
168.538
20
-86.4347
11
168.558
21
-86.4725
0
LINE
8
BLACK
6
CONTINUOUS
10
168.558
20
-86.4725
11
168.571
21
-86.5136
0
LINE
8
BLACK
6
CONTINUOUS
10
168.571
20
-86.5136
11
168.575
21
-86.5562
0
LINE
8
BLACK
6
CONTINUOUS
10
168.575
20
-86.5562
11
168.575
21
-86.9937
0
LINE
8
BLACK
6
CONTINUOUS
10
168.575
20
-86.9937
11
168.571
21
-87.0364
0
LINE
8
BLACK
6
CONTINUOUS
10
168.571
20
-87.0364
11
168.558
21
-87.0775
0
LINE
8
BLACK
6
CONTINUOUS
10
168.558
20
-87.0775
11
168.538
21
-87.1153
0
LINE
8
BLACK
6
CONTINUOUS
10
168.538
20
-87.1153
11
168.511
21
-87.1484
0
LINE
8
BLACK
6
CONTINUOUS
10
168.511
20
-87.1484
11
168.478
21
-87.1756
0
LINE
8
BLACK
6
CONTINUOUS
10
168.478
20
-87.1756
11
168.44
21
-87.1958
0
LINE
8
BLACK
6
CONTINUOUS
10
168.44
20
-87.1958
11
168.399
21
-87.2083
0
LINE
8
BLACK
6
CONTINUOUS
10
168.399
20
-87.2083
11
168.356
21
-87.2125
0
LINE
8
BLACK
6
CONTINUOUS
10
168.356
20
-87.2125
11
167.844
21
-87.2125
0
LINE
8
BLACK
6
CONTINUOUS
10
167.844
20
-87.2125
11
167.801
21
-87.2083
0
LINE
8
BLACK
6
CONTINUOUS
10
167.801
20
-87.2083
11
167.76
21
-87.1958
0
LINE
8
BLACK
6
CONTINUOUS
10
167.76
20
-87.1958
11
167.722
21
-87.1756
0
LINE
8
BLACK
6
CONTINUOUS
10
167.722
20
-87.1756
11
167.689
21
-87.1484
0
LINE
8
BLACK
6
CONTINUOUS
10
167.689
20
-87.1484
11
167.662
21
-87.1153
0
LINE
8
BLACK
6
CONTINUOUS
10
167.662
20
-87.1153
11
167.642
21
-87.0775
0
LINE
8
BLACK
6
CONTINUOUS
10
167.642
20
-87.0775
11
167.629
21
-87.0364
0
LINE
8
BLACK
6
CONTINUOUS
10
167.629
20
-87.0364
11
167.625
21
-86.9937
0
LINE
8
BLACK
6
CONTINUOUS
10
167.625
20
-86.9937
11
167.625
21
-86.5562
0
LINE
8
BLACK
6
CONTINUOUS
10
167.625
20
-86.5562
11
167.629
21
-86.5136
0
LINE
8
BLACK
6
CONTINUOUS
10
167.629
20
-86.5136
11
167.642
21
-86.4725
0
LINE
8
BLACK
6
CONTINUOUS
10
167.642
20
-86.4725
11
167.662
21
-86.4347
0
LINE
8
BLACK
6
CONTINUOUS
10
167.662
20
-86.4347
11
167.689
21
-86.4016
0
LINE
8
BLACK
6
CONTINUOUS
10
167.689
20
-86.4016
11
167.722
21
-86.3744
0
LINE
8
BLACK
6
CONTINUOUS
10
167.722
20
-86.3744
11
167.76
21
-86.3542
0
LINE
8
BLACK
6
CONTINUOUS
10
167.76
20
-86.3542
11
167.801
21
-86.3417
0
LINE
8
BLACK
6
CONTINUOUS
10
167.801
20
-86.3417
11
167.844
21
-86.3375
0
LINE
8
BLACK
6
CONTINUOUS
10
167.844
20
-86.3375
11
168.356
21
-86.3375
0
LINE
8
BLACK
6
CONTINUOUS
10
168.356
20
-86.3375
11
168.399
21
-86.3417
0
LINE
8
BLACK
6
CONTINUOUS
10
160.399
20
-86.1417
11
160.44
21
-86.1542
0
LINE
8
BLACK
6
CONTINUOUS
10
160.44
20
-86.1542
11
160.478
21
-86.1744
0
LINE
8
BLACK
6
CONTINUOUS
10
160.478
20
-86.1744
11
160.511
21
-86.2016
0
LINE
8
BLACK
6
CONTINUOUS
10
160.511
20
-86.2016
11
160.538
21
-86.2347
0
LINE
8
BLACK
6
CONTINUOUS
10
160.538
20
-86.2347
11
160.558
21
-86.2725
0
LINE
8
BLACK
6
CONTINUOUS
10
160.558
20
-86.2725
11
160.571
21
-86.3136
0
LINE
8
BLACK
6
CONTINUOUS
10
160.571
20
-86.3136
11
160.575
21
-86.3563
0
LINE
8
BLACK
6
CONTINUOUS
10
160.575
20
-86.3563
11
160.575
21
-86.7938
0
LINE
8
BLACK
6
CONTINUOUS
10
160.575
20
-86.7938
11
160.571
21
-86.8364
0
LINE
8
BLACK
6
CONTINUOUS
10
160.571
20
-86.8364
11
160.558
21
-86.8775
0
LINE
8
BLACK
6
CONTINUOUS
10
160.558
20
-86.8775
11
160.538
21
-86.9153
0
LINE
8
BLACK
6
CONTINUOUS
10
160.538
20
-86.9153
11
160.511
21
-86.9484
0
LINE
8
BLACK
6
CONTINUOUS
10
160.511
20
-86.9484
11
160.478
21
-86.9756
0
LINE
8
BLACK
6
CONTINUOUS
10
160.478
20
-86.9756
11
160.44
21
-86.9958
0
LINE
8
BLACK
6
CONTINUOUS
10
160.44
20
-86.9958
11
160.399
21
-87.0083
0
LINE
8
BLACK
6
CONTINUOUS
10
160.399
20
-87.0083
11
160.356
21
-87.0125
0
LINE
8
BLACK
6
CONTINUOUS
10
160.356
20
-87.0125
11
159.844
21
-87.0125
0
LINE
8
BLACK
6
CONTINUOUS
10
159.844
20
-87.0125
11
159.801
21
-87.0083
0
LINE
8
BLACK
6
CONTINUOUS
10
159.801
20
-87.0083
11
159.76
21
-86.9958
0
LINE
8
BLACK
6
CONTINUOUS
10
159.76
20
-86.9958
11
159.722
21
-86.9756
0
LINE
8
BLACK
6
CONTINUOUS
10
159.722
20
-86.9756
11
159.689
21
-86.9484
0
LINE
8
BLACK
6
CONTINUOUS
10
159.689
20
-86.9484
11
159.662
21
-86.9153
0
LINE
8
BLACK
6
CONTINUOUS
10
159.662
20
-86.9153
11
159.642
21
-86.8775
0
LINE
8
BLACK
6
CONTINUOUS
10
159.642
20
-86.8775
11
159.629
21
-86.8364
0
LINE
8
BLACK
6
CONTINUOUS
10
159.629
20
-86.8364
11
159.625
21
-86.7938
0
LINE
8
BLACK
6
CONTINUOUS
10
159.625
20
-86.7938
11
159.625
21
-86.3563
0
LINE
8
BLACK
6
CONTINUOUS
10
159.625
20
-86.3563
11
159.629
21
-86.3136
0
LINE
8
BLACK
6
CONTINUOUS
10
159.629
20
-86.3136
11
159.642
21
-86.2725
0
LINE
8
BLACK
6
CONTINUOUS
10
159.642
20
-86.2725
11
159.662
21
-86.2347
0
LINE
8
BLACK
6
CONTINUOUS
10
159.662
20
-86.2347
11
159.689
21
-86.2016
0
LINE
8
BLACK
6
CONTINUOUS
10
159.689
20
-86.2016
11
159.722
21
-86.1744
0
LINE
8
BLACK
6
CONTINUOUS
10
159.722
20
-86.1744
11
159.76
21
-86.1542
0
LINE
8
BLACK
6
CONTINUOUS
10
159.76
20
-86.1542
11
159.801
21
-86.1417
0
LINE
8
BLACK
6
CONTINUOUS
10
159.801
20
-86.1417
11
159.844
21
-86.1375
0
LINE
8
BLACK
6
CONTINUOUS
10
159.844
20
-86.1375
11
160.356
21
-86.1375
0
LINE
8
BLACK
6
CONTINUOUS
10
160.356
20
-86.1375
11
160.399
21
-86.1417
0
LINE
8
BLACK
6
CONTINUOUS
10
168.399
20
-84.7667
11
168.44
21
-84.7792
0
LINE
8
BLACK
6
CONTINUOUS
10
168.44
20
-84.7792
11
168.478
21
-84.7994
0
LINE
8
BLACK
6
CONTINUOUS
10
168.478
20
-84.7994
11
168.511
21
-84.8266
0
LINE
8
BLACK
6
CONTINUOUS
10
168.511
20
-84.8266
11
168.538
21
-84.8597
0
LINE
8
BLACK
6
CONTINUOUS
10
168.538
20
-84.8597
11
168.558
21
-84.8975
0
LINE
8
BLACK
6
CONTINUOUS
10
168.558
20
-84.8975
11
168.571
21
-84.9386
0
LINE
8
BLACK
6
CONTINUOUS
10
168.571
20
-84.9386
11
168.575
21
-84.9813
0
LINE
8
BLACK
6
CONTINUOUS
10
168.575
20
-84.9813
11
168.575
21
-85.4188
0
LINE
8
BLACK
6
CONTINUOUS
10
168.575
20
-85.4188
11
168.571
21
-85.4614
0
LINE
8
BLACK
6
CONTINUOUS
10
168.571
20
-85.4614
11
168.558
21
-85.5025
0
LINE
8
BLACK
6
CONTINUOUS
10
168.558
20
-85.5025
11
168.538
21
-85.5403
0
LINE
8
BLACK
6
CONTINUOUS
10
168.538
20
-85.5403
11
168.511
21
-85.5734
0
LINE
8
BLACK
6
CONTINUOUS
10
168.511
20
-85.5734
11
168.478
21
-85.6006
0
LINE
8
BLACK
6
CONTINUOUS
10
168.478
20
-85.6006
11
168.44
21
-85.6208
0
LINE
8
BLACK
6
CONTINUOUS
10
168.44
20
-85.6208
11
168.399
21
-85.6333
0
LINE
8
BLACK
6
CONTINUOUS
10
168.399
20
-85.6333
11
168.356
21
-85.6375
0
LINE
8
BLACK
6
CONTINUOUS
10
168.356
20
-85.6375
11
167.844
21
-85.6375
0
LINE
8
BLACK
6
CONTINUOUS
10
167.844
20
-85.6375
11
167.801
21
-85.6333
0
LINE
8
BLACK
6
CONTINUOUS
10
167.801
20
-85.6333
11
167.76
21
-85.6208
0
LINE
8
BLACK
6
CONTINUOUS
10
167.76
20
-85.6208
11
167.722
21
-85.6006
0
LINE
8
BLACK
6
CONTINUOUS
10
167.722
20
-85.6006
11
167.689
21
-85.5734
0
LINE
8
BLACK
6
CONTINUOUS
10
167.689
20
-85.5734
11
167.662
21
-85.5403
0
LINE
8
BLACK
6
CONTINUOUS
10
167.662
20
-85.5403
11
167.642
21
-85.5025
0
LINE
8
BLACK
6
CONTINUOUS
10
167.642
20
-85.5025
11
167.629
21
-85.4614
0
LINE
8
BLACK
6
CONTINUOUS
10
167.629
20
-85.4614
11
167.625
21
-85.4188
0
LINE
8
BLACK
6
CONTINUOUS
10
167.625
20
-85.4188
11
167.625
21
-84.9813
0
LINE
8
BLACK
6
CONTINUOUS
10
167.625
20
-84.9813
11
167.629
21
-84.9386
0
LINE
8
BLACK
6
CONTINUOUS
10
167.629
20
-84.9386
11
167.642
21
-84.8975
0
LINE
8
BLACK
6
CONTINUOUS
10
167.642
20
-84.8975
11
167.662
21
-84.8597
0
LINE
8
BLACK
6
CONTINUOUS
10
167.662
20
-84.8597
11
167.689
21
-84.8266
0
LINE
8
BLACK
6
CONTINUOUS
10
167.689
20
-84.8266
11
167.722
21
-84.7994
0
LINE
8
BLACK
6
CONTINUOUS
10
167.722
20
-84.7994
11
167.76
21
-84.7792
0
LINE
8
BLACK
6
CONTINUOUS
10
167.76
20
-84.7792
11
167.801
21
-84.7667
0
LINE
8
BLACK
6
CONTINUOUS
10
167.801
20
-84.7667
11
167.844
21
-84.7625
0
LINE
8
BLACK
6
CONTINUOUS
10
167.844
20
-84.7625
11
168.356
21
-84.7625
0
LINE
8
BLACK
6
CONTINUOUS
10
168.356
20
-84.7625
11
168.399
21
-84.7667
0
LINE
8
BLACK
6
CONTINUOUS
10
161.999
20
-84.7417
11
162.04
21
-84.7542
0
LINE
8
BLACK
6
CONTINUOUS
10
162.04
20
-84.7542
11
162.078
21
-84.7744
0
LINE
8
BLACK
6
CONTINUOUS
10
162.078
20
-84.7744
11
162.111
21
-84.8016
0
LINE
8
BLACK
6
CONTINUOUS
10
162.111
20
-84.8016
11
162.138
21
-84.8347
0
LINE
8
BLACK
6
CONTINUOUS
10
162.138
20
-84.8347
11
162.158
21
-84.8725
0
LINE
8
BLACK
6
CONTINUOUS
10
162.158
20
-84.8725
11
162.171
21
-84.9136
0
LINE
8
BLACK
6
CONTINUOUS
10
162.171
20
-84.9136
11
162.175
21
-84.9562
0
LINE
8
BLACK
6
CONTINUOUS
10
162.175
20
-84.9562
11
162.175
21
-85.3937
0
LINE
8
BLACK
6
CONTINUOUS
10
162.175
20
-85.3937
11
162.171
21
-85.4364
0
LINE
8
BLACK
6
CONTINUOUS
10
162.171
20
-85.4364
11
162.158
21
-85.4775
0
LINE
8
BLACK
6
CONTINUOUS
10
162.158
20
-85.4775
11
162.138
21
-85.5153
0
LINE
8
BLACK
6
CONTINUOUS
10
162.138
20
-85.5153
11
162.111
21
-85.5484
0
LINE
8
BLACK
6
CONTINUOUS
10
162.111
20
-85.5484
11
162.078
21
-85.5756
0
LINE
8
BLACK
6
CONTINUOUS
10
162.078
20
-85.5756
11
162.04
21
-85.5958
0
LINE
8
BLACK
6
CONTINUOUS
10
162.04
20
-85.5958
11
161.999
21
-85.6083
0
LINE
8
BLACK
6
CONTINUOUS
10
161.999
20
-85.6083
11
161.956
21
-85.6125
0
LINE
8
BLACK
6
CONTINUOUS
10
161.956
20
-85.6125
11
161.444
21
-85.6125
0
LINE
8
BLACK
6
CONTINUOUS
10
161.444
20
-85.6125
11
161.401
21
-85.6083
0
LINE
8
BLACK
6
CONTINUOUS
10
161.401
20
-85.6083
11
161.36
21
-85.5958
0
LINE
8
BLACK
6
CONTINUOUS
10
161.36
20
-85.5958
11
161.322
21
-85.5756
0
LINE
8
BLACK
6
CONTINUOUS
10
161.322
20
-85.5756
11
161.289
21
-85.5484
0
LINE
8
BLACK
6
CONTINUOUS
10
161.289
20
-85.5484
11
161.262
21
-85.5153
0
LINE
8
BLACK
6
CONTINUOUS
10
161.262
20
-85.5153
11
161.242
21
-85.4775
0
LINE
8
BLACK
6
CONTINUOUS
10
161.242
20
-85.4775
11
161.229
21
-85.4364
0
LINE
8
BLACK
6
CONTINUOUS
10
161.229
20
-85.4364
11
161.225
21
-85.3937
0
LINE
8
BLACK
6
CONTINUOUS
10
161.225
20
-85.3937
11
161.225
21
-84.9562
0
LINE
8
BLACK
6
CONTINUOUS
10
161.225
20
-84.9562
11
161.229
21
-84.9136
0
LINE
8
BLACK
6
CONTINUOUS
10
161.229
20
-84.9136
11
161.242
21
-84.8725
0
LINE
8
BLACK
6
CONTINUOUS
10
161.242
20
-84.8725
11
161.262
21
-84.8347
0
LINE
8
BLACK
6
CONTINUOUS
10
161.262
20
-84.8347
11
161.289
21
-84.8016
0
LINE
8
BLACK
6
CONTINUOUS
10
161.289
20
-84.8016
11
161.322
21
-84.7744
0
LINE
8
BLACK
6
CONTINUOUS
10
161.322
20
-84.7744
11
161.36
21
-84.7542
0
LINE
8
BLACK
6
CONTINUOUS
10
161.36
20
-84.7542
11
161.401
21
-84.7417
0
LINE
8
BLACK
6
CONTINUOUS
10
161.401
20
-84.7417
11
161.444
21
-84.7375
0
LINE
8
BLACK
6
CONTINUOUS
10
161.444
20
-84.7375
11
161.956
21
-84.7375
0
LINE
8
BLACK
6
CONTINUOUS
10
161.956
20
-84.7375
11
161.999
21
-84.7417
0
LINE
8
BLACK
6
CONTINUOUS
10
166.799
20
-84.7417
11
166.84
21
-84.7542
0
LINE
8
BLACK
6
CONTINUOUS
10
166.84
20
-84.7542
11
166.878
21
-84.7744
0
LINE
8
BLACK
6
CONTINUOUS
10
166.878
20
-84.7744
11
166.911
21
-84.8016
0
LINE
8
BLACK
6
CONTINUOUS
10
166.911
20
-84.8016
11
166.938
21
-84.8347
0
LINE
8
BLACK
6
CONTINUOUS
10
166.938
20
-84.8347
11
166.958
21
-84.8725
0
LINE
8
BLACK
6
CONTINUOUS
10
166.958
20
-84.8725
11
166.971
21
-84.9136
0
LINE
8
BLACK
6
CONTINUOUS
10
166.971
20
-84.9136
11
166.975
21
-84.9562
0
LINE
8
BLACK
6
CONTINUOUS
10
166.975
20
-84.9562
11
166.975
21
-85.3937
0
LINE
8
BLACK
6
CONTINUOUS
10
166.975
20
-85.3937
11
166.971
21
-85.4364
0
LINE
8
BLACK
6
CONTINUOUS
10
166.971
20
-85.4364
11
166.958
21
-85.4775
0
LINE
8
BLACK
6
CONTINUOUS
10
166.958
20
-85.4775
11
166.938
21
-85.5153
0
LINE
8
BLACK
6
CONTINUOUS
10
166.938
20
-85.5153
11
166.911
21
-85.5484
0
LINE
8
BLACK
6
CONTINUOUS
10
166.911
20
-85.5484
11
166.878
21
-85.5756
0
LINE
8
BLACK
6
CONTINUOUS
10
166.878
20
-85.5756
11
166.84
21
-85.5958
0
LINE
8
BLACK
6
CONTINUOUS
10
166.84
20
-85.5958
11
166.799
21
-85.6083
0
LINE
8
BLACK
6
CONTINUOUS
10
166.799
20
-85.6083
11
166.756
21
-85.6125
0
LINE
8
BLACK
6
CONTINUOUS
10
166.756
20
-85.6125
11
166.244
21
-85.6125
0
LINE
8
BLACK
6
CONTINUOUS
10
166.244
20
-85.6125
11
166.201
21
-85.6083
0
LINE
8
BLACK
6
CONTINUOUS
10
166.201
20
-85.6083
11
166.16
21
-85.5958
0
LINE
8
BLACK
6
CONTINUOUS
10
166.16
20
-85.5958
11
166.122
21
-85.5756
0
LINE
8
BLACK
6
CONTINUOUS
10
166.122
20
-85.5756
11
166.089
21
-85.5484
0
LINE
8
BLACK
6
CONTINUOUS
10
166.089
20
-85.5484
11
166.062
21
-85.5153
0
LINE
8
BLACK
6
CONTINUOUS
10
166.062
20
-85.5153
11
166.042
21
-85.4775
0
LINE
8
BLACK
6
CONTINUOUS
10
166.042
20
-85.4775
11
166.029
21
-85.4364
0
LINE
8
BLACK
6
CONTINUOUS
10
166.029
20
-85.4364
11
166.025
21
-85.3937
0
LINE
8
BLACK
6
CONTINUOUS
10
166.025
20
-85.3937
11
166.025
21
-84.9562
0
LINE
8
BLACK
6
CONTINUOUS
10
166.025
20
-84.9562
11
166.029
21
-84.9136
0
LINE
8
BLACK
6
CONTINUOUS
10
166.029
20
-84.9136
11
166.042
21
-84.8725
0
LINE
8
BLACK
6
CONTINUOUS
10
166.042
20
-84.8725
11
166.062
21
-84.8347
0
LINE
8
BLACK
6
CONTINUOUS
10
166.062
20
-84.8347
11
166.089
21
-84.8016
0
LINE
8
BLACK
6
CONTINUOUS
10
166.089
20
-84.8016
11
166.122
21
-84.7744
0
LINE
8
BLACK
6
CONTINUOUS
10
166.122
20
-84.7744
11
166.16
21
-84.7542
0
LINE
8
BLACK
6
CONTINUOUS
10
166.16
20
-84.7542
11
166.201
21
-84.7417
0
LINE
8
BLACK
6
CONTINUOUS
10
166.201
20
-84.7417
11
166.244
21
-84.7375
0
LINE
8
BLACK
6
CONTINUOUS
10
166.244
20
-84.7375
11
166.756
21
-84.7375
0
LINE
8
BLACK
6
CONTINUOUS
10
166.756
20
-84.7375
11
166.799
21
-84.7417
0
LINE
8
BLACK
6
CONTINUOUS
10
160.399
20
-84.5667
11
160.44
21
-84.5792
0
LINE
8
BLACK
6
CONTINUOUS
10
160.44
20
-84.5792
11
160.478
21
-84.5994
0
LINE
8
BLACK
6
CONTINUOUS
10
160.478
20
-84.5994
11
160.511
21
-84.6266
0
LINE
8
BLACK
6
CONTINUOUS
10
160.511
20
-84.6266
11
160.538
21
-84.6597
0
LINE
8
BLACK
6
CONTINUOUS
10
160.538
20
-84.6597
11
160.558
21
-84.6975
0
LINE
8
BLACK
6
CONTINUOUS
10
160.558
20
-84.6975
11
160.571
21
-84.7386
0
LINE
8
BLACK
6
CONTINUOUS
10
160.571
20
-84.7386
11
160.575
21
-84.7812
0
LINE
8
BLACK
6
CONTINUOUS
10
160.575
20
-84.7812
11
160.575
21
-85.2188
0
LINE
8
BLACK
6
CONTINUOUS
10
160.575
20
-85.2188
11
160.571
21
-85.2614
0
LINE
8
BLACK
6
CONTINUOUS
10
160.571
20
-85.2614
11
160.558
21
-85.3025
0
LINE
8
BLACK
6
CONTINUOUS
10
160.558
20
-85.3025
11
160.538
21
-85.3403
0
LINE
8
BLACK
6
CONTINUOUS
10
160.538
20
-85.3403
11
160.511
21
-85.3734
0
LINE
8
BLACK
6
CONTINUOUS
10
160.511
20
-85.3734
11
160.478
21
-85.4006
0
LINE
8
BLACK
6
CONTINUOUS
10
160.478
20
-85.4006
11
160.44
21
-85.4208
0
LINE
8
BLACK
6
CONTINUOUS
10
160.44
20
-85.4208
11
160.399
21
-85.4333
0
LINE
8
BLACK
6
CONTINUOUS
10
160.399
20
-85.4333
11
160.356
21
-85.4375
0
LINE
8
BLACK
6
CONTINUOUS
10
160.356
20
-85.4375
11
159.844
21
-85.4375
0
LINE
8
BLACK
6
CONTINUOUS
10
159.844
20
-85.4375
11
159.801
21
-85.4333
0
LINE
8
BLACK
6
CONTINUOUS
10
159.801
20
-85.4333
11
159.76
21
-85.4208
0
LINE
8
BLACK
6
CONTINUOUS
10
159.76
20
-85.4208
11
159.722
21
-85.4006
0
LINE
8
BLACK
6
CONTINUOUS
10
159.722
20
-85.4006
11
159.689
21
-85.3734
0
LINE
8
BLACK
6
CONTINUOUS
10
159.689
20
-85.3734
11
159.662
21
-85.3403
0
LINE
8
BLACK
6
CONTINUOUS
10
159.662
20
-85.3403
11
159.642
21
-85.3025
0
LINE
8
BLACK
6
CONTINUOUS
10
159.642
20
-85.3025
11
159.629
21
-85.2614
0
LINE
8
BLACK
6
CONTINUOUS
10
159.629
20
-85.2614
11
159.625
21
-85.2188
0
LINE
8
BLACK
6
CONTINUOUS
10
159.625
20
-85.2188
11
159.625
21
-84.7812
0
LINE
8
BLACK
6
CONTINUOUS
10
159.625
20
-84.7812
11
159.629
21
-84.7386
0
LINE
8
BLACK
6
CONTINUOUS
10
159.629
20
-84.7386
11
159.642
21
-84.6975
0
LINE
8
BLACK
6
CONTINUOUS
10
159.642
20
-84.6975
11
159.662
21
-84.6597
0
LINE
8
BLACK
6
CONTINUOUS
10
159.662
20
-84.6597
11
159.689
21
-84.6266
0
LINE
8
BLACK
6
CONTINUOUS
10
159.689
20
-84.6266
11
159.722
21
-84.5994
0
LINE
8
BLACK
6
CONTINUOUS
10
159.722
20
-84.5994
11
159.76
21
-84.5792
0
LINE
8
BLACK
6
CONTINUOUS
10
159.76
20
-84.5792
11
159.801
21
-84.5667
0
LINE
8
BLACK
6
CONTINUOUS
10
159.801
20
-84.5667
11
159.844
21
-84.5625
0
LINE
8
BLACK
6
CONTINUOUS
10
159.844
20
-84.5625
11
160.356
21
-84.5625
0
LINE
8
BLACK
6
CONTINUOUS
10
160.356
20
-84.5625
11
160.399
21
-84.5667
0
LINE
8
BLACK
6
CONTINUOUS
10
163.599
20
-84.1417
11
163.64
21
-84.1542
0
LINE
8
BLACK
6
CONTINUOUS
10
163.64
20
-84.1542
11
163.678
21
-84.1744
0
LINE
8
BLACK
6
CONTINUOUS
10
163.678
20
-84.1744
11
163.711
21
-84.2016
0
LINE
8
BLACK
6
CONTINUOUS
10
163.711
20
-84.2016
11
163.738
21
-84.2347
0
LINE
8
BLACK
6
CONTINUOUS
10
163.738
20
-84.2347
11
163.758
21
-84.2725
0
LINE
8
BLACK
6
CONTINUOUS
10
163.758
20
-84.2725
11
163.771
21
-84.3136
0
LINE
8
BLACK
6
CONTINUOUS
10
163.771
20
-84.3136
11
163.775
21
-84.3563
0
LINE
8
BLACK
6
CONTINUOUS
10
163.775
20
-84.3563
11
163.775
21
-84.7938
0
LINE
8
BLACK
6
CONTINUOUS
10
163.775
20
-84.7938
11
163.771
21
-84.8364
0
LINE
8
BLACK
6
CONTINUOUS
10
163.771
20
-84.8364
11
163.758
21
-84.8775
0
LINE
8
BLACK
6
CONTINUOUS
10
163.758
20
-84.8775
11
163.738
21
-84.9153
0
LINE
8
BLACK
6
CONTINUOUS
10
163.738
20
-84.9153
11
163.711
21
-84.9484
0
LINE
8
BLACK
6
CONTINUOUS
10
163.711
20
-84.9484
11
163.678
21
-84.9756
0
LINE
8
BLACK
6
CONTINUOUS
10
163.678
20
-84.9756
11
163.64
21
-84.9958
0
LINE
8
BLACK
6
CONTINUOUS
10
163.64
20
-84.9958
11
163.599
21
-85.0083
0
LINE
8
BLACK
6
CONTINUOUS
10
163.599
20
-85.0083
11
163.556
21
-85.0125
0
LINE
8
BLACK
6
CONTINUOUS
10
163.556
20
-85.0125
11
163.044
21
-85.0125
0
LINE
8
BLACK
6
CONTINUOUS
10
163.044
20
-85.0125
11
163.001
21
-85.0083
0
LINE
8
BLACK
6
CONTINUOUS
10
163.001
20
-85.0083
11
162.96
21
-84.9958
0
LINE
8
BLACK
6
CONTINUOUS
10
162.96
20
-84.9958
11
162.922
21
-84.9756
0
LINE
8
BLACK
6
CONTINUOUS
10
162.922
20
-84.9756
11
162.889
21
-84.9484
0
LINE
8
BLACK
6
CONTINUOUS
10
162.889
20
-84.9484
11
162.862
21
-84.9153
0
LINE
8
BLACK
6
CONTINUOUS
10
162.862
20
-84.9153
11
162.842
21
-84.8775
0
LINE
8
BLACK
6
CONTINUOUS
10
162.842
20
-84.8775
11
162.829
21
-84.8364
0
LINE
8
BLACK
6
CONTINUOUS
10
162.829
20
-84.8364
11
162.825
21
-84.7938
0
LINE
8
BLACK
6
CONTINUOUS
10
162.825
20
-84.7938
11
162.825
21
-84.3563
0
LINE
8
BLACK
6
CONTINUOUS
10
162.825
20
-84.3563
11
162.829
21
-84.3136
0
LINE
8
BLACK
6
CONTINUOUS
10
162.829
20
-84.3136
11
162.842
21
-84.2725
0
LINE
8
BLACK
6
CONTINUOUS
10
162.842
20
-84.2725
11
162.862
21
-84.2347
0
LINE
8
BLACK
6
CONTINUOUS
10
162.862
20
-84.2347
11
162.889
21
-84.2016
0
LINE
8
BLACK
6
CONTINUOUS
10
162.889
20
-84.2016
11
162.922
21
-84.1744
0
LINE
8
BLACK
6
CONTINUOUS
10
162.922
20
-84.1744
11
162.96
21
-84.1542
0
LINE
8
BLACK
6
CONTINUOUS
10
162.96
20
-84.1542
11
163.001
21
-84.1417
0
LINE
8
BLACK
6
CONTINUOUS
10
163.001
20
-84.1417
11
163.044
21
-84.1375
0
LINE
8
BLACK
6
CONTINUOUS
10
163.044
20
-84.1375
11
163.556
21
-84.1375
0
LINE
8
BLACK
6
CONTINUOUS
10
163.556
20
-84.1375
11
163.599
21
-84.1417
0
LINE
8
BLACK
6
CONTINUOUS
10
165.199
20
-84.1417
11
165.24
21
-84.1542
0
LINE
8
BLACK
6
CONTINUOUS
10
165.24
20
-84.1542
11
165.278
21
-84.1744
0
LINE
8
BLACK
6
CONTINUOUS
10
165.278
20
-84.1744
11
165.311
21
-84.2016
0
LINE
8
BLACK
6
CONTINUOUS
10
165.311
20
-84.2016
11
165.338
21
-84.2347
0
LINE
8
BLACK
6
CONTINUOUS
10
165.338
20
-84.2347
11
165.358
21
-84.2725
0
LINE
8
BLACK
6
CONTINUOUS
10
165.358
20
-84.2725
11
165.371
21
-84.3136
0
LINE
8
BLACK
6
CONTINUOUS
10
165.371
20
-84.3136
11
165.375
21
-84.3563
0
LINE
8
BLACK
6
CONTINUOUS
10
165.375
20
-84.3563
11
165.375
21
-84.7938
0
LINE
8
BLACK
6
CONTINUOUS
10
165.375
20
-84.7938
11
165.371
21
-84.8364
0
LINE
8
BLACK
6
CONTINUOUS
10
165.371
20
-84.8364
11
165.358
21
-84.8775
0
LINE
8
BLACK
6
CONTINUOUS
10
165.358
20
-84.8775
11
165.338
21
-84.9153
0
LINE
8
BLACK
6
CONTINUOUS
10
165.338
20
-84.9153
11
165.311
21
-84.9484
0
LINE
8
BLACK
6
CONTINUOUS
10
165.311
20
-84.9484
11
165.278
21
-84.9756
0
LINE
8
BLACK
6
CONTINUOUS
10
165.278
20
-84.9756
11
165.24
21
-84.9958
0
LINE
8
BLACK
6
CONTINUOUS
10
165.24
20
-84.9958
11
165.199
21
-85.0083
0
LINE
8
BLACK
6
CONTINUOUS
10
165.199
20
-85.0083
11
165.156
21
-85.0125
0
LINE
8
BLACK
6
CONTINUOUS
10
165.156
20
-85.0125
11
164.644
21
-85.0125
0
LINE
8
BLACK
6
CONTINUOUS
10
164.644
20
-85.0125
11
164.601
21
-85.0083
0
LINE
8
BLACK
6
CONTINUOUS
10
164.601
20
-85.0083
11
164.56
21
-84.9958
0
LINE
8
BLACK
6
CONTINUOUS
10
164.56
20
-84.9958
11
164.522
21
-84.9756
0
LINE
8
BLACK
6
CONTINUOUS
10
164.522
20
-84.9756
11
164.489
21
-84.9484
0
LINE
8
BLACK
6
CONTINUOUS
10
164.489
20
-84.9484
11
164.462
21
-84.9153
0
LINE
8
BLACK
6
CONTINUOUS
10
164.462
20
-84.9153
11
164.442
21
-84.8775
0
LINE
8
BLACK
6
CONTINUOUS
10
164.442
20
-84.8775
11
164.429
21
-84.8364
0
LINE
8
BLACK
6
CONTINUOUS
10
164.429
20
-84.8364
11
164.425
21
-84.7938
0
LINE
8
BLACK
6
CONTINUOUS
10
164.425
20
-84.7938
11
164.425
21
-84.3563
0
LINE
8
BLACK
6
CONTINUOUS
10
164.425
20
-84.3563
11
164.429
21
-84.3136
0
LINE
8
BLACK
6
CONTINUOUS
10
164.429
20
-84.3136
11
164.442
21
-84.2725
0
LINE
8
BLACK
6
CONTINUOUS
10
164.442
20
-84.2725
11
164.462
21
-84.2347
0
LINE
8
BLACK
6
CONTINUOUS
10
164.462
20
-84.2347
11
164.489
21
-84.2016
0
LINE
8
BLACK
6
CONTINUOUS
10
164.489
20
-84.2016
11
164.522
21
-84.1744
0
LINE
8
BLACK
6
CONTINUOUS
10
164.522
20
-84.1744
11
164.56
21
-84.1542
0
LINE
8
BLACK
6
CONTINUOUS
10
164.56
20
-84.1542
11
164.601
21
-84.1417
0
LINE
8
BLACK
6
CONTINUOUS
10
164.601
20
-84.1417
11
164.644
21
-84.1375
0
LINE
8
BLACK
6
CONTINUOUS
10
164.644
20
-84.1375
11
165.156
21
-84.1375
0
LINE
8
BLACK
6
CONTINUOUS
10
165.156
20
-84.1375
11
165.199
21
-84.1417
0
LINE
8
BLACK
6
CONTINUOUS
10
161.999
20
-83.1667
11
162.04
21
-83.1792
0
LINE
8
BLACK
6
CONTINUOUS
10
162.04
20
-83.1792
11
162.078
21
-83.1994
0
LINE
8
BLACK
6
CONTINUOUS
10
162.078
20
-83.1994
11
162.111
21
-83.2266
0
LINE
8
BLACK
6
CONTINUOUS
10
162.111
20
-83.2266
11
162.138
21
-83.2597
0
LINE
8
BLACK
6
CONTINUOUS
10
162.138
20
-83.2597
11
162.158
21
-83.2975
0
LINE
8
BLACK
6
CONTINUOUS
10
162.158
20
-83.2975
11
162.171
21
-83.3386
0
LINE
8
BLACK
6
CONTINUOUS
10
162.171
20
-83.3386
11
162.175
21
-83.3812
0
LINE
8
BLACK
6
CONTINUOUS
10
162.175
20
-83.3812
11
162.175
21
-83.8187
0
LINE
8
BLACK
6
CONTINUOUS
10
162.175
20
-83.8187
11
162.171
21
-83.8614
0
LINE
8
BLACK
6
CONTINUOUS
10
162.171
20
-83.8614
11
162.158
21
-83.9025
0
LINE
8
BLACK
6
CONTINUOUS
10
162.158
20
-83.9025
11
162.138
21
-83.9403
0
LINE
8
BLACK
6
CONTINUOUS
10
162.138
20
-83.9403
11
162.111
21
-83.9734
0
LINE
8
BLACK
6
CONTINUOUS
10
162.111
20
-83.9734
11
162.078
21
-84.0006
0
LINE
8
BLACK
6
CONTINUOUS
10
162.078
20
-84.0006
11
162.04
21
-84.0208
0
LINE
8
BLACK
6
CONTINUOUS
10
162.04
20
-84.0208
11
161.999
21
-84.0333
0
LINE
8
BLACK
6
CONTINUOUS
10
161.999
20
-84.0333
11
161.956
21
-84.0375
0
LINE
8
BLACK
6
CONTINUOUS
10
161.956
20
-84.0375
11
161.444
21
-84.0375
0
LINE
8
BLACK
6
CONTINUOUS
10
161.444
20
-84.0375
11
161.401
21
-84.0333
0
LINE
8
BLACK
6
CONTINUOUS
10
161.401
20
-84.0333
11
161.36
21
-84.0208
0
LINE
8
BLACK
6
CONTINUOUS
10
161.36
20
-84.0208
11
161.322
21
-84.0006
0
LINE
8
BLACK
6
CONTINUOUS
10
161.322
20
-84.0006
11
161.289
21
-83.9734
0
LINE
8
BLACK
6
CONTINUOUS
10
161.289
20
-83.9734
11
161.262
21
-83.9403
0
LINE
8
BLACK
6
CONTINUOUS
10
161.262
20
-83.9403
11
161.242
21
-83.9025
0
LINE
8
BLACK
6
CONTINUOUS
10
161.242
20
-83.9025
11
161.229
21
-83.8614
0
LINE
8
BLACK
6
CONTINUOUS
10
161.229
20
-83.8614
11
161.225
21
-83.8187
0
LINE
8
BLACK
6
CONTINUOUS
10
161.225
20
-83.8187
11
161.225
21
-83.3812
0
LINE
8
BLACK
6
CONTINUOUS
10
161.225
20
-83.3812
11
161.229
21
-83.3386
0
LINE
8
BLACK
6
CONTINUOUS
10
161.229
20
-83.3386
11
161.242
21
-83.2975
0
LINE
8
BLACK
6
CONTINUOUS
10
161.242
20
-83.2975
11
161.262
21
-83.2597
0
LINE
8
BLACK
6
CONTINUOUS
10
161.262
20
-83.2597
11
161.289
21
-83.2266
0
LINE
8
BLACK
6
CONTINUOUS
10
161.289
20
-83.2266
11
161.322
21
-83.1994
0
LINE
8
BLACK
6
CONTINUOUS
10
161.322
20
-83.1994
11
161.36
21
-83.1792
0
LINE
8
BLACK
6
CONTINUOUS
10
161.36
20
-83.1792
11
161.401
21
-83.1667
0
LINE
8
BLACK
6
CONTINUOUS
10
161.401
20
-83.1667
11
161.444
21
-83.1625
0
LINE
8
BLACK
6
CONTINUOUS
10
161.444
20
-83.1625
11
161.956
21
-83.1625
0
LINE
8
BLACK
6
CONTINUOUS
10
161.956
20
-83.1625
11
161.999
21
-83.1667
0
LINE
8
BLACK
6
CONTINUOUS
10
166.799
20
-83.1667
11
166.84
21
-83.1792
0
LINE
8
BLACK
6
CONTINUOUS
10
166.84
20
-83.1792
11
166.878
21
-83.1994
0
LINE
8
BLACK
6
CONTINUOUS
10
166.878
20
-83.1994
11
166.911
21
-83.2266
0
LINE
8
BLACK
6
CONTINUOUS
10
166.911
20
-83.2266
11
166.938
21
-83.2597
0
LINE
8
BLACK
6
CONTINUOUS
10
166.938
20
-83.2597
11
166.958
21
-83.2975
0
LINE
8
BLACK
6
CONTINUOUS
10
166.958
20
-83.2975
11
166.971
21
-83.3386
0
LINE
8
BLACK
6
CONTINUOUS
10
166.971
20
-83.3386
11
166.975
21
-83.3812
0
LINE
8
BLACK
6
CONTINUOUS
10
166.975
20
-83.3812
11
166.975
21
-83.8187
0
LINE
8
BLACK
6
CONTINUOUS
10
166.975
20
-83.8187
11
166.971
21
-83.8614
0
LINE
8
BLACK
6
CONTINUOUS
10
166.971
20
-83.8614
11
166.958
21
-83.9025
0
LINE
8
BLACK
6
CONTINUOUS
10
166.958
20
-83.9025
11
166.938
21
-83.9403
0
LINE
8
BLACK
6
CONTINUOUS
10
166.938
20
-83.9403
11
166.911
21
-83.9734
0
LINE
8
BLACK
6
CONTINUOUS
10
166.911
20
-83.9734
11
166.878
21
-84.0006
0
LINE
8
BLACK
6
CONTINUOUS
10
166.878
20
-84.0006
11
166.84
21
-84.0208
0
LINE
8
BLACK
6
CONTINUOUS
10
166.84
20
-84.0208
11
166.799
21
-84.0333
0
LINE
8
BLACK
6
CONTINUOUS
10
166.799
20
-84.0333
11
166.756
21
-84.0375
0
LINE
8
BLACK
6
CONTINUOUS
10
166.756
20
-84.0375
11
166.244
21
-84.0375
0
LINE
8
BLACK
6
CONTINUOUS
10
166.244
20
-84.0375
11
166.201
21
-84.0333
0
LINE
8
BLACK
6
CONTINUOUS
10
166.201
20
-84.0333
11
166.16
21
-84.0208
0
LINE
8
BLACK
6
CONTINUOUS
10
166.16
20
-84.0208
11
166.122
21
-84.0006
0
LINE
8
BLACK
6
CONTINUOUS
10
166.122
20
-84.0006
11
166.089
21
-83.9734
0
LINE
8
BLACK
6
CONTINUOUS
10
166.089
20
-83.9734
11
166.062
21
-83.9403
0
LINE
8
BLACK
6
CONTINUOUS
10
166.062
20
-83.9403
11
166.042
21
-83.9025
0
LINE
8
BLACK
6
CONTINUOUS
10
166.042
20
-83.9025
11
166.029
21
-83.8614
0
LINE
8
BLACK
6
CONTINUOUS
10
166.029
20
-83.8614
11
166.025
21
-83.8187
0
LINE
8
BLACK
6
CONTINUOUS
10
166.025
20
-83.8187
11
166.025
21
-83.3812
0
LINE
8
BLACK
6
CONTINUOUS
10
166.025
20
-83.3812
11
166.029
21
-83.3386
0
LINE
8
BLACK
6
CONTINUOUS
10
166.029
20
-83.3386
11
166.042
21
-83.2975
0
LINE
8
BLACK
6
CONTINUOUS
10
166.042
20
-83.2975
11
166.062
21
-83.2597
0
LINE
8
BLACK
6
CONTINUOUS
10
166.062
20
-83.2597
11
166.089
21
-83.2266
0
LINE
8
BLACK
6
CONTINUOUS
10
166.089
20
-83.2266
11
166.122
21
-83.1994
0
LINE
8
BLACK
6
CONTINUOUS
10
166.122
20
-83.1994
11
166.16
21
-83.1792
0
LINE
8
BLACK
6
CONTINUOUS
10
166.16
20
-83.1792
11
166.201
21
-83.1667
0
LINE
8
BLACK
6
CONTINUOUS
10
166.201
20
-83.1667
11
166.244
21
-83.1625
0
LINE
8
BLACK
6
CONTINUOUS
10
166.244
20
-83.1625
11
166.756
21
-83.1625
0
LINE
8
BLACK
6
CONTINUOUS
10
166.756
20
-83.1625
11
166.799
21
-83.1667
0
LINE
8
BLACK
6
CONTINUOUS
10
163.599
20
-82.5667
11
163.64
21
-82.5792
0
LINE
8
BLACK
6
CONTINUOUS
10
163.64
20
-82.5792
11
163.678
21
-82.5994
0
LINE
8
BLACK
6
CONTINUOUS
10
163.678
20
-82.5994
11
163.711
21
-82.6266
0
LINE
8
BLACK
6
CONTINUOUS
10
163.711
20
-82.6266
11
163.738
21
-82.6597
0
LINE
8
BLACK
6
CONTINUOUS
10
163.738
20
-82.6597
11
163.758
21
-82.6975
0
LINE
8
BLACK
6
CONTINUOUS
10
163.758
20
-82.6975
11
163.771
21
-82.7386
0
LINE
8
BLACK
6
CONTINUOUS
10
163.771
20
-82.7386
11
163.775
21
-82.7812
0
LINE
8
BLACK
6
CONTINUOUS
10
163.775
20
-82.7812
11
163.775
21
-83.2188
0
LINE
8
BLACK
6
CONTINUOUS
10
163.775
20
-83.2188
11
163.771
21
-83.2614
0
LINE
8
BLACK
6
CONTINUOUS
10
163.771
20
-83.2614
11
163.758
21
-83.3025
0
LINE
8
BLACK
6
CONTINUOUS
10
163.758
20
-83.3025
11
163.738
21
-83.3403
0
LINE
8
BLACK
6
CONTINUOUS
10
163.738
20
-83.3403
11
163.711
21
-83.3734
0
LINE
8
BLACK
6
CONTINUOUS
10
163.711
20
-83.3734
11
163.678
21
-83.4006
0
LINE
8
BLACK
6
CONTINUOUS
10
163.678
20
-83.4006
11
163.64
21
-83.4208
0
LINE
8
BLACK
6
CONTINUOUS
10
163.64
20
-83.4208
11
163.599
21
-83.4333
0
LINE
8
BLACK
6
CONTINUOUS
10
163.599
20
-83.4333
11
163.556
21
-83.4375
0
LINE
8
BLACK
6
CONTINUOUS
10
163.556
20
-83.4375
11
163.044
21
-83.4375
0
LINE
8
BLACK
6
CONTINUOUS
10
163.044
20
-83.4375
11
163.001
21
-83.4333
0
LINE
8
BLACK
6
CONTINUOUS
10
163.001
20
-83.4333
11
162.96
21
-83.4208
0
LINE
8
BLACK
6
CONTINUOUS
10
162.96
20
-83.4208
11
162.922
21
-83.4006
0
LINE
8
BLACK
6
CONTINUOUS
10
162.922
20
-83.4006
11
162.889
21
-83.3734
0
LINE
8
BLACK
6
CONTINUOUS
10
162.889
20
-83.3734
11
162.862
21
-83.3403
0
LINE
8
BLACK
6
CONTINUOUS
10
162.862
20
-83.3403
11
162.842
21
-83.3025
0
LINE
8
BLACK
6
CONTINUOUS
10
162.842
20
-83.3025
11
162.829
21
-83.2614
0
LINE
8
BLACK
6
CONTINUOUS
10
162.829
20
-83.2614
11
162.825
21
-83.2188
0
LINE
8
BLACK
6
CONTINUOUS
10
162.825
20
-83.2188
11
162.825
21
-82.7812
0
LINE
8
BLACK
6
CONTINUOUS
10
162.825
20
-82.7812
11
162.829
21
-82.7386
0
LINE
8
BLACK
6
CONTINUOUS
10
162.829
20
-82.7386
11
162.842
21
-82.6975
0
LINE
8
BLACK
6
CONTINUOUS
10
162.842
20
-82.6975
11
162.862
21
-82.6597
0
LINE
8
BLACK
6
CONTINUOUS
10
162.862
20
-82.6597
11
162.889
21
-82.6266
0
LINE
8
BLACK
6
CONTINUOUS
10
162.889
20
-82.6266
11
162.922
21
-82.5994
0
LINE
8
BLACK
6
CONTINUOUS
10
162.922
20
-82.5994
11
162.96
21
-82.5792
0
LINE
8
BLACK
6
CONTINUOUS
10
162.96
20
-82.5792
11
163.001
21
-82.5667
0
LINE
8
BLACK
6
CONTINUOUS
10
163.001
20
-82.5667
11
163.044
21
-82.5625
0
LINE
8
BLACK
6
CONTINUOUS
10
163.044
20
-82.5625
11
163.556
21
-82.5625
0
LINE
8
BLACK
6
CONTINUOUS
10
163.556
20
-82.5625
11
163.599
21
-82.5667
0
LINE
8
BLACK
6
CONTINUOUS
10
165.199
20
-82.5667
11
165.24
21
-82.5792
0
LINE
8
BLACK
6
CONTINUOUS
10
165.24
20
-82.5792
11
165.278
21
-82.5994
0
LINE
8
BLACK
6
CONTINUOUS
10
165.278
20
-82.5994
11
165.311
21
-82.6266
0
LINE
8
BLACK
6
CONTINUOUS
10
165.311
20
-82.6266
11
165.338
21
-82.6597
0
LINE
8
BLACK
6
CONTINUOUS
10
165.338
20
-82.6597
11
165.358
21
-82.6975
0
LINE
8
BLACK
6
CONTINUOUS
10
165.358
20
-82.6975
11
165.371
21
-82.7386
0
LINE
8
BLACK
6
CONTINUOUS
10
165.371
20
-82.7386
11
165.375
21
-82.7812
0
LINE
8
BLACK
6
CONTINUOUS
10
165.375
20
-82.7812
11
165.375
21
-83.2188
0
LINE
8
BLACK
6
CONTINUOUS
10
165.375
20
-83.2188
11
165.371
21
-83.2614
0
LINE
8
BLACK
6
CONTINUOUS
10
165.371
20
-83.2614
11
165.358
21
-83.3025
0
LINE
8
BLACK
6
CONTINUOUS
10
165.358
20
-83.3025
11
165.338
21
-83.3403
0
LINE
8
BLACK
6
CONTINUOUS
10
165.338
20
-83.3403
11
165.311
21
-83.3734
0
LINE
8
BLACK
6
CONTINUOUS
10
165.311
20
-83.3734
11
165.278
21
-83.4006
0
LINE
8
BLACK
6
CONTINUOUS
10
165.278
20
-83.4006
11
165.24
21
-83.4208
0
LINE
8
BLACK
6
CONTINUOUS
10
165.24
20
-83.4208
11
165.199
21
-83.4333
0
LINE
8
BLACK
6
CONTINUOUS
10
165.199
20
-83.4333
11
165.156
21
-83.4375
0
LINE
8
BLACK
6
CONTINUOUS
10
165.156
20
-83.4375
11
164.644
21
-83.4375
0
LINE
8
BLACK
6
CONTINUOUS
10
164.644
20
-83.4375
11
164.601
21
-83.4333
0
LINE
8
BLACK
6
CONTINUOUS
10
164.601
20
-83.4333
11
164.56
21
-83.4208
0
LINE
8
BLACK
6
CONTINUOUS
10
164.56
20
-83.4208
11
164.522
21
-83.4006
0
LINE
8
BLACK
6
CONTINUOUS
10
164.522
20
-83.4006
11
164.489
21
-83.3734
0
LINE
8
BLACK
6
CONTINUOUS
10
164.489
20
-83.3734
11
164.462
21
-83.3403
0
LINE
8
BLACK
6
CONTINUOUS
10
164.462
20
-83.3403
11
164.442
21
-83.3025
0
LINE
8
BLACK
6
CONTINUOUS
10
164.442
20
-83.3025
11
164.429
21
-83.2614
0
LINE
8
BLACK
6
CONTINUOUS
10
164.429
20
-83.2614
11
164.425
21
-83.2188
0
LINE
8
BLACK
6
CONTINUOUS
10
164.425
20
-83.2188
11
164.425
21
-82.7812
0
LINE
8
BLACK
6
CONTINUOUS
10
164.425
20
-82.7812
11
164.429
21
-82.7386
0
LINE
8
BLACK
6
CONTINUOUS
10
164.429
20
-82.7386
11
164.442
21
-82.6975
0
LINE
8
BLACK
6
CONTINUOUS
10
164.442
20
-82.6975
11
164.462
21
-82.6597
0
LINE
8
BLACK
6
CONTINUOUS
10
164.462
20
-82.6597
11
164.489
21
-82.6266
0
LINE
8
BLACK
6
CONTINUOUS
10
164.489
20
-82.6266
11
164.522
21
-82.5994
0
LINE
8
BLACK
6
CONTINUOUS
10
164.522
20
-82.5994
11
164.56
21
-82.5792
0
LINE
8
BLACK
6
CONTINUOUS
10
164.56
20
-82.5792
11
164.601
21
-82.5667
0
LINE
8
BLACK
6
CONTINUOUS
10
164.601
20
-82.5667
11
164.644
21
-82.5625
0
LINE
8
BLACK
6
CONTINUOUS
10
164.644
20
-82.5625
11
165.156
21
-82.5625
0
LINE
8
BLACK
6
CONTINUOUS
10
165.156
20
-82.5625
11
165.199
21
-82.5667
  0
ENDSEC
  0
EOF
