  0
SECTION
  2
HEADER
  9
$ANGBASE
  50
0.0
  9
$ANGDIR
  70
  1
  9
$MEASUREMENT
  70
0
  0
ENDSEC
  0
SECTION
  2
TABLES
  0
TABLE
  2
LTYPE
  70
4
  0
LTYPE
  5
40F
  2
CONTINUOUS
  70
0
  3
Solid line
  72
65
  73
0
  40
0.0
  0
LTYPE
  5
410
  2
DASHDOT
 70
0
  3
Dash Dot ____ _ ____ _
 72
65
 73
4
 40
2.0
 49
1.25
 49
-0.25
 49
0.25
 49
-0.25
  0
LTYPE
  5
411
  2
DASHED
 70
0
  3
Dashed __ __ __ __ __
 72
65
 73
2
 40
0.75
 49
0.5
 49
-0.25
  0
LTYPE
  5
43B
  2
DOTTED
 70
0
  3
Dotted .  .  .  .
 72
65
 73
2
 40
0.2
 49
0.0
 49
-0.2
  0
ENDTAB
  0
TABLE
  2
STYLE
  70
4
  0
STYLE
  2
KICAD
  70
0
  40
0
  41
1
  42
1
  50
0
  71
0
  3
isocp.shx
  0
STYLE
  2
KICADB
  70
0
  40
0
  41
1
  42
1
  50
0
  71
0
  3
isocp.shx
  0
STYLE
  2
KICADI
  70
0
  40
0
  41
1
  42
1
  50
15
  71
0
  3
isocp.shx
  0
STYLE
  2
KICADBI
  70
0
  40
0
  41
1
  42
1
  50
15
  71
0
  3
isocp.shx
  0
ENDTAB
  0
TABLE
  2
LAYER
  70
30
  0
LAYER
  2
BLACK
  70
0
  62
7
  6
CONTINUOUS
  0
LAYER
  2
GRAY1
  70
0
  62
251
  6
CONTINUOUS
  0
LAYER
  2
GRAY2
  70
0
  62
8
  6
CONTINUOUS
  0
LAYER
  2
GRAY3
  70
0
  62
9
  6
CONTINUOUS
  0
LAYER
  2
WHITE
  70
0
  62
7
  6
CONTINUOUS
  0
LAYER
  2
LYELLOW
  70
0
  62
51
  6
CONTINUOUS
  0
LAYER
  2
BLUE1
  70
0
  62
178
  6
CONTINUOUS
  0
LAYER
  2
GREEN1
  70
0
  62
98
  6
CONTINUOUS
  0
LAYER
  2
CYAN1
  70
0
  62
138
  6
CONTINUOUS
  0
LAYER
  2
RED1
  70
0
  62
18
  6
CONTINUOUS
  0
LAYER
  2
MAGENTA1
  70
0
  62
228
  6
CONTINUOUS
  0
LAYER
  2
BROWN1
  70
0
  62
58
  6
CONTINUOUS
  0
LAYER
  2
BLUE2
  70
0
  62
5
  6
CONTINUOUS
  0
LAYER
  2
GREEN2
  70
0
  62
3
  6
CONTINUOUS
  0
LAYER
  2
CYAN2
  70
0
  62
4
  6
CONTINUOUS
  0
LAYER
  2
RED2
  70
0
  62
1
  6
CONTINUOUS
  0
LAYER
  2
MAGENTA2
  70
0
  62
6
  6
CONTINUOUS
  0
LAYER
  2
BROWN2
  70
0
  62
54
  6
CONTINUOUS
  0
LAYER
  2
BLUE3
  70
0
  62
171
  6
CONTINUOUS
  0
LAYER
  2
GREEN3
  70
0
  62
91
  6
CONTINUOUS
  0
LAYER
  2
CYAN3
  70
0
  62
131
  6
CONTINUOUS
  0
LAYER
  2
RED3
  70
0
  62
11
  6
CONTINUOUS
  0
LAYER
  2
MAGENTA3
  70
0
  62
221
  6
CONTINUOUS
  0
LAYER
  2
YELLOW3
  70
0
  62
2
  6
CONTINUOUS
  0
LAYER
  2
BLUE4
  70
0
  62
5
  6
CONTINUOUS
  0
LAYER
  2
GREEN4
  70
0
  62
3
  6
CONTINUOUS
  0
LAYER
  2
CYAN4
  70
0
  62
4
  6
CONTINUOUS
  0
LAYER
  2
RED4
  70
0
  62
1
  6
CONTINUOUS
  0
LAYER
  2
MAGENTA4
  70
0
  62
6
  6
CONTINUOUS
  0
LAYER
  2
YELLOW4
  70
0
  62
2
  6
CONTINUOUS
  0
ENDTAB
  0
ENDSEC
  0
SECTION
  2
ENTITIES
0
LINE
8
BLACK
6
CONTINUOUS
10
180.001
20
-77.975
11
180.005
21
-77.9754
0
LINE
8
BLACK
6
CONTINUOUS
10
180.005
20
-77.9754
11
180.01
21
-77.9768
0
LINE
8
BLACK
6
CONTINUOUS
10
180.01
20
-77.9768
11
180.014
21
-77.9791
0
LINE
8
BLACK
6
CONTINUOUS
10
180.014
20
-77.9791
11
180.018
21
-77.9822
0
LINE
8
BLACK
6
CONTINUOUS
10
180.018
20
-77.9822
11
180.021
21
-77.986
0
LINE
8
BLACK
6
CONTINUOUS
10
180.021
20
-77.986
11
180.023
21
-77.9904
0
LINE
8
BLACK
6
CONTINUOUS
10
180.023
20
-77.9904
11
180.025
21
-77.9951
0
LINE
8
BLACK
6
CONTINUOUS
10
180.025
20
-77.9951
11
180.025
21
-78
0
LINE
8
BLACK
6
CONTINUOUS
10
180.025
20
-78
11
180.025
21
-78.0012
0
LINE
8
BLACK
6
CONTINUOUS
10
180.025
20
-78.0012
11
180.025
21
-114.999
0
LINE
8
BLACK
6
CONTINUOUS
10
180.025
20
-114.999
11
180.025
21
-115
0
LINE
8
BLACK
6
CONTINUOUS
10
180.025
20
-115
11
180.025
21
-115.005
0
LINE
8
BLACK
6
CONTINUOUS
10
180.025
20
-115.005
11
180.023
21
-115.01
0
LINE
8
BLACK
6
CONTINUOUS
10
180.023
20
-115.01
11
180.021
21
-115.014
0
LINE
8
BLACK
6
CONTINUOUS
10
180.021
20
-115.014
11
180.018
21
-115.018
0
LINE
8
BLACK
6
CONTINUOUS
10
180.018
20
-115.018
11
180.014
21
-115.021
0
LINE
8
BLACK
6
CONTINUOUS
10
180.014
20
-115.021
11
180.01
21
-115.023
0
LINE
8
BLACK
6
CONTINUOUS
10
180.01
20
-115.023
11
180.005
21
-115.025
0
LINE
8
BLACK
6
CONTINUOUS
10
180.005
20
-115.025
11
180.001
21
-115.025
0
LINE
8
BLACK
6
CONTINUOUS
10
180.001
20
-115.025
11
180.001
21
-115.025
0
LINE
8
BLACK
6
CONTINUOUS
10
180.001
20
-115.025
11
180
21
-115.025
0
LINE
8
BLACK
6
CONTINUOUS
10
180
20
-115.025
11
179.999
21
-115.025
0
LINE
8
BLACK
6
CONTINUOUS
10
179.999
20
-115.025
11
148.001
21
-115.025
0
LINE
8
BLACK
6
CONTINUOUS
10
148.001
20
-115.025
11
148
21
-115.025
0
LINE
8
BLACK
6
CONTINUOUS
10
148
20
-115.025
11
147.999
21
-115.025
0
LINE
8
BLACK
6
CONTINUOUS
10
147.999
20
-115.025
11
147.999
21
-115.025
0
LINE
8
BLACK
6
CONTINUOUS
10
147.999
20
-115.025
11
147.995
21
-115.025
0
LINE
8
BLACK
6
CONTINUOUS
10
147.995
20
-115.025
11
147.99
21
-115.023
0
LINE
8
BLACK
6
CONTINUOUS
10
147.99
20
-115.023
11
147.986
21
-115.021
0
LINE
8
BLACK
6
CONTINUOUS
10
147.986
20
-115.021
11
147.982
21
-115.018
0
LINE
8
BLACK
6
CONTINUOUS
10
147.982
20
-115.018
11
147.979
21
-115.014
0
LINE
8
BLACK
6
CONTINUOUS
10
147.979
20
-115.014
11
147.977
21
-115.01
0
LINE
8
BLACK
6
CONTINUOUS
10
147.977
20
-115.01
11
147.975
21
-115.005
0
LINE
8
BLACK
6
CONTINUOUS
10
147.975
20
-115.005
11
147.975
21
-115
0
LINE
8
BLACK
6
CONTINUOUS
10
147.975
20
-115
11
147.975
21
-114.999
0
LINE
8
BLACK
6
CONTINUOUS
10
147.975
20
-114.999
11
147.975
21
-78.0012
0
LINE
8
BLACK
6
CONTINUOUS
10
147.975
20
-78.0012
11
147.975
21
-78
0
LINE
8
BLACK
6
CONTINUOUS
10
147.975
20
-78
11
147.975
21
-77.9951
0
LINE
8
BLACK
6
CONTINUOUS
10
147.975
20
-77.9951
11
147.977
21
-77.9904
0
LINE
8
BLACK
6
CONTINUOUS
10
147.977
20
-77.9904
11
147.979
21
-77.986
0
LINE
8
BLACK
6
CONTINUOUS
10
147.979
20
-77.986
11
147.982
21
-77.9822
0
LINE
8
BLACK
6
CONTINUOUS
10
147.982
20
-77.9822
11
147.986
21
-77.9791
0
LINE
8
BLACK
6
CONTINUOUS
10
147.986
20
-77.9791
11
147.99
21
-77.9768
0
LINE
8
BLACK
6
CONTINUOUS
10
147.99
20
-77.9768
11
147.995
21
-77.9754
0
LINE
8
BLACK
6
CONTINUOUS
10
147.995
20
-77.9754
11
147.999
21
-77.975
0
LINE
8
BLACK
6
CONTINUOUS
10
147.999
20
-77.975
11
148
21
-77.9749
0
LINE
8
BLACK
6
CONTINUOUS
10
148
20
-77.9749
11
148.001
21
-77.975
0
LINE
8
BLACK
6
CONTINUOUS
10
148.001
20
-77.975
11
179.999
21
-77.975
0
LINE
8
BLACK
6
CONTINUOUS
10
179.999
20
-77.975
11
180
21
-77.9749
0
LINE
8
BLACK
6
CONTINUOUS
10
180
20
-77.9749
11
180.001
21
-77.975
0
LINE
8
BLACK
6
CONTINUOUS
10
148.025
20
-78.025
11
148.025
21
-114.975
0
LINE
8
BLACK
6
CONTINUOUS
10
148.025
20
-114.975
11
179.975
21
-114.975
0
LINE
8
BLACK
6
CONTINUOUS
10
179.975
20
-114.975
11
179.975
21
-78.025
0
LINE
8
BLACK
6
CONTINUOUS
10
179.975
20
-78.025
11
148.025
21
-78.025
  0
ENDSEC
  0
EOF
